<svg width="38" height="39" viewBox="0 0 38 39" fill="none" xmlns="http://www.w3.org/2000/svg">
<path d="M10.3502 0.151535C5.71691 0.82061 1.48502 4.55069 0.381044 9.00003C-0.856742 13.9177 0.98321 19.1198 4.99765 21.9633C7.2056 23.5357 9.36336 24.2215 12.14 24.2215C14.5989 24.2215 17.0075 23.5022 18.8642 22.231C19.2656 21.9466 19.6671 21.7124 19.7507 21.7124C19.9514 21.7124 22.8117 24.6062 22.8117 24.8236C22.8117 24.9073 22.5441 25.2418 22.2263 25.5596C21.9085 25.8774 21.6409 26.2454 21.6409 26.3959C21.6409 26.7305 33.0151 38.1047 33.3664 38.1047C33.6675 38.1047 37.9161 33.8896 37.9997 33.5216C38.0666 33.2372 26.6589 21.7124 26.3244 21.7124C26.1906 21.7124 25.7222 22.0637 25.2873 22.4986L24.4844 23.3015L22.8619 21.679L21.2561 20.0732L21.7579 19.4376C22.4605 18.5343 23.2466 17.0456 23.6648 15.8079C24.0997 14.4864 24.267 11.6763 23.9993 10.0706C23.0961 4.96886 19.0147 0.971149 13.8629 0.201717C12.2069 -0.0491867 11.8222 -0.0659142 10.3502 0.151535ZM13.612 0.803883C14.1138 0.904243 14.6825 0.987877 14.8665 0.987877C15.0338 0.987877 15.2679 1.05479 15.3683 1.13842C15.4687 1.22205 15.9203 1.40605 16.3719 1.57332C16.8403 1.72386 17.409 1.99149 17.6599 2.15876C17.894 2.34275 18.1617 2.47657 18.2453 2.47657C18.3457 2.47657 18.5464 2.62711 18.7137 2.8111C18.8809 2.9951 19.0984 3.14564 19.1987 3.14564C19.734 3.14564 22.4772 6.77536 22.4772 7.47789C22.4772 7.67861 22.5441 7.81243 22.611 7.76225C22.6946 7.71207 22.8954 8.21387 23.0794 8.88295C23.531 10.5556 23.531 14.2188 23.0961 15.4733C22.9288 15.9584 22.7114 16.3598 22.6277 16.3598C22.5274 16.3598 22.4939 16.4268 22.5608 16.5271C22.6946 16.7446 21.8416 18.4005 21.6409 18.2834C21.5572 18.2332 21.4569 18.3671 21.39 18.5678C21.323 18.7852 21.1725 19.2034 21.0387 19.5045C20.8882 19.8056 20.838 20.207 20.8882 20.391C20.9551 20.575 21.6576 21.3779 22.4772 22.1808C23.7484 23.4353 24.0161 23.636 24.5513 23.6527C24.8691 23.6695 25.1033 23.6026 25.0531 23.5357C25.003 23.452 25.0364 23.3851 25.12 23.3851C25.2037 23.3851 25.5717 23.1008 25.9062 22.7495C26.2575 22.415 26.4916 22.2142 26.4247 22.3313C26.3578 22.4484 26.4582 22.6826 26.6589 22.8833C26.8429 23.0673 26.9934 23.1844 26.9934 23.1509C26.9934 23.0506 31.677 27.7675 31.677 27.8679C31.677 27.9348 31.9279 28.169 32.2289 28.3864C32.53 28.6206 32.9649 29.0388 33.1991 29.3399C33.4166 29.641 33.6173 29.8584 33.6507 29.8417C33.7845 29.7079 37.1299 33.3041 37.1132 33.555C37.0965 33.8561 34.0856 36.9339 33.818 36.9339C33.7344 36.9339 33.7176 37.0008 33.7678 37.1011C33.818 37.1848 33.7176 37.2684 33.5504 37.2684C33.3329 37.2684 31.2253 35.2779 27.7629 31.7987L22.3099 26.3458L22.8117 25.9276C23.1965 25.6098 23.2634 25.4592 23.1128 25.3589C22.9456 25.2585 22.9456 25.2251 23.1128 25.2251C23.4641 25.2251 23.3303 24.556 22.8619 23.9371C22.3434 23.2513 20.9049 21.7961 20.3863 21.4448C19.9347 21.127 19.2991 21.1604 18.7304 21.5284C18.446 21.7124 18.1617 21.8128 18.0613 21.7626C17.961 21.6957 17.9442 21.7793 18.0279 21.9801C18.0948 22.1473 18.0948 22.2477 18.0446 22.1808C17.9777 22.1139 17.5261 22.2979 17.0075 22.5822C16.5057 22.8499 16.0541 23.0339 16.0039 22.9837C15.937 22.9335 15.8199 22.9502 15.7196 23.0339C15.4519 23.2513 13.7123 23.5858 12.6084 23.636C11.1531 23.7029 8.6441 23.268 8.19248 22.8499C8.09212 22.783 7.90812 22.716 7.75758 22.716C7.10523 22.716 4.12786 20.7255 4.37876 20.4579C4.44567 20.391 4.37876 20.3576 4.24494 20.4077C3.99404 20.4914 3.55914 20.0397 3.35842 19.4878C3.30824 19.3372 3.17443 19.2034 3.09079 19.2034C2.99043 19.2034 2.80644 18.986 2.65589 18.7183C2.52208 18.4507 2.2879 18.1162 2.15409 17.9656C2.00355 17.8151 1.86973 17.5474 1.85301 17.3635C1.83628 17.1795 1.7861 17.0289 1.73592 17.0289C1.65228 17.0289 1.46829 16.5104 0.866122 14.6035C0.598493 13.7337 0.631947 9.92001 0.899576 9.58547C1.01666 9.45166 1.06684 9.18403 1.01666 9.00003C0.966484 8.81604 0.999937 8.69895 1.08357 8.76586C1.16721 8.81604 1.23411 8.71568 1.23411 8.54841C1.23411 8.0466 2.30463 6.05611 3.14097 4.98559C3.97731 3.88162 5.36564 2.72747 6.25216 2.34275C6.56997 2.20894 6.87106 2.04167 6.92124 1.97476C7.07178 1.74059 8.66083 1.1886 8.92846 1.27224C9.079 1.32241 9.11245 1.28896 9.04555 1.20533C8.67756 0.82061 12.14 0.519527 13.612 0.803883Z" fill="white"/>
<path d="M10.5517 1.6902C9.64843 1.89092 8.02593 2.35927 7.84193 2.45963C7.7583 2.50981 7.52412 2.54327 7.34013 2.52654C7.15613 2.49309 7.10595 2.52654 7.22304 2.57672C7.37358 2.64363 7.12268 2.87781 6.57069 3.19561C5.75108 3.64724 4.26239 5.00211 3.54314 5.93882C2.79043 6.90897 2.03772 8.66529 1.653 10.338C1.4021 11.4252 1.36865 13.6833 1.61955 13.6833C1.68646 13.6833 1.73664 13.9008 1.73664 14.1517C1.73664 14.9044 2.37226 16.6105 3.05806 17.6476C3.92785 19.0025 5.85144 20.8926 6.57069 21.1268C6.77142 21.177 6.8885 21.2941 6.83832 21.3777C6.78814 21.4446 6.92196 21.545 7.13941 21.5951C7.85866 21.7791 9.26372 22.3311 9.18008 22.398C9.04627 22.5318 10.2506 22.6155 12.3916 22.6155C13.78 22.6155 14.5159 22.5486 14.6498 22.4148C14.7668 22.2977 14.9843 22.214 15.1516 22.214C16.4061 22.214 19.9856 19.6214 20.7383 18.1494C20.8721 17.8985 21.0729 17.7312 21.1732 17.7981C21.2736 17.8651 21.3238 17.8149 21.2736 17.6811C21.2234 17.5472 21.4074 17.0789 21.675 16.644C21.9427 16.1924 22.1099 15.7742 22.0597 15.6906C22.0096 15.6069 22.043 15.5066 22.1099 15.4564C22.6452 15.1219 22.7957 9.96999 22.2772 9.65218C22.1601 9.58527 22.1099 9.46818 22.1768 9.418C22.3608 9.21728 21.2401 6.65807 20.638 5.92209C19.6344 4.6843 16.8912 2.42618 16.4897 2.50981C16.4228 2.50981 16.0883 2.40945 15.7537 2.25891C15.4025 2.09164 15.0177 1.97456 14.8672 1.97456C14.7334 1.97456 14.6163 1.90765 14.6163 1.84074C14.6163 1.77383 14.3319 1.70693 13.9974 1.6902C13.6461 1.6902 12.86 1.65675 12.2244 1.62329C11.6055 1.58984 10.8528 1.60657 10.5517 1.6902ZM15.1181 2.71054C17.7944 3.51342 20.2365 5.82173 21.3238 8.58166C21.7754 9.71908 21.8758 10.2042 21.9427 11.7932C22.0096 13.3823 21.9594 13.8339 21.6416 14.8877C20.7383 17.8818 18.6475 20.1734 15.6701 21.4111C14.4156 21.9464 14.2818 21.9631 12.0236 21.9631C9.73207 21.9464 9.64843 21.9464 8.36047 21.3944C5.55036 20.1901 3.35914 17.748 2.50607 14.8542C2.18826 13.767 2.12135 11.1576 2.40571 9.91981C3.12497 6.70825 5.83471 3.76433 9.07972 2.72726C10.8695 2.14182 13.2447 2.14182 15.1181 2.71054Z" fill="white"/>
</svg>
