<svg width="45" height="45" viewBox="0 0 45 45" fill="none" xmlns="http://www.w3.org/2000/svg">
<path d="M21.7213 44.4782C20.6626 44.3401 19.857 43.6266 19.5578 42.5449C19.3507 41.8314 19.3046 38.7242 19.3507 31.2439C19.3967 25.5819 19.3737 20.9557 19.3046 20.9557C19.2356 20.9557 17.7856 22.3597 16.0824 24.0859C12.7911 27.3772 11.6172 28.2288 10.5815 27.9756C9.5918 27.7455 8.92433 27.1931 8.57909 26.3185C7.91162 24.7534 8.09575 24.5232 14.4482 18.1247C17.6935 14.8564 20.6396 12.0254 21.0078 11.8182C22.4809 11.0357 22.8261 11.2889 29.2476 17.6874C32.5159 20.9327 35.3469 23.9248 35.5311 24.3391C36.1755 25.674 35.485 27.1701 33.9429 27.7455C33.1834 28.0447 32.8382 28.0677 32.3088 27.8605C31.9175 27.7224 30.1223 26.1113 28.281 24.27C26.4397 22.4517 24.8746 20.9557 24.8285 20.9557C24.7595 20.9557 24.6904 25.7891 24.6674 31.6812C24.6444 39.2996 24.5523 42.6139 24.3682 43.0743C23.9309 44.087 22.9182 44.6163 21.7213 44.4782ZM23.2404 42.8211C23.7007 42.2227 23.7007 41.8544 23.7237 32.786C23.7237 21.6462 23.7698 21.0017 24.6674 20.4954C25.2658 20.1731 25.3349 20.1731 25.542 20.5644C25.6801 20.7716 25.8873 20.9557 26.0484 20.9557C26.2095 20.9557 27.3833 22.0144 28.6492 23.3264C32.3778 27.078 32.608 27.2391 33.7128 26.8708C34.4953 26.5947 35.0938 25.0295 34.6104 24.4772C33.5286 23.1422 23.2864 13.0611 22.7571 12.7849C22.3888 12.5778 22.0436 12.4167 21.9975 12.3706C21.8364 12.2556 20.1332 13.7056 18.6832 15.1786C17.8546 16.0072 17.0721 16.6747 16.911 16.6286C16.7729 16.5826 16.7268 16.6056 16.8189 16.6977C17.003 16.8818 10.8347 23.1652 10.5355 23.0962C10.4204 23.0502 10.3283 23.1422 10.3283 23.2803C10.3283 23.4184 10.1212 23.7867 9.86799 24.1089C9.61482 24.4311 9.40767 24.9605 9.40767 25.3057C9.43069 25.9502 9.89101 26.7097 10.2823 26.7097C10.4204 26.7097 10.5585 26.8248 10.6045 26.9629C10.8117 27.5613 12.4688 26.3415 15.4609 23.3954C17.2332 21.6692 18.7983 20.2652 18.9824 20.2652C19.1665 20.2652 19.5118 20.4723 19.765 20.7255C20.2253 21.1858 20.2483 21.439 20.2253 31.2209C20.2253 41.6703 20.3173 42.9131 21.1459 43.1663C21.3991 43.2584 21.5602 43.3965 21.5142 43.4885C21.4451 43.5806 21.7213 43.6036 22.0896 43.5576C22.5039 43.4885 22.9872 43.1893 23.2404 42.8211Z" fill="white"/>
<path d="M1.32864 16.4677C0.0397333 15.7772 -0.0523315 15.1327 0.0167171 8.29692L0.0857657 2.08255L0.8453 1.34603L1.58182 0.586493L21.675 0.517445C40.4332 0.471412 41.7911 0.494428 42.5507 0.862688C44.0467 1.62222 44.1618 2.1516 44.1618 8.57312C44.1618 14.7645 44.0007 15.7081 42.8959 16.4447C42.1594 16.928 40.6173 16.905 39.8578 16.4216C38.799 15.7312 38.6379 14.9026 38.6379 10.2533V5.9953H22.0202H5.37949L5.44854 8.96439C5.49457 10.6216 5.42552 12.8081 5.31044 13.8668C5.1033 15.547 4.98822 15.8232 4.41281 16.2835C3.65328 16.905 2.24929 16.974 1.32864 16.4677ZM3.79137 15.3629L4.41281 14.8105L4.52789 10.4604C4.61996 6.45562 4.66599 6.06435 5.1033 5.60402L5.56362 5.07465H21.9972H38.4077L38.9831 5.58101C39.5586 6.06435 39.5586 6.1334 39.5586 9.65488C39.5816 11.6343 39.6736 13.6827 39.7657 14.2351C40.0879 15.8693 41.2848 16.3756 42.4816 15.3399L43.1261 14.7875L43.1951 9.42472C43.2411 6.45562 43.2181 3.7167 43.1261 3.32542C43.057 2.93415 42.7578 2.33572 42.4356 1.99048L41.8832 1.39206H22.3885C7.88826 1.39206 2.6866 1.46111 2.13421 1.66825C1.62785 1.85238 1.28261 2.17461 1.12149 2.61192C0.983398 3.02621 0.891333 5.65006 0.891333 8.89534V14.4653L1.48975 15.1788C2.20326 16.0304 2.93977 16.0994 3.79137 15.3629Z" fill="white"/>
</svg>
