<svg width="94" height="34" viewBox="0 0 94 34" fill="none" xmlns="http://www.w3.org/2000/svg">
<g clip-path="url(#clip0_2867_5040)">
<path d="M12.835 1.55811C14.9113 -0.518195 18.2782 -0.518195 20.3545 1.55811L31.6328 12.8364C33.7088 14.9127 33.7089 18.2787 31.6328 20.355L20.3545 31.6333C18.2782 33.7096 14.9113 33.7096 12.835 31.6333L1.55664 20.355C-0.519418 18.2787 -0.519386 14.9127 1.55664 12.8364L12.835 1.55811ZM15.8506 13.9341C15.2652 13.8938 14.6952 13.9627 14.1523 14.187C13.4412 14.4809 12.9319 14.9795 12.6807 15.7153C12.5417 16.1279 12.5037 16.5518 12.5508 16.9868C12.6001 17.4219 12.7323 17.8259 12.9834 18.187C13.3468 18.7074 13.852 19.0307 14.4531 19.2124C14.9825 19.3717 15.5256 19.4061 16.0752 19.3433C16.3645 19.3096 16.6494 19.2553 16.9297 19.1724C17.0037 19.1499 17.0286 19.1158 17.0264 19.0396C17.0129 18.6493 17.0044 18.2608 16.9932 17.8706C16.9911 17.855 16.997 17.8356 16.9639 17.8267C16.928 17.8401 16.887 17.8578 16.8467 17.8735C16.4475 18.0282 16.0345 18.098 15.6084 18.0308C15.0992 17.9477 14.7095 17.6869 14.4941 17.2046C14.3798 16.9489 14.3701 16.6777 14.4082 16.4019C14.4845 15.8432 14.8576 15.4119 15.4072 15.2817C15.8399 15.181 16.2615 15.2392 16.665 15.4185C16.7279 15.4454 16.7868 15.4749 16.8496 15.5063C16.8809 15.4413 16.8783 15.3781 16.8828 15.3198C16.9142 14.9946 16.9459 14.6694 16.9795 14.3442C16.9929 14.2119 16.997 14.2116 16.8691 14.1577C16.544 14.021 16.2027 13.9587 15.8506 13.9341ZM9.95312 13.9409C9.60771 13.9028 9.26407 13.9137 8.9209 13.9429C8.44978 13.9833 7.98981 14.078 7.54785 14.2485C7.44468 14.2889 7.4421 14.2885 7.44434 14.4028C7.45107 14.7349 7.45978 15.0649 7.46875 15.397C7.46869 15.4239 7.45384 15.4595 7.49414 15.4819C7.57479 15.4461 7.65343 15.4055 7.73633 15.3696C8.28136 15.1432 8.85337 15.0848 9.43652 15.1274C9.58459 15.1387 9.72867 15.1769 9.86328 15.2397C10.148 15.3699 10.287 15.5988 10.3184 15.9038C10.3296 16.0137 10.3206 16.0201 10.2129 16.0044C9.68125 15.9259 9.14951 15.9327 8.62012 16.0112C8.25451 16.0651 7.90015 16.162 7.57715 16.3481C7.16659 16.5837 6.90108 16.9295 6.82031 17.4028C6.81367 17.4453 6.81614 17.4944 6.76953 17.519V17.9233C6.80507 17.9503 6.81165 17.9905 6.81836 18.0308C6.90362 18.549 7.19352 18.9103 7.66016 19.1392C7.98751 19.3005 8.33952 19.3606 8.69824 19.3696C8.94503 19.3764 9.19021 19.3455 9.42578 19.2603C9.8048 19.1256 10.083 18.8694 10.3096 18.5464C10.3364 18.5083 10.3503 18.4587 10.4219 18.4341C10.4219 18.4947 10.4196 18.5422 10.4219 18.5894C10.4308 18.7822 10.4444 18.9727 10.4512 19.1655C10.4534 19.2216 10.471 19.2514 10.5293 19.2446H11.9678C12.008 19.2447 12.0486 19.2529 12.0889 19.2261C12.0754 19.1051 12.0545 18.9821 12.041 18.8589C12.0006 18.4708 11.9939 18.08 11.9961 17.6919V16.0649C11.9961 15.908 11.9901 15.7508 11.9609 15.5962C11.86 15.0333 11.586 14.5869 11.0859 14.2886C10.7361 14.08 10.3523 13.9858 9.95312 13.9409ZM21.9033 14.0298C21.4974 13.8886 21.0848 13.887 20.6699 13.9722C20.0933 14.0911 19.6375 14.3897 19.3525 14.9214C19.3415 14.9438 19.3344 14.9746 19.2832 14.979V14.1714C19.2832 14.0483 19.2833 14.0464 19.1602 14.0464H17.7754C17.65 14.0464 17.6475 14.0461 17.6475 14.1694V19.1323C17.6475 19.2463 17.6502 19.2485 17.7666 19.2485H19.3262C19.4425 19.2485 19.4431 19.2463 19.4453 19.1323V17.0073C19.4453 16.8099 19.4602 16.6146 19.4961 16.4194C19.5387 16.1796 19.6129 15.951 19.7607 15.7515C19.985 15.4509 20.3488 15.374 20.6494 15.439C20.8917 15.4906 21.0286 15.6661 21.1094 15.8882C21.1788 16.0787 21.1943 16.2803 21.1943 16.4819V19.1724C21.1899 19.2328 21.2217 19.251 21.2754 19.2466H22.9287C22.9736 19.2488 22.9944 19.226 22.9922 19.1812V17.1108C22.9922 16.9179 22.9965 16.7244 23.0234 16.5337C23.0548 16.305 23.1086 16.0854 23.2207 15.8813C23.3284 15.6884 23.4767 15.5356 23.6943 15.4683C24.1855 15.3181 24.5648 15.4863 24.6904 16.0044C24.7241 16.1457 24.7393 16.2876 24.7393 16.4312V19.188C24.7393 19.2238 24.7529 19.2464 24.793 19.2466H26.3926C26.5102 19.2466 26.5325 19.2514 26.5361 19.188V16.4214C26.5361 16.1792 26.5301 15.9389 26.5166 15.6968C26.5054 15.4681 26.469 15.2417 26.4062 15.022C26.2425 14.4387 25.8631 14.0866 25.2686 13.9722C24.9591 13.9139 24.647 13.8977 24.333 13.9448C23.8733 14.0144 23.4693 14.1989 23.1396 14.5376C23.0299 14.6496 22.9427 14.7796 22.8486 14.9028C22.8105 14.8737 22.7992 14.8333 22.7812 14.7974C22.5928 14.4205 22.2982 14.1666 21.9033 14.0298ZM10.2559 16.9312C10.3094 16.9335 10.3255 16.9561 10.3232 17.0054C10.2963 17.6402 9.77105 18.3404 8.92773 18.1343C8.72133 18.0849 8.55949 17.9675 8.49219 17.7544C8.4161 17.5145 8.51 17.2498 8.7207 17.104C8.87102 16.9986 9.04415 16.9516 9.22363 16.9292C9.35593 16.9113 9.49047 16.8951 9.625 16.9019C9.83589 16.9108 10.045 16.9222 10.2559 16.9312Z" fill="white"/>
<path d="M35.8545 10.8149L37.2102 7.09325H38.0237L39.3794 10.8149H38.6192L37.6143 7.91202L36.6041 10.8149H35.8545ZM36.4499 9.96959L36.6413 9.41133H38.5341L38.7202 9.96959H36.4499ZM40.958 10.8787C40.6816 10.8787 40.453 10.8398 40.2722 10.7618C40.095 10.6803 39.9621 10.5704 39.8734 10.4321C39.7848 10.2904 39.7352 10.1309 39.7246 9.95364H40.4423C40.453 10.021 40.476 10.0848 40.5114 10.145C40.5469 10.2017 40.6001 10.2478 40.6709 10.2833C40.7454 10.3152 40.8375 10.3311 40.9474 10.3311C41.0396 10.3311 41.1193 10.3187 41.1867 10.2939C41.254 10.2655 41.3036 10.2266 41.3355 10.1769C41.371 10.1273 41.3887 10.0706 41.3887 10.0068C41.3887 9.92528 41.3657 9.86148 41.3196 9.8154C41.2771 9.76578 41.215 9.72679 41.1335 9.69843C41.052 9.67008 40.951 9.64881 40.8304 9.63463C40.6639 9.60982 40.515 9.57792 40.3838 9.53893C40.2562 9.4964 40.1464 9.44323 40.0542 9.37943C39.9656 9.31563 39.8983 9.23588 39.8522 9.14018C39.8061 9.04448 39.7831 8.92751 39.7831 8.78928C39.7831 8.62978 39.8274 8.488 39.916 8.36394C40.0046 8.23634 40.1322 8.1371 40.2988 8.06621C40.4654 7.99177 40.6656 7.95456 40.8996 7.95456C41.2398 7.95456 41.5039 8.02722 41.6918 8.17254C41.8796 8.31786 41.9913 8.51458 42.0267 8.7627H41.3515C41.3302 8.68117 41.2806 8.61914 41.2026 8.57661C41.1246 8.53053 41.0219 8.50749 40.8942 8.50749C40.7596 8.50749 40.655 8.53231 40.5806 8.58193C40.5097 8.62801 40.4742 8.69181 40.4742 8.77333C40.4742 8.8265 40.4902 8.87612 40.5221 8.9222C40.554 8.96827 40.6107 9.00726 40.6922 9.03916C40.7737 9.07106 40.8854 9.09765 41.0272 9.11891C41.2788 9.1579 41.4844 9.20575 41.6439 9.26247C41.8034 9.31918 41.9204 9.40247 41.9948 9.51235C42.0728 9.62223 42.11 9.77464 42.1065 9.96959C42.1065 10.1574 42.0586 10.3205 41.9629 10.4587C41.8672 10.5934 41.7325 10.698 41.5588 10.7724C41.3887 10.8433 41.1884 10.8787 40.958 10.8787ZM43.8345 10.8787C43.558 10.8787 43.3294 10.8398 43.1486 10.7618C42.9714 10.6803 42.8385 10.5704 42.7499 10.4321C42.6612 10.2904 42.6116 10.1309 42.601 9.95364H43.3187C43.3294 10.021 43.3524 10.0848 43.3879 10.145C43.4233 10.2017 43.4765 10.2478 43.5474 10.2833C43.6218 10.3152 43.714 10.3311 43.8238 10.3311C43.916 10.3311 43.9957 10.3187 44.0631 10.2939C44.1304 10.2655 44.1801 10.2266 44.212 10.1769C44.2474 10.1273 44.2651 10.0706 44.2651 10.0068C44.2651 9.92528 44.2421 9.86148 44.196 9.8154C44.1535 9.76578 44.0914 9.72679 44.0099 9.69843C43.9284 9.67008 43.8274 9.64881 43.7069 9.63463C43.5403 9.60982 43.3914 9.57792 43.2603 9.53893C43.1327 9.4964 43.0228 9.44323 42.9306 9.37943C42.842 9.31563 42.7747 9.23588 42.7286 9.14018C42.6825 9.04448 42.6595 8.92751 42.6595 8.78928C42.6595 8.62978 42.7038 8.488 42.7924 8.36394C42.881 8.23634 43.0086 8.1371 43.1752 8.06621C43.3418 7.99177 43.542 7.95456 43.776 7.95456C44.1163 7.95456 44.3803 8.02722 44.5682 8.17254C44.756 8.31786 44.8677 8.51458 44.9031 8.7627H44.2279C44.2066 8.68117 44.157 8.61914 44.079 8.57661C44.0011 8.53053 43.8983 8.50749 43.7707 8.50749C43.636 8.50749 43.5314 8.53231 43.457 8.58193C43.3861 8.62801 43.3506 8.69181 43.3506 8.77333C43.3506 8.8265 43.3666 8.87612 43.3985 8.9222C43.4304 8.96827 43.4871 9.00726 43.5686 9.03916C43.6502 9.07106 43.7618 9.09765 43.9036 9.11891C44.1552 9.1579 44.3608 9.20575 44.5203 9.26247C44.6798 9.31918 44.7968 9.40247 44.8712 9.51235C44.9492 9.62223 44.9864 9.77464 44.9829 9.96959C44.9829 10.1574 44.935 10.3205 44.8393 10.4587C44.7436 10.5934 44.6089 10.698 44.4353 10.7724C44.2651 10.8433 44.0649 10.8787 43.8345 10.8787ZM46.8917 10.8787C46.6258 10.8787 46.3901 10.8167 46.1845 10.6927C45.9825 10.5686 45.823 10.3967 45.706 10.1769C45.5926 9.95718 45.5359 9.70375 45.5359 9.41665C45.5359 9.126 45.5926 8.87257 45.706 8.65636C45.823 8.4366 45.9843 8.2647 46.1898 8.14064C46.3954 8.01659 46.6311 7.95456 46.897 7.95456C47.1663 7.95456 47.4021 8.01659 47.6041 8.14064C47.8061 8.2647 47.9639 8.4366 48.0773 8.65636C48.1907 8.87257 48.2474 9.126 48.2474 9.41665C48.2474 9.70375 48.1907 9.95718 48.0773 10.1769C47.9639 10.3967 47.8044 10.5686 47.5988 10.6927C47.3967 10.8167 47.161 10.8787 46.8917 10.8787ZM46.8917 10.2567C47.0157 10.2567 47.1238 10.2266 47.216 10.1663C47.3117 10.1025 47.3861 10.0086 47.4393 9.88452C47.4924 9.75692 47.519 9.60096 47.519 9.41665C47.519 9.22879 47.4924 9.07284 47.4393 8.94878C47.3897 8.82472 47.3188 8.73257 47.2266 8.67231C47.1344 8.60851 47.0246 8.57661 46.897 8.57661C46.7729 8.57661 46.663 8.60851 46.5673 8.67231C46.4752 8.73257 46.4025 8.82472 46.3493 8.94878C46.2962 9.07284 46.2696 9.22879 46.2696 9.41665C46.2696 9.60096 46.2944 9.75692 46.344 9.88452C46.3972 10.0086 46.4699 10.1025 46.562 10.1663C46.6577 10.2266 46.7676 10.2567 46.8917 10.2567ZM50.1839 10.8787C49.9146 10.8787 49.6753 10.8167 49.4662 10.6927C49.2606 10.5686 49.0993 10.3985 48.9824 10.1823C48.8654 9.96604 48.8069 9.72147 48.8069 9.44855C48.8069 9.15081 48.8654 8.8903 48.9824 8.66699C49.0993 8.44369 49.2606 8.27001 49.4662 8.14596C49.6753 8.01836 49.9146 7.95456 50.1839 7.95456C50.5313 7.95456 50.8219 8.04671 51.0559 8.23103C51.2898 8.41534 51.4404 8.67054 51.5078 8.99663H50.7475C50.7156 8.86548 50.6483 8.76092 50.5455 8.68294C50.4462 8.60497 50.3239 8.56598 50.1786 8.56598C50.0439 8.56598 49.9287 8.60142 49.833 8.67231C49.7373 8.73966 49.6647 8.83713 49.615 8.96473C49.5654 9.08879 49.5406 9.23943 49.5406 9.41665C49.5406 9.54779 49.5548 9.66653 49.5831 9.77287C49.6115 9.8792 49.6523 9.96959 49.7054 10.044C49.7586 10.1149 49.8242 10.1698 49.9022 10.2088C49.9837 10.2478 50.0758 10.2673 50.1786 10.2673C50.2779 10.2673 50.3647 10.2514 50.4391 10.2195C50.5171 10.184 50.5827 10.1344 50.6359 10.0706C50.689 10.0033 50.7262 9.92528 50.7475 9.83667H51.5078C51.444 10.1521 51.2934 10.4056 51.0559 10.597C50.8184 10.7848 50.5277 10.8787 50.1839 10.8787ZM52.1739 10.8149V8.01836H52.8916V10.8149H52.1739ZM52.5354 7.68872C52.4043 7.68872 52.2979 7.65151 52.2164 7.57707C52.1349 7.49909 52.0941 7.40162 52.0941 7.28465C52.0941 7.16769 52.1349 7.07198 52.2164 6.99755C52.2979 6.91957 52.4043 6.88058 52.5354 6.88058C52.6666 6.88058 52.7729 6.91957 52.8544 6.99755C52.9395 7.07198 52.982 7.16769 52.982 7.28465C52.982 7.40162 52.9395 7.49909 52.8544 7.57707C52.7729 7.65151 52.6666 7.68872 52.5354 7.68872ZM54.5361 10.8787C54.3199 10.8787 54.1409 10.8415 53.9991 10.7671C53.8573 10.6891 53.751 10.5863 53.6801 10.4587C53.6092 10.3276 53.5737 10.1858 53.5737 10.0334C53.5737 9.86325 53.6145 9.71438 53.696 9.58678C53.7811 9.45918 53.9069 9.35994 54.0735 9.28905C54.2437 9.21816 54.4545 9.18271 54.7062 9.18271H55.3495C55.3495 9.03385 55.3371 8.91334 55.3123 8.82118C55.2875 8.72548 55.2379 8.65459 55.1634 8.60851C55.0926 8.56243 54.988 8.53939 54.8498 8.53939C54.7222 8.53939 54.6176 8.56598 54.5361 8.61914C54.4545 8.66877 54.4032 8.74675 54.3819 8.85308H53.6854C53.7031 8.66877 53.7616 8.51104 53.8608 8.37989C53.9636 8.2452 54.1001 8.14064 54.2702 8.06621C54.4404 7.99177 54.6353 7.95456 54.8551 7.95456C55.1103 7.95456 55.3283 7.99709 55.509 8.08216C55.6933 8.16368 55.8316 8.28596 55.9237 8.44901C56.0194 8.60851 56.0673 8.80346 56.0673 9.03385V10.8149H55.4665L55.3867 10.4002C55.3478 10.4711 55.2999 10.5367 55.2432 10.597C55.19 10.6537 55.128 10.7033 55.0571 10.7458C54.9862 10.7884 54.9065 10.8203 54.8179 10.8415C54.7328 10.8663 54.6389 10.8787 54.5361 10.8787ZM54.7062 10.3258C54.7877 10.3258 54.8639 10.3081 54.9348 10.2726C55.0057 10.2372 55.0677 10.1893 55.1209 10.1291C55.1776 10.0653 55.2219 9.99263 55.2538 9.9111C55.2893 9.82958 55.3123 9.74097 55.3229 9.64527V9.624H54.786C54.6796 9.624 54.5928 9.63818 54.5254 9.66653C54.4581 9.69489 54.4085 9.73565 54.3766 9.78882C54.3482 9.84199 54.334 9.90224 54.334 9.96959C54.334 10.044 54.3482 10.1078 54.3766 10.161C54.4085 10.2142 54.4528 10.2549 54.5095 10.2833C54.5662 10.3116 54.6318 10.3258 54.7062 10.3258ZM58.023 10.8149C57.8387 10.8149 57.6756 10.7866 57.5339 10.7299C57.3921 10.6696 57.2822 10.5721 57.2042 10.4375C57.1262 10.2992 57.0873 10.1114 57.0873 9.87389V8.61914H56.6034V8.01836H57.0873L57.167 7.2368H57.805V8.01836H58.5281V8.61914H57.805V9.88452C57.805 10.005 57.8316 10.0883 57.8848 10.1344C57.9379 10.1805 58.0283 10.2035 58.1559 10.2035H58.5387V10.8149H58.023ZM59.1988 10.8149V8.01836H59.9165V10.8149H59.1988ZM59.5603 7.68872C59.4292 7.68872 59.3228 7.65151 59.2413 7.57707C59.1598 7.49909 59.119 7.40162 59.119 7.28465C59.119 7.16769 59.1598 7.07198 59.2413 6.99755C59.3228 6.91957 59.4292 6.88058 59.5603 6.88058C59.6915 6.88058 59.7978 6.91957 59.8793 6.99755C59.9644 7.07198 60.0069 7.16769 60.0069 7.28465C60.0069 7.40162 59.9644 7.49909 59.8793 7.57707C59.7978 7.65151 59.6915 7.68872 59.5603 7.68872ZM61.9331 10.8787C61.6673 10.8787 61.4316 10.8167 61.226 10.6927C61.024 10.5686 60.8645 10.3967 60.7475 10.1769C60.6341 9.95718 60.5774 9.70375 60.5774 9.41665C60.5774 9.126 60.6341 8.87257 60.7475 8.65636C60.8645 8.4366 61.0258 8.2647 61.2313 8.14064C61.4369 8.01659 61.6726 7.95456 61.9385 7.95456C62.2078 7.95456 62.4435 8.01659 62.6456 8.14064C62.8476 8.2647 63.0053 8.4366 63.1188 8.65636C63.2322 8.87257 63.2889 9.126 63.2889 9.41665C63.2889 9.70375 63.2322 9.95718 63.1188 10.1769C63.0053 10.3967 62.8458 10.5686 62.6403 10.6927C62.4382 10.8167 62.2025 10.8787 61.9331 10.8787ZM61.9331 10.2567C62.0572 10.2567 62.1653 10.2266 62.2575 10.1663C62.3532 10.1025 62.4276 10.0086 62.4808 9.88452C62.5339 9.75692 62.5605 9.60096 62.5605 9.41665C62.5605 9.22879 62.5339 9.07284 62.4808 8.94878C62.4311 8.82472 62.3602 8.73257 62.2681 8.67231C62.1759 8.60851 62.0661 8.57661 61.9385 8.57661C61.8144 8.57661 61.7045 8.60851 61.6088 8.67231C61.5167 8.73257 61.444 8.82472 61.3908 8.94878C61.3377 9.07284 61.3111 9.22879 61.3111 9.41665C61.3111 9.60096 61.3359 9.75692 61.3855 9.88452C61.4387 10.0086 61.5113 10.1025 61.6035 10.1663C61.6992 10.2266 61.8091 10.2567 61.9331 10.2567ZM63.9388 10.8149V8.01836H64.5715L64.6193 8.43306C64.6973 8.28419 64.8107 8.16723 64.9596 8.08216C65.1085 7.99709 65.2874 7.95456 65.4966 7.95456C65.7128 7.95456 65.8971 7.99886 66.0495 8.08747C66.2019 8.17254 66.3189 8.29837 66.4004 8.46496C66.4819 8.62801 66.5227 8.82827 66.5227 9.06575V10.8149H65.8049V9.12955C65.8049 8.94878 65.7571 8.80877 65.6614 8.70953C65.5657 8.61028 65.431 8.56066 65.2573 8.56066C65.1474 8.56066 65.0464 8.58547 64.9543 8.63509C64.8621 8.68117 64.7894 8.75029 64.7363 8.84245C64.6831 8.9346 64.6565 9.04802 64.6565 9.18271V10.8149H63.9388ZM68.6825 10.8149V7.89607C68.6825 7.67277 68.7197 7.49555 68.7942 7.3644C68.8686 7.23326 68.9749 7.13756 69.1132 7.0773C69.2549 7.01705 69.4198 6.98692 69.6076 6.98692H70.0436V7.59834H69.7193C69.6059 7.59834 69.5243 7.62138 69.4747 7.66746C69.4251 7.71353 69.4003 7.78974 69.4003 7.89607V10.8149H68.6825ZM68.2891 8.61914V8.01836H70.0489V8.61914H68.2891ZM71.7929 10.8787C71.5271 10.8787 71.2914 10.8167 71.0858 10.6927C70.8838 10.5686 70.7243 10.3967 70.6073 10.1769C70.4939 9.95718 70.4372 9.70375 70.4372 9.41665C70.4372 9.126 70.4939 8.87257 70.6073 8.65636C70.7243 8.4366 70.8855 8.2647 71.0911 8.14064C71.2967 8.01659 71.5324 7.95456 71.7982 7.95456C72.0676 7.95456 72.3033 8.01659 72.5054 8.14064C72.7074 8.2647 72.8651 8.4366 72.9785 8.65636C73.092 8.87257 73.1487 9.126 73.1487 9.41665C73.1487 9.70375 73.092 9.95718 72.9785 10.1769C72.8651 10.3967 72.7056 10.5686 72.5 10.6927C72.298 10.8167 72.0623 10.8787 71.7929 10.8787ZM71.7929 10.2567C71.917 10.2567 72.0251 10.2266 72.1172 10.1663C72.2129 10.1025 72.2874 10.0086 72.3405 9.88452C72.3937 9.75692 72.4203 9.60096 72.4203 9.41665C72.4203 9.22879 72.3937 9.07284 72.3405 8.94878C72.2909 8.82472 72.22 8.73257 72.1279 8.67231C72.0357 8.60851 71.9258 8.57661 71.7982 8.57661C71.6742 8.57661 71.5643 8.60851 71.4686 8.67231C71.3764 8.73257 71.3038 8.82472 71.2506 8.94878C71.1974 9.07284 71.1709 9.22879 71.1709 9.41665C71.1709 9.60096 71.1957 9.75692 71.2453 9.88452C71.2985 10.0086 71.3711 10.1025 71.4633 10.1663C71.559 10.2266 71.6689 10.2567 71.7929 10.2567ZM73.7986 10.8149V8.01836H74.4366L74.5004 8.50218C74.5712 8.38167 74.6599 8.28065 74.7662 8.19913C74.8725 8.1176 74.9948 8.05735 75.133 8.01836C75.2713 7.97582 75.4255 7.95456 75.5956 7.95456V8.71485H75.2075C75.1153 8.71485 75.0267 8.72548 74.9416 8.74675C74.8601 8.76801 74.7857 8.80523 74.7183 8.8584C74.6545 8.91156 74.6049 8.98245 74.5695 9.07106C74.534 9.15968 74.5163 9.2731 74.5163 9.41133V10.8149H73.7986ZM37.7313 17.8787C37.3697 17.8787 37.0578 17.799 36.7955 17.6395C36.5332 17.4764 36.3312 17.2514 36.1894 16.9643C36.0476 16.6736 35.9768 16.3387 35.9768 15.9594C35.9768 15.5802 36.0476 15.2452 36.1894 14.9546C36.3312 14.6639 36.5332 14.4371 36.7955 14.274C37.0578 14.111 37.3697 14.0295 37.7313 14.0295C38.1779 14.0295 38.543 14.1411 38.8265 14.3644C39.1101 14.5877 39.2855 14.9032 39.3529 15.3108H38.5819C38.5323 15.1123 38.4348 14.9581 38.2895 14.8482C38.1442 14.7348 37.9563 14.6781 37.726 14.6781C37.5133 14.6781 37.3307 14.7313 37.1783 14.8376C37.0259 14.9404 36.909 15.0875 36.8274 15.2789C36.7495 15.4667 36.7105 15.6936 36.7105 15.9594C36.7105 16.2217 36.7495 16.4485 36.8274 16.64C36.909 16.8314 37.0259 16.9784 37.1783 17.0812C37.3307 17.184 37.5133 17.2354 37.726 17.2354C37.9563 17.2354 38.1442 17.184 38.2895 17.0812C38.4348 16.9749 38.5323 16.8278 38.5819 16.64H39.3529C39.2855 17.0263 39.1101 17.3293 38.8265 17.5491C38.543 17.7689 38.1779 17.8787 37.7313 17.8787ZM41.2479 17.8787C40.982 17.8787 40.7463 17.8167 40.5407 17.6927C40.3387 17.5686 40.1792 17.3967 40.0622 17.1769C39.9488 16.9572 39.8921 16.7038 39.8921 16.4166C39.8921 16.126 39.9488 15.8726 40.0622 15.6564C40.1792 15.4366 40.3405 15.2647 40.546 15.1406C40.7516 15.0166 40.9873 14.9546 41.2532 14.9546C41.5225 14.9546 41.7583 15.0166 41.9603 15.1406C42.1623 15.2647 42.3201 15.4366 42.4335 15.6564C42.5469 15.8726 42.6036 16.126 42.6036 16.4166C42.6036 16.7038 42.5469 16.9572 42.4335 17.1769C42.3201 17.3967 42.1606 17.5686 41.955 17.6927C41.7529 17.8167 41.5172 17.8787 41.2479 17.8787ZM41.2479 17.2567C41.3719 17.2567 41.48 17.2266 41.5722 17.1663C41.6679 17.1025 41.7423 17.0086 41.7955 16.8845C41.8486 16.7569 41.8752 16.601 41.8752 16.4166C41.8752 16.2288 41.8486 16.0728 41.7955 15.9488C41.7458 15.8247 41.675 15.7326 41.5828 15.6723C41.4906 15.6085 41.3808 15.5766 41.2532 15.5766C41.1291 15.5766 41.0192 15.6085 40.9235 15.6723C40.8314 15.7326 40.7587 15.8247 40.7055 15.9488C40.6524 16.0728 40.6258 16.2288 40.6258 16.4166C40.6258 16.601 40.6506 16.7569 40.7002 16.8845C40.7534 17.0086 40.8261 17.1025 40.9182 17.1663C41.0139 17.2266 41.1238 17.2567 41.2479 17.2567ZM43.2535 17.8149V15.0184H43.8862L43.9393 15.3693C44.0244 15.2452 44.1378 15.146 44.2796 15.0715C44.4214 14.9935 44.5791 14.9546 44.7528 14.9546C44.8804 14.9546 44.9956 14.9723 45.0984 15.0077C45.2047 15.0396 45.2969 15.0892 45.3749 15.1566C45.4528 15.2204 45.5166 15.3019 45.5663 15.4012C45.669 15.2594 45.7984 15.1495 45.9544 15.0715C46.1103 14.9935 46.2769 14.9546 46.4541 14.9546C46.6881 14.9546 46.8795 14.9989 47.0284 15.0875C47.1772 15.1761 47.2889 15.3037 47.3633 15.4703C47.4377 15.6369 47.475 15.8389 47.475 16.0764V17.8149H46.7625V16.1455C46.7625 15.9541 46.72 15.8088 46.6349 15.7095C46.5498 15.6103 46.4276 15.5607 46.2681 15.5607C46.1653 15.5607 46.0713 15.5855 45.9863 15.6351C45.9048 15.6847 45.8392 15.7574 45.7896 15.8531C45.7435 15.9488 45.7204 16.0622 45.7204 16.1933V17.8149H45.008V16.1455C45.008 15.9541 44.9655 15.8088 44.8804 15.7095C44.7953 15.6103 44.6713 15.5607 44.5082 15.5607C44.409 15.5607 44.3186 15.5855 44.2371 15.6351C44.1556 15.6847 44.09 15.7574 44.0404 15.8531C43.9943 15.9488 43.9712 16.0622 43.9712 16.1933V17.8149H43.2535ZM48.2171 18.9846V15.0184H48.8551L48.9349 15.3852C48.9881 15.3072 49.0536 15.2363 49.1316 15.1725C49.2096 15.1052 49.3017 15.052 49.4081 15.013C49.518 14.9741 49.642 14.9546 49.7802 14.9546C50.039 14.9546 50.2623 15.0184 50.4501 15.146C50.638 15.2736 50.7833 15.449 50.8861 15.6723C50.9889 15.8921 51.0403 16.142 51.0403 16.422C51.0403 16.702 50.9854 16.9519 50.8755 17.1716C50.7656 17.3914 50.6167 17.5651 50.4289 17.6927C50.2446 17.8167 50.0354 17.8787 49.8015 17.8787C49.5995 17.8787 49.4258 17.8433 49.2805 17.7724C49.1387 17.698 49.0235 17.597 48.9349 17.4694V18.9846H48.2171ZM49.6101 17.2514C49.7448 17.2514 49.8635 17.2195 49.9663 17.1557C50.0691 17.0883 50.1506 16.9926 50.2109 16.8686C50.2747 16.741 50.3066 16.5921 50.3066 16.422C50.3066 16.2483 50.2747 16.0994 50.2109 15.9754C50.1506 15.8478 50.0691 15.7503 49.9663 15.6829C49.8635 15.6156 49.7448 15.5819 49.6101 15.5819C49.4754 15.5819 49.3549 15.6156 49.2486 15.6829C49.1458 15.7503 49.0643 15.8478 49.004 15.9754C48.9473 16.0994 48.9189 16.2465 48.9189 16.4166C48.9189 16.5903 48.9473 16.7392 49.004 16.8633C49.0643 16.9873 49.1458 17.083 49.2486 17.1504C49.3549 17.2177 49.4754 17.2514 49.6101 17.2514ZM52.7275 17.8787C52.5113 17.8787 52.3252 17.838 52.1693 17.7565C52.0169 17.6749 51.8999 17.5544 51.8184 17.3949C51.7368 17.2354 51.6961 17.0352 51.6961 16.7941V15.0184H52.4085V16.7038C52.4085 16.9022 52.4564 17.0476 52.5521 17.1397C52.6513 17.2283 52.7878 17.2726 52.9615 17.2726C53.0749 17.2726 53.1759 17.2514 53.2645 17.2088C53.3531 17.1628 53.424 17.0936 53.4772 17.0015C53.5303 16.9093 53.5569 16.7941 53.5569 16.6559V15.0184H54.2747V17.8149H53.642L53.5888 17.4002C53.5144 17.5491 53.4045 17.6661 53.2592 17.7511C53.1139 17.8362 52.9366 17.8787 52.7275 17.8787ZM56.2525 17.8149C56.0682 17.8149 55.9051 17.7866 55.7634 17.7299C55.6216 17.6696 55.5117 17.5721 55.4337 17.4375C55.3557 17.2992 55.3168 17.1114 55.3168 16.8739V15.6191H54.8329V15.0184H55.3168L55.3965 14.2368H56.0345V15.0184H56.7576V15.6191H56.0345V16.8845C56.0345 17.005 56.0611 17.0883 56.1143 17.1344C56.1674 17.1805 56.2578 17.2035 56.3854 17.2035H56.7682V17.8149H56.2525ZM57.4283 17.8149V15.0184H58.146V17.8149H57.4283ZM57.7898 14.6887C57.6587 14.6887 57.5523 14.6515 57.4708 14.5771C57.3893 14.4991 57.3485 14.4016 57.3485 14.2847C57.3485 14.1677 57.3893 14.072 57.4708 13.9976C57.5523 13.9196 57.6587 13.8806 57.7898 13.8806C57.921 13.8806 58.0273 13.9196 58.1088 13.9976C58.1939 14.072 58.2364 14.1677 58.2364 14.2847C58.2364 14.4016 58.1939 14.4991 58.1088 14.5771C58.0273 14.6515 57.921 14.6887 57.7898 14.6887ZM58.8973 17.8149V15.0184H59.5299L59.5778 15.4331C59.6558 15.2842 59.7692 15.1672 59.9181 15.0822C60.0669 14.9971 60.2459 14.9546 60.4551 14.9546C60.6713 14.9546 60.8556 14.9989 61.008 15.0875C61.1604 15.1725 61.2774 15.2984 61.3589 15.465C61.4404 15.628 61.4812 15.8283 61.4812 16.0657V17.8149H60.7634V16.1295C60.7634 15.9488 60.7156 15.8088 60.6199 15.7095C60.5242 15.6103 60.3895 15.5607 60.2158 15.5607C60.1059 15.5607 60.0049 15.5855 59.9127 15.6351C59.8206 15.6812 59.7479 15.7503 59.6948 15.8424C59.6416 15.9346 59.615 16.048 59.615 16.1827V17.8149H58.8973ZM63.3792 19.0484C63.1134 19.0484 62.883 19.0165 62.6881 18.9527C62.4931 18.8925 62.3425 18.7985 62.2361 18.6709C62.1298 18.5469 62.0766 18.3927 62.0766 18.2084C62.0766 18.0737 62.1085 17.9496 62.1723 17.8362C62.2361 17.7228 62.3301 17.6218 62.4541 17.5332C62.5782 17.441 62.7306 17.363 62.9114 17.2992L63.2144 17.6554C63.0372 17.7086 62.9114 17.776 62.8369 17.8575C62.7625 17.939 62.7253 18.0294 62.7253 18.1286C62.7253 18.2137 62.7519 18.2846 62.805 18.3413C62.8582 18.398 62.9326 18.4388 63.0283 18.4636C63.1276 18.4919 63.2392 18.5061 63.3633 18.5061C63.4873 18.5061 63.5954 18.4919 63.6876 18.4636C63.7798 18.4352 63.8507 18.3927 63.9003 18.336C63.9499 18.2828 63.9747 18.2155 63.9747 18.1339C63.9747 18.0276 63.9393 17.9443 63.8684 17.8841C63.7975 17.8273 63.6522 17.7919 63.4324 17.7777C63.2445 17.7635 63.078 17.7423 62.9326 17.7139C62.7873 17.6856 62.6615 17.6537 62.5551 17.6182C62.4488 17.5828 62.3584 17.542 62.284 17.4959C62.2096 17.4499 62.1493 17.4038 62.1032 17.3577V17.2354L62.6774 16.6293L63.2251 16.7941L62.5179 17.4481L62.7253 17.0759C62.7607 17.1007 62.7979 17.1238 62.8369 17.145C62.8759 17.1663 62.9255 17.1858 62.9858 17.2035C63.0461 17.2177 63.1258 17.2336 63.2251 17.2514C63.3243 17.2655 63.4519 17.2797 63.6079 17.2939C63.8453 17.3152 64.0385 17.3577 64.1874 17.4215C64.3398 17.4853 64.4514 17.5757 64.5223 17.6927C64.5932 17.8061 64.6287 17.9479 64.6287 18.118C64.6287 18.281 64.5844 18.4317 64.4957 18.5699C64.4107 18.7117 64.276 18.8269 64.0917 18.9155C63.9074 19.0041 63.6699 19.0484 63.3792 19.0484ZM63.3846 16.9909C63.1577 16.9909 62.9628 16.9465 62.7997 16.8579C62.6367 16.7693 62.5108 16.6488 62.4222 16.4964C62.3372 16.3404 62.2946 16.1668 62.2946 15.9754C62.2946 15.784 62.3372 15.6121 62.4222 15.4596C62.5108 15.3037 62.6367 15.1814 62.7997 15.0928C62.9628 15.0006 63.1577 14.9546 63.3846 14.9546C63.6149 14.9546 63.8099 15.0006 63.9694 15.0928C64.1324 15.1814 64.2565 15.3037 64.3416 15.4596C64.4266 15.6121 64.4692 15.784 64.4692 15.9754C64.4692 16.1668 64.4266 16.3404 64.3416 16.4964C64.2565 16.6488 64.1324 16.7693 63.9694 16.8579C63.8099 16.9465 63.6149 16.9909 63.3846 16.9909ZM63.3846 16.4432C63.5299 16.4432 63.6433 16.406 63.7248 16.3316C63.8099 16.2536 63.8524 16.1349 63.8524 15.9754C63.8524 15.8159 63.8099 15.6989 63.7248 15.6245C63.6433 15.55 63.5299 15.5128 63.3846 15.5128C63.2428 15.5128 63.1276 15.55 63.039 15.6245C62.9504 15.6989 62.9061 15.8159 62.9061 15.9754C62.9061 16.1349 62.9486 16.2536 63.0337 16.3316C63.1223 16.406 63.2392 16.4432 63.3846 16.4432ZM63.8577 15.5234L63.7408 15.0184H64.8466V15.4437L63.8577 15.5234ZM66.6912 17.8149V14.0933H67.5472L68.6318 16.4273L69.7005 14.0933H70.5564V17.8149H69.8387V15.3267L68.9083 17.3258H68.3447L67.409 15.3374V17.8149H66.6912ZM72.2099 17.8787C71.9937 17.8787 71.8147 17.8415 71.673 17.7671C71.5312 17.6891 71.4248 17.5863 71.354 17.4587C71.2831 17.3276 71.2476 17.1858 71.2476 17.0334C71.2476 16.8633 71.2884 16.7144 71.3699 16.5868C71.455 16.4592 71.5808 16.3599 71.7474 16.289C71.9175 16.2182 72.1284 16.1827 72.3801 16.1827H73.0234C73.0234 16.0338 73.011 15.9133 72.9862 15.8212C72.9614 15.7255 72.9117 15.6546 72.8373 15.6085C72.7664 15.5624 72.6619 15.5394 72.5236 15.5394C72.396 15.5394 72.2915 15.566 72.2099 15.6191C72.1284 15.6688 72.077 15.7467 72.0558 15.8531H71.3593C71.377 15.6688 71.4355 15.511 71.5347 15.3799C71.6375 15.2452 71.774 15.1406 71.9441 15.0662C72.1142 14.9918 72.3092 14.9546 72.5289 14.9546C72.7841 14.9546 73.0021 14.9971 73.1829 15.0822C73.3672 15.1637 73.5054 15.286 73.5976 15.449C73.6933 15.6085 73.7411 15.8035 73.7411 16.0338V17.8149H73.1404L73.0606 17.4002C73.0216 17.4711 72.9738 17.5367 72.9171 17.597C72.8639 17.6537 72.8019 17.7033 72.731 17.7458C72.6601 17.7884 72.5803 17.8203 72.4917 17.8415C72.4067 17.8663 72.3127 17.8787 72.2099 17.8787ZM72.3801 17.3258C72.4616 17.3258 72.5378 17.3081 72.6087 17.2726C72.6796 17.2372 72.7416 17.1893 72.7948 17.1291C72.8515 17.0653 72.8958 16.9926 72.9277 16.9111C72.9631 16.8296 72.9862 16.741 72.9968 16.6453V16.624H72.4598C72.3535 16.624 72.2667 16.6382 72.1993 16.6665C72.132 16.6949 72.0823 16.7357 72.0504 16.7888C72.0221 16.842 72.0079 16.9022 72.0079 16.9696C72.0079 17.044 72.0221 17.1078 72.0504 17.161C72.0823 17.2142 72.1266 17.2549 72.1834 17.2833C72.2401 17.3116 72.3056 17.3258 72.3801 17.3258ZM75.7706 17.8787C75.5012 17.8787 75.2619 17.8167 75.0528 17.6927C74.8472 17.5686 74.6859 17.3985 74.569 17.1823C74.452 16.966 74.3935 16.7215 74.3935 16.4485C74.3935 16.1508 74.452 15.8903 74.569 15.667C74.6859 15.4437 74.8472 15.27 75.0528 15.146C75.2619 15.0184 75.5012 14.9546 75.7706 14.9546C76.1179 14.9546 76.4086 15.0467 76.6425 15.231C76.8764 15.4153 77.0271 15.6705 77.0944 15.9966H76.3341C76.3022 15.8655 76.2349 15.7609 76.1321 15.6829C76.0328 15.605 75.9106 15.566 75.7652 15.566C75.6305 15.566 75.5153 15.6014 75.4196 15.6723C75.3239 15.7397 75.2513 15.8371 75.2017 15.9647C75.152 16.0888 75.1272 16.2394 75.1272 16.4166C75.1272 16.5478 75.1414 16.6665 75.1698 16.7729C75.1981 16.8792 75.2389 16.9696 75.292 17.044C75.3452 17.1149 75.4108 17.1698 75.4888 17.2088C75.5703 17.2478 75.6624 17.2673 75.7652 17.2673C75.8645 17.2673 75.9513 17.2514 76.0258 17.2195C76.1037 17.184 76.1693 17.1344 76.2225 17.0706C76.2756 17.0033 76.3129 16.9253 76.3341 16.8367H77.0944C77.0306 17.1521 76.88 17.4056 76.6425 17.597C76.405 17.7848 76.1144 17.8787 75.7706 17.8787ZM77.7445 17.8149V13.9869H78.4623V15.4118C78.5545 15.2736 78.6732 15.1637 78.8185 15.0822C78.9674 14.9971 79.134 14.9546 79.3183 14.9546C79.5522 14.9546 79.7454 14.9989 79.8978 15.0875C80.0502 15.1761 80.1636 15.3055 80.2381 15.4756C80.3125 15.6457 80.3497 15.8549 80.3497 16.103V17.8149H79.6373V16.1721C79.6373 15.9736 79.5877 15.823 79.4884 15.7202C79.3927 15.6138 79.2545 15.5607 79.0737 15.5607C78.9603 15.5607 78.8575 15.5872 78.7653 15.6404C78.6732 15.69 78.5988 15.7645 78.542 15.8637C78.4889 15.963 78.4623 16.0835 78.4623 16.2252V17.8149H77.7445ZM81.1094 17.8149V15.0184H81.8271V17.8149H81.1094ZM81.4709 14.6887C81.3398 14.6887 81.2334 14.6515 81.1519 14.5771C81.0704 14.4991 81.0296 14.4016 81.0296 14.2847C81.0296 14.1677 81.0704 14.072 81.1519 13.9976C81.2334 13.9196 81.3398 13.8806 81.4709 13.8806C81.6021 13.8806 81.7084 13.9196 81.7899 13.9976C81.875 14.072 81.9175 14.1677 81.9175 14.2847C81.9175 14.4016 81.875 14.4991 81.7899 14.5771C81.7084 14.6515 81.6021 14.6887 81.4709 14.6887ZM82.5784 17.8149V15.0184H83.2111L83.2589 15.4331C83.3369 15.2842 83.4503 15.1672 83.5992 15.0822C83.7481 14.9971 83.927 14.9546 84.1362 14.9546C84.3524 14.9546 84.5367 14.9989 84.6891 15.0875C84.8415 15.1725 84.9585 15.2984 85.04 15.465C85.1215 15.628 85.1623 15.8283 85.1623 16.0657V17.8149H84.4445V16.1295C84.4445 15.9488 84.3967 15.8088 84.301 15.7095C84.2053 15.6103 84.0706 15.5607 83.8969 15.5607C83.787 15.5607 83.686 15.5855 83.5939 15.6351C83.5017 15.6812 83.429 15.7503 83.3759 15.8424C83.3227 15.9346 83.2961 16.048 83.2961 16.1827V17.8149H82.5784ZM87.1614 17.8787C86.8955 17.8787 86.6598 17.8185 86.4543 17.698C86.2522 17.5775 86.0945 17.4091 85.9811 17.1929C85.8676 16.9767 85.8109 16.7268 85.8109 16.4432C85.8109 16.1526 85.8676 15.8956 85.9811 15.6723C86.0945 15.449 86.2522 15.2736 86.4543 15.146C86.6563 15.0184 86.892 14.9546 87.1614 14.9546C87.4378 14.9546 87.6735 15.0148 87.8685 15.1353C88.0634 15.2558 88.2123 15.4207 88.3151 15.6298C88.4179 15.8389 88.4693 16.0764 88.4693 16.3422C88.4693 16.3777 88.4675 16.4166 88.464 16.4592C88.464 16.5017 88.4622 16.546 88.4586 16.5921H86.3267V16.1508H87.7515C87.7444 15.9559 87.686 15.8052 87.5761 15.6989C87.4662 15.589 87.3297 15.5341 87.1667 15.5341C87.0462 15.5341 86.9363 15.566 86.8371 15.6298C86.7414 15.69 86.6634 15.7804 86.6031 15.9009C86.5464 16.0214 86.5181 16.1739 86.5181 16.3582V16.5124C86.5181 16.6719 86.5429 16.8101 86.5925 16.9271C86.6457 17.044 86.7201 17.1344 86.8158 17.1982C86.9115 17.262 87.0249 17.2939 87.1561 17.2939C87.3014 17.2939 87.4113 17.2709 87.4857 17.2248C87.5601 17.1752 87.6204 17.1078 87.6665 17.0228H88.3948C88.3452 17.1823 88.2619 17.3276 88.145 17.4587C88.0315 17.5899 87.8915 17.6927 87.7249 17.7671C87.5584 17.8415 87.3705 17.8787 87.1614 17.8787ZM89.0944 17.8149V15.0184H89.7325L89.7963 15.5022C89.8671 15.3817 89.9558 15.2806 90.0621 15.1991C90.1684 15.1176 90.2907 15.0573 90.4289 15.0184C90.5672 14.9758 90.7214 14.9546 90.8915 14.9546V15.7148H90.5034C90.4112 15.7148 90.3226 15.7255 90.2375 15.7467C90.156 15.768 90.0816 15.8052 90.0142 15.8584C89.9504 15.9116 89.9008 15.9825 89.8654 16.0711C89.8299 16.1597 89.8122 16.2731 89.8122 16.4113V17.8149H89.0944ZM91.7509 18.9846L92.3676 17.5172H92.2081L91.1501 15.0184H91.9263L92.6813 16.842L93.3619 15.0184H94.1275L92.5059 18.9846H91.7509Z" fill="white"/>
<path d="M36.9889 26.2637L35.9401 23.4724H36.303L37.1842 25.9088L38.0735 23.4724H38.4283L37.3796 26.2637H36.9889ZM38.8268 26.2637V23.4724H39.1617V26.2637H38.8268ZM40.4269 26.2637V23.7475H39.5935V23.4724H41.5953V23.7475H40.7619V26.2637H40.4269ZM43.9918 26.3115C43.7871 26.3115 43.609 26.2743 43.4575 26.1999C43.3059 26.1254 43.189 26.0218 43.1066 25.8888C43.0241 25.7559 42.9829 25.6017 42.9829 25.4263H43.3338C43.3338 25.5353 43.3591 25.6363 43.4096 25.7293C43.4601 25.8197 43.5332 25.8928 43.6289 25.9487C43.7273 26.0018 43.8482 26.0284 43.9918 26.0284C44.1167 26.0284 44.2231 26.0085 44.3108 25.9686C44.4012 25.9261 44.469 25.8689 44.5142 25.7971C44.562 25.7254 44.5859 25.6443 44.5859 25.5539C44.5859 25.4529 44.5633 25.3691 44.5181 25.3027C44.4756 25.2336 44.4158 25.1777 44.3387 25.1352C44.2616 25.09 44.1726 25.0501 44.0715 25.0156C43.9705 24.981 43.8615 24.9451 43.7446 24.9079C43.5106 24.8335 43.3405 24.7404 43.2342 24.6288C43.1305 24.5145 43.0786 24.3683 43.0786 24.1902C43.0786 24.0386 43.1132 23.9057 43.1823 23.7914C43.2541 23.6771 43.3551 23.588 43.4854 23.5242C43.6183 23.4578 43.7751 23.4246 43.9559 23.4246C44.134 23.4246 44.2882 23.4578 44.4185 23.5242C44.5514 23.5907 44.655 23.6824 44.7295 23.7994C44.8039 23.9137 44.8411 24.0466 44.8411 24.1981H44.4902C44.4902 24.121 44.4703 24.0453 44.4304 23.9708C44.3905 23.8964 44.3294 23.8353 44.247 23.7874C44.1672 23.7369 44.0662 23.7117 43.9439 23.7117C43.8429 23.709 43.7525 23.7263 43.6728 23.7635C43.5957 23.7981 43.5345 23.8486 43.4894 23.915C43.4468 23.9815 43.4256 24.0626 43.4256 24.1583C43.4256 24.2486 43.4442 24.3217 43.4814 24.3776C43.5213 24.4334 43.5771 24.4812 43.6489 24.5211C43.7233 24.5583 43.8097 24.5929 43.908 24.6248C44.0064 24.6567 44.1154 24.6926 44.235 24.7325C44.3706 24.7777 44.4902 24.8335 44.5939 24.8999C44.7002 24.9637 44.7826 25.0461 44.8411 25.1472C44.9023 25.2482 44.9328 25.3771 44.9328 25.534C44.9328 25.6669 44.897 25.7931 44.8252 25.9128C44.7561 26.0297 44.6524 26.1254 44.5142 26.1999C44.3759 26.2743 44.2018 26.3115 43.9918 26.3115ZM46.2245 26.2637C46.1049 26.2637 46.0012 26.2451 45.9135 26.2078C45.8258 26.1706 45.758 26.1082 45.7102 26.0204C45.665 25.93 45.6424 25.8091 45.6424 25.6576V24.4493H45.2755V24.1662H45.6424L45.6862 23.6439H45.9773V24.1662H46.5715V24.4493H45.9773V25.6576C45.9773 25.7825 46.0026 25.8676 46.0531 25.9128C46.1036 25.9553 46.1926 25.9766 46.3203 25.9766H46.5635V26.2637H46.2245ZM47.7847 26.3115C47.6305 26.3115 47.4962 26.2823 47.3819 26.2238C47.2676 26.1653 47.1786 26.0763 47.1148 25.9566C47.051 25.8343 47.0191 25.6828 47.0191 25.5021V24.1662H47.354V25.4662C47.354 25.6523 47.3992 25.7918 47.4896 25.8849C47.5826 25.9779 47.7062 26.0244 47.8604 26.0244C47.9668 26.0244 48.0625 26.0005 48.1475 25.9526C48.2326 25.9021 48.3004 25.829 48.3509 25.7333C48.4041 25.6376 48.4306 25.5207 48.4306 25.3824V24.1662H48.7656V26.2637H48.4625L48.4426 25.9287C48.3868 26.051 48.3004 26.1454 48.1834 26.2118C48.0691 26.2783 47.9362 26.3115 47.7847 26.3115ZM50.1977 26.3115C50.0116 26.3115 49.8468 26.2637 49.7033 26.168C49.5597 26.0723 49.4481 25.942 49.3683 25.7772C49.2886 25.6097 49.2487 25.421 49.2487 25.211C49.2487 24.9983 49.2886 24.8109 49.3683 24.6487C49.4481 24.4839 49.5597 24.355 49.7033 24.2619C49.8468 24.1662 50.013 24.1184 50.2017 24.1184C50.3665 24.1184 50.5074 24.1516 50.6244 24.2181C50.744 24.2845 50.8384 24.3776 50.9075 24.4972V23.3927H51.2424V26.2637H50.9394L50.9115 25.9287C50.8716 25.9952 50.8184 26.0576 50.752 26.1161C50.6882 26.1746 50.6098 26.2225 50.5167 26.2597C50.4263 26.2942 50.32 26.3115 50.1977 26.3115ZM50.2416 26.0204C50.3745 26.0204 50.4901 25.9885 50.5885 25.9247C50.6868 25.8583 50.7626 25.7652 50.8158 25.6456C50.8689 25.5233 50.8955 25.3798 50.8955 25.215C50.8955 25.0501 50.8689 24.9079 50.8158 24.7883C50.7626 24.666 50.6868 24.573 50.5885 24.5092C50.4901 24.4427 50.3745 24.4095 50.2416 24.4095C50.1166 24.4095 50.005 24.4427 49.9066 24.5092C49.8083 24.573 49.7312 24.666 49.6753 24.7883C49.6195 24.9079 49.5916 25.0501 49.5916 25.215C49.5916 25.3798 49.6195 25.5233 49.6753 25.6456C49.7312 25.7652 49.8083 25.8583 49.9066 25.9247C50.005 25.9885 50.1166 26.0204 50.2416 26.0204ZM52.6783 26.3115C52.4922 26.3115 52.3274 26.2663 52.1839 26.1759C52.0403 26.0856 51.9273 25.958 51.8449 25.7931C51.7652 25.6283 51.7253 25.4356 51.7253 25.215C51.7253 24.9943 51.7652 24.8016 51.8449 24.6368C51.9273 24.4719 52.0403 24.3443 52.1839 24.254C52.3301 24.1636 52.4976 24.1184 52.6863 24.1184C52.8883 24.1184 53.0571 24.1636 53.1927 24.254C53.3283 24.3443 53.4306 24.4653 53.4998 24.6168C53.5689 24.7684 53.6034 24.9345 53.6034 25.1153C53.6034 25.1418 53.6034 25.1684 53.6034 25.195C53.6034 25.2216 53.6021 25.2535 53.5994 25.2907H51.9765V25.0315H53.2765C53.2711 24.8268 53.2113 24.6713 53.097 24.565C52.9854 24.456 52.8458 24.4015 52.6783 24.4015C52.5667 24.4015 52.463 24.4294 52.3673 24.4852C52.2743 24.5384 52.1985 24.6182 52.14 24.7245C52.0815 24.8308 52.0523 24.9637 52.0523 25.1232V25.2349C52.0523 25.4103 52.0815 25.5579 52.14 25.6775C52.1985 25.7945 52.2743 25.8822 52.3673 25.9407C52.463 25.9992 52.5667 26.0284 52.6783 26.0284C52.8272 26.0284 52.9442 26.0005 53.0292 25.9447C53.1143 25.8862 53.1768 25.8038 53.2166 25.6974H53.5476C53.5157 25.8144 53.4599 25.9194 53.3801 26.0125C53.303 26.1055 53.2047 26.1786 53.0851 26.2318C52.9681 26.2849 52.8325 26.3115 52.6783 26.3115ZM54.0676 26.2637V24.1662H54.3707L54.3866 24.4972C54.4477 24.3776 54.5355 24.2845 54.6498 24.2181C54.7668 24.1516 54.901 24.1184 55.0525 24.1184C55.2067 24.1184 55.341 24.1476 55.4553 24.2061C55.5696 24.2646 55.6586 24.3536 55.7224 24.4733C55.7862 24.5929 55.8181 24.7444 55.8181 24.9279V26.2637H55.4832V24.9637C55.4832 24.7777 55.4367 24.6381 55.3436 24.545C55.2532 24.452 55.1309 24.4055 54.9768 24.4055C54.8731 24.4055 54.7774 24.4307 54.6897 24.4812C54.6019 24.5291 54.5315 24.6009 54.4783 24.6966C54.4278 24.7923 54.4026 24.9092 54.4026 25.0475V26.2637H54.0676ZM57.1863 26.2637C57.0667 26.2637 56.963 26.2451 56.8753 26.2078C56.7876 26.1706 56.7198 26.1082 56.672 26.0204C56.6268 25.93 56.6042 25.8091 56.6042 25.6576V24.4493H56.2373V24.1662H56.6042L56.648 23.6439H56.9391V24.1662H57.5333V24.4493H56.9391V25.6576C56.9391 25.7825 56.9644 25.8676 57.0149 25.9128C57.0654 25.9553 57.1544 25.9766 57.282 25.9766H57.5253V26.2637H57.1863ZM60.2639 26.3115C60.0008 26.3115 59.7721 26.2517 59.5781 26.1321C59.3867 26.0098 59.2378 25.841 59.1315 25.6257C59.0278 25.4077 58.976 25.1551 58.976 24.868C58.976 24.5809 59.0278 24.3297 59.1315 24.1144C59.2378 23.8964 59.3867 23.7276 59.5781 23.608C59.7721 23.4857 60.0008 23.4246 60.2639 23.4246C60.5803 23.4246 60.8368 23.5003 61.0335 23.6518C61.2302 23.8034 61.3565 24.0174 61.4123 24.2938H61.0495C61.0043 24.121 60.9166 23.9828 60.7863 23.8791C60.6587 23.7728 60.4846 23.7196 60.2639 23.7196C60.0725 23.7196 59.9051 23.7662 59.7615 23.8592C59.6206 23.9496 59.5116 24.0812 59.4345 24.254C59.3574 24.4241 59.3189 24.6288 59.3189 24.868C59.3189 25.1073 59.3574 25.3133 59.4345 25.4861C59.5116 25.6562 59.6206 25.7878 59.7615 25.8809C59.9051 25.9713 60.0725 26.0164 60.2639 26.0164C60.4846 26.0164 60.6587 25.9659 60.7863 25.8649C60.9166 25.7612 61.0043 25.6243 61.0495 25.4542H61.4123C61.3565 25.7227 61.2302 25.9327 61.0335 26.0842C60.8368 26.2358 60.5803 26.3115 60.2639 26.3115ZM61.8908 26.2637V23.3927H62.2257V24.5052C62.2949 24.3855 62.3892 24.2912 62.5089 24.2221C62.6285 24.1529 62.7574 24.1184 62.8956 24.1184C63.0578 24.1184 63.1947 24.149 63.3064 24.2101C63.4207 24.2686 63.5071 24.359 63.5655 24.4812C63.6267 24.6035 63.6573 24.759 63.6573 24.9478V26.2637H63.3263V24.9837C63.3263 24.7923 63.2811 24.6487 63.1907 24.553C63.1003 24.4547 62.9781 24.4055 62.8239 24.4055C62.7149 24.4055 62.6152 24.4321 62.5248 24.4852C62.4344 24.5357 62.3613 24.6115 62.3055 24.7125C62.2523 24.8135 62.2257 24.9358 62.2257 25.0794V26.2637H61.8908ZM64.8656 26.3115C64.7061 26.3115 64.5732 26.2823 64.4669 26.2238C64.3605 26.1627 64.2808 26.0829 64.2276 25.9845C64.1744 25.8835 64.1478 25.7759 64.1478 25.6616C64.1478 25.5233 64.1824 25.4064 64.2515 25.3107C64.3233 25.2123 64.423 25.1379 64.5506 25.0874C64.6782 25.0368 64.8271 25.0116 64.9972 25.0116H65.5196C65.5196 24.876 65.5036 24.763 65.4717 24.6726C65.4398 24.5823 65.388 24.5145 65.3162 24.4693C65.2444 24.4241 65.1487 24.4015 65.0291 24.4015C64.9095 24.4015 64.8071 24.4321 64.7221 24.4932C64.637 24.5517 64.5838 24.6394 64.5626 24.7564H64.2196C64.2356 24.6182 64.2821 24.5025 64.3592 24.4095C64.4363 24.3138 64.5333 24.242 64.6503 24.1941C64.7699 24.1436 64.8962 24.1184 65.0291 24.1184C65.2178 24.1184 65.3733 24.1529 65.4956 24.2221C65.6179 24.2885 65.7083 24.3829 65.7668 24.5052C65.8253 24.6248 65.8545 24.767 65.8545 24.9318V26.2637H65.5554L65.5355 25.9048C65.5089 25.9606 65.4744 26.0138 65.4318 26.0643C65.392 26.1121 65.3441 26.1547 65.2883 26.1919C65.2325 26.2291 65.1687 26.2584 65.0969 26.2796C65.0278 26.3009 64.9507 26.3115 64.8656 26.3115ZM64.9135 26.0284C65.0012 26.0284 65.0823 26.0085 65.1567 25.9686C65.2311 25.9287 65.2949 25.8756 65.3481 25.8091C65.4039 25.74 65.4465 25.6629 65.4757 25.5778C65.5049 25.4928 65.5196 25.4037 65.5196 25.3107V25.2708H65.0251C64.9002 25.2708 64.7978 25.2867 64.7181 25.3186C64.641 25.3505 64.5851 25.3957 64.5506 25.4542C64.516 25.51 64.4988 25.5738 64.4988 25.6456C64.4988 25.7227 64.5147 25.7905 64.5466 25.849C64.5785 25.9048 64.625 25.9487 64.6862 25.9806C64.75 26.0125 64.8257 26.0284 64.9135 26.0284ZM66.4079 27.1409V24.1662H66.711L66.7389 24.4932C66.7814 24.4241 66.8346 24.3616 66.8984 24.3058C66.9648 24.25 67.0433 24.2048 67.1336 24.1702C67.2267 24.1357 67.333 24.1184 67.4526 24.1184C67.6414 24.1184 67.8062 24.1662 67.9471 24.2619C68.0906 24.3576 68.2023 24.4879 68.282 24.6527C68.3618 24.8175 68.4017 25.0063 68.4017 25.2189C68.4017 25.429 68.3618 25.6164 68.282 25.7812C68.2023 25.946 68.0906 26.0763 67.9471 26.172C67.8035 26.265 67.6374 26.3115 67.4486 26.3115C67.2865 26.3115 67.1443 26.2783 67.022 26.2118C66.8997 26.1454 66.8067 26.0523 66.7429 25.9327V27.1409H66.4079ZM67.4088 26.0204C67.5337 26.0204 67.644 25.9885 67.7397 25.9247C67.8381 25.8583 67.9152 25.7652 67.971 25.6456C68.0295 25.5233 68.0587 25.3798 68.0587 25.215C68.0587 25.0501 68.0295 24.9079 67.971 24.7883C67.9152 24.666 67.8381 24.573 67.7397 24.5092C67.644 24.4427 67.5337 24.4095 67.4088 24.4095C67.2759 24.4095 67.1602 24.4427 67.0619 24.5092C66.9635 24.573 66.8877 24.666 66.8346 24.7883C66.7814 24.9079 66.7548 25.0501 66.7548 25.215C66.7548 25.3798 66.7814 25.5233 66.8346 25.6456C66.8877 25.7652 66.9635 25.8583 67.0619 25.9247C67.1602 25.9885 67.2759 26.0204 67.4088 26.0204ZM69.624 26.2637C69.5044 26.2637 69.4007 26.2451 69.313 26.2078C69.2252 26.1706 69.1575 26.1082 69.1096 26.0204C69.0644 25.93 69.0418 25.8091 69.0418 25.6576V24.4493H68.675V24.1662H69.0418L69.0857 23.6439H69.3768V24.1662H69.9709V24.4493H69.3768V25.6576C69.3768 25.7825 69.402 25.8676 69.4525 25.9128C69.503 25.9553 69.5921 25.9766 69.7197 25.9766H69.9629V26.2637H69.624ZM71.2452 26.3115C71.0592 26.3115 70.8943 26.2663 70.7508 26.1759C70.6072 26.0856 70.4943 25.958 70.4118 25.7931C70.3321 25.6283 70.2922 25.4356 70.2922 25.215C70.2922 24.9943 70.3321 24.8016 70.4118 24.6368C70.4943 24.4719 70.6072 24.3443 70.7508 24.254C70.897 24.1636 71.0645 24.1184 71.2532 24.1184C71.4552 24.1184 71.6241 24.1636 71.7596 24.254C71.8952 24.3443 71.9975 24.4653 72.0667 24.6168C72.1358 24.7684 72.1703 24.9345 72.1703 25.1153C72.1703 25.1418 72.1703 25.1684 72.1703 25.195C72.1703 25.2216 72.169 25.2535 72.1664 25.2907H70.5434V25.0315H71.8434C71.838 24.8268 71.7782 24.6713 71.6639 24.565C71.5523 24.456 71.4127 24.4015 71.2452 24.4015C71.1336 24.4015 71.0299 24.4294 70.9342 24.4852C70.8412 24.5384 70.7654 24.6182 70.7069 24.7245C70.6484 24.8308 70.6192 24.9637 70.6192 25.1232V25.2349C70.6192 25.4103 70.6484 25.5579 70.7069 25.6775C70.7654 25.7945 70.8412 25.8822 70.9342 25.9407C71.0299 25.9992 71.1336 26.0284 71.2452 26.0284C71.3941 26.0284 71.5111 26.0005 71.5961 25.9447C71.6812 25.8862 71.7437 25.8038 71.7836 25.6974H72.1145C72.0826 25.8144 72.0268 25.9194 71.947 26.0125C71.8699 26.1055 71.7716 26.1786 71.652 26.2318C71.535 26.2849 71.3994 26.3115 71.2452 26.3115ZM72.6345 26.2637V24.1662H72.9376L72.9615 24.549C73.0093 24.4533 73.0718 24.3736 73.1489 24.3098C73.226 24.246 73.319 24.1981 73.428 24.1662C73.5397 24.1343 73.6646 24.1184 73.8029 24.1184V24.4693H73.5955C73.5158 24.4693 73.4387 24.4799 73.3642 24.5012C73.2898 24.5225 73.222 24.557 73.1609 24.6049C73.1024 24.6527 73.0559 24.7178 73.0213 24.8003C72.9867 24.8827 72.9695 24.9863 72.9695 25.1113V26.2637H72.6345Z" fill="white"/>
</g>
<defs>
<clipPath id="clip0_2867_5040">
<rect width="94" height="33.1902" fill="white"/>
</clipPath>
</defs>
</svg>
