<svg width="142" height="46" viewBox="0 0 142 46" fill="none" xmlns="http://www.w3.org/2000/svg">
<g clip-path="url(#clip0_2867_5011)">
<path d="M15.1921 4.62008L1.59998 12.3415C0.608925 12.904 0 13.9433 0 15.0682V30.5111C0 31.636 0.608925 32.6753 1.59998 33.2377L15.1921 40.9592C16.1831 41.5216 17.401 41.5216 18.392 40.9592L31.9841 33.2377C32.9752 32.6753 33.5841 31.636 33.5841 30.5111V15.0682C33.5841 13.9433 32.9752 12.904 31.9841 12.3415L18.3951 4.62008C17.4041 4.05763 16.1831 4.05763 15.1921 4.62008Z" fill="#FAFBFB"/>
<path d="M31.3721 31.0732V14.5085L16.7921 6.22461L2.21204 14.5085V31.0732L16.7921 39.3541L31.3721 31.0732Z" fill="#2C2C2C" stroke="#48BA86" stroke-width="0.595333" stroke-miterlimit="10"/>
<path d="M16.8107 10.9512L6.39679 16.8661V16.918L16.8107 22.7871V10.9512Z" fill="#D3EBE0"/>
<path d="M16.8107 22.7866V34.6225L16.82 34.6256L27.2401 28.7046V28.6618L16.8107 22.7866Z" fill="#5EBF94"/>
<path d="M16.8107 22.7865L6.39679 16.9175V28.6983L16.8107 22.7865Z" fill="#48BA86"/>
<path d="M6.39679 28.6984V28.7046L16.8107 34.6225V22.7866L6.39679 28.6984Z" fill="#ADDBC8"/>
<path d="M27.2463 16.8623L16.8107 22.7924V10.9443L27.2463 16.8623Z" fill="#86CCAC"/>
</g>
<path d="M48.9125 27.0074C45.9041 27.0074 43.6729 24.7475 43.6729 21.739C43.6729 18.745 45.8753 16.4994 48.855 16.4994C51.921 16.4994 53.3605 18.1692 53.562 20.0981H51.6619C51.4316 19.2488 50.8846 18.3131 48.8694 18.3131C47.0125 18.3131 45.5586 19.5799 45.5586 21.7534C45.5586 23.9126 46.9981 25.1937 48.8694 25.1937C50.9854 25.1937 51.5467 24.2581 51.7915 23.4088H53.6915C53.418 25.6543 51.8922 27.0074 48.9125 27.0074ZM54.7225 23.1785C54.7225 20.861 56.3491 19.3783 58.825 19.3783C61.3152 19.3783 62.9418 20.9617 62.9418 23.1785C62.9418 25.4096 61.3152 27.0218 58.825 27.0218C56.3491 27.0218 54.7225 25.496 54.7225 23.1785ZM56.5938 23.1785C56.5938 24.3588 57.2416 25.3233 58.825 25.3233C60.4228 25.3233 61.0705 24.3588 61.0705 23.1785C61.0705 21.9981 60.4228 21.0769 58.825 21.0769C57.2272 21.0769 56.5938 21.9981 56.5938 23.1785ZM69.9218 20.1556V16.3555L71.6923 16.3411V26.7771L69.9218 26.7915V26.2733C69.9218 25.8415 70.1665 25.3377 70.3104 24.9202L69.9938 24.8195C69.8642 25.2369 69.7922 25.8271 69.49 26.1294C68.9574 26.6907 68.2232 27.0218 67.2588 27.0218C65.0996 27.0218 63.617 25.3521 63.6602 23.2217C63.7034 21.1489 65.1716 19.3783 67.2444 19.3783C68.2088 19.3783 68.9574 19.7526 69.4756 20.314C69.7778 20.6163 69.8642 21.2064 70.0082 21.6095L70.3104 21.5087C70.1665 21.0913 69.9218 20.5875 69.9218 20.1556ZM67.4891 25.3664C68.8422 25.3664 69.6051 24.4596 69.6051 23.2505C69.6051 22.0269 68.8422 21.0193 67.4891 21.0193C66.136 21.0193 65.4163 22.0269 65.4163 23.2505C65.4163 24.4596 66.136 25.3664 67.4891 25.3664ZM77.3727 27.0218C74.4507 27.0218 72.8817 25.2945 72.8817 23.1497C72.8817 21.0049 74.5946 19.3783 77.0273 19.3783C79.5319 19.3783 81.0865 21.1345 81.0721 23.1209C81.0721 23.2648 81.0721 23.6103 81.0577 23.7399L74.9977 23.7255C74.9977 24.5172 75.7174 25.5104 77.2 25.5104C78.1644 25.5104 78.7546 25.093 78.8986 24.7331H80.9138C80.6979 25.4816 79.6327 27.0218 77.3727 27.0218ZM74.9977 22.5451H79.0137C79.0137 21.5519 78.2796 20.7746 77.0705 20.7746C75.8469 20.7746 74.9977 21.6383 74.9977 22.5451ZM85.2609 24.4452C84.9587 24.7475 84.4405 24.9058 84.0518 25.0642L84.1814 25.3664C84.57 25.2081 85.045 24.949 85.4625 24.949H89.2626V26.7915H82.1517V25.0498C82.4972 24.7043 83.6056 23.5096 85.6928 21.5951C87.9239 19.5223 86.9163 18.3563 85.7791 18.3563C84.5268 18.3563 84.2533 19.5367 84.2533 20.242H82.3389C82.3389 18.7738 83.2889 16.4994 86.3261 16.4994C88.8164 16.4994 90.1263 19.3495 88.4421 21.1345C87.2186 22.43 85.9375 23.7543 85.2609 24.4452ZM95.7509 27.0074C92.7425 27.0074 90.5113 24.7475 90.5113 21.739C90.5113 18.745 92.7137 16.4994 95.6934 16.4994C98.7594 16.4994 100.199 18.1692 100.4 20.0981H98.5003C98.27 19.2488 97.723 18.3131 95.7078 18.3131C93.8509 18.3131 92.397 19.5799 92.397 21.7534C92.397 23.9126 93.8365 25.1937 95.7078 25.1937C97.8238 25.1937 98.3851 24.2581 98.6298 23.4088H100.53C100.256 25.6543 98.7306 27.0074 95.7509 27.0074ZM104.352 20.0981C105.115 19.5079 105.907 19.3783 107.318 19.3783V21.0193C105.533 21.0193 103.676 21.6527 103.676 23.6535V26.7915H101.92V19.5942H103.676V19.8102C103.676 20.3572 103.374 21.0193 103.158 21.5231L103.46 21.6527C103.676 21.1489 103.906 20.4291 104.352 20.0981ZM112.656 27.0218C109.734 27.0218 108.165 25.2945 108.165 23.1497C108.165 21.0049 109.878 19.3783 112.311 19.3783C114.815 19.3783 116.37 21.1345 116.356 23.1209C116.356 23.2648 116.356 23.6103 116.341 23.7399L110.281 23.7255C110.281 24.5172 111.001 25.5104 112.483 25.5104C113.448 25.5104 114.038 25.093 114.182 24.7331H116.197C115.981 25.4816 114.916 27.0218 112.656 27.0218ZM110.281 22.5451H114.297C114.297 21.5519 113.563 20.7746 112.354 20.7746C111.13 20.7746 110.281 21.6383 110.281 22.5451ZM122.796 26.0718C122.264 26.662 121.515 27.0218 120.551 27.0218C118.406 27.0218 116.895 25.2945 116.895 23.1497C116.895 21.0049 118.406 19.3783 120.551 19.3783C121.515 19.3783 122.264 19.7094 122.782 20.2708C123.084 20.5875 123.142 21.1776 123.286 21.5951L123.588 21.4943C123.458 21.0769 123.199 20.5731 123.199 20.1412L123.185 19.5942H124.955V26.7915H123.185L123.199 26.2013C123.199 25.7695 123.458 25.2513 123.588 24.8482L123.271 24.7475C123.142 25.1505 123.084 25.7407 122.796 26.0718ZM118.665 23.1497C118.665 24.3588 119.457 25.3808 120.652 25.3808C121.832 25.3808 122.624 24.33 122.667 23.1497C122.667 21.883 121.961 21.0193 120.652 21.0193C119.457 21.0193 118.665 21.9262 118.665 23.1497ZM127.728 24.3732V21.1345H126.288V19.5942H127.728V16.8737H129.484V19.5942H131.355V21.1345H129.484V24.3732C129.484 24.9778 129.757 25.1505 130.434 25.1505H131.283V26.7915H129.541C128.188 26.7915 127.728 25.5248 127.728 24.3732ZM136.778 27.0218C133.856 27.0218 132.287 25.2945 132.287 23.1497C132.287 21.0049 134 19.3783 136.433 19.3783C138.937 19.3783 140.492 21.1345 140.478 23.1209C140.478 23.2648 140.478 23.6103 140.463 23.7399L134.403 23.7255C134.403 24.5172 135.123 25.5104 136.605 25.5104C137.57 25.5104 138.16 25.093 138.304 24.7331H140.319C140.103 25.4816 139.038 27.0218 136.778 27.0218ZM134.403 22.5451H138.419C138.419 21.5519 137.685 20.7746 136.476 20.7746C135.252 20.7746 134.403 21.6383 134.403 22.5451Z" fill="white"/>
<defs>
<clipPath id="clip0_2867_5011">
<rect width="33.5872" height="37.1858" fill="white" transform="translate(0 4.19824)"/>
</clipPath>
</defs>
</svg>
