<svg width="8" height="9" viewBox="0 0 8 9" fill="none" xmlns="http://www.w3.org/2000/svg">
<path d="M5.10858 0.899902H2.09178C0.781383 0.899902 0.000183105 1.6811 0.000183105 2.9915V6.0047C0.000183105 7.3187 0.781383 8.0999 2.09178 8.0999H5.10498C6.41538 8.0999 7.19658 7.3187 7.19658 6.0083V2.9915C7.20018 1.6811 6.41898 0.899902 5.10858 0.899902ZM5.06178 4.2011L3.79098 5.4719C3.73698 5.5259 3.66858 5.5511 3.60018 5.5511C3.53178 5.5511 3.46338 5.5259 3.40938 5.4719L2.13858 4.2011C2.03418 4.0967 2.03418 3.9239 2.13858 3.8195C2.24298 3.7151 2.41578 3.7151 2.52018 3.8195L3.60018 4.8995L4.68018 3.8195C4.78458 3.7151 4.95738 3.7151 5.06178 3.8195C5.16618 3.9239 5.16618 4.0931 5.06178 4.2011Z" fill="white"/>
</svg>
