<svg width="34" height="34" viewBox="0 0 34 34" fill="none" xmlns="http://www.w3.org/2000/svg">
<path d="M17 1.1875C8.267 1.1875 1.1875 8.267 1.1875 17C1.1875 24.238 6.05055 30.3401 12.6875 32.2172L14.125 23.1777C10.1638 22.3212 7.65636 19.6312 7.65636 16.3152C7.65636 14.4739 8.32147 12.3136 9.81261 11.0337V7.49785L14.0139 8.93535C14.9536 8.70212 15.9574 8.57598 17 8.57598C18.0426 8.57598 19.0464 8.70212 19.9861 8.93535L24.1874 7.49785V11.0337C25.6785 12.3136 26.3439 14.4737 26.3439 16.315C26.3439 19.6311 23.8365 22.3212 19.8754 23.1777L21.3125 32.2172C27.9494 30.3401 32.8125 24.238 32.8125 17C32.8125 8.267 25.733 1.1875 17 1.1875Z" stroke="black" stroke-width="1.5"/>
<path d="M6.66602 25.0007C7.68349 25.0007 8.25486 24.9054 9.27233 25.4142C10.3019 25.9289 10.4114 26.4939 11.4792 26.7348C12.1621 26.8889 13.3391 26.4808 13.8535 25.2086" stroke="black" stroke-width="1.5"/>
</svg>
