<svg width="38" height="36" viewBox="0 0 38 36" fill="none" xmlns="http://www.w3.org/2000/svg">
<path d="M35.0421 15.0501C34.9743 14.6929 34.6459 14.433 34.2628 14.4334H19.3511C18.9141 14.4331 18.5596 14.7686 18.5594 15.1825C18.5594 15.1822 18.5594 15.1828 18.5594 15.1825V20.9856C18.5591 21.3996 18.9132 21.7354 19.3502 21.7356C19.3497 21.7356 19.3503 21.7356 19.3502 21.7356H26.8487C26.3795 23.0268 25.4742 24.1353 24.2727 24.8895C22.8048 25.7767 21.0918 26.2311 19.3511 26.1946C15.64 26.1585 12.3718 23.8722 11.2433 20.5227C10.6369 18.8296 10.6357 16.9926 11.2421 15.2995L11.2433 15.2976C12.372 11.9484 15.6401 9.66205 19.3511 9.6258C21.3972 9.59448 23.3745 10.3257 24.8571 11.6619C25.168 11.9444 25.6602 11.9391 25.9642 11.6502L30.5055 7.34796C30.8149 7.05499 30.8149 6.58002 30.5057 6.28695C30.499 6.28063 30.4922 6.27441 30.4854 6.26836C27.4704 3.59238 23.4823 2.12121 19.3511 2.16094C13.0609 2.143 7.30384 5.50528 4.49493 10.8372C2.13646 15.2878 2.13646 20.5326 4.49493 24.9832C7.30403 30.3153 13.0607 33.6778 19.3511 33.6609C23.4014 33.7615 27.3393 32.392 30.3592 29.833L30.3664 29.8288C33.6738 26.8066 35.4812 22.6023 35.3437 18.2508C35.3434 17.1775 35.2424 16.1064 35.0421 15.0501ZM19.3511 3.66094C22.798 3.62707 26.1449 4.7583 28.7908 6.85147L25.3705 10.0916C23.6665 8.79294 21.5378 8.09778 19.3511 8.1258C15.3592 8.15197 11.7545 10.3935 10.1413 13.8528L6.21375 10.9673C8.85934 6.44497 13.8934 3.64521 19.3511 3.66094ZM4.30938 17.9109C4.30532 15.9981 4.71102 14.1043 5.50191 12.3442L9.57553 15.337C9.08007 17.0203 9.08007 18.7999 9.57553 20.4834L5.50356 23.475C4.71769 21.7144 4.3117 19.8225 4.30938 17.9109ZM19.3511 32.1609C13.8931 32.1763 8.85896 29.376 6.21375 24.853L10.1413 21.9676C11.7542 25.4272 15.3591 27.6688 19.3511 27.6946C21.2091 27.7215 23.0419 27.2833 24.664 26.4246L24.8367 26.5518L28.5789 29.3059C25.9386 31.2303 22.6812 32.238 19.3511 32.1609ZM29.7726 28.2849L26.0076 25.515C27.3892 24.3772 28.3213 22.8279 28.65 21.1219C28.73 20.7151 28.4469 20.3241 28.0176 20.2483C27.9697 20.2398 27.9211 20.2356 27.8723 20.2356H20.1428V15.9334H33.5888C33.7031 16.7011 33.7605 17.4754 33.7604 18.2508C33.8744 21.9619 32.4418 25.5664 29.7726 28.2849Z" fill="black"/>
</svg>
