<svg width="554" height="434" viewBox="0 0 554 434" fill="none" xmlns="http://www.w3.org/2000/svg">
<mask id="mask0_2869_5078" style="mask-type:alpha" maskUnits="userSpaceOnUse" x="0" y="0" width="681" height="434">
<rect y="313.385" width="319.25" height="631.484" transform="rotate(-79 0 313.385)" fill="#C4C4C4"/>
</mask>
<g mask="url(#mask0_2869_5078)">
<rect x="332.964" y="247.119" width="52.8777" height="48.6475" transform="rotate(48.8464 332.964 247.119)" fill="#717171"/>
<rect x="320.787" y="316.753" width="59.2231" height="8.46044" transform="rotate(-41.1536 320.787 316.753)" fill="#717171"/>
<rect x="326.593" y="252.687" width="52.8777" height="31.7266" transform="rotate(48.8464 326.593 252.687)" fill="#717171"/>
<rect x="307.859" y="308.388" width="67.6835" height="8.46044" transform="rotate(-41.1536 307.859 308.388)" fill="#717171"/>
<rect x="294.93" y="300.024" width="76.1439" height="8.46044" transform="rotate(-41.1536 294.93 300.024)" fill="#717171"/>
<rect x="280.409" y="293.052" width="88.8346" height="8.46044" transform="rotate(-41.1536 280.409 293.052)" fill="#717171"/>
<rect x="250.389" y="249.062" width="74.0288" height="52.8777" transform="rotate(-41.1536 250.389 249.062)" fill="#717171"/>
<rect x="258.352" y="242.103" width="8.46044" height="29.6115" transform="rotate(-41.1536 258.352 242.103)" fill="#717171"/>
<rect x="269.5" y="232.359" width="8.46044" height="29.6115" transform="rotate(-41.1536 269.5 232.359)" fill="#717171"/>
<rect x="293.789" y="205.512" width="4.23022" height="48.6475" transform="rotate(48.8464 293.789 205.512)" fill="#717171"/>
<rect x="280.648" y="222.616" width="8.46044" height="29.6115" transform="rotate(-41.1536 280.648 222.616)" fill="#717171"/>
<rect x="291.795" y="212.873" width="8.46044" height="29.6115" transform="rotate(-41.1536 291.795 212.873)" fill="#717171"/>
<path d="M323.548 274.54C350.129 308.024 393.889 337.521 439.206 333.035C498.059 327.208 575.727 275.674 590.204 206.128C600.525 156.547 590.435 110.081 565.196 73.6567C542.517 40.9271 508.436 20.9763 484.23 -9.9666C467.496 -31.3591 461.122 -55.4078 477.472 -83.4574" stroke="#717171" stroke-width="17.5412" stroke-linejoin="round"/>
<path d="M367.726 240.868C395.552 272.528 439.737 301.708 483.274 300.563C539.817 299.076 611.658 257.862 621.25 196.518C628.089 152.784 615.388 110.547 588.673 76.3387C564.668 45.6006 530.448 25.5802 505.08 -3.65515C487.542 -23.8671 480.437 -52.1252 494.471 -76.2005" stroke="#717171" stroke-width="26.3118" stroke-linejoin="round"/>
<path d="M368.026 241.088C395.814 272.668 439.922 301.79 483.357 300.686C539.767 299.252 611.405 258.237 620.922 197.103C627.707 153.52 614.999 111.411 588.317 77.2932C564.342 46.636 530.184 26.6522 504.85 -2.5084C487.335 -22.6687 480.222 -50.8396 494.203 -74.8233" stroke="#EFEFEF" stroke-width="12.2789" stroke-linejoin="round"/>
<rect x="353.064" y="186.754" width="52.8777" height="48.6475" transform="rotate(48.3333 353.064 186.754)" fill="#1E1E1E"/>
<rect x="353.064" y="186.754" width="52.8777" height="10.5755" transform="rotate(48.3333 353.064 186.754)" fill="#717171"/>
<rect x="342.918" y="258.073" width="59.223" height="6.34533" transform="rotate(-41.6667 342.918 258.073)" fill="#EFEFEF"/>
<rect x="346.744" y="192.378" width="52.8777" height="31.7266" transform="rotate(48.3333 346.744 192.378)" fill="#EFEFEF"/>
<rect x="329.915" y="249.826" width="67.6835" height="4.23022" transform="rotate(-41.6667 329.915 249.826)" fill="#EFEFEF"/>
<rect x="315.506" y="239.998" width="76.1439" height="6.34533" transform="rotate(-41.6667 315.506 239.998)" fill="#EFEFEF"/>
<rect x="300.923" y="233.156" width="88.8346" height="6.34533" transform="rotate(-41.6667 300.923 233.156)" fill="#EFEFEF"/>
<rect x="270.51" y="189.436" width="74.0288" height="52.8777" transform="rotate(-41.6667 270.51 189.436)" fill="#EFEFEF"/>
<rect x="297.371" y="165.532" width="38.072" height="52.8777" transform="rotate(-41.6667 297.371 165.532)" fill="#262626"/>
<rect x="354.645" y="185.348" width="16.9209" height="8.46044" transform="rotate(-41.6667 354.645 185.348)" fill="#262626"/>
<rect x="332.523" y="205.033" width="35.9569" height="8.46044" transform="rotate(-41.6667 332.523 205.033)" fill="#262626"/>
<rect x="342.366" y="216.093" width="40.1871" height="8.46044" transform="rotate(-41.6667 342.366 216.093)" fill="#262626"/>
<rect x="352.21" y="227.154" width="35.9569" height="8.46044" transform="rotate(-41.6667 352.21 227.154)" fill="#262626"/>
<rect x="362.052" y="238.214" width="31.7266" height="8.46044" transform="rotate(-41.6667 362.052 238.214)" fill="#262626"/>
<rect x="338.148" y="211.354" width="19.036" height="42.3022" transform="rotate(-41.6667 338.148 211.354)" fill="#262626"/>
<rect x="343.091" y="255.087" width="8.46044" height="4.23022" transform="rotate(48.3333 343.091 255.087)" fill="#717171"/>
<rect x="330.089" y="246.839" width="8.46044" height="4.23022" transform="rotate(48.3333 330.089 246.839)" fill="#717171"/>
<rect x="317.086" y="238.591" width="8.46044" height="4.23022" transform="rotate(48.3333 317.086 238.591)" fill="#717171"/>
<rect x="301.097" y="230.169" width="10.5755" height="4.23022" transform="rotate(48.3333 301.097 230.169)" fill="#717171"/>
<rect x="323.928" y="224.008" width="6.34533" height="2.11511" transform="rotate(48.3333 323.928 224.008)" fill="#717171"/>
<rect x="333.77" y="235.068" width="6.34533" height="2.11511" transform="rotate(48.3333 333.77 235.068)" fill="#717171"/>
<rect x="343.613" y="246.129" width="6.34533" height="4.23022" transform="rotate(48.3333 343.613 246.129)" fill="#717171"/>
<rect x="343.613" y="246.129" width="12.6907" height="2.11511" transform="rotate(138.333 343.613 246.129)" fill="#717171"/>
<rect x="349.237" y="252.449" width="8.46043" height="2.11511" transform="rotate(138.333 349.237 252.449)" fill="#717171"/>
<rect x="391.341" y="226.743" width="56.6965" height="4.57626" transform="rotate(138.333 391.341 226.743)" fill="#717171"/>
<rect x="339.396" y="241.389" width="14.8058" height="4.23022" transform="rotate(138.333 339.396 241.389)" fill="#717171"/>
<rect x="333.77" y="235.068" width="16.9209" height="2.11511" transform="rotate(138.333 333.77 235.068)" fill="#717171"/>
<rect x="328.146" y="228.749" width="19.036" height="4.23022" transform="rotate(138.333 328.146 228.749)" fill="#717171"/>
<rect x="323.928" y="224.008" width="23.2662" height="2.11511" transform="rotate(138.333 323.928 224.008)" fill="#717171"/>
<rect x="310.242" y="227.693" width="10.5918" height="4.23022" transform="rotate(138.333 310.242 227.693)" fill="#717171"/>
<rect x="273.691" y="186.604" width="52.8777" height="6.37325" transform="rotate(48.3333 273.691 186.604)" fill="#717171"/>
<rect x="278.411" y="182.406" width="8.46044" height="29.6115" transform="rotate(-41.6667 278.411 182.406)" fill="#48BA86"/>
<rect x="289.471" y="172.562" width="8.46044" height="29.6115" transform="rotate(-41.6667 289.471 172.562)" fill="#48BA86"/>
<rect x="313.519" y="145.499" width="4.23022" height="48.6475" transform="rotate(48.3333 313.519 145.499)" fill="#1E1E1E"/>
<rect x="300.531" y="162.72" width="8.46044" height="29.6115" transform="rotate(-41.6667 300.531 162.72)" fill="#48BA86"/>
<rect x="311.591" y="152.877" width="8.46044" height="29.6115" transform="rotate(-41.6667 311.591 152.877)" fill="#48BA86"/>
</g>
</svg>
