<svg width="854" height="1887" viewBox="0 0 854 1887" fill="none" xmlns="http://www.w3.org/2000/svg">
<g filter="url(#filter0_dddddd_1_3)">
<path d="M530.12 340.377C556.961 371.564 571.26 411.533 570.264 452.587C569.268 493.64 553.048 532.876 524.727 562.737C509.946 578.321 492.414 590.773 473.185 599.597C491.525 589.276 508.198 575.498 522.376 560.55C550.153 531.263 566.063 492.779 567.04 452.51C568.017 412.241 553.991 373.037 527.667 342.45C514.23 326.837 498.245 312.272 480.425 301.082C499.205 310.819 516.112 324.101 530.12 340.377Z" stroke="white" stroke-width="3.375"/>
</g>
<g filter="url(#filter1_dddddd_1_3)">
<path d="M323.869 673.811C297.03 704.614 282.736 744.089 283.731 784.631C284.727 825.172 300.943 863.923 329.264 893.418C343.96 908.723 361.377 920.973 380.48 929.68C362.275 919.507 345.72 905.976 331.628 891.3C303.848 862.368 287.933 824.346 286.956 784.557C285.979 744.767 300.009 706.034 326.337 675.816C339.696 660.484 355.572 646.178 373.264 635.151C354.603 644.756 337.801 657.82 323.869 673.811Z" stroke="white" stroke-width="3.375"/>
</g>
<g filter="url(#filter2_dddddd_1_3)">
<path d="M530.126 1003.44C556.965 1034.24 571.259 1073.71 570.264 1114.26C569.268 1154.8 553.052 1193.55 524.731 1223.04C510.035 1238.35 492.618 1250.6 473.515 1259.3C491.721 1249.13 508.276 1235.6 522.367 1220.92C550.147 1191.99 566.062 1153.97 567.039 1114.18C568.016 1074.39 553.986 1035.66 527.658 1005.44C514.299 990.109 498.423 975.803 480.731 964.776C499.392 974.381 516.194 987.445 530.126 1003.44Z" stroke="white" stroke-width="3.375"/>
</g>
<g filter="url(#filter3_dddddd_1_3)">
<path d="M323.869 1333.06C297.03 1363.86 282.736 1403.34 283.731 1443.88C284.727 1484.42 300.943 1523.17 329.264 1552.67C343.96 1567.97 361.377 1580.22 380.48 1588.93C362.275 1578.76 345.72 1565.23 331.628 1550.55C303.848 1521.62 287.933 1483.6 286.956 1443.81C285.979 1404.02 300.009 1365.28 326.337 1335.07C339.696 1319.73 355.572 1305.43 373.264 1294.4C354.603 1304.01 337.801 1317.07 323.869 1333.06Z" stroke="white" stroke-width="3.375"/>
</g>
<path d="M411.363 492.401V495H385.443V471.375H411.363V473.974H388.548V481.871H411.363V484.47H388.548V492.401H411.363ZM439.616 471.375V495H436.714V491.591H436.579C435.386 494.089 432.416 495.338 427.669 495.338H426.386C419.501 495.338 416.059 492.547 416.059 486.967V485.212C416.059 482.287 416.925 480.15 418.658 478.8C420.413 477.45 422.989 476.775 426.386 476.775H427.669C432.416 476.775 435.386 478.024 436.579 480.521H436.714V471.375H439.616ZM427.871 492.941C430.999 492.941 433.249 492.514 434.621 491.659C436.016 490.804 436.714 489.262 436.714 487.035V485.55C436.714 483.12 436.016 481.455 434.621 480.555C433.249 479.632 430.999 479.171 427.871 479.171C424.699 479.171 422.415 479.632 421.02 480.555C419.648 481.455 418.961 483.12 418.961 485.55V486.562C418.961 488.992 419.648 490.669 421.02 491.591C422.415 492.491 424.699 492.941 427.871 492.941ZM445.087 471.375H448.023V474.007H445.087V471.375ZM445.087 477.112H448.023V495H445.087V477.112ZM457.074 479.374H451.438V477.112H457.074V471.375H459.976V477.112H467.165V479.374H459.976V488.25C459.976 490.117 460.381 491.332 461.191 491.895C462.024 492.457 463.475 492.739 465.545 492.739H467.165V495H464.836C461.956 495 459.943 494.539 458.795 493.616C457.648 492.671 457.074 490.95 457.074 488.452V479.374ZM471.396 471.375H474.333V474.007H471.396V471.375ZM471.396 477.112H474.333V495H471.396V477.112ZM491.686 495.338H489.694C486.117 495.338 483.417 494.674 481.594 493.346C479.794 491.996 478.894 489.87 478.894 486.967V485.212C478.894 482.287 479.794 480.15 481.594 478.8C483.394 477.45 486.094 476.775 489.694 476.775H491.686C495.286 476.775 497.974 477.45 499.752 478.8C501.552 480.15 502.452 482.287 502.452 485.212V486.967C502.452 489.87 501.552 491.996 499.752 493.346C497.974 494.674 495.286 495.338 491.686 495.338ZM490.707 492.941C493.834 492.941 496.084 492.491 497.457 491.591C498.852 490.669 499.549 488.992 499.549 486.562V485.55C499.549 483.12 498.852 481.455 497.457 480.555C496.084 479.632 493.834 479.171 490.707 479.171C487.534 479.171 485.251 479.632 483.856 480.555C482.483 481.455 481.797 483.12 481.797 485.55V486.562C481.797 488.992 482.483 490.669 483.856 491.591C485.251 492.491 487.534 492.941 490.707 492.941ZM527.249 483.829V495H524.347V484.335C524.347 483.3 524.167 482.422 523.807 481.702C523.447 480.982 522.929 480.454 522.254 480.116C521.579 479.756 520.882 479.509 520.162 479.374C519.464 479.239 518.654 479.171 517.732 479.171C512.557 479.171 509.969 481.207 509.969 485.28V495H507.033V477.112H509.969V480.521H510.104C511.364 478.024 514.132 476.775 518.407 476.775C524.302 476.775 527.249 479.126 527.249 483.829Z" fill="#48BA86"/>
<path d="M413.651 445.608H410.37C406.118 445.608 402.554 445.344 399.678 444.818C396.843 444.291 394.393 443.36 392.328 442.023C390.262 440.687 388.743 438.864 387.771 436.556C386.84 434.247 386.374 431.351 386.374 427.868V422.036C386.374 414.746 388.156 409.562 391.72 406.484C395.325 403.406 401.379 401.867 409.884 401.867H412.497C420.111 401.867 425.7 402.718 429.264 404.419C432.868 406.079 435.035 408.874 435.764 412.802H430.175C429.648 410.372 428.008 408.692 425.254 407.76C422.5 406.829 417.883 406.363 411.403 406.363C406.098 406.363 402.068 406.849 399.314 407.821C396.56 408.752 394.596 410.372 393.421 412.681C392.287 414.949 391.72 418.31 391.72 422.765V424.466H392.024C392.955 422.117 395.001 420.416 398.16 419.363C401.319 418.27 406.199 417.723 412.8 417.723C421.022 417.723 426.975 418.655 430.661 420.518C434.346 422.34 436.189 425.722 436.189 430.663V432.364C436.189 437.224 434.346 440.646 430.661 442.631C426.975 444.615 421.305 445.608 413.651 445.608ZM411.585 441.233C418.511 441.233 423.432 440.585 426.348 439.289C429.264 437.993 430.722 435.766 430.722 432.607V430.845C430.722 427.646 429.264 425.398 426.348 424.102C423.432 422.806 418.511 422.158 411.585 422.158C404.781 422.158 399.861 422.806 396.823 424.102C393.867 425.357 392.388 427.605 392.388 430.845V432.607C392.388 435.766 393.846 437.993 396.762 439.289C399.678 440.585 404.619 441.233 411.585 441.233ZM452.572 416.873H442.427V412.802H452.572V402.475H457.797V412.802H470.736V416.873H457.797V432.85C457.797 436.211 458.526 438.398 459.984 439.411C461.482 440.423 464.094 440.93 467.82 440.93H470.736V445H466.545C461.361 445 457.736 444.17 455.67 442.509C453.605 440.808 452.572 437.71 452.572 433.214V416.873ZM514.742 424.892V445H509.517V425.803C509.517 423.94 509.193 422.36 508.545 421.064C507.897 419.768 506.966 418.817 505.751 418.209C504.536 417.561 503.28 417.116 501.984 416.873C500.729 416.63 499.271 416.508 497.61 416.508C488.295 416.508 483.638 420.173 483.638 427.504V445H478.352V402.475H483.638V418.938H483.881C486.149 414.443 491.13 412.195 498.825 412.195C509.436 412.195 514.742 416.427 514.742 424.892Z" fill="#48BA86"/>
<path d="M366.736 767.626V772H316.435V765.378C316.435 760.356 317.549 756.752 319.776 754.565C322.044 752.337 326.074 750.96 331.865 750.434L349.969 748.55C354.383 748.064 357.36 747.335 358.899 746.363C360.479 745.391 361.268 743.69 361.268 741.26V740.653C361.268 738.101 359.851 736.259 357.016 735.125C354.181 733.95 349.483 733.363 342.922 733.363C338.426 733.363 334.842 733.687 332.169 734.335C329.496 734.942 327.552 735.813 326.337 736.947C325.163 738.081 324.292 739.64 323.725 741.625H318.075C318.602 739.073 319.513 736.947 320.809 735.246C322.105 733.545 323.806 732.249 325.912 731.358C328.018 730.427 330.306 729.779 332.777 729.414C335.288 729.05 338.264 728.867 341.707 728.867H343.712C351.326 728.867 357.056 729.738 360.904 731.48C364.751 733.181 366.675 736.076 366.675 740.167V741.503C366.675 744.905 365.622 747.518 363.516 749.34C361.451 751.122 357.603 752.297 351.974 752.864L333.323 754.808C329.03 755.253 326.033 756.104 324.332 757.359C322.672 758.615 321.842 760.822 321.842 763.981V767.626H366.736ZM406.325 772.608H401.283C392.211 772.608 385.67 771.089 381.661 768.051C377.692 764.973 375.707 760.154 375.707 753.593V747.882C375.707 741.321 377.692 736.522 381.661 733.484C385.67 730.406 392.211 728.867 401.283 728.867H406.325C415.397 728.867 421.918 730.406 425.887 733.484C429.896 736.522 431.901 741.321 431.901 747.882V753.593C431.901 760.154 429.896 764.973 425.887 768.051C421.918 771.089 415.397 772.608 406.325 772.608ZM403.774 768.173C408.431 768.173 412.259 767.849 415.256 767.201C418.253 766.553 420.561 765.52 422.181 764.102C423.842 762.685 424.976 761.045 425.583 759.182C426.191 757.319 426.494 754.97 426.494 752.135V749.34C426.494 746.505 426.191 744.156 425.583 742.293C424.976 740.43 423.842 738.79 422.181 737.372C420.561 735.955 418.253 734.942 415.256 734.335C412.259 733.687 408.431 733.363 403.774 733.363C399.116 733.363 395.289 733.687 392.292 734.335C389.336 734.942 387.047 735.955 385.427 737.372C383.807 738.79 382.694 740.43 382.086 742.293C381.479 744.156 381.175 746.505 381.175 749.34V752.135C381.175 754.403 381.357 756.347 381.722 757.967C382.086 759.546 382.754 761.024 383.726 762.401C384.698 763.738 386.015 764.811 387.675 765.621C389.376 766.431 391.543 767.059 394.175 767.504C396.848 767.95 400.048 768.173 403.774 768.173ZM471.591 772.608H466.549C457.477 772.608 450.936 771.089 446.927 768.051C442.958 764.973 440.973 760.154 440.973 753.593V747.882C440.973 741.321 442.958 736.522 446.927 733.484C450.936 730.406 457.477 728.867 466.549 728.867H471.591C480.663 728.867 487.184 730.406 491.153 733.484C495.162 736.522 497.167 741.321 497.167 747.882V753.593C497.167 760.154 495.162 764.973 491.153 768.051C487.184 771.089 480.663 772.608 471.591 772.608ZM469.04 768.173C473.697 768.173 477.524 767.849 480.521 767.201C483.518 766.553 485.827 765.52 487.447 764.102C489.107 762.685 490.241 761.045 490.849 759.182C491.456 757.319 491.76 754.97 491.76 752.135V749.34C491.76 746.505 491.456 744.156 490.849 742.293C490.241 740.43 489.107 738.79 487.447 737.372C485.827 735.955 483.518 734.942 480.521 734.335C477.524 733.687 473.697 733.363 469.04 733.363C464.382 733.363 460.555 733.687 457.558 734.335C454.601 734.942 452.313 735.955 450.693 737.372C449.073 738.79 447.959 740.43 447.352 742.293C446.744 744.156 446.441 746.505 446.441 749.34V752.135C446.441 754.403 446.623 756.347 446.987 757.967C447.352 759.546 448.02 761.024 448.992 762.401C449.964 763.738 451.28 764.811 452.941 765.621C454.642 766.431 456.809 767.059 459.441 767.504C462.114 767.95 465.314 768.173 469.04 768.173ZM518.207 753.896H505.814V750.069H518.207V737.129H522.034V750.069H534.366V753.896H522.034V766.897H518.207V753.896Z" fill="#48BA86"/>
<path d="M295.765 1156.38V1132.75H303.528C305.395 1132.75 306.914 1133.05 308.084 1133.66C309.276 1134.27 310.154 1135.09 310.716 1136.12C311.301 1137.16 311.594 1138.33 311.594 1139.63C311.594 1140.92 311.313 1142.08 310.75 1143.11C310.188 1144.15 309.31 1144.98 308.118 1145.61C306.925 1146.22 305.395 1146.52 303.528 1146.52H298.6V1156.38H295.765ZM298.6 1144.12H303.46C305.328 1144.12 306.666 1143.72 307.476 1142.91C308.286 1142.1 308.691 1141.01 308.691 1139.63C308.691 1138.19 308.286 1137.08 307.476 1136.29C306.666 1135.51 305.328 1135.11 303.46 1135.11H298.6V1144.12ZM319.232 1156.78C317.882 1156.78 316.746 1156.54 315.823 1156.07C314.923 1155.6 314.248 1154.97 313.798 1154.18C313.371 1153.39 313.157 1152.54 313.157 1151.62C313.157 1150.47 313.45 1149.5 314.035 1148.71C314.642 1147.93 315.486 1147.33 316.566 1146.92C317.668 1146.5 318.962 1146.28 320.447 1146.28H324.97C324.97 1145.2 324.801 1144.31 324.463 1143.62C324.126 1142.9 323.642 1142.37 323.012 1142.03C322.382 1141.67 321.628 1141.49 320.751 1141.49C319.648 1141.49 318.692 1141.77 317.882 1142.33C317.072 1142.9 316.577 1143.74 316.397 1144.87H313.495C313.63 1143.65 314.035 1142.63 314.71 1141.79C315.385 1140.96 316.251 1140.33 317.308 1139.9C318.366 1139.45 319.513 1139.23 320.751 1139.23C322.326 1139.23 323.631 1139.52 324.666 1140.11C325.723 1140.67 326.511 1141.47 327.028 1142.5C327.546 1143.52 327.805 1144.71 327.805 1146.08V1156.38H325.375L325.138 1153.44H325.071C324.778 1153.96 324.441 1154.43 324.058 1154.86C323.676 1155.26 323.237 1155.61 322.742 1155.9C322.27 1156.17 321.741 1156.39 321.156 1156.54C320.571 1156.7 319.93 1156.78 319.232 1156.78ZM319.705 1154.38C320.56 1154.38 321.302 1154.23 321.932 1153.91C322.585 1153.57 323.136 1153.12 323.586 1152.56C324.036 1152 324.373 1151.37 324.598 1150.67C324.846 1149.95 324.97 1149.22 324.97 1148.48H320.683C319.581 1148.48 318.692 1148.61 318.017 1148.88C317.342 1149.13 316.858 1149.48 316.566 1149.93C316.273 1150.38 316.127 1150.9 316.127 1151.48C316.127 1152.07 316.262 1152.58 316.532 1153.03C316.825 1153.46 317.241 1153.8 317.781 1154.05C318.321 1154.27 318.962 1154.38 319.705 1154.38ZM331.167 1156.38V1139.63H333.698L333.968 1143.11H334.036C334.531 1142.08 335.048 1141.28 335.588 1140.71C336.151 1140.15 336.803 1139.77 337.546 1139.57C338.311 1139.34 339.211 1139.23 340.246 1139.23V1142.2H339.503C338.671 1142.2 337.906 1142.31 337.208 1142.54C336.533 1142.74 335.959 1143.07 335.487 1143.52C335.014 1143.97 334.643 1144.55 334.373 1145.27C334.126 1145.97 334.002 1146.81 334.002 1147.8V1156.38H331.167ZM349.223 1156.38C348.211 1156.38 347.333 1156.22 346.591 1155.9C345.848 1155.59 345.275 1155.06 344.87 1154.32C344.487 1153.55 344.296 1152.53 344.296 1151.24V1141.79H341.393V1139.63H344.296L344.633 1135.62H347.131V1139.63H352.058V1141.79H347.131V1151.24C347.131 1152.37 347.345 1153.12 347.772 1153.51C348.2 1153.89 348.953 1154.08 350.033 1154.08H351.788V1156.38H349.223ZM355.015 1156.38V1139.63H357.85V1156.38H355.015ZM356.433 1136.16C355.87 1136.16 355.398 1135.97 355.015 1135.58C354.655 1135.2 354.475 1134.73 354.475 1134.17C354.475 1133.63 354.655 1133.18 355.015 1132.82C355.398 1132.43 355.87 1132.24 356.433 1132.24C356.973 1132.24 357.434 1132.43 357.816 1132.82C358.199 1133.18 358.39 1133.63 358.39 1134.17C358.39 1134.73 358.199 1135.2 357.816 1135.58C357.434 1135.97 356.973 1136.16 356.433 1136.16ZM369.727 1156.78C368.039 1156.78 366.565 1156.42 365.305 1155.7C364.045 1154.96 363.067 1153.93 362.369 1152.63C361.672 1151.3 361.323 1149.76 361.323 1148C361.323 1146.25 361.683 1144.72 362.403 1143.41C363.145 1142.09 364.147 1141.06 365.407 1140.34C366.689 1139.6 368.129 1139.23 369.727 1139.23C371.729 1139.23 373.405 1139.75 374.755 1140.78C376.105 1141.82 376.96 1143.2 377.32 1144.93H374.418C374.193 1143.83 373.642 1142.99 372.764 1142.4C371.887 1141.82 370.863 1141.52 369.693 1141.52C368.748 1141.52 367.859 1141.76 367.027 1142.23C366.194 1142.71 365.519 1143.43 365.002 1144.39C364.484 1145.34 364.225 1146.54 364.225 1148C364.225 1149.06 364.372 1150 364.664 1150.81C364.957 1151.59 365.35 1152.26 365.845 1152.8C366.34 1153.34 366.914 1153.74 367.567 1154.01C368.242 1154.28 368.95 1154.42 369.693 1154.42C370.48 1154.42 371.2 1154.28 371.853 1154.01C372.505 1153.74 373.057 1153.36 373.507 1152.86C373.957 1152.37 374.26 1151.77 374.418 1151.08H377.32C376.96 1152.76 376.105 1154.14 374.755 1155.19C373.405 1156.25 371.729 1156.78 369.727 1156.78ZM380.83 1156.38V1139.63H383.665V1156.38H380.83ZM382.248 1136.16C381.685 1136.16 381.213 1135.97 380.83 1135.58C380.47 1135.2 380.29 1134.73 380.29 1134.17C380.29 1133.63 380.47 1133.18 380.83 1132.82C381.213 1132.43 381.685 1132.24 382.248 1132.24C382.788 1132.24 383.249 1132.43 383.631 1132.82C384.014 1133.18 384.205 1133.63 384.205 1134.17C384.205 1134.73 384.014 1135.2 383.631 1135.58C383.249 1135.97 382.788 1136.16 382.248 1136.16ZM387.813 1163.4V1139.63H390.276L390.546 1142.67H390.614C391.064 1141.97 391.604 1141.37 392.234 1140.85C392.864 1140.33 393.584 1139.94 394.394 1139.67C395.204 1139.38 396.081 1139.23 397.026 1139.23C398.669 1139.23 400.086 1139.62 401.279 1140.41C402.494 1141.18 403.428 1142.22 404.08 1143.55C404.733 1144.85 405.059 1146.34 405.059 1148C405.059 1149.67 404.733 1151.17 404.08 1152.49C403.428 1153.82 402.483 1154.87 401.245 1155.63C400.008 1156.4 398.523 1156.78 396.79 1156.78C395.305 1156.78 394.045 1156.48 393.01 1155.87C391.998 1155.24 391.21 1154.48 390.648 1153.61V1163.4H387.813ZM396.486 1154.32C397.634 1154.32 398.635 1154.06 399.49 1153.54C400.368 1153 401.031 1152.26 401.481 1151.31C401.954 1150.37 402.19 1149.26 402.19 1148C402.19 1146.74 401.954 1145.64 401.481 1144.7C401.031 1143.75 400.368 1143.02 399.49 1142.5C398.635 1141.96 397.634 1141.69 396.486 1141.69C395.339 1141.69 394.326 1141.96 393.449 1142.5C392.594 1143.02 391.919 1143.75 391.424 1144.7C390.951 1145.64 390.715 1146.74 390.715 1148C390.715 1149.26 390.951 1150.37 391.424 1151.31C391.919 1152.26 392.594 1153 393.449 1153.54C394.326 1154.06 395.339 1154.32 396.486 1154.32ZM413.72 1156.78C412.37 1156.78 411.234 1156.54 410.311 1156.07C409.411 1155.6 408.736 1154.97 408.286 1154.18C407.859 1153.39 407.645 1152.54 407.645 1151.62C407.645 1150.47 407.938 1149.5 408.523 1148.71C409.13 1147.93 409.974 1147.33 411.054 1146.92C412.156 1146.5 413.45 1146.28 414.935 1146.28H419.458C419.458 1145.2 419.289 1144.31 418.951 1143.62C418.614 1142.9 418.13 1142.37 417.5 1142.03C416.87 1141.67 416.116 1141.49 415.239 1141.49C414.136 1141.49 413.18 1141.77 412.37 1142.33C411.56 1142.9 411.065 1143.74 410.885 1144.87H407.983C408.118 1143.65 408.523 1142.63 409.198 1141.79C409.873 1140.96 410.739 1140.33 411.796 1139.9C412.854 1139.45 414.001 1139.23 415.239 1139.23C416.814 1139.23 418.119 1139.52 419.154 1140.11C420.211 1140.67 420.999 1141.47 421.516 1142.5C422.034 1143.52 422.293 1144.71 422.293 1146.08V1156.38H419.863L419.626 1153.44H419.559C419.266 1153.96 418.929 1154.43 418.546 1154.86C418.164 1155.26 417.725 1155.61 417.23 1155.9C416.758 1156.17 416.229 1156.39 415.644 1156.54C415.059 1156.7 414.418 1156.78 413.72 1156.78ZM414.193 1154.38C415.048 1154.38 415.79 1154.23 416.42 1153.91C417.073 1153.57 417.624 1153.12 418.074 1152.56C418.524 1152 418.861 1151.37 419.086 1150.67C419.334 1149.95 419.458 1149.22 419.458 1148.48H415.171C414.069 1148.48 413.18 1148.61 412.505 1148.88C411.83 1149.13 411.346 1149.48 411.054 1149.93C410.761 1150.38 410.615 1150.9 410.615 1151.48C410.615 1152.07 410.75 1152.58 411.02 1153.03C411.313 1153.46 411.729 1153.8 412.269 1154.05C412.809 1154.27 413.45 1154.38 414.193 1154.38ZM425.655 1156.38V1139.63H428.186L428.423 1142.4H428.49C429.075 1141.43 429.851 1140.67 430.819 1140.11C431.786 1139.52 432.923 1139.23 434.228 1139.23C435.533 1139.23 436.669 1139.5 437.636 1140.04C438.604 1140.56 439.346 1141.37 439.864 1142.47C440.404 1143.55 440.674 1144.92 440.674 1146.59V1156.38H437.839V1146.89C437.839 1145.16 437.468 1143.85 436.725 1142.98C435.983 1142.1 434.914 1141.66 433.519 1141.66C432.551 1141.66 431.685 1141.9 430.92 1142.37C430.178 1142.84 429.581 1143.53 429.131 1144.43C428.704 1145.3 428.49 1146.4 428.49 1147.7V1156.38H425.655ZM450.699 1156.38C449.686 1156.38 448.809 1156.22 448.066 1155.9C447.324 1155.59 446.75 1155.06 446.345 1154.32C445.963 1153.55 445.771 1152.53 445.771 1151.24V1141.79H442.869V1139.63H445.771L446.109 1135.62H448.606V1139.63H453.534V1141.79H448.606V1151.24C448.606 1152.37 448.82 1153.12 449.248 1153.51C449.675 1153.89 450.429 1154.08 451.509 1154.08H453.264V1156.38H450.699ZM462.498 1156.78C461.171 1156.78 459.978 1156.55 458.921 1156.1C457.863 1155.63 457.008 1154.98 456.356 1154.15C455.726 1153.29 455.332 1152.29 455.174 1151.14H458.077C458.212 1151.71 458.448 1152.25 458.786 1152.76C459.123 1153.28 459.596 1153.71 460.203 1154.05C460.833 1154.36 461.609 1154.52 462.532 1154.52C463.342 1154.52 463.994 1154.41 464.489 1154.18C465.007 1153.93 465.389 1153.62 465.637 1153.24C465.907 1152.83 466.042 1152.39 466.042 1151.92C466.042 1151.29 465.873 1150.81 465.536 1150.47C465.198 1150.11 464.714 1149.82 464.084 1149.59C463.454 1149.34 462.701 1149.11 461.823 1148.88C461.148 1148.7 460.462 1148.5 459.764 1148.27C459.067 1148.05 458.426 1147.77 457.841 1147.43C457.278 1147.07 456.817 1146.63 456.457 1146.11C456.119 1145.57 455.951 1144.9 455.951 1144.09C455.951 1143.17 456.198 1142.35 456.693 1141.63C457.188 1140.88 457.886 1140.3 458.786 1139.87C459.708 1139.44 460.788 1139.23 462.026 1139.23C463.803 1139.23 465.254 1139.67 466.379 1140.55C467.527 1141.42 468.191 1142.69 468.371 1144.36H465.569C465.479 1143.46 465.119 1142.76 464.489 1142.27C463.882 1141.75 463.049 1141.49 461.992 1141.49C460.957 1141.49 460.158 1141.72 459.596 1142.17C459.056 1142.62 458.786 1143.18 458.786 1143.85C458.786 1144.3 458.932 1144.69 459.224 1145C459.517 1145.29 459.956 1145.55 460.541 1145.78C461.148 1145.98 461.891 1146.2 462.768 1146.45C463.803 1146.74 464.782 1147.07 465.704 1147.43C466.649 1147.79 467.414 1148.29 467.999 1148.92C468.607 1149.52 468.911 1150.39 468.911 1151.51C468.933 1152.55 468.674 1153.46 468.134 1154.25C467.617 1155.04 466.874 1155.65 465.907 1156.1C464.962 1156.55 463.826 1156.78 462.498 1156.78Z" fill="#48BA86"/>
<path d="M315.7 1079V1121H310.36V1083.14H310L288.4 1092.2V1086.98L307.96 1079H315.7ZM357.188 1121.6H352.208C343.248 1121.6 336.788 1120.1 332.828 1117.1C328.908 1114.06 326.948 1109.3 326.948 1102.82V1097.18C326.948 1090.7 328.908 1085.96 332.828 1082.96C336.788 1079.92 343.248 1078.4 352.208 1078.4H357.188C366.148 1078.4 372.588 1079.92 376.508 1082.96C380.468 1085.96 382.448 1090.7 382.448 1097.18V1102.82C382.448 1109.3 380.468 1114.06 376.508 1117.1C372.588 1120.1 366.148 1121.6 357.188 1121.6ZM354.668 1117.22C359.268 1117.22 363.048 1116.9 366.008 1116.26C368.968 1115.62 371.248 1114.6 372.848 1113.2C374.488 1111.8 375.608 1110.18 376.208 1108.34C376.808 1106.5 377.108 1104.18 377.108 1101.38V1098.62C377.108 1095.82 376.808 1093.5 376.208 1091.66C375.608 1089.82 374.488 1088.2 372.848 1086.8C371.248 1085.4 368.968 1084.4 366.008 1083.8C363.048 1083.16 359.268 1082.84 354.668 1082.84C350.068 1082.84 346.288 1083.16 343.328 1083.8C340.408 1084.4 338.148 1085.4 336.548 1086.8C334.948 1088.2 333.848 1089.82 333.248 1091.66C332.648 1093.5 332.348 1095.82 332.348 1098.62V1101.38C332.348 1103.62 332.528 1105.54 332.888 1107.14C333.248 1108.7 333.908 1110.16 334.868 1111.52C335.828 1112.84 337.128 1113.9 338.768 1114.7C340.448 1115.5 342.588 1116.12 345.188 1116.56C347.828 1117 350.988 1117.22 354.668 1117.22ZM421.648 1121.6H416.668C407.708 1121.6 401.248 1120.1 397.288 1117.1C393.368 1114.06 391.408 1109.3 391.408 1102.82V1097.18C391.408 1090.7 393.368 1085.96 397.288 1082.96C401.248 1079.92 407.708 1078.4 416.668 1078.4H421.648C430.608 1078.4 437.048 1079.92 440.968 1082.96C444.928 1085.96 446.908 1090.7 446.908 1097.18V1102.82C446.908 1109.3 444.928 1114.06 440.968 1117.1C437.048 1120.1 430.608 1121.6 421.648 1121.6ZM419.128 1117.22C423.728 1117.22 427.508 1116.9 430.468 1116.26C433.428 1115.62 435.708 1114.6 437.308 1113.2C438.948 1111.8 440.068 1110.18 440.668 1108.34C441.268 1106.5 441.568 1104.18 441.568 1101.38V1098.62C441.568 1095.82 441.268 1093.5 440.668 1091.66C440.068 1089.82 438.948 1088.2 437.308 1086.8C435.708 1085.4 433.428 1084.4 430.468 1083.8C427.508 1083.16 423.728 1082.84 419.128 1082.84C414.528 1082.84 410.748 1083.16 407.788 1083.8C404.868 1084.4 402.608 1085.4 401.008 1086.8C399.408 1088.2 398.308 1089.82 397.708 1091.66C397.108 1093.5 396.808 1095.82 396.808 1098.62V1101.38C396.808 1103.62 396.988 1105.54 397.348 1107.14C397.708 1108.7 398.368 1110.16 399.328 1111.52C400.288 1112.84 401.588 1113.9 403.228 1114.7C404.908 1115.5 407.048 1116.12 409.648 1116.56C412.288 1117 415.448 1117.22 419.128 1117.22ZM486.108 1121.6H481.128C472.168 1121.6 465.708 1120.1 461.748 1117.1C457.828 1114.06 455.868 1109.3 455.868 1102.82V1097.18C455.868 1090.7 457.828 1085.96 461.748 1082.96C465.708 1079.92 472.168 1078.4 481.128 1078.4H486.108C495.068 1078.4 501.508 1079.92 505.428 1082.96C509.388 1085.96 511.368 1090.7 511.368 1097.18V1102.82C511.368 1109.3 509.388 1114.06 505.428 1117.1C501.508 1120.1 495.068 1121.6 486.108 1121.6ZM483.588 1117.22C488.188 1117.22 491.968 1116.9 494.928 1116.26C497.888 1115.62 500.168 1114.6 501.768 1113.2C503.408 1111.8 504.528 1110.18 505.128 1108.34C505.728 1106.5 506.028 1104.18 506.028 1101.38V1098.62C506.028 1095.82 505.728 1093.5 505.128 1091.66C504.528 1089.82 503.408 1088.2 501.768 1086.8C500.168 1085.4 497.888 1084.4 494.928 1083.8C491.968 1083.16 488.188 1082.84 483.588 1082.84C478.988 1082.84 475.208 1083.16 472.248 1083.8C469.328 1084.4 467.068 1085.4 465.468 1086.8C463.868 1088.2 462.768 1089.82 462.168 1091.66C461.568 1093.5 461.268 1095.82 461.268 1098.62V1101.38C461.268 1103.62 461.448 1105.54 461.808 1107.14C462.168 1108.7 462.828 1110.16 463.788 1111.52C464.748 1112.84 466.048 1113.9 467.688 1114.7C469.368 1115.5 471.508 1116.12 474.108 1116.56C476.748 1117 479.908 1117.22 483.588 1117.22ZM532.149 1103.12H519.909V1099.34H532.149V1086.56H535.929V1099.34H548.109V1103.12H535.929V1115.96H532.149V1103.12Z" fill="#48BA86"/>
<path d="M378.736 1431.63V1436H328.435V1429.38C328.435 1424.36 329.549 1420.75 331.776 1418.56C334.044 1416.34 338.074 1414.96 343.865 1414.43L361.969 1412.55C366.383 1412.06 369.36 1411.34 370.899 1410.36C372.479 1409.39 373.268 1407.69 373.268 1405.26V1404.65C373.268 1402.1 371.851 1400.26 369.016 1399.12C366.181 1397.95 361.483 1397.36 354.922 1397.36C350.426 1397.36 346.842 1397.69 344.169 1398.33C341.496 1398.94 339.552 1399.81 338.337 1400.95C337.163 1402.08 336.292 1403.64 335.725 1405.62H330.075C330.602 1403.07 331.513 1400.95 332.809 1399.25C334.105 1397.55 335.806 1396.25 337.912 1395.36C340.018 1394.43 342.306 1393.78 344.777 1393.41C347.288 1393.05 350.264 1392.87 353.707 1392.87H355.712C363.326 1392.87 369.056 1393.74 372.904 1395.48C376.751 1397.18 378.675 1400.08 378.675 1404.17V1405.5C378.675 1408.91 377.622 1411.52 375.516 1413.34C373.451 1415.12 369.603 1416.3 363.974 1416.86L345.323 1418.81C341.03 1419.25 338.033 1420.1 336.332 1421.36C334.672 1422.61 333.842 1424.82 333.842 1427.98V1431.63H378.736ZM415.774 1436.61H412.615C405.203 1436.61 399.635 1435.72 395.909 1433.93C392.223 1432.15 389.996 1429.3 389.226 1425.37H394.876C395.443 1427.76 397.225 1429.48 400.222 1430.53C403.219 1431.59 407.836 1432.11 414.073 1432.11C420.998 1432.11 425.899 1431.42 428.774 1430.05C431.69 1428.63 433.148 1426.24 433.148 1422.88V1421.6C433.148 1418.08 431.792 1415.63 429.078 1414.25C426.365 1412.87 421.484 1412.19 414.437 1412.19C409.01 1412.19 404.798 1412.59 401.801 1413.4C398.804 1414.21 396.617 1415.51 395.24 1417.29H390.137L392.871 1393.47H435.335V1397.85H397.792L395.909 1412.43H396.212C398.602 1409.31 405.224 1407.75 416.078 1407.75C424.178 1407.75 429.949 1408.8 433.391 1410.91C436.834 1413.02 438.555 1416.54 438.555 1421.48V1422.88C438.555 1427.66 436.753 1431.14 433.148 1433.33C429.544 1435.51 423.752 1436.61 415.774 1436.61ZM459.008 1417.9H446.615V1414.07H459.008V1401.13H462.836V1414.07H475.168V1417.9H462.836V1430.9H459.008V1417.9Z" fill="#48BA86"/>
<path d="M338.685 1473.34H337.943C329.28 1473.34 324.353 1471.32 323.16 1467.3H326.468C327.773 1469.68 331.8 1470.87 338.55 1470.87C342.488 1470.87 345.401 1470.52 347.291 1469.83C349.204 1469.13 350.16 1467.91 350.16 1466.18V1465.88C350.16 1464.57 349.688 1463.68 348.743 1463.21C347.798 1462.72 346.031 1462.41 343.444 1462.3L333.555 1461.96C330.248 1461.87 327.908 1461.39 326.535 1460.51C325.185 1459.61 324.51 1458.16 324.51 1456.16V1455.99C324.51 1453.47 325.601 1451.68 327.784 1450.62C329.989 1449.57 333.24 1449.04 337.538 1449.04H338.347C340.148 1449.04 341.756 1449.13 343.174 1449.31C344.591 1449.49 345.953 1449.79 347.258 1450.22C348.563 1450.65 349.654 1451.28 350.531 1452.11C351.409 1452.94 352.028 1453.95 352.388 1455.15H349.148C348.563 1453.77 347.314 1452.83 345.401 1452.31C343.489 1451.77 340.991 1451.5 337.909 1451.5C334.264 1451.5 331.643 1451.84 330.045 1452.51C328.448 1453.19 327.649 1454.27 327.649 1455.75V1455.82C327.649 1457.13 328.121 1458.03 329.066 1458.52C330.011 1458.99 331.778 1459.29 334.365 1459.4L344.254 1459.77C347.606 1459.9 349.946 1460.4 351.274 1461.25C352.624 1462.11 353.299 1463.54 353.299 1465.54V1465.81C353.299 1467.3 352.95 1468.54 352.253 1469.56C351.578 1470.55 350.554 1471.31 349.181 1471.85C347.831 1472.39 346.313 1472.77 344.625 1473C342.96 1473.23 340.98 1473.34 338.685 1473.34ZM358.112 1478.74V1455.11H361.015V1458.52H361.15C362.342 1456.02 365.312 1454.77 370.06 1454.77H371.342C378.227 1454.77 381.67 1457.56 381.67 1463.14V1464.9C381.67 1467.82 380.792 1469.96 379.037 1471.31C377.305 1472.66 374.74 1473.34 371.342 1473.34H370.06C365.312 1473.34 362.342 1472.09 361.15 1469.59H361.015V1478.74H358.112ZM369.857 1457.17C366.73 1457.17 364.469 1457.6 363.074 1458.45C361.701 1459.31 361.015 1460.85 361.015 1463.08V1464.56C361.015 1466.99 361.701 1468.67 363.074 1469.59C364.469 1470.49 366.73 1470.94 369.857 1470.94C373.007 1470.94 375.28 1470.49 376.675 1469.59C378.07 1468.67 378.767 1466.99 378.767 1464.56V1463.55C378.767 1461.12 378.07 1459.45 376.675 1458.55C375.28 1457.63 373.007 1457.17 369.857 1457.17ZM398.143 1473.34H396.152C392.575 1473.34 389.875 1472.67 388.052 1471.35C386.252 1470 385.352 1467.87 385.352 1464.97V1463.21C385.352 1460.29 386.252 1458.15 388.052 1456.8C389.852 1455.45 392.552 1454.77 396.152 1454.77H398.143C401.743 1454.77 404.432 1455.45 406.21 1456.8C408.01 1458.15 408.91 1460.29 408.91 1463.21V1464.97C408.91 1467.87 408.01 1470 406.21 1471.35C404.432 1472.67 401.743 1473.34 398.143 1473.34ZM397.165 1470.94C400.292 1470.94 402.542 1470.49 403.915 1469.59C405.31 1468.67 406.007 1466.99 406.007 1464.56V1463.55C406.007 1461.12 405.31 1459.45 403.915 1458.55C402.542 1457.63 400.292 1457.17 397.165 1457.17C393.992 1457.17 391.708 1457.63 390.313 1458.55C388.941 1459.45 388.255 1461.12 388.255 1463.55V1464.56C388.255 1466.99 388.941 1468.67 390.313 1469.59C391.708 1470.49 393.992 1470.94 397.165 1470.94ZM433.707 1461.83V1473H430.804V1462.33C430.804 1461.3 430.624 1460.42 430.264 1459.7C429.904 1458.98 429.387 1458.45 428.712 1458.12C428.037 1457.76 427.339 1457.51 426.619 1457.37C425.922 1457.24 425.112 1457.17 424.189 1457.17C419.014 1457.17 416.427 1459.21 416.427 1463.28V1473H413.491V1455.11H416.427V1458.52H416.562C417.822 1456.02 420.589 1454.77 424.864 1454.77C430.759 1454.77 433.707 1457.13 433.707 1461.83ZM449.405 1473.34H448.933C445.67 1473.34 443.105 1472.98 441.238 1472.26C439.393 1471.54 438.279 1470.28 437.897 1468.48H441.002C441.632 1470.25 444.377 1471.14 449.237 1471.14C452.094 1471.14 454.142 1470.91 455.379 1470.43C456.639 1469.96 457.28 1469.1 457.303 1467.84V1467.7C457.303 1466.73 456.92 1466.08 456.155 1465.74C455.39 1465.41 453.995 1465.2 451.97 1465.14L445.558 1464.9C443.038 1464.81 441.238 1464.42 440.158 1463.72C439.1 1463.02 438.572 1461.92 438.572 1460.41V1459.97C438.572 1458.08 439.415 1456.74 441.103 1455.96C442.813 1455.17 445.288 1454.77 448.528 1454.77H448.933C452.083 1454.77 454.513 1455.16 456.223 1455.92C457.933 1456.66 459.024 1457.89 459.497 1459.6H456.392C456.032 1458.68 455.244 1458.01 454.029 1457.61C452.814 1457.18 451.025 1456.97 448.663 1456.97C446.075 1456.97 444.23 1457.18 443.128 1457.61C442.048 1458.04 441.497 1458.82 441.474 1459.97V1460.07C441.474 1461 441.857 1461.64 442.622 1462C443.409 1462.33 444.815 1462.55 446.84 1462.64L453.253 1462.87C455.773 1462.96 457.562 1463.36 458.619 1464.06C459.677 1464.75 460.205 1465.86 460.205 1467.36V1467.73C460.205 1469.83 459.283 1471.29 457.438 1472.12C455.593 1472.93 452.915 1473.34 449.405 1473.34ZM476.532 1473.34H474.54C470.963 1473.34 468.263 1472.67 466.44 1471.35C464.64 1470 463.74 1467.87 463.74 1464.97V1463.21C463.74 1460.29 464.64 1458.15 466.44 1456.8C468.24 1455.45 470.94 1454.77 474.54 1454.77H476.532C480.132 1454.77 482.82 1455.45 484.598 1456.8C486.398 1458.15 487.298 1460.29 487.298 1463.21V1464.97C487.298 1467.87 486.398 1470 484.598 1471.35C482.82 1472.67 480.132 1473.34 476.532 1473.34ZM475.553 1470.94C478.68 1470.94 480.93 1470.49 482.303 1469.59C483.698 1468.67 484.395 1466.99 484.395 1464.56V1463.55C484.395 1461.12 483.698 1459.45 482.303 1458.55C480.93 1457.63 478.68 1457.17 475.553 1457.17C472.38 1457.17 470.097 1457.63 468.702 1458.55C467.329 1459.45 466.643 1461.12 466.643 1463.55V1464.56C466.643 1466.99 467.329 1468.67 468.702 1469.59C470.097 1470.49 472.38 1470.94 475.553 1470.94ZM502.881 1455.11H505.075V1457.51H502.341C501.261 1457.51 500.305 1457.59 499.473 1457.74C498.663 1457.88 497.886 1458.14 497.144 1458.52C496.401 1458.88 495.828 1459.43 495.423 1460.17C495.018 1460.92 494.815 1461.83 494.815 1462.91V1473H491.879V1455.11H494.815V1458.49H494.95C495.918 1456.24 498.561 1455.11 502.881 1455.11ZM519.092 1473.34H518.62C515.357 1473.34 512.792 1472.98 510.925 1472.26C509.08 1471.54 507.966 1470.28 507.584 1468.48H510.689C511.319 1470.25 514.064 1471.14 518.924 1471.14C521.781 1471.14 523.829 1470.91 525.066 1470.43C526.326 1469.96 526.967 1469.1 526.99 1467.84V1467.7C526.99 1466.73 526.607 1466.08 525.842 1465.74C525.077 1465.41 523.682 1465.2 521.657 1465.14L515.245 1464.9C512.725 1464.81 510.925 1464.42 509.845 1463.72C508.787 1463.02 508.259 1461.92 508.259 1460.41V1459.97C508.259 1458.08 509.102 1456.74 510.79 1455.96C512.5 1455.17 514.975 1454.77 518.215 1454.77H518.62C521.77 1454.77 524.2 1455.16 525.91 1455.92C527.62 1456.66 528.711 1457.89 529.184 1459.6H526.079C525.719 1458.68 524.931 1458.01 523.716 1457.61C522.501 1457.18 520.712 1456.97 518.35 1456.97C515.762 1456.97 513.917 1457.18 512.815 1457.61C511.735 1458.04 511.184 1458.82 511.161 1459.97V1460.07C511.161 1461 511.544 1461.64 512.309 1462C513.096 1462.33 514.502 1462.55 516.527 1462.64L522.94 1462.87C525.46 1462.96 527.249 1463.36 528.306 1464.06C529.364 1464.75 529.892 1465.86 529.892 1467.36V1467.73C529.892 1469.83 528.97 1471.29 527.125 1472.12C525.28 1472.93 522.602 1473.34 519.092 1473.34Z" fill="#48BA86"/>
<path d="M320.548 813.225V822H317.443V798.375H336.613C339.965 798.375 342.384 798.949 343.869 800.096C345.354 801.221 346.096 803.044 346.096 805.564V806.205C346.096 808.635 345.354 810.412 343.869 811.537C342.406 812.662 339.988 813.225 336.613 813.225H320.548ZM335.735 800.974H320.548V810.626H335.735C338.503 810.626 340.404 810.289 341.439 809.614C342.474 808.916 342.991 807.724 342.991 806.036V805.564C342.991 803.854 342.463 802.661 341.405 801.986C340.37 801.311 338.48 800.974 335.735 800.974ZM361.323 804.112H363.517V806.509H360.783C359.703 806.509 358.747 806.587 357.914 806.745C357.104 806.88 356.328 807.139 355.586 807.521C354.843 807.881 354.269 808.432 353.864 809.175C353.459 809.917 353.257 810.829 353.257 811.909V822H350.321V804.112H353.257V807.487H353.392C354.359 805.237 357.003 804.112 361.323 804.112ZM378.619 822.338H376.628C373.05 822.338 370.35 821.674 368.528 820.346C366.728 818.996 365.828 816.87 365.828 813.967V812.212C365.828 809.287 366.728 807.15 368.528 805.8C370.328 804.45 373.028 803.775 376.628 803.775H378.619C382.219 803.775 384.908 804.45 386.685 805.8C388.485 807.15 389.385 809.287 389.385 812.212V813.967C389.385 816.87 388.485 818.996 386.685 820.346C384.908 821.674 382.219 822.338 378.619 822.338ZM377.64 819.941C380.768 819.941 383.018 819.491 384.39 818.591C385.785 817.669 386.483 815.992 386.483 813.562V812.55C386.483 810.12 385.785 808.455 384.39 807.555C383.018 806.632 380.768 806.171 377.64 806.171C374.468 806.171 372.184 806.632 370.789 807.555C369.416 808.455 368.73 810.12 368.73 812.55V813.562C368.73 815.992 369.416 817.669 370.789 818.591C372.184 819.491 374.468 819.941 377.64 819.941ZM393.966 798.375H396.902V801.007H393.966V798.375ZM393.966 804.112H396.902V818.794C396.902 820.976 396.666 822.641 396.194 823.789C395.721 824.959 394.776 826.275 393.359 827.738H390.119C391.671 826.185 392.695 824.858 393.19 823.755C393.707 822.653 393.966 821.201 393.966 819.401V804.112ZM420.803 817.039H423.807C423.289 818.884 422.175 820.234 420.465 821.089C418.755 821.921 416.393 822.338 413.378 822.338H412.23C408.63 822.338 405.93 821.674 404.13 820.346C402.353 818.996 401.464 816.87 401.464 813.967V812.212C401.464 809.287 402.353 807.15 404.13 805.8C405.93 804.45 408.63 803.775 412.23 803.775H413.31C416.91 803.775 419.61 804.45 421.41 805.8C423.21 807.15 424.11 809.287 424.11 812.212V813.664H404.367V813.697C404.367 816.127 405.03 817.804 406.358 818.726C407.685 819.626 409.834 820.076 412.804 820.076C415.144 820.076 416.922 819.862 418.137 819.435C419.374 819.007 420.263 818.209 420.803 817.039ZM419.115 807.251C417.743 806.351 415.639 805.901 412.804 805.901C409.969 805.901 407.888 806.317 406.56 807.15C405.233 807.982 404.502 809.479 404.367 811.639H421.208V811.504C421.208 809.546 420.51 808.129 419.115 807.251ZM439.82 822.338H438.47C434.87 822.338 432.17 821.674 430.37 820.346C428.592 818.996 427.703 816.87 427.703 813.967V812.212C427.703 809.287 428.592 807.15 430.37 805.8C432.17 804.45 434.87 803.775 438.47 803.775H439.82C445.85 803.775 449.326 805.62 450.248 809.31H447.245C446.727 808.117 445.816 807.296 444.511 806.846C443.228 806.396 441.473 806.171 439.246 806.171C436.208 806.171 434.003 806.632 432.631 807.555C431.281 808.455 430.606 810.12 430.606 812.55V813.562C430.606 815.992 431.281 817.669 432.631 818.591C434.003 819.491 436.208 819.941 439.246 819.941C441.473 819.941 443.228 819.716 444.511 819.266C445.816 818.816 446.727 817.995 447.245 816.802H450.248C449.326 820.492 445.85 822.338 439.82 822.338ZM457.97 806.374H452.334V804.112H457.97V798.375H460.873V804.112H468.061V806.374H460.873V815.25C460.873 817.117 461.278 818.332 462.088 818.895C462.92 819.457 464.371 819.739 466.441 819.739H468.061V822H465.733C462.853 822 460.839 821.539 459.691 820.616C458.544 819.671 457.97 817.95 457.97 815.452V806.374ZM482.924 822.338H482.451C479.189 822.338 476.624 821.977 474.756 821.257C472.911 820.537 471.798 819.277 471.415 817.477H474.52C475.15 819.255 477.895 820.144 482.755 820.144C485.613 820.144 487.66 819.907 488.898 819.435C490.158 818.962 490.799 818.096 490.821 816.836V816.701C490.821 815.734 490.439 815.081 489.674 814.744C488.909 814.406 487.514 814.204 485.489 814.136L479.076 813.9C476.556 813.81 474.756 813.416 473.676 812.719C472.619 812.021 472.09 810.919 472.09 809.411V808.972C472.09 807.082 472.934 805.744 474.621 804.956C476.331 804.169 478.806 803.775 482.046 803.775H482.451C485.601 803.775 488.031 804.157 489.741 804.922C491.451 805.665 492.543 806.891 493.015 808.601H489.91C489.55 807.679 488.763 807.015 487.548 806.61C486.333 806.182 484.544 805.969 482.181 805.969C479.594 805.969 477.749 806.182 476.646 806.61C475.566 807.037 475.015 807.825 474.993 808.972V809.074C474.993 809.996 475.375 810.637 476.14 810.997C476.928 811.335 478.334 811.549 480.359 811.639L486.771 811.875C489.291 811.965 491.08 812.359 492.138 813.056C493.195 813.754 493.724 814.856 493.724 816.364V816.735C493.724 818.827 492.801 820.29 490.956 821.122C489.111 821.933 486.434 822.338 482.924 822.338Z" fill="#48BA86"/>
<defs>
<filter id="filter0_dddddd_1_3" x="135.75" y="0.75" width="717.5" height="896.5" filterUnits="userSpaceOnUse" color-interpolation-filters="sRGB">
<feFlood flood-opacity="0" result="BackgroundImageFix"/>
<feColorMatrix in="SourceAlpha" type="matrix" values="0 0 0 0 0 0 0 0 0 0 0 0 0 0 0 0 0 0 127 0" result="hardAlpha"/>
<feOffset/>
<feGaussianBlur stdDeviation="5.8892"/>
<feColorMatrix type="matrix" values="0 0 0 0 0.282353 0 0 0 0 0.729412 0 0 0 0 0.52549 0 0 0 1 0"/>
<feBlend mode="normal" in2="BackgroundImageFix" result="effect1_dropShadow_1_3"/>
<feColorMatrix in="SourceAlpha" type="matrix" values="0 0 0 0 0 0 0 0 0 0 0 0 0 0 0 0 0 0 127 0" result="hardAlpha"/>
<feOffset/>
<feGaussianBlur stdDeviation="11.7784"/>
<feColorMatrix type="matrix" values="0 0 0 0 0.282353 0 0 0 0 0.729412 0 0 0 0 0.52549 0 0 0 1 0"/>
<feBlend mode="normal" in2="effect1_dropShadow_1_3" result="effect2_dropShadow_1_3"/>
<feColorMatrix in="SourceAlpha" type="matrix" values="0 0 0 0 0 0 0 0 0 0 0 0 0 0 0 0 0 0 127 0" result="hardAlpha"/>
<feOffset/>
<feGaussianBlur stdDeviation="41.2244"/>
<feColorMatrix type="matrix" values="0 0 0 0 0.282353 0 0 0 0 0.729412 0 0 0 0 0.52549 0 0 0 1 0"/>
<feBlend mode="normal" in2="effect2_dropShadow_1_3" result="effect3_dropShadow_1_3"/>
<feColorMatrix in="SourceAlpha" type="matrix" values="0 0 0 0 0 0 0 0 0 0 0 0 0 0 0 0 0 0 127 0" result="hardAlpha"/>
<feOffset/>
<feGaussianBlur stdDeviation="82.4488"/>
<feColorMatrix type="matrix" values="0 0 0 0 0.282353 0 0 0 0 0.729412 0 0 0 0 0.52549 0 0 0 1 0"/>
<feBlend mode="normal" in2="effect3_dropShadow_1_3" result="effect4_dropShadow_1_3"/>
<feColorMatrix in="SourceAlpha" type="matrix" values="0 0 0 0 0 0 0 0 0 0 0 0 0 0 0 0 0 0 127 0" result="hardAlpha"/>
<feOffset/>
<feGaussianBlur stdDeviation="140.625"/>
<feColorMatrix type="matrix" values="0 0 0 0 0.282353 0 0 0 0 0.729412 0 0 0 0 0.52549 0 0 0 1 0"/>
<feBlend mode="normal" in2="effect4_dropShadow_1_3" result="effect5_dropShadow_1_3"/>
<feColorMatrix in="SourceAlpha" type="matrix" values="0 0 0 0 0 0 0 0 0 0 0 0 0 0 0 0 0 0 127 0" result="hardAlpha"/>
<feOffset/>
<feGaussianBlur stdDeviation="140.625"/>
<feColorMatrix type="matrix" values="0 0 0 0 0.282353 0 0 0 0 0.729412 0 0 0 0 0.52549 0 0 0 1 0"/>
<feBlend mode="normal" in2="effect5_dropShadow_1_3" result="effect6_dropShadow_1_3"/>
<feBlend mode="normal" in="SourceGraphic" in2="effect6_dropShadow_1_3" result="shape"/>
</filter>
<filter id="filter1_dddddd_1_3" x="0.745117" y="334.875" width="717.505" height="892.427" filterUnits="userSpaceOnUse" color-interpolation-filters="sRGB">
<feFlood flood-opacity="0" result="BackgroundImageFix"/>
<feColorMatrix in="SourceAlpha" type="matrix" values="0 0 0 0 0 0 0 0 0 0 0 0 0 0 0 0 0 0 127 0" result="hardAlpha"/>
<feOffset/>
<feGaussianBlur stdDeviation="5.8892"/>
<feColorMatrix type="matrix" values="0 0 0 0 0.282353 0 0 0 0 0.729412 0 0 0 0 0.52549 0 0 0 1 0"/>
<feBlend mode="normal" in2="BackgroundImageFix" result="effect1_dropShadow_1_3"/>
<feColorMatrix in="SourceAlpha" type="matrix" values="0 0 0 0 0 0 0 0 0 0 0 0 0 0 0 0 0 0 127 0" result="hardAlpha"/>
<feOffset/>
<feGaussianBlur stdDeviation="11.7784"/>
<feColorMatrix type="matrix" values="0 0 0 0 0.282353 0 0 0 0 0.729412 0 0 0 0 0.52549 0 0 0 1 0"/>
<feBlend mode="normal" in2="effect1_dropShadow_1_3" result="effect2_dropShadow_1_3"/>
<feColorMatrix in="SourceAlpha" type="matrix" values="0 0 0 0 0 0 0 0 0 0 0 0 0 0 0 0 0 0 127 0" result="hardAlpha"/>
<feOffset/>
<feGaussianBlur stdDeviation="41.2244"/>
<feColorMatrix type="matrix" values="0 0 0 0 0.282353 0 0 0 0 0.729412 0 0 0 0 0.52549 0 0 0 1 0"/>
<feBlend mode="normal" in2="effect2_dropShadow_1_3" result="effect3_dropShadow_1_3"/>
<feColorMatrix in="SourceAlpha" type="matrix" values="0 0 0 0 0 0 0 0 0 0 0 0 0 0 0 0 0 0 127 0" result="hardAlpha"/>
<feOffset/>
<feGaussianBlur stdDeviation="82.4488"/>
<feColorMatrix type="matrix" values="0 0 0 0 0.282353 0 0 0 0 0.729412 0 0 0 0 0.52549 0 0 0 1 0"/>
<feBlend mode="normal" in2="effect3_dropShadow_1_3" result="effect4_dropShadow_1_3"/>
<feColorMatrix in="SourceAlpha" type="matrix" values="0 0 0 0 0 0 0 0 0 0 0 0 0 0 0 0 0 0 127 0" result="hardAlpha"/>
<feOffset/>
<feGaussianBlur stdDeviation="140.625"/>
<feColorMatrix type="matrix" values="0 0 0 0 0.282353 0 0 0 0 0.729412 0 0 0 0 0.52549 0 0 0 1 0"/>
<feBlend mode="normal" in2="effect4_dropShadow_1_3" result="effect5_dropShadow_1_3"/>
<feColorMatrix in="SourceAlpha" type="matrix" values="0 0 0 0 0 0 0 0 0 0 0 0 0 0 0 0 0 0 127 0" result="hardAlpha"/>
<feOffset/>
<feGaussianBlur stdDeviation="140.625"/>
<feColorMatrix type="matrix" values="0 0 0 0 0.282353 0 0 0 0 0.729412 0 0 0 0 0.52549 0 0 0 1 0"/>
<feBlend mode="normal" in2="effect5_dropShadow_1_3" result="effect6_dropShadow_1_3"/>
<feBlend mode="normal" in="SourceGraphic" in2="effect6_dropShadow_1_3" result="shape"/>
</filter>
<filter id="filter2_dddddd_1_3" x="135.745" y="664.5" width="717.505" height="892.427" filterUnits="userSpaceOnUse" color-interpolation-filters="sRGB">
<feFlood flood-opacity="0" result="BackgroundImageFix"/>
<feColorMatrix in="SourceAlpha" type="matrix" values="0 0 0 0 0 0 0 0 0 0 0 0 0 0 0 0 0 0 127 0" result="hardAlpha"/>
<feOffset/>
<feGaussianBlur stdDeviation="5.8892"/>
<feColorMatrix type="matrix" values="0 0 0 0 0.282353 0 0 0 0 0.729412 0 0 0 0 0.52549 0 0 0 1 0"/>
<feBlend mode="normal" in2="BackgroundImageFix" result="effect1_dropShadow_1_3"/>
<feColorMatrix in="SourceAlpha" type="matrix" values="0 0 0 0 0 0 0 0 0 0 0 0 0 0 0 0 0 0 127 0" result="hardAlpha"/>
<feOffset/>
<feGaussianBlur stdDeviation="11.7784"/>
<feColorMatrix type="matrix" values="0 0 0 0 0.282353 0 0 0 0 0.729412 0 0 0 0 0.52549 0 0 0 1 0"/>
<feBlend mode="normal" in2="effect1_dropShadow_1_3" result="effect2_dropShadow_1_3"/>
<feColorMatrix in="SourceAlpha" type="matrix" values="0 0 0 0 0 0 0 0 0 0 0 0 0 0 0 0 0 0 127 0" result="hardAlpha"/>
<feOffset/>
<feGaussianBlur stdDeviation="41.2244"/>
<feColorMatrix type="matrix" values="0 0 0 0 0.282353 0 0 0 0 0.729412 0 0 0 0 0.52549 0 0 0 1 0"/>
<feBlend mode="normal" in2="effect2_dropShadow_1_3" result="effect3_dropShadow_1_3"/>
<feColorMatrix in="SourceAlpha" type="matrix" values="0 0 0 0 0 0 0 0 0 0 0 0 0 0 0 0 0 0 127 0" result="hardAlpha"/>
<feOffset/>
<feGaussianBlur stdDeviation="82.4488"/>
<feColorMatrix type="matrix" values="0 0 0 0 0.282353 0 0 0 0 0.729412 0 0 0 0 0.52549 0 0 0 1 0"/>
<feBlend mode="normal" in2="effect3_dropShadow_1_3" result="effect4_dropShadow_1_3"/>
<feColorMatrix in="SourceAlpha" type="matrix" values="0 0 0 0 0 0 0 0 0 0 0 0 0 0 0 0 0 0 127 0" result="hardAlpha"/>
<feOffset/>
<feGaussianBlur stdDeviation="140.625"/>
<feColorMatrix type="matrix" values="0 0 0 0 0.282353 0 0 0 0 0.729412 0 0 0 0 0.52549 0 0 0 1 0"/>
<feBlend mode="normal" in2="effect4_dropShadow_1_3" result="effect5_dropShadow_1_3"/>
<feColorMatrix in="SourceAlpha" type="matrix" values="0 0 0 0 0 0 0 0 0 0 0 0 0 0 0 0 0 0 127 0" result="hardAlpha"/>
<feOffset/>
<feGaussianBlur stdDeviation="140.625"/>
<feColorMatrix type="matrix" values="0 0 0 0 0.282353 0 0 0 0 0.729412 0 0 0 0 0.52549 0 0 0 1 0"/>
<feBlend mode="normal" in2="effect5_dropShadow_1_3" result="effect6_dropShadow_1_3"/>
<feBlend mode="normal" in="SourceGraphic" in2="effect6_dropShadow_1_3" result="shape"/>
</filter>
<filter id="filter3_dddddd_1_3" x="0.745117" y="994.125" width="717.505" height="892.427" filterUnits="userSpaceOnUse" color-interpolation-filters="sRGB">
<feFlood flood-opacity="0" result="BackgroundImageFix"/>
<feColorMatrix in="SourceAlpha" type="matrix" values="0 0 0 0 0 0 0 0 0 0 0 0 0 0 0 0 0 0 127 0" result="hardAlpha"/>
<feOffset/>
<feGaussianBlur stdDeviation="5.8892"/>
<feColorMatrix type="matrix" values="0 0 0 0 0.282353 0 0 0 0 0.729412 0 0 0 0 0.52549 0 0 0 1 0"/>
<feBlend mode="normal" in2="BackgroundImageFix" result="effect1_dropShadow_1_3"/>
<feColorMatrix in="SourceAlpha" type="matrix" values="0 0 0 0 0 0 0 0 0 0 0 0 0 0 0 0 0 0 127 0" result="hardAlpha"/>
<feOffset/>
<feGaussianBlur stdDeviation="11.7784"/>
<feColorMatrix type="matrix" values="0 0 0 0 0.282353 0 0 0 0 0.729412 0 0 0 0 0.52549 0 0 0 1 0"/>
<feBlend mode="normal" in2="effect1_dropShadow_1_3" result="effect2_dropShadow_1_3"/>
<feColorMatrix in="SourceAlpha" type="matrix" values="0 0 0 0 0 0 0 0 0 0 0 0 0 0 0 0 0 0 127 0" result="hardAlpha"/>
<feOffset/>
<feGaussianBlur stdDeviation="41.2244"/>
<feColorMatrix type="matrix" values="0 0 0 0 0.282353 0 0 0 0 0.729412 0 0 0 0 0.52549 0 0 0 1 0"/>
<feBlend mode="normal" in2="effect2_dropShadow_1_3" result="effect3_dropShadow_1_3"/>
<feColorMatrix in="SourceAlpha" type="matrix" values="0 0 0 0 0 0 0 0 0 0 0 0 0 0 0 0 0 0 127 0" result="hardAlpha"/>
<feOffset/>
<feGaussianBlur stdDeviation="82.4488"/>
<feColorMatrix type="matrix" values="0 0 0 0 0.282353 0 0 0 0 0.729412 0 0 0 0 0.52549 0 0 0 1 0"/>
<feBlend mode="normal" in2="effect3_dropShadow_1_3" result="effect4_dropShadow_1_3"/>
<feColorMatrix in="SourceAlpha" type="matrix" values="0 0 0 0 0 0 0 0 0 0 0 0 0 0 0 0 0 0 127 0" result="hardAlpha"/>
<feOffset/>
<feGaussianBlur stdDeviation="140.625"/>
<feColorMatrix type="matrix" values="0 0 0 0 0.282353 0 0 0 0 0.729412 0 0 0 0 0.52549 0 0 0 1 0"/>
<feBlend mode="normal" in2="effect4_dropShadow_1_3" result="effect5_dropShadow_1_3"/>
<feColorMatrix in="SourceAlpha" type="matrix" values="0 0 0 0 0 0 0 0 0 0 0 0 0 0 0 0 0 0 127 0" result="hardAlpha"/>
<feOffset/>
<feGaussianBlur stdDeviation="140.625"/>
<feColorMatrix type="matrix" values="0 0 0 0 0.282353 0 0 0 0 0.729412 0 0 0 0 0.52549 0 0 0 1 0"/>
<feBlend mode="normal" in2="effect5_dropShadow_1_3" result="effect6_dropShadow_1_3"/>
<feBlend mode="normal" in="SourceGraphic" in2="effect6_dropShadow_1_3" result="shape"/>
</filter>
</defs>
</svg>
