<svg width="1512" height="853" viewBox="0 0 1512 853" fill="none" xmlns="http://www.w3.org/2000/svg">
<g filter="url(#filter0_dddddd_2996_124170)">
<path d="M146.377 323.13C177.564 296.289 217.533 281.99 258.587 282.986C299.64 283.982 338.876 300.202 368.737 328.523C384.321 343.304 396.773 360.836 405.597 380.065C395.276 361.725 381.498 345.052 366.55 330.874C337.263 303.097 298.779 287.187 258.51 286.21C218.241 285.233 179.037 299.259 148.45 325.583C132.837 339.02 118.272 355.005 107.082 372.825C116.819 354.045 130.101 337.138 146.377 323.13Z" stroke="white" stroke-width="3.375"/>
</g>
<g filter="url(#filter1_dddddd_2996_124170)">
<path d="M479.811 529.381C510.614 556.22 550.089 570.514 590.631 569.519C631.172 568.523 669.923 552.307 699.418 523.986C714.723 509.29 726.973 491.873 735.68 472.77C725.507 490.975 711.976 507.53 697.3 521.622C668.368 549.402 630.346 565.317 590.557 566.294C550.767 567.271 512.034 553.241 481.816 526.913C466.484 513.554 452.178 497.678 441.151 479.986C450.756 498.647 463.82 515.449 479.811 529.381Z" stroke="white" stroke-width="3.375"/>
</g>
<g filter="url(#filter2_dddddd_2996_124170)">
<path d="M809.436 323.124C840.239 296.285 879.714 281.991 920.256 282.986C960.797 283.982 999.548 300.198 1029.04 328.519C1044.35 343.215 1056.6 360.632 1065.3 379.735C1055.13 361.529 1041.6 344.974 1026.92 330.883C997.993 303.103 959.971 287.188 920.182 286.211C880.392 285.234 841.659 299.264 811.441 325.592C796.109 338.951 781.803 354.827 770.776 372.519C780.381 353.858 793.445 337.056 809.436 323.124Z" stroke="white" stroke-width="3.375"/>
</g>
<g filter="url(#filter3_dddddd_2996_124170)">
<path d="M1139.06 529.381C1169.86 556.22 1209.34 570.514 1249.88 569.519C1290.42 568.523 1329.17 552.307 1358.67 523.986C1373.97 509.29 1386.22 491.873 1394.93 472.77C1384.76 490.975 1371.23 507.53 1356.55 521.622C1327.62 549.402 1289.6 565.317 1249.81 566.294C1210.02 567.271 1171.28 553.241 1141.07 526.913C1125.73 513.554 1111.43 497.678 1100.4 479.986C1110.01 498.647 1123.07 515.449 1139.06 529.381Z" stroke="white" stroke-width="3.375"/>
</g>
<path d="M210.363 425.026V427.625H184.443V404H210.363V406.599H187.548V414.496H210.363V417.095H187.548V425.026H210.363ZM238.616 404V427.625H235.714V424.216H235.579C234.386 426.714 231.416 427.963 226.669 427.963H225.386C218.501 427.963 215.059 425.172 215.059 419.592V417.837C215.059 414.912 215.925 412.775 217.658 411.425C219.413 410.075 221.989 409.4 225.386 409.4H226.669C231.416 409.4 234.386 410.649 235.579 413.146H235.714V404H238.616ZM226.871 425.566C229.999 425.566 232.249 425.139 233.621 424.284C235.016 423.429 235.714 421.887 235.714 419.66V418.175C235.714 415.745 235.016 414.08 233.621 413.18C232.249 412.257 229.999 411.796 226.871 411.796C223.699 411.796 221.415 412.257 220.02 413.18C218.648 414.08 217.961 415.745 217.961 418.175V419.188C217.961 421.617 218.648 423.294 220.02 424.216C221.415 425.116 223.699 425.566 226.871 425.566ZM244.087 404H247.023V406.632H244.087V404ZM244.087 409.737H247.023V427.625H244.087V409.737ZM256.074 411.999H250.438V409.737H256.074V404H258.976V409.737H266.165V411.999H258.976V420.875C258.976 422.742 259.381 423.957 260.191 424.52C261.024 425.082 262.475 425.364 264.545 425.364H266.165V427.625H263.836C260.956 427.625 258.943 427.164 257.795 426.241C256.648 425.296 256.074 423.575 256.074 421.077V411.999ZM270.396 404H273.333V406.632H270.396V404ZM270.396 409.737H273.333V427.625H270.396V409.737ZM290.686 427.963H288.694C285.117 427.963 282.417 427.299 280.594 425.971C278.794 424.621 277.894 422.495 277.894 419.592V417.837C277.894 414.912 278.794 412.775 280.594 411.425C282.394 410.075 285.094 409.4 288.694 409.4H290.686C294.286 409.4 296.974 410.075 298.752 411.425C300.552 412.775 301.452 414.912 301.452 417.837V419.592C301.452 422.495 300.552 424.621 298.752 425.971C296.974 427.299 294.286 427.963 290.686 427.963ZM289.707 425.566C292.834 425.566 295.084 425.116 296.457 424.216C297.852 423.294 298.549 421.617 298.549 419.188V418.175C298.549 415.745 297.852 414.08 296.457 413.18C295.084 412.257 292.834 411.796 289.707 411.796C286.534 411.796 284.251 412.257 282.856 413.18C281.483 414.08 280.797 415.745 280.797 418.175V419.188C280.797 421.617 281.483 423.294 282.856 424.216C284.251 425.116 286.534 425.566 289.707 425.566ZM326.249 416.454V427.625H323.347V416.96C323.347 415.925 323.167 415.047 322.807 414.327C322.447 413.607 321.929 413.079 321.254 412.741C320.579 412.381 319.882 412.134 319.162 411.999C318.464 411.864 317.654 411.796 316.732 411.796C311.557 411.796 308.969 413.832 308.969 417.905V427.625H306.033V409.737H308.969V413.146H309.104C310.364 410.649 313.132 409.4 317.407 409.4C323.302 409.4 326.249 411.751 326.249 416.454Z" fill="#48BA86"/>
<path d="M208.651 390.858H205.37C201.118 390.858 197.554 390.594 194.678 390.068C191.843 389.541 189.393 388.61 187.328 387.273C185.262 385.937 183.743 384.114 182.771 381.806C181.84 379.497 181.374 376.601 181.374 373.118V367.286C181.374 359.996 183.156 354.812 186.72 351.734C190.325 348.656 196.379 347.117 204.884 347.117H207.497C215.111 347.117 220.7 347.968 224.264 349.669C227.868 351.329 230.035 354.124 230.764 358.052H225.175C224.648 355.622 223.008 353.942 220.254 353.01C217.5 352.079 212.883 351.613 206.403 351.613C201.098 351.613 197.068 352.099 194.314 353.071C191.56 354.002 189.596 355.622 188.421 357.931C187.287 360.199 186.72 363.56 186.72 368.015V369.716H187.024C187.955 367.367 190.001 365.666 193.16 364.613C196.319 363.52 201.199 362.973 207.8 362.973C216.022 362.973 221.975 363.905 225.661 365.768C229.346 367.59 231.189 370.972 231.189 375.913V377.614C231.189 382.474 229.346 385.896 225.661 387.881C221.975 389.865 216.305 390.858 208.651 390.858ZM206.585 386.483C213.511 386.483 218.432 385.835 221.348 384.539C224.264 383.243 225.722 381.016 225.722 377.857V376.095C225.722 372.896 224.264 370.648 221.348 369.352C218.432 368.056 213.511 367.408 206.585 367.408C199.781 367.408 194.861 368.056 191.823 369.352C188.867 370.607 187.388 372.855 187.388 376.095V377.857C187.388 381.016 188.846 383.243 191.762 384.539C194.678 385.835 199.619 386.483 206.585 386.483ZM247.572 362.123H237.427V358.052H247.572V347.725H252.797V358.052H265.736V362.123H252.797V378.1C252.797 381.461 253.526 383.648 254.984 384.661C256.482 385.673 259.094 386.18 262.82 386.18H265.736V390.25H261.545C256.361 390.25 252.736 389.42 250.67 387.759C248.605 386.058 247.572 382.96 247.572 378.464V362.123ZM309.742 370.142V390.25H304.517V371.053C304.517 369.19 304.193 367.61 303.545 366.314C302.897 365.018 301.966 364.067 300.751 363.459C299.536 362.811 298.28 362.366 296.984 362.123C295.729 361.88 294.271 361.758 292.61 361.758C283.295 361.758 278.638 365.423 278.638 372.754V390.25H273.352V347.725H278.638V364.188H278.881C281.149 359.693 286.13 357.445 293.825 357.445C304.436 357.445 309.742 361.677 309.742 370.142Z" fill="#48BA86"/>
<path d="M527.736 462.876V467.25H477.435V460.628C477.435 455.606 478.549 452.002 480.776 449.815C483.044 447.587 487.074 446.21 492.865 445.684L510.969 443.8C515.383 443.314 518.36 442.585 519.899 441.613C521.479 440.641 522.268 438.94 522.268 436.51V435.903C522.268 433.351 520.851 431.509 518.016 430.375C515.181 429.2 510.483 428.613 503.922 428.613C499.426 428.613 495.842 428.937 493.169 429.585C490.496 430.192 488.552 431.063 487.337 432.197C486.163 433.331 485.292 434.89 484.725 436.875H479.075C479.602 434.323 480.513 432.197 481.809 430.496C483.105 428.795 484.806 427.499 486.912 426.608C489.018 425.677 491.306 425.029 493.777 424.664C496.288 424.3 499.264 424.117 502.707 424.117H504.712C512.326 424.117 518.056 424.988 521.904 426.73C525.751 428.431 527.675 431.326 527.675 435.417V436.753C527.675 440.155 526.622 442.768 524.516 444.59C522.451 446.372 518.603 447.547 512.974 448.114L494.323 450.058C490.03 450.503 487.033 451.354 485.332 452.609C483.672 453.865 482.842 456.072 482.842 459.231V462.876H527.736ZM567.325 467.858H562.283C553.211 467.858 546.67 466.339 542.661 463.301C538.692 460.223 536.707 455.404 536.707 448.843V443.132C536.707 436.571 538.692 431.772 542.661 428.734C546.67 425.656 553.211 424.117 562.283 424.117H567.325C576.397 424.117 582.918 425.656 586.887 428.734C590.896 431.772 592.901 436.571 592.901 443.132V448.843C592.901 455.404 590.896 460.223 586.887 463.301C582.918 466.339 576.397 467.858 567.325 467.858ZM564.774 463.423C569.431 463.423 573.259 463.099 576.256 462.451C579.253 461.803 581.561 460.77 583.181 459.352C584.842 457.935 585.976 456.295 586.583 454.432C587.191 452.569 587.494 450.22 587.494 447.385V444.59C587.494 441.755 587.191 439.406 586.583 437.543C585.976 435.68 584.842 434.04 583.181 432.622C581.561 431.205 579.253 430.192 576.256 429.585C573.259 428.937 569.431 428.613 564.774 428.613C560.116 428.613 556.289 428.937 553.292 429.585C550.336 430.192 548.047 431.205 546.427 432.622C544.807 434.04 543.694 435.68 543.086 437.543C542.479 439.406 542.175 441.755 542.175 444.59V447.385C542.175 449.653 542.357 451.597 542.722 453.217C543.086 454.796 543.754 456.274 544.726 457.651C545.698 458.988 547.015 460.061 548.675 460.871C550.376 461.681 552.543 462.309 555.175 462.754C557.848 463.2 561.048 463.423 564.774 463.423ZM632.591 467.858H627.549C618.477 467.858 611.936 466.339 607.927 463.301C603.958 460.223 601.973 455.404 601.973 448.843V443.132C601.973 436.571 603.958 431.772 607.927 428.734C611.936 425.656 618.477 424.117 627.549 424.117H632.591C641.663 424.117 648.184 425.656 652.153 428.734C656.162 431.772 658.167 436.571 658.167 443.132V448.843C658.167 455.404 656.162 460.223 652.153 463.301C648.184 466.339 641.663 467.858 632.591 467.858ZM630.04 463.423C634.697 463.423 638.524 463.099 641.521 462.451C644.518 461.803 646.827 460.77 648.447 459.352C650.107 457.935 651.241 456.295 651.849 454.432C652.456 452.569 652.76 450.22 652.76 447.385V444.59C652.76 441.755 652.456 439.406 651.849 437.543C651.241 435.68 650.107 434.04 648.447 432.622C646.827 431.205 644.518 430.192 641.521 429.585C638.524 428.937 634.697 428.613 630.04 428.613C625.382 428.613 621.555 428.937 618.558 429.585C615.601 430.192 613.313 431.205 611.693 432.622C610.073 434.04 608.959 435.68 608.352 437.543C607.744 439.406 607.441 441.755 607.441 444.59V447.385C607.441 449.653 607.623 451.597 607.987 453.217C608.352 454.796 609.02 456.274 609.992 457.651C610.964 458.988 612.28 460.061 613.941 460.871C615.642 461.681 617.809 462.309 620.441 462.754C623.114 463.2 626.314 463.423 630.04 463.423ZM679.207 449.146H666.814V445.319H679.207V432.379H683.034V445.319H695.366V449.146H683.034V462.147H679.207V449.146Z" fill="#48BA86"/>
<path d="M830.531 439.625V416H838.226C840.094 416 841.624 416.315 842.816 416.945C844.031 417.552 844.92 418.374 845.483 419.409C846.068 420.444 846.36 421.625 846.36 422.952C846.36 424.235 846.068 425.405 845.483 426.462C844.92 427.497 844.043 428.33 842.85 428.96C841.658 429.59 840.116 429.905 838.226 429.905H833.366V439.625H830.531ZM833.366 427.509H838.193C840.083 427.509 841.433 427.092 842.243 426.26C843.053 425.427 843.458 424.325 843.458 422.952C843.458 421.49 843.053 420.365 842.243 419.577C841.433 418.767 840.083 418.362 838.193 418.362H833.366V427.509ZM854.853 440.03C853.48 440.03 852.333 439.794 851.41 439.321C850.488 438.826 849.802 438.185 849.352 437.398C848.902 436.587 848.677 435.71 848.677 434.765C848.677 433.617 848.969 432.65 849.554 431.862C850.162 431.052 851.005 430.445 852.085 430.04C853.188 429.612 854.482 429.399 855.967 429.399H860.455C860.455 428.341 860.287 427.464 859.949 426.766C859.634 426.046 859.162 425.506 858.532 425.146C857.924 424.786 857.159 424.606 856.237 424.606C855.157 424.606 854.223 424.876 853.435 425.416C852.648 425.956 852.164 426.755 851.984 427.812H849.082C849.217 426.597 849.622 425.585 850.297 424.775C850.994 423.942 851.872 423.312 852.929 422.885C853.987 422.435 855.089 422.21 856.237 422.21C857.812 422.21 859.117 422.502 860.152 423.087C861.209 423.65 861.997 424.449 862.514 425.484C863.032 426.496 863.29 427.7 863.29 429.095V439.625H860.759L860.59 436.621C860.365 437.094 860.073 437.544 859.713 437.971C859.375 438.376 858.97 438.736 858.498 439.051C858.025 439.344 857.485 439.58 856.878 439.76C856.293 439.94 855.618 440.03 854.853 440.03ZM855.292 437.634C856.079 437.634 856.788 437.476 857.418 437.161C858.07 436.824 858.622 436.374 859.072 435.811C859.522 435.226 859.859 434.585 860.084 433.887C860.332 433.19 860.455 432.459 860.455 431.694V431.592H856.203C855.1 431.592 854.212 431.727 853.537 431.997C852.862 432.245 852.378 432.605 852.085 433.077C851.793 433.527 851.647 434.045 851.647 434.63C851.647 435.237 851.782 435.766 852.052 436.216C852.344 436.666 852.76 437.015 853.3 437.262C853.863 437.51 854.527 437.634 855.292 437.634ZM867.845 439.625V422.615H870.41L870.612 425.855C870.995 425.09 871.479 424.437 872.064 423.897C872.671 423.357 873.391 422.941 874.224 422.649C875.079 422.356 876.046 422.21 877.126 422.21V425.18H876.08C875.36 425.18 874.674 425.281 874.021 425.484C873.369 425.664 872.784 425.967 872.266 426.395C871.771 426.822 871.377 427.407 871.085 428.15C870.815 428.87 870.68 429.77 870.68 430.85V439.625H867.845ZM887.187 439.625C886.175 439.625 885.297 439.467 884.555 439.152C883.812 438.837 883.239 438.309 882.834 437.566C882.451 436.801 882.26 435.777 882.26 434.495V425.011H879.29V422.615H882.26L882.631 418.497H885.095V422.615H890.022V425.011H885.095V434.495C885.095 435.552 885.309 436.272 885.736 436.655C886.164 437.015 886.917 437.195 887.997 437.195H889.82V439.625H887.187ZM894.16 439.625V422.615H896.995V439.625H894.16ZM895.578 419.004C895.015 419.004 894.543 418.824 894.16 418.464C893.8 418.081 893.62 417.609 893.62 417.046C893.62 416.484 893.8 416.034 894.16 415.696C894.543 415.336 895.015 415.156 895.578 415.156C896.118 415.156 896.579 415.336 896.962 415.696C897.344 416.034 897.535 416.484 897.535 417.046C897.535 417.609 897.344 418.081 896.962 418.464C896.579 418.824 896.118 419.004 895.578 419.004ZM909.828 440.03C908.231 440.03 906.791 439.659 905.508 438.916C904.248 438.174 903.258 437.139 902.538 435.811C901.818 434.461 901.458 432.909 901.458 431.154C901.458 429.354 901.818 427.79 902.538 426.462C903.258 425.135 904.248 424.1 905.508 423.357C906.791 422.592 908.231 422.21 909.828 422.21C911.853 422.21 913.541 422.739 914.891 423.796C916.241 424.831 917.096 426.226 917.456 427.981H914.553C914.328 426.924 913.777 426.102 912.899 425.517C912.022 424.932 910.987 424.64 909.794 424.64C908.827 424.64 907.927 424.887 907.094 425.382C906.262 425.855 905.598 426.575 905.103 427.542C904.608 428.51 904.361 429.702 904.361 431.12C904.361 432.177 904.507 433.122 904.799 433.955C905.092 434.765 905.486 435.44 905.981 435.98C906.476 436.52 907.049 436.936 907.702 437.229C908.377 437.499 909.074 437.634 909.794 437.634C910.604 437.634 911.336 437.51 911.988 437.262C912.641 436.992 913.192 436.599 913.642 436.081C914.092 435.564 914.396 434.956 914.553 434.259H917.456C917.096 435.969 916.229 437.364 914.857 438.444C913.507 439.501 911.831 440.03 909.828 440.03ZM921.92 439.625V422.615H924.755V439.625H921.92ZM923.337 419.004C922.775 419.004 922.302 418.824 921.92 418.464C921.56 418.081 921.38 417.609 921.38 417.046C921.38 416.484 921.56 416.034 921.92 415.696C922.302 415.336 922.775 415.156 923.337 415.156C923.877 415.156 924.338 415.336 924.721 415.696C925.103 416.034 925.295 416.484 925.295 417.046C925.295 417.609 925.103 418.081 924.721 418.464C924.338 418.824 923.877 419.004 923.337 419.004ZM929.926 447.05V422.615H932.491L932.728 425.382C933.088 424.842 933.549 424.336 934.111 423.864C934.674 423.369 935.349 422.975 936.136 422.682C936.924 422.367 937.824 422.21 938.836 422.21C940.501 422.21 941.941 422.604 943.156 423.391C944.394 424.179 945.35 425.247 946.025 426.597C946.723 427.925 947.071 429.444 947.071 431.154C947.071 432.864 946.723 434.394 946.025 435.744C945.35 437.071 944.394 438.117 943.156 438.882C941.919 439.647 940.468 440.03 938.803 440.03C937.43 440.03 936.215 439.749 935.158 439.186C934.123 438.624 933.324 437.836 932.761 436.824V447.05H929.926ZM938.499 437.566C939.601 437.566 940.58 437.296 941.435 436.756C942.29 436.216 942.954 435.474 943.426 434.529C943.921 433.561 944.169 432.425 944.169 431.12C944.169 429.837 943.921 428.712 943.426 427.745C942.954 426.777 942.29 426.024 941.435 425.484C940.58 424.944 939.601 424.674 938.499 424.674C937.374 424.674 936.384 424.944 935.529 425.484C934.674 426.024 934.01 426.777 933.538 427.745C933.065 428.712 932.829 429.837 932.829 431.12C932.829 432.425 933.065 433.561 933.538 434.529C934.01 435.474 934.674 436.216 935.529 436.756C936.384 437.296 937.374 437.566 938.499 437.566ZM956.757 440.03C955.384 440.03 954.237 439.794 953.314 439.321C952.392 438.826 951.706 438.185 951.256 437.398C950.806 436.587 950.581 435.71 950.581 434.765C950.581 433.617 950.873 432.65 951.458 431.862C952.066 431.052 952.909 430.445 953.989 430.04C955.092 429.612 956.386 429.399 957.871 429.399H962.359C962.359 428.341 962.191 427.464 961.853 426.766C961.538 426.046 961.066 425.506 960.436 425.146C959.828 424.786 959.063 424.606 958.141 424.606C957.061 424.606 956.127 424.876 955.339 425.416C954.552 425.956 954.068 426.755 953.888 427.812H950.986C951.121 426.597 951.526 425.585 952.201 424.775C952.898 423.942 953.776 423.312 954.833 422.885C955.891 422.435 956.993 422.21 958.141 422.21C959.716 422.21 961.021 422.502 962.056 423.087C963.113 423.65 963.901 424.449 964.418 425.484C964.936 426.496 965.194 427.7 965.194 429.095V439.625H962.663L962.494 436.621C962.269 437.094 961.977 437.544 961.617 437.971C961.279 438.376 960.874 438.736 960.402 439.051C959.929 439.344 959.389 439.58 958.782 439.76C958.197 439.94 957.522 440.03 956.757 440.03ZM957.196 437.634C957.983 437.634 958.692 437.476 959.322 437.161C959.974 436.824 960.526 436.374 960.976 435.811C961.426 435.226 961.763 434.585 961.988 433.887C962.236 433.19 962.359 432.459 962.359 431.694V431.592H958.107C957.004 431.592 956.116 431.727 955.441 431.997C954.766 432.245 954.282 432.605 953.989 433.077C953.697 433.527 953.551 434.045 953.551 434.63C953.551 435.237 953.686 435.766 953.956 436.216C954.248 436.666 954.664 437.015 955.204 437.262C955.767 437.51 956.431 437.634 957.196 437.634ZM969.749 439.625V422.615H972.314L972.449 425.585C972.989 424.527 973.754 423.706 974.744 423.121C975.756 422.514 976.904 422.21 978.186 422.21C979.514 422.21 980.661 422.48 981.629 423.02C982.596 423.537 983.35 424.336 983.89 425.416C984.43 426.474 984.7 427.824 984.7 429.466V439.625H981.865V429.77C981.865 428.06 981.482 426.777 980.717 425.922C979.975 425.067 978.917 424.64 977.545 424.64C976.6 424.64 975.756 424.876 975.014 425.349C974.271 425.799 973.675 426.462 973.225 427.34C972.797 428.195 972.584 429.264 972.584 430.546V439.625H969.749ZM995.98 439.625C994.967 439.625 994.09 439.467 993.347 439.152C992.605 438.837 992.031 438.309 991.626 437.566C991.244 436.801 991.052 435.777 991.052 434.495V425.011H988.082V422.615H991.052L991.424 418.497H993.887V422.615H998.815V425.011H993.887V434.495C993.887 435.552 994.101 436.272 994.529 436.655C994.956 437.015 995.71 437.195 996.79 437.195H998.612V439.625H995.98ZM1009.1 440.03C1007.68 440.03 1006.44 439.794 1005.38 439.321C1004.35 438.849 1003.52 438.196 1002.89 437.364C1002.28 436.509 1001.91 435.507 1001.77 434.36H1004.67C1004.79 434.945 1005.02 435.485 1005.38 435.98C1005.74 436.475 1006.23 436.88 1006.83 437.195C1007.46 437.487 1008.23 437.634 1009.13 437.634C1009.92 437.634 1010.57 437.521 1011.09 437.296C1011.6 437.049 1011.99 436.722 1012.23 436.317C1012.5 435.912 1012.64 435.474 1012.64 435.001C1012.64 434.304 1012.47 433.775 1012.13 433.415C1011.82 433.055 1011.35 432.774 1010.72 432.571C1010.09 432.346 1009.32 432.155 1008.42 431.997C1007.68 431.862 1006.95 431.682 1006.23 431.457C1005.51 431.232 1004.87 430.94 1004.3 430.58C1003.74 430.197 1003.29 429.736 1002.95 429.196C1002.64 428.656 1002.48 427.992 1002.48 427.205C1002.48 426.237 1002.73 425.382 1003.22 424.64C1003.72 423.875 1004.43 423.279 1005.35 422.851C1006.29 422.424 1007.39 422.21 1008.62 422.21C1010.45 422.21 1011.92 422.649 1013.04 423.526C1014.17 424.404 1014.83 425.675 1015.04 427.34H1012.23C1012.12 426.485 1011.75 425.821 1011.12 425.349C1010.51 424.854 1009.67 424.606 1008.59 424.606C1007.53 424.606 1006.72 424.82 1006.16 425.247C1005.62 425.675 1005.35 426.237 1005.35 426.935C1005.35 427.385 1005.5 427.79 1005.79 428.15C1006.1 428.487 1006.55 428.78 1007.14 429.027C1007.75 429.275 1008.49 429.477 1009.37 429.635C1010.49 429.837 1011.51 430.107 1012.44 430.445C1013.36 430.782 1014.1 431.289 1014.66 431.964C1015.25 432.616 1015.54 433.55 1015.54 434.765C1015.54 435.822 1015.27 436.745 1014.73 437.532C1014.21 438.32 1013.47 438.939 1012.5 439.389C1011.54 439.816 1010.4 440.03 1009.1 440.03Z" fill="#48BA86"/>
<path d="M831.357 396.146V400.25H784.161V394.037C784.161 389.325 785.206 385.943 787.296 383.891C789.424 381.801 793.205 380.509 798.639 380.015L815.625 378.248C819.767 377.792 822.56 377.108 824.004 376.196C825.486 375.284 826.227 373.688 826.227 371.408V370.838C826.227 368.444 824.897 366.715 822.237 365.651C819.577 364.549 815.169 363.998 809.013 363.998C804.795 363.998 801.432 364.302 798.924 364.91C796.416 365.48 794.592 366.297 793.452 367.361C792.35 368.425 791.533 369.888 791.001 371.75H785.7C786.194 369.356 787.049 367.361 788.265 365.765C789.481 364.169 791.077 362.953 793.053 362.117C795.029 361.243 797.176 360.635 799.494 360.293C801.85 359.951 804.643 359.78 807.873 359.78H809.754C816.898 359.78 822.275 360.597 825.885 362.231C829.495 363.827 831.3 366.544 831.3 370.382V371.636C831.3 374.828 830.312 377.279 828.336 378.989C826.398 380.661 822.788 381.763 817.506 382.295L800.007 384.119C795.979 384.537 793.167 385.335 791.571 386.513C790.013 387.691 789.234 389.762 789.234 392.726V396.146H831.357ZM868.503 400.82H863.772C855.26 400.82 849.123 399.395 845.361 396.545C841.637 393.657 839.775 389.135 839.775 382.979V377.621C839.775 371.465 841.637 366.962 845.361 364.112C849.123 361.224 855.26 359.78 863.772 359.78H868.503C877.015 359.78 883.133 361.224 886.857 364.112C890.619 366.962 892.5 371.465 892.5 377.621V382.979C892.5 389.135 890.619 393.657 886.857 396.545C883.133 399.395 877.015 400.82 868.503 400.82ZM866.109 396.659C870.479 396.659 874.07 396.355 876.882 395.747C879.694 395.139 881.86 394.17 883.38 392.84C884.938 391.51 886.002 389.971 886.572 388.223C887.142 386.475 887.427 384.271 887.427 381.611V378.989C887.427 376.329 887.142 374.125 886.572 372.377C886.002 370.629 884.938 369.09 883.38 367.76C881.86 366.43 879.694 365.48 876.882 364.91C874.07 364.302 870.479 363.998 866.109 363.998C861.739 363.998 858.148 364.302 855.336 364.91C852.562 365.48 850.415 366.43 848.895 367.76C847.375 369.09 846.33 370.629 845.76 372.377C845.19 374.125 844.905 376.329 844.905 378.989V381.611C844.905 383.739 845.076 385.563 845.418 387.083C845.76 388.565 846.387 389.952 847.299 391.244C848.211 392.498 849.446 393.505 851.004 394.265C852.6 395.025 854.633 395.614 857.103 396.032C859.611 396.45 862.613 396.659 866.109 396.659ZM929.74 400.82H925.009C916.497 400.82 910.36 399.395 906.598 396.545C902.874 393.657 901.012 389.135 901.012 382.979V377.621C901.012 371.465 902.874 366.962 906.598 364.112C910.36 361.224 916.497 359.78 925.009 359.78H929.74C938.252 359.78 944.37 361.224 948.094 364.112C951.856 366.962 953.737 371.465 953.737 377.621V382.979C953.737 389.135 951.856 393.657 948.094 396.545C944.37 399.395 938.252 400.82 929.74 400.82ZM927.346 396.659C931.716 396.659 935.307 396.355 938.119 395.747C940.931 395.139 943.097 394.17 944.617 392.84C946.175 391.51 947.239 389.971 947.809 388.223C948.379 386.475 948.664 384.271 948.664 381.611V378.989C948.664 376.329 948.379 374.125 947.809 372.377C947.239 370.629 946.175 369.09 944.617 367.76C943.097 366.43 940.931 365.48 938.119 364.91C935.307 364.302 931.716 363.998 927.346 363.998C922.976 363.998 919.385 364.302 916.573 364.91C913.799 365.48 911.652 366.43 910.132 367.76C908.612 369.09 907.567 370.629 906.997 372.377C906.427 374.125 906.142 376.329 906.142 378.989V381.611C906.142 383.739 906.313 385.563 906.655 387.083C906.997 388.565 907.624 389.952 908.536 391.244C909.448 392.498 910.683 393.505 912.241 394.265C913.837 395.025 915.87 395.614 918.34 396.032C920.848 396.45 923.85 396.659 927.346 396.659ZM990.977 400.82H986.246C977.734 400.82 971.597 399.395 967.835 396.545C964.111 393.657 962.249 389.135 962.249 382.979V377.621C962.249 371.465 964.111 366.962 967.835 364.112C971.597 361.224 977.734 359.78 986.246 359.78H990.977C999.489 359.78 1005.61 361.224 1009.33 364.112C1013.09 366.962 1014.97 371.465 1014.97 377.621V382.979C1014.97 389.135 1013.09 393.657 1009.33 396.545C1005.61 399.395 999.489 400.82 990.977 400.82ZM988.583 396.659C992.953 396.659 996.544 396.355 999.356 395.747C1002.17 395.139 1004.33 394.17 1005.85 392.84C1007.41 391.51 1008.48 389.971 1009.05 388.223C1009.62 386.475 1009.9 384.271 1009.9 381.611V378.989C1009.9 376.329 1009.62 374.125 1009.05 372.377C1008.48 370.629 1007.41 369.09 1005.85 367.76C1004.33 366.43 1002.17 365.48 999.356 364.91C996.544 364.302 992.953 363.998 988.583 363.998C984.213 363.998 980.622 364.302 977.81 364.91C975.036 365.48 972.889 366.43 971.369 367.76C969.849 369.09 968.804 370.629 968.234 372.377C967.664 374.125 967.379 376.329 967.379 378.989V381.611C967.379 383.739 967.55 385.563 967.892 387.083C968.234 388.565 968.861 389.952 969.773 391.244C970.685 392.498 971.92 393.505 973.478 394.265C975.074 395.025 977.107 395.614 979.577 396.032C982.085 396.45 985.087 396.659 988.583 396.659ZM1034.72 383.264H1023.09V379.673H1034.72V367.532H1038.31V379.673H1049.88V383.264H1038.31V395.462H1034.72V383.264Z" fill="#48BA86"/>
<path d="M1230.74 470.876V475.25H1180.43V468.628C1180.43 463.606 1181.55 460.002 1183.78 457.815C1186.04 455.587 1190.07 454.21 1195.87 453.684L1213.97 451.8C1218.38 451.314 1221.36 450.585 1222.9 449.613C1224.48 448.641 1225.27 446.94 1225.27 444.51V443.903C1225.27 441.351 1223.85 439.509 1221.02 438.375C1218.18 437.2 1213.48 436.613 1206.92 436.613C1202.43 436.613 1198.84 436.937 1196.17 437.585C1193.5 438.192 1191.55 439.063 1190.34 440.197C1189.16 441.331 1188.29 442.89 1187.72 444.875H1182.08C1182.6 442.323 1183.51 440.197 1184.81 438.496C1186.1 436.795 1187.81 435.499 1189.91 434.608C1192.02 433.677 1194.31 433.029 1196.78 432.664C1199.29 432.3 1202.26 432.117 1205.71 432.117H1207.71C1215.33 432.117 1221.06 432.988 1224.9 434.73C1228.75 436.431 1230.68 439.326 1230.68 443.417V444.753C1230.68 448.155 1229.62 450.768 1227.52 452.59C1225.45 454.372 1221.6 455.547 1215.97 456.114L1197.32 458.058C1193.03 458.503 1190.03 459.354 1188.33 460.609C1186.67 461.865 1185.84 464.072 1185.84 467.231V470.876H1230.74ZM1267.77 475.858H1264.61C1257.2 475.858 1251.63 474.966 1247.91 473.184C1244.22 471.402 1242 468.547 1241.23 464.619H1246.88C1247.44 467.008 1249.22 468.729 1252.22 469.782C1255.22 470.835 1259.84 471.362 1266.07 471.362C1273 471.362 1277.9 470.673 1280.77 469.296C1283.69 467.879 1285.15 465.489 1285.15 462.128V460.852C1285.15 457.329 1283.79 454.878 1281.08 453.501C1278.36 452.124 1273.48 451.436 1266.44 451.436C1261.01 451.436 1256.8 451.841 1253.8 452.651C1250.8 453.461 1248.62 454.757 1247.24 456.539H1242.14L1244.87 432.725H1287.34V437.099H1249.79L1247.91 451.679H1248.21C1250.6 448.56 1257.22 447.001 1268.08 447.001C1276.18 447.001 1281.95 448.054 1285.39 450.16C1288.83 452.266 1290.56 455.79 1290.56 460.731V462.128C1290.56 466.907 1288.75 470.39 1285.15 472.577C1281.54 474.764 1275.75 475.858 1267.77 475.858ZM1311.01 457.146H1298.62V453.319H1311.01V440.379H1314.84V453.319H1327.17V457.146H1314.84V470.147H1311.01V457.146Z" fill="#48BA86"/>
<path d="M1157.69 509.588H1156.94C1148.28 509.588 1143.35 507.574 1142.16 503.546H1145.47C1146.77 505.931 1150.8 507.124 1157.55 507.124C1161.49 507.124 1164.4 506.775 1166.29 506.077C1168.2 505.38 1169.16 504.165 1169.16 502.432V502.129C1169.16 500.824 1168.69 499.935 1167.74 499.462C1166.8 498.967 1165.03 498.664 1162.44 498.551L1152.56 498.214C1149.25 498.124 1146.91 497.64 1145.54 496.762C1144.19 495.862 1143.51 494.411 1143.51 492.409V492.24C1143.51 489.72 1144.6 487.931 1146.78 486.874C1148.99 485.816 1152.24 485.287 1156.54 485.287H1157.35C1159.15 485.287 1160.76 485.377 1162.17 485.557C1163.59 485.737 1164.95 486.041 1166.26 486.469C1167.56 486.896 1168.65 487.526 1169.53 488.359C1170.41 489.191 1171.03 490.204 1171.39 491.396H1168.15C1167.56 490.024 1166.31 489.079 1164.4 488.561C1162.49 488.021 1159.99 487.751 1156.91 487.751C1153.26 487.751 1150.64 488.089 1149.05 488.764C1147.45 489.439 1146.65 490.519 1146.65 492.004V492.071C1146.65 493.376 1147.12 494.276 1148.07 494.771C1149.01 495.244 1150.78 495.536 1153.37 495.649L1163.25 496.02C1166.61 496.155 1168.95 496.65 1170.27 497.505C1171.62 498.36 1172.3 499.789 1172.3 501.791V502.061C1172.3 503.546 1171.95 504.795 1171.25 505.807C1170.58 506.797 1169.55 507.562 1168.18 508.102C1166.83 508.642 1165.31 509.025 1163.63 509.25C1161.96 509.475 1159.98 509.588 1157.69 509.588ZM1177.11 514.988V491.362H1180.01V494.771H1180.15C1181.34 492.274 1184.31 491.025 1189.06 491.025H1190.34C1197.23 491.025 1200.67 493.815 1200.67 499.395V501.15C1200.67 504.075 1199.79 506.212 1198.04 507.562C1196.3 508.913 1193.74 509.588 1190.34 509.588H1189.06C1184.31 509.588 1181.34 508.339 1180.15 505.841H1180.01V514.988H1177.11ZM1188.86 493.421C1185.73 493.421 1183.47 493.849 1182.07 494.704C1180.7 495.559 1180.01 497.1 1180.01 499.328V500.812C1180.01 503.242 1180.7 504.919 1182.07 505.841C1183.47 506.741 1185.73 507.191 1188.86 507.191C1192.01 507.191 1194.28 506.741 1195.67 505.841C1197.07 504.919 1197.77 503.242 1197.77 500.812V499.8C1197.77 497.37 1197.07 495.705 1195.67 494.805C1194.28 493.882 1192.01 493.421 1188.86 493.421ZM1217.14 509.588H1215.15C1211.57 509.588 1208.87 508.924 1207.05 507.596C1205.25 506.246 1204.35 504.12 1204.35 501.217V499.462C1204.35 496.537 1205.25 494.4 1207.05 493.05C1208.85 491.7 1211.55 491.025 1215.15 491.025H1217.14C1220.74 491.025 1223.43 491.7 1225.21 493.05C1227.01 494.4 1227.91 496.537 1227.91 499.462V501.217C1227.91 504.12 1227.01 506.246 1225.21 507.596C1223.43 508.924 1220.74 509.588 1217.14 509.588ZM1216.16 507.191C1219.29 507.191 1221.54 506.741 1222.91 505.841C1224.31 504.919 1225.01 503.242 1225.01 500.812V499.8C1225.01 497.37 1224.31 495.705 1222.91 494.805C1221.54 493.882 1219.29 493.421 1216.16 493.421C1212.99 493.421 1210.71 493.882 1209.31 494.805C1207.94 495.705 1207.25 497.37 1207.25 499.8V500.812C1207.25 503.242 1207.94 504.919 1209.31 505.841C1210.71 506.741 1212.99 507.191 1216.16 507.191ZM1252.71 498.079V509.25H1249.8V498.585C1249.8 497.55 1249.62 496.672 1249.26 495.952C1248.9 495.232 1248.39 494.704 1247.71 494.366C1247.04 494.006 1246.34 493.759 1245.62 493.624C1244.92 493.489 1244.11 493.421 1243.19 493.421C1238.01 493.421 1235.43 495.457 1235.43 499.53V509.25H1232.49V491.362H1235.43V494.771H1235.56C1236.82 492.274 1239.59 491.025 1243.86 491.025C1249.76 491.025 1252.71 493.376 1252.71 498.079ZM1268.41 509.588H1267.93C1264.67 509.588 1262.11 509.227 1260.24 508.507C1258.39 507.787 1257.28 506.527 1256.9 504.727H1260C1260.63 506.505 1263.38 507.394 1268.24 507.394C1271.09 507.394 1273.14 507.157 1274.38 506.685C1275.64 506.212 1276.28 505.346 1276.3 504.086V503.951C1276.3 502.984 1275.92 502.331 1275.16 501.994C1274.39 501.656 1273 501.454 1270.97 501.386L1264.56 501.15C1262.04 501.06 1260.24 500.666 1259.16 499.969C1258.1 499.271 1257.57 498.169 1257.57 496.661V496.222C1257.57 494.332 1258.42 492.994 1260.1 492.206C1261.81 491.419 1264.29 491.025 1267.53 491.025H1267.93C1271.08 491.025 1273.51 491.407 1275.22 492.172C1276.93 492.915 1278.02 494.141 1278.5 495.851H1275.39C1275.03 494.929 1274.24 494.265 1273.03 493.86C1271.81 493.432 1270.03 493.219 1267.66 493.219C1265.08 493.219 1263.23 493.432 1262.13 493.86C1261.05 494.287 1260.5 495.075 1260.47 496.222V496.324C1260.47 497.246 1260.86 497.887 1261.62 498.247C1262.41 498.585 1263.82 498.799 1265.84 498.889L1272.25 499.125C1274.77 499.215 1276.56 499.609 1277.62 500.306C1278.68 501.004 1279.21 502.106 1279.21 503.614V503.985C1279.21 506.077 1278.28 507.54 1276.44 508.372C1274.59 509.183 1271.92 509.588 1268.41 509.588ZM1295.53 509.588H1293.54C1289.96 509.588 1287.26 508.924 1285.44 507.596C1283.64 506.246 1282.74 504.12 1282.74 501.217V499.462C1282.74 496.537 1283.64 494.4 1285.44 493.05C1287.24 491.7 1289.94 491.025 1293.54 491.025H1295.53C1299.13 491.025 1301.82 491.7 1303.6 493.05C1305.4 494.4 1306.3 496.537 1306.3 499.462V501.217C1306.3 504.12 1305.4 506.246 1303.6 507.596C1301.82 508.924 1299.13 509.588 1295.53 509.588ZM1294.55 507.191C1297.68 507.191 1299.93 506.741 1301.3 505.841C1302.7 504.919 1303.4 503.242 1303.4 500.812V499.8C1303.4 497.37 1302.7 495.705 1301.3 494.805C1299.93 493.882 1297.68 493.421 1294.55 493.421C1291.38 493.421 1289.1 493.882 1287.7 494.805C1286.33 495.705 1285.64 497.37 1285.64 499.8V500.812C1285.64 503.242 1286.33 504.919 1287.7 505.841C1289.1 506.741 1291.38 507.191 1294.55 507.191ZM1321.88 491.362H1324.08V493.759H1321.34C1320.26 493.759 1319.31 493.837 1318.47 493.995C1317.66 494.13 1316.89 494.389 1316.14 494.771C1315.4 495.131 1314.83 495.682 1314.42 496.425C1314.02 497.167 1313.82 498.079 1313.82 499.159V509.25H1310.88V491.362H1313.82V494.737H1313.95C1314.92 492.487 1317.56 491.362 1321.88 491.362ZM1338.09 509.588H1337.62C1334.36 509.588 1331.79 509.227 1329.92 508.507C1328.08 507.787 1326.97 506.527 1326.58 504.727H1329.69C1330.32 506.505 1333.06 507.394 1337.92 507.394C1340.78 507.394 1342.83 507.157 1344.07 506.685C1345.33 506.212 1345.97 505.346 1345.99 504.086V503.951C1345.99 502.984 1345.61 502.331 1344.84 501.994C1344.08 501.656 1342.68 501.454 1340.66 501.386L1334.24 501.15C1331.72 501.06 1329.92 500.666 1328.84 499.969C1327.79 499.271 1327.26 498.169 1327.26 496.661V496.222C1327.26 494.332 1328.1 492.994 1329.79 492.206C1331.5 491.419 1333.97 491.025 1337.21 491.025H1337.62C1340.77 491.025 1343.2 491.407 1344.91 492.172C1346.62 492.915 1347.71 494.141 1348.18 495.851H1345.08C1344.72 494.929 1343.93 494.265 1342.72 493.86C1341.5 493.432 1339.71 493.219 1337.35 493.219C1334.76 493.219 1332.92 493.432 1331.81 493.86C1330.73 494.287 1330.18 495.075 1330.16 496.222V496.324C1330.16 497.246 1330.54 497.887 1331.31 498.247C1332.1 498.585 1333.5 498.799 1335.53 498.889L1341.94 499.125C1344.46 499.215 1346.25 499.609 1347.31 500.306C1348.36 501.004 1348.89 502.106 1348.89 503.614V503.985C1348.89 506.077 1347.97 507.54 1346.12 508.372C1344.28 509.183 1341.6 509.588 1338.09 509.588Z" fill="#48BA86"/>
<path d="M492.548 500.475V509.25H489.443V485.625H508.613C511.965 485.625 514.384 486.199 515.869 487.346C517.354 488.471 518.096 490.294 518.096 492.814V493.455C518.096 495.885 517.354 497.662 515.869 498.787C514.406 499.912 511.988 500.475 508.613 500.475H492.548ZM507.735 488.224H492.548V497.876H507.735C510.503 497.876 512.404 497.539 513.439 496.864C514.474 496.166 514.991 494.974 514.991 493.286V492.814C514.991 491.104 514.463 489.911 513.405 489.236C512.37 488.561 510.48 488.224 507.735 488.224ZM533.323 491.362H535.517V493.759H532.783C531.703 493.759 530.747 493.837 529.914 493.995C529.104 494.13 528.328 494.389 527.586 494.771C526.843 495.131 526.269 495.682 525.864 496.425C525.459 497.167 525.257 498.079 525.257 499.159V509.25H522.321V491.362H525.257V494.737H525.392C526.359 492.487 529.003 491.362 533.323 491.362ZM550.619 509.588H548.628C545.05 509.588 542.35 508.924 540.528 507.596C538.728 506.246 537.828 504.12 537.828 501.217V499.462C537.828 496.537 538.728 494.4 540.528 493.05C542.328 491.7 545.028 491.025 548.628 491.025H550.619C554.219 491.025 556.908 491.7 558.685 493.05C560.485 494.4 561.385 496.537 561.385 499.462V501.217C561.385 504.12 560.485 506.246 558.685 507.596C556.908 508.924 554.219 509.588 550.619 509.588ZM549.64 507.191C552.768 507.191 555.018 506.741 556.39 505.841C557.785 504.919 558.483 503.242 558.483 500.812V499.8C558.483 497.37 557.785 495.705 556.39 494.805C555.018 493.882 552.768 493.421 549.64 493.421C546.468 493.421 544.184 493.882 542.789 494.805C541.416 495.705 540.73 497.37 540.73 499.8V500.812C540.73 503.242 541.416 504.919 542.789 505.841C544.184 506.741 546.468 507.191 549.64 507.191ZM565.966 485.625H568.902V488.257H565.966V485.625ZM565.966 491.362H568.902V506.044C568.902 508.226 568.666 509.891 568.194 511.039C567.721 512.209 566.776 513.525 565.359 514.988H562.119C563.671 513.435 564.695 512.108 565.19 511.005C565.707 509.903 565.966 508.451 565.966 506.651V491.362ZM592.803 504.289H595.807C595.289 506.134 594.175 507.484 592.465 508.339C590.755 509.171 588.393 509.588 585.378 509.588H584.23C580.63 509.588 577.93 508.924 576.13 507.596C574.353 506.246 573.464 504.12 573.464 501.217V499.462C573.464 496.537 574.353 494.4 576.13 493.05C577.93 491.7 580.63 491.025 584.23 491.025H585.31C588.91 491.025 591.61 491.7 593.41 493.05C595.21 494.4 596.11 496.537 596.11 499.462V500.914H576.367V500.947C576.367 503.377 577.03 505.054 578.358 505.976C579.685 506.876 581.834 507.326 584.804 507.326C587.144 507.326 588.922 507.112 590.137 506.685C591.374 506.257 592.263 505.459 592.803 504.289ZM591.115 494.501C589.743 493.601 587.639 493.151 584.804 493.151C581.969 493.151 579.888 493.567 578.56 494.4C577.233 495.232 576.502 496.729 576.367 498.889H593.208V498.754C593.208 496.796 592.51 495.379 591.115 494.501ZM611.82 509.588H610.47C606.87 509.588 604.17 508.924 602.37 507.596C600.592 506.246 599.703 504.12 599.703 501.217V499.462C599.703 496.537 600.592 494.4 602.37 493.05C604.17 491.7 606.87 491.025 610.47 491.025H611.82C617.85 491.025 621.326 492.87 622.248 496.56H619.245C618.727 495.367 617.816 494.546 616.511 494.096C615.228 493.646 613.473 493.421 611.246 493.421C608.208 493.421 606.003 493.882 604.631 494.805C603.281 495.705 602.606 497.37 602.606 499.8V500.812C602.606 503.242 603.281 504.919 604.631 505.841C606.003 506.741 608.208 507.191 611.246 507.191C613.473 507.191 615.228 506.966 616.511 506.516C617.816 506.066 618.727 505.245 619.245 504.052H622.248C621.326 507.742 617.85 509.588 611.82 509.588ZM629.97 493.624H624.334V491.362H629.97V485.625H632.873V491.362H640.061V493.624H632.873V502.5C632.873 504.367 633.278 505.582 634.088 506.145C634.92 506.707 636.371 506.989 638.441 506.989H640.061V509.25H637.733C634.853 509.25 632.839 508.789 631.691 507.866C630.544 506.921 629.97 505.2 629.97 502.702V493.624ZM654.924 509.588H654.451C651.189 509.588 648.624 509.227 646.756 508.507C644.911 507.787 643.798 506.527 643.415 504.727H646.52C647.15 506.505 649.895 507.394 654.755 507.394C657.613 507.394 659.66 507.157 660.898 506.685C662.158 506.212 662.799 505.346 662.821 504.086V503.951C662.821 502.984 662.439 502.331 661.674 501.994C660.909 501.656 659.514 501.454 657.489 501.386L651.076 501.15C648.556 501.06 646.756 500.666 645.676 499.969C644.619 499.271 644.09 498.169 644.09 496.661V496.222C644.09 494.332 644.934 492.994 646.621 492.206C648.331 491.419 650.806 491.025 654.046 491.025H654.451C657.601 491.025 660.031 491.407 661.741 492.172C663.451 492.915 664.543 494.141 665.015 495.851H661.91C661.55 494.929 660.763 494.265 659.548 493.86C658.333 493.432 656.544 493.219 654.181 493.219C651.594 493.219 649.749 493.432 648.646 493.86C647.566 494.287 647.015 495.075 646.993 496.222V496.324C646.993 497.246 647.375 497.887 648.14 498.247C648.928 498.585 650.334 498.799 652.359 498.889L658.771 499.125C661.291 499.215 663.08 499.609 664.138 500.306C665.195 501.004 665.724 502.106 665.724 503.614V503.985C665.724 506.077 664.801 507.54 662.956 508.372C661.111 509.183 658.434 509.588 654.924 509.588Z" fill="#48BA86"/>
<defs>
<filter id="filter0_dddddd_2996_124170" x="-193.25" y="0" width="896.5" height="717.5" filterUnits="userSpaceOnUse" color-interpolation-filters="sRGB">
<feFlood flood-opacity="0" result="BackgroundImageFix"/>
<feColorMatrix in="SourceAlpha" type="matrix" values="0 0 0 0 0 0 0 0 0 0 0 0 0 0 0 0 0 0 127 0" result="hardAlpha"/>
<feOffset/>
<feGaussianBlur stdDeviation="5.8892"/>
<feColorMatrix type="matrix" values="0 0 0 0 0.282353 0 0 0 0 0.729412 0 0 0 0 0.52549 0 0 0 1 0"/>
<feBlend mode="normal" in2="BackgroundImageFix" result="effect1_dropShadow_2996_124170"/>
<feColorMatrix in="SourceAlpha" type="matrix" values="0 0 0 0 0 0 0 0 0 0 0 0 0 0 0 0 0 0 127 0" result="hardAlpha"/>
<feOffset/>
<feGaussianBlur stdDeviation="11.7784"/>
<feColorMatrix type="matrix" values="0 0 0 0 0.282353 0 0 0 0 0.729412 0 0 0 0 0.52549 0 0 0 1 0"/>
<feBlend mode="normal" in2="effect1_dropShadow_2996_124170" result="effect2_dropShadow_2996_124170"/>
<feColorMatrix in="SourceAlpha" type="matrix" values="0 0 0 0 0 0 0 0 0 0 0 0 0 0 0 0 0 0 127 0" result="hardAlpha"/>
<feOffset/>
<feGaussianBlur stdDeviation="41.2244"/>
<feColorMatrix type="matrix" values="0 0 0 0 0.282353 0 0 0 0 0.729412 0 0 0 0 0.52549 0 0 0 1 0"/>
<feBlend mode="normal" in2="effect2_dropShadow_2996_124170" result="effect3_dropShadow_2996_124170"/>
<feColorMatrix in="SourceAlpha" type="matrix" values="0 0 0 0 0 0 0 0 0 0 0 0 0 0 0 0 0 0 127 0" result="hardAlpha"/>
<feOffset/>
<feGaussianBlur stdDeviation="82.4488"/>
<feColorMatrix type="matrix" values="0 0 0 0 0.282353 0 0 0 0 0.729412 0 0 0 0 0.52549 0 0 0 1 0"/>
<feBlend mode="normal" in2="effect3_dropShadow_2996_124170" result="effect4_dropShadow_2996_124170"/>
<feColorMatrix in="SourceAlpha" type="matrix" values="0 0 0 0 0 0 0 0 0 0 0 0 0 0 0 0 0 0 127 0" result="hardAlpha"/>
<feOffset/>
<feGaussianBlur stdDeviation="140.625"/>
<feColorMatrix type="matrix" values="0 0 0 0 0.282353 0 0 0 0 0.729412 0 0 0 0 0.52549 0 0 0 1 0"/>
<feBlend mode="normal" in2="effect4_dropShadow_2996_124170" result="effect5_dropShadow_2996_124170"/>
<feColorMatrix in="SourceAlpha" type="matrix" values="0 0 0 0 0 0 0 0 0 0 0 0 0 0 0 0 0 0 127 0" result="hardAlpha"/>
<feOffset/>
<feGaussianBlur stdDeviation="140.625"/>
<feColorMatrix type="matrix" values="0 0 0 0 0.282353 0 0 0 0 0.729412 0 0 0 0 0.52549 0 0 0 1 0"/>
<feBlend mode="normal" in2="effect5_dropShadow_2996_124170" result="effect6_dropShadow_2996_124170"/>
<feBlend mode="normal" in="SourceGraphic" in2="effect6_dropShadow_2996_124170" result="shape"/>
</filter>
<filter id="filter1_dddddd_2996_124170" x="140.875" y="135" width="892.427" height="717.505" filterUnits="userSpaceOnUse" color-interpolation-filters="sRGB">
<feFlood flood-opacity="0" result="BackgroundImageFix"/>
<feColorMatrix in="SourceAlpha" type="matrix" values="0 0 0 0 0 0 0 0 0 0 0 0 0 0 0 0 0 0 127 0" result="hardAlpha"/>
<feOffset/>
<feGaussianBlur stdDeviation="5.8892"/>
<feColorMatrix type="matrix" values="0 0 0 0 0.282353 0 0 0 0 0.729412 0 0 0 0 0.52549 0 0 0 1 0"/>
<feBlend mode="normal" in2="BackgroundImageFix" result="effect1_dropShadow_2996_124170"/>
<feColorMatrix in="SourceAlpha" type="matrix" values="0 0 0 0 0 0 0 0 0 0 0 0 0 0 0 0 0 0 127 0" result="hardAlpha"/>
<feOffset/>
<feGaussianBlur stdDeviation="11.7784"/>
<feColorMatrix type="matrix" values="0 0 0 0 0.282353 0 0 0 0 0.729412 0 0 0 0 0.52549 0 0 0 1 0"/>
<feBlend mode="normal" in2="effect1_dropShadow_2996_124170" result="effect2_dropShadow_2996_124170"/>
<feColorMatrix in="SourceAlpha" type="matrix" values="0 0 0 0 0 0 0 0 0 0 0 0 0 0 0 0 0 0 127 0" result="hardAlpha"/>
<feOffset/>
<feGaussianBlur stdDeviation="41.2244"/>
<feColorMatrix type="matrix" values="0 0 0 0 0.282353 0 0 0 0 0.729412 0 0 0 0 0.52549 0 0 0 1 0"/>
<feBlend mode="normal" in2="effect2_dropShadow_2996_124170" result="effect3_dropShadow_2996_124170"/>
<feColorMatrix in="SourceAlpha" type="matrix" values="0 0 0 0 0 0 0 0 0 0 0 0 0 0 0 0 0 0 127 0" result="hardAlpha"/>
<feOffset/>
<feGaussianBlur stdDeviation="82.4488"/>
<feColorMatrix type="matrix" values="0 0 0 0 0.282353 0 0 0 0 0.729412 0 0 0 0 0.52549 0 0 0 1 0"/>
<feBlend mode="normal" in2="effect3_dropShadow_2996_124170" result="effect4_dropShadow_2996_124170"/>
<feColorMatrix in="SourceAlpha" type="matrix" values="0 0 0 0 0 0 0 0 0 0 0 0 0 0 0 0 0 0 127 0" result="hardAlpha"/>
<feOffset/>
<feGaussianBlur stdDeviation="140.625"/>
<feColorMatrix type="matrix" values="0 0 0 0 0.282353 0 0 0 0 0.729412 0 0 0 0 0.52549 0 0 0 1 0"/>
<feBlend mode="normal" in2="effect4_dropShadow_2996_124170" result="effect5_dropShadow_2996_124170"/>
<feColorMatrix in="SourceAlpha" type="matrix" values="0 0 0 0 0 0 0 0 0 0 0 0 0 0 0 0 0 0 127 0" result="hardAlpha"/>
<feOffset/>
<feGaussianBlur stdDeviation="140.625"/>
<feColorMatrix type="matrix" values="0 0 0 0 0.282353 0 0 0 0 0.729412 0 0 0 0 0.52549 0 0 0 1 0"/>
<feBlend mode="normal" in2="effect5_dropShadow_2996_124170" result="effect6_dropShadow_2996_124170"/>
<feBlend mode="normal" in="SourceGraphic" in2="effect6_dropShadow_2996_124170" result="shape"/>
</filter>
<filter id="filter2_dddddd_2996_124170" x="470.5" y="0" width="892.427" height="717.505" filterUnits="userSpaceOnUse" color-interpolation-filters="sRGB">
<feFlood flood-opacity="0" result="BackgroundImageFix"/>
<feColorMatrix in="SourceAlpha" type="matrix" values="0 0 0 0 0 0 0 0 0 0 0 0 0 0 0 0 0 0 127 0" result="hardAlpha"/>
<feOffset/>
<feGaussianBlur stdDeviation="5.8892"/>
<feColorMatrix type="matrix" values="0 0 0 0 0.282353 0 0 0 0 0.729412 0 0 0 0 0.52549 0 0 0 1 0"/>
<feBlend mode="normal" in2="BackgroundImageFix" result="effect1_dropShadow_2996_124170"/>
<feColorMatrix in="SourceAlpha" type="matrix" values="0 0 0 0 0 0 0 0 0 0 0 0 0 0 0 0 0 0 127 0" result="hardAlpha"/>
<feOffset/>
<feGaussianBlur stdDeviation="11.7784"/>
<feColorMatrix type="matrix" values="0 0 0 0 0.282353 0 0 0 0 0.729412 0 0 0 0 0.52549 0 0 0 1 0"/>
<feBlend mode="normal" in2="effect1_dropShadow_2996_124170" result="effect2_dropShadow_2996_124170"/>
<feColorMatrix in="SourceAlpha" type="matrix" values="0 0 0 0 0 0 0 0 0 0 0 0 0 0 0 0 0 0 127 0" result="hardAlpha"/>
<feOffset/>
<feGaussianBlur stdDeviation="41.2244"/>
<feColorMatrix type="matrix" values="0 0 0 0 0.282353 0 0 0 0 0.729412 0 0 0 0 0.52549 0 0 0 1 0"/>
<feBlend mode="normal" in2="effect2_dropShadow_2996_124170" result="effect3_dropShadow_2996_124170"/>
<feColorMatrix in="SourceAlpha" type="matrix" values="0 0 0 0 0 0 0 0 0 0 0 0 0 0 0 0 0 0 127 0" result="hardAlpha"/>
<feOffset/>
<feGaussianBlur stdDeviation="82.4488"/>
<feColorMatrix type="matrix" values="0 0 0 0 0.282353 0 0 0 0 0.729412 0 0 0 0 0.52549 0 0 0 1 0"/>
<feBlend mode="normal" in2="effect3_dropShadow_2996_124170" result="effect4_dropShadow_2996_124170"/>
<feColorMatrix in="SourceAlpha" type="matrix" values="0 0 0 0 0 0 0 0 0 0 0 0 0 0 0 0 0 0 127 0" result="hardAlpha"/>
<feOffset/>
<feGaussianBlur stdDeviation="140.625"/>
<feColorMatrix type="matrix" values="0 0 0 0 0.282353 0 0 0 0 0.729412 0 0 0 0 0.52549 0 0 0 1 0"/>
<feBlend mode="normal" in2="effect4_dropShadow_2996_124170" result="effect5_dropShadow_2996_124170"/>
<feColorMatrix in="SourceAlpha" type="matrix" values="0 0 0 0 0 0 0 0 0 0 0 0 0 0 0 0 0 0 127 0" result="hardAlpha"/>
<feOffset/>
<feGaussianBlur stdDeviation="140.625"/>
<feColorMatrix type="matrix" values="0 0 0 0 0.282353 0 0 0 0 0.729412 0 0 0 0 0.52549 0 0 0 1 0"/>
<feBlend mode="normal" in2="effect5_dropShadow_2996_124170" result="effect6_dropShadow_2996_124170"/>
<feBlend mode="normal" in="SourceGraphic" in2="effect6_dropShadow_2996_124170" result="shape"/>
</filter>
<filter id="filter3_dddddd_2996_124170" x="800.125" y="135" width="892.427" height="717.505" filterUnits="userSpaceOnUse" color-interpolation-filters="sRGB">
<feFlood flood-opacity="0" result="BackgroundImageFix"/>
<feColorMatrix in="SourceAlpha" type="matrix" values="0 0 0 0 0 0 0 0 0 0 0 0 0 0 0 0 0 0 127 0" result="hardAlpha"/>
<feOffset/>
<feGaussianBlur stdDeviation="5.8892"/>
<feColorMatrix type="matrix" values="0 0 0 0 0.282353 0 0 0 0 0.729412 0 0 0 0 0.52549 0 0 0 1 0"/>
<feBlend mode="normal" in2="BackgroundImageFix" result="effect1_dropShadow_2996_124170"/>
<feColorMatrix in="SourceAlpha" type="matrix" values="0 0 0 0 0 0 0 0 0 0 0 0 0 0 0 0 0 0 127 0" result="hardAlpha"/>
<feOffset/>
<feGaussianBlur stdDeviation="11.7784"/>
<feColorMatrix type="matrix" values="0 0 0 0 0.282353 0 0 0 0 0.729412 0 0 0 0 0.52549 0 0 0 1 0"/>
<feBlend mode="normal" in2="effect1_dropShadow_2996_124170" result="effect2_dropShadow_2996_124170"/>
<feColorMatrix in="SourceAlpha" type="matrix" values="0 0 0 0 0 0 0 0 0 0 0 0 0 0 0 0 0 0 127 0" result="hardAlpha"/>
<feOffset/>
<feGaussianBlur stdDeviation="41.2244"/>
<feColorMatrix type="matrix" values="0 0 0 0 0.282353 0 0 0 0 0.729412 0 0 0 0 0.52549 0 0 0 1 0"/>
<feBlend mode="normal" in2="effect2_dropShadow_2996_124170" result="effect3_dropShadow_2996_124170"/>
<feColorMatrix in="SourceAlpha" type="matrix" values="0 0 0 0 0 0 0 0 0 0 0 0 0 0 0 0 0 0 127 0" result="hardAlpha"/>
<feOffset/>
<feGaussianBlur stdDeviation="82.4488"/>
<feColorMatrix type="matrix" values="0 0 0 0 0.282353 0 0 0 0 0.729412 0 0 0 0 0.52549 0 0 0 1 0"/>
<feBlend mode="normal" in2="effect3_dropShadow_2996_124170" result="effect4_dropShadow_2996_124170"/>
<feColorMatrix in="SourceAlpha" type="matrix" values="0 0 0 0 0 0 0 0 0 0 0 0 0 0 0 0 0 0 127 0" result="hardAlpha"/>
<feOffset/>
<feGaussianBlur stdDeviation="140.625"/>
<feColorMatrix type="matrix" values="0 0 0 0 0.282353 0 0 0 0 0.729412 0 0 0 0 0.52549 0 0 0 1 0"/>
<feBlend mode="normal" in2="effect4_dropShadow_2996_124170" result="effect5_dropShadow_2996_124170"/>
<feColorMatrix in="SourceAlpha" type="matrix" values="0 0 0 0 0 0 0 0 0 0 0 0 0 0 0 0 0 0 127 0" result="hardAlpha"/>
<feOffset/>
<feGaussianBlur stdDeviation="140.625"/>
<feColorMatrix type="matrix" values="0 0 0 0 0.282353 0 0 0 0 0.729412 0 0 0 0 0.52549 0 0 0 1 0"/>
<feBlend mode="normal" in2="effect5_dropShadow_2996_124170" result="effect6_dropShadow_2996_124170"/>
<feBlend mode="normal" in="SourceGraphic" in2="effect6_dropShadow_2996_124170" result="shape"/>
</filter>
</defs>
</svg>
