<svg width="1512" height="854" viewBox="0 0 1512 854" fill="none" xmlns="http://www.w3.org/2000/svg">
<g filter="url(#filter0_dddddd_3644_326757)">
<path d="M146.377 323.88C177.564 297.039 217.533 282.74 258.587 283.736C299.64 284.732 338.876 300.952 368.737 329.273C384.321 344.054 396.773 361.586 405.597 380.815C395.276 362.475 381.498 345.802 366.55 331.624C337.263 303.847 298.779 287.937 258.51 286.96C218.241 285.983 179.037 300.009 148.45 326.333C132.837 339.77 118.272 355.755 107.082 373.575C116.819 354.795 130.101 337.888 146.377 323.88Z" stroke="white" stroke-width="3.375"/>
</g>
<g filter="url(#filter1_dddddd_3644_326757)">
<path d="M479.811 530.131C510.614 556.97 550.089 571.264 590.631 570.269C631.172 569.273 669.923 553.057 699.418 524.736C714.723 510.04 726.973 492.623 735.68 473.52C725.507 491.725 711.976 508.28 697.3 522.372C668.368 550.152 630.346 566.067 590.557 567.044C550.767 568.021 512.034 553.991 481.816 527.663C466.484 514.304 452.178 498.428 441.151 480.736C450.756 499.397 463.82 516.199 479.811 530.131Z" stroke="white" stroke-width="3.375"/>
</g>
<g filter="url(#filter2_dddddd_3644_326757)">
<path d="M809.436 323.874C840.239 297.035 879.714 282.741 920.256 283.736C960.797 284.732 999.548 300.948 1029.04 329.269C1044.35 343.965 1056.6 361.382 1065.3 380.485C1055.13 362.279 1041.6 345.724 1026.92 331.633C997.993 303.853 959.971 287.938 920.182 286.961C880.392 285.984 841.659 300.014 811.441 326.342C796.109 339.701 781.803 355.577 770.776 373.269C780.381 354.608 793.445 337.806 809.436 323.874Z" stroke="white" stroke-width="3.375"/>
</g>
<g filter="url(#filter3_dddddd_3644_326757)">
<path d="M1139.06 530.131C1169.86 556.97 1209.34 571.264 1249.88 570.269C1290.42 569.273 1329.17 553.057 1358.67 524.736C1373.97 510.04 1386.22 492.623 1394.93 473.52C1384.76 491.725 1371.23 508.28 1356.55 522.372C1327.62 550.152 1289.6 566.067 1249.81 567.044C1210.02 568.021 1171.28 553.991 1141.07 527.663C1125.73 514.304 1111.43 498.428 1100.4 480.736C1110.01 499.397 1123.07 516.199 1139.06 530.131Z" stroke="white" stroke-width="3.375"/>
</g>
<path d="M214.238 425.776V428.375H188.318V404.75H214.238V407.349H191.423V415.246H214.238V417.845H191.423V425.776H214.238ZM242.491 404.75V428.375H239.589V424.966H239.454C238.261 427.464 235.291 428.713 230.544 428.713H229.261C222.376 428.713 218.934 425.922 218.934 420.342V418.587C218.934 415.662 219.8 413.525 221.533 412.175C223.288 410.825 225.864 410.15 229.261 410.15H230.544C235.291 410.15 238.261 411.399 239.454 413.896H239.589V404.75H242.491ZM230.746 426.316C233.874 426.316 236.124 425.889 237.496 425.034C238.891 424.179 239.589 422.637 239.589 420.41V418.925C239.589 416.495 238.891 414.83 237.496 413.93C236.124 413.007 233.874 412.546 230.746 412.546C227.574 412.546 225.29 413.007 223.895 413.93C222.523 414.83 221.836 416.495 221.836 418.925V419.938C221.836 422.367 222.523 424.044 223.895 424.966C225.29 425.866 227.574 426.316 230.746 426.316ZM247.962 404.75H250.898V407.382H247.962V404.75ZM247.962 410.487H250.898V428.375H247.962V410.487ZM259.949 412.749H254.313V410.487H259.949V404.75H262.851V410.487H270.04V412.749H262.851V421.625C262.851 423.492 263.256 424.707 264.066 425.27C264.899 425.832 266.35 426.114 268.42 426.114H270.04V428.375H267.711C264.831 428.375 262.818 427.914 261.67 426.991C260.523 426.046 259.949 424.325 259.949 421.827V412.749ZM274.271 404.75H277.208V407.382H274.271V404.75ZM274.271 410.487H277.208V428.375H274.271V410.487ZM294.561 428.713H292.569C288.992 428.713 286.292 428.049 284.469 426.721C282.669 425.371 281.769 423.245 281.769 420.342V418.587C281.769 415.662 282.669 413.525 284.469 412.175C286.269 410.825 288.969 410.15 292.569 410.15H294.561C298.161 410.15 300.849 410.825 302.627 412.175C304.427 413.525 305.327 415.662 305.327 418.587V420.342C305.327 423.245 304.427 425.371 302.627 426.721C300.849 428.049 298.161 428.713 294.561 428.713ZM293.582 426.316C296.709 426.316 298.959 425.866 300.332 424.966C301.727 424.044 302.424 422.367 302.424 419.938V418.925C302.424 416.495 301.727 414.83 300.332 413.93C298.959 413.007 296.709 412.546 293.582 412.546C290.409 412.546 288.126 413.007 286.731 413.93C285.358 414.83 284.672 416.495 284.672 418.925V419.938C284.672 422.367 285.358 424.044 286.731 424.966C288.126 425.866 290.409 426.316 293.582 426.316ZM330.124 417.204V428.375H327.222V417.71C327.222 416.675 327.042 415.797 326.682 415.077C326.322 414.357 325.804 413.829 325.129 413.491C324.454 413.131 323.757 412.884 323.037 412.749C322.339 412.614 321.529 412.546 320.607 412.546C315.432 412.546 312.844 414.582 312.844 418.655V428.375H309.908V410.487H312.844V413.896H312.979C314.239 411.399 317.007 410.15 321.282 410.15C327.177 410.15 330.124 412.501 330.124 417.204Z" fill="#48BA86"/>
<path d="M208.651 391.608H205.37C201.118 391.608 197.554 391.344 194.678 390.818C191.843 390.291 189.393 389.36 187.328 388.023C185.262 386.687 183.743 384.864 182.771 382.556C181.84 380.247 181.374 377.351 181.374 373.868V368.036C181.374 360.746 183.156 355.562 186.72 352.484C190.325 349.406 196.379 347.867 204.884 347.867H207.497C215.111 347.867 220.7 348.718 224.264 350.419C227.868 352.079 230.035 354.874 230.764 358.802H225.175C224.648 356.372 223.008 354.692 220.254 353.76C217.5 352.829 212.883 352.363 206.403 352.363C201.098 352.363 197.068 352.849 194.314 353.821C191.56 354.752 189.596 356.372 188.421 358.681C187.287 360.949 186.72 364.31 186.72 368.765V370.466H187.024C187.955 368.117 190.001 366.416 193.16 365.363C196.319 364.27 201.199 363.723 207.8 363.723C216.022 363.723 221.975 364.655 225.661 366.518C229.346 368.34 231.189 371.722 231.189 376.663V378.364C231.189 383.224 229.346 386.646 225.661 388.631C221.975 390.615 216.305 391.608 208.651 391.608ZM206.585 387.233C213.511 387.233 218.432 386.585 221.348 385.289C224.264 383.993 225.722 381.766 225.722 378.607V376.845C225.722 373.646 224.264 371.398 221.348 370.102C218.432 368.806 213.511 368.158 206.585 368.158C199.781 368.158 194.861 368.806 191.823 370.102C188.867 371.357 187.388 373.605 187.388 376.845V378.607C187.388 381.766 188.846 383.993 191.762 385.289C194.678 386.585 199.619 387.233 206.585 387.233ZM247.572 362.873H237.427V358.802H247.572V348.475H252.797V358.802H265.736V362.873H252.797V378.85C252.797 382.211 253.526 384.398 254.984 385.411C256.482 386.423 259.094 386.93 262.82 386.93H265.736V391H261.545C256.361 391 252.736 390.17 250.67 388.509C248.605 386.808 247.572 383.71 247.572 379.214V362.873ZM309.742 370.892V391H304.517V371.803C304.517 369.94 304.193 368.36 303.545 367.064C302.897 365.768 301.966 364.817 300.751 364.209C299.536 363.561 298.28 363.116 296.984 362.873C295.729 362.63 294.271 362.508 292.61 362.508C283.295 362.508 278.638 366.173 278.638 373.504V391H273.352V348.475H278.638V364.938H278.881C281.149 360.443 286.13 358.195 293.825 358.195C304.436 358.195 309.742 362.427 309.742 370.892Z" fill="#48BA86"/>
<path d="M527.736 463.626V468H477.435V461.378C477.435 456.356 478.549 452.752 480.776 450.565C483.044 448.337 487.074 446.96 492.865 446.434L510.969 444.55C515.383 444.064 518.36 443.335 519.899 442.363C521.479 441.391 522.268 439.69 522.268 437.26V436.653C522.268 434.101 520.851 432.259 518.016 431.125C515.181 429.95 510.483 429.363 503.922 429.363C499.426 429.363 495.842 429.687 493.169 430.335C490.496 430.942 488.552 431.813 487.337 432.947C486.163 434.081 485.292 435.64 484.725 437.625H479.075C479.602 435.073 480.513 432.947 481.809 431.246C483.105 429.545 484.806 428.249 486.912 427.358C489.018 426.427 491.306 425.779 493.777 425.414C496.288 425.05 499.264 424.867 502.707 424.867H504.712C512.326 424.867 518.056 425.738 521.904 427.48C525.751 429.181 527.675 432.076 527.675 436.167V437.503C527.675 440.905 526.622 443.518 524.516 445.34C522.451 447.122 518.603 448.297 512.974 448.864L494.323 450.808C490.03 451.253 487.033 452.104 485.332 453.359C483.672 454.615 482.842 456.822 482.842 459.981V463.626H527.736ZM567.325 468.608H562.283C553.211 468.608 546.67 467.089 542.661 464.051C538.692 460.973 536.707 456.154 536.707 449.593V443.882C536.707 437.321 538.692 432.522 542.661 429.484C546.67 426.406 553.211 424.867 562.283 424.867H567.325C576.397 424.867 582.918 426.406 586.887 429.484C590.896 432.522 592.901 437.321 592.901 443.882V449.593C592.901 456.154 590.896 460.973 586.887 464.051C582.918 467.089 576.397 468.608 567.325 468.608ZM564.774 464.173C569.431 464.173 573.259 463.849 576.256 463.201C579.253 462.553 581.561 461.52 583.181 460.102C584.842 458.685 585.976 457.045 586.583 455.182C587.191 453.319 587.494 450.97 587.494 448.135V445.34C587.494 442.505 587.191 440.156 586.583 438.293C585.976 436.43 584.842 434.79 583.181 433.372C581.561 431.955 579.253 430.942 576.256 430.335C573.259 429.687 569.431 429.363 564.774 429.363C560.116 429.363 556.289 429.687 553.292 430.335C550.336 430.942 548.047 431.955 546.427 433.372C544.807 434.79 543.694 436.43 543.086 438.293C542.479 440.156 542.175 442.505 542.175 445.34V448.135C542.175 450.403 542.357 452.347 542.722 453.967C543.086 455.546 543.754 457.024 544.726 458.401C545.698 459.738 547.015 460.811 548.675 461.621C550.376 462.431 552.543 463.059 555.175 463.504C557.848 463.95 561.048 464.173 564.774 464.173ZM632.591 468.608H627.549C618.477 468.608 611.936 467.089 607.927 464.051C603.958 460.973 601.973 456.154 601.973 449.593V443.882C601.973 437.321 603.958 432.522 607.927 429.484C611.936 426.406 618.477 424.867 627.549 424.867H632.591C641.663 424.867 648.184 426.406 652.153 429.484C656.162 432.522 658.167 437.321 658.167 443.882V449.593C658.167 456.154 656.162 460.973 652.153 464.051C648.184 467.089 641.663 468.608 632.591 468.608ZM630.04 464.173C634.697 464.173 638.524 463.849 641.521 463.201C644.518 462.553 646.827 461.52 648.447 460.102C650.107 458.685 651.241 457.045 651.849 455.182C652.456 453.319 652.76 450.97 652.76 448.135V445.34C652.76 442.505 652.456 440.156 651.849 438.293C651.241 436.43 650.107 434.79 648.447 433.372C646.827 431.955 644.518 430.942 641.521 430.335C638.524 429.687 634.697 429.363 630.04 429.363C625.382 429.363 621.555 429.687 618.558 430.335C615.601 430.942 613.313 431.955 611.693 433.372C610.073 434.79 608.959 436.43 608.352 438.293C607.744 440.156 607.441 442.505 607.441 445.34V448.135C607.441 450.403 607.623 452.347 607.987 453.967C608.352 455.546 609.02 457.024 609.992 458.401C610.964 459.738 612.28 460.811 613.941 461.621C615.642 462.431 617.809 463.059 620.441 463.504C623.114 463.95 626.314 464.173 630.04 464.173ZM679.207 449.896H666.814V446.069H679.207V433.129H683.034V446.069H695.366V449.896H683.034V462.897H679.207V449.896Z" fill="#48BA86"/>
<path d="M800.765 440.375V416.75H808.528C810.395 416.75 811.914 417.054 813.084 417.661C814.276 418.269 815.154 419.09 815.716 420.125C816.301 421.16 816.594 422.33 816.594 423.635C816.594 424.917 816.313 426.076 815.75 427.111C815.188 428.146 814.31 428.979 813.118 429.609C811.925 430.216 810.395 430.52 808.528 430.52H803.6V440.375H800.765ZM803.6 428.124H808.46C810.328 428.124 811.666 427.719 812.476 426.909C813.286 426.099 813.691 425.007 813.691 423.635C813.691 422.195 813.286 421.081 812.476 420.294C811.666 419.506 810.328 419.112 808.46 419.112H803.6V428.124ZM824.232 440.78C822.882 440.78 821.746 440.544 820.823 440.071C819.923 439.599 819.248 438.969 818.798 438.181C818.371 437.394 818.157 436.539 818.157 435.616C818.157 434.469 818.45 433.501 819.035 432.714C819.642 431.926 820.486 431.33 821.566 430.925C822.668 430.497 823.962 430.284 825.447 430.284H829.97C829.97 429.204 829.801 428.315 829.463 427.617C829.126 426.897 828.642 426.369 828.012 426.031C827.382 425.671 826.628 425.491 825.751 425.491C824.648 425.491 823.692 425.772 822.882 426.335C822.072 426.897 821.577 427.741 821.397 428.866H818.495C818.63 427.651 819.035 426.627 819.71 425.795C820.385 424.962 821.251 424.332 822.308 423.905C823.366 423.455 824.513 423.23 825.751 423.23C827.326 423.23 828.631 423.522 829.666 424.107C830.723 424.67 831.511 425.469 832.028 426.504C832.546 427.516 832.805 428.709 832.805 430.081V440.375H830.375L830.138 437.439H830.071C829.778 437.956 829.441 438.429 829.058 438.856C828.676 439.261 828.237 439.61 827.742 439.902C827.27 440.172 826.741 440.386 826.156 440.544C825.571 440.701 824.93 440.78 824.232 440.78ZM824.705 438.384C825.56 438.384 826.302 438.226 826.932 437.911C827.585 437.574 828.136 437.124 828.586 436.561C829.036 435.999 829.373 435.369 829.598 434.671C829.846 433.951 829.97 433.22 829.97 432.477H825.683C824.581 432.477 823.692 432.612 823.017 432.882C822.342 433.13 821.858 433.479 821.566 433.929C821.273 434.379 821.127 434.896 821.127 435.481C821.127 436.066 821.262 436.584 821.532 437.034C821.825 437.461 822.241 437.799 822.781 438.046C823.321 438.271 823.962 438.384 824.705 438.384ZM836.167 440.375V423.635H838.698L838.968 427.111H839.036C839.531 426.076 840.048 425.277 840.588 424.715C841.151 424.152 841.803 423.77 842.546 423.567C843.311 423.342 844.211 423.23 845.246 423.23V426.2H844.503C843.671 426.2 842.906 426.312 842.208 426.537C841.533 426.74 840.959 427.066 840.487 427.516C840.014 427.966 839.643 428.551 839.373 429.271C839.126 429.969 839.002 430.812 839.002 431.802V440.375H836.167ZM854.223 440.375C853.211 440.375 852.333 440.217 851.591 439.902C850.848 439.587 850.275 439.059 849.87 438.316C849.487 437.551 849.296 436.527 849.296 435.245V425.795H846.393V423.635H849.296L849.633 419.619H852.131V423.635H857.058V425.795H852.131V435.245C852.131 436.37 852.345 437.124 852.772 437.506C853.2 437.889 853.953 438.08 855.033 438.08H856.788V440.375H854.223ZM860.015 440.375V423.635H862.85V440.375H860.015ZM861.433 420.159C860.87 420.159 860.398 419.967 860.015 419.585C859.655 419.202 859.475 418.73 859.475 418.167C859.475 417.627 859.655 417.177 860.015 416.817C860.398 416.435 860.87 416.244 861.433 416.244C861.973 416.244 862.434 416.435 862.816 416.817C863.199 417.177 863.39 417.627 863.39 418.167C863.39 418.73 863.199 419.202 862.816 419.585C862.434 419.967 861.973 420.159 861.433 420.159ZM874.727 440.78C873.039 440.78 871.565 440.42 870.305 439.7C869.045 438.957 868.067 437.934 867.369 436.629C866.672 435.301 866.323 433.76 866.323 432.005C866.323 430.25 866.683 428.72 867.403 427.415C868.145 426.087 869.147 425.064 870.407 424.344C871.689 423.601 873.129 423.23 874.727 423.23C876.729 423.23 878.405 423.747 879.755 424.782C881.105 425.817 881.96 427.201 882.32 428.934H879.418C879.193 427.831 878.642 426.987 877.764 426.402C876.887 425.817 875.863 425.525 874.693 425.525C873.748 425.525 872.859 425.761 872.027 426.234C871.194 426.706 870.519 427.426 870.002 428.394C869.484 429.339 869.225 430.542 869.225 432.005C869.225 433.062 869.372 433.996 869.664 434.806C869.957 435.594 870.35 436.257 870.845 436.797C871.34 437.337 871.914 437.742 872.567 438.012C873.242 438.282 873.95 438.417 874.693 438.417C875.48 438.417 876.2 438.282 876.853 438.012C877.505 437.742 878.057 437.36 878.507 436.865C878.957 436.37 879.26 435.774 879.418 435.076H882.32C881.96 436.764 881.105 438.136 879.755 439.194C878.405 440.251 876.729 440.78 874.727 440.78ZM885.83 440.375V423.635H888.665V440.375H885.83ZM887.248 420.159C886.685 420.159 886.213 419.967 885.83 419.585C885.47 419.202 885.29 418.73 885.29 418.167C885.29 417.627 885.47 417.177 885.83 416.817C886.213 416.435 886.685 416.244 887.248 416.244C887.788 416.244 888.249 416.435 888.631 416.817C889.014 417.177 889.205 417.627 889.205 418.167C889.205 418.73 889.014 419.202 888.631 419.585C888.249 419.967 887.788 420.159 887.248 420.159ZM892.813 447.395V423.635H895.276L895.546 426.672H895.614C896.064 425.975 896.604 425.367 897.234 424.85C897.864 424.332 898.584 423.939 899.394 423.669C900.204 423.376 901.081 423.23 902.026 423.23C903.669 423.23 905.086 423.624 906.279 424.411C907.494 425.176 908.428 426.222 909.08 427.55C909.733 428.855 910.059 430.34 910.059 432.005C910.059 433.67 909.733 435.166 909.08 436.494C908.428 437.821 907.483 438.867 906.245 439.632C905.008 440.397 903.523 440.78 901.79 440.78C900.305 440.78 899.045 440.476 898.01 439.869C896.998 439.239 896.21 438.485 895.648 437.607V447.395H892.813ZM901.486 438.316C902.634 438.316 903.635 438.057 904.49 437.54C905.368 437 906.031 436.257 906.481 435.312C906.954 434.367 907.19 433.265 907.19 432.005C907.19 430.745 906.954 429.642 906.481 428.697C906.031 427.752 905.368 427.021 904.49 426.504C903.635 425.964 902.634 425.694 901.486 425.694C900.339 425.694 899.326 425.964 898.449 426.504C897.594 427.021 896.919 427.752 896.424 428.697C895.951 429.642 895.715 430.745 895.715 432.005C895.715 433.265 895.951 434.367 896.424 435.312C896.919 436.257 897.594 437 898.449 437.54C899.326 438.057 900.339 438.316 901.486 438.316ZM918.72 440.78C917.37 440.78 916.234 440.544 915.311 440.071C914.411 439.599 913.736 438.969 913.286 438.181C912.859 437.394 912.645 436.539 912.645 435.616C912.645 434.469 912.938 433.501 913.523 432.714C914.13 431.926 914.974 431.33 916.054 430.925C917.156 430.497 918.45 430.284 919.935 430.284H924.458C924.458 429.204 924.289 428.315 923.951 427.617C923.614 426.897 923.13 426.369 922.5 426.031C921.87 425.671 921.116 425.491 920.239 425.491C919.136 425.491 918.18 425.772 917.37 426.335C916.56 426.897 916.065 427.741 915.885 428.866H912.983C913.118 427.651 913.523 426.627 914.198 425.795C914.873 424.962 915.739 424.332 916.796 423.905C917.854 423.455 919.001 423.23 920.239 423.23C921.814 423.23 923.119 423.522 924.154 424.107C925.211 424.67 925.999 425.469 926.516 426.504C927.034 427.516 927.293 428.709 927.293 430.081V440.375H924.863L924.626 437.439H924.559C924.266 437.956 923.929 438.429 923.546 438.856C923.164 439.261 922.725 439.61 922.23 439.902C921.758 440.172 921.229 440.386 920.644 440.544C920.059 440.701 919.418 440.78 918.72 440.78ZM919.193 438.384C920.048 438.384 920.79 438.226 921.42 437.911C922.073 437.574 922.624 437.124 923.074 436.561C923.524 435.999 923.861 435.369 924.086 434.671C924.334 433.951 924.458 433.22 924.458 432.477H920.171C919.069 432.477 918.18 432.612 917.505 432.882C916.83 433.13 916.346 433.479 916.054 433.929C915.761 434.379 915.615 434.896 915.615 435.481C915.615 436.066 915.75 436.584 916.02 437.034C916.313 437.461 916.729 437.799 917.269 438.046C917.809 438.271 918.45 438.384 919.193 438.384ZM930.655 440.375V423.635H933.186L933.423 426.402H933.49C934.075 425.435 934.851 424.67 935.819 424.107C936.786 423.522 937.923 423.23 939.228 423.23C940.533 423.23 941.669 423.5 942.636 424.04C943.604 424.557 944.346 425.367 944.864 426.47C945.404 427.55 945.674 428.922 945.674 430.587V440.375H942.839V430.891C942.839 429.159 942.468 427.854 941.725 426.976C940.983 426.099 939.914 425.66 938.519 425.66C937.551 425.66 936.685 425.896 935.92 426.369C935.178 426.841 934.581 427.527 934.131 428.427C933.704 429.305 933.49 430.396 933.49 431.701V440.375H930.655ZM955.699 440.375C954.686 440.375 953.809 440.217 953.066 439.902C952.324 439.587 951.75 439.059 951.345 438.316C950.963 437.551 950.771 436.527 950.771 435.245V425.795H947.869V423.635H950.771L951.109 419.619H953.606V423.635H958.534V425.795H953.606V435.245C953.606 436.37 953.82 437.124 954.248 437.506C954.675 437.889 955.429 438.08 956.509 438.08H958.264V440.375H955.699ZM967.498 440.78C966.171 440.78 964.978 440.555 963.921 440.105C962.863 439.632 962.008 438.98 961.356 438.148C960.726 437.292 960.332 436.291 960.174 435.144H963.077C963.212 435.706 963.448 436.246 963.786 436.764C964.123 437.281 964.596 437.709 965.203 438.046C965.833 438.361 966.609 438.519 967.532 438.519C968.342 438.519 968.994 438.406 969.489 438.181C970.007 437.934 970.389 437.619 970.637 437.236C970.907 436.831 971.042 436.392 971.042 435.92C971.042 435.29 970.873 434.806 970.536 434.469C970.198 434.109 969.714 433.816 969.084 433.591C968.454 433.344 967.701 433.107 966.823 432.882C966.148 432.702 965.462 432.5 964.764 432.275C964.067 432.05 963.426 431.769 962.841 431.431C962.278 431.071 961.817 430.632 961.457 430.115C961.119 429.575 960.951 428.9 960.951 428.09C960.951 427.167 961.198 426.346 961.693 425.626C962.188 424.884 962.886 424.299 963.786 423.871C964.708 423.444 965.788 423.23 967.026 423.23C968.803 423.23 970.254 423.669 971.379 424.546C972.527 425.424 973.191 426.695 973.371 428.36H970.569C970.479 427.46 970.119 426.762 969.489 426.267C968.882 425.75 968.049 425.491 966.992 425.491C965.957 425.491 965.158 425.716 964.596 426.166C964.056 426.616 963.786 427.179 963.786 427.854C963.786 428.304 963.932 428.686 964.224 429.001C964.517 429.294 964.956 429.552 965.541 429.777C966.148 429.98 966.891 430.205 967.768 430.453C968.803 430.745 969.782 431.071 970.704 431.431C971.649 431.791 972.414 432.286 972.999 432.916C973.607 433.524 973.911 434.39 973.911 435.515C973.933 436.55 973.674 437.461 973.134 438.249C972.617 439.036 971.874 439.655 970.907 440.105C969.962 440.555 968.826 440.78 967.498 440.78Z" fill="#48BA86"/>
<path d="M820.7 363V405H815.36V367.14H815L793.4 376.2V370.98L812.96 363H820.7ZM862.188 405.6H857.208C848.248 405.6 841.788 404.1 837.828 401.1C833.908 398.06 831.948 393.3 831.948 386.82V381.18C831.948 374.7 833.908 369.96 837.828 366.96C841.788 363.92 848.248 362.4 857.208 362.4H862.188C871.148 362.4 877.588 363.92 881.508 366.96C885.468 369.96 887.448 374.7 887.448 381.18V386.82C887.448 393.3 885.468 398.06 881.508 401.1C877.588 404.1 871.148 405.6 862.188 405.6ZM859.668 401.22C864.268 401.22 868.048 400.9 871.008 400.26C873.968 399.62 876.248 398.6 877.848 397.2C879.488 395.8 880.608 394.18 881.208 392.34C881.808 390.5 882.108 388.18 882.108 385.38V382.62C882.108 379.82 881.808 377.5 881.208 375.66C880.608 373.82 879.488 372.2 877.848 370.8C876.248 369.4 873.968 368.4 871.008 367.8C868.048 367.16 864.268 366.84 859.668 366.84C855.068 366.84 851.288 367.16 848.328 367.8C845.408 368.4 843.148 369.4 841.548 370.8C839.948 372.2 838.848 373.82 838.248 375.66C837.648 377.5 837.348 379.82 837.348 382.62V385.38C837.348 387.62 837.528 389.54 837.888 391.14C838.248 392.7 838.908 394.16 839.868 395.52C840.828 396.84 842.128 397.9 843.768 398.7C845.448 399.5 847.588 400.12 850.188 400.56C852.828 401 855.988 401.22 859.668 401.22ZM926.648 405.6H921.668C912.708 405.6 906.248 404.1 902.288 401.1C898.368 398.06 896.408 393.3 896.408 386.82V381.18C896.408 374.7 898.368 369.96 902.288 366.96C906.248 363.92 912.708 362.4 921.668 362.4H926.648C935.608 362.4 942.048 363.92 945.968 366.96C949.928 369.96 951.908 374.7 951.908 381.18V386.82C951.908 393.3 949.928 398.06 945.968 401.1C942.048 404.1 935.608 405.6 926.648 405.6ZM924.128 401.22C928.728 401.22 932.508 400.9 935.468 400.26C938.428 399.62 940.708 398.6 942.308 397.2C943.948 395.8 945.068 394.18 945.668 392.34C946.268 390.5 946.568 388.18 946.568 385.38V382.62C946.568 379.82 946.268 377.5 945.668 375.66C945.068 373.82 943.948 372.2 942.308 370.8C940.708 369.4 938.428 368.4 935.468 367.8C932.508 367.16 928.728 366.84 924.128 366.84C919.528 366.84 915.748 367.16 912.788 367.8C909.868 368.4 907.608 369.4 906.008 370.8C904.408 372.2 903.308 373.82 902.708 375.66C902.108 377.5 901.808 379.82 901.808 382.62V385.38C901.808 387.62 901.988 389.54 902.348 391.14C902.708 392.7 903.368 394.16 904.328 395.52C905.288 396.84 906.588 397.9 908.228 398.7C909.908 399.5 912.048 400.12 914.648 400.56C917.288 401 920.448 401.22 924.128 401.22ZM991.108 405.6H986.128C977.168 405.6 970.708 404.1 966.748 401.1C962.828 398.06 960.868 393.3 960.868 386.82V381.18C960.868 374.7 962.828 369.96 966.748 366.96C970.708 363.92 977.168 362.4 986.128 362.4H991.108C1000.07 362.4 1006.51 363.92 1010.43 366.96C1014.39 369.96 1016.37 374.7 1016.37 381.18V386.82C1016.37 393.3 1014.39 398.06 1010.43 401.1C1006.51 404.1 1000.07 405.6 991.108 405.6ZM988.588 401.22C993.188 401.22 996.968 400.9 999.928 400.26C1002.89 399.62 1005.17 398.6 1006.77 397.2C1008.41 395.8 1009.53 394.18 1010.13 392.34C1010.73 390.5 1011.03 388.18 1011.03 385.38V382.62C1011.03 379.82 1010.73 377.5 1010.13 375.66C1009.53 373.82 1008.41 372.2 1006.77 370.8C1005.17 369.4 1002.89 368.4 999.928 367.8C996.968 367.16 993.188 366.84 988.588 366.84C983.988 366.84 980.208 367.16 977.248 367.8C974.328 368.4 972.068 369.4 970.468 370.8C968.868 372.2 967.768 373.82 967.168 375.66C966.568 377.5 966.268 379.82 966.268 382.62V385.38C966.268 387.62 966.448 389.54 966.808 391.14C967.168 392.7 967.828 394.16 968.788 395.52C969.748 396.84 971.048 397.9 972.688 398.7C974.368 399.5 976.508 400.12 979.108 400.56C981.748 401 984.908 401.22 988.588 401.22ZM1037.15 387.12H1024.91V383.34H1037.15V370.56H1040.93V383.34H1053.11V387.12H1040.93V399.96H1037.15V387.12Z" fill="#48BA86"/>
<path d="M1230.74 471.626V476H1180.43V469.378C1180.43 464.356 1181.55 460.752 1183.78 458.565C1186.04 456.337 1190.07 454.96 1195.87 454.434L1213.97 452.55C1218.38 452.064 1221.36 451.335 1222.9 450.363C1224.48 449.391 1225.27 447.69 1225.27 445.26V444.653C1225.27 442.101 1223.85 440.259 1221.02 439.125C1218.18 437.95 1213.48 437.363 1206.92 437.363C1202.43 437.363 1198.84 437.687 1196.17 438.335C1193.5 438.942 1191.55 439.813 1190.34 440.947C1189.16 442.081 1188.29 443.64 1187.72 445.625H1182.08C1182.6 443.073 1183.51 440.947 1184.81 439.246C1186.1 437.545 1187.81 436.249 1189.91 435.358C1192.02 434.427 1194.31 433.779 1196.78 433.414C1199.29 433.05 1202.26 432.867 1205.71 432.867H1207.71C1215.33 432.867 1221.06 433.738 1224.9 435.48C1228.75 437.181 1230.68 440.076 1230.68 444.167V445.503C1230.68 448.905 1229.62 451.518 1227.52 453.34C1225.45 455.122 1221.6 456.297 1215.97 456.864L1197.32 458.808C1193.03 459.253 1190.03 460.104 1188.33 461.359C1186.67 462.615 1185.84 464.822 1185.84 467.981V471.626H1230.74ZM1267.77 476.608H1264.61C1257.2 476.608 1251.63 475.716 1247.91 473.934C1244.22 472.152 1242 469.297 1241.23 465.369H1246.88C1247.44 467.758 1249.22 469.479 1252.22 470.532C1255.22 471.585 1259.84 472.112 1266.07 472.112C1273 472.112 1277.9 471.423 1280.77 470.046C1283.69 468.629 1285.15 466.239 1285.15 462.878V461.602C1285.15 458.079 1283.79 455.628 1281.08 454.251C1278.36 452.874 1273.48 452.186 1266.44 452.186C1261.01 452.186 1256.8 452.591 1253.8 453.401C1250.8 454.211 1248.62 455.507 1247.24 457.289H1242.14L1244.87 433.475H1287.34V437.849H1249.79L1247.91 452.429H1248.21C1250.6 449.31 1257.22 447.751 1268.08 447.751C1276.18 447.751 1281.95 448.804 1285.39 450.91C1288.83 453.016 1290.56 456.54 1290.56 461.481V462.878C1290.56 467.657 1288.75 471.14 1285.15 473.327C1281.54 475.514 1275.75 476.608 1267.77 476.608ZM1311.01 457.896H1298.62V454.069H1311.01V441.129H1314.84V454.069H1327.17V457.896H1314.84V470.897H1311.01V457.896Z" fill="#48BA86"/>
<path d="M1157.69 510.338H1156.94C1148.28 510.338 1143.35 508.324 1142.16 504.296H1145.47C1146.77 506.681 1150.8 507.874 1157.55 507.874C1161.49 507.874 1164.4 507.525 1166.29 506.827C1168.2 506.13 1169.16 504.915 1169.16 503.182V502.879C1169.16 501.574 1168.69 500.685 1167.74 500.212C1166.8 499.717 1165.03 499.414 1162.44 499.301L1152.56 498.964C1149.25 498.874 1146.91 498.39 1145.54 497.512C1144.19 496.612 1143.51 495.161 1143.51 493.159V492.99C1143.51 490.47 1144.6 488.681 1146.78 487.624C1148.99 486.566 1152.24 486.037 1156.54 486.037H1157.35C1159.15 486.037 1160.76 486.127 1162.17 486.307C1163.59 486.487 1164.95 486.791 1166.26 487.219C1167.56 487.646 1168.65 488.276 1169.53 489.109C1170.41 489.941 1171.03 490.954 1171.39 492.146H1168.15C1167.56 490.774 1166.31 489.829 1164.4 489.311C1162.49 488.771 1159.99 488.501 1156.91 488.501C1153.26 488.501 1150.64 488.839 1149.05 489.514C1147.45 490.189 1146.65 491.269 1146.65 492.754V492.821C1146.65 494.126 1147.12 495.026 1148.07 495.521C1149.01 495.994 1150.78 496.286 1153.37 496.399L1163.25 496.77C1166.61 496.905 1168.95 497.4 1170.27 498.255C1171.62 499.11 1172.3 500.539 1172.3 502.541V502.811C1172.3 504.296 1171.95 505.545 1171.25 506.557C1170.58 507.547 1169.55 508.312 1168.18 508.852C1166.83 509.392 1165.31 509.775 1163.63 510C1161.96 510.225 1159.98 510.338 1157.69 510.338ZM1177.11 515.738V492.112H1180.01V495.521H1180.15C1181.34 493.024 1184.31 491.775 1189.06 491.775H1190.34C1197.23 491.775 1200.67 494.565 1200.67 500.145V501.9C1200.67 504.825 1199.79 506.962 1198.04 508.312C1196.3 509.663 1193.74 510.338 1190.34 510.338H1189.06C1184.31 510.338 1181.34 509.089 1180.15 506.591H1180.01V515.738H1177.11ZM1188.86 494.171C1185.73 494.171 1183.47 494.599 1182.07 495.454C1180.7 496.309 1180.01 497.85 1180.01 500.078V501.562C1180.01 503.992 1180.7 505.669 1182.07 506.591C1183.47 507.491 1185.73 507.941 1188.86 507.941C1192.01 507.941 1194.28 507.491 1195.67 506.591C1197.07 505.669 1197.77 503.992 1197.77 501.562V500.55C1197.77 498.12 1197.07 496.455 1195.67 495.555C1194.28 494.632 1192.01 494.171 1188.86 494.171ZM1217.14 510.338H1215.15C1211.57 510.338 1208.87 509.674 1207.05 508.346C1205.25 506.996 1204.35 504.87 1204.35 501.967V500.212C1204.35 497.287 1205.25 495.15 1207.05 493.8C1208.85 492.45 1211.55 491.775 1215.15 491.775H1217.14C1220.74 491.775 1223.43 492.45 1225.21 493.8C1227.01 495.15 1227.91 497.287 1227.91 500.212V501.967C1227.91 504.87 1227.01 506.996 1225.21 508.346C1223.43 509.674 1220.74 510.338 1217.14 510.338ZM1216.16 507.941C1219.29 507.941 1221.54 507.491 1222.91 506.591C1224.31 505.669 1225.01 503.992 1225.01 501.562V500.55C1225.01 498.12 1224.31 496.455 1222.91 495.555C1221.54 494.632 1219.29 494.171 1216.16 494.171C1212.99 494.171 1210.71 494.632 1209.31 495.555C1207.94 496.455 1207.25 498.12 1207.25 500.55V501.562C1207.25 503.992 1207.94 505.669 1209.31 506.591C1210.71 507.491 1212.99 507.941 1216.16 507.941ZM1252.71 498.829V510H1249.8V499.335C1249.8 498.3 1249.62 497.422 1249.26 496.702C1248.9 495.982 1248.39 495.454 1247.71 495.116C1247.04 494.756 1246.34 494.509 1245.62 494.374C1244.92 494.239 1244.11 494.171 1243.19 494.171C1238.01 494.171 1235.43 496.207 1235.43 500.28V510H1232.49V492.112H1235.43V495.521H1235.56C1236.82 493.024 1239.59 491.775 1243.86 491.775C1249.76 491.775 1252.71 494.126 1252.71 498.829ZM1268.41 510.338H1267.93C1264.67 510.338 1262.11 509.977 1260.24 509.257C1258.39 508.537 1257.28 507.277 1256.9 505.477H1260C1260.63 507.255 1263.38 508.144 1268.24 508.144C1271.09 508.144 1273.14 507.907 1274.38 507.435C1275.64 506.962 1276.28 506.096 1276.3 504.836V504.701C1276.3 503.734 1275.92 503.081 1275.16 502.744C1274.39 502.406 1273 502.204 1270.97 502.136L1264.56 501.9C1262.04 501.81 1260.24 501.416 1259.16 500.719C1258.1 500.021 1257.57 498.919 1257.57 497.411V496.972C1257.57 495.082 1258.42 493.744 1260.1 492.956C1261.81 492.169 1264.29 491.775 1267.53 491.775H1267.93C1271.08 491.775 1273.51 492.157 1275.22 492.922C1276.93 493.665 1278.02 494.891 1278.5 496.601H1275.39C1275.03 495.679 1274.24 495.015 1273.03 494.61C1271.81 494.182 1270.03 493.969 1267.66 493.969C1265.08 493.969 1263.23 494.182 1262.13 494.61C1261.05 495.037 1260.5 495.825 1260.47 496.972V497.074C1260.47 497.996 1260.86 498.637 1261.62 498.997C1262.41 499.335 1263.82 499.549 1265.84 499.639L1272.25 499.875C1274.77 499.965 1276.56 500.359 1277.62 501.056C1278.68 501.754 1279.21 502.856 1279.21 504.364V504.735C1279.21 506.827 1278.28 508.29 1276.44 509.122C1274.59 509.933 1271.92 510.338 1268.41 510.338ZM1295.53 510.338H1293.54C1289.96 510.338 1287.26 509.674 1285.44 508.346C1283.64 506.996 1282.74 504.87 1282.74 501.967V500.212C1282.74 497.287 1283.64 495.15 1285.44 493.8C1287.24 492.45 1289.94 491.775 1293.54 491.775H1295.53C1299.13 491.775 1301.82 492.45 1303.6 493.8C1305.4 495.15 1306.3 497.287 1306.3 500.212V501.967C1306.3 504.87 1305.4 506.996 1303.6 508.346C1301.82 509.674 1299.13 510.338 1295.53 510.338ZM1294.55 507.941C1297.68 507.941 1299.93 507.491 1301.3 506.591C1302.7 505.669 1303.4 503.992 1303.4 501.562V500.55C1303.4 498.12 1302.7 496.455 1301.3 495.555C1299.93 494.632 1297.68 494.171 1294.55 494.171C1291.38 494.171 1289.1 494.632 1287.7 495.555C1286.33 496.455 1285.64 498.12 1285.64 500.55V501.562C1285.64 503.992 1286.33 505.669 1287.7 506.591C1289.1 507.491 1291.38 507.941 1294.55 507.941ZM1321.88 492.112H1324.08V494.509H1321.34C1320.26 494.509 1319.31 494.587 1318.47 494.745C1317.66 494.88 1316.89 495.139 1316.14 495.521C1315.4 495.881 1314.83 496.432 1314.42 497.175C1314.02 497.917 1313.82 498.829 1313.82 499.909V510H1310.88V492.112H1313.82V495.487H1313.95C1314.92 493.237 1317.56 492.112 1321.88 492.112ZM1338.09 510.338H1337.62C1334.36 510.338 1331.79 509.977 1329.92 509.257C1328.08 508.537 1326.97 507.277 1326.58 505.477H1329.69C1330.32 507.255 1333.06 508.144 1337.92 508.144C1340.78 508.144 1342.83 507.907 1344.07 507.435C1345.33 506.962 1345.97 506.096 1345.99 504.836V504.701C1345.99 503.734 1345.61 503.081 1344.84 502.744C1344.08 502.406 1342.68 502.204 1340.66 502.136L1334.24 501.9C1331.72 501.81 1329.92 501.416 1328.84 500.719C1327.79 500.021 1327.26 498.919 1327.26 497.411V496.972C1327.26 495.082 1328.1 493.744 1329.79 492.956C1331.5 492.169 1333.97 491.775 1337.21 491.775H1337.62C1340.77 491.775 1343.2 492.157 1344.91 492.922C1346.62 493.665 1347.71 494.891 1348.18 496.601H1345.08C1344.72 495.679 1343.93 495.015 1342.72 494.61C1341.5 494.182 1339.71 493.969 1337.35 493.969C1334.76 493.969 1332.92 494.182 1331.81 494.61C1330.73 495.037 1330.18 495.825 1330.16 496.972V497.074C1330.16 497.996 1330.54 498.637 1331.31 498.997C1332.1 499.335 1333.5 499.549 1335.53 499.639L1341.94 499.875C1344.46 499.965 1346.25 500.359 1347.31 501.056C1348.36 501.754 1348.89 502.856 1348.89 504.364V504.735C1348.89 506.827 1347.97 508.29 1346.12 509.122C1344.28 509.933 1341.6 510.338 1338.09 510.338Z" fill="#48BA86"/>
<path d="M492.548 501.225V510H489.443V486.375H508.613C511.965 486.375 514.384 486.949 515.869 488.096C517.354 489.221 518.096 491.044 518.096 493.564V494.205C518.096 496.635 517.354 498.412 515.869 499.537C514.406 500.662 511.988 501.225 508.613 501.225H492.548ZM507.735 488.974H492.548V498.626H507.735C510.503 498.626 512.404 498.289 513.439 497.614C514.474 496.916 514.991 495.724 514.991 494.036V493.564C514.991 491.854 514.463 490.661 513.405 489.986C512.37 489.311 510.48 488.974 507.735 488.974ZM533.323 492.112H535.517V494.509H532.783C531.703 494.509 530.747 494.587 529.914 494.745C529.104 494.88 528.328 495.139 527.586 495.521C526.843 495.881 526.269 496.432 525.864 497.175C525.459 497.917 525.257 498.829 525.257 499.909V510H522.321V492.112H525.257V495.487H525.392C526.359 493.237 529.003 492.112 533.323 492.112ZM550.619 510.338H548.628C545.05 510.338 542.35 509.674 540.528 508.346C538.728 506.996 537.828 504.87 537.828 501.967V500.212C537.828 497.287 538.728 495.15 540.528 493.8C542.328 492.45 545.028 491.775 548.628 491.775H550.619C554.219 491.775 556.908 492.45 558.685 493.8C560.485 495.15 561.385 497.287 561.385 500.212V501.967C561.385 504.87 560.485 506.996 558.685 508.346C556.908 509.674 554.219 510.338 550.619 510.338ZM549.64 507.941C552.768 507.941 555.018 507.491 556.39 506.591C557.785 505.669 558.483 503.992 558.483 501.562V500.55C558.483 498.12 557.785 496.455 556.39 495.555C555.018 494.632 552.768 494.171 549.64 494.171C546.468 494.171 544.184 494.632 542.789 495.555C541.416 496.455 540.73 498.12 540.73 500.55V501.562C540.73 503.992 541.416 505.669 542.789 506.591C544.184 507.491 546.468 507.941 549.64 507.941ZM565.966 486.375H568.902V489.007H565.966V486.375ZM565.966 492.112H568.902V506.794C568.902 508.976 568.666 510.641 568.194 511.789C567.721 512.959 566.776 514.275 565.359 515.738H562.119C563.671 514.185 564.695 512.858 565.19 511.755C565.707 510.653 565.966 509.201 565.966 507.401V492.112ZM592.803 505.039H595.807C595.289 506.884 594.175 508.234 592.465 509.089C590.755 509.921 588.393 510.338 585.378 510.338H584.23C580.63 510.338 577.93 509.674 576.13 508.346C574.353 506.996 573.464 504.87 573.464 501.967V500.212C573.464 497.287 574.353 495.15 576.13 493.8C577.93 492.45 580.63 491.775 584.23 491.775H585.31C588.91 491.775 591.61 492.45 593.41 493.8C595.21 495.15 596.11 497.287 596.11 500.212V501.664H576.367V501.697C576.367 504.127 577.03 505.804 578.358 506.726C579.685 507.626 581.834 508.076 584.804 508.076C587.144 508.076 588.922 507.862 590.137 507.435C591.374 507.007 592.263 506.209 592.803 505.039ZM591.115 495.251C589.743 494.351 587.639 493.901 584.804 493.901C581.969 493.901 579.888 494.317 578.56 495.15C577.233 495.982 576.502 497.479 576.367 499.639H593.208V499.504C593.208 497.546 592.51 496.129 591.115 495.251ZM611.82 510.338H610.47C606.87 510.338 604.17 509.674 602.37 508.346C600.592 506.996 599.703 504.87 599.703 501.967V500.212C599.703 497.287 600.592 495.15 602.37 493.8C604.17 492.45 606.87 491.775 610.47 491.775H611.82C617.85 491.775 621.326 493.62 622.248 497.31H619.245C618.727 496.117 617.816 495.296 616.511 494.846C615.228 494.396 613.473 494.171 611.246 494.171C608.208 494.171 606.003 494.632 604.631 495.555C603.281 496.455 602.606 498.12 602.606 500.55V501.562C602.606 503.992 603.281 505.669 604.631 506.591C606.003 507.491 608.208 507.941 611.246 507.941C613.473 507.941 615.228 507.716 616.511 507.266C617.816 506.816 618.727 505.995 619.245 504.802H622.248C621.326 508.492 617.85 510.338 611.82 510.338ZM629.97 494.374H624.334V492.112H629.97V486.375H632.873V492.112H640.061V494.374H632.873V503.25C632.873 505.117 633.278 506.332 634.088 506.895C634.92 507.457 636.371 507.739 638.441 507.739H640.061V510H637.733C634.853 510 632.839 509.539 631.691 508.616C630.544 507.671 629.97 505.95 629.97 503.452V494.374ZM654.924 510.338H654.451C651.189 510.338 648.624 509.977 646.756 509.257C644.911 508.537 643.798 507.277 643.415 505.477H646.52C647.15 507.255 649.895 508.144 654.755 508.144C657.613 508.144 659.66 507.907 660.898 507.435C662.158 506.962 662.799 506.096 662.821 504.836V504.701C662.821 503.734 662.439 503.081 661.674 502.744C660.909 502.406 659.514 502.204 657.489 502.136L651.076 501.9C648.556 501.81 646.756 501.416 645.676 500.719C644.619 500.021 644.09 498.919 644.09 497.411V496.972C644.09 495.082 644.934 493.744 646.621 492.956C648.331 492.169 650.806 491.775 654.046 491.775H654.451C657.601 491.775 660.031 492.157 661.741 492.922C663.451 493.665 664.543 494.891 665.015 496.601H661.91C661.55 495.679 660.763 495.015 659.548 494.61C658.333 494.182 656.544 493.969 654.181 493.969C651.594 493.969 649.749 494.182 648.646 494.61C647.566 495.037 647.015 495.825 646.993 496.972V497.074C646.993 497.996 647.375 498.637 648.14 498.997C648.928 499.335 650.334 499.549 652.359 499.639L658.771 499.875C661.291 499.965 663.08 500.359 664.138 501.056C665.195 501.754 665.724 502.856 665.724 504.364V504.735C665.724 506.827 664.801 508.29 662.956 509.122C661.111 509.933 658.434 510.338 654.924 510.338Z" fill="#48BA86"/>
<defs>
<filter id="filter0_dddddd_3644_326757" x="-193.25" y="0.75" width="896.5" height="717.5" filterUnits="userSpaceOnUse" color-interpolation-filters="sRGB">
<feFlood flood-opacity="0" result="BackgroundImageFix"/>
<feColorMatrix in="SourceAlpha" type="matrix" values="0 0 0 0 0 0 0 0 0 0 0 0 0 0 0 0 0 0 127 0" result="hardAlpha"/>
<feOffset/>
<feGaussianBlur stdDeviation="5.8892"/>
<feColorMatrix type="matrix" values="0 0 0 0 0.282353 0 0 0 0 0.729412 0 0 0 0 0.52549 0 0 0 1 0"/>
<feBlend mode="normal" in2="BackgroundImageFix" result="effect1_dropShadow_3644_326757"/>
<feColorMatrix in="SourceAlpha" type="matrix" values="0 0 0 0 0 0 0 0 0 0 0 0 0 0 0 0 0 0 127 0" result="hardAlpha"/>
<feOffset/>
<feGaussianBlur stdDeviation="11.7784"/>
<feColorMatrix type="matrix" values="0 0 0 0 0.282353 0 0 0 0 0.729412 0 0 0 0 0.52549 0 0 0 1 0"/>
<feBlend mode="normal" in2="effect1_dropShadow_3644_326757" result="effect2_dropShadow_3644_326757"/>
<feColorMatrix in="SourceAlpha" type="matrix" values="0 0 0 0 0 0 0 0 0 0 0 0 0 0 0 0 0 0 127 0" result="hardAlpha"/>
<feOffset/>
<feGaussianBlur stdDeviation="41.2244"/>
<feColorMatrix type="matrix" values="0 0 0 0 0.282353 0 0 0 0 0.729412 0 0 0 0 0.52549 0 0 0 1 0"/>
<feBlend mode="normal" in2="effect2_dropShadow_3644_326757" result="effect3_dropShadow_3644_326757"/>
<feColorMatrix in="SourceAlpha" type="matrix" values="0 0 0 0 0 0 0 0 0 0 0 0 0 0 0 0 0 0 127 0" result="hardAlpha"/>
<feOffset/>
<feGaussianBlur stdDeviation="82.4488"/>
<feColorMatrix type="matrix" values="0 0 0 0 0.282353 0 0 0 0 0.729412 0 0 0 0 0.52549 0 0 0 1 0"/>
<feBlend mode="normal" in2="effect3_dropShadow_3644_326757" result="effect4_dropShadow_3644_326757"/>
<feColorMatrix in="SourceAlpha" type="matrix" values="0 0 0 0 0 0 0 0 0 0 0 0 0 0 0 0 0 0 127 0" result="hardAlpha"/>
<feOffset/>
<feGaussianBlur stdDeviation="140.625"/>
<feColorMatrix type="matrix" values="0 0 0 0 0.282353 0 0 0 0 0.729412 0 0 0 0 0.52549 0 0 0 1 0"/>
<feBlend mode="normal" in2="effect4_dropShadow_3644_326757" result="effect5_dropShadow_3644_326757"/>
<feColorMatrix in="SourceAlpha" type="matrix" values="0 0 0 0 0 0 0 0 0 0 0 0 0 0 0 0 0 0 127 0" result="hardAlpha"/>
<feOffset/>
<feGaussianBlur stdDeviation="140.625"/>
<feColorMatrix type="matrix" values="0 0 0 0 0.282353 0 0 0 0 0.729412 0 0 0 0 0.52549 0 0 0 1 0"/>
<feBlend mode="normal" in2="effect5_dropShadow_3644_326757" result="effect6_dropShadow_3644_326757"/>
<feBlend mode="normal" in="SourceGraphic" in2="effect6_dropShadow_3644_326757" result="shape"/>
</filter>
<filter id="filter1_dddddd_3644_326757" x="140.875" y="135.75" width="892.427" height="717.505" filterUnits="userSpaceOnUse" color-interpolation-filters="sRGB">
<feFlood flood-opacity="0" result="BackgroundImageFix"/>
<feColorMatrix in="SourceAlpha" type="matrix" values="0 0 0 0 0 0 0 0 0 0 0 0 0 0 0 0 0 0 127 0" result="hardAlpha"/>
<feOffset/>
<feGaussianBlur stdDeviation="5.8892"/>
<feColorMatrix type="matrix" values="0 0 0 0 0.282353 0 0 0 0 0.729412 0 0 0 0 0.52549 0 0 0 1 0"/>
<feBlend mode="normal" in2="BackgroundImageFix" result="effect1_dropShadow_3644_326757"/>
<feColorMatrix in="SourceAlpha" type="matrix" values="0 0 0 0 0 0 0 0 0 0 0 0 0 0 0 0 0 0 127 0" result="hardAlpha"/>
<feOffset/>
<feGaussianBlur stdDeviation="11.7784"/>
<feColorMatrix type="matrix" values="0 0 0 0 0.282353 0 0 0 0 0.729412 0 0 0 0 0.52549 0 0 0 1 0"/>
<feBlend mode="normal" in2="effect1_dropShadow_3644_326757" result="effect2_dropShadow_3644_326757"/>
<feColorMatrix in="SourceAlpha" type="matrix" values="0 0 0 0 0 0 0 0 0 0 0 0 0 0 0 0 0 0 127 0" result="hardAlpha"/>
<feOffset/>
<feGaussianBlur stdDeviation="41.2244"/>
<feColorMatrix type="matrix" values="0 0 0 0 0.282353 0 0 0 0 0.729412 0 0 0 0 0.52549 0 0 0 1 0"/>
<feBlend mode="normal" in2="effect2_dropShadow_3644_326757" result="effect3_dropShadow_3644_326757"/>
<feColorMatrix in="SourceAlpha" type="matrix" values="0 0 0 0 0 0 0 0 0 0 0 0 0 0 0 0 0 0 127 0" result="hardAlpha"/>
<feOffset/>
<feGaussianBlur stdDeviation="82.4488"/>
<feColorMatrix type="matrix" values="0 0 0 0 0.282353 0 0 0 0 0.729412 0 0 0 0 0.52549 0 0 0 1 0"/>
<feBlend mode="normal" in2="effect3_dropShadow_3644_326757" result="effect4_dropShadow_3644_326757"/>
<feColorMatrix in="SourceAlpha" type="matrix" values="0 0 0 0 0 0 0 0 0 0 0 0 0 0 0 0 0 0 127 0" result="hardAlpha"/>
<feOffset/>
<feGaussianBlur stdDeviation="140.625"/>
<feColorMatrix type="matrix" values="0 0 0 0 0.282353 0 0 0 0 0.729412 0 0 0 0 0.52549 0 0 0 1 0"/>
<feBlend mode="normal" in2="effect4_dropShadow_3644_326757" result="effect5_dropShadow_3644_326757"/>
<feColorMatrix in="SourceAlpha" type="matrix" values="0 0 0 0 0 0 0 0 0 0 0 0 0 0 0 0 0 0 127 0" result="hardAlpha"/>
<feOffset/>
<feGaussianBlur stdDeviation="140.625"/>
<feColorMatrix type="matrix" values="0 0 0 0 0.282353 0 0 0 0 0.729412 0 0 0 0 0.52549 0 0 0 1 0"/>
<feBlend mode="normal" in2="effect5_dropShadow_3644_326757" result="effect6_dropShadow_3644_326757"/>
<feBlend mode="normal" in="SourceGraphic" in2="effect6_dropShadow_3644_326757" result="shape"/>
</filter>
<filter id="filter2_dddddd_3644_326757" x="470.5" y="0.75" width="892.427" height="717.505" filterUnits="userSpaceOnUse" color-interpolation-filters="sRGB">
<feFlood flood-opacity="0" result="BackgroundImageFix"/>
<feColorMatrix in="SourceAlpha" type="matrix" values="0 0 0 0 0 0 0 0 0 0 0 0 0 0 0 0 0 0 127 0" result="hardAlpha"/>
<feOffset/>
<feGaussianBlur stdDeviation="5.8892"/>
<feColorMatrix type="matrix" values="0 0 0 0 0.282353 0 0 0 0 0.729412 0 0 0 0 0.52549 0 0 0 1 0"/>
<feBlend mode="normal" in2="BackgroundImageFix" result="effect1_dropShadow_3644_326757"/>
<feColorMatrix in="SourceAlpha" type="matrix" values="0 0 0 0 0 0 0 0 0 0 0 0 0 0 0 0 0 0 127 0" result="hardAlpha"/>
<feOffset/>
<feGaussianBlur stdDeviation="11.7784"/>
<feColorMatrix type="matrix" values="0 0 0 0 0.282353 0 0 0 0 0.729412 0 0 0 0 0.52549 0 0 0 1 0"/>
<feBlend mode="normal" in2="effect1_dropShadow_3644_326757" result="effect2_dropShadow_3644_326757"/>
<feColorMatrix in="SourceAlpha" type="matrix" values="0 0 0 0 0 0 0 0 0 0 0 0 0 0 0 0 0 0 127 0" result="hardAlpha"/>
<feOffset/>
<feGaussianBlur stdDeviation="41.2244"/>
<feColorMatrix type="matrix" values="0 0 0 0 0.282353 0 0 0 0 0.729412 0 0 0 0 0.52549 0 0 0 1 0"/>
<feBlend mode="normal" in2="effect2_dropShadow_3644_326757" result="effect3_dropShadow_3644_326757"/>
<feColorMatrix in="SourceAlpha" type="matrix" values="0 0 0 0 0 0 0 0 0 0 0 0 0 0 0 0 0 0 127 0" result="hardAlpha"/>
<feOffset/>
<feGaussianBlur stdDeviation="82.4488"/>
<feColorMatrix type="matrix" values="0 0 0 0 0.282353 0 0 0 0 0.729412 0 0 0 0 0.52549 0 0 0 1 0"/>
<feBlend mode="normal" in2="effect3_dropShadow_3644_326757" result="effect4_dropShadow_3644_326757"/>
<feColorMatrix in="SourceAlpha" type="matrix" values="0 0 0 0 0 0 0 0 0 0 0 0 0 0 0 0 0 0 127 0" result="hardAlpha"/>
<feOffset/>
<feGaussianBlur stdDeviation="140.625"/>
<feColorMatrix type="matrix" values="0 0 0 0 0.282353 0 0 0 0 0.729412 0 0 0 0 0.52549 0 0 0 1 0"/>
<feBlend mode="normal" in2="effect4_dropShadow_3644_326757" result="effect5_dropShadow_3644_326757"/>
<feColorMatrix in="SourceAlpha" type="matrix" values="0 0 0 0 0 0 0 0 0 0 0 0 0 0 0 0 0 0 127 0" result="hardAlpha"/>
<feOffset/>
<feGaussianBlur stdDeviation="140.625"/>
<feColorMatrix type="matrix" values="0 0 0 0 0.282353 0 0 0 0 0.729412 0 0 0 0 0.52549 0 0 0 1 0"/>
<feBlend mode="normal" in2="effect5_dropShadow_3644_326757" result="effect6_dropShadow_3644_326757"/>
<feBlend mode="normal" in="SourceGraphic" in2="effect6_dropShadow_3644_326757" result="shape"/>
</filter>
<filter id="filter3_dddddd_3644_326757" x="800.125" y="135.75" width="892.427" height="717.505" filterUnits="userSpaceOnUse" color-interpolation-filters="sRGB">
<feFlood flood-opacity="0" result="BackgroundImageFix"/>
<feColorMatrix in="SourceAlpha" type="matrix" values="0 0 0 0 0 0 0 0 0 0 0 0 0 0 0 0 0 0 127 0" result="hardAlpha"/>
<feOffset/>
<feGaussianBlur stdDeviation="5.8892"/>
<feColorMatrix type="matrix" values="0 0 0 0 0.282353 0 0 0 0 0.729412 0 0 0 0 0.52549 0 0 0 1 0"/>
<feBlend mode="normal" in2="BackgroundImageFix" result="effect1_dropShadow_3644_326757"/>
<feColorMatrix in="SourceAlpha" type="matrix" values="0 0 0 0 0 0 0 0 0 0 0 0 0 0 0 0 0 0 127 0" result="hardAlpha"/>
<feOffset/>
<feGaussianBlur stdDeviation="11.7784"/>
<feColorMatrix type="matrix" values="0 0 0 0 0.282353 0 0 0 0 0.729412 0 0 0 0 0.52549 0 0 0 1 0"/>
<feBlend mode="normal" in2="effect1_dropShadow_3644_326757" result="effect2_dropShadow_3644_326757"/>
<feColorMatrix in="SourceAlpha" type="matrix" values="0 0 0 0 0 0 0 0 0 0 0 0 0 0 0 0 0 0 127 0" result="hardAlpha"/>
<feOffset/>
<feGaussianBlur stdDeviation="41.2244"/>
<feColorMatrix type="matrix" values="0 0 0 0 0.282353 0 0 0 0 0.729412 0 0 0 0 0.52549 0 0 0 1 0"/>
<feBlend mode="normal" in2="effect2_dropShadow_3644_326757" result="effect3_dropShadow_3644_326757"/>
<feColorMatrix in="SourceAlpha" type="matrix" values="0 0 0 0 0 0 0 0 0 0 0 0 0 0 0 0 0 0 127 0" result="hardAlpha"/>
<feOffset/>
<feGaussianBlur stdDeviation="82.4488"/>
<feColorMatrix type="matrix" values="0 0 0 0 0.282353 0 0 0 0 0.729412 0 0 0 0 0.52549 0 0 0 1 0"/>
<feBlend mode="normal" in2="effect3_dropShadow_3644_326757" result="effect4_dropShadow_3644_326757"/>
<feColorMatrix in="SourceAlpha" type="matrix" values="0 0 0 0 0 0 0 0 0 0 0 0 0 0 0 0 0 0 127 0" result="hardAlpha"/>
<feOffset/>
<feGaussianBlur stdDeviation="140.625"/>
<feColorMatrix type="matrix" values="0 0 0 0 0.282353 0 0 0 0 0.729412 0 0 0 0 0.52549 0 0 0 1 0"/>
<feBlend mode="normal" in2="effect4_dropShadow_3644_326757" result="effect5_dropShadow_3644_326757"/>
<feColorMatrix in="SourceAlpha" type="matrix" values="0 0 0 0 0 0 0 0 0 0 0 0 0 0 0 0 0 0 127 0" result="hardAlpha"/>
<feOffset/>
<feGaussianBlur stdDeviation="140.625"/>
<feColorMatrix type="matrix" values="0 0 0 0 0.282353 0 0 0 0 0.729412 0 0 0 0 0.52549 0 0 0 1 0"/>
<feBlend mode="normal" in2="effect5_dropShadow_3644_326757" result="effect6_dropShadow_3644_326757"/>
<feBlend mode="normal" in="SourceGraphic" in2="effect6_dropShadow_3644_326757" result="shape"/>
</filter>
</defs>
</svg>
