<svg width="560" height="530" viewBox="0 0 560 530" fill="none" xmlns="http://www.w3.org/2000/svg">
<g clip-path="url(#clip0_3101_265637)">
<path d="M505.742 174.756C506.48 174.533 508.068 174.563 508.039 175.623C507.102 178.939 506.873 182.402 506.135 185.766C502.525 203.338 497.293 220.518 492.939 237.908C491.287 244.822 489.359 251.689 488.428 258.75C486.998 271.301 488.311 283.922 488.451 296.502C488.463 298.09 488.639 299.672 488.756 301.266C487.83 301.248 486.904 301.23 485.99 301.213C485.721 299.982 485.557 298.74 485.387 297.504C484.484 297.803 483.564 297.984 482.621 297.814C482.609 298.963 482.609 300.111 482.603 301.266C480.969 300.891 479.293 300.99 477.646 301.131C477.494 300.012 477.348 298.893 477.195 297.779C472.66 299.525 467.041 298.623 463.332 302.297C465.424 303.264 467.328 305.062 469.766 304.963C477.377 304.939 485 305.074 492.611 304.635C498.295 304.441 504.014 304.559 509.662 303.926C508.9 305.49 507.119 305.977 505.514 305.93C493.244 306.428 480.951 306.937 468.67 306.697C468.781 308.004 470.434 310.271 468.734 310.898C469.004 310.875 469.537 310.84 469.801 310.822C471.336 320.508 473.041 330.158 474.523 339.85C474.758 340.799 474.359 341.707 473.316 341.807C470.756 329.93 469.057 317.889 466.777 305.959C465.775 305.619 464.773 305.291 463.771 304.98C466.637 317.508 468.195 330.328 471.705 342.703C472.174 344.367 474.154 344.707 475.643 344.619C484.309 344.461 492.992 344.391 501.641 343.688C501.518 340.23 502.385 336.855 502.895 333.463C503.609 329.473 504.254 325.471 505.039 321.492C505.25 321.463 505.684 321.393 505.9 321.363L505.607 321.158C504.734 320.42 505.619 319.072 505.607 318.123C506.586 314.074 506.855 309.727 508.496 305.906C508.777 305.842 509.334 305.713 509.615 305.648C509.469 309.07 508.443 312.41 507.793 315.773C506.457 322.822 505.191 329.889 504.148 336.99C504.014 339.592 503.023 342.023 502.625 344.578C502.584 345.539 501.529 345.791 500.768 345.891C498.646 346.195 496.461 345.609 494.404 346.318C491.287 346.078 488.176 346.57 485.059 346.529C482.299 346.811 479.527 346.43 476.773 346.752C474.119 346.887 470.656 346.26 470.076 343.148C466.303 329.555 463.971 315.592 461.398 301.729C463.408 299.227 466.701 297.826 469.871 297.475C472.145 297.281 474.377 296.637 476.68 296.73C476.404 287.877 476.668 278.994 475.748 270.176C474.518 263.156 468.963 258.27 464.035 253.641C460.461 250.166 456.828 246.656 454.074 242.467C453.383 241.617 453.77 240.51 453.822 239.549C454.303 239.555 455.258 239.561 455.732 239.566C459.904 241.195 463.795 243.486 467.469 246.035C470.768 248.355 473.275 251.578 475.555 254.859C477.242 257.607 478.924 260.455 479.662 263.631C480.986 268.822 480.377 274.219 480.166 279.498C480.078 283.4 479.738 287.297 479.844 291.205C480.113 293.725 480.471 296.232 480.652 298.764C480.852 295.061 480.576 291.357 480.723 287.648C480.699 278.525 482.779 269.045 479.68 260.191C477.453 255.047 474.225 250.295 470.082 246.498C465.98 243.246 461.562 240.234 456.553 238.588C456.254 237.838 457.168 236.789 457.994 237.076C463.994 237.955 469.35 241.107 474.283 244.471C477.219 246.439 479.346 249.357 480.734 252.586C480.641 250.371 479.504 248.414 478.766 246.381C476.398 240.234 475.853 233.602 473.85 227.35C471.547 219.451 467.064 212.484 463.086 205.371C461.199 202.635 459.781 199.6 458.469 196.559C458.064 194.549 456.992 192.141 458.486 190.324C459.084 189.387 460.332 189.65 460.994 190.371C468.178 197.672 473.756 206.561 477.213 216.205C479.094 221.543 480.547 227.021 481.701 232.564C482.158 234.516 482.375 236.596 483.471 238.336C482.727 243.439 481.977 248.555 481.619 253.705C481.484 259.172 481.854 264.639 481.883 270.105C482.551 278.807 482.182 287.549 482.521 296.268C483.406 296.484 484.303 296.736 485.193 296.982C485.797 284.08 483.523 271.266 483.471 258.369C483.605 245.684 486.072 233.162 489.242 220.922C490.666 215.643 491.709 210.252 493.514 205.084C495.816 196.518 498.945 188.186 502.021 179.854C502.76 177.879 503.738 175.723 505.742 174.756Z" fill="white"/>
<path d="M461.908 189.72C461.504 188.619 462.805 188.742 463.355 189.152C468.564 191.683 473.381 195.181 476.902 199.822C481.238 205.623 484.039 212.378 486.477 219.152C486.904 220.453 487.508 221.847 487.01 223.224C486.107 226.306 485.176 229.382 484.566 232.541C484.303 233.419 484.379 234.509 483.547 235.095C482.205 227.824 480.102 220.722 477.541 213.796C474.113 204.779 468.57 196.646 461.908 189.72Z" fill="white"/>
<path d="M105.916 236.724C113.258 231.714 121.666 227.94 130.496 226.681C130.936 227.396 131.123 228.216 131.369 229.013C132.031 229.165 132.699 229.37 133.385 229.358C140.287 229.247 146.943 231.884 152.762 235.429C155.152 236.917 157.713 238.241 159.74 240.233C160.596 240.872 160.73 242.167 160.244 243.075C159.934 243.655 159.594 244.218 159.266 244.792C158.92 244.716 158.24 244.569 157.9 244.493C158.158 243.632 158.434 242.788 158.697 241.938C152.563 237.005 145.443 232.851 137.574 231.556C135.242 231.046 132.852 231.614 130.514 231.233C129.354 231.063 129.201 229.745 128.768 228.89C123.465 229.927 118.326 231.767 113.522 234.239C108.922 236.343 104.328 239.202 101.809 243.749C100.701 245.847 99.084 247.868 99.1192 250.358C97.4727 250.388 98.3809 248.642 98.5156 247.798C99.7754 243.485 102.23 239.372 105.916 236.724Z" fill="white"/>
<path d="M334.713 344.291C338.199 343.013 343.631 344.871 343.473 349.218C343.607 353.595 338.211 356.249 334.537 354.369C332.105 353.29 330.582 350.179 331.754 347.683C332.381 346.312 333.248 344.876 334.713 344.291Z" fill="white"/>
<path d="M508.127 179.701C508.455 181.898 508.232 184.131 508.332 186.346C508.314 193.371 508.625 200.391 508.519 207.41C507.506 217.523 505.238 227.461 502.402 237.205C500.949 244.066 497.92 250.441 496.127 257.203C494.299 262.5 492.793 267.99 492.687 273.621C492.646 276.75 491.803 279.85 492.336 282.979C492.318 277.928 493.502 273 494.135 268.02C495.893 260.127 498.518 252.451 501.324 244.881C502.971 239.848 503.984 234.645 505.607 229.611C506.135 227.977 506.158 226.189 506.914 224.643C507.57 224.555 508.238 224.496 508.918 224.473C509.211 233.438 509.094 242.426 509.035 251.396C507.066 258.803 502.455 265.049 499.144 271.863C496.894 276.381 494.574 280.975 493.689 285.99C493.256 289.219 493.279 292.488 493.32 295.74C496.127 295.371 498.787 296.49 501.471 297.152C504.23 297.85 506.762 299.35 508.906 301.207C509.662 301.857 509.574 302.918 509.82 303.814C509.451 303.803 508.707 303.779 508.338 303.773C507.33 302.168 505.941 300.844 504.154 300.164C500.902 298.834 497.486 297.51 493.918 297.609C493.883 299.063 493.824 300.516 493.742 301.975C492.148 301.67 489.137 302.613 489.236 300.105C490.93 299.83 488.867 298.57 489.16 297.656C489.435 285.363 488.105 273.059 489.09 260.783C490.549 249.217 494.047 238.049 496.719 226.729C500.299 214.523 503.381 202.172 506.287 189.785C507.225 186.486 507.488 183.059 508.127 179.701Z" fill="white"/>
<path d="M357.98 345.041C361.449 346.969 362.873 350.748 364.279 354.217C367.678 354 371.176 354.422 374.428 355.447C378.102 357.082 378.535 361.594 381.195 364.195C384.676 361.957 389.135 361.734 393.02 362.936C394.789 363.445 396.084 364.816 397.232 366.182C397.848 369.82 399.641 373.189 401.627 376.266C404.92 375.984 408.359 376.717 411.102 378.615C412.391 379.494 413.059 380.959 414.055 382.125C440.246 382.828 466.443 383.08 492.641 383.52C499.273 383.502 505.924 383.889 512.545 383.707C513.852 383.203 514.197 384.715 514.461 385.623C513.02 385.57 511.578 385.125 510.16 385.5C496.537 385.16 482.897 385.143 469.268 385.031C469.104 392.326 469.168 399.621 469.127 406.922L468.904 407.443C468.57 407.426 467.908 407.385 467.58 407.367C467.551 399.891 467.475 392.408 467.779 384.932C458.293 384.75 448.801 384.662 439.309 384.521C431.076 384.41 422.809 384.732 414.611 383.812C417.371 390.539 417.711 398.021 420.811 404.648C423.553 410.637 427.889 415.811 432.904 420.041C433.496 420.615 434.223 421.096 434.598 421.869C434.486 422.795 433.484 424.307 432.5 423.316C425.744 417.387 419.457 410.314 416.891 401.508C414.787 395.654 414.535 389.256 411.898 383.59C410.762 381.035 408.342 379.336 405.699 378.627C406.707 379.887 407.844 381.041 408.945 382.23C408.529 382.811 408.295 383.572 407.645 383.947C406.15 383.133 405.324 381.434 403.73 380.713C400.947 379.277 398.797 376.881 397.473 374.057C395.926 371.314 395.393 367.828 392.838 365.777C389.809 364.729 386.205 364.688 383.434 366.475C383.117 367.172 382.807 367.875 382.496 368.578C379.643 366.949 377.656 364.207 376.221 361.318C375.529 360.129 375.066 358.559 373.643 358.072C370.725 356.953 367.566 356.66 364.49 356.314C365.756 363.838 365.697 371.496 365.504 379.102C365.305 384.176 363.57 389.039 361.156 393.457C358.9 397.77 356.146 402.533 351.318 404.262C347.018 404.941 342.711 403.465 338.861 401.666C335.416 400.266 332.34 398.156 329.053 396.457C329.275 396.328 329.721 396.082 329.943 395.953C329.99 395.654 330.084 395.062 330.131 394.764C335.914 397.828 341.838 401.367 348.5 401.912C351.682 402.369 354.049 399.785 355.818 397.523C358.191 394.219 359.955 390.492 361.385 386.695C362.996 382.424 362.973 377.795 362.967 373.301C362.979 367.289 362.873 361.219 361.59 355.324C360.922 351.844 359.223 348.398 356.018 346.611C356.422 346.471 357.242 346.195 357.652 346.055C357.734 345.803 357.898 345.293 357.98 345.041Z" fill="white"/>
<path d="M294.553 377.321C297.201 377.79 299.885 378.153 302.586 377.948C302.644 380.585 304.016 382.917 304.373 385.483C304.35 386.808 302.68 387.153 301.625 387.183C298.701 387.2 295.754 387.171 292.871 386.673C291.588 386.462 290.287 385.091 291.131 383.796C292.344 381.675 293.539 379.542 294.553 377.321Z" fill="white"/>
<path d="M52.2207 200.039C55.4199 196.611 60.1015 194.461 64.8418 194.976C71.1347 195.738 76.6894 199.184 81.5586 203.057C82.2968 203.736 83.5332 203.971 83.9199 204.967C83.6211 207.152 82.3496 208.945 81.1484 210.715C85.666 210.703 89.8261 213.24 92.2929 216.943C96.0136 221.666 96.9511 227.812 97.2148 233.642C96.9277 233.666 96.3476 233.719 96.0605 233.748C96.4531 233.824 96.8398 233.9 97.2382 233.988C97.2675 241.781 93.2773 249.609 86.4863 253.605C85.6425 254.197 84.5058 254.519 83.955 255.434C84.3886 257.373 85.7246 259.424 85.0214 261.428C83.3457 263.174 80.8027 261.767 79.2148 260.59C75.0429 257.555 74.2285 252.035 70.7949 248.396C66.166 243.392 60.0664 240.029 55.3671 235.107C53.4277 232.166 52.8769 228.475 50.7265 225.633C49.8828 224.678 48.9336 223.805 48.2656 222.715C48.705 221.361 49.2265 220.043 49.9824 218.836C48.5351 218.297 46.6132 217.893 46.0625 216.234C45.3359 210.228 48.1484 204.31 52.2207 200.039ZM61.0507 196.869C61.2675 199.453 63.4824 201.545 62.9961 204.217C64.6308 204.434 64.789 206.221 65.3339 207.451C68.75 216.269 72.4882 224.959 76.1796 233.66C78.6171 238.951 80.9668 244.301 82.7011 249.873C83.0761 251.139 83.1171 252.475 83.2636 253.787C86.8554 251.478 90.3886 248.783 92.4336 244.934C96.1953 238.623 95.7558 230.789 93.8515 223.957C91.7832 224.449 89.7089 224.994 87.5644 224.971C87.5293 224.543 87.4531 223.682 87.4121 223.254C89.375 222.937 91.3496 222.691 93.3418 222.621C91.6074 218.584 88.7421 214.312 84.2597 213.117C82.2675 212.643 79.0918 213.498 78.3183 210.943C79.2382 209.162 80.8437 207.844 81.8222 206.092C78.4648 203.185 74.9433 200.285 70.7187 198.756C67.625 197.654 64.3906 196.547 61.0507 196.869ZM49.2558 207.574C48.1718 210.158 47.1523 213.182 48.166 215.947C49.707 217.389 52.4199 216.814 53.7324 218.631C53.955 219.967 52.3613 219.978 51.5234 220.418C51.1601 221.162 49.6953 221.959 50.6152 222.803C54.0371 225.861 55.0039 230.613 57.1425 234.486C61.8242 238.406 66.8984 241.869 71.3984 246.006C74.0644 248.414 75.5468 251.748 77.123 254.9C78.3535 257.373 80.2812 259.84 83.1347 260.432C82.3378 256.91 81.3652 253.43 80.4101 249.955C78.2304 242.566 74.6738 235.705 71.8144 228.58C68.9609 221.426 65.8671 214.359 63.3711 207.07C62.5039 203.783 60.8339 200.795 59.8261 197.56C54.9101 198.779 51.3593 203.162 49.2558 207.574Z" fill="white"/>
<path d="M195.828 216.147C196.127 214.512 197.012 212.362 199.062 212.661C207.055 212.807 215.053 212.866 223.039 213.012C225.43 212.503 227.732 213.669 230.1 212.971C231.863 213.335 233.621 213.276 235.396 213.048C240.236 213.505 245.1 213.059 249.939 213.575C254.451 212.93 259.01 213.581 263.545 213.446C282.67 213.182 301.795 213.235 320.92 213.206C326.158 213.376 331.455 212.801 336.652 213.557C350.732 213.176 364.818 213.78 378.898 213.405C382.033 213.329 385.42 212.385 388.396 213.721C390.471 214.87 389.486 217.301 389.428 219.153C390.031 232.231 389.357 245.321 389.387 258.405C389.182 260.362 389.879 262.419 389.053 264.282C389.176 264.557 389.422 265.114 389.545 265.389C389.088 266.954 389.105 268.559 389.346 270.165C389.152 270.364 388.766 270.762 388.572 270.962C388.994 271.577 389.551 272.21 389.381 273.036C389.211 282.071 389.51 291.147 389.322 300.159C390.705 301.225 392.533 300.991 394.174 301.167C402.658 301.571 411.166 301.266 419.656 301.454C419.656 300.546 419.65 299.637 419.668 298.741C422.838 297.411 425.85 295.559 429.307 295.067C434.404 294.997 439.508 295.014 444.605 294.821C444.588 295.208 444.547 295.981 444.529 296.362C439.174 296.268 433.736 297.112 428.445 296.221C428.826 303.118 428.797 310.044 428.738 316.946C426.119 312.481 425.17 307.307 423.406 302.491C413.305 302.35 403.186 302.76 393.102 302.309C392.908 303.716 395.275 302.819 396.225 303.235C396.705 303.1 397.186 302.966 397.678 302.831C399.775 303.329 401.943 303.124 404.082 303.135C410.352 302.837 416.627 303.106 422.902 303.1C422.814 303.991 421.953 304.307 421.162 304.26C415.73 304.372 410.311 303.985 404.885 303.921C405.512 306.968 406.689 309.874 408.008 312.68C406.654 313.301 406.707 311.479 406.25 310.7C405.641 308.491 404.258 306.44 404.258 304.108C403.684 304.073 402.529 304.003 401.955 303.962C403.133 307.225 404.709 310.36 405.424 313.776C404.809 313.489 404.434 313.026 404.299 312.393C403.689 310.612 402.939 308.884 402.465 307.061C401.264 307.6 400.432 306.985 399.711 306.048C400.174 307.776 400.619 309.534 401.346 311.186C402.248 310.7 402.289 309.716 402.072 308.843C402.271 309.335 402.441 309.85 402.582 310.378C401.182 311.843 401.943 313.635 402.277 315.364C405.641 315.37 409.004 315.083 412.367 315.264C416.762 315.423 421.174 315.089 425.557 315.598L425.275 316.413C423.535 316.864 421.707 316.671 419.932 316.671C412.121 316.594 404.305 316.647 396.5 316.782C398.064 317.977 400.08 317.303 401.879 317.309C408.869 317.608 415.871 317.339 422.867 317.45C424.543 317.637 426.764 316.512 427.982 318.124C427.889 328.079 427.332 338.028 427.49 347.983C417.371 348.37 407.246 348.13 397.133 348.329C394.707 348.364 392.275 348.382 389.867 348.1C390.096 335.385 389.779 322.659 390.043 309.938C390.061 307.079 390.805 303.868 389.27 301.278C389.088 304.753 389.469 308.221 389.246 311.696C389.193 313.887 388.666 316.05 388.73 318.247C389.164 324.862 389.105 331.495 388.965 338.122C382.326 338.684 375.652 338.268 369.008 338.561C360.037 338.919 351.055 338.391 342.102 338.942C344.984 339.399 347.85 340.466 350.809 340.032C363.494 340.05 376.197 339.803 388.877 339.95C388.853 340.348 388.818 341.157 388.801 341.561C376.689 341.749 364.572 341.637 352.461 341.778C354.166 343.085 356.223 343.811 357.98 345.042C357.898 345.294 357.734 345.803 357.652 346.055C357.242 346.196 356.422 346.471 356.018 346.612C351.676 343.975 346.918 342.065 341.978 340.911C337.051 339.751 331.918 338.819 326.861 339.645C322.748 340.395 319.051 342.446 315.254 344.087C310.654 346.044 306.289 348.551 301.549 350.18C299.135 351.024 296.539 350.913 294.025 350.919C283.865 350.96 273.781 348.944 263.615 349.647C254.012 349.284 244.391 349.219 234.781 349.372C233.434 349.542 232.572 348.341 231.594 347.649C226.584 343.12 219.699 341.35 213.096 341.069C204.383 340.934 195.67 342.639 187.619 345.968C184.877 347.034 182.164 348.733 179.1 348.206C176.686 351.352 174.869 354.891 173.006 358.372C171.061 362.286 168.734 366.048 167.439 370.249C167.117 371.315 166.695 372.352 166.086 373.296C166.514 379.407 168.025 385.946 172.684 390.282C178.016 395.585 185.885 397.565 193.227 396.932C197.803 396.329 202.514 395.479 206.457 392.942C211.168 389.901 215.691 386.38 221.076 384.575C226.332 382.694 232.297 381.13 237.699 383.356C241.361 384.809 243.195 388.975 242.744 392.749C254.914 392.919 267.09 393.13 279.266 393.311C286.449 393.223 293.615 393.751 300.799 393.557C300.928 391.448 301.959 389.309 304.016 388.495C308.234 386.473 312.705 389.016 316.947 389.678C321.781 389.86 325.977 392.555 330.131 394.764C330.084 395.063 329.99 395.655 329.943 395.954C329.721 396.083 329.275 396.329 329.053 396.458C326.135 394.911 323.293 393.217 320.234 391.975C319.684 393.686 318.74 395.426 318.969 397.278C319.027 398.514 319.443 400.079 318.307 400.987C315.723 402.786 313.191 405.704 309.676 404.714C318.072 412.7 323.955 423.007 332.861 430.507C338.469 435.2 344.117 440.069 350.891 443.016C354.406 444.669 358.449 445.073 361.701 447.305C365.627 449.731 366.986 454.425 369.635 457.964C369.359 458.204 368.809 458.69 368.533 458.93C368.82 459.434 369.119 459.95 369.424 460.471C369.16 460.501 368.627 460.559 368.363 460.589C365.129 456.323 363.441 450.223 358.016 448.155C355.062 446.655 352.479 449.491 349.625 449.907C340.531 451.94 330.57 451.676 322.051 447.616C317.949 445.747 314.27 443.046 310.982 439.993C306.26 435.505 303.271 429.364 297.898 425.55C293.773 423.428 289.027 424.741 284.609 424.255C276.729 424.225 268.842 423.932 260.955 423.891C261.037 428.339 261.119 432.786 261.072 437.233C260.639 436.507 260.176 435.803 259.748 435.1C259.666 431.362 259.607 427.624 259.631 423.885C252.512 423.581 245.369 424.009 238.256 423.405C235.092 423.329 231.887 423.563 228.787 422.784C220.35 425.544 214.057 432.188 207.588 437.966C205.285 439.747 203.211 441.938 200.475 443.057C196.502 446.755 191.217 448.659 186.119 450.276C181.238 451.852 175.859 451.946 171.295 454.413C170.996 453.61 170.703 452.813 170.416 452.028C173.932 450.218 177.992 450.059 181.543 448.319C190.367 444.276 197.937 437.895 204.424 430.747C208.332 426.516 211.531 421.688 214.402 416.708C216.693 412.876 218.662 408.628 222.33 405.88C226.033 403.214 230.697 402.135 234.254 399.264C232.906 399.516 231.523 400.219 230.158 399.657C227.832 399.094 226.092 396.768 226.385 394.366C226.637 391.647 228.547 389.45 230.451 387.657C231.852 386.268 233.879 385.923 235.414 384.751C233.48 384.358 231.494 384.106 229.537 384.352C224.258 385.231 219.113 387.065 214.613 389.995C210.441 392.538 206.762 396.065 201.98 397.471C195.002 399.516 187.42 399.997 180.441 397.676C172.783 395.286 166.432 388.694 164.85 380.755C164.217 377.655 163.396 374.251 164.732 371.227C166.25 366.774 168.365 362.567 170.492 358.389L170.328 357.985C165.072 357.464 159.646 356.831 154.467 358.243C150.137 359.608 146.92 363.54 145.883 367.893C145.104 370.565 144.289 373.548 141.928 375.282C138.986 377.403 135.277 377.913 132.107 379.577C129.969 380.591 128.223 382.208 126.482 383.766C126.447 383.397 126.377 382.653 126.342 382.284C125.65 382.477 124.971 382.676 124.291 382.882C125.598 380.837 127.689 379.483 129.664 378.153C133.016 375.973 137.223 375.645 140.498 373.337C142.045 372.305 142.637 370.483 143.229 368.825C128.287 368.901 113.322 368.995 98.3691 368.971C98.5625 368.362 98.7559 367.753 98.9551 367.149C113.82 367.108 128.686 366.962 143.545 367.009C144.963 362.854 147.26 358.641 151.373 356.649C153.693 355.196 156.459 355.073 159.113 355.143C163.32 354.581 167.521 355.448 171.67 356.063C173.691 352.817 175.227 349.208 177.916 346.425C178.32 346.442 179.141 346.483 179.545 346.507C183.119 344.514 187.145 343.559 190.83 341.831C186.482 341.426 182.105 341.608 177.746 341.485C177.746 340.958 177.758 340.436 177.764 339.915C180.559 339.95 183.359 340.032 186.154 339.903C186.846 338.321 187.953 336.985 189.066 335.69C191.633 332.743 194.17 329.719 196.121 326.327C196.561 321.323 195.57 316.272 196.355 311.286C195.875 309.106 195.951 306.862 196.045 304.647C196.021 290.233 195.91 275.807 195.822 261.393C195.658 260.385 195.834 259.389 196.086 258.411C195.518 256.483 196.104 254.503 195.887 252.54C195.998 248.344 195.582 244.143 195.922 239.954C195.822 236.755 195.312 233.438 196.162 230.309C195.617 229.155 195.916 227.901 195.893 226.688C195.875 223.173 195.84 219.663 195.828 216.147ZM238.871 219.235C233.809 219.651 228.705 219.405 223.643 219.821C220.73 220.354 217.771 219.88 214.848 220.231C211.309 220.067 207.805 220.735 204.271 220.348C204.02 225.803 204.336 231.264 204.277 236.725C204.078 245.344 204.389 253.964 204.178 262.577C203.943 262.829 203.486 263.333 203.258 263.585L204.236 263.368C204.166 272.344 204.172 281.327 204.143 290.303L203.27 290.268C203.486 290.456 203.932 290.831 204.154 291.018C203.943 294.007 204.354 297.018 203.979 299.995C204.125 300.282 204.412 300.856 204.553 301.143C204.359 301.7 204.166 302.257 203.973 302.825C206.48 302.843 209 302.925 211.502 302.725C211.402 303.012 211.203 303.581 211.104 303.868C210.91 303.85 210.523 303.809 210.33 303.786L210.113 304.307C208.648 304.407 207.184 304.454 205.725 304.559C205.777 304.343 205.895 303.903 205.947 303.686C205.637 304.448 204.822 304.635 204.172 304.981C204.219 306.276 203.545 307.823 204.664 308.848C204.336 309.628 204.014 310.413 203.691 311.198C204.348 312.434 204.371 313.852 204.559 315.212C205.531 313.442 206.334 311.579 207.412 309.868C207.787 310.343 208.162 310.823 208.537 311.309C208.109 311.854 207.676 312.405 207.254 312.956C207.729 313.009 208.689 313.108 209.164 313.161C208.848 314.497 206.691 313.237 206.82 314.503C207.043 314.596 207.5 314.79 207.729 314.889C207.412 315.815 207.477 317.62 206.041 317.409C205.842 316.665 208.098 315.305 206.738 315.1C205.994 315.686 205.643 316.77 204.605 316.911C204.846 317.251 205.092 317.596 205.344 317.954C204.881 318.516 204.43 319.096 203.979 319.676C204.213 319.823 204.687 320.116 204.922 320.257C204.916 319.014 205.438 318.305 206.486 318.13C205.842 319.559 205.033 320.913 204.453 322.378C203.768 325.436 204.863 328.53 204.717 331.624C220.396 331.6 236.094 332.04 251.785 331.7C256.707 331.852 261.635 331.301 266.551 331.7C272.363 331.559 278.182 332.016 283.988 331.782C290.428 331.471 296.879 332.069 303.301 331.565C313.121 331.518 322.947 331.466 332.768 331.325C336.26 331.454 339.775 330.938 343.244 331.542C351.043 331.483 358.93 331.923 366.711 331.167C368.598 331.735 370.537 331.05 372.459 331.19C374.639 331.296 376.801 330.973 378.98 330.938C379.203 328.665 379.057 326.362 379.537 324.124C378.746 320.139 380.398 315.757 379.332 312.012C365.779 311.708 352.209 311.608 338.65 311.28C338.457 312.938 338.527 314.737 337.625 316.214C336.863 317.21 335.457 316.829 334.391 316.923C332.381 316.77 330.236 317.561 328.344 316.635C326.516 315.393 326.879 312.997 326.803 311.098C323.445 310.782 320.041 310.389 316.859 309.241C314.598 308.198 314.018 305.52 312.57 303.716C306.348 304.307 300.055 303.534 293.861 304.319C293.814 303.716 293.937 303.165 294.236 302.661C294.424 302.55 294.799 302.327 294.986 302.216C300.67 302.303 306.359 302.227 312.043 302.005C310.426 297.2 309.312 292.19 309.289 287.104C309.312 285.505 309.043 283.811 309.77 282.317C308.064 277.079 308.674 271.436 310.109 266.221C310.508 265.442 310.584 264.241 311.574 263.966C315.295 263.907 319.021 263.936 322.73 263.602C341.557 262.208 360.447 261.188 379.332 261.628C380.1 259.864 379.736 257.895 379.736 256.038C379.725 249.399 379.801 242.76 379.883 236.122C380.434 230.895 380.047 225.628 380.311 220.354C378.061 219.153 375.494 219.979 373.162 219.188C369.471 219.751 365.744 219.112 362.041 219.323C356.152 219.176 350.24 219.663 344.375 218.995C343.426 219.141 342.5 219.493 341.533 219.376C337.402 219.194 333.266 219.393 329.135 219.311C326.627 219.288 323.902 220.032 321.576 218.807C321.26 218.954 320.627 219.241 320.311 219.382C314.879 219.218 309.441 219.165 304.01 219.264C301.285 218.702 298.461 219.024 295.695 219.194C276.758 218.714 257.785 219.469 238.871 219.235ZM350.252 263.843C337.52 264.3 324.84 265.805 312.102 266.122C310.186 271.712 309.635 278.093 312.09 283.612C313.771 286.559 316.332 288.827 318.787 291.1C319.238 293.702 318.781 296.374 319.197 298.975C318.664 298.77 318.131 298.571 317.604 298.378C317.311 296.186 317.41 293.971 317.328 291.774C316.73 290.854 315.717 290.333 314.902 289.63C313.396 288.528 312.359 286.958 311.047 285.657C311.029 292.319 312.576 298.987 315.371 305.034C315.887 305.966 316.367 307.161 317.434 307.571C318.113 307.759 318.799 307.94 319.49 308.116C319.432 308.227 319.314 308.462 319.256 308.573C324.189 309.839 329.346 309.815 334.408 309.856C348.67 309.85 362.932 310.319 377.193 310.348C378.008 310.272 378.904 310.46 379.684 310.114C379.801 308.567 379.73 307.009 379.76 305.456C377.088 305.38 374.428 305.204 371.762 305.163C371.621 304.788 371.34 304.038 371.205 303.663C374.053 303.598 376.906 303.61 379.76 303.786C379.76 297.833 379.684 291.88 379.754 285.927C379.9 279.874 379.402 273.786 379.895 267.751C379.555 266.286 379.648 264.78 379.584 263.292C372.037 263.391 364.502 263.385 356.967 263.503C355.895 263.76 354.805 263.766 353.791 263.315C352.66 263.784 351.459 263.93 350.252 263.843ZM201.553 295.366C201.711 297.294 203.281 294.411 201.553 295.366V295.366ZM391.502 303.528C392.668 308.239 393.025 313.173 394.848 317.702C395.346 317.139 395.68 316.471 396.061 315.833C397.982 314.954 400.162 315.51 402.201 315.341C401 313.313 400.643 310.987 399.998 308.76C399.471 309.505 399.236 310.389 399.072 311.274C398.891 310.635 399.025 309.505 398.152 309.393C398.369 308.591 399.195 308.561 399.81 308.227C399.418 306.979 398.932 305.766 398.428 304.565C399.148 305.309 400.156 306.399 400.543 304.735L400.092 305.995C400.52 306.03 401.369 306.106 401.797 306.141C401.738 305.614 401.627 304.559 401.568 304.032C398.691 304.096 395.814 303.944 392.937 303.962C394.83 307.173 395.516 310.905 396.488 314.456C396.348 314.544 396.066 314.719 395.932 314.807C394.52 313.606 394.936 311.192 393.939 309.61C393.307 307.553 393.289 304.952 391.502 303.528ZM328.385 311.022C327.787 312.434 327.646 314.45 329.187 315.311C331.479 315.78 333.863 315.364 336.189 315.27C337.25 314.35 337.197 312.639 337.291 311.321C334.32 311.268 331.35 311.175 328.385 311.022ZM194.117 332.596C194.035 335.057 192.078 337.003 190.461 338.667C190.549 338.11 190.725 336.991 190.812 336.434C189.998 336.844 189.91 337.624 189.998 338.426C189.512 338.872 189.061 339.358 188.645 339.88C192.687 339.88 196.871 340.583 200.803 339.329C202.83 338.725 204.975 338.848 207.066 338.796C207.061 338.702 207.055 338.514 207.049 338.421C203.486 338.122 199.473 340.038 196.238 338.016C195.26 335.602 196.039 332.948 196.35 330.475C195.365 330.88 194.803 331.841 194.117 332.596ZM331.566 332.239C331.268 333.212 331.59 333.54 332.527 333.223C332.82 332.251 332.504 331.923 331.566 332.239ZM192.811 334.214C193.133 334.577 193.133 334.577 192.811 334.214V334.214ZM191.539 335.456C190.566 337.243 193.484 335.497 191.539 335.456V335.456ZM216.049 338.96C218.557 339.206 221.041 339.704 223.561 339.885C226.355 339.399 229.15 340.202 231.951 339.88C239.551 340.132 247.156 339.921 254.768 339.938C258.172 339.592 261.582 339.956 264.998 340.032C265.062 339.874 265.186 339.563 265.25 339.405C261.729 339.569 258.219 339.159 254.721 338.831C251.604 338.737 248.48 338.93 245.363 338.667C235.602 339.024 225.799 338.421 216.049 338.96ZM306.131 339.417C306.682 339.833 307.314 340.009 308.018 339.938C311.996 339.862 316.01 340.536 319.941 339.616C319.279 338.966 318.289 339.2 317.469 339.147C313.689 339.294 309.887 338.925 306.131 339.417ZM188.064 339.352C188.434 339.669 188.434 339.669 188.064 339.352V339.352ZM226.754 341.655C228.963 342.798 231.189 343.969 233.047 345.663C233.92 346.325 234.729 347.444 235.977 347.192C240.699 346.923 245.428 347.04 250.156 346.964C251.809 346.489 250.555 343.917 251.979 343.12C252.898 342.616 253.889 342.247 254.838 341.807C245.48 341.643 236.111 341.831 226.754 341.655ZM304.643 391.372C304.836 391.583 305.217 392.005 305.41 392.216C308.715 393.956 312.283 395.321 315.207 397.706C316.18 398.421 316.227 399.698 316.572 400.759C317.838 399.516 317.152 397.466 315.834 396.557C313.496 394.911 310.883 393.721 308.434 392.274C307.297 391.571 305.996 391.126 304.643 391.372Z" fill="white"/>
<path d="M395.639 304.412C397.068 305.742 396.781 308.027 398.152 309.393C398.275 311.004 398.668 312.592 398.762 314.209C398.211 312.937 397.918 311.584 397.707 310.225C396.834 308.361 395.92 306.475 395.639 304.412Z" fill="white"/>
<path d="M432.858 337.541C434.358 336.562 436.42 337.646 436.777 339.334C437.393 340.957 435.811 342.949 434.094 342.65C431.75 342.392 430.9 338.835 432.858 337.541Z" fill="white"/>
<path d="M199.227 348.797C199.924 346.981 202.104 346.694 203.791 346.542C206.287 346.442 208.883 346.659 211.215 347.637C212.1 347.913 212.41 348.95 212.258 349.799C211.52 353.368 210.184 356.76 208.813 360.124C204.611 360.2 200.299 360.194 196.186 359.268C196.514 355.618 197.82 352.149 199.227 348.797Z" fill="white"/>
<path d="M295.508 357.991C299.785 356.93 304.566 357.633 308.182 360.223C310.654 361.969 312.189 364.975 312.014 368.022C311.604 371.045 309.682 373.852 306.898 375.164C302.287 377.479 296.416 377.69 291.863 375.112C291.705 377.35 289.426 378.393 288.418 380.221C287.732 380.045 287.088 379.782 286.631 379.231C287.943 377.608 288.857 375.282 291.049 374.69C288.055 372.791 286.895 368.995 287.527 365.62C288.424 361.764 291.898 359.174 295.508 357.991Z" fill="white"/>
<path d="M180.857 359.174C184.379 358.67 187.977 358.987 191.498 359.397C192.494 359.631 193.684 359.584 194.486 360.293C194.92 362.327 193.889 364.295 193.373 366.229C192.723 367.911 192.553 369.903 191.334 371.291C187.549 372.047 183.611 371.333 179.779 371.204C177.535 371.145 177.898 368.245 178.133 366.721C178.801 364.155 179.018 361.225 180.857 359.174Z" fill="white"/>
<path d="M209.275 361.125C209.762 360.112 211.074 360.686 211.947 360.545C216.828 360.504 221.703 360.709 226.578 360.979C227.715 361.166 229.256 361.096 229.977 362.168C230.24 365.531 229.438 368.842 228.389 372.018C224.75 373.014 220.9 372.352 217.174 372.405C213.875 372.129 210.465 372.528 207.254 371.619C206.094 371.303 206.563 369.891 206.756 369.088C207.535 366.428 207.664 363.469 209.275 361.125Z" fill="white"/>
<path d="M339.846 361.184C342.764 360.429 346.783 361.272 347.867 364.477C349.162 367.858 346.185 371.837 342.605 371.743C339.846 371.977 336.928 370.302 336.312 367.495C335.486 364.87 337.549 362.239 339.846 361.184Z" fill="white"/>
<path d="M467.551 407.566C467.914 407.59 468.646 407.625 469.01 407.648L469.209 408.088C468.898 414.943 469.168 421.84 469.361 428.707C473.023 431.285 475.42 435.275 476.908 439.43C477.799 442.072 478.988 445.002 481.725 446.215C484.936 447.627 488.223 449.32 490.396 452.18C493.209 455.426 492.74 460.025 493.303 464.01C499.127 463.863 504.951 464.051 510.781 463.98C511.766 463.916 512.75 464.098 513.734 464.279C513.582 464.561 513.283 465.117 513.137 465.398C506.539 465.568 499.936 465.422 493.344 465.609C493.268 467.613 493.244 469.629 492.84 471.604C492.143 474.24 493.865 476.924 496.15 478.16C499.684 480.961 504.277 481.635 508.197 483.697C510.002 484.652 511.795 485.637 513.623 486.574C512.715 493.682 512.281 500.836 512.205 508.008C512.059 522.404 510.969 536.818 511.801 551.209C502.713 550.406 493.578 549.961 484.467 550.535C480.143 550.559 475.877 551.355 471.547 551.268C455.334 551.344 439.121 550.934 422.914 551.145C417.635 550.998 412.303 551.484 407.07 550.934C403.812 551.602 400.461 551.156 397.162 551.256C374.885 551.637 352.613 552.176 330.348 552.803C327.951 552.615 326.527 554.918 324.301 555.088C324.043 553.383 325.186 551.877 326.785 551.42C329.797 550.471 333.014 550.336 336.154 550.383C356.826 550.096 377.492 549.357 398.164 549.223C393.887 544.248 391.449 537.978 389.75 531.721C388.789 526.939 387.658 522.076 388.104 517.172C387.799 517.014 387.184 516.686 386.879 516.527C386.398 515.121 386.041 513.598 385.016 512.479C382.965 510.088 379.941 508.928 377.363 507.24C369.447 502.336 363.348 493.178 364.777 483.568C354.26 483.855 343.736 483.809 333.225 483.961C332.006 484.242 331.725 483.064 331.824 482.121C337.367 482.396 342.922 481.811 348.477 482.01C350.428 482.109 352.461 481.512 354.359 482.197C357.98 481.395 361.76 482.121 365.439 481.506C366.969 476.432 371.469 473.168 375.922 470.766C374.814 469.465 373.666 468.158 373.016 466.559C373.783 466.904 374.527 467.273 375.295 467.643C375.318 466.728 374.633 466.084 374.199 465.369C374.076 465.07 373.842 464.467 373.719 464.162C376.01 465.709 377.457 468.141 379.52 469.957C383.592 467.742 388.244 467.016 392.463 465.152C397.01 463.535 400.9 460.576 404.334 457.254C408.213 453.1 412.139 448.705 417.354 446.209C420.143 444.697 423.465 444.088 425.797 441.809C427.068 440.326 428.322 438.826 429.459 437.232C431.281 434.613 431.223 431.291 432.225 428.355C433.531 423.592 437.902 419.994 442.707 419.156C447.916 417.861 453.271 419.625 457.807 422.174C461.053 424.072 464.609 425.396 467.744 427.494C467.58 420.855 467.486 414.211 467.551 407.566Z" fill="white"/>
<path d="M34.9707 413.045C34.6836 411.75 36.0312 411.721 36.9277 411.568C37.3848 429.258 36.1308 446.924 35.8379 464.602C40.1328 464.672 44.4336 464.549 48.7285 464.555C49.5605 466.096 51.4766 466.125 52.9473 466.641C55.8301 467.502 58.7715 468.246 61.4668 469.617C60.6582 469.811 59.8496 470.022 59.041 470.232C61.1445 471.211 63.7344 473.396 65.9316 471.445C66.8281 472.477 68.0762 473.08 69.2012 473.836C71.8379 475.518 74.375 477.527 77.4629 478.342C82.6777 479.525 87.5234 481.881 92.3867 484.061C104.896 489.557 116.826 496.318 128.205 503.859C132.57 504.932 137.076 505.816 141.072 508.002C143.932 509.789 144.91 513.316 145.385 516.451C146.047 522.984 144.793 529.781 141.629 535.541C139.449 540.164 135.652 543.779 132.277 547.541C139.051 545.191 146.322 545.391 153.395 545.25C165.137 545.326 176.826 546.475 188.521 547.412C192.453 547.781 196.414 547.863 200.316 548.484C201.236 549.873 199.391 550.102 198.441 549.943C191.627 549.627 184.83 549.012 178.027 548.479C172.807 548.197 167.586 547.928 162.377 547.488C155.65 547.523 148.9 547.242 142.191 547.881C140.639 548.156 139.104 548.543 137.516 548.291C133.865 549.258 129.84 549.844 126.904 552.434C126.025 553.078 125.264 554.027 124.15 554.256C122.281 552.996 121.672 550.441 119.562 549.404C117.043 547.682 113.943 548.936 111.154 548.848C101.393 548.836 91.8828 546.24 82.1738 545.578C78.3887 545.092 74.5449 545.209 70.7832 544.647C68.2812 545.016 65.7617 544.576 63.248 544.6C46.4199 544.875 29.6152 543.715 12.7988 543.65C12.5234 529.904 12.2422 516.146 12.1133 502.4C16.2969 502.113 20.4219 500.877 24.0605 498.803C28.3906 495.299 31.2734 490.014 31.8828 484.512C26.6211 484.248 21.3535 484.137 16.0859 483.955C16.0449 483.703 15.9629 483.199 15.9219 482.947L15.8691 483.809C14.1172 483.615 10.9121 484.647 10.8066 481.945C13.959 481.605 17.0703 482.443 20.2168 482.385C24.3066 482.326 28.3906 482.789 32.4805 482.572C33.9336 481.037 33.8926 478.752 34.7363 476.912C35.8086 474.791 36.4473 472.447 37.8535 470.508C38.8555 468.914 40.6719 468.164 41.9609 466.857C31.4316 466.184 20.8555 466.852 10.3145 466.459C9.99804 465.908 10.291 465.258 10.291 464.684C15.0019 464.883 19.707 464.818 24.418 464.742C27.8047 464.578 31.2793 465.123 34.6016 464.25C34.0859 462.891 34.707 461.479 34.3789 460.107C35.0117 444.428 35.1641 428.73 34.9707 413.045Z" fill="white"/>
<path d="M249.77 220.014L250.596 219.809C250.719 220.084 250.965 220.641 251.094 220.916C251.955 229.336 251.076 237.832 251.598 246.27C251.152 246.088 250.268 245.725 249.822 245.537C249.98 237.029 250.01 228.527 249.77 220.014Z" fill="white"/>
<path d="M232.496 233.953C233.785 234.035 234.957 233.502 236.053 232.887C238.156 234.146 237.916 236.889 238.191 239.01C237.939 239.109 237.43 239.309 237.172 239.402C236.082 238.266 236.398 236.35 235.947 234.891C233.955 235.154 232.08 236.01 230.064 236.063C230.451 235.02 231.242 233.9 232.496 233.953Z" fill="white"/>
<path d="M83.9024 282.48C84.2364 282.475 84.8926 282.451 85.2266 282.439C85.3497 284.736 84.793 287.133 85.6778 289.324C85.4668 291.176 85.4668 293.045 85.42 294.908C84.1485 294.75 84.1016 293.396 84.0313 292.406C83.545 289.102 84.4473 285.797 83.9024 282.48Z" fill="white"/>
<path d="M196.742 414.205C198.629 414.715 198.857 417.199 198.928 418.857C197.932 417.457 196.795 416.004 196.742 414.205Z" fill="white"/>
<path d="M194.006 415.494C195.125 416.93 195.828 418.635 196.32 420.381C194.516 419.742 193.637 417.24 194.006 415.494Z" fill="white"/>
<path d="M225.254 220.541C225.547 220.682 226.133 220.957 226.426 221.098C227.035 222.885 226.795 224.877 226.93 226.746C226.848 233.309 227.152 239.871 227.041 246.434C234.641 246.375 242.234 245.953 249.822 245.537C250.268 245.725 251.152 246.088 251.598 246.27C251.012 246.744 250.338 247.213 249.535 247.143C241.531 247.389 233.545 248.15 225.535 248.32C225.43 239.062 225.758 229.787 225.254 220.541Z" fill="white"/>
<path d="M232.52 222.369C232.766 222.486 233.246 222.721 233.486 222.838C233.732 225.662 233.791 228.592 232.566 231.217C234.576 232.535 236.803 227.977 238.191 230.801C236.668 232.629 233.855 232.008 232.256 233.736C230.809 233.156 229.25 231.24 230.668 229.852C231.008 229.834 231.693 229.799 232.033 229.781C232.566 227.35 232.262 224.83 232.52 222.369Z" fill="white"/>
<path d="M46.2559 249.815C47.7617 248.824 48.8398 250.893 49.8828 251.719C50.8555 253.043 52.6719 253.834 53.1582 255.434C52.209 256.881 50.9023 255.047 50.0234 254.455C48.6523 253.078 46.4551 251.9 46.2559 249.815Z" fill="white"/>
<path d="M236.809 223.459C237.207 223.389 238.016 223.248 238.414 223.178C238.701 224.783 238.479 226.412 238.133 227.988C239.574 229.412 241.279 230.713 242.018 232.67C239.961 233.279 239 231.346 238.004 229.975C236.48 228.158 237.078 225.627 236.809 223.459Z" fill="white"/>
<path d="M87.8867 229.97C89.1406 229.648 90.4648 229.666 91.748 229.8C92.3691 232.373 88.8418 231.599 87.3535 231.839C87.5117 231.207 87.5176 230.521 87.8867 229.97Z" fill="white"/>
<path d="M101.621 247.64C106.736 243.849 113.1 242.273 119.334 241.617C126.863 240.943 134.609 241.459 141.699 244.259C146.439 246.287 151.297 248.402 155.053 252.041C160.502 256.078 165.137 261.222 168.518 267.105C169.607 261.24 168.348 254.994 165.348 249.867C164.211 248.156 162.805 245.601 160.332 246.609C160.314 246.164 160.273 245.279 160.256 244.834C161.305 244.828 162.354 244.828 163.402 244.834H163.812C169.057 250.154 171.148 258.023 170.656 265.336C170.51 268.131 169.9 272.074 166.572 272.619C161.17 273.287 155.686 272.531 150.447 271.166C146.486 269.929 142.01 268.634 139.689 264.879C137.48 266.683 134.539 267.861 131.691 267.006C128.457 266.343 126.131 263.9 123.723 261.855C122.762 262.974 121.789 265.154 119.955 264.257C115.291 262.576 111.061 259.675 107.75 255.99C105.764 253.816 104.346 251.209 102.441 248.965C102.025 249.738 101.691 250.588 101.023 251.191C97.584 254.566 95.0059 258.738 93.0547 263.121C90.0313 270.334 89.1816 278.209 88.4316 285.925C88.5137 286.845 87.9981 288.627 89.4688 288.656C90.9922 277.951 98.3457 269.127 106.818 262.904C108.313 261.925 109.637 260.332 111.553 260.302C111.582 260.519 111.635 260.953 111.658 261.17C109.713 262.986 107.381 264.345 105.406 266.138C98.8027 271.81 92.9316 279.216 91.8477 288.117C94.1094 287.947 96.3711 288.064 98.6387 288.152C98.5566 288.55 98.3984 289.347 98.3223 289.746C96.1426 290.05 93.8984 289.201 91.7715 289.916C91.5195 290.812 91.7598 291.515 92.4981 292.031C94.7891 291.826 97.1621 291.726 99.3945 292.365C100.145 293.132 99.2129 294.252 98.3223 293.982C96.9219 294.035 95.5156 293.941 94.1211 293.847C93.5703 293.045 92.8555 292.382 92.0703 291.82C91.2441 292.195 90.6875 293.625 89.6973 293.437C89.1231 291.931 89.75 290.244 89.0059 288.785C87.8926 290.537 88.543 292.746 88.4727 294.697C88.0273 294.674 87.1367 294.615 86.6856 294.586C86.5859 292.834 86.5742 291.052 86.0938 289.353C86.8672 285.14 86.7324 280.804 87.6289 276.603C88.9063 268.224 91.291 259.582 97.0625 253.119C98.7441 251.425 99.916 249.304 101.621 247.64ZM103.754 248.056C105.986 249.855 107.146 252.574 109.139 254.595C112.227 257.812 115.982 260.396 120.055 262.189C120.922 261.047 121.578 259.752 122.533 258.685C123.658 257.859 124.572 259.4 125.328 260.05C127.648 262.793 130.725 265.927 134.656 265.324C136.994 264.996 138.23 262.617 140.375 261.961C141.57 263.121 141.934 264.996 143.451 265.892C147.564 268.664 152.545 269.812 157.402 270.445C160.719 270.855 164.229 271.336 167.404 269.982C167.451 268.283 166.678 266.742 165.781 265.359C163.561 261.984 160.742 259.048 157.754 256.347C150.482 249.035 140.697 244.353 130.473 243.088C121.373 242.379 111.77 243.386 103.754 248.056ZM100.736 249.767C101.047 250.06 101.047 250.06 100.736 249.767V249.767Z" fill="white"/>
<path d="M43.8066 243.416C46.2558 242.625 48.8749 241.717 51.4296 242.601C59.5741 245.437 66.9452 250.845 71.4921 258.228C72.0605 259.365 72.9452 261.644 71.0702 262.043C70.1503 258.908 68.1757 256.218 65.9374 253.892C62.873 250.763 59.3046 248.08 55.2792 246.322C52.5722 245.191 49.6894 243.416 46.6718 244.547C44.0175 245.455 40.9179 246.14 39.1191 248.467C37.8241 250.435 41.1874 250.552 41.58 252.017C41.5859 253.523 39.664 253.576 38.5859 253.283C37.2851 253.16 35.7323 252.164 34.6366 253.336C31.1152 256.295 29.9374 260.988 29.4804 265.377C29.9492 268.488 33.3652 269.185 35.457 270.884C36.4238 271.418 35.3398 273.357 34.4726 272.508C33.1308 271.898 31.8593 270.709 30.3124 270.861C27.7402 272.232 26.4745 275.103 25.6191 277.752C24.0312 282.439 24.0839 287.455 24.3007 292.336C24.4062 294.58 25.6835 296.513 26.6327 298.482C27.1191 299.595 28.1796 300.246 29.1757 300.849C30.3534 298.049 31.5077 295.242 32.8202 292.5C35.7734 286.06 38.2812 279.31 42.5761 273.603C46.9765 267.914 52.7656 263.121 59.5742 260.648C63.0781 259.353 67.2148 259.254 70.4081 261.416C70.6308 261.662 71.0761 262.154 71.2988 262.4C69.6054 264.217 67.4316 261.972 65.5097 261.802C61.6601 261.75 58.0449 263.361 54.8163 265.312C50.8554 267.633 47.3515 270.685 44.3984 274.195C40.0741 279.422 37.537 285.791 34.6366 291.849C33.2421 295.072 31.5429 298.166 30.2949 301.453C33.6816 302.215 37.2089 303.234 40.6659 302.22C47.9784 300.92 53.2226 293.22 52.373 285.972C53.1171 283.459 55.6074 285.474 57.1952 285.621C59.4394 284.32 60.8749 282.041 62.6855 280.236C66.6757 275.297 69.7695 269.566 71.3632 263.396C73.0331 263.877 74.0585 265.347 75.0722 266.642C79.0331 272.133 80.8788 278.789 82.0097 285.381C82.707 288.381 83.1464 291.492 82.7773 294.574C82.4667 295.254 81.4765 294.902 80.8847 295.125C80.8847 293.455 80.9491 291.791 80.9374 290.127C80.2519 290.431 79.5663 290.742 78.8866 291.052C79.0273 292.306 79.3261 293.572 79.0917 294.838C78.6874 294.838 77.8906 294.832 77.4921 294.832C77.2519 293.695 77.1581 292.541 76.9999 291.398C76.6718 291.398 76.0097 291.404 75.6816 291.404C75.3652 292.453 75.5468 293.771 74.6855 294.586C73.2558 294.31 73.6542 292.424 73.3847 291.357C73.0976 291.363 72.5175 291.375 72.2304 291.381C72.1073 292.359 71.9902 293.338 71.8613 294.322C70.373 294.099 70.4433 292.336 69.957 291.252C68.246 291.972 65.9081 291.041 64.6659 292.629C64.2148 292.599 63.7812 292.465 63.3593 292.236C60.7753 292.904 58.0741 293.601 56.0351 295.424C56.0761 295.81 56.164 296.595 56.205 296.982C59.7265 298.347 63.5585 297.814 67.2382 298.008C71.1523 298.183 75.0605 297.744 78.9745 297.838C79.0624 298.072 79.2441 298.547 79.332 298.781C79.3202 298.494 79.2909 297.914 79.2792 297.627C84.6171 297.299 89.955 297.011 95.2929 296.695C99.7284 296.273 104.428 295.523 108.166 292.933C105.096 291.48 101.961 289.804 98.4628 289.922C98.5566 289.511 98.7499 288.703 98.8495 288.293C103.016 288.211 108.06 289.412 110.176 293.461C109.478 295.33 109.021 297.281 108.775 299.261C108.535 299.279 108.06 299.314 107.82 299.332C108.037 299.402 108.471 299.537 108.687 299.607C106.414 312.961 103.76 326.261 101.82 339.674C127.133 339.539 152.451 339.808 177.764 339.914C177.758 340.435 177.746 340.957 177.746 341.484C152.363 341.302 126.969 341.174 101.598 341.384C100.672 344.631 101.035 348.181 99.7812 351.328C90.5175 352.095 81.2245 353.021 71.9198 352.91C70.1679 352.734 67.7949 353.168 66.7343 351.381C65.3867 348.99 65.3456 346.142 64.4491 343.588C64.3495 343.529 64.1503 343.406 64.0507 343.347C57.5995 347.666 51.4648 352.429 44.996 356.73C39.664 360.316 34.2558 363.779 29.0351 367.523C35.3046 367.687 41.5859 367.365 47.8613 367.465C64.8886 367.172 81.9218 367.254 98.955 367.148C98.7558 367.752 98.5624 368.361 98.3691 368.97C72.4882 369.158 46.6073 368.631 20.7441 369.451C20.7441 368.836 20.7499 368.22 20.7558 367.611C22.7538 367.705 24.7519 367.734 26.7499 367.851C27.1542 366.175 29.0527 365.883 30.248 364.945C41.4394 357.041 52.7187 349.248 63.6991 341.062C60.6054 326.426 57.1366 311.847 54.371 297.134C53.7734 295.183 55.1503 293.361 56.8144 292.506C60.2011 290.578 64.162 290.097 67.9472 289.523C67.0917 286.763 65.4159 284.232 63.6406 281.97C61.455 284.601 58.9648 288.199 55.0156 287.467C53.7558 292.3 52.2851 297.638 48.0722 300.767C44.1698 303.996 38.7734 305.092 33.8456 304.148C30.7402 303.451 27.1132 302.935 25.3144 299.965C24.0429 304.652 22.8183 310.383 18.0429 312.75C14.996 314.027 12.4296 311.092 11.1816 308.672C10.7714 306.937 10.9062 305.133 10.9589 303.375C11.7382 303.363 12.8808 303.181 13.2675 304.078C14.3456 305.836 12.9687 308.308 14.58 309.832C15.2773 310.517 16.2968 311.554 17.3691 310.968C19.0683 309.767 20.2636 307.986 21.3417 306.24C22.9472 303.638 23.1113 300.533 24.0605 297.697C22.8124 294.732 22.6718 291.48 22.6191 288.31C22.6015 282.304 23.4745 276.017 26.996 270.984C27.8749 270.568 28.7949 270.187 29.4921 269.484C28.748 268.57 27.6347 267.89 27.1952 266.771C27.3945 265.552 27.705 264.351 27.9159 263.138C26.0702 262.271 23.7499 261.457 22.0214 263.056C24.6523 264.814 26.8613 267.621 26.8495 270.914C25.2499 268.365 23.7324 265.74 21.5937 263.59C17.2695 266.9 14.4218 271.693 12.1132 276.533C11.8202 276.58 11.2402 276.679 10.9472 276.726C10.8886 274.33 12.4589 272.402 13.5195 270.386C15.3945 266.918 18.1777 264.093 20.7441 261.14C19.5605 260.771 18.3769 260.39 17.164 260.121C17.1581 259.658 17.1406 258.726 17.1288 258.263C18.8925 258.644 20.5097 259.453 22.0624 260.349C23.0702 260.273 24.0546 259.875 25.0741 259.98C26.0937 260.414 27.0253 261.011 27.9804 261.556C29.1406 258.105 30.5702 254.543 33.3769 252.088C34.4199 251.103 35.8847 250.916 37.2558 250.822C36.5761 249.293 37.08 247.547 38.2636 246.422C39.8398 244.992 41.8202 244.113 43.8066 243.416ZM72.2656 266.138C71.3281 269.912 69.7929 273.592 67.5312 276.767C68.3456 277.558 69.3183 278.279 69.7284 279.386C71.1054 282.633 72.0663 286.043 73.3495 289.33C73.6366 289.406 74.2109 289.552 74.498 289.629C74.4511 290.009 74.3515 290.759 74.2988 291.14C74.8202 290.297 75.4472 289.47 76.455 289.195C74.6913 284.179 72.5234 279.31 69.6874 274.804C69.9042 274.834 70.3261 274.904 70.537 274.939C74.0995 279.199 76.6367 284.22 78.6171 289.383C79.2499 289.136 79.8769 288.896 80.5038 288.656C79.2617 280.763 77.7734 272.302 72.2656 266.138ZM64.3554 281.086C66.7167 283.447 68.662 286.318 69.7753 289.476C70.1386 289.441 70.8593 289.371 71.2226 289.336C70.3437 285.334 69.0136 281.426 67.4374 277.646C66.3242 278.713 65.4159 279.967 64.3554 281.086ZM93.5703 298.945C84.8046 299.074 76.0742 299.988 67.3027 299.888C63.8105 299.883 60.2421 300.146 56.8378 299.168C58.3437 307.892 60.4179 316.517 62.2753 325.177C64.0917 333.234 65.8906 341.297 67.9999 349.283C68.287 350.666 70.0331 350.49 71.0117 351.17C71.2167 351.076 71.6269 350.894 71.8261 350.801C73.6191 351.088 75.4296 351.234 77.246 351.111C82.7187 350.806 88.1972 350.502 93.6699 350.156C95.2285 349.781 96.7812 349.541 98.3574 349.67C99.3066 344.959 99.9628 340.183 100.66 335.426C100.918 335.449 101.439 335.49 101.697 335.508C101.445 335.472 100.935 335.402 100.684 335.367C102.769 322.201 105.213 309.093 107.516 295.968C103.074 297.715 98.3749 298.951 93.5703 298.945Z" fill="white"/>
<path d="M13.3262 367.529C15.5879 367.699 17.8496 367.67 20.1055 367.354C20.0059 368.051 19.9004 368.754 19.7891 369.457C16.6777 369.375 13.5664 369.439 10.4551 369.352L10.1797 367.793C11.2754 368.924 12.0781 367.09 13.3262 367.529Z" fill="white"/>
<path d="M11.0235 257.971C12.8399 258.164 14.6622 258.023 16.4786 257.889C16.4434 258.562 16.42 259.242 16.3907 259.922C14.9961 259.617 13.3907 260.068 12.0958 259.447L11.8731 259.184C11.8555 259.424 11.8262 259.91 11.8086 260.15C10.2032 260.619 10.959 258.721 11.0235 257.971Z" fill="white"/>
<path d="M83.3398 263.098C85.4082 263.643 84.7871 266.092 85.0684 267.709C85.6367 272.443 85.0391 277.236 85.5898 281.959C85.0098 281.982 84.4414 282.012 83.8672 282.047C84.4297 275.742 84.0078 269.385 83.3398 263.098Z" fill="white"/>
<path d="M34.7421 266.297C34.66 265.6 34.6132 264.785 35.5097 264.645C36.7284 265.066 37.5956 266.027 38.0468 267.211C36.8222 267.768 35.6679 267.064 34.7421 266.297Z" fill="white"/>
<path d="M61.4668 294.088C63.6289 293.256 65.9902 293.566 68.252 293.314C69.1953 294.357 67.6895 295.371 66.6992 295.172C64.9531 295.154 62.6621 295.764 61.4668 294.088Z" fill="white"/>
<path d="M444.893 294.849C446.322 294.738 447.764 294.896 449.111 295.417C449.51 299.068 449.316 302.753 449.363 306.421C449.164 310.91 449.686 315.509 448.455 319.892C448.397 326.554 448.52 333.21 448.402 339.873C448.578 342.574 448.414 345.281 447.928 347.941C444.635 348 441.359 348.187 438.078 347.976C434.902 348.345 431.686 347.384 428.563 348.275C428.217 342.925 428.692 337.558 428.656 332.203C428.92 327.925 428.68 323.625 429.055 319.359C429.201 318.158 430.865 318.808 431.674 318.714C436.766 319.248 441.858 318.205 446.943 318.562C447.143 315.193 447.4 311.83 447.266 308.455C447.008 308.566 446.498 308.783 446.24 308.894C446.123 311.566 443.551 313.248 441.342 314.238C439.215 314.765 436.877 314.578 434.838 313.781C431.322 311.888 430.08 307.089 431.75 303.562C433.408 299.683 438.406 298.072 442.221 299.507C444.166 300.457 446.082 302.021 446.615 304.224C447.108 305.66 446.305 307.388 447.465 308.607C447.359 304.523 447.365 300.439 447.588 296.361C446.527 296.314 443.58 296.988 444.893 294.849ZM437.24 301.47C434.803 302.103 432.875 304.529 432.904 307.06C433.174 309.052 434.322 310.945 436.033 312.029C439.508 313.576 444.125 311.402 444.764 307.564C445.127 303.632 441.096 300.134 437.24 301.47ZM432.477 336.521C430.057 338.296 430.561 342.984 433.695 343.599C435.981 344.15 437.715 341.859 438.008 339.837C437.709 337.382 434.838 334.974 432.477 336.521ZM441.758 336.439C439.385 337.699 438.986 341.039 441.014 342.814C443.363 345.111 447.289 342.082 446.797 339.24C446.229 337.218 443.85 335.279 441.758 336.439Z" fill="white"/>
<path d="M317.604 298.377C318.131 298.57 318.664 298.77 319.197 298.975C319.52 300.691 319.918 302.391 320.328 304.09C325.01 303.527 329.738 303.768 334.443 303.621C346.695 303.51 358.953 303.059 371.205 303.662C371.34 304.037 371.621 304.787 371.762 305.162C364.396 305.086 357.031 305.109 349.666 305.104C341.463 305.197 333.271 305.578 325.068 305.473C323.686 305.49 322.25 305.367 320.926 305.836C320.293 306.486 319.918 307.324 319.49 308.115C318.799 307.939 318.113 307.758 317.434 307.57C317.926 306.855 318.406 306.135 318.91 305.426C318.389 303.094 317.832 300.762 317.604 298.377Z" fill="white"/>
<path d="M266.645 302.982C270.676 301.992 274.977 302.695 279.125 302.455C279.066 302.613 278.955 302.93 278.896 303.088C279.629 302.437 280.543 302.226 281.521 302.279C281.387 302.965 281.252 303.662 281.117 304.359C275.258 304.025 269.381 304.359 263.516 304.307C247.496 304.494 231.471 304.67 215.451 304.459C214.402 304.476 213.395 304.799 212.381 305.045C212.305 305.402 212.158 306.117 212.082 306.475C211.408 306.744 210.746 307.025 210.084 307.324C210.723 307.394 211.367 307.459 212.012 307.523C211.443 307.752 210.875 307.98 210.318 308.221C210.928 309.715 210.254 311.133 209.316 312.316C209.123 312.064 208.73 311.56 208.537 311.309C208.162 310.822 207.787 310.342 207.412 309.867C208.414 308.068 209.334 306.217 210.113 304.307L210.33 303.785C210.523 303.809 210.91 303.85 211.104 303.867C211.203 303.58 211.402 303.012 211.502 302.725C214.584 302.443 217.678 302.836 220.766 302.807C228.57 303.146 236.375 303 244.18 302.865C251.445 302.859 258.705 302.771 265.965 302.496C266.135 302.619 266.475 302.859 266.645 302.982ZM209.141 310.922C209.902 311.121 210.4 309.879 210.049 309.305C209.281 309.018 208.736 310.353 209.141 310.922Z" fill="white"/>
<path d="M281.803 302.35C285.588 302.303 289.385 302.437 293.17 302.127L293.48 302.432C293.557 303.064 293.533 303.697 293.404 304.336C289.748 303.68 286.01 304.307 282.324 304.359C282.137 303.686 281.961 303.018 281.803 302.35Z" fill="white"/>
<path d="M436.566 302.596C438.734 301.875 441.717 301.945 443.035 304.131C444.734 306.498 443.621 310.108 441.014 311.291C439.039 311.707 436.625 311.549 435.213 309.943C433.004 307.916 433.707 303.621 436.566 302.596Z" fill="white"/>
<path d="M257.281 383.941C258.705 383.097 260.68 383.771 262.32 383.648C263.662 383.402 264.998 384.72 263.996 385.968C262.127 386.847 259.988 386.097 258.101 385.658C257.205 385.599 256.976 384.65 257.281 383.941Z" fill="white"/>
<path d="M109.941 384.234C111.477 384.029 113.023 384.094 114.57 384.082C114.793 384.703 115.016 385.33 115.244 385.963C113.48 386.068 111.711 386.016 109.953 386.185C109.947 385.693 109.941 384.721 109.941 384.234Z" fill="white"/>
<path d="M441.793 337.659C443.978 336.129 446.92 339.223 445.396 341.321C444.605 342.891 442.068 342.979 441.178 341.461C440.217 340.301 440.545 338.461 441.793 337.659Z" fill="white"/>
<path d="M449.328 339.164C453.77 339.077 458.199 339.504 462.641 339.323C464.65 339.416 466.766 339.024 468.693 339.762C468.67 340.032 468.617 340.571 468.588 340.84C462.201 341.022 455.814 340.864 449.428 340.928C449.404 340.483 449.352 339.604 449.328 339.164Z" fill="white"/>
<path d="M504.312 340.898C504.436 340.271 504.564 339.65 504.705 339.035C506.352 339.316 508.027 339.375 509.703 339.311C509.697 339.727 509.68 340.547 509.674 340.963C507.887 340.963 506.094 340.975 504.312 340.898Z" fill="white"/>
<path d="M318.289 354.932C321.98 353.684 327.307 355.91 327.125 360.363C327.002 365.561 319.49 367.664 316.326 363.803C313.736 361.149 314.996 356.356 318.289 354.932Z" fill="white"/>
<path d="M258.383 362.947C260.609 362.59 263.064 362.291 265.197 363.223C265.812 363.949 264.951 365.045 264.137 365.057C262.391 365.256 260.58 365.344 258.857 364.957C257.879 364.893 257.738 363.445 258.383 362.947Z" fill="white"/>
<path d="M397.52 366.152C400.068 365.543 402.723 365.888 405.318 365.847C436.197 365.642 467.082 366.24 497.955 366.146C498.02 366.621 498.149 367.564 498.213 368.039C486.359 368.068 474.512 368.132 462.676 367.88C441.992 367.71 421.315 367.822 400.631 367.775C399.535 367.646 396.799 368.039 397.52 366.152Z" fill="white"/>
<path d="M498.26 366.317C502.748 366.34 507.242 366.176 511.73 366.375C511.771 366.803 511.854 367.664 511.895 368.092C507.441 368.192 502.977 367.893 498.529 368.204C498.43 367.571 498.342 366.944 498.26 366.317Z" fill="white"/>
<path d="M192.91 371.906C195.277 371.232 197.844 371.602 200.281 371.736C201.717 371.982 203.563 371.93 204.488 373.242C204.031 376.406 203.398 379.541 202.438 382.6C201.869 385.535 201.676 388.623 200.088 391.26C199.707 392.139 198.576 391.975 197.809 392.144C195.131 392.344 192.482 391.605 189.799 391.816C189.02 391.559 187.789 391.365 187.83 390.305C188.281 385.488 189.588 380.795 190.807 376.125C191.275 374.643 191.516 372.832 192.91 371.906Z" fill="white"/>
<path d="M305.633 375.99C306.541 375.135 307.232 376.506 307.689 377.104C308.381 378.404 309.746 379.775 309.219 381.352C308.469 381.592 307.918 381.387 307.572 380.736C306.74 379.254 305.727 377.73 305.633 375.99Z" fill="white"/>
<path d="M124.291 382.881C124.971 382.676 125.65 382.477 126.342 382.283C126.377 382.652 126.447 383.397 126.482 383.766C122.803 387.996 120.412 393.135 117.922 398.109C115.848 402.105 113.885 406.166 111.658 410.086C109.877 413.396 107.691 416.496 106.285 419.994C102.412 429.604 95.8848 437.83 89.1699 445.605C83.6738 451.834 77.8086 457.723 72.4004 464.033C70.0684 466.354 68.334 469.201 65.9316 471.445C63.7344 473.396 61.1445 471.211 59.041 470.232C59.8496 470.022 60.6582 469.811 61.4668 469.617C62.3047 469.828 63.1895 470.748 64.0625 470.332C65.1934 469.189 66.1016 467.848 67.1094 466.6C62.3926 466.828 57.6699 466.6 52.9473 466.641C51.4766 466.125 49.5605 466.096 48.7285 464.555C55.4727 464.215 62.2344 464.748 68.9609 464.133C71.832 461.461 74.2285 458.162 76.9941 455.314C87.8691 443.795 99.3594 432.047 105.131 416.988C111.482 406.998 116.023 396.018 121.994 385.828C119.744 385.939 117.494 385.951 115.244 385.963C115.016 385.33 114.793 384.703 114.57 384.082C117.529 384.006 120.494 384.094 123.441 383.812C123.652 383.584 124.063 383.121 124.268 382.887L124.291 382.881Z" fill="white"/>
<path d="M242.615 383.631C244.719 383.502 246.852 383.385 248.943 383.713L249.271 384.269C249.213 384.609 249.09 385.289 249.025 385.629C246.863 386.021 244.59 386.185 242.439 385.646C242.492 384.967 242.551 384.299 242.615 383.631Z" fill="white"/>
<path d="M332.357 414.275C333.301 412.594 333.904 410.426 335.58 409.354C335.855 409.43 336.406 409.57 336.682 409.641C336.746 412.512 334.73 414.967 333.049 417.129C332.017 416.531 331.748 415.277 332.357 414.275Z" fill="white"/>
<path d="M10.3965 384.768C16.4199 384.27 22.5078 384.809 28.5488 384.369C32.5332 384.545 36.5234 384.1 40.5019 384.469C45.6875 384.129 50.8848 384.469 56.0703 384.311C74.0293 384.557 91.9824 384.363 109.941 384.234C109.941 384.721 109.947 385.693 109.953 386.186C76.7305 387.029 43.4961 386.068 10.2734 386.379C10.3027 385.975 10.3613 385.172 10.3965 384.768Z" fill="white"/>
<path d="M34.4141 389.268C34.3965 387.914 34.1738 385.881 36.2774 386.449C36.3301 390.826 37.1211 395.25 36.5762 399.61C37.1563 403.553 36.8867 407.561 36.916 411.539C36.4239 411.598 35.4278 411.715 34.9356 411.774C34.9004 404.297 34.8653 396.821 34.4785 389.35H35.5274C35.252 389.332 34.6953 389.291 34.4141 389.268Z" fill="white"/>
<path d="M259.748 435.1C260.176 435.803 260.639 436.506 261.072 437.232C261.219 446.32 260.908 455.426 261.242 464.514C271.977 464.332 282.705 464.496 293.439 464.455C319.244 464.361 345.049 464.273 370.853 464.168C370.027 462.967 369.195 461.777 368.363 460.588C368.627 460.559 369.16 460.5 369.424 460.471C369.119 459.949 368.82 459.434 368.533 458.93C368.809 458.689 369.359 458.203 369.635 457.963C370.953 460.055 372.354 462.094 373.719 464.162C373.842 464.467 374.076 465.07 374.199 465.369C374.633 466.084 375.318 466.729 375.295 467.643C374.527 467.273 373.783 466.904 373.016 466.559C371.539 465.955 369.904 466.131 368.352 466.096C323.855 466.283 279.353 466.225 234.857 466.471C209.504 466.682 184.15 466.342 158.797 466.711C155.744 472.143 152.727 477.633 149.293 482.836C166.098 482.648 182.908 482.643 199.713 482.625C203.252 482.508 206.797 482.895 210.33 482.52C210.318 483.135 210.307 483.756 210.301 484.383C189.471 484.354 168.641 484.553 147.805 484.793C144.025 490.646 140.105 496.412 136.578 502.424C135.816 503.572 134.996 505.594 133.303 504.527C132.605 503.484 133.654 502.441 134.076 501.533C137.187 496.652 140.316 491.789 143.475 486.949C147.031 481.682 150.676 476.455 153.746 470.889C156.09 466.863 158.029 462.451 161.58 459.305C164.381 456.721 167.152 454.02 170.416 452.027C170.703 452.813 170.996 453.609 171.295 454.412C167.088 457.102 163.496 460.611 160.144 464.279C193.279 464.244 226.414 464.326 259.549 464.496C259.977 454.705 259.648 444.896 259.748 435.1Z" fill="white"/>
<path d="M210.699 482.461C214.232 482.941 217.801 482.602 221.352 482.666C231.295 482.736 241.238 482.602 251.182 482.648C252.752 482.648 254.346 482.361 255.887 482.854C257.809 482.303 259.807 482.619 261.77 482.566C285.049 482.273 308.305 482.719 331.578 482.086C331.613 482.549 331.695 483.475 331.73 483.932C314.645 484.225 297.541 484.072 280.479 484.518C272.48 484.213 264.459 484.582 256.449 484.418C241.18 484.559 225.893 484.078 210.629 484.436C210.646 483.768 210.67 483.111 210.699 482.461Z" fill="white"/>
</g>
<defs>
<clipPath id="clip0_3101_265637">
<rect width="600" height="600" fill="white" transform="translate(-40)"/>
</clipPath>
</defs>
</svg>
