<svg width="601" height="600" viewBox="0 0 601 600" fill="none" xmlns="http://www.w3.org/2000/svg">
<g clip-path="url(#clip0_2905_62732)">
<path d="M314.164 103.324C315.553 102.298 316.754 103.851 317.428 104.923C321.072 110.953 324.84 116.923 329.064 122.572C336.33 132.345 343.52 142.189 350.252 152.338C354.459 158.754 359.047 164.912 363.254 171.322C368.891 168.24 374.34 164.795 379.701 161.244C383.826 158.543 387.207 154.388 392.229 153.316C396.84 152.343 402.43 153.767 405.025 157.968C408.107 163.119 406.701 170.502 401.873 174.099C397.355 177.638 392.498 180.697 387.77 183.931C384.084 186.468 380.574 189.246 376.777 191.607C382.432 199.517 388.461 207.175 393.822 215.291C392.539 215.22 391.25 215.308 389.973 215.443C384.775 208.078 379.437 200.8 374.68 193.136C370.232 196.084 366.16 199.564 361.602 202.341C365.258 207.433 368.803 212.601 372.16 217.892C371.779 218.062 371.404 218.232 371.035 218.402C370.748 219.216 370.461 220.031 370.186 220.851C366.488 215.062 362.469 209.484 358.35 203.988C353.592 207.328 348.898 210.761 344.311 214.336C341.311 216.685 337.783 218.736 333.869 218.812C330.623 218.789 327.119 217.728 325.068 215.062C322.256 211.5 320.48 206.777 321.354 202.218C321.898 199.406 324.119 197.332 326.451 195.867C332.551 191.718 338.68 187.611 344.984 183.779C341.029 178.277 336.512 173.209 332.603 167.666C321.166 150.533 309.547 133.5 298.941 115.828C297.758 114.304 298.637 112.341 300.342 111.767C305.223 109.418 309.57 106.16 314.164 103.324ZM302.305 114.685C305.287 119.226 307.795 124.054 310.789 128.589C317.691 139.406 324.893 150.029 331.924 160.769C336.055 167.179 340.777 173.173 345.646 179.039C347.211 178.078 348.91 177.158 350.82 177.586C350.902 178.066 351.078 179.021 351.166 179.496C354.307 177.345 357.547 175.33 360.641 173.109C357.957 169.535 355.32 165.925 352.695 162.31C345.969 152.291 338.492 142.798 331.824 132.738C327.811 126.691 323.533 120.826 319.566 114.75C318.389 115.535 317.158 116.297 315.682 116.173C314.961 114.339 316.121 112.693 317.92 112.172C317.527 111.404 317.035 110.701 316.344 110.185C315.67 110.748 315.025 111.334 314.404 111.949C313.426 111.925 312.008 112.089 312.061 110.695C312.617 108.972 314.779 108.638 315.412 106.974C315.078 107.033 314.416 107.156 314.082 107.214C309.998 109.453 306.535 112.675 302.305 114.685ZM392.609 156.123C392.609 156.281 392.609 156.591 392.609 156.75C394.098 157.869 395.727 158.818 397.086 160.113C399.834 162.58 401.592 165.925 402.787 169.371C404.199 166.394 405.125 162.644 403.238 159.662C401.246 155.994 396.377 154.804 392.609 156.123ZM387.875 158.285C386.029 159.884 384.307 161.666 382.162 162.89C382.895 164.156 383.674 165.398 384.506 166.611C383.961 167.027 383.393 168.076 382.578 167.595C381.658 166.646 381.107 165.41 380.17 164.49C378.418 165.164 377.029 166.5 375.418 167.431C376.039 168.474 376.725 169.494 377.17 170.63C377.105 171.533 376.197 171.785 375.447 171.791C374.615 170.818 373.953 169.722 373.203 168.691C371.428 169.886 369.518 170.859 367.66 171.925C368.357 173.015 369.131 174.07 369.682 175.254C369.711 176.091 368.691 176.836 367.953 176.32C366.969 175.476 366.348 174.298 365.562 173.285C362.439 175.06 359.533 177.187 356.434 178.986C357.5 180.123 358.654 181.283 359.146 182.812C359.258 183.791 358.824 184.295 357.834 184.324C356.545 183.246 355.906 181.588 354.857 180.298C353.094 181.629 351.113 182.619 349.309 183.884C349.73 185.349 352.197 187.089 350.732 188.525C348.898 189.199 348.266 186.673 347.158 185.718C345.266 186.826 343.35 187.904 341.328 188.754C342.377 190.107 343.496 191.466 344.141 193.072C344.621 194.109 343.221 195.07 342.348 194.402C341.164 193.213 340.42 191.689 339.617 190.248C337.684 191.408 335.832 192.685 333.887 193.828C334.666 195.035 336.822 196.476 335.545 197.976C333.793 198.562 332.996 196.4 332.27 195.246C330.248 196.464 328.385 197.923 326.416 199.213C326.744 200.267 327.107 201.322 327.488 202.365C328.883 201.088 331.461 198.609 333.09 200.83C331.508 202.494 329.615 203.806 327.775 205.166C328.531 209.806 331.871 214.517 336.84 215.05C339.195 214.716 340.971 212.953 342.84 211.634C347.691 208.089 352.473 204.427 357.518 201.146C366.77 195.076 375.816 188.701 384.857 182.32C389.984 178.722 395.463 175.646 400.373 171.744C400.027 166.769 396.635 162.404 392.264 160.201C390.828 159.562 389.457 158.25 387.875 158.285ZM348.541 180.006C347.65 181.763 350.492 180.064 348.541 180.006V180.006ZM323.598 202.734C323.275 208.037 325.49 214.511 331.121 216.088C328.807 213.574 326.785 210.744 325.607 207.509C324.887 205.939 324.781 204.058 323.598 202.734Z" fill="black"/>
<path d="M323.457 133.084C326.34 132.287 329.996 134.051 330.834 136.998C330.447 139.395 327.658 140.127 325.613 140.332C323.34 140.742 320.949 138.873 321.014 136.529C320.826 134.965 322.045 133.576 323.457 133.084ZM323.873 135.791C323.914 136.272 323.996 137.233 324.043 137.713C325.168 137.742 326.357 137.789 327.336 137.121C327.189 136.817 326.891 136.201 326.744 135.897C325.795 135.674 324.822 135.61 323.873 135.791Z" fill="black"/>
<path d="M331.777 148.494C334.625 147.205 338.404 148.975 339.717 151.693C339.746 155.842 333.271 157.26 330.928 154.125C329.275 152.502 329.48 149.42 331.777 148.494ZM332.516 151.863C333.254 153.059 334.801 153.697 335.967 152.631C336.6 150.445 333.266 150.059 332.516 151.863Z" fill="black"/>
<path d="M341.141 162.071C344.135 161.151 348.354 163.172 348.922 166.406C348.57 169.5 344.68 170.684 342.107 169.676C340.35 168.879 338.797 167.239 338.662 165.246C338.768 163.822 339.816 162.569 341.141 162.071ZM342.283 164.842C340.725 166.992 345.148 168.024 345.535 165.926C345.09 164.614 343.414 164.321 342.283 164.842Z" fill="black"/>
<path d="M309.266 122.912C310.021 121.248 311.387 119.543 313.379 119.514C315.629 119.485 318.008 119.989 319.883 121.289C321.09 122.162 321.113 123.996 320.076 125.016C318.594 126.41 316.484 126.885 314.521 127.096C312.014 127.149 310.127 125.08 309.266 122.912ZM312.488 122.631C311.721 123.574 312.852 124.225 313.396 124.869C314.861 124.946 316.309 124.729 317.346 123.586C316.32 122.104 313.947 121.354 312.488 122.631Z" fill="black"/>
<path d="M465.248 131.397C475.76 128.613 487.197 129.035 497.316 133.125C508.836 137.549 518.346 146.736 523.414 157.963C531.623 175.6 528.43 198.024 515.135 212.338C505.578 223.225 491.082 229.272 476.656 229.008C475.162 240.188 473.791 251.391 472.203 262.559C471.189 271.529 469.543 280.43 468.641 289.412C472.133 285.029 475.273 280.383 478.707 275.959C479.885 274.272 481.396 272.742 482.076 270.762C482.615 267.428 482.668 264.012 483.559 260.736C486.57 247.119 500.006 237.135 513.775 237.193C519.676 237.393 524.357 241.752 527.486 246.393C530.908 251.561 530.521 258.193 529.285 264C527.492 272.326 521.504 278.959 514.982 284.074C511.871 286.441 508.473 288.445 504.84 289.898C503.041 290.666 501.084 291.381 499.895 293.033C496.941 296.883 493.854 300.627 491.041 304.576C494.34 304.723 497.65 304.459 500.949 304.658C503.012 305.121 504.125 307.377 503.996 309.369C504.248 353.127 503.727 396.885 503.955 440.643C503.885 450.047 504.354 459.475 503.703 468.867C510.189 468.733 516.676 468.674 523.168 468.697C535.49 468.809 547.795 467.906 560.111 467.912C561.635 467.66 561.412 470.531 560.152 470.531C546.846 470.01 533.562 471.404 520.262 471.234C504.816 471.51 489.365 471.346 473.92 471.703C455.182 472.365 436.432 472.811 417.682 473.039C395.984 473.156 374.287 472.805 352.596 472.74C335.053 471.856 317.434 471.1 299.896 472.582C284.908 474.117 269.844 471.539 254.85 472.934C244.9 473.514 234.928 473.719 224.961 473.631C220.033 473.637 215.193 472.535 210.277 472.295C199.145 471.674 188.018 472.629 176.885 472.758C163.584 473.397 150.271 472.676 136.965 472.5C121.543 472.283 106.115 471.076 90.6933 471.879C84.8457 471.984 78.998 472.705 73.1504 472.166C64.3848 471.451 55.584 471.984 46.8066 471.486C46.8418 470.783 46.332 469.371 47.4219 469.301C50.2988 468.856 53.2285 469.518 56.1348 469.371C62.1933 469.184 68.2578 469.242 74.3047 469.729C83.2578 469.998 92.2051 469.207 101.152 469.002C101.902 468.041 101.533 466.412 101.703 465.199C101.633 414.035 101.662 362.865 101.551 311.701C101.65 309.387 101.229 306.973 101.984 304.746C102.805 302.707 105.148 302.209 107.117 302.303C116.094 302.256 125.076 302.004 134.047 302.238C128.281 291.223 122.85 280.02 118.203 268.482C116.176 263.244 114.236 257.947 112.9 252.492C112.244 251.092 113.598 250.225 114.506 249.457C113.158 245.842 111.764 242.197 109.836 238.846C105.324 237.322 99.9219 237.035 96.5762 233.244C93.9863 230.508 91.0215 227.883 89.6621 224.268C87.6172 218.883 87.8164 212.889 89.1113 207.352C90.8867 200.162 96.3828 193.699 103.654 191.725C111.471 189.299 121.074 193.025 124.496 200.631C126.887 205.928 125.645 211.863 126.23 217.459C127.215 225.943 131.68 233.397 134.773 241.207C135.998 241.336 137.176 241.834 137.838 242.936C142.373 249.211 144.389 256.828 146.562 264.147C149.984 276.756 152.92 289.494 155.902 302.215C159.916 302.256 163.93 302.191 167.937 302.25C167.703 287.625 166.941 273.018 166.695 258.393C166.432 254.455 166.76 250.143 164.562 246.668C162.535 243.873 158.961 242.982 156.482 240.703C148.83 234.258 145.689 223.547 147.131 213.815C147.687 208.582 150.037 203.338 154.449 200.262C159.57 196.477 166.15 196.248 172.197 195.252C173.521 194.865 174.43 196.225 174.453 197.397C174.816 201.334 174.693 205.301 175.016 209.244C174.98 210.135 175.355 211.33 174.395 211.863C171.898 213.662 169.104 215.262 167.428 217.945C165.078 221.889 165.324 227.514 168.734 230.795C172.93 235.084 180.072 234.885 184.994 232.008C188.463 229.84 190.707 226.025 191.404 222.041C192.072 218.057 190.555 213.486 186.98 211.342C186.025 210.545 184.449 210.024 184.35 208.6C184.115 205.465 184.168 202.301 184.484 199.172C184.631 197.947 185.264 196.131 186.822 196.336C191.85 196.693 196.918 197.484 201.547 199.576C198.693 193.465 197.316 186.645 197.645 179.906C197.592 178.447 198.687 176.795 200.316 177.129C207.377 178.184 214.402 179.514 221.451 180.668C222.939 180.955 224.943 181.084 225.395 182.871C226.76 186.639 228.289 190.617 231.541 193.19C239.053 199.523 252.014 195.533 255.541 186.598C257.879 181.084 258.312 174.293 255.184 168.996C253.437 165.938 249.975 164.332 246.588 163.945C241.461 163.418 236.205 165.211 232.314 168.551C230.797 169.77 229.607 171.328 228.102 172.547C226.906 173.572 224.803 173.203 224.322 171.609C221.076 164.777 218.229 157.77 215.305 150.803C214.654 149.063 213.623 146.649 215.398 145.213C218.92 142.225 223.156 140.104 227.516 138.633C229.127 137.924 230.873 138.803 232.52 138.316C240.119 136.231 248.205 135.434 255.975 137.051C265.373 138.85 273.904 144.457 279.559 152.15C287.029 162.147 289.789 175.231 288.137 187.5C286.947 196.377 282.072 204.44 275.451 210.357C274.332 211.459 272.75 212.66 272.996 214.436C273.113 217.688 274.455 220.711 275.469 223.758C278.586 232.154 281.668 240.568 284.457 249.082C287.908 260.115 290.527 271.395 294.225 282.352C296.545 289.313 298.771 296.326 301.525 303.129C333.002 303.234 364.484 303.568 395.961 303.691C412.139 303.926 428.328 303.82 444.506 304.154C446.064 290.889 448.637 277.77 450.945 264.621C453.137 251.432 455.205 238.225 457.455 225.047C447.582 220.934 439.303 213.287 434.187 203.924C424.531 186.721 426.588 163.781 439.039 148.5C445.695 140.232 455.029 134.203 465.248 131.397ZM470.762 132.861C454.824 135.422 440.545 146.525 434.287 161.426C430.262 170.854 429.547 181.594 431.879 191.543C434.475 202.002 440.867 211.447 449.574 217.781C458.609 224.15 469.9 227.18 480.916 226.359C499.455 225.223 516.623 212.209 522.74 194.678C526.648 183.598 526.35 171.047 521.727 160.231C517.883 150.973 510.846 143.051 502.045 138.234C492.699 132.785 481.379 131.104 470.762 132.861ZM234.148 142.582C234.746 144.076 235.484 145.512 235.936 147.065C235.859 148.43 233.979 149.52 233.012 148.301C231.658 146.631 230.756 144.639 229.385 142.975C225.676 144.012 222.307 145.934 219.014 147.885C221.328 153.967 223.959 159.932 226.666 165.844C226.824 166.225 227.387 167.408 227.879 166.506C232.285 162.006 238.449 159.176 244.795 159.293C250.367 159.281 256.32 161.719 259.145 166.746C262.461 172.623 262.525 179.895 260.557 186.229C258.975 191.555 255.154 196.225 250.098 198.586C245.059 200.947 239.064 201.609 233.779 199.682C229.338 198.106 225.822 194.561 223.66 190.441C222.764 188.795 222.219 186.979 221.24 185.385C214.824 184.113 208.355 183.094 201.916 181.94C202.109 185.514 202.543 189.1 203.615 192.527C206.428 202.072 213.207 210.193 221.58 215.426C228.629 219.897 237.283 220.91 245.445 220.184C246.934 219.908 248.398 220.606 249.107 221.947C251.785 226.623 253.514 231.756 255.67 236.678C261.641 235.107 267.693 233.438 272.955 230.098C271.437 224.719 268.578 219.586 268.602 213.879C268.578 210.557 271.156 208.213 273.389 206.127C279.289 200.461 283.367 192.785 283.947 184.559C282.77 184.453 281.498 184.682 280.402 184.154C279.436 183.92 279.125 182.367 279.998 181.869C281.311 181.266 282.781 181.231 284.193 181.084C284.193 173.701 282.535 166.272 279.031 159.75C275.627 153.293 270.295 147.832 263.738 144.568C254.68 139.822 243.816 139.857 234.148 142.582ZM103.566 194.865C98.5566 196.307 94.5723 200.209 92.1406 204.727C89.6504 209.924 89.8262 216.065 91.2793 221.537C92.123 224.936 94.6894 227.414 96.9101 229.963C98.293 231.498 99.8398 232.969 101.756 233.807C104.428 234.897 107.316 235.231 110.064 236.045C111.43 236.309 111.945 237.721 112.566 238.787C114.096 241.822 115.643 244.863 116.832 248.057C121.695 245.502 126.74 243.252 132.107 241.986C129.242 234.463 124.977 227.291 124.168 219.129C123.541 214.922 124.9 210.633 123.84 206.467C122.721 201.908 119.762 197.678 115.514 195.557C111.816 193.781 107.457 193.617 103.566 194.865ZM155.48 204.27C151.098 208.037 150.289 214.248 150.395 219.697C150.793 227.408 154.426 235.447 161.258 239.479C163.666 241.066 166.713 242.18 167.984 244.986C170.299 250.025 170.27 255.697 170.48 261.129C175.994 259.389 181.854 260.104 187.443 261.041C187.244 256.225 187.455 251.203 189.436 246.727C190.391 244.541 192.465 243.223 194.281 241.816C200.891 236.994 205.678 229.746 207.547 221.783C208.66 216.305 207.992 209.795 203.697 205.787C199.426 201.75 193.42 200.414 187.736 199.94C187.643 202.266 187.32 204.65 187.824 206.947C189.377 208.541 191.475 209.596 192.687 211.535C197.27 218.145 195.436 227.801 189.699 233.139C183.436 239.315 171.863 239.865 165.84 233.086C161.486 228.58 161.422 221.262 164.404 216.006C165.975 213.141 168.881 211.488 171.412 209.602C171.488 206.092 171.33 202.57 171.236 199.061C165.787 199.881 159.758 200.361 155.48 204.27ZM210.729 224.262C208.59 232.477 203.416 239.83 196.525 244.758C194.521 246.211 192.436 247.928 191.891 250.482C190.549 255.932 191.404 261.604 191.047 267.147C190.408 278.9 191.059 290.66 191.281 302.42C218.662 302.578 246.037 302.701 273.418 302.836C269.428 291.44 265.982 279.861 262.168 268.4C257.791 255.779 253.514 243.111 248.398 230.766C247.496 228.721 246.74 226.57 245.416 224.76C240.887 224.854 236.334 224.895 231.857 224.098C223.912 222.891 216.646 218.607 211.139 212.848C212.117 216.598 211.666 220.547 210.729 224.262ZM459.998 226.072C459.541 228.369 459.002 230.643 458.65 232.957C463.531 233.508 468.336 234.574 473.182 235.354C473.439 233.221 473.703 231.088 473.996 228.961C469.221 228.633 464.557 227.473 459.998 226.072ZM458.316 235.541C457.865 238.283 457.332 241.008 456.881 243.75C461.826 244.594 466.812 245.18 471.752 246.059C472.232 243.381 472.596 240.686 472.754 237.979C467.955 237.088 463.15 236.209 458.316 235.541ZM500.727 244.231C493.543 247.863 488.182 254.877 486.664 262.793C485.891 265.734 486.119 268.805 485.539 271.77C484.771 274.072 482.99 275.842 481.619 277.793C474.91 286.617 468.307 295.523 461.533 304.307C469.602 304.424 477.67 304.471 485.744 304.518C486.529 304.705 486.939 303.967 487.355 303.469C490.637 299.139 493.965 294.838 497.322 290.566C499.496 287.455 503.521 286.992 506.604 285.176C515.205 280.518 523.203 273.211 525.729 263.443C526.941 258.357 527.428 252.422 524.217 247.945C521.744 244.441 518.293 240.955 513.758 240.691C509.182 240.527 504.746 242.186 500.727 244.231ZM456.459 246.498C455.984 249.563 455.463 252.621 454.936 255.68C460.01 256.512 465.119 257.109 470.223 257.736C470.709 254.69 471.195 251.631 471.389 248.555C466.449 247.652 461.463 246.943 456.459 246.498ZM454.619 258.486C454.016 261.756 453.494 265.049 452.984 268.342C458.146 269.262 463.338 270.106 468.564 270.545C468.975 267.141 469.543 263.76 469.842 260.344C464.779 259.641 459.711 258.897 454.619 258.486ZM452.416 271.072C451.965 274.119 451.402 277.148 450.834 280.178C456.172 281.15 461.545 282.129 466.971 282.404C467.428 279.357 467.92 276.311 468.09 273.24C462.869 272.473 457.654 271.658 452.416 271.072ZM450.406 282.99C449.832 285.721 449.41 288.481 448.859 291.223C454.25 292.465 459.676 293.766 465.189 294.305C465.799 291.346 466.145 288.346 466.549 285.357C461.188 284.455 455.791 283.729 450.406 282.99ZM446.973 304.195C450.465 304.078 453.975 304.377 457.455 304.201C459.518 301.893 461.299 299.35 463.127 296.859C458.252 295.898 453.383 294.897 448.496 293.994C447.898 297.381 447.371 300.779 446.973 304.195ZM104.012 307.635C103.941 322.506 103.918 337.383 103.977 352.254C109.912 351.902 115.842 351.322 121.795 351.486C131.006 351.422 140.182 352.365 149.381 352.535C149.51 346.67 149.393 340.787 149.773 334.94C149.814 333.398 151.426 332.602 152.797 332.836C163.367 332.982 173.937 333.082 184.502 332.854C185.756 332.684 187.25 333.164 187.607 334.523C187.836 335.912 187.543 337.318 187.402 338.707C186.793 343.096 187.355 347.52 187.619 351.908C218.609 352.149 249.605 351.44 280.596 350.941C295.625 350.941 310.654 350.572 325.689 350.496C356.217 350.379 386.744 349.6 417.271 349.436C417.4 345.293 417.107 341.127 417.482 336.996C417.576 335.326 418.59 333.586 420.318 333.217C425.662 332.309 431.07 333.475 436.438 333.193C441.881 332.303 447.406 331.16 452.949 331.775C454.602 331.981 455.791 333.522 455.838 335.15C456.143 339.82 455.984 344.508 456.037 349.19C471.166 349.354 486.301 349.395 501.436 349.488C501.418 336.299 501.389 323.115 501.289 309.932C501.33 308.912 501.137 307.594 499.801 307.84C489.436 307.617 479.064 307.506 468.693 307.459C438.02 307.166 407.357 306.803 376.684 306.656C346.414 306.357 316.145 306.357 285.869 306.018C254.211 305.766 222.553 305.754 190.889 305.514C162.77 305.449 134.645 304.934 106.531 305.391C105.148 305.191 103.801 306.135 104.012 307.635ZM152.422 335.818C152.076 337.137 152.205 338.508 152.176 339.856C152.129 348.24 152.24 356.625 151.824 364.998C151.584 372.152 151.074 379.318 151.396 386.479C153.09 386.514 154.789 386.502 156.488 386.438C158.615 382.166 162.459 378.1 167.51 377.889C172.027 378.158 176.064 381.615 177.184 385.986C179.797 386.057 182.416 385.998 185.035 385.981C185.363 374.695 185.604 363.369 184.566 352.113C184.268 346.717 183.605 341.273 184.531 335.895C175.145 335.883 165.752 336.094 156.371 335.637C155.053 335.637 153.705 335.473 152.422 335.818ZM440.609 336.117C434.434 337.717 428.076 335.707 421.848 336.604C420.728 336.563 420.787 337.846 420.752 338.637C420.746 346.652 420.875 354.68 420.564 362.695C420.482 368.936 420.107 375.182 420.512 381.416C422.639 381.609 424.818 381.645 426.922 381.188C427.982 379.793 427.906 377.813 428.949 376.371C431.521 372.457 437.469 370.629 441.5 373.389C443.949 374.971 445.262 377.731 446.082 380.438C448.408 380.731 450.758 380.584 453.09 380.42C453.102 376.652 452.926 372.891 452.891 369.123C452.445 357.826 452.902 346.506 452.381 335.215C448.443 334.875 444.43 335.068 440.609 336.117ZM456.02 352.148C456.072 361.137 456.002 370.137 456.441 379.119C456.518 380.754 456.441 383.051 454.537 383.631C452.059 384.123 449.504 383.918 446.996 383.959C445.73 383.854 444.002 384.117 443.299 382.781C442.109 380.666 441.512 378.111 439.49 376.57C437.533 374.953 434.633 375.856 432.857 377.32C430.555 379.008 431.58 383.033 428.85 384.258C425.633 384.598 422.293 384.856 419.111 384.188C417.107 383.684 416.949 381.34 416.955 379.647C416.844 370.565 417.213 361.488 417.271 352.406C403.555 352.178 389.832 352.6 376.109 352.647C359.908 352.951 343.707 352.951 327.506 353.15C297.207 353.432 266.908 354 236.615 354.563C220.367 354.715 204.119 354.615 187.871 354.609C188.533 365.332 188.111 376.078 187.607 386.801C187.742 388.172 186.184 388.518 185.117 388.406C181.842 388.295 178.525 388.682 175.279 388.26C174.008 387.023 173.797 385.078 172.654 383.731C170.533 380.848 166.033 380.25 163.232 382.482C160.971 384.041 159.934 386.678 158.381 388.834C155.416 388.981 152.311 389.227 149.404 388.488C148.654 386.209 148.83 383.789 148.812 381.434C148.842 372.633 149.334 363.844 149.41 355.049C143.135 354.926 136.877 354.387 130.607 354.164C121.707 354.006 112.754 353.32 103.9 354.615C103.912 389.525 103.836 424.436 103.871 459.346C103.859 462.598 103.918 465.867 103.484 469.102C117.014 469.33 130.537 469.957 144.066 469.951C160.467 469.916 176.873 470.449 193.268 469.811C201.084 469.6 208.947 469.418 216.705 470.602C222.91 471.574 229.209 471.299 235.467 471.193C243.072 471.059 250.678 470.783 258.283 470.402C266.504 469.875 274.725 470.707 282.945 470.871C295.549 471.574 308.088 469.611 320.686 469.746C320.861 468.1 320.305 465.943 321.77 464.772C323.809 464.145 325.959 464.467 328.057 464.484C329.867 464.531 331.514 463.535 333.324 463.576C334.994 463.641 336.646 463.887 338.305 464.074C336.682 460.301 337.291 455.238 340.941 452.877C344.838 450.082 350.949 452.947 351.605 457.617C352.051 459.738 350.996 461.707 349.877 463.418C356.264 463.5 362.645 463.02 369.037 463.02C375.488 463.02 381.939 463.102 388.391 462.984C390.576 463.002 392.938 461.361 394.988 462.691C396.57 464.877 395.58 467.842 395.99 470.367C399.998 470.824 404.047 470.438 408.072 470.619C408.764 460.811 410.023 451.043 410.469 441.211C410.551 435.551 410.598 429.885 410.955 424.231C411.652 411.943 411.096 399.639 411.049 387.34C410.914 385.377 412.801 383.689 414.74 384.035C424.244 385.553 433.906 384.592 443.486 384.885C453.26 384.797 463.021 385.588 472.801 385.5C477.078 385.752 481.35 385.4 485.633 385.465C487.045 385.371 488.439 386.449 488.416 387.938C488.779 395.203 488.75 402.486 488.873 409.764C489.008 429.422 489.348 449.08 489.359 468.738C493.355 468.492 497.357 468.035 501.324 467.455C501.676 464.186 501.459 460.893 501.518 457.611C501.137 422.508 501.371 387.404 501.383 352.295C486.266 352.008 471.137 351.926 456.02 352.148ZM413.697 386.953C413.428 389.408 413.48 391.887 413.504 394.359C413.463 395.168 413.68 395.912 414.16 396.586C415.977 393.791 414.939 390.205 415.18 387.065C414.811 387.035 414.066 386.982 413.697 386.953ZM417.992 387.369C418.174 389.52 418.156 391.682 418.18 393.838C418.432 393.891 418.93 393.99 419.182 394.037C419.463 391.77 419.457 389.484 419.369 387.211C419.023 387.252 418.338 387.334 417.992 387.369ZM438.975 387.381C439.291 393.211 438.934 399.082 439.402 404.9C440.141 406.113 440.891 404.449 440.914 403.811C441.061 398.672 441.154 393.527 441.16 388.389C441.389 387.082 439.701 387.604 438.975 387.381ZM422.486 387.768C421.748 393.85 421.725 399.996 421.965 406.107C421.748 406.869 422.75 408.123 423.453 407.203C423.734 405.07 423.559 402.914 423.617 400.775C423.588 396.387 424.174 392.022 424.039 387.639C423.652 387.668 422.873 387.732 422.486 387.768ZM432.729 387.633C432.904 390.188 432.6 392.789 433.186 395.309C433.695 395.262 434.721 395.162 435.23 395.115C435.4 392.66 435.359 390.199 435.324 387.744C434.451 387.709 433.59 387.674 432.729 387.633ZM444.588 387.586C444.518 390.006 444.447 392.432 444.582 394.852C445.555 394.852 446.533 394.846 447.518 394.828C447.676 392.473 447.682 390.111 447.541 387.756C446.551 387.709 445.566 387.65 444.588 387.586ZM451.479 387.668C451.455 390.053 451.373 392.449 451.719 394.816C452.439 394.834 453.172 394.852 453.91 394.863C453.816 392.59 453.705 390.316 453.67 388.043C452.932 387.908 452.205 387.785 451.479 387.668ZM456.74 387.838C456.764 393.51 456.5 399.211 457.01 404.865C458.586 405.633 458.627 403.617 458.656 402.58C458.68 397.652 458.727 392.725 458.779 387.797C458.27 387.809 457.25 387.826 456.74 387.838ZM472.033 387.979C471.969 394.195 472.027 400.418 472.139 406.629C471.951 408.088 474.037 407.01 473.797 406.061C474.172 400.078 473.826 394.084 473.85 388.102C473.398 388.072 472.49 388.008 472.033 387.979ZM476.428 388.172C476.094 390.387 476.158 392.643 476.053 394.881C476.609 394.811 477.172 394.74 477.74 394.676C477.875 392.561 477.916 390.445 477.863 388.336C477.377 388.277 476.902 388.219 476.428 388.172ZM426.857 388.043C426.635 390.434 426.289 392.836 426.564 395.244C427.268 395.244 427.977 395.244 428.691 395.244C429.008 392.83 428.908 390.393 428.885 387.973C428.381 387.99 427.361 388.025 426.857 388.043ZM462.02 388.002C461.996 390.158 461.99 392.309 461.984 394.471C462.459 394.441 463.402 394.383 463.877 394.359C463.982 392.279 464.053 390.205 463.912 388.131C463.438 388.102 462.494 388.037 462.02 388.002ZM467.422 388.119C467.492 390.141 467.27 392.18 467.598 394.19C468.031 394.236 468.898 394.33 469.332 394.377C469.338 392.285 469.338 390.199 469.32 388.113C468.846 388.113 467.896 388.119 467.422 388.119ZM481.479 388.166C481.473 390.522 481.455 392.877 481.537 395.233C482.334 395.221 483.137 395.197 483.945 395.162C484.004 392.859 484.057 390.557 484.127 388.26C483.242 388.231 482.357 388.195 481.479 388.166ZM469.121 454.137C468.699 457.629 469.092 461.215 469.25 464.731C469.021 465.791 470.598 466.154 470.744 465.035C470.99 461.807 470.797 458.555 470.598 455.332C470.568 454.594 470.135 453.117 469.121 454.137ZM429.969 456.404C430.15 460.348 430.033 464.326 430.578 468.246C430.889 468.258 431.516 468.287 431.826 468.305C432.113 465.738 431.873 463.154 431.879 460.582C431.791 458.479 432.055 456.299 431.293 454.289C430.373 454.629 429.781 455.397 429.969 456.404ZM448.473 454.951C447.869 458.098 448.35 461.414 448.227 464.625C448.174 465.475 448.279 467.684 449.668 466.793C450.172 462.809 450.107 458.707 449.832 454.699C449.545 454.67 448.965 454.611 448.678 454.588L448.473 454.951ZM411.219 456.92C411.148 460.166 411.02 463.488 411.641 466.688C411.811 467.678 413.205 467.607 413.012 466.5C413.135 462.984 413.135 459.44 412.701 455.947C412.092 456.094 411.236 456.053 411.219 456.92ZM368.58 465.598C368.428 467.209 368.416 468.832 368.533 470.449C369.605 470.467 370.678 470.467 371.756 470.443C371.814 468.838 371.861 467.238 371.844 465.645C370.754 465.621 369.664 465.604 368.58 465.598ZM390.547 465.621C390.195 467.191 390.271 468.82 390.242 470.42C391.15 470.432 392.064 470.438 392.984 470.443C393.02 468.609 393.043 466.77 392.785 464.953C392.023 465.135 391.279 465.357 390.547 465.621ZM331.654 466.324C331.678 467.537 331.707 468.756 331.73 469.981C332.562 469.94 333.395 469.899 334.232 469.852C334.262 468.598 334.309 467.35 334.326 466.107C333.43 466.166 332.545 466.236 331.654 466.324ZM342.02 466.219C341.885 467.514 341.814 468.815 341.861 470.127C343.039 470.191 344.223 470.227 345.412 470.262C345.342 468.815 345.195 467.379 344.949 465.967C343.965 466.025 342.992 466.107 342.02 466.219ZM347.305 465.891C347.141 467.402 347.076 468.926 347.146 470.449C348.318 470.449 349.502 470.461 350.68 470.455C350.627 469.025 350.674 467.596 350.82 466.184C349.648 466.055 348.477 465.961 347.305 465.891ZM352.725 465.961C352.613 467.49 352.602 469.025 352.695 470.566C353.932 470.607 355.174 470.637 356.422 470.666C356.533 469.084 356.562 467.496 356.533 465.92C355.262 465.908 353.99 465.932 352.725 465.961ZM358.637 465.732C358.555 467.373 358.566 469.025 358.648 470.672C359.627 470.666 360.605 470.654 361.59 470.637C361.654 469.008 361.631 467.385 361.543 465.762C360.57 465.75 359.603 465.738 358.637 465.732ZM363.711 465.557C363.711 467.238 363.729 468.926 363.846 470.619C364.754 470.578 365.668 470.537 366.588 470.49C366.611 468.967 366.723 467.438 366.512 465.932C365.65 465.522 364.631 465.686 363.711 465.557ZM373.812 470.49C375.178 470.525 376.549 470.502 377.92 470.426C377.996 468.838 377.984 467.244 377.908 465.662C376.66 465.645 375.412 465.674 374.17 465.738C373.854 467.297 373.771 468.897 373.812 470.49ZM380.023 465.709C379.994 467.297 380.023 468.891 380.135 470.484C380.896 470.467 381.664 470.449 382.432 470.432C382.502 468.867 382.52 467.315 382.467 465.762C381.646 465.738 380.832 465.721 380.023 465.709ZM384.793 465.697C384.781 467.262 384.799 468.826 384.875 470.397C385.877 470.432 386.885 470.461 387.898 470.496C388.01 468.873 388.121 467.256 388.227 465.639C387.072 465.633 385.936 465.662 384.793 465.697ZM323.135 467.854C323.141 468.545 322.678 470.004 323.885 469.828C325.783 470.156 325.209 467.842 325.279 466.699C324.523 466.875 323.105 466.705 323.135 467.854ZM327.641 466.717C327.594 467.76 327.594 468.809 327.611 469.863C328.186 469.828 328.766 469.799 329.346 469.77C329.299 468.727 329.252 467.69 329.164 466.652C328.783 466.67 328.021 466.705 327.641 466.717ZM336.418 466.266C336.447 467.52 336.512 468.779 336.605 470.039C337.719 470.045 338.832 470.057 339.957 470.057C339.939 468.779 339.91 467.508 339.869 466.242C338.715 466.254 337.561 466.26 336.418 466.266Z" fill="black"/>
<path d="M476.059 141.703C484.027 140.479 492.447 141.522 499.631 145.289C507.541 149.186 514.057 156.094 516.84 164.525C519.916 173.496 519.154 183.533 515.51 192.223C511.807 200.754 505.068 207.703 497.228 212.561C488.533 217.975 477.951 220.477 467.773 218.953C458.012 217.289 449.416 210.791 444.512 202.277C436.771 189.164 437.316 171.592 446.217 159.176C450.037 153.691 455.744 149.918 461.562 146.83C466.127 144.486 470.973 142.535 476.059 141.703Z" fill="black"/>
<path d="M107.135 206.203C110.064 204.762 110.527 200.678 113.451 199.254C114.998 199.529 115.303 201.504 115.895 202.723C116.809 205.453 117.957 208.113 118.713 210.896C119.369 212.279 117.752 213.176 116.586 213.152C114.301 213.088 112.01 212.918 109.73 213.223C109.871 215.057 110.674 216.732 111.031 218.52C111.406 220.225 108.898 221.643 107.68 220.318C106.525 218.959 105.875 217.254 104.891 215.777C102.963 217.119 101.387 218.871 99.6875 220.482C99.0371 221.145 97.6426 221.227 97.2266 220.254C96.2598 218.355 95.8145 216.234 94.9707 214.277C94.3848 212.578 93.3945 210.949 93.3418 209.115C95.4629 206.607 99.1309 208.102 101.949 207.51C101.697 206.115 101.082 204.744 101.193 203.314C101.797 202.166 103.32 201.328 104.58 201.85C105.898 202.975 105.623 205.348 107.135 206.203Z" fill="black"/>
<path d="M394.59 215.332C396.846 214.067 399.184 210.879 402.008 212.52C406.039 215.15 408.295 219.75 409.871 224.156C411.33 227.748 408.723 231.416 409.941 235.055C411.148 239.104 413.029 243.457 416.75 245.795C419.885 247.811 423.857 246.486 427.115 248.121C433.443 250.834 437.674 257.127 439.045 263.736C440.059 269.15 439.332 274.934 436.754 279.832C433.432 286.441 426.834 291.205 419.621 292.611C414.863 294.873 409.379 295.213 404.24 294.352C396.752 292.969 390.324 287.772 386.592 281.244C384.242 277.166 382.408 272.572 382.631 267.785C382.719 264.053 384.178 260.285 383.088 256.582C382.285 253.817 380.228 251.045 377.223 250.57C375.84 250.207 373.93 250.541 373.186 249.012C370.725 245.051 368.217 241.119 365.586 237.264C365.111 236.414 364.355 235.541 364.49 234.51C367.672 232.113 370.836 229.641 374.357 227.736C373.144 225.352 371.645 223.131 370.168 220.904L370.186 220.852C370.461 220.031 370.748 219.217 371.035 218.402C371.404 218.233 371.779 218.063 372.16 217.893C373.918 220.541 375.576 223.248 377.398 225.85C381.998 223.014 386.656 220.266 391.221 217.377C390.811 216.727 390.394 216.082 389.973 215.443C391.25 215.309 392.539 215.221 393.822 215.291C394.016 215.303 394.396 215.326 394.59 215.332ZM410.369 262.342C408.863 262.992 407.428 264.053 406.801 265.617C404.662 269.983 407.51 276.229 412.478 276.885C416.363 276.932 419.779 273.375 419.838 269.537C420.037 264.85 414.723 261.012 410.369 262.342Z" fill="black"/>
<path d="M157.596 338.783C158.094 338.754 159.09 338.689 159.588 338.654C159.793 340.131 159.775 341.619 159.729 343.113C165.623 343.705 171.57 342.387 177.436 343.289C179.158 344.713 179.018 347.221 179.234 349.242C179.287 354.223 179.586 359.297 178.496 364.195C178.127 365.842 176.17 365.262 175.033 364.945C170.111 363.516 164.955 364.236 159.922 364.049C158.428 364.148 157.367 362.871 157.238 361.488C156.207 353.93 157.613 346.348 157.596 338.783Z" fill="black"/>
<path d="M176.498 338.829C177.008 338.279 178.519 338.232 178.514 339.257C178.771 340.552 178.531 341.876 178.18 343.13C177.687 343.071 176.703 342.954 176.211 342.89C176.217 341.536 176.006 340.118 176.498 338.829Z" fill="black"/>
<path d="M424.982 338.953C425.633 338.894 426.283 338.859 426.951 338.865C427.572 340.301 427.197 341.941 427.215 343.465C433.262 344.174 439.338 343.746 445.402 343.558C445.625 341.806 444.359 337.611 447.541 338.525C447.893 342.088 447.588 345.668 447.723 349.236C447.723 353.326 447.975 357.433 447.74 361.517C447.664 363.052 445.754 362.83 444.682 362.748C440.17 362.203 435.605 362.291 431.094 362.842C429.248 362.965 427.25 363.416 425.521 362.543C424.766 360.955 425.018 359.127 424.93 357.422C424.977 351.269 424.9 345.111 424.982 338.953Z" fill="black"/>
<path d="M275.035 400.524C278.41 397.395 283.865 397.026 287.709 399.504C290.475 401.127 292.326 403.934 293.135 406.998C296.773 407.151 300.418 406.805 304.051 406.975C306.072 407.479 305.68 410.719 303.652 410.901C300.225 411.199 296.773 411.305 293.369 411.832C292.408 414.522 291.277 417.317 288.928 419.104C284.58 422.742 277.432 421.764 274.016 417.305C270.014 412.535 270.488 404.76 275.035 400.524Z" fill="black"/>
<path d="M288.43 453.175C292.121 451.611 296.176 455.625 295.021 459.357C294.225 462.978 289.08 464.232 286.625 461.531C284 459.158 285.143 454.312 288.43 453.175Z" fill="black"/>
<path d="M88.4727 167.508C89.7324 167.033 90.1836 168.516 90.6875 169.324C93.4766 175.142 96.0899 181.078 98.0293 187.236C98.4981 188.092 97.5371 188.988 96.6699 188.766C95.5977 186.873 95.0938 184.734 94.3145 182.719C92.7324 178.57 90.9043 174.51 88.9297 170.531C88.5078 169.582 87.8399 168.533 88.4727 167.508Z" fill="black"/>
<path d="M117.318 174.334C117.969 173.361 119.732 174.75 118.842 175.711C117.535 178.119 116.369 180.627 114.863 182.918C114.459 183.926 112.578 183.457 113.129 182.332C114.33 179.584 115.613 176.806 117.318 174.334Z" fill="black"/>
<path d="M138.336 191.684C139.414 191.461 140.176 193.096 139.045 193.612C137.703 194.332 136.25 195.188 134.668 195C133.537 192.92 136.918 192.258 138.336 191.684Z" fill="black"/>
<path d="M66.3066 201.106C67.0039 200.467 67.9414 201.123 68.6914 201.299C72.1719 202.67 75.7988 203.772 79.0977 205.547C80.0762 205.846 80.0938 207.633 78.9277 207.662C76.1621 206.877 73.6367 205.418 70.8945 204.551C69.2188 203.848 67.2266 203.561 65.9492 202.184C66.0371 201.914 66.2188 201.375 66.3066 201.106Z" fill="black"/>
<path d="M64.0801 228.779C67.9707 226.869 72.0195 225.281 76.1094 223.851C77.2519 223.107 78.2656 223.904 78.5351 225.087C74.9434 227.191 70.8711 228.263 67.0859 229.968C65.8965 230.29 64.6191 231.369 63.3769 230.701C62.791 229.915 63.166 229.031 64.0801 228.779Z" fill="black"/>
<path d="M87.3535 236.947C87.8222 235.962 89.2168 236.994 89.1171 237.826C88.4433 240.035 87.3535 242.091 86.5859 244.265C85.9648 245.666 85.6191 247.324 84.3418 248.302C82.2793 248.15 83.4218 246.134 83.8261 244.98C85.0156 242.314 85.7304 239.39 87.3535 236.947Z" fill="black"/>
<path d="M507.043 246.457C511.051 245.15 515.955 246.123 518.592 249.574C520.52 252.046 520.631 255.392 520.127 258.369C518.861 264.755 515.521 270.849 510.342 274.886C507.383 277.107 503.516 278.49 499.824 277.593C496.268 276.826 493.449 273.919 492.266 270.556C491.375 267.873 491.68 264.955 492.395 262.271C494.434 255.128 499.947 248.859 507.043 246.457ZM507.646 250.025C501.389 252.656 496.279 258.58 495.289 265.377C494.574 269.021 496.771 273.046 500.369 274.136C503.961 274.974 507.412 272.882 509.873 270.445C513.652 266.589 516.289 261.474 516.746 256.054C516.934 254.062 516.301 251.806 514.578 250.64C512.568 249.24 509.891 249.275 507.646 250.025Z" fill="black"/>
<path d="M546.834 265.166C547.713 264.082 549.688 265.254 549.125 266.555C547.215 273.105 542.914 278.637 538.426 283.641C536.545 285.551 534.775 287.666 532.426 289.014C531.682 289.453 530.949 289.43 530.217 288.943C529.467 287.08 531.617 286.031 532.684 284.906C538.168 279.703 542.873 273.539 545.979 266.619C546.201 266.098 546.488 265.611 546.834 265.166Z" fill="black"/>
<path d="M514.279 304.143C522.693 304.717 531.113 305.654 539.563 305.59C541.004 305.754 543.061 304.629 544.039 306.105C544.268 307.904 541.971 307.828 540.752 307.975C532.309 308.297 523.848 307.453 515.463 306.568C513.916 306.674 513.729 305.221 514.279 304.143Z" fill="black"/>
<path d="M264.143 373.071C294.623 372.585 325.103 372.755 355.578 372.181C361.045 372.087 366.529 371.606 371.996 371.993C374.48 372.14 376.098 374.519 376.432 376.804C376.725 379.511 376.52 382.241 376.531 384.966C376.309 385.938 376.865 386.671 377.445 387.397C377.756 388.276 376.883 388.71 376.32 389.132C376.256 389.56 376.127 390.409 376.068 390.837C376.391 390.966 377.035 391.229 377.357 391.364C377.387 391.827 377.445 392.759 377.475 393.228C377.082 393.38 376.303 393.673 375.91 393.825C375.916 394.593 375.928 395.366 375.957 396.145C376.912 396.544 378.412 396.509 378.564 397.833C378.189 399.069 376.713 399.058 375.734 399.55C375.752 400.013 375.799 400.944 375.816 401.407C376.801 402.128 378.318 402.573 378.072 404.12C377.346 404.366 376.637 404.636 375.934 404.935C375.283 405.901 376.555 406.663 377.064 407.319C376.689 408.046 376.268 408.755 375.939 409.511C375.764 417.169 375.687 424.833 375.559 432.491C377.75 432.438 379.936 432.198 382.127 432.286C382.502 434.958 382.467 437.694 382.268 440.378C381.805 442.335 379.432 441.878 377.955 441.802C367.959 441.497 357.957 441.386 347.961 441.386C338.17 441.392 328.402 441.989 318.623 442.312C318.436 446.448 318.576 450.591 318.389 454.728C318.705 456.122 319.93 457.253 319.812 458.77C319.836 461.847 316.227 464.595 313.402 462.813C310.414 461.214 310.713 456.931 312.916 454.78C312.869 450.69 312.857 446.601 312.705 442.517C297.693 442.429 282.682 441.767 267.676 442.481C263.92 442.311 259.748 443.296 256.297 441.45C255.564 439.593 256.004 437.53 256.021 435.597C252.922 435.573 249.635 436.036 246.693 434.835C244.83 434.079 244.338 431.905 244.42 430.101C244.672 412.323 244.689 394.54 244.795 376.757C244.859 375.38 244.941 373.388 246.6 372.989C252.436 373.417 258.295 373.06 264.143 373.071ZM362.059 375.181C362.885 375.122 363.611 374.729 364.238 374.214C363.395 374.255 362.645 374.583 362.059 375.181ZM365.551 374.472C365.937 375.122 366.154 375.919 366.816 376.376C367.883 376.071 367.549 374.659 367.824 373.851C367.057 374.032 366.301 374.231 365.551 374.472ZM339.758 374.753C308.867 374.706 278 375.972 247.109 375.936C246.98 378.21 246.934 380.489 246.969 382.774C249.887 382.001 252.951 382.288 255.939 382.142C273.148 381.708 290.369 381.72 307.578 381.198C322.795 380.694 338.012 381.843 353.228 381.562C355.133 381.503 357.072 381.45 358.894 380.829C358.982 380.601 359.152 380.149 359.234 379.927C358.15 379.394 356.375 378.866 356.686 377.296C356.773 375.532 359.146 376.634 360.301 376.247C360.242 375.825 360.131 374.97 360.078 374.548C353.305 374.589 346.531 374.794 339.758 374.753ZM370.109 374.425C370.338 376.03 369.969 377.595 369.57 379.142C370.42 380.806 372.494 381.374 374.012 382.306C374.393 379.229 373.871 374.993 370.109 374.425ZM362.035 377.618C361.115 383.618 362.258 389.636 362.826 395.606C363.459 400.751 364.08 406.429 367.783 410.39C368.006 411.269 368.861 410.431 368.586 409.974C368.305 408.239 367.631 406.604 367.35 404.876C365.861 397.118 367.121 389.179 366.195 381.38C365.691 379.522 364.016 377.776 362.035 377.618ZM304.314 383.724C287.064 384.843 269.768 384.661 252.488 384.86C250.537 384.796 248.773 385.71 246.916 386.138C246.975 400.188 246.752 414.245 247.051 428.296C247.144 429.649 246.957 431.196 247.848 432.351C248.703 433.282 250.086 433.3 251.264 433.329C263.381 433.364 275.48 432.45 287.598 432.913C302.258 433.61 316.918 432.515 331.578 432.632C345.453 432.755 359.311 431.735 373.18 431.952C373.344 425.349 373.467 418.739 373.52 412.136C372.096 412.716 370.613 413.231 369.055 413.05C368.727 414.28 367.93 415.019 366.6 414.966C366.359 413.911 366.166 412.845 365.996 411.79C364.437 411.362 362.65 413.63 361.543 411.872C361.666 410.448 363.453 409.124 362.715 407.735C361.73 407.999 360.77 408.702 359.715 408.386C358.08 406.681 360.816 405.474 361.678 404.202C360.617 403.815 359.246 403.974 358.449 403.06C358.355 401.577 359.891 400.569 359.803 399.052C358.613 399.052 357.424 399.081 356.24 399.046C356.24 398.642 356.24 397.839 356.24 397.44C357.4 396.644 359.463 396.286 359.076 394.464C358.086 394.44 357.107 394.423 356.123 394.405C355.848 393.808 355.695 393.187 355.66 392.548C356.633 391.505 358.602 391.382 358.684 389.647C357.424 389.466 355.953 389.507 355.01 388.522C354.576 387.456 355.719 386.829 356.316 386.185C356.773 386.237 357.687 386.343 358.139 386.395C358.25 384.62 356.568 383.776 355.021 383.847C338.117 384.409 321.213 382.71 304.314 383.724ZM373.391 384.099C372.67 384.585 372.98 385.88 373.853 385.974C375.102 385.903 374.568 383.39 373.391 384.099ZM369.189 383.864C368.51 392.519 368.873 401.354 371.047 409.792C371.439 409.013 371.762 408.181 371.768 407.302C371.996 403.353 371.809 399.392 371.516 395.454C371.369 391.511 370.842 387.479 369.189 383.864ZM373.783 389.161C372.816 390.872 375.728 389.308 373.783 389.161V389.161ZM368.715 435.022C368.475 436.153 368.387 437.313 368.393 438.479C368.709 439.206 369.564 438.884 370.174 439.013C373.285 439.071 376.396 439.188 379.514 439.3C379.502 437.899 379.484 436.499 379.449 435.104C375.869 435.069 372.289 434.794 368.715 435.022ZM259.15 436.329C258.746 437.401 258.57 438.532 258.494 439.675C262.537 439.927 266.592 439.669 270.635 439.616C283.127 439.306 295.613 439.722 308.105 439.763C327.383 439.569 346.648 438.087 365.932 438.749C366.066 437.53 366.201 436.317 366.33 435.11C348.301 435.257 330.26 434.888 312.23 435.257C295.613 436.106 278.955 434.425 262.35 435.796C261.271 435.919 260.211 436.147 259.15 436.329ZM314.99 442.253C314.99 446.278 314.99 450.333 315.353 454.341C315.547 454.435 315.928 454.616 316.121 454.704C316.355 450.679 316.338 446.63 316.215 442.604C315.91 442.517 315.295 442.341 314.99 442.253Z" fill="black"/>
<path d="M125.346 421.887C125.926 416.596 125.937 411.199 126.957 405.996C127.344 405.99 128.117 405.99 128.504 405.984C128.791 408.158 128.393 410.332 128.264 412.506C127.883 416.285 127.93 420.135 127.045 423.85C125.943 423.732 124.971 423.146 125.346 421.887Z" fill="black"/>
<path d="M136.648 414.808C137.316 414.75 137.961 414.832 138.594 415.049C138.541 416.789 137.715 418.388 137.545 420.117C136.666 426.416 136.596 432.791 135.863 439.107C135.406 439.16 134.492 439.271 134.035 439.33C133.977 435.463 134.428 431.619 134.668 427.769C135.008 423.416 135.201 418.974 136.648 414.808Z" fill="black"/>
<path d="M148.9 419.824C149.375 419.115 150.764 419.854 150.529 420.674C150.523 425.988 150.594 431.314 150.359 436.629C150.371 437.584 149.58 437.883 148.76 437.602C148.227 436.98 148.355 436.125 148.326 435.387C148.391 431.074 148.391 426.768 148.467 422.461C148.537 421.57 148.449 420.621 148.9 419.824Z" fill="black"/>
<path d="M158.826 441.604C158.721 437.121 158.82 432.633 159.178 428.168C159.652 428.162 160.602 428.145 161.076 428.139C160.994 432.686 161.275 437.303 160.479 441.797C160.063 441.744 159.236 441.65 158.826 441.604Z" fill="black"/>
</g>
<defs>
<clipPath id="clip0_2905_62732">
<rect width="600" height="600" fill="white" transform="translate(0.5)"/>
</clipPath>
</defs>
</svg>
