<svg width="78" height="78" viewBox="0 0 78 78" fill="none" xmlns="http://www.w3.org/2000/svg">
<mask id="path-1-outside-1_3471_343181" maskUnits="userSpaceOnUse" x="-0.432251" y="-0.400391" width="78" height="78" fill="black">
<rect fill="white" x="-0.432251" y="-0.400391" width="78" height="78"/>
<path fill-rule="evenodd" clip-rule="evenodd" d="M46.3077 9.63991C42.2539 5.58618 35.6815 5.58618 31.6278 9.63991L9.60805 31.6597C5.55432 35.7134 5.55432 42.2858 9.60805 46.3395L31.6278 68.3593C35.6815 72.413 42.2539 72.413 46.3077 68.3593L68.3274 46.3395C72.3812 42.2858 72.3812 35.7134 68.3274 31.6597L46.3077 9.63991ZM29.9906 41.1393C29.9862 41.8971 29.9993 42.6592 30.0782 43.417C30.0916 43.5402 30.1085 43.6634 30.1253 43.7861C30.1413 43.9031 30.1573 44.0199 30.1701 44.1354C30.1071 44.1774 30.044 44.1746 29.9809 44.1718L29.9694 44.1713C29.9575 44.1708 29.9455 44.1704 29.9336 44.1704H27.231C27.2194 44.1704 27.2077 44.1699 27.196 44.1694C27.1726 44.1684 27.1493 44.1675 27.1259 44.1704C27.012 44.1835 26.977 44.1266 26.9726 44.0171C26.9648 43.792 26.9522 43.5684 26.9396 43.3446C26.9312 43.194 26.9227 43.0428 26.9157 42.8914C26.9128 42.8318 26.9137 42.7721 26.9146 42.7053C26.9151 42.6691 26.9157 42.6307 26.9157 42.5891C26.8058 42.6269 26.7659 42.6943 26.7285 42.7575C26.7181 42.775 26.708 42.7921 26.6967 42.8082C26.2543 43.4389 25.7111 43.9382 24.9709 44.201C24.511 44.3675 24.0335 44.4288 23.5517 44.4157C22.8509 44.3982 22.1632 44.2799 21.5237 43.9645C20.6126 43.5177 20.0476 42.8125 19.8811 41.8007C19.868 41.7219 19.8548 41.643 19.7847 41.5905V40.802C19.8622 40.7614 19.8713 40.6867 19.8801 40.6143C19.8811 40.606 19.8822 40.5977 19.8833 40.5895C19.884 40.5844 19.8855 40.5743 19.8855 40.5743C20.0432 39.6501 20.56 38.9755 21.3616 38.5156C21.9924 38.152 22.6844 37.9637 23.3984 37.8586C24.4321 37.7053 25.4702 37.6921 26.5083 37.8454C26.7186 37.8761 26.7361 37.8629 26.7142 37.6483C26.6529 37.0526 26.3813 36.6058 25.825 36.3518C25.5622 36.2291 25.2819 36.1547 24.9928 36.1328C23.8539 36.0495 22.737 36.1634 21.6726 36.6058C21.5846 36.6439 21.4991 36.6846 21.4142 36.725C21.3428 36.7589 21.2715 36.7929 21.1995 36.8248C21.1374 36.7903 21.1433 36.7395 21.1486 36.6938C21.15 36.6815 21.1514 36.6695 21.1514 36.6584L21.15 36.6085C21.1329 35.9771 21.116 35.3496 21.1032 34.718C21.0988 34.4963 21.1031 34.4946 21.3001 34.4175L21.3047 34.4157C22.1676 34.0828 23.0655 33.8989 23.9853 33.82C24.6555 33.7631 25.3257 33.7412 26.0002 33.8157C26.7799 33.9033 27.5289 34.0872 28.2122 34.4946C29.189 35.0771 29.7234 35.9488 29.9205 37.0482C29.9774 37.3505 29.9906 37.6571 29.9906 37.9637V41.1393ZM23.1487 41.262C23.2801 41.6781 23.5955 41.9058 23.9985 42.0022C25.6454 42.4052 26.6704 41.0386 26.7229 39.799C26.7273 39.7026 26.6967 39.6588 26.5915 39.6544C26.3861 39.6457 26.1818 39.6359 25.9774 39.626C25.7727 39.6162 25.5666 39.6063 25.3607 39.5975C25.0979 39.5844 24.8351 39.615 24.5767 39.6501C24.2262 39.6939 23.889 39.7858 23.5955 39.9917C23.1838 40.2764 22.9998 40.7933 23.1487 41.262ZM39.4649 36.873C39.3422 36.8117 39.2283 36.7548 39.1057 36.7022C38.3173 36.3518 37.4938 36.2379 36.6484 36.435C35.5753 36.6891 34.8482 37.5301 34.6992 38.6207C34.6248 39.1595 34.6423 39.6895 34.8657 40.1888C35.2862 41.1306 36.0483 41.6387 37.0426 41.8007C37.8749 41.9321 38.6808 41.7964 39.4605 41.4941C39.4968 41.48 39.5331 41.465 39.5686 41.4503C39.6101 41.433 39.6504 41.4163 39.6883 41.4021C39.7419 41.4164 39.743 41.4454 39.744 41.4722L39.7445 41.4836L39.7452 41.4897C39.7524 41.7414 39.7592 41.9925 39.7659 42.2435C39.7796 42.7527 39.7933 43.2613 39.8109 43.7718C39.8153 43.9207 39.7671 43.9864 39.6226 44.0302C39.075 44.1923 38.5188 44.2974 37.9537 44.3631C36.8806 44.4858 35.8206 44.4201 34.7868 44.1091C33.613 43.7543 32.6274 43.1235 31.9178 42.1073C31.4272 41.4021 31.1688 40.6137 31.0725 39.7639C30.9805 38.9142 31.0549 38.0863 31.3265 37.2804C31.8171 35.8437 32.8114 34.8713 34.1999 34.2975C35.2599 33.8595 36.3725 33.7237 37.5157 33.8025C38.2034 33.8507 38.8692 33.9734 39.5043 34.2405C39.7458 34.3423 39.7455 34.3456 39.7214 34.5797L39.7189 34.6041C39.6532 35.2392 39.5919 35.8744 39.5306 36.5095C39.5291 36.5291 39.5279 36.549 39.5268 36.5691C39.5214 36.6658 39.5156 36.7679 39.4649 36.873ZM44.3448 35.7476C44.3263 35.7887 44.305 35.8361 44.2174 35.8437V34.2668C44.2174 34.0259 44.2174 34.0215 43.9765 34.0215H41.2739C41.0286 34.0215 41.0242 34.0215 41.0242 34.2624V43.9514C41.0242 44.1748 41.0286 44.1792 41.2564 44.1792H44.3006C44.5283 44.1792 44.5284 44.1748 44.5327 43.9516L44.5327 39.8034C44.5327 39.4179 44.5634 39.0368 44.6335 38.6558C44.7167 38.1871 44.8612 37.7403 45.1503 37.3505C45.5884 36.7635 46.2979 36.6146 46.8849 36.7416C47.358 36.8424 47.6251 37.184 47.7828 37.6177C47.9186 37.99 47.9493 38.3842 47.9493 38.7784V43.8463C47.9493 43.8667 47.9498 43.8871 47.9502 43.9076C47.9512 43.9485 47.9522 43.9893 47.9493 44.0302C47.9405 44.1485 48.0018 44.1835 48.107 44.1748C48.1362 44.1719 48.1654 44.1728 48.1946 44.1738C48.2092 44.1743 48.2238 44.1748 48.2384 44.1748H51.3351C51.4227 44.1792 51.4622 44.1354 51.4578 44.0478C51.4549 44.0069 51.4558 43.966 51.4568 43.9251C51.4573 43.9047 51.4578 43.8842 51.4578 43.8638C51.4578 43.4344 51.4583 43.0054 51.4588 42.5767C51.4597 41.7196 51.4607 40.8632 51.4578 40.0049C51.4578 39.6282 51.4665 39.2515 51.5191 38.8791C51.5804 38.4324 51.6856 38.0031 51.9046 37.6045C52.1148 37.2278 52.4039 36.93 52.8288 36.7986C53.788 36.5051 54.5283 36.8336 54.7736 37.8454C54.8393 38.1214 54.8699 38.3973 54.8699 38.6777V44.0609C54.8699 44.131 54.8962 44.1748 54.9751 44.1748H58.0981C58.25 44.1748 58.3202 44.1791 58.3524 44.1462C58.3852 44.1126 58.3785 44.0405 58.3785 43.8857C58.3785 43.3044 58.378 42.7236 58.3775 42.143C58.3765 40.9823 58.3755 39.8222 58.3785 38.6601C58.3785 38.1871 58.3653 37.7184 58.339 37.2453C58.3171 36.7986 58.2471 36.3562 58.1244 35.9269C57.8047 34.7881 57.0644 34.1004 55.9037 33.877C55.2992 33.7631 54.6904 33.7324 54.0771 33.8244C53.1792 33.9602 52.3908 34.3194 51.7469 34.9808C51.5853 35.1457 51.4485 35.3305 51.3122 35.5146C51.2675 35.575 51.2229 35.6353 51.1775 35.6948C51.119 35.65 51.0929 35.5918 51.0675 35.535C51.0605 35.5194 51.0536 35.5039 51.0461 35.4889C50.6781 34.753 50.1043 34.2581 49.3334 33.9909C48.5406 33.7149 47.7346 33.7105 46.9243 33.877C45.7986 34.1091 44.9094 34.6917 44.3531 35.7298C44.3503 35.7355 44.3476 35.7415 44.3448 35.7476Z"/>
</mask>
<path fill-rule="evenodd" clip-rule="evenodd" d="M46.3077 9.63991C42.2539 5.58618 35.6815 5.58618 31.6278 9.63991L9.60805 31.6597C5.55432 35.7134 5.55432 42.2858 9.60805 46.3395L31.6278 68.3593C35.6815 72.413 42.2539 72.413 46.3077 68.3593L68.3274 46.3395C72.3812 42.2858 72.3812 35.7134 68.3274 31.6597L46.3077 9.63991ZM29.9906 41.1393C29.9862 41.8971 29.9993 42.6592 30.0782 43.417C30.0916 43.5402 30.1085 43.6634 30.1253 43.7861C30.1413 43.9031 30.1573 44.0199 30.1701 44.1354C30.1071 44.1774 30.044 44.1746 29.9809 44.1718L29.9694 44.1713C29.9575 44.1708 29.9455 44.1704 29.9336 44.1704H27.231C27.2194 44.1704 27.2077 44.1699 27.196 44.1694C27.1726 44.1684 27.1493 44.1675 27.1259 44.1704C27.012 44.1835 26.977 44.1266 26.9726 44.0171C26.9648 43.792 26.9522 43.5684 26.9396 43.3446C26.9312 43.194 26.9227 43.0428 26.9157 42.8914C26.9128 42.8318 26.9137 42.7721 26.9146 42.7053C26.9151 42.6691 26.9157 42.6307 26.9157 42.5891C26.8058 42.6269 26.7659 42.6943 26.7285 42.7575C26.7181 42.775 26.708 42.7921 26.6967 42.8082C26.2543 43.4389 25.7111 43.9382 24.9709 44.201C24.511 44.3675 24.0335 44.4288 23.5517 44.4157C22.8509 44.3982 22.1632 44.2799 21.5237 43.9645C20.6126 43.5177 20.0476 42.8125 19.8811 41.8007C19.868 41.7219 19.8548 41.643 19.7847 41.5905V40.802C19.8622 40.7614 19.8713 40.6867 19.8801 40.6143C19.8811 40.606 19.8822 40.5977 19.8833 40.5895C19.884 40.5844 19.8855 40.5743 19.8855 40.5743C20.0432 39.6501 20.56 38.9755 21.3616 38.5156C21.9924 38.152 22.6844 37.9637 23.3984 37.8586C24.4321 37.7053 25.4702 37.6921 26.5083 37.8454C26.7186 37.8761 26.7361 37.8629 26.7142 37.6483C26.6529 37.0526 26.3813 36.6058 25.825 36.3518C25.5622 36.2291 25.2819 36.1547 24.9928 36.1328C23.8539 36.0495 22.737 36.1634 21.6726 36.6058C21.5846 36.6439 21.4991 36.6846 21.4142 36.725C21.3428 36.7589 21.2715 36.7929 21.1995 36.8248C21.1374 36.7903 21.1433 36.7395 21.1486 36.6938C21.15 36.6815 21.1514 36.6695 21.1514 36.6584L21.15 36.6085C21.1329 35.9771 21.116 35.3496 21.1032 34.718C21.0988 34.4963 21.1031 34.4946 21.3001 34.4175L21.3047 34.4157C22.1676 34.0828 23.0655 33.8989 23.9853 33.82C24.6555 33.7631 25.3257 33.7412 26.0002 33.8157C26.7799 33.9033 27.5289 34.0872 28.2122 34.4946C29.189 35.0771 29.7234 35.9488 29.9205 37.0482C29.9774 37.3505 29.9906 37.6571 29.9906 37.9637V41.1393ZM23.1487 41.262C23.2801 41.6781 23.5955 41.9058 23.9985 42.0022C25.6454 42.4052 26.6704 41.0386 26.7229 39.799C26.7273 39.7026 26.6967 39.6588 26.5915 39.6544C26.3861 39.6457 26.1818 39.6359 25.9774 39.626C25.7727 39.6162 25.5666 39.6063 25.3607 39.5975C25.0979 39.5844 24.8351 39.615 24.5767 39.6501C24.2262 39.6939 23.889 39.7858 23.5955 39.9917C23.1838 40.2764 22.9998 40.7933 23.1487 41.262ZM39.4649 36.873C39.3422 36.8117 39.2283 36.7548 39.1057 36.7022C38.3173 36.3518 37.4938 36.2379 36.6484 36.435C35.5753 36.6891 34.8482 37.5301 34.6992 38.6207C34.6248 39.1595 34.6423 39.6895 34.8657 40.1888C35.2862 41.1306 36.0483 41.6387 37.0426 41.8007C37.8749 41.9321 38.6808 41.7964 39.4605 41.4941C39.4968 41.48 39.5331 41.465 39.5686 41.4503C39.6101 41.433 39.6504 41.4163 39.6883 41.4021C39.7419 41.4164 39.743 41.4454 39.744 41.4722L39.7445 41.4836L39.7452 41.4897C39.7524 41.7414 39.7592 41.9925 39.7659 42.2435C39.7796 42.7527 39.7933 43.2613 39.8109 43.7718C39.8153 43.9207 39.7671 43.9864 39.6226 44.0302C39.075 44.1923 38.5188 44.2974 37.9537 44.3631C36.8806 44.4858 35.8206 44.4201 34.7868 44.1091C33.613 43.7543 32.6274 43.1235 31.9178 42.1073C31.4272 41.4021 31.1688 40.6137 31.0725 39.7639C30.9805 38.9142 31.0549 38.0863 31.3265 37.2804C31.8171 35.8437 32.8114 34.8713 34.1999 34.2975C35.2599 33.8595 36.3725 33.7237 37.5157 33.8025C38.2034 33.8507 38.8692 33.9734 39.5043 34.2405C39.7458 34.3423 39.7455 34.3456 39.7214 34.5797L39.7189 34.6041C39.6532 35.2392 39.5919 35.8744 39.5306 36.5095C39.5291 36.5291 39.5279 36.549 39.5268 36.5691C39.5214 36.6658 39.5156 36.7679 39.4649 36.873ZM44.3448 35.7476C44.3263 35.7887 44.305 35.8361 44.2174 35.8437V34.2668C44.2174 34.0259 44.2174 34.0215 43.9765 34.0215H41.2739C41.0286 34.0215 41.0242 34.0215 41.0242 34.2624V43.9514C41.0242 44.1748 41.0286 44.1792 41.2564 44.1792H44.3006C44.5283 44.1792 44.5284 44.1748 44.5327 43.9516L44.5327 39.8034C44.5327 39.4179 44.5634 39.0368 44.6335 38.6558C44.7167 38.1871 44.8612 37.7403 45.1503 37.3505C45.5884 36.7635 46.2979 36.6146 46.8849 36.7416C47.358 36.8424 47.6251 37.184 47.7828 37.6177C47.9186 37.99 47.9493 38.3842 47.9493 38.7784V43.8463C47.9493 43.8667 47.9498 43.8871 47.9502 43.9076C47.9512 43.9485 47.9522 43.9893 47.9493 44.0302C47.9405 44.1485 48.0018 44.1835 48.107 44.1748C48.1362 44.1719 48.1654 44.1728 48.1946 44.1738C48.2092 44.1743 48.2238 44.1748 48.2384 44.1748H51.3351C51.4227 44.1792 51.4622 44.1354 51.4578 44.0478C51.4549 44.0069 51.4558 43.966 51.4568 43.9251C51.4573 43.9047 51.4578 43.8842 51.4578 43.8638C51.4578 43.4344 51.4583 43.0054 51.4588 42.5767C51.4597 41.7196 51.4607 40.8632 51.4578 40.0049C51.4578 39.6282 51.4665 39.2515 51.5191 38.8791C51.5804 38.4324 51.6856 38.0031 51.9046 37.6045C52.1148 37.2278 52.4039 36.93 52.8288 36.7986C53.788 36.5051 54.5283 36.8336 54.7736 37.8454C54.8393 38.1214 54.8699 38.3973 54.8699 38.6777V44.0609C54.8699 44.131 54.8962 44.1748 54.9751 44.1748H58.0981C58.25 44.1748 58.3202 44.1791 58.3524 44.1462C58.3852 44.1126 58.3785 44.0405 58.3785 43.8857C58.3785 43.3044 58.378 42.7236 58.3775 42.143C58.3765 40.9823 58.3755 39.8222 58.3785 38.6601C58.3785 38.1871 58.3653 37.7184 58.339 37.2453C58.3171 36.7986 58.2471 36.3562 58.1244 35.9269C57.8047 34.7881 57.0644 34.1004 55.9037 33.877C55.2992 33.7631 54.6904 33.7324 54.0771 33.8244C53.1792 33.9602 52.3908 34.3194 51.7469 34.9808C51.5853 35.1457 51.4485 35.3305 51.3122 35.5146C51.2675 35.575 51.2229 35.6353 51.1775 35.6948C51.119 35.65 51.0929 35.5918 51.0675 35.535C51.0605 35.5194 51.0536 35.5039 51.0461 35.4889C50.6781 34.753 50.1043 34.2581 49.3334 33.9909C48.5406 33.7149 47.7346 33.7105 46.9243 33.877C45.7986 34.1091 44.9094 34.6917 44.3531 35.7298C44.3503 35.7355 44.3476 35.7415 44.3448 35.7476Z" stroke="#48BA86" stroke-width="12.3038" mask="url(#path-1-outside-1_3471_343181)"/>
</svg>
