<svg width="70" height="78" viewBox="0 0 70 78" fill="none" xmlns="http://www.w3.org/2000/svg">
<g clip-path="url(#clip0_3471_343192)">
<path d="M32.8574 4.08008C33.9857 3.43989 35.3824 3.43895 36.5107 4.0791L64.5752 20.0264L64.5762 20.0273C65.6967 20.6633 66.3613 21.821 66.3613 23.0498V54.9434C66.3613 56.1722 65.6967 57.3299 64.5762 57.9658L64.5752 57.9668L36.5039 73.9131C35.3756 74.5532 33.9857 74.5532 32.8574 73.9131H32.8564L4.78613 57.9668L4.78516 57.9658C3.66459 57.3299 3 56.1722 3 54.9434V23.0498C3 21.821 3.66466 20.6633 4.78516 20.0273L4.78613 20.0264L32.8564 4.0791L32.8574 4.08008Z" stroke="#48BA86" stroke-width="6"/>
<path d="M32.7191 35.5664L17.1772 26.8076L32.7191 17.9805V35.5664Z" stroke="#48BA86" stroke-width="4"/>
<path d="M52.2748 51.1748L36.7192 60.0146V42.4111L52.2748 51.1748Z" stroke="#48BA86" stroke-width="4"/>
<path d="M30.6566 38.9961L15.2113 47.7646V30.292L30.6566 38.9961Z" stroke="#48BA86" stroke-width="4"/>
<path d="M32.7191 59.998L17.2494 51.207L32.7191 42.4248V59.998Z" stroke="#48BA86" stroke-width="4"/>
<path d="M52.2202 26.7559L36.7192 35.5654V17.9648L52.2202 26.7559Z" stroke="#48BA86" stroke-width="4"/>
</g>
<defs>
<clipPath id="clip0_3471_343192">
<rect width="69.3677" height="76.8" fill="white" transform="translate(0 0.599609)"/>
</clipPath>
</defs>
</svg>
