<svg width="62" height="85" viewBox="0 0 62 85" fill="none" xmlns="http://www.w3.org/2000/svg">
<path d="M51.784 58.1451C51.784 46.3818 42.2479 36.8457 30.4846 36.8457C18.7213 36.8457 9.18524 46.3818 9.18524 58.1451V60.6999C9.18524 72.4632 18.7213 81.9992 30.4846 81.9992C42.2479 81.9992 51.784 72.4632 51.784 60.6999V58.1451Z" fill="#1E1E1E" stroke="#48BA86" stroke-width="5.41071"/>
<path d="M18.3508 9.28266C17.6775 5.26031 13.8714 2.54531 9.84968 3.21853C5.82797 3.89175 3.11357 7.69826 3.7869 11.7206L10.8793 54.0897C11.5527 58.1121 15.3587 60.8271 19.3804 60.1539C23.4022 59.4806 26.1166 55.6741 25.4432 51.6518L18.3508 9.28266Z" fill="#1E1E1E" stroke="#48BA86" stroke-width="5.41071"/>
<path d="M44.234 13.8736C45.2895 9.93427 42.9523 5.88525 39.0135 4.82987C35.0748 3.7745 31.0262 6.11242 29.9706 10.0518L21.3485 42.2301C20.2929 46.1695 22.6302 50.2185 26.5689 51.2739C30.5076 52.3292 34.5563 49.9913 35.6118 46.052L44.234 13.8736Z" fill="#1E1E1E" stroke="#48BA86" stroke-width="5.41071"/>
<path d="M44.1336 46.2423C45.2434 42.3179 42.9622 38.237 39.0385 37.1274C35.1147 36.0177 31.0342 38.2995 29.9243 42.2239L25.8285 56.7071C24.7186 60.6315 26.9998 64.7124 30.9236 65.822C34.8473 66.9317 38.9279 64.6499 40.0377 60.7255L44.1336 46.2423Z" fill="#1E1E1E" stroke="#48BA86" stroke-width="5.41071"/>
<path d="M9.10149 51.4291C5.68381 53.6545 4.71693 58.2286 6.9419 61.6457C9.16687 65.0629 13.7411 66.029 17.1588 63.8037L29.7719 55.591C33.1896 53.3657 34.1565 48.7916 31.9315 45.3745C29.7066 41.9573 25.1323 40.9912 21.7146 43.2165L9.10149 51.4291Z" fill="#1E1E1E" stroke="#48BA86" stroke-width="5.41071"/>
<path d="M58.4905 51.1456C59.6004 47.2212 57.3192 43.1403 53.3954 42.0307C49.4717 40.921 45.3911 43.2028 44.2813 47.1272L41.8089 55.8696C40.6991 59.794 42.9802 63.875 46.904 64.9846C50.8278 66.0943 54.9083 63.8124 56.0182 59.888L58.4905 51.1456Z" fill="#1E1E1E" stroke="#48BA86" stroke-width="5.41071"/>
</svg>
