<svg width="57" height="52" viewBox="0 0 57 52" fill="none" xmlns="http://www.w3.org/2000/svg">
<path d="M26.8284 19.6718C23.3842 19.6718 20.6045 22.4514 20.6045 25.8956C20.6045 29.3399 23.3842 32.1195 26.8284 32.1195C30.2726 32.1195 33.0523 29.3399 33.0523 25.8956C33.0523 22.4514 30.2726 19.6718 26.8284 19.6718ZM26.8284 29.9407C24.601 29.9407 22.7833 28.123 22.7833 25.8956C22.7833 23.6683 24.601 21.8506 26.8284 21.8506C29.0558 21.8506 30.8735 23.6683 30.8735 25.8956C30.8735 28.123 29.0558 29.9407 26.8284 29.9407ZM33.3072 17.9664C32.503 17.9664 31.8536 18.6157 31.8536 19.4199C31.8536 20.2241 32.503 20.8735 33.3072 20.8735C34.1113 20.8735 34.7607 20.2271 34.7607 19.4199C34.761 19.229 34.7235 19.0398 34.6506 18.8634C34.5776 18.6869 34.4706 18.5266 34.3355 18.3916C34.2005 18.2565 34.0402 18.1495 33.8637 18.0765C33.6873 18.0035 33.4981 17.9661 33.3072 17.9664ZM38.9606 25.8956C38.9606 24.2206 38.9757 22.5607 38.8817 20.8886C38.7876 18.9465 38.3445 17.2229 36.9244 15.8027C35.5012 14.3795 33.7806 13.9395 31.8385 13.8454C30.1634 13.7514 28.5035 13.7665 26.8314 13.7665C25.1564 13.7665 23.4965 13.7514 21.8244 13.8454C19.8823 13.9395 18.1587 14.3825 16.7385 15.8027C15.3153 17.2259 14.8753 18.9465 14.7812 20.8886C14.6871 22.5637 14.7023 24.2236 14.7023 25.8956C14.7023 27.5677 14.6871 29.2306 14.7812 30.9027C14.8753 32.8448 15.3183 34.5684 16.7385 35.9886C18.1617 37.4118 19.8823 37.8518 21.8244 37.9459C23.4995 38.0399 25.1594 38.0248 26.8314 38.0248C28.5065 38.0248 30.1664 38.0399 31.8385 37.9459C33.7806 37.8518 35.5042 37.4088 36.9244 35.9886C38.3476 34.5654 38.7876 32.8448 38.8817 30.9027C38.9788 29.2306 38.9606 27.5707 38.9606 25.8956ZM36.2902 33.0511C36.0686 33.6034 35.8016 34.0161 35.3737 34.441C34.9458 34.8688 34.5362 35.1359 33.9839 35.3574C32.3877 35.9916 28.5976 35.849 26.8284 35.849C25.0593 35.849 21.2661 35.9916 19.6699 35.3604C19.1176 35.1389 18.7049 34.8719 18.2801 34.444C17.8522 34.0161 17.5851 33.6065 17.3636 33.0542C16.7324 31.455 16.8751 27.6648 16.8751 25.8956C16.8751 24.1265 16.7324 20.3333 17.3636 18.7371C17.5851 18.1848 17.8522 17.7721 18.2801 17.3473C18.7079 16.9225 19.1176 16.6524 19.6699 16.4309C21.2661 15.7997 25.0593 15.9423 26.8284 15.9423C28.5976 15.9423 32.3907 15.7997 33.9869 16.4309C34.5392 16.6524 34.9519 16.9194 35.3768 17.3473C35.8046 17.7752 36.0717 18.1848 36.2932 18.7371C36.9244 20.3333 36.7817 24.1265 36.7817 25.8956C36.7817 27.6648 36.9244 31.455 36.2902 33.0511Z" fill="white"/>
</svg>
