<svg width="57" height="52" viewBox="0 0 57 52" fill="none" xmlns="http://www.w3.org/2000/svg">
<path d="M17.7145 19.6775C19.2791 19.6775 20.5474 18.4092 20.5474 16.8446C20.5474 15.2801 19.2791 14.0117 17.7145 14.0117C16.1499 14.0117 14.8816 15.2801 14.8816 16.8446C14.8816 18.4092 16.1499 19.6775 17.7145 19.6775Z" fill="white"/>
<path d="M23.2228 21.824V37.5409H28.1027V29.7685C28.1027 27.7176 28.4886 25.7315 31.0314 25.7315C33.5393 25.7315 33.5704 28.0763 33.5704 29.898V37.5422H38.4529V28.9231C38.4529 24.6892 37.5414 21.4355 32.5929 21.4355C30.217 21.4355 28.6245 22.7394 27.9732 23.9732H27.9072V21.824H23.2228ZM15.2705 21.824H20.1582V37.5409H15.2705V21.824Z" fill="white"/>
</svg>
