<svg width="24" height="21" viewBox="0 0 24 21" fill="none" xmlns="http://www.w3.org/2000/svg">
<path d="M3.8088 1H6.14926V3.34046H3.8088V1ZM6.61735 1H8.95781V3.34046H6.61735V1ZM1.00024 3.80855H3.3407V6.14901H1.00024V3.80855ZM1.00024 6.6171H3.3407V8.95756H1.00024V6.6171Z" fill="#E26136" stroke="#090A0C" stroke-width="0.468092"/>
<path d="M1 9.42578H3.34046V11.7662H1V9.42578ZM3.80855 12.2343H6.14901V14.5748H3.80855V12.2343Z" fill="#FF8D69" stroke="#090A0C" stroke-width="0.468092"/>
<path d="M6.61719 12.2344H8.95765V14.5748H6.61719V12.2344ZM9.42574 12.2344H11.7662V14.5748H9.42574V12.2344ZM12.2343 12.2344H14.5748V14.5748H12.2343V12.2344Z" fill="#E26136" stroke="#090A0C" stroke-width="0.468092"/>
<path d="M15.043 12.2344H17.3834V14.5748H15.043V12.2344ZM17.8515 12.2344H20.192V14.5748H17.8515V12.2344Z" fill="#E64C19" stroke="#090A0C" stroke-width="0.468092"/>
<path d="M6.61719 15.043H8.95765V17.3834H6.61719V15.043Z" fill="#E26136" stroke="#090A0C" stroke-width="0.468092"/>
<path d="M9.42578 15.043H11.7662V17.3834H9.42578V15.043ZM12.2343 15.043H14.5748V17.3834H12.2343V15.043ZM15.0429 15.043H17.3833V17.3834H15.0429V15.043ZM9.42578 17.8515H11.7662V20.192H9.42578V17.8515ZM12.2343 17.8515H14.5748V20.192H12.2343V17.8515Z" fill="#E64C19" stroke="#090A0C" stroke-width="0.468092"/>
<path d="M3.80859 3.80859H6.14905V6.14905H3.80859V3.80859Z" fill="#E26136" stroke="#090A0C" stroke-width="0.468092"/>
<path d="M3.80859 6.61715H6.14905V8.95761H3.80859V6.61715ZM3.80859 9.4257H6.14905V11.7662H3.80859V9.4257ZM6.61715 3.80859H8.95761V6.14905H6.61715V3.80859ZM6.61715 6.61715H8.95761V8.95761H6.61715V6.61715ZM6.61715 9.4257H8.95761V11.7662H6.61715V9.4257ZM9.4257 3.80859H11.7662V6.14905H9.4257V3.80859ZM12.2342 3.80859H14.5747V6.14905H12.2342V3.80859ZM9.4257 6.61715H11.7662V8.95761H9.4257V6.61715Z" fill="#FF8D69" stroke="#090A0C" stroke-width="0.468092"/>
<path d="M9.42578 9.42574H11.7662V11.7662H9.42578V9.42574ZM12.2343 6.61719H14.5748V8.95765H12.2343V6.61719ZM12.2343 9.42574H14.5748V11.7662H12.2343V9.42574Z" fill="#E26136" stroke="#090A0C" stroke-width="0.468092"/>
<path d="M15.043 1H17.3834V3.34046H15.043V1Z" fill="#FF8D69" stroke="#090A0C" stroke-width="0.468092"/>
<path d="M15.043 3.80855H17.3834V6.14901H15.043V3.80855ZM15.043 6.6171H17.3834V8.95756H15.043V6.6171ZM15.043 9.42566H17.3834V11.7661H15.043V9.42566ZM17.8515 1H20.192V3.34046H17.8515V1ZM17.8515 3.80855H20.192V6.14901H17.8515V3.80855Z" fill="#E26136" stroke="#090A0C" stroke-width="0.468092"/>
<path d="M17.8516 6.61715H20.192V8.95761H17.8516V6.61715ZM17.8516 9.4257H20.192V11.7662H17.8516V9.4257ZM20.6601 3.80859H23.0006V6.14905H20.6601V3.80859ZM20.6601 6.61715H23.0006V8.95761H20.6601V6.61715ZM20.6601 9.4257H23.0006V11.7662H20.6601V9.4257Z" fill="#E64C19" stroke="#090A0C" stroke-width="0.468092"/>
</svg>
