<svg width="53" height="46" viewBox="0 0 53 46" fill="none" xmlns="http://www.w3.org/2000/svg">
<path d="M7.65606 1.37305H13.0014V6.71835H7.65606V1.37305ZM14.0704 1.37305H19.4157V6.71835H14.0704V1.37305ZM1.2417 7.78741H6.587V13.1327H1.2417V7.78741ZM1.2417 14.2018H6.587V19.5471H1.2417V14.2018Z" fill="#EFEFEF" stroke="#090A0C" stroke-width="1.06906"/>
<path d="M1.24146 20.6172H6.58675V25.9625H1.24146V20.6172ZM7.65581 27.0315H13.0011V32.3768H7.65581V27.0315Z" fill="#EFEFEF" stroke="#090A0C" stroke-width="1.06906"/>
<path d="M14.0703 27.0312H19.4156V32.3765H14.0703V27.0312ZM20.4847 27.0312H25.83V32.3765H20.4847V27.0312ZM26.899 27.0312H32.2443V32.3765H26.899V27.0312Z" fill="#EFEFEF" stroke="#090A0C" stroke-width="1.06906"/>
<path d="M33.3136 27.0312H38.6589V32.3765H33.3136V27.0312ZM39.728 27.0312H45.0733V32.3765H39.728V27.0312Z" fill="#EFEFEF" stroke="#090A0C" stroke-width="1.06906"/>
<path d="M14.0703 33.4453H19.4156V38.7906H14.0703V33.4453Z" fill="#EFEFEF" stroke="#090A0C" stroke-width="1.06906"/>
<path d="M20.4847 33.4453H25.83V38.7906H20.4847V33.4453ZM26.8991 33.4453H32.2444V38.7906H26.8991V33.4453ZM33.3135 33.4453H38.6588V38.7906H33.3135V33.4453ZM20.4847 39.8597H25.83V45.205H20.4847V39.8597ZM26.8991 39.8597H32.2444V45.205H26.8991V39.8597Z" fill="#EFEFEF" stroke="#090A0C" stroke-width="1.06906"/>
<path d="M7.65588 7.78711H13.0012V13.1324H7.65588V7.78711Z" fill="#EFEFEF" stroke="#090A0C" stroke-width="1.06906"/>
<path d="M7.65588 14.2015H13.0012V19.5468H7.65588V14.2015ZM7.65588 20.6158H13.0012V25.9611H7.65588V20.6158ZM14.0702 7.78711H19.4155V13.1324H14.0702V7.78711ZM14.0702 14.2015H19.4155V19.5468H14.0702V14.2015ZM14.0702 20.6158H19.4155V25.9611H14.0702V20.6158ZM20.4846 7.78711H25.8299V13.1324H20.4846V7.78711ZM26.899 7.78711H32.2443V13.1324H26.899V7.78711ZM20.4846 14.2015H25.8299V19.5468H20.4846V14.2015Z" fill="#EFEFEF" stroke="#090A0C" stroke-width="1.06906"/>
<path d="M20.4847 20.6175H25.83V25.9628H20.4847V20.6175ZM26.8991 14.2031H32.2444V19.5484H26.8991V14.2031ZM26.8991 20.6175H32.2444V25.9628H26.8991V20.6175Z" fill="#EFEFEF" stroke="#090A0C" stroke-width="1.06906"/>
<path d="M33.3136 1.37305H38.6589V6.71835H33.3136V1.37305Z" fill="#EFEFEF" stroke="#090A0C" stroke-width="1.06906"/>
<path d="M33.3136 7.78741H38.6589V13.1327H33.3136V7.78741ZM33.3136 14.2018H38.6589V19.5471H33.3136V14.2018ZM33.3136 20.6161H38.6589V25.9614H33.3136V20.6161ZM39.728 1.37305H45.0733V6.71835H39.728V1.37305ZM39.728 7.78741H45.0733V13.1327H39.728V7.78741Z" fill="#EFEFEF" stroke="#090A0C" stroke-width="1.06906"/>
<path d="M39.728 14.2015H45.0733V19.5468H39.728V14.2015ZM39.728 20.6158H45.0733V25.9611H39.728V20.6158ZM46.1423 7.78711H51.4876V13.1324H46.1423V7.78711ZM46.1423 14.2015H51.4876V19.5468H46.1423V14.2015ZM46.1423 20.6158H51.4876V25.9611H46.1423V20.6158Z" fill="#EFEFEF" stroke="#090A0C" stroke-width="1.06906"/>
</svg>
