<svg width="1440" height="1024" viewBox="0 0 1440 1024" fill="none" xmlns="http://www.w3.org/2000/svg">
<mask id="mask0_2797_2925" style="mask-type:alpha" maskUnits="userSpaceOnUse" x="-345" y="-188" width="1982" height="1459">
<path d="M758.27 360.879C758.27 510.102 659.607 631.072 537.9 631.072C416.193 631.072 -344.219 107.688 -344.219 -41.5355C-344.219 -190.759 748.345 14.6748 870.052 14.6748C991.759 14.6748 758.27 211.656 758.27 360.879Z" fill="url(#paint0_linear_2797_2925)"/>
<path d="M843.86 1000.32C843.86 1149.54 745.197 1270.51 623.49 1270.51C501.783 1270.51 -176.229 1235.73 -176.229 1086.5C-176.229 937.281 -126.111 583.806 -4.4043 583.806C117.303 583.806 843.86 851.095 843.86 1000.32Z" fill="url(#paint1_radial_2797_2925)"/>
<path d="M1093.85 361.289C1422.23 657.88 1270.54 508.831 1552.59 501.321C1596.84 509.845 1671.95 510.25 1618.44 443.683C1551.54 360.473 1573.1 301.702 1489.5 211.045C1405.9 120.388 1354.98 28.2826 1228.77 -115.905C1102.55 -260.092 1092.84 -141.234 950.547 -152.502C808.255 -163.769 873.154 -145.876 676.827 63.3338C480.5 272.544 765.459 64.6976 1093.85 361.289Z" fill="#D9D9D9"/>
<path d="M783.82 827.809C344.357 879.548 556.423 863.579 376.295 1080.76C340.737 1108.43 290.957 1164.69 376.295 1168.26C482.967 1172.74 512.988 1227.67 636.267 1224.47C759.547 1221.28 862.386 1243.64 1054.01 1243.64C1245.64 1243.64 1162.6 1158.04 1264.8 1058.4C1367 958.753 1310.79 995.801 1282.69 710.278C1254.58 424.755 1223.28 776.07 783.82 827.809Z" fill="#D9D9D9"/>
</mask>
<g mask="url(#mask0_2797_2925)">
<line x1="-42.7256" y1="670.675" x2="1489.01" y2="670.675" stroke="white" stroke-opacity="0.09" stroke-width="1.27751"/>
<line x1="-42.7256" y1="997.716" x2="1489.01" y2="997.716" stroke="white" stroke-opacity="0.09" stroke-width="1.27751"/>
<line x1="-42.7256" y1="343.634" x2="1489.01" y2="343.634" stroke="white" stroke-opacity="0.09" stroke-width="1.27751"/>
<line x1="-42.7256" y1="16.5903" x2="1489.01" y2="16.5903" stroke="white" stroke-opacity="0.09" stroke-width="1.27751"/>
<line x1="-42.7256" y1="507.153" x2="1489.01" y2="507.153" stroke="white" stroke-opacity="0.09" stroke-width="1.27751"/>
<line x1="-42.7256" y1="834.194" x2="1489.01" y2="834.195" stroke="white" stroke-opacity="0.09" stroke-width="1.27751"/>
<line x1="-42.7256" y1="180.112" x2="1489.01" y2="180.112" stroke="white" stroke-opacity="0.09" stroke-width="1.27751"/>
<line x1="-42.7256" y1="588.914" x2="1489.01" y2="588.914" stroke="white" stroke-opacity="0.09" stroke-width="1.27751"/>
<line x1="-42.7256" y1="915.955" x2="1489.01" y2="915.955" stroke="white" stroke-opacity="0.09" stroke-width="1.27751"/>
<line x1="-42.7256" y1="261.873" x2="1489.01" y2="261.873" stroke="white" stroke-opacity="0.09" stroke-width="1.27751"/>
<line x1="-42.7256" y1="425.392" x2="1489.01" y2="425.392" stroke="white" stroke-opacity="0.09" stroke-width="1.27751"/>
<line x1="-42.7256" y1="752.436" x2="1489.01" y2="752.436" stroke="white" stroke-opacity="0.09" stroke-width="1.27751"/>
<line x1="-42.7256" y1="98.3515" x2="1489.01" y2="98.3515" stroke="white" stroke-opacity="0.09" stroke-width="1.27751"/>
<line x1="5.17928" y1="-12.1526" x2="5.17923" y2="1170.82" stroke="white" stroke-opacity="0.09" stroke-width="1.27751"/>
<line x1="659.267" y1="-12.1526" x2="659.267" y2="1170.82" stroke="white" stroke-opacity="0.09" stroke-width="1.27751"/>
<line x1="332.223" y1="-12.1526" x2="332.223" y2="1170.82" stroke="white" stroke-opacity="0.09" stroke-width="1.27751"/>
<line x1="986.306" y1="-12.1526" x2="986.306" y2="1170.82" stroke="white" stroke-opacity="0.09" stroke-width="1.27751"/>
<line x1="1313.35" y1="-12.1526" x2="1313.35" y2="1170.82" stroke="white" stroke-opacity="0.09" stroke-width="1.27751"/>
<line x1="168.701" y1="-12.1526" x2="168.701" y2="1170.82" stroke="white" stroke-opacity="0.09" stroke-width="1.27751"/>
<line x1="822.784" y1="-12.1526" x2="822.784" y2="1170.82" stroke="white" stroke-opacity="0.09" stroke-width="1.27751"/>
<line x1="495.745" y1="-12.1526" x2="495.745" y2="1170.82" stroke="white" stroke-opacity="0.09" stroke-width="1.27751"/>
<line x1="1149.83" y1="-12.1526" x2="1149.83" y2="1170.82" stroke="white" stroke-opacity="0.09" stroke-width="1.27751"/>
<line x1="86.9427" y1="-12.1526" x2="86.9427" y2="1170.82" stroke="white" stroke-opacity="0.09" stroke-width="1.27751"/>
<line x1="741.026" y1="-12.1526" x2="741.026" y2="1170.82" stroke="white" stroke-opacity="0.09" stroke-width="1.27751"/>
<line x1="413.982" y1="-12.1526" x2="413.982" y2="1170.82" stroke="white" stroke-opacity="0.09" stroke-width="1.27751"/>
<line x1="1068.07" y1="-12.1526" x2="1068.07" y2="1170.82" stroke="white" stroke-opacity="0.09" stroke-width="1.27751"/>
<line x1="1395.11" y1="-12.1526" x2="1395.11" y2="1170.82" stroke="white" stroke-opacity="0.09" stroke-width="1.27751"/>
<line x1="250.464" y1="-12.1526" x2="250.464" y2="1170.82" stroke="white" stroke-opacity="0.09" stroke-width="1.27751"/>
<line x1="904.547" y1="-12.1526" x2="904.547" y2="1170.82" stroke="white" stroke-opacity="0.09" stroke-width="1.27751"/>
<line x1="577.503" y1="-12.1526" x2="577.503" y2="1170.82" stroke="white" stroke-opacity="0.09" stroke-width="1.27751"/>
<line x1="1231.59" y1="-12.1526" x2="1231.59" y2="1170.82" stroke="white" stroke-opacity="0.09" stroke-width="1.27751"/>
<g opacity="0.7">
<rect x="822.844" y="834.137" width="81.2959" height="81.2959" fill="#24613D" fill-opacity="0.36"/>
<rect x="414.042" y="834.137" width="81.2959" height="81.2959" fill="#3A6B56"/>
<rect x="1150.9" y="262.76" width="81.2959" height="80.1345" fill="#5EBF94" fill-opacity="0.85"/>
<rect x="495.908" y="182.017" width="80.1559" height="78.9945" fill="#131413" stroke="#282828" stroke-width="1.14"/>
<rect x="1067.89" y="344.039" width="81.2959" height="80.1345" fill="#5EBF94" fill-opacity="0.85"/>
<rect x="413.45" y="263.313" width="80.1559" height="78.9945" fill="#131413" stroke="#282828" stroke-width="1.14"/>
<rect x="1068.44" y="262.76" width="81.2959" height="80.1345" fill="#5EBF94" fill-opacity="0.85"/>
<rect x="413.45" y="182.017" width="80.1559" height="78.9945" fill="#131413" stroke="#282828" stroke-width="1.14"/>
<rect x="332.746" y="834.137" width="81.2959" height="81.2959" fill="#3A6B56"/>
<rect x="332.746" y="915.433" width="81.2959" height="82.4573" fill="#3A6B56"/>
<rect x="168.993" y="752.841" width="81.2959" height="81.2959" fill="#3A6B56"/>
<rect x="986.598" y="98.9895" width="81.2959" height="81.2959" fill="#1C1D1D"/>
<rect x="905.302" y="6.08032" width="81.2959" height="81.2959" fill="#1C1D1D"/>
<rect x="904.413" y="97.8284" width="81.2959" height="82.4573" fill="#1C1D1D"/>
<rect x="168.993" y="179.125" width="82.4573" height="83.6186" fill="#121212"/>
<rect x="86.5352" y="97.8286" width="82.4573" height="81.2959" fill="#121212"/>
<rect x="5.23975" y="98.9897" width="82.4573" height="81.2959" fill="#121212"/>
<rect x="86.5352" y="179.125" width="82.4573" height="83.6186" fill="#121212"/>
<rect x="414.041" y="16.5332" width="82.4573" height="81.2959" fill="#121212"/>
<rect x="168.993" y="342.878" width="81.2959" height="82.4573" fill="#376651"/>
<rect x="1150.35" y="752.841" width="81.2959" height="81.2959" fill="#376550"/>
<rect x="1231.65" y="834.137" width="81.2959" height="81.2959" fill="#376550"/>
</g>
</g>
<defs>
<linearGradient id="paint0_linear_2797_2925" x1="182.114" y1="33.1988" x2="642.655" y2="278.48" gradientUnits="userSpaceOnUse">
<stop stop-color="white"/>
<stop offset="1" stop-color="white" stop-opacity="0"/>
</linearGradient>
<radialGradient id="paint1_radial_2797_2925" cx="0" cy="0" r="1" gradientUnits="userSpaceOnUse" gradientTransform="translate(146.98 1006.66) rotate(-29.3932) scale(787.379 1353.28)">
<stop stop-color="white"/>
<stop offset="1" stop-color="white" stop-opacity="0"/>
</radialGradient>
</defs>
</svg>
