<svg width="1440" height="1024" viewBox="0 0 1440 1024" fill="none" xmlns="http://www.w3.org/2000/svg">
<g clip-path="url(#clip0_2700_1454)">
<rect width="1440" height="1024" fill="black"/>
<line x1="-18.3384" y1="665.667" x2="1512.81" y2="665.667" stroke="white" stroke-opacity="0.09" stroke-width="1.27702"/>
<line x1="-18.3384" y1="992.585" x2="1512.81" y2="992.585" stroke="white" stroke-opacity="0.09" stroke-width="1.27702"/>
<line x1="-18.3384" y1="338.75" x2="1512.81" y2="338.75" stroke="white" stroke-opacity="0.09" stroke-width="1.27702"/>
<line x1="-18.3384" y1="11.8302" x2="1512.81" y2="11.8302" stroke="white" stroke-opacity="0.09" stroke-width="1.27702"/>
<line x1="-18.3384" y1="502.208" x2="1512.81" y2="502.208" stroke="white" stroke-opacity="0.09" stroke-width="1.27702"/>
<line x1="-18.3384" y1="829.125" x2="1512.81" y2="829.125" stroke="white" stroke-opacity="0.09" stroke-width="1.27702"/>
<line x1="-18.3384" y1="175.29" x2="1512.81" y2="175.29" stroke="white" stroke-opacity="0.09" stroke-width="1.27702"/>
<line x1="-18.3384" y1="583.938" x2="1512.81" y2="583.938" stroke="white" stroke-opacity="0.09" stroke-width="1.27702"/>
<line x1="-18.3384" y1="910.855" x2="1512.81" y2="910.855" stroke="white" stroke-opacity="0.09" stroke-width="1.27702"/>
<line x1="-18.3384" y1="257.02" x2="1512.81" y2="257.02" stroke="white" stroke-opacity="0.09" stroke-width="1.27702"/>
<line x1="-18.3384" y1="420.478" x2="1512.81" y2="420.478" stroke="white" stroke-opacity="0.09" stroke-width="1.27702"/>
<line x1="-18.3384" y1="747.398" x2="1512.81" y2="747.398" stroke="white" stroke-opacity="0.09" stroke-width="1.27702"/>
<line x1="-18.3384" y1="93.5607" x2="1512.81" y2="93.5607" stroke="white" stroke-opacity="0.09" stroke-width="1.27702"/>
<line x1="29.5487" y1="-16.9019" x2="29.5486" y2="1165.62" stroke="white" stroke-opacity="0.09" stroke-width="1.27702"/>
<line x1="683.388" y1="-16.9019" x2="683.388" y2="1165.62" stroke="white" stroke-opacity="0.09" stroke-width="1.27702"/>
<line x1="356.469" y1="-16.9019" x2="356.469" y2="1165.62" stroke="white" stroke-opacity="0.09" stroke-width="1.27702"/>
<line x1="1010.3" y1="-16.9019" x2="1010.3" y2="1165.62" stroke="white" stroke-opacity="0.09" stroke-width="1.27702"/>
<line x1="1337.22" y1="-16.9019" x2="1337.22" y2="1165.62" stroke="white" stroke-opacity="0.09" stroke-width="1.27702"/>
<line x1="193.009" y1="-16.9019" x2="193.009" y2="1165.62" stroke="white" stroke-opacity="0.09" stroke-width="1.27702"/>
<line x1="846.843" y1="-16.9019" x2="846.843" y2="1165.62" stroke="white" stroke-opacity="0.09" stroke-width="1.27702"/>
<line x1="519.929" y1="-16.9019" x2="519.929" y2="1165.62" stroke="white" stroke-opacity="0.09" stroke-width="1.27702"/>
<line x1="1173.76" y1="-16.9019" x2="1173.76" y2="1165.62" stroke="white" stroke-opacity="0.09" stroke-width="1.27702"/>
<line x1="111.281" y1="-16.9019" x2="111.281" y2="1165.62" stroke="white" stroke-opacity="0.09" stroke-width="1.27702"/>
<line x1="765.116" y1="-16.9019" x2="765.116" y2="1165.62" stroke="white" stroke-opacity="0.09" stroke-width="1.27702"/>
<line x1="438.196" y1="-16.9019" x2="438.196" y2="1165.62" stroke="white" stroke-opacity="0.09" stroke-width="1.27702"/>
<line x1="1092.04" y1="-16.9019" x2="1092.04" y2="1165.62" stroke="white" stroke-opacity="0.09" stroke-width="1.27702"/>
<line x1="1418.95" y1="-16.9019" x2="1418.95" y2="1165.62" stroke="white" stroke-opacity="0.09" stroke-width="1.27702"/>
<line x1="274.741" y1="-16.9019" x2="274.741" y2="1165.62" stroke="white" stroke-opacity="0.09" stroke-width="1.27702"/>
<line x1="928.576" y1="-16.9019" x2="928.576" y2="1165.62" stroke="white" stroke-opacity="0.09" stroke-width="1.27702"/>
<line x1="601.656" y1="-16.9019" x2="601.656" y2="1165.62" stroke="white" stroke-opacity="0.09" stroke-width="1.27702"/>
<line x1="1255.49" y1="-16.9019" x2="1255.49" y2="1165.62" stroke="white" stroke-opacity="0.09" stroke-width="1.27702"/>
<g opacity="0.7">
<rect x="844.321" y="828.775" width="81.2651" height="81.2651" fill="#24613D" fill-opacity="0.36"/>
<rect x="435.674" y="828.775" width="81.2651" height="81.2651" fill="#3A6B56"/>
<rect x="1172.25" y="257.614" width="81.2651" height="80.1042" fill="#5EBF94" fill-opacity="0.85"/>
<rect x="517.509" y="176.902" width="80.1255" height="78.9646" fill="#131413" stroke="#282828" stroke-width="1.13957"/>
<rect x="1089.28" y="338.862" width="81.2651" height="80.1042" fill="#5EBF94" fill-opacity="0.85"/>
<rect x="435.083" y="258.167" width="80.1255" height="78.9646" fill="#131413" stroke="#282828" stroke-width="1.13957"/>
<rect x="1089.82" y="257.614" width="81.2651" height="80.1042" fill="#5EBF94" fill-opacity="0.85"/>
<rect x="435.083" y="176.902" width="80.1255" height="78.9646" fill="#131413" stroke="#282828" stroke-width="1.13957"/>
<rect x="354.409" y="828.775" width="81.2651" height="81.2651" fill="#3A6B56"/>
<rect x="354.409" y="910.04" width="81.2651" height="82.426" fill="#3A6B56"/>
<rect x="190.718" y="747.51" width="81.2651" height="81.2651" fill="#3A6B56"/>
<rect x="1008.01" y="93.9062" width="81.2651" height="81.2651" fill="#1C1D1D"/>
<rect x="926.747" y="1.03174" width="81.2651" height="81.2651" fill="#1C1D1D"/>
<rect x="925.859" y="92.7451" width="81.2651" height="82.426" fill="#1C1D1D"/>
<rect x="190.718" y="174.01" width="82.426" height="83.587" fill="#121212"/>
<rect x="108.292" y="92.7446" width="82.426" height="81.2651" fill="#121212"/>
<rect x="27.0264" y="93.9058" width="82.426" height="81.2651" fill="#121212"/>
<rect x="108.292" y="174.01" width="82.426" height="83.587" fill="#121212"/>
<rect x="435.674" y="11.4795" width="82.426" height="81.2651" fill="#121212"/>
<rect x="190.718" y="337.701" width="81.2651" height="82.426" fill="#376651"/>
<rect x="1171.7" y="747.51" width="81.2651" height="81.2651" fill="#376550"/>
<rect x="1252.97" y="828.774" width="81.2651" height="81.2651" fill="#376550"/>
</g>
</g>
<defs>
<clipPath id="clip0_2700_1454">
<rect width="1440" height="1024" fill="white"/>
</clipPath>
</defs>
</svg>
