<svg width="190" height="44" viewBox="0 0 190 44" fill="none" xmlns="http://www.w3.org/2000/svg">
<rect x="1.25" y="1.25" width="187.5" height="41.5" rx="20.75" fill="url(#paint0_linear_2797_3016)"/>
<rect x="1.25" y="1.25" width="187.5" height="41.5" rx="20.75" stroke="url(#paint1_linear_2797_3016)" stroke-width="2.5"/>
<path d="M95.844 15.3V33.5H92.074L75.174 17.38H75.044V33.5H72.652V15.3H76.396L93.296 31.446H93.452V15.3H95.844ZM109.669 33.76H108.135C105.379 33.76 103.299 33.2487 101.895 32.226C100.508 31.186 99.8149 29.548 99.8149 27.312V25.96C99.8149 23.7067 100.508 22.06 101.895 21.02C103.282 19.98 105.362 19.46 108.135 19.46H109.669C112.442 19.46 114.514 19.98 115.883 21.02C117.27 22.06 117.963 23.7067 117.963 25.96V27.312C117.963 29.548 117.27 31.186 115.883 32.226C114.514 33.2487 112.442 33.76 109.669 33.76ZM108.915 31.914C111.324 31.914 113.058 31.5673 114.115 30.874C115.19 30.1633 115.727 28.872 115.727 27V26.22C115.727 24.348 115.19 23.0653 114.115 22.372C113.058 21.6613 111.324 21.306 108.915 21.306C106.471 21.306 104.712 21.6613 103.637 22.372C102.58 23.0653 102.051 24.348 102.051 26.22V27C102.051 28.872 102.58 30.1633 103.637 30.874C104.712 31.5673 106.471 31.914 108.915 31.914Z" fill="white"/>
<defs>
<linearGradient id="paint0_linear_2797_3016" x1="0" y1="22" x2="190" y2="22" gradientUnits="userSpaceOnUse">
<stop stop-color="#48BA86"/>
<stop offset="1" stop-color="#21543D"/>
</linearGradient>
<linearGradient id="paint1_linear_2797_3016" x1="-8.50747" y1="-36.1778" x2="106.328" y2="124.306" gradientUnits="userSpaceOnUse">
<stop offset="0.0721154" stop-color="#48BA86"/>
<stop offset="0.432443" stop-color="#13241C"/>
<stop offset="0.698048" stop-color="#204132"/>
<stop offset="0.980769" stop-color="#48BA86"/>
</linearGradient>
</defs>
</svg>
