<svg width="1816" height="846" viewBox="0 0 1816 846" fill="none" xmlns="http://www.w3.org/2000/svg">
<path d="M31.3042 554.78C31.3042 461.887 104.682 427.54 231.141 422.076C304.518 418.953 382.579 418.953 381.018 380.703C380.237 360.408 361.502 340.112 285.783 340.112C204.6 340.112 185.865 358.846 179.62 390.071H43.794C57.845 280.005 159.324 240.194 288.906 240.194C413.023 240.194 518.405 271.418 518.405 436.907V664.846H381.018V643.769C381.018 631.279 384.14 620.351 389.604 609.422C395.849 596.152 402.875 583.662 394.288 579.759C384.14 575.075 381.018 585.223 377.895 589.907C347.451 633.621 293.589 677.335 199.916 677.335C91.4112 677.335 31.3042 623.473 31.3042 554.78ZM381.018 458.765C356.819 479.06 314.666 492.331 248.314 497.795C198.355 501.698 168.692 511.065 168.692 546.193C168.692 577.417 201.477 596.152 260.023 586.785C307.64 578.979 380.237 537.606 381.018 458.765ZM570.444 458.765C570.444 338.551 664.898 240.194 831.168 240.194C977.923 240.194 1063.01 326.061 1070.03 415.831L934.208 416.612C924.841 383.045 891.275 352.602 832.729 352.602C756.229 352.602 707.831 400.999 707.831 458.765C707.831 516.53 756.229 564.928 832.729 564.928C891.275 564.928 924.841 533.703 934.208 500.137L1070.03 500.917C1063.01 590.688 979.484 677.335 831.168 677.335C668.02 677.335 570.444 578.979 570.444 458.765ZM1651 240.194C1722.82 240.194 1789.95 279.224 1789.95 408.805V664.846H1652.57V440.03C1652.57 377.581 1637.73 352.602 1597.92 352.602C1562.01 352.602 1521.42 407.244 1521.42 480.622V664.846H1384.04V449.397C1384.04 386.948 1363.74 352.602 1327.05 352.602C1280.99 352.602 1252.89 418.173 1252.89 497.795V664.846H1115.51V252.683H1252.89V268.296C1252.89 283.908 1248.21 295.617 1241.18 308.107C1234.94 319.816 1230.25 330.744 1239.62 334.647C1248.99 338.551 1252.89 329.964 1256.01 325.28C1287.24 278.443 1327.05 240.194 1380.91 240.194C1439.46 240.194 1477.71 271.418 1491.76 317.474C1494.1 325.28 1499.57 329.183 1507.37 329.183C1515.18 329.183 1518.3 326.061 1522.98 319.035C1558.11 269.076 1602.61 240.194 1651 240.194Z" fill="#EFEFEF"/>
<path d="M12.4898 532.934C12.4898 440.041 85.8672 405.694 212.326 400.23C285.703 397.108 363.764 397.108 362.203 358.858C361.423 338.562 342.688 318.266 266.969 318.266C185.785 318.266 167.051 337.001 160.806 368.225H24.9795C39.0305 258.159 140.51 218.348 270.091 218.348C394.208 218.348 499.591 249.572 499.591 415.062V643H362.203V621.924C362.203 609.434 365.326 598.505 370.79 587.577C377.035 574.306 384.06 561.817 375.474 557.913C365.326 553.23 362.203 563.378 359.081 568.061C328.637 611.776 274.775 655.49 181.102 655.49C72.5968 655.49 12.4898 601.628 12.4898 532.934ZM362.203 436.919C338.004 457.215 295.851 470.485 229.499 475.949C179.54 479.852 149.877 489.22 149.877 524.347C149.877 555.572 182.663 574.306 241.209 564.939C288.826 557.133 361.423 515.76 362.203 436.919ZM551.629 436.919C551.629 316.705 646.083 218.348 812.353 218.348C959.108 218.348 1044.19 304.215 1051.22 393.985L915.394 394.766C906.027 361.2 872.46 330.756 813.914 330.756C737.415 330.756 689.017 379.154 689.017 436.919C689.017 494.684 737.415 543.082 813.914 543.082C872.46 543.082 906.027 511.857 915.394 478.291L1051.22 479.072C1044.19 568.842 960.669 655.49 812.353 655.49C649.206 655.49 551.629 557.133 551.629 436.919ZM1632.19 218.348C1704.01 218.348 1771.14 257.378 1771.14 386.96V643H1633.75V418.184C1633.75 355.735 1618.92 330.756 1579.11 330.756C1543.2 330.756 1502.61 385.399 1502.61 458.776V643H1365.22V427.551C1365.22 365.103 1344.92 330.756 1308.24 330.756C1262.18 330.756 1234.08 396.327 1234.08 475.949V643H1096.69V230.838H1234.08V246.45C1234.08 262.062 1229.39 273.771 1222.37 286.261C1216.12 297.97 1211.44 308.899 1220.81 312.802C1230.18 316.705 1234.08 308.118 1237.2 303.434C1268.42 256.598 1308.24 218.348 1362.1 218.348C1420.64 218.348 1458.89 249.572 1472.94 295.628C1475.29 303.434 1480.75 307.337 1488.56 307.337C1496.36 307.337 1499.49 304.215 1504.17 297.19C1539.3 247.23 1583.79 218.348 1632.19 218.348Z" fill="#48BA86"/>
</svg>
