<svg width="103" height="114" viewBox="0 0 103 114" fill="none" xmlns="http://www.w3.org/2000/svg">
<g clip-path="url(#clip0_3952_970)">
<path d="M46.374 1.30964L4.88397 24.8795C1.85875 26.5963 0 29.7688 0 33.2026L0 80.3423C0 83.776 1.85875 86.9485 4.88397 88.6654L46.374 112.235C49.3992 113.952 53.1167 113.952 56.1419 112.235L97.6319 88.6654C100.657 86.9485 102.516 83.776 102.516 80.3423V33.2026C102.516 29.7688 100.657 26.5963 97.6319 24.8795L56.1514 1.30964C53.1262 -0.407248 49.3992 -0.407248 46.374 1.30964Z" fill="#FAFBFB"/>
<path d="M95.7634 82.0593V31.4952L51.2577 6.2085L6.75195 31.4952L6.75195 82.0593L51.2577 107.337L95.7634 82.0593Z" fill="#2C2C2C" stroke="#48BA86" stroke-width="2.82107" stroke-miterlimit="10"/>
<path d="M51.3139 20.6342L19.5254 38.6894V38.848L51.3139 56.7634V20.6342Z" fill="#D3EBE0"/>
<path d="M51.3164 56.7628V92.892L51.3449 92.9014L83.1523 74.8274V74.6968L51.3164 56.7628Z" fill="#5EBF94"/>
<path d="M51.3139 56.763L19.5254 38.8477V74.8089L51.3139 56.763Z" fill="#48BA86"/>
<path d="M19.5254 74.8088V74.8274L51.3139 92.892V56.7628L19.5254 74.8088Z" fill="#ADDBC8"/>
<path d="M83.1712 38.6801L51.3164 56.782V20.6155L83.1712 38.6801Z" fill="#86CCAC"/>
</g>
<defs>
<clipPath id="clip0_3952_970">
<rect width="102.525" height="113.51" fill="white" transform="translate(0 0.0219727)"/>
</clipPath>
</defs>
</svg>
