<svg width="266" height="93" viewBox="0 0 266 93" fill="none" xmlns="http://www.w3.org/2000/svg">
<g clip-path="url(#clip0_2797_2922)">
<path d="M30.7264 9.34463L3.23601 24.9615C1.23157 26.0991 0 28.2011 0 30.4762V61.71C0 63.9851 1.23157 66.0871 3.23601 67.2247L30.7264 82.8416C32.7309 83.9791 35.194 83.9791 37.1984 82.8416L64.6888 67.2247C66.6933 66.0871 67.9249 63.9851 67.9249 61.71V30.4762C67.9249 28.2011 66.6933 26.0991 64.6888 24.9615L37.2047 9.34463C35.2003 8.20706 32.7309 8.20706 30.7264 9.34463Z" fill="#FAFBFB"/>
<path d="M63.4515 62.8475V29.3448L33.9629 12.5903L4.47437 29.3448V62.8475L33.9629 79.5957L63.4515 62.8475Z" fill="#2C2C2C" stroke="#48BA86" stroke-width="1.20408" stroke-miterlimit="10"/>
<path d="M33.9996 22.1489L12.9373 34.112V34.2171L33.9996 46.0874V22.1489Z" fill="#D3EBE0"/>
<path d="M34 46.0867V70.0251L34.0188 70.0313L55.0938 58.0559V57.9693L34 46.0867Z" fill="#5EBF94"/>
<path d="M33.9996 46.0871L12.9373 34.2168V58.044L33.9996 46.0871Z" fill="#48BA86"/>
<path d="M12.9373 58.0435V58.0559L33.9996 70.0251V46.0867L12.9373 58.0435Z" fill="#ADDBC8"/>
<path d="M55.1063 34.1052L34 46.0992V22.136L55.1063 34.1052Z" fill="#86CCAC"/>
</g>
<path d="M97.2969 37.3232C102.071 37.3232 104.604 39.7978 105.74 43.7281L100.82 45.0673C100.441 43.0585 99.1892 41.8648 97.4133 41.8648C95.288 41.8648 93.5412 43.8154 93.5412 47.1344C93.5412 50.4533 95.2589 52.4039 97.3842 52.4039C99.131 52.4039 100.441 51.2102 100.936 49.2014L105.885 50.628C104.633 54.2089 102.042 56.9456 97.3842 56.9456C91.5615 56.9456 88.2717 53.0152 88.2717 47.1344C88.2717 41.399 91.9691 37.3232 97.2969 37.3232ZM114.83 56.9456C110.347 56.9456 107.203 53.5102 107.203 49.3179C107.203 45.1255 110.347 41.6902 114.83 41.6902C119.314 41.6902 122.458 45.1255 122.458 49.3179C122.458 53.5102 119.314 56.9456 114.83 56.9456ZM114.83 52.7532C116.257 52.7532 117.421 51.4722 117.421 49.3179C117.421 47.1635 116.257 45.8825 114.83 45.8825C113.404 45.8825 112.239 47.1635 112.239 49.3179C112.239 51.4722 113.404 52.7532 114.83 52.7532ZM131.663 52.8697C133.468 52.8697 134.254 51.2976 134.254 49.3179C134.254 47.3381 133.468 45.766 131.663 45.766C129.858 45.766 129.072 47.3381 129.072 49.3179C129.072 51.2976 129.858 52.8697 131.663 52.8697ZM134.545 56.5962V54.1216C133.759 56.2759 132.303 56.9456 130.353 56.9456C126.655 56.9456 124.064 53.6849 124.064 49.3179C124.064 44.9509 126.655 41.6902 130.353 41.6902C132.129 41.6902 133.526 42.1851 134.4 43.7572V36.7991H139.203V56.5962H134.545ZM149.029 45.4749C147.807 45.4749 146.933 46.3774 146.788 47.7457H151.242C151.184 46.4065 150.281 45.4749 149.029 45.4749ZM156.017 52.6368C155.027 55.0823 152.872 56.9456 149.291 56.9456C144.255 56.9456 141.606 53.8595 141.606 49.347C141.606 44.8344 144.692 41.6902 149.029 41.6902C153.804 41.6902 156.744 45.3002 155.988 50.5697H146.788C146.904 52.0545 147.719 52.957 149.291 52.957C150.485 52.957 151.242 52.433 151.795 51.2684L156.017 52.6368ZM171.758 56.5962H157.842V52.5203L162.733 48.328C165.469 45.9698 166.314 44.6306 166.314 43.3496C166.314 42.3307 165.673 41.6902 164.712 41.6902C163.577 41.6902 162.733 42.5053 161.83 44.1648L157.347 42.5053C158.511 39.594 160.811 37.3232 164.712 37.3232C169.138 37.3232 171.554 40.0016 171.554 43.3496C171.554 45.9116 170.448 48.2115 165.499 51.6178L164.625 52.2292H171.758V56.5962ZM182.505 37.3232C187.279 37.3232 189.812 39.7978 190.947 43.7281L186.027 45.0673C185.649 43.0585 184.397 41.8648 182.621 41.8648C180.496 41.8648 178.749 43.8154 178.749 47.1344C178.749 50.4533 180.467 52.4039 182.592 52.4039C184.339 52.4039 185.649 51.2102 186.144 49.2014L191.093 50.628C189.841 54.2089 187.25 56.9456 182.592 56.9456C176.769 56.9456 173.479 53.0152 173.479 47.1344C173.479 41.399 177.177 37.3232 182.505 37.3232ZM198.204 49.1432V56.5962H193.255V42.0395H197.767V45.2129C198.495 42.8547 199.951 41.6902 201.93 41.6902C202.513 41.6902 202.949 41.8066 203.328 41.9813L202.513 46.785C202.047 46.6977 201.494 46.6394 201.028 46.6394C199.165 46.6394 198.204 47.047 198.204 49.1432ZM211.862 45.4749C210.639 45.4749 209.766 46.3774 209.62 47.7457H214.075C214.016 46.4065 213.114 45.4749 211.862 45.4749ZM218.849 52.6368C217.859 55.0823 215.705 56.9456 212.124 56.9456C207.087 56.9456 204.438 53.8595 204.438 49.347C204.438 44.8344 207.524 41.6902 211.862 41.6902C216.637 41.6902 219.577 45.3002 218.82 50.5697H209.62C209.737 52.0545 210.552 52.957 212.124 52.957C213.318 52.957 214.075 52.433 214.628 51.2684L218.849 52.6368ZM226.817 53.3355C228.215 53.3355 229.263 52.5494 229.263 51.2684V51.1229H226.672C225.711 51.1229 225.303 51.5887 225.303 52.2292C225.303 52.9279 225.856 53.3355 226.817 53.3355ZM229.699 56.5962V54.7621C228.797 56.2759 227.225 56.9456 225.536 56.9456C222.567 56.9456 220.441 55.1696 220.441 52.3748C220.441 49.7546 222.334 48.2115 225.449 48.2115H228.593C229.117 48.2115 229.263 48.0369 229.263 47.6002V47.4255C229.263 46.2901 228.535 45.6205 227.516 45.6205C226.468 45.6205 225.827 46.2901 225.507 47.3673L220.994 46.3483C221.781 43.5534 224.255 41.6902 227.516 41.6902C231.796 41.6902 234.154 44.0483 234.154 48.1533V56.5962H229.699ZM246.936 46.0572H243.034V51.0064C243.034 52.1127 243.529 52.6368 244.286 52.6368C244.869 52.6368 245.363 52.433 246.062 51.9089L248.071 55.3152C246.674 56.4797 245.043 56.9456 243.442 56.9456C240.269 56.9456 238.085 55.0823 238.085 51.0064V46.0572H235.785V42.0395H238.318L239.308 38.837H243.034V42.0395H246.936V46.0572ZM256.442 45.4749C255.219 45.4749 254.346 46.3774 254.2 47.7457H258.654C258.596 46.4065 257.694 45.4749 256.442 45.4749ZM263.429 52.6368C262.439 55.0823 260.285 56.9456 256.704 56.9456C251.667 56.9456 249.018 53.8595 249.018 49.347C249.018 44.8344 252.104 41.6902 256.442 41.6902C261.216 41.6902 264.157 45.3002 263.4 50.5697H254.2C254.317 52.0545 255.132 52.957 256.704 52.957C257.897 52.957 258.654 52.433 259.208 51.2684L263.429 52.6368Z" fill="white"/>
<defs>
<clipPath id="clip0_2797_2922">
<rect width="67.9311" height="75.2095" fill="white" transform="translate(0 8.49146)"/>
</clipPath>
</defs>
</svg>
