<svg width="106" height="106" viewBox="0 0 106 106" fill="none" xmlns="http://www.w3.org/2000/svg">
<g filter="url(#filter0_d_2695_658)">
<path fill-rule="evenodd" clip-rule="evenodd" d="M53 17.6663C43.243 17.6663 35.3333 25.576 35.3333 35.333C35.3333 45.09 43.243 52.9997 53 52.9997C62.757 52.9997 70.6667 45.09 70.6667 35.333C70.6667 25.576 62.757 17.6663 53 17.6663ZM69.081 56.3978C75.4145 51.5554 79.5 43.9213 79.5 35.333C79.5 20.6975 67.6355 8.83301 53 8.83301C38.3644 8.83301 26.5 20.6975 26.5 35.333C26.5 43.9213 30.5855 51.5554 36.919 56.3978C32.4781 58.3622 28.3925 61.1421 24.8925 64.6422C22.1898 67.3449 19.9163 70.397 18.1162 73.6922C14.7943 79.7731 16.149 85.9733 19.89 90.3575C23.4914 94.5781 29.2605 97.1664 35.3333 97.1664H70.6667C76.7395 97.1664 82.5086 94.5781 86.11 90.3575C89.851 85.9733 91.2057 79.7731 87.8838 73.6923C86.0837 70.397 83.8102 67.3449 81.1075 64.6422C77.6074 61.1421 73.5219 58.3622 69.081 56.3978ZM53 61.833C44.8004 61.833 36.9366 65.0903 31.1386 70.8883C29.0363 72.9906 27.2682 75.3642 25.8682 77.927C24.5125 80.4088 24.9498 82.6787 26.6095 84.6238C28.4089 86.7326 31.6491 88.333 35.3333 88.333H70.6667C74.3509 88.333 77.5911 86.7326 79.3904 84.6238C81.0502 82.6787 81.4875 80.4088 80.1318 77.927C78.7318 75.3643 76.9637 72.9906 74.8614 70.8883C69.0634 65.0903 61.1996 61.833 53 61.833Z" fill="#D3EBE0"/>
<path fill-rule="evenodd" clip-rule="evenodd" d="M53 17.6663C43.243 17.6663 35.3333 25.576 35.3333 35.333C35.3333 45.09 43.243 52.9997 53 52.9997C62.757 52.9997 70.6667 45.09 70.6667 35.333C70.6667 25.576 62.757 17.6663 53 17.6663ZM69.081 56.3978C75.4145 51.5554 79.5 43.9213 79.5 35.333C79.5 20.6975 67.6355 8.83301 53 8.83301C38.3644 8.83301 26.5 20.6975 26.5 35.333C26.5 43.9213 30.5855 51.5554 36.919 56.3978C32.4781 58.3622 28.3925 61.1421 24.8925 64.6422C22.1898 67.3449 19.9163 70.397 18.1162 73.6922C14.7943 79.7731 16.149 85.9733 19.89 90.3575C23.4914 94.5781 29.2605 97.1664 35.3333 97.1664H70.6667C76.7395 97.1664 82.5086 94.5781 86.11 90.3575C89.851 85.9733 91.2057 79.7731 87.8838 73.6923C86.0837 70.397 83.8102 67.3449 81.1075 64.6422C77.6074 61.1421 73.5219 58.3622 69.081 56.3978ZM53 61.833C44.8004 61.833 36.9366 65.0903 31.1386 70.8883C29.0363 72.9906 27.2682 75.3642 25.8682 77.927C24.5125 80.4088 24.9498 82.6787 26.6095 84.6238C28.4089 86.7326 31.6491 88.333 35.3333 88.333H70.6667C74.3509 88.333 77.5911 86.7326 79.3904 84.6238C81.0502 82.6787 81.4875 80.4088 80.1318 77.927C78.7318 75.3643 76.9637 72.9906 74.8614 70.8883C69.0634 65.0903 61.1996 61.833 53 61.833Z" stroke="black"/>
</g>
<defs>
<filter id="filter0_d_2695_658" x="11.7273" y="8.33301" width="82.5454" height="97.333" filterUnits="userSpaceOnUse" color-interpolation-filters="sRGB">
<feFlood flood-opacity="0" result="BackgroundImageFix"/>
<feColorMatrix in="SourceAlpha" type="matrix" values="0 0 0 0 0 0 0 0 0 0 0 0 0 0 0 0 0 0 127 0" result="hardAlpha"/>
<feOffset dy="4"/>
<feGaussianBlur stdDeviation="2"/>
<feComposite in2="hardAlpha" operator="out"/>
<feColorMatrix type="matrix" values="0 0 0 0 0 0 0 0 0 0 0 0 0 0 0 0 0 0 1 0"/>
<feBlend mode="normal" in2="BackgroundImageFix" result="effect1_dropShadow_2695_658"/>
<feBlend mode="normal" in="SourceGraphic" in2="effect1_dropShadow_2695_658" result="shape"/>
</filter>
</defs>
</svg>
