<svg width="219" height="107" viewBox="0 0 219 107" fill="none" xmlns="http://www.w3.org/2000/svg">
<g filter="url(#filter0_d_2695_783)">
<rect x="4" width="211" height="99" rx="30" fill="url(#paint0_linear_2695_783)"/>
<rect x="4.5" y="0.5" width="210" height="98" rx="29.5" stroke="black"/>
<path d="M82.54 53.79V63H76.66V53.85L64.36 42H71.71L79.84 49.98H80.08L88.21 42H94.81L82.54 53.79ZM121.302 58.56V63H96.8819V42H121.302V46.44H102.762V50.28H121.302V54.69H102.762V58.56H121.302ZM139.154 63.3H137.564C136.344 63.3 135.244 63.27 134.264 63.21C133.304 63.15 132.314 63.04 131.294 62.88C130.294 62.72 129.404 62.49 128.624 62.19C127.864 61.89 127.154 61.53 126.494 61.11C125.854 60.67 125.314 60.12 124.874 59.46C124.454 58.8 124.154 58.05 123.974 57.21H130.244C130.684 57.97 131.524 58.48 132.764 58.74C134.024 58.98 136.054 59.1 138.854 59.1C141.734 59.1 143.764 58.93 144.944 58.59C146.144 58.25 146.754 57.61 146.774 56.67V56.49C146.774 55.89 146.554 55.45 146.114 55.17C145.674 54.87 144.844 54.71 143.624 54.69L133.304 54.33C130.184 54.25 127.994 53.77 126.734 52.89C125.474 52.01 124.844 50.61 124.844 48.69V48.45C124.844 45.95 125.854 44.2 127.874 43.2C129.914 42.2 133.184 41.7 137.684 41.7H138.884C140.684 41.7 142.244 41.78 143.564 41.94C144.884 42.1 146.174 42.39 147.434 42.81C148.714 43.23 149.754 43.88 150.554 44.76C151.354 45.62 151.914 46.7 152.234 48H145.964C145.624 47.18 144.824 46.63 143.564 46.35C142.324 46.05 140.474 45.9 138.014 45.9C135.194 45.9 133.294 46.07 132.314 46.41C131.334 46.73 130.844 47.29 130.844 48.09V48.15C130.844 48.75 131.064 49.2 131.504 49.5C131.944 49.78 132.764 49.94 133.964 49.98L144.284 50.34C147.424 50.46 149.614 50.94 150.854 51.78C152.094 52.62 152.714 53.99 152.714 55.89V56.13C152.714 58.85 151.634 60.73 149.474 61.77C147.334 62.79 143.894 63.3 139.154 63.3Z" fill="white"/>
</g>
<defs>
<filter id="filter0_d_2695_783" x="0" y="0" width="219" height="107" filterUnits="userSpaceOnUse" color-interpolation-filters="sRGB">
<feFlood flood-opacity="0" result="BackgroundImageFix"/>
<feColorMatrix in="SourceAlpha" type="matrix" values="0 0 0 0 0 0 0 0 0 0 0 0 0 0 0 0 0 0 127 0" result="hardAlpha"/>
<feOffset dy="4"/>
<feGaussianBlur stdDeviation="2"/>
<feComposite in2="hardAlpha" operator="out"/>
<feColorMatrix type="matrix" values="0 0 0 0 0.368627 0 0 0 0 0.74902 0 0 0 0 0.580392 0 0 0 1 0"/>
<feBlend mode="normal" in2="BackgroundImageFix" result="effect1_dropShadow_2695_783"/>
<feBlend mode="normal" in="SourceGraphic" in2="effect1_dropShadow_2695_783" result="shape"/>
</filter>
<linearGradient id="paint0_linear_2695_783" x1="4" y1="49.5" x2="215" y2="49.5" gradientUnits="userSpaceOnUse">
<stop stop-color="#86CCAC"/>
<stop offset="1" stop-color="#5A796B"/>
</linearGradient>
</defs>
</svg>
