<svg width="397" height="383" viewBox="0 0 397 383" fill="none" xmlns="http://www.w3.org/2000/svg">
<path d="M344.827 118.087C343.785 122.257 337.467 120.172 335.153 119.401C334.957 119.326 334.739 119.333 334.547 119.419C334.356 119.505 334.206 119.663 334.131 119.859C334.131 120.089 333.485 122.299 332.651 125.51C332.599 125.691 332.61 125.884 332.682 126.059C332.754 126.233 332.883 126.377 333.047 126.469C335.791 127.895 338.818 128.693 341.908 128.804C342.096 128.815 342.274 128.889 342.414 129.014C342.554 129.139 342.647 129.307 342.68 129.492L343.118 131.848C343.133 131.956 343.169 132.059 343.225 132.152C343.281 132.245 343.355 132.326 343.442 132.39C343.529 132.454 343.629 132.5 343.734 132.525C343.84 132.55 343.949 132.554 344.056 132.536L350.311 131.64C350.423 131.621 350.53 131.578 350.625 131.515C350.72 131.452 350.801 131.369 350.862 131.273C350.923 131.177 350.963 131.068 350.979 130.956C350.996 130.843 350.988 130.728 350.957 130.618C350.749 129.805 350.436 128.533 350.165 127.386C350.125 127.234 350.132 127.073 350.184 126.925C350.236 126.776 350.331 126.647 350.457 126.552C352.112 125.247 353.297 123.44 353.835 121.402C356.399 111.686 345.495 105.41 345.495 105.41C338.781 101.491 332.609 99.364 333.923 95.5484C335.487 90.9822 342.263 94.6727 344.348 96.0488C344.527 96.156 344.74 96.1919 344.945 96.1494C345.15 96.107 345.331 95.9892 345.453 95.8195L348.622 90.6695C348.729 90.4845 348.762 90.2663 348.716 90.058C348.669 89.8497 348.547 89.6662 348.372 89.5436C342.471 85.5195 339.49 86.7497 339.26 85.3736L338.739 81.9125C338.708 81.6944 338.592 81.4974 338.416 81.3645C338.241 81.2317 338.019 81.1739 337.801 81.2036L331.692 82.1418C331.583 82.1587 331.478 82.1983 331.385 82.258C331.292 82.3178 331.213 82.3963 331.152 82.4886C331.091 82.5809 331.05 82.6849 331.032 82.794C331.013 82.903 331.018 83.0147 331.046 83.1218C331.796 86.1868 332.109 86.7289 331.358 87.1041C329.821 87.8765 328.498 89.0176 327.508 90.4256C326.519 91.8335 325.893 93.4645 325.687 95.1731C324.394 110.289 347.184 108.872 344.827 118.087ZM87.601 145.422C86.8921 150.092 79.0108 149.592 76.2795 149.3C76.0157 149.275 75.7525 149.352 75.5433 149.515C75.3342 149.678 75.1949 149.914 75.1536 150.175L74.6115 156.868C74.5718 157.067 74.6075 157.273 74.7116 157.446C74.8156 157.62 74.9807 157.748 75.1744 157.807C78.5684 158.605 82.1012 158.605 85.4952 157.807C85.6914 157.754 85.9003 157.779 86.0788 157.876C86.2573 157.973 86.3917 158.134 86.4543 158.328L87.2674 161.434C87.3027 161.539 87.3582 161.635 87.4308 161.718C87.5034 161.801 87.5917 161.868 87.6905 161.917C87.7894 161.965 87.8969 161.993 88.0067 162C88.1166 162.007 88.2268 161.992 88.3308 161.956C90.6163 160.855 92.9786 159.921 95.3989 159.162C95.6443 159.068 95.8451 158.884 95.9611 158.648C96.0771 158.413 96.0997 158.142 96.0244 157.89C95.6908 157.077 95.107 155.117 94.69 153.928C94.6337 153.76 94.6254 153.579 94.6658 153.406C94.7063 153.233 94.7941 153.075 94.9194 152.948C96.6508 151.166 97.7934 148.896 98.1928 146.443C100.111 135.205 86.9964 131.494 86.9964 131.494C78.9274 129.159 71.6716 128.596 72.735 124.113C74.0068 118.734 81.9924 120.923 84.6403 121.715C84.8867 121.781 85.1486 121.756 85.3783 121.645C85.6079 121.534 85.79 121.345 85.8913 121.11L88.8312 114.689C88.8823 114.594 88.9141 114.491 88.925 114.384C88.9359 114.277 88.9255 114.169 88.8945 114.067C88.8635 113.964 88.8124 113.868 88.7443 113.786C88.6762 113.703 88.5923 113.634 88.4976 113.584C85.3121 112.329 81.8809 111.822 78.4687 112.103C78.28 112.127 78.089 112.083 77.929 111.98C77.769 111.877 77.6501 111.722 77.593 111.54L76.5297 107.787C76.4965 107.673 76.4384 107.567 76.3596 107.477C76.2808 107.387 76.1832 107.316 76.0738 107.268C75.9643 107.22 75.8456 107.197 75.7262 107.2C75.6068 107.204 75.4896 107.233 75.3829 107.287L68.5858 109.226C68.3382 109.312 68.133 109.49 68.0127 109.722C67.8924 109.955 67.8662 110.225 67.9395 110.477C69.2113 114.647 69.5658 115.064 68.8152 115.648C67.1681 116.848 65.8228 118.414 64.8856 120.223C63.9483 122.033 63.4449 124.035 63.415 126.073C63.6027 142.753 89.269 134.788 87.601 145.422ZM186.305 51.2839C187.452 51.9094 185.033 54.328 186.305 54.8284L191.288 56.267C191.38 56.2951 191.476 56.3037 191.572 56.2922C191.667 56.2807 191.759 56.2494 191.841 56.2003C191.924 56.1512 191.995 56.0854 192.051 56.0071C192.106 55.9289 192.145 55.8398 192.164 55.7458C192.894 52.9102 192.914 52.6183 193.456 52.4932C195.232 52.0582 196.833 51.0906 198.043 49.7201C203.861 43.2983 198.44 34.8749 198.44 34.8749C195.124 29.6416 191.455 25.9511 193.957 23.5325C196.959 20.6135 200.337 25.6175 201.4 27.4523C201.445 27.5253 201.504 27.5887 201.573 27.6388C201.643 27.6889 201.722 27.7247 201.805 27.7441C201.888 27.7635 201.975 27.7661 202.059 27.7518C202.144 27.7375 202.224 27.7066 202.297 27.6608L206.675 24.8461C206.755 24.8025 206.825 24.7436 206.882 24.6728C206.939 24.6019 206.981 24.5206 207.006 24.4334C207.031 24.3461 207.039 24.2548 207.029 24.1646C207.019 24.0744 206.991 23.9871 206.946 23.9078C205.803 21.7517 204.185 19.8837 202.213 18.4451C201.692 18.049 201.922 17.6945 203.027 14.9006C203.063 14.8177 203.08 14.728 203.078 14.6376C203.076 14.5472 203.055 14.4583 203.015 14.3771C202.976 14.2958 202.919 14.2241 202.849 14.1669C202.779 14.1097 202.697 14.0684 202.61 14.0458L197.772 12.6697C197.587 12.6251 197.392 12.6547 197.229 12.7521C197.065 12.8495 196.946 13.007 196.897 13.1909L196.167 15.7555C196.127 15.9048 196.042 16.0378 195.922 16.1352C195.802 16.2326 195.654 16.2894 195.5 16.2976C194.017 16.3717 192.573 16.7934 191.284 17.5287C189.994 18.2639 188.896 19.2921 188.077 20.5301C180.967 31.4138 198.231 38.1275 192.748 44.2366C190.329 46.9471 186.493 43.3192 185.137 41.9222C185.009 41.7974 184.837 41.7276 184.658 41.7276C184.479 41.7276 184.307 41.7974 184.178 41.9222L180.821 45.6335C180.72 45.7568 180.664 45.9116 180.664 46.0714C180.664 46.2311 180.72 46.3859 180.821 46.5092C182.258 48.5012 184.134 50.1351 186.305 51.2839ZM225.294 105.682C225.309 105.848 225.381 106.004 225.5 106.123C225.618 106.241 225.774 106.314 225.941 106.328C272.269 110.31 274.25 112.791 275.022 111.895C275.793 110.998 276.877 107.725 275.397 107.433C259.539 104.045 243.402 102.133 227.192 101.72C225.899 101.72 225.19 104.305 225.294 105.682ZM177.84 89.064C176.13 89.064 184.22 90.6487 224.502 99.0512C239.93 99.962 255.294 101.751 270.518 104.41C270.537 104.416 270.558 104.419 270.578 104.418C270.598 104.417 270.618 104.412 270.637 104.404C270.655 104.395 270.671 104.383 270.685 104.368C270.699 104.353 270.709 104.335 270.716 104.316C270.723 104.297 270.726 104.276 270.725 104.256C270.724 104.236 270.719 104.216 270.71 104.197C270.702 104.179 270.689 104.162 270.674 104.149C270.659 104.135 270.641 104.125 270.622 104.118C248.042 93.2757 204.757 87.8339 177.84 89.064Z" fill="#48BA86"/>
<path d="M344.139 147.548C354.313 147.548 368.637 142.669 373.454 132.953C386.923 105.702 374.121 74.5732 356.774 66.9421C351.123 64.4818 345.369 63.9189 335.611 64.8571C332.011 65.2797 328.532 66.42 325.381 68.2107C322.229 70.0013 319.469 72.4059 317.263 75.2821C298.081 99.0928 311.571 147.548 344.139 147.548ZM310.779 93.3382C316.054 65.3784 340.26 59.1234 356.523 74.2188C380.626 96.57 372.349 143.42 344.847 145.776C323.059 147.715 305.566 120.902 310.758 93.505L310.779 93.3382Z" fill="#48BA86"/>
<path d="M332.421 137.165C335.379 138.729 338.667 139.565 342.012 139.605C354.877 139.605 367.449 125.197 364.947 103.764C361.799 76.2834 336.174 63.002 321.871 80.6202C308.59 96.9874 314.011 127.658 332.421 137.165ZM336.258 74.2193C347.746 73.1351 361.528 84.2064 363.801 103.931C366.428 126.866 350.123 144.651 333.109 135.789C326.125 132.161 318.097 123.029 316.429 108.246C314.761 93.4638 321.517 75.5954 336.258 74.2193ZM183.406 63.69C185.442 64.5255 187.628 64.9308 189.828 64.8806C192.027 64.8304 194.192 64.3256 196.188 63.3981C217.434 54.3284 224.627 15.4431 205.466 7.43671C192.956 2.20336 179.966 14.7968 174.983 27.4944C169.666 41.0469 171.397 58.7277 183.406 63.69ZM199.732 7.64521C211.992 7.64521 216.871 21.2811 215.057 33.9788C213.43 45.3003 206.717 56.1632 198.085 61.0838C189.453 66.0044 181.092 63.4607 176.755 55.913C166.81 38.4824 181.822 7.64521 199.732 7.64521Z" fill="#48BA86"/>
<path d="M183.906 70.2991C187.622 72.0672 191.658 73.0671 195.77 73.2389C207.487 73.2389 219.497 63.1476 225.398 48.219C231.903 31.539 228.671 13.6496 217.871 6.51895C214.786 4.9442 211.611 3.55181 208.363 2.34895C188.556 -5.90765 164.099 21.4475 168.289 49.7201C169.895 60.3954 175.566 67.9222 183.906 70.2991ZM172.23 26.3473C175.269 18.0653 180.806 10.9322 188.076 5.93515C194.811 1.5775 201.879 0.5767 207.988 3.09955C228.838 11.7523 224.126 51.7218 202.212 65.8581C179.444 80.5365 160.971 54.9118 172.23 26.3473ZM74.652 184.057C85.7302 184.722 96.6326 181.051 105.051 173.819C127.09 159.495 129.633 127.949 112.245 107.35C99.1925 91.8789 78.1131 86.4995 61.0161 94.2558C14.3955 108.83 28.0523 180.283 74.652 184.057ZM82.4916 92.3167C119.667 97.0705 135.951 145.63 108.512 169.628C81.6576 193.043 37.6224 170.337 38.2271 131.827C38.6232 107.954 58.2639 89.3352 82.4916 92.3375V92.3167Z" fill="#48BA86"/>
<path d="M65.1856 167.169C69.3736 169.578 74.0209 171.081 78.8265 171.58C83.6322 172.079 88.4891 171.564 93.0829 170.067C113.099 163.353 122.002 138.792 110.305 118.338C98.6082 97.8842 72.775 93.1096 56.6997 107.037C37.9555 123.384 43.0429 154.68 65.1856 167.169ZM77.8624 100.803C94.9386 100.803 110.201 114.001 113.307 131.807C118.52 161.435 86.7237 182.056 61.8079 163.332C57.0384 159.757 53.1799 155.107 50.546 149.759C47.9121 144.412 46.5773 138.518 46.65 132.558C47.0253 114.794 60.5778 100.803 77.8624 100.803ZM222.728 171.297C222.567 171.299 222.412 171.357 222.289 171.461C222.166 171.565 222.084 171.71 222.057 171.869C222.029 172.027 222.059 172.191 222.139 172.33C222.22 172.47 222.347 172.576 222.499 172.631C228.983 174.716 229.88 170.129 227.148 164.041C227.096 163.884 226.983 163.753 226.834 163.679C226.686 163.605 226.514 163.593 226.356 163.645C226.199 163.698 226.068 163.811 225.994 163.959C225.92 164.108 225.907 164.28 225.96 164.437C226.393 166.305 226.631 168.213 226.669 170.129C226.585 171.026 226.544 171.339 222.728 171.297ZM208.529 171.797C207.716 178.052 215.035 183.265 220.205 180.805C220.343 180.733 220.451 180.615 220.509 180.471C220.566 180.327 220.57 180.166 220.52 180.02C220.469 179.873 220.367 179.749 220.233 179.671C220.099 179.593 219.941 179.566 219.788 179.595C218.604 179.774 217.397 179.713 216.236 179.417C215.076 179.12 213.988 178.593 213.035 177.868C212.082 177.143 211.285 176.234 210.69 175.194C210.095 174.155 209.715 173.007 209.572 171.818C209.575 171.68 209.522 171.546 209.427 171.447C209.331 171.347 209.199 171.289 209.061 171.287C208.923 171.284 208.789 171.336 208.689 171.432C208.59 171.528 208.532 171.659 208.529 171.797ZM215.639 161.31C217.724 161.644 218.829 155.18 216.703 154.846C214.576 154.513 213.492 160.955 215.639 161.31ZM235.468 156.66C233.383 156.306 232.215 163.145 234.592 163.145C236.593 163.145 237.573 157.015 235.468 156.66ZM220.497 147.716C218.704 144.15 213.096 143.984 210.531 147.716C210.43 147.851 210.381 148.018 210.392 148.187C210.403 148.356 210.475 148.515 210.593 148.635C210.711 148.756 210.869 148.831 211.037 148.845C211.205 148.86 211.373 148.815 211.511 148.717C212.603 147.799 213.976 147.282 215.401 147.252C216.827 147.222 218.221 147.68 219.351 148.55C219.479 148.639 219.631 148.686 219.787 148.684C219.943 148.682 220.094 148.632 220.22 148.54C220.346 148.449 220.441 148.32 220.49 148.172C220.54 148.024 220.542 147.865 220.497 147.716ZM240.701 151.177C240.795 151.307 240.931 151.401 241.086 151.444C241.24 151.487 241.405 151.476 241.553 151.413C241.701 151.35 241.823 151.239 241.899 151.098C241.976 150.956 242.001 150.793 241.973 150.635C241.674 149.789 241.179 149.026 240.529 148.407C239.878 147.789 239.091 147.333 238.231 147.077C237.372 146.821 236.463 146.772 235.581 146.934C234.698 147.095 233.866 147.463 233.153 148.008C233.031 148.105 232.945 148.241 232.91 148.393C232.875 148.545 232.893 148.705 232.961 148.846C233.029 148.987 233.143 149.1 233.284 149.168C233.425 149.235 233.585 149.252 233.737 149.217C234.947 148.702 236.298 148.615 237.564 148.971C238.83 149.328 239.937 150.106 240.701 151.177ZM60.5361 298.399C60.4338 302.944 61.4203 307.448 63.4134 311.534C63.4631 311.66 63.5601 311.762 63.6838 311.818C63.8074 311.874 63.948 311.879 64.0756 311.833C64.2032 311.787 64.3078 311.693 64.3671 311.571C64.4264 311.449 64.4358 311.309 64.3933 311.18C63.0413 307.067 62.3378 302.769 62.3083 298.44C62.3083 296.209 62.8713 293.645 63.8512 293.332C64.3308 293.186 65.4984 293.457 67.8961 296.96C67.968 297.079 68.0842 297.164 68.2191 297.198C68.354 297.231 68.4965 297.209 68.6154 297.137C68.7343 297.065 68.8198 296.949 68.853 296.814C68.8863 296.679 68.8645 296.537 68.7927 296.418C65.0605 288.891 60.7446 290.914 60.5361 298.399ZM84.3051 356.925C81.3768 356.573 78.5981 355.436 76.2636 353.634C73.9291 351.831 72.1257 349.431 71.0445 346.687C70.9672 346.534 70.8382 346.412 70.6802 346.345C70.5223 346.277 70.3455 346.267 70.1811 346.317C70.0166 346.367 69.875 346.473 69.7812 346.617C69.6874 346.761 69.6474 346.934 69.6684 347.104C70.3625 350.416 72.2116 353.373 74.8853 355.447C77.559 357.521 80.883 358.577 84.2634 358.426C84.3619 358.429 84.4601 358.412 84.5522 358.377C84.6443 358.341 84.7286 358.288 84.8002 358.221C84.8719 358.153 84.9294 358.072 84.9697 357.982C85.0099 357.892 85.0321 357.795 85.0348 357.696C85.0375 357.597 85.0208 357.499 84.9856 357.407C84.9505 357.315 84.8975 357.231 84.8297 357.159C84.7619 357.088 84.6807 357.03 84.5907 356.99C84.5007 356.949 84.4036 356.927 84.3051 356.925ZM83.1583 307.322C81.3027 308.553 84.1383 313.14 86.119 313.14C86.3197 313.134 86.5168 313.085 86.6965 312.996C86.8762 312.907 87.0342 312.779 87.1594 312.622C87.2845 312.465 87.3739 312.283 87.421 312.087C87.4682 311.892 87.4722 311.689 87.4326 311.492C87.3283 309.533 84.7846 306.176 83.1583 307.322ZM91.8319 304.946C90.435 304.112 89.4342 304.946 89.4967 306.197C89.601 308.156 92.0821 311.472 93.6667 310.367C95.2513 309.261 93.7918 306.176 91.8319 304.946ZM45.4615 300.588C36.1416 299.254 28.7815 300.588 22.8393 304.32C22.6277 304.456 22.4723 304.663 22.4014 304.904C21.9165 306.468 22.0052 308.153 22.6516 309.658C22.6998 309.76 22.7687 309.851 22.854 309.925C22.9393 309.999 23.039 310.054 23.1469 310.088C23.2548 310.121 23.3684 310.131 23.4806 310.118C23.5927 310.105 23.701 310.069 23.7984 310.012C30.2892 306.634 37.7106 305.484 44.9194 306.739C45.0031 306.76 45.0903 306.764 45.1756 306.75C45.2608 306.736 45.3423 306.704 45.4147 306.657C45.4872 306.61 45.5492 306.549 45.5967 306.477C45.6442 306.405 45.6763 306.323 45.6909 306.238C46.0258 304.6 46.1519 302.925 46.0662 301.255C46.0583 301.091 45.9936 300.935 45.8834 300.813C45.7731 300.691 45.624 300.612 45.4615 300.588ZM105.176 329.111C101.944 329.111 102.236 338.368 105.384 338.285C108.533 338.201 108.324 329.111 105.176 329.111ZM113.808 331.196C113.328 329.277 111.848 328.986 110.68 330.57C108.971 332.843 108.846 337.909 111.076 337.909C113.307 337.909 114.433 333.593 113.808 331.196ZM193.684 352.734H187.429C187.179 352.743 186.942 352.844 186.761 353.017C186.58 353.19 186.469 353.423 186.449 353.672L185.991 357.696C185.972 358.009 186.075 358.317 186.276 358.558C186.478 358.798 186.763 358.952 187.075 358.989C189.473 359.239 191.891 359.239 194.289 358.989C194.59 358.957 194.866 358.808 195.057 358.574C195.249 358.339 195.34 358.039 195.31 357.738L194.893 353.881C194.86 353.577 194.72 353.296 194.498 353.086C194.277 352.876 193.989 352.752 193.684 352.734ZM198.084 353.714L197.75 357.696C197.738 358.018 197.851 358.331 198.064 358.572C198.278 358.813 198.576 358.962 198.897 358.989C201.387 359.208 203.892 359.208 206.382 358.989C206.692 358.952 206.975 358.797 207.173 358.556C207.371 358.315 207.469 358.007 207.445 357.696C206.903 354.965 207.445 352.775 205.694 352.734C203.942 352.692 201.378 352.734 199.084 352.734C198.826 352.744 198.58 352.849 198.395 353.031C198.21 353.212 198.099 353.455 198.084 353.714ZM210.448 358.989C212.882 359.218 215.332 359.218 217.766 358.989C218.068 358.957 218.347 358.809 218.541 358.575C218.736 358.341 218.832 358.041 218.808 357.738L218.391 353.881C218.351 353.565 218.198 353.275 217.96 353.065C217.722 352.854 217.416 352.736 217.099 352.734H210.635C210.383 352.743 210.143 352.843 209.959 353.015C209.775 353.188 209.659 353.421 209.634 353.672L209.322 357.654C209.307 357.816 209.325 357.979 209.374 358.134C209.423 358.288 209.502 358.432 209.607 358.556C209.711 358.68 209.84 358.782 209.984 358.856C210.128 358.931 210.286 358.976 210.448 358.989ZM221.957 358.989C224.532 359.176 227.117 359.176 229.692 358.989C229.846 358.978 229.995 358.937 230.133 358.869C230.271 358.8 230.393 358.705 230.494 358.589C230.595 358.472 230.672 358.337 230.72 358.191C230.769 358.045 230.788 357.891 230.776 357.738L230.338 353.86C230.28 353.543 230.112 353.257 229.865 353.051C229.617 352.846 229.305 352.733 228.983 352.734H222.144C221.886 352.737 221.638 352.834 221.447 353.007C221.255 353.179 221.132 353.416 221.102 353.672L220.789 357.654C220.775 357.819 220.794 357.985 220.846 358.143C220.897 358.3 220.98 358.445 221.089 358.57C221.198 358.695 221.331 358.796 221.48 358.868C221.629 358.94 221.791 358.981 221.957 358.989ZM298.581 341.954C292.326 340.641 270.412 350.586 269.703 351.358C267.994 353.172 268.786 358.676 270.225 360.281C271.663 361.887 311.091 378.838 324.435 381.632C328.125 381.903 341.115 375.898 344.555 374.293C348.725 372.208 353.208 370.54 353.958 366.432C353.958 366.432 354.73 361.303 352.77 359.885C340.989 352.463 317.012 345.791 298.581 341.954ZM298.351 343.268C312.196 345.916 339.467 354.026 351.185 360.824C347.87 363.451 328.25 372.541 325.373 373.021C314.531 367.204 283.819 356.341 270.829 352.421C271.642 351.608 292.471 342.163 298.247 343.268H298.351ZM325.31 379.63C318.888 379.63 277.522 362.533 271.788 359.489C270.6 358.864 270.099 355.319 270.433 353.443C280.233 357.112 322.954 372.646 324.852 374.647C325.338 375.375 325.627 376.218 325.689 377.092C325.751 377.965 325.585 378.84 325.206 379.63H325.31ZM352.415 366.119C351.894 368.913 349.35 370.123 344.284 372.52C338.723 375.228 332.957 377.494 327.041 379.297C327.514 377.647 327.366 375.882 326.624 374.334C331.649 373.021 348.746 365.431 352.374 361.949C352.519 363.339 352.477 364.741 352.248 366.119H352.415Z" fill="#48BA86"/>
<path d="M344.451 359.948C343.617 358.28 298.456 344.289 296.621 344.685C291.742 345.77 288.281 346.77 278.44 351.712C278.333 351.759 278.242 351.837 278.179 351.935C278.115 352.033 278.081 352.148 278.081 352.264C278.081 352.381 278.115 352.496 278.179 352.594C278.242 352.692 278.333 352.769 278.44 352.817C290.054 357.112 324.769 369.497 325.436 369.372C344.576 360.511 345.014 361.053 344.451 359.948ZM282.527 352.9C286.911 350.454 291.612 348.623 296.496 347.459C312.53 351.399 328.147 356.716 340.135 360.99C334.951 362.894 329.907 365.158 325.04 367.766C315.574 364.159 297.622 357.529 282.527 352.9Z" fill="#48BA86"/>
<path d="M353.124 323.043C353.08 322.406 352.88 321.79 352.541 321.25C353.132 321.24 353.711 321.082 354.225 320.79C354.739 320.499 355.173 320.084 355.486 319.582C355.798 319.081 355.981 318.509 356.016 317.919C356.052 317.329 355.939 316.74 355.689 316.204C374.579 299.274 398.119 270.334 396.868 266.873C396.013 264.559 396.013 270.105 321.808 258.2C306.275 224.006 287.51 190.541 244.996 189.228C244.818 189.224 244.643 189.282 244.502 189.392C244.362 189.502 244.264 189.658 244.225 189.832C241.556 201.467 233.133 228.196 212.595 224.985C197.208 222.567 186.262 204.949 182.175 188.415C186.347 188.59 190.526 188.492 194.685 188.123C194.828 188.109 194.963 188.052 195.071 187.959C195.179 187.865 195.256 187.74 195.29 187.601C197.005 180.454 197.351 173.047 196.312 165.771C196.3 165.682 196.269 165.596 196.222 165.52C196.174 165.444 196.11 165.379 196.035 165.329C195.96 165.28 195.875 165.247 195.786 165.233C195.697 165.22 195.606 165.225 195.519 165.25C189.932 166.71 188.18 158.641 189.869 154.825C190.11 154.222 190.55 153.718 191.116 153.398C191.681 153.079 192.339 152.961 192.981 153.066C193.622 153.17 194.209 153.49 194.644 153.973C195.079 154.456 195.336 155.073 195.373 155.722C195.373 158.453 201.628 152.115 200.794 145.651C201.67 145.651 202.525 145.651 203.359 145.505C204.589 145.359 203.067 140.606 207.863 136.185C207.362 137.737 207.297 139.395 207.675 140.981C207.946 141.857 211.845 141.94 214.097 141.314C214.91 141.106 214.535 138.958 218.016 132.432C223.844 133.667 229.782 134.303 235.739 134.33C238.168 136.155 240.378 138.254 242.328 140.585C251.502 151.573 240.097 184.536 227.024 191.897C221.749 194.857 216.599 193.982 211.386 190.875C210.823 190.52 210.406 190.249 210.093 190.687C210.004 190.784 209.954 190.91 209.954 191.042C209.954 191.173 210.004 191.3 210.093 191.396C218.183 198.068 227.795 197.109 235.51 186.476C236.74 186.663 241.202 187.059 241.765 185.933C242.612 184.001 243.181 181.958 243.453 179.866C245.163 184.307 243.579 187.581 245.205 187.414C247.179 187.331 249.091 186.703 250.73 185.6C250.796 185.543 250.848 185.472 250.884 185.393C250.92 185.314 250.939 185.228 250.939 185.141C250.991 182.436 250.718 179.733 250.125 177.093C253.024 181.263 253.128 183.035 253.691 183.098C254.879 183.285 258.903 180.304 258.841 179.491C258.194 176.298 256.964 173.252 255.213 170.504C254.297 168.289 254.036 165.858 254.462 163.499C256.193 166.87 257.455 170.462 258.215 174.174C258.34 174.841 258.382 175.217 259.049 175.196C260.238 175.099 261.396 174.767 262.455 174.22C263.514 173.672 264.455 172.919 265.221 172.006C265.301 171.921 265.359 171.817 265.388 171.704C265.417 171.591 265.417 171.472 265.388 171.359C265.018 169.729 264.494 168.137 263.824 166.605C267.056 168.253 270.579 166.605 270.621 165.584C270.892 157.64 268.995 154.346 266.597 151.844C267.243 152.198 271.58 152.01 272.602 149.634C272.776 148.795 272.776 147.929 272.602 147.09C272.313 145.348 271.663 143.685 270.694 142.21C269.724 140.734 268.457 139.477 266.972 138.521C263.469 136.102 260.467 134.976 259.445 131.119C264.679 132.787 264.554 137.374 270.621 140.168C270.691 140.217 270.775 140.244 270.861 140.244C270.947 140.244 271.03 140.217 271.101 140.168C274.061 138.604 274.583 134.788 273.874 134.392C268.995 131.744 268.307 123.654 258.674 122.299C263.157 121.173 264.929 121.903 265.075 120.798C265.236 119.832 265.162 118.841 264.861 117.908C264.56 116.976 264.04 116.129 263.344 115.44C258.865 114.494 254.227 114.593 249.792 115.731C250.313 113.334 250.668 111.561 250.668 111.561C250.668 111.061 252.919 111.416 222.791 108.768C198.438 102.846 199.981 103.055 199.856 103.597C199.856 103.701 199.126 114.147 199.481 122.07C199.731 127.428 210.093 130.618 216.599 132.078C214.89 134.485 213.781 137.266 213.367 140.189C211.791 140.073 210.21 140.073 208.634 140.189C208.748 138.526 208.985 136.874 209.343 135.247C209.51 134.392 209.572 134.121 209.343 133.934C208.613 133.35 202.567 136.998 202.65 144.359C200.357 144.359 199.543 144.129 197.667 144.004C197.346 139.722 198.525 135.461 201.003 131.953L201.149 131.744C201.193 131.691 201.225 131.629 201.246 131.563C201.266 131.497 201.272 131.428 201.266 131.359C201.259 131.29 201.239 131.224 201.206 131.163C201.173 131.102 201.129 131.048 201.076 131.004C201.022 130.96 200.961 130.927 200.895 130.907C200.829 130.887 200.759 130.881 200.691 130.887C200.622 130.894 200.555 130.914 200.494 130.947C200.433 130.979 200.379 131.024 200.336 131.077C198.693 132.943 197.489 135.153 196.811 137.545C196.133 139.937 195.998 142.45 196.416 144.901C196.44 145.047 196.509 145.182 196.614 145.286C196.719 145.391 196.854 145.46 197 145.484C197.834 145.61 198.689 145.672 199.543 145.714C199.264 148.827 198.139 151.804 196.291 154.325C196.005 153.574 195.517 152.917 194.88 152.427C194.243 151.938 193.483 151.635 192.684 151.552C184.886 150.739 186.241 168.44 195.04 166.668C195.04 171.047 195.04 173.82 194.727 178.678L191.954 180.262C190.837 177.655 189.355 175.219 187.555 173.027C187.51 172.978 187.455 172.939 187.394 172.912C187.333 172.885 187.267 172.871 187.2 172.871C187.133 172.871 187.067 172.885 187.006 172.912C186.945 172.939 186.891 172.978 186.846 173.027C186.067 176.119 185.862 179.327 186.241 182.493C184.626 182.496 183.028 182.162 181.55 181.513C180.774 176.947 180.627 172.296 181.112 167.69C181.126 167.558 181.1 167.426 181.037 167.31C180.974 167.194 180.877 167.1 180.758 167.041C180.64 166.982 180.507 166.961 180.376 166.98C180.246 166.999 180.124 167.057 180.028 167.148C177.057 169.851 174.655 173.118 172.96 176.759C171.157 176.334 169.566 175.276 168.477 173.778C171.563 165.959 176.212 164.187 176.4 155.722C176.409 155.602 176.382 155.483 176.323 155.378C176.264 155.274 176.175 155.19 176.067 155.136C175.96 155.082 175.839 155.062 175.72 155.077C175.601 155.092 175.489 155.142 175.399 155.221C172.606 157.446 169.966 159.856 167.497 162.435C166.173 161.204 165.275 159.583 164.932 157.807C170.02 154.179 173.919 150.864 174.482 144.359C174.482 144.213 174.482 143.796 174.231 143.65C173.981 143.504 173.94 143.65 170.979 145.735C169.178 146.841 167.583 148.252 166.267 149.905C164.896 148.478 164.147 146.566 164.182 144.588C169.561 140.126 174.357 139.834 175.399 132.078C175.415 131.984 175.406 131.888 175.371 131.8C175.337 131.712 175.279 131.634 175.204 131.577C175.129 131.519 175.039 131.482 174.945 131.471C174.851 131.461 174.756 131.476 174.669 131.515C171.37 132.995 168.329 134.994 165.662 137.436C164.792 136.275 164.168 134.948 163.827 133.537C174.628 128.471 176.546 121.549 183.656 119.13C184.239 118.942 184.219 118.505 183.864 118.275C182.822 117.65 175.086 117.295 168.185 121.799C167.255 120.283 166.784 118.531 166.83 116.753C179.006 112.145 183.134 112.708 190.119 113.813C187.313 120.464 185.487 127.488 184.698 134.663C185.24 135.831 188.409 135.643 188.409 135.643C188.734 129.986 189.728 124.387 191.37 118.963C190.945 123.99 190.778 129.035 190.87 134.079C192.117 134.124 193.365 134.005 194.581 133.725C194.331 125.677 194.331 111.541 198.501 100.386L221.436 105.598C221.504 105.611 221.575 105.608 221.642 105.59C221.71 105.571 221.772 105.537 221.824 105.491C221.876 105.445 221.917 105.387 221.944 105.323C221.971 105.258 221.982 105.188 221.978 105.119C221.849 103.839 222.119 102.55 222.749 101.428C223.146 100.74 224.96 101.428 175.128 90.5447C174.872 90.4972 174.608 90.5453 174.385 90.6798C174.162 90.8143 173.996 91.0259 173.919 91.2744C172.96 94.4436 174.607 94.9649 174.607 94.9649L195.144 99.6353C194.688 101.811 194.054 103.944 193.247 106.015C190.369 103.701 186.095 102.533 185.365 103.263C183.28 105.348 183.093 108.497 183.697 108.914C185.23 109.888 186.693 110.968 188.076 112.145C180.32 110.561 173.731 112.145 165.766 115.398C165.631 115.461 165.516 115.561 165.435 115.686C165.354 115.812 165.31 115.957 165.308 116.107C165.276 118.574 166.085 120.979 167.601 122.925C168.519 124.092 171.625 119.964 180.382 119.213C175.357 121.778 172.042 127.741 163.702 132.182C162.868 132.641 162.493 132.849 162.514 133.266C162.544 134.359 162.805 135.432 163.279 136.417C163.754 137.401 164.431 138.275 165.266 138.979C166.246 139.396 165.266 138.687 173.919 133.162C171.834 139.542 167.935 139.021 162.806 143.587C162.138 144.171 162.326 148.32 165.704 151.489C165.84 151.623 166.024 151.698 166.215 151.698C166.406 151.698 166.589 151.623 166.725 151.489C168.574 149.354 170.675 147.449 172.98 145.818C170.708 153.845 163.056 156.055 163.348 157.431C163.396 158.768 163.775 160.072 164.452 161.226C165.129 162.38 166.082 163.347 167.226 164.041C168.477 164.52 167.893 163.374 175.128 157.16C174.252 164.812 168.56 167.002 167.038 173.632C166.746 174.445 168.956 177.593 173.293 178.615C175.024 178.99 173.752 176.009 179.548 169.462C179.124 173.628 179.229 177.832 179.861 181.972C180.174 183.723 184.802 184.057 187.096 183.807C188.472 183.619 187.096 182.931 187.513 175.112C191.85 183.223 189.89 183.098 194.498 180.387C194.331 182.472 194.143 184.557 193.893 186.642C184.469 186.079 181.758 186.913 181.675 186.517C181.592 186.121 181.466 185.433 180.903 185.412C122.523 183.64 82.9085 236.349 73.0673 293.707C64.6439 283.24 55.9703 285.325 52.5509 292.915C25.4459 289.287 5.22136 301.755 1.11391 324.753C-1.65914 340.265 1.53091 351.858 11.5389 362.283C10.2045 377.587 13.6239 378.212 19.8789 379.38C24.3892 380.193 29.0308 379.878 33.3897 378.462C33.7872 378.377 34.144 378.16 34.4016 377.845C34.6592 377.531 34.8023 377.138 34.8075 376.732C36.7466 376.732 40.7081 376.607 42.0842 374.96C42.5083 374.198 42.6833 373.323 42.5846 372.458C49.3191 373.333 46.6086 371.373 48.1932 377.149C48.9438 379.922 49.5693 380.61 51.9045 381.319C57.263 382.799 74.8395 383.279 76.1531 377.42C78.8427 377.628 86.2236 377.879 87.7457 374.563C88.2354 372.481 88.4181 370.339 88.2878 368.204C100.214 365.306 109.013 358.384 113.746 348.146C138.015 346.875 156.155 341.537 169.186 331.842C174.523 341.183 180.403 340.411 177.526 333.155C182.217 338.243 186.158 335.24 182.28 328.11C183.332 329.159 184.704 329.826 186.179 330.007L193.163 344.393H189.848C189.264 344.393 189.202 344.769 189.16 345.165C189.146 345.38 189.146 345.596 189.16 345.811C189.112 345.8 189.062 345.8 189.014 345.811H182.759C181.175 345.978 180.007 349.064 178.589 352.629C176.212 358.884 176.191 360.698 176.15 362.762C176.021 364.329 176.239 365.905 176.787 367.378C177.334 368.852 178.199 370.187 179.319 371.29C180.716 372.687 235.447 373.521 236.552 372.124C237.95 370.598 238.888 368.707 239.257 366.671C239.626 364.634 239.411 362.534 238.637 360.615C238.637 360.49 233.383 348.105 232.382 347.229C230.876 346.513 229.208 346.204 227.545 346.332H227.211V345.603C227.186 345.37 227.077 345.155 226.904 344.998C226.731 344.841 226.507 344.752 226.273 344.748C224.188 344.748 222.708 344.644 220.998 344.748C220.164 344.748 220.289 345.77 220.247 346.27H217.808C217.808 345.915 217.808 344.956 216.807 344.936H210.552C209.781 344.936 209.885 345.874 209.843 346.082H207.758C207.758 345.957 207.758 344.727 206.757 344.706C205.757 344.685 203.964 344.706 202.921 344.706C202.933 344.526 202.933 344.345 202.921 344.164C202.754 342.746 194.018 325.608 193.268 324.19H280.4C299.415 326.754 311.862 327.901 333.546 329.027C336.09 333.677 341.532 333.426 342.283 330.299C345.994 331.446 348.537 330.445 348.537 326.629C349.384 326.768 350.253 326.642 351.025 326.269C351.797 325.896 352.436 325.293 352.853 324.544C391.801 324.544 391.009 324.899 390.988 323.835C390.967 322.772 391.926 323.043 353.124 323.043ZM245.288 132.036C247.048 127.327 248.442 122.49 249.458 117.566C253.086 115.982 258.695 116.232 262.823 116.982C263.487 117.89 263.845 118.985 263.845 120.11C260.975 120.104 258.15 120.822 255.63 122.195C255.568 122.226 255.514 122.27 255.471 122.324C255.427 122.378 255.396 122.441 255.38 122.508C255.192 123.196 256.089 123.237 256.797 123.321C267.785 124.676 267.222 132.411 273.06 135.164C272.658 136.616 271.906 137.947 270.871 139.042C265.117 135.435 265.137 130.472 258.799 129.826C258.727 129.822 258.654 129.834 258.587 129.862C258.52 129.889 258.461 129.932 258.412 129.986C258.364 130.04 258.329 130.105 258.309 130.175C258.29 130.244 258.286 130.318 258.299 130.389C259.028 139.667 270.392 137.186 271.622 149.154C270.415 149.936 269.015 150.369 267.577 150.405C267.208 148.185 266.195 146.122 264.665 144.473C263.134 142.823 261.152 141.66 258.966 141.127C258.885 141.099 258.799 141.092 258.715 141.106C258.631 141.119 258.551 141.153 258.484 141.205C258.416 141.256 258.361 141.324 258.326 141.401C258.29 141.478 258.273 141.563 258.278 141.648C258.453 143.546 259.033 145.384 259.979 147.039C260.925 148.693 262.215 150.126 263.761 151.239C267.535 154.638 269.453 157.306 269.245 165.167C268.546 165.53 267.778 165.742 266.991 165.789C266.204 165.836 265.416 165.716 264.679 165.438C265.554 157.098 259.8 150.989 259.279 152.928C257.089 161.039 262.093 163.624 263.824 171.234C262.682 172.343 261.226 173.071 259.654 173.319C258.748 169.016 257.044 164.922 254.629 161.247C254.589 161.153 254.522 161.073 254.437 161.016C254.352 160.96 254.252 160.93 254.15 160.93C254.047 160.93 253.947 160.96 253.862 161.016C253.777 161.073 253.71 161.153 253.67 161.247C251.21 169.879 254.775 171.234 257.569 179.157C256.54 180.054 255.397 180.811 254.17 181.409C252.461 176.551 247.519 171.38 248.166 174.216C248.892 177.654 249.393 181.137 249.667 184.641C248.46 185.221 247.162 185.588 245.83 185.725C246.076 182.758 245.255 179.801 243.516 177.385C243.472 177.308 243.408 177.245 243.331 177.201C243.254 177.157 243.167 177.134 243.078 177.135C241.973 177.135 243.287 179.011 240.472 184.703C239.186 184.99 237.861 185.06 236.552 184.912C241.214 177.684 244.534 169.674 246.352 161.268C249.312 146.569 245.747 140.23 238.012 134.163C240.91 134.205 244.371 133.746 245.288 132.036ZM266.243 151.552C263.824 149.112 261.03 147.382 259.591 142.545C261.372 143.36 262.916 144.615 264.079 146.19C265.242 147.766 265.987 149.61 266.243 151.552ZM263.261 165.542C261.322 161.581 259.425 159.496 260.133 154.304C262.495 157.552 263.605 161.542 263.261 165.542ZM184.573 108.1C184.845 106.847 185.41 105.675 186.22 104.681C188.556 105.127 190.772 106.057 192.725 107.412C192.058 109.143 191.328 110.957 190.64 112.854C189.246 110.6 187.095 108.915 184.573 108.1ZM73.7345 369.664C73.2341 371.853 74.1515 374.563 74.1098 376.565C73.9847 381.069 56.9502 380.839 52.2798 379.63C51.2999 379.359 50.3825 379.13 49.7361 376.773C49.4025 375.564 49.2357 374.689 49.0898 373.855C48.1515 368.725 48.2558 374.23 28.8653 367.933C28.0538 367.607 27.2072 367.376 26.3424 367.245C26.2247 367.238 26.1082 367.272 26.0134 367.342C25.9185 367.412 25.8515 367.513 25.8241 367.628C25.7966 367.743 25.8106 367.863 25.8635 367.969C25.9163 368.074 26.0047 368.158 26.1131 368.204C28.3789 369.296 30.7556 370.142 33.2021 370.727C32.9519 376.753 33.4731 376.857 32.8059 376.982C28.687 378.248 24.3216 378.491 20.0874 377.691C13.9575 376.523 11.8517 375.898 13.1444 362.053C13.3529 359.843 -1.22129 351.107 3.26146 325.065C7.03532 303.319 25.6544 291.58 51.8837 294.416C50.0086 300.947 50.398 307.921 52.9887 314.203C53.0302 314.335 53.1227 314.446 53.2459 314.511C53.369 314.575 53.5128 314.588 53.6455 314.547C53.7782 314.505 53.889 314.413 53.9535 314.29C54.018 314.166 54.031 314.023 53.9895 313.89C47.5677 291.81 60.8909 277.715 75.2148 299.691C75.3151 299.839 75.4613 299.95 75.6309 300.006C75.8005 300.063 75.984 300.062 76.1531 300.004C95.2725 293.749 98.2541 310.804 106.052 315.6C100.256 318.164 97.8996 328.818 97.4826 334.365C96.7946 343.08 99.7344 357.446 107.386 354.964C92.979 370.998 74.8187 365.077 73.7345 369.664ZM98.0456 291.143C95.2921 293.135 93.2352 295.943 92.1659 299.17C89.1722 297.454 85.7145 296.725 82.283 297.085C95.7729 283.032 106.886 286.556 99.234 305.592C97.6885 303.604 95.8867 301.831 93.8756 300.317C94.5827 297.111 96.2566 294.2 98.6711 291.977C98.7817 291.894 98.8548 291.77 98.8743 291.633C98.8939 291.496 98.8583 291.357 98.7753 291.247C98.6924 291.136 98.5689 291.063 98.432 291.044C98.2952 291.024 98.1562 291.06 98.0456 291.143ZM112.641 346.478C111.738 348.992 110.095 351.172 107.928 352.733C101.194 356.549 98.7753 342.079 99.38 334.385C99.8387 328.589 102.674 316.684 108.408 316.684C114.934 316.746 117.624 334.719 112.682 346.478H112.641ZM178.589 322.438C178.543 322.38 178.485 322.33 178.419 322.294C178.354 322.257 178.282 322.234 178.207 322.225C178.133 322.217 178.057 322.223 177.985 322.243C177.913 322.264 177.845 322.298 177.786 322.345C177.728 322.391 177.678 322.449 177.642 322.514C177.605 322.58 177.582 322.652 177.573 322.727C177.565 322.801 177.571 322.877 177.591 322.949C177.612 323.021 177.646 323.088 177.693 323.147C179.456 325.438 180.862 327.983 181.863 330.695C182.321 332.113 182.509 333.781 182.05 334.094C181.592 334.406 180.153 333.593 179.006 332.634C176.066 330.174 174.836 327.713 174.211 328.13C173.898 328.297 174.023 328.693 174.211 329.027C175.045 330.57 178.047 336.95 176.421 337.138C174.794 337.325 171.563 332.759 170.52 331.07C170.082 330.341 169.644 329.527 168.915 330.07C152.798 341.683 131.385 344.831 114.517 346.207C118.062 336.992 117.582 323.96 113.433 318.039C112.905 317.138 112.154 316.388 111.252 315.862C110.35 315.336 109.327 315.052 108.283 315.037C105.301 313.994 102.487 309.699 100.193 306.697C104.363 296.647 104.363 290.017 99.9221 287.64H99.797C93.1041 284.679 85.0143 291.038 80.0729 297.418C78.8253 297.667 77.5931 297.987 76.3824 298.377C75.7986 297.418 75.1731 296.48 74.5685 295.604C76.5103 286.476 79.0029 277.473 82.0328 268.645C93.1667 267.811 135.867 280.05 147.752 287.535C147.789 287.561 147.832 287.578 147.876 287.585C147.921 287.593 147.967 287.591 148.01 287.579C148.054 287.567 148.094 287.546 148.129 287.516C148.163 287.487 148.191 287.451 148.211 287.41C158.636 265.122 158.073 248.171 149.608 226.945C148.232 223.463 151.213 223.985 152.214 225.986C167.747 257.47 153.944 293.749 144.333 308.802C133.908 300.775 126.693 295.041 113.746 293.54C113.579 293.514 113.408 293.554 113.271 293.652C113.133 293.75 113.039 293.898 113.009 294.064C112.979 294.23 113.016 294.402 113.11 294.541C113.205 294.681 113.351 294.778 113.516 294.812C135.033 299.67 142.706 313.348 161.2 322.438C161.383 322.527 161.591 322.547 161.787 322.493C161.983 322.439 162.152 322.316 162.264 322.146C167.059 314.661 173.752 310.783 180.758 311.388C180.129 311.752 179.56 312.209 179.069 312.743C177.943 313.952 178.568 314.703 179.486 316.329C179.39 316.427 179.337 316.558 179.337 316.694C179.337 316.831 179.39 316.962 179.486 317.059C187.951 323.418 190.849 335.887 178.589 322.438ZM235.385 370.81C231.423 370.81 188.514 370.56 180.424 369.935C179.484 368.796 178.78 367.481 178.354 366.067C177.928 364.653 177.788 363.168 177.943 361.699C197.665 363.37 217.482 363.621 237.24 362.45C237.561 363.894 237.562 365.391 237.241 366.836C236.921 368.281 236.287 369.637 235.385 370.81ZM202.671 350.44V350.315C204.275 350.399 205.883 350.399 207.487 350.315C208.634 350.19 208.092 348.689 207.988 347.542H209.802C209.802 348.751 209.176 350.377 210.427 350.523C212.77 350.774 215.132 350.774 217.474 350.523C218.705 350.398 218.016 348.73 217.975 347.563H220.206C220.206 348.543 219.58 350.19 220.852 350.357C222.874 350.596 224.918 350.596 226.94 350.357C227.545 350.357 227.67 349.835 227.649 349.314C227.649 349.314 227.649 348.584 227.524 347.875C228.86 347.805 230.198 347.953 231.486 348.313C231.819 348.793 236.01 358.613 236.948 361.24C222.812 361.24 189.452 360.719 178.089 360.49C178.589 358.029 181.988 347.667 182.947 347.271H188.889C188.93 347.282 188.973 347.282 189.014 347.271C189.014 348 189.014 348.668 188.889 348.772C188.889 349.46 188.889 350.023 189.702 350.106C192.799 350.308 195.905 350.308 199.001 350.106C200.106 350.628 200.586 350.815 200.753 350.878C201.649 351.357 202.296 351.17 202.671 350.44ZM201.232 343.372C201.592 345.441 201.592 347.557 201.232 349.627C200.023 349.147 196.416 347.208 196.187 347.104C195.957 347 195.207 345.332 187.471 329.59C187.712 329.37 187.904 329.103 188.037 328.805C188.17 328.507 188.24 328.185 188.243 327.859C188.389 325.378 186.033 320.875 181.258 316.997C179.798 313.932 178.485 313.64 182.509 312.034C184.948 311.054 184.928 311.721 185.407 312.597C189.515 319.916 195.061 329.986 201.191 343.372H201.232ZM190.432 318.685L187.367 313.056C193.017 314.578 196.395 316.725 196.812 318.122C197.229 319.519 192.246 318.831 190.432 318.685ZM333.108 327.463C289.615 324.294 247.373 317.997 232.862 315.308C254.879 296.272 286.404 271.648 301.667 256.031C334.276 263.516 367.469 267.749 395.221 267.936C392.406 275.192 365.301 304.09 354.501 315.12C351.415 313.577 345.097 315.412 345.764 318.706C342.387 318.581 341.24 319.749 340.844 320.478C340.654 320.827 340.555 321.218 340.555 321.615C340.555 322.012 340.654 322.402 340.844 322.751C338.884 322.751 337.049 323.377 337.007 325.295C334.38 324.398 332.963 325.691 333.108 327.359V327.463ZM334.776 328.089C333.859 326.296 335.465 326.129 337.404 326.921C338.277 328.249 339.557 329.259 341.052 329.798C340.531 332.113 336.111 330.737 334.776 327.984V328.089ZM346.39 328.631C344.639 330.049 338.05 327.338 338.529 325.253C338.634 324.607 339.635 324.023 342.074 324.273C343.567 325.345 345.286 326.058 347.099 326.358C347.141 326.749 347.1 327.145 346.978 327.519C346.855 327.893 346.655 328.236 346.39 328.527V328.631ZM351.561 323.669C351.227 324.753 350.164 325.128 348.225 324.836C341.97 323.877 339.363 319.936 346.765 320.374C347.992 321.199 349.462 321.581 350.935 321.458C351.225 321.716 351.437 322.05 351.548 322.422C351.658 322.794 351.663 323.19 351.561 323.564V323.669ZM347.683 319.082C345.598 316.997 353.041 315.245 354.25 316.997C354.382 317.244 354.451 317.519 354.451 317.799C354.451 318.079 354.382 318.355 354.25 318.602C353.396 320.291 348.85 320.166 347.683 318.977V319.082Z" fill="#48BA86"/>
</svg>
