<svg width="398" height="398" viewBox="0 0 398 398" fill="none" xmlns="http://www.w3.org/2000/svg">
<path d="M191.379 188.333C192.107 188.555 192.892 188.495 193.577 188.164C194.263 187.833 194.798 187.256 195.077 186.548C195.356 185.839 195.357 185.052 195.081 184.343C194.805 183.634 194.272 183.054 193.588 182.721C192.972 182.479 192.307 182.388 191.649 182.458C190.991 182.527 190.359 182.754 189.807 183.119C189.388 183.504 189.087 183.998 188.937 184.547C188.787 185.095 188.794 185.674 188.958 186.219C189.122 186.763 189.437 187.25 189.865 187.624C190.293 187.998 190.818 188.243 191.379 188.333ZM190.245 185.268C190.245 183.596 193.568 183.397 193.886 185.268C194.503 187.875 190.145 187.716 190.245 185.268ZM189.051 60.9726C185.986 64.5745 186.722 69.2112 191.538 71.4798C192.628 71.1988 193.74 71.0124 194.861 70.9226C196.14 71.0065 197.411 71.1861 198.662 71.4599C199.99 70.662 201.022 69.4541 201.604 68.0184C202.185 66.5827 202.284 64.9969 201.886 63.4999C201.516 62.1981 200.792 61.024 199.796 60.1074C198.8 59.1908 197.57 58.5673 196.242 58.3058C194.914 58.0443 193.54 58.155 192.271 58.6256C191.002 59.0962 189.887 59.9085 189.051 60.9726ZM187.936 95.519C187.913 95.4016 187.85 95.296 187.757 95.22C187.665 95.1441 187.549 95.1026 187.429 95.1026C187.309 95.1026 187.193 95.1441 187.101 95.22C187.008 95.296 186.945 95.4016 186.921 95.519C186.774 96.6278 186.687 97.7439 186.663 98.8622C186.715 99.0215 186.816 99.1601 186.952 99.2584C187.088 99.3567 187.251 99.4097 187.419 99.4097C187.587 99.4097 187.75 99.3567 187.886 99.2584C188.021 99.1601 188.123 99.0215 188.175 98.8622C188.275 98.5239 187.936 95.8573 187.936 95.519ZM203.637 95.8772C203.614 95.7598 203.551 95.6542 203.458 95.5782C203.366 95.5023 203.25 95.4608 203.13 95.4608C203.01 95.4608 202.894 95.5023 202.802 95.5782C202.709 95.6542 202.646 95.7598 202.622 95.8772C202.622 96.1558 202.284 98.8423 202.384 99.2204C202.436 99.3797 202.537 99.5183 202.673 99.6166C202.809 99.7149 202.972 99.7679 203.14 99.7679C203.308 99.7679 203.471 99.7149 203.607 99.6166C203.742 99.5183 203.844 99.3797 203.896 99.2204C203.996 98.8423 203.637 96.1757 203.637 95.8772ZM188.076 88.9719C185.688 88.7729 184.593 92.4743 184.553 92.6335C184.519 92.747 184.531 92.8694 184.587 92.9739C184.643 93.0784 184.738 93.1564 184.852 93.1907C184.965 93.225 185.088 93.2128 185.192 93.1569C185.297 93.1009 185.375 93.0057 185.409 92.8922C185.528 92.5937 186.802 90.4246 188.295 90.5042C189.051 90.5639 189.429 89.0714 188.076 88.9719ZM204.234 93.1708C204.198 92.4695 203.947 91.7963 203.517 91.2414C203.086 90.6865 202.497 90.2765 201.826 90.0664C201.626 90.0136 201.413 90.0427 201.233 90.1472C201.054 90.2517 200.924 90.4231 200.871 90.6236C200.819 90.8242 200.848 91.0375 200.952 91.2166C201.057 91.3958 201.228 91.526 201.428 91.5788C201.918 91.7527 202.356 92.0457 202.703 92.4314C203.051 92.817 203.296 93.2832 203.419 93.7877C203.45 93.8959 203.524 93.9871 203.622 94.0412C203.721 94.0953 203.838 94.1079 203.946 94.0763C204.054 94.0446 204.145 93.9713 204.199 93.8724C204.253 93.7735 204.266 93.6571 204.234 93.5489C204.234 93.5489 204.274 93.33 204.234 93.1708ZM195.021 103.738C195.1 103.712 195.17 103.661 195.219 103.593C195.268 103.525 195.294 103.443 195.294 103.36C195.294 103.276 195.268 103.194 195.219 103.126C195.17 103.058 195.1 103.008 195.021 102.982C194.105 102.802 193.031 102.743 193.031 101.847C193.136 100.73 193.309 99.6202 193.548 98.5239C193.559 98.425 193.535 98.3254 193.479 98.243C193.423 98.1606 193.34 98.1008 193.244 98.0744C193.148 98.048 193.045 98.0568 192.955 98.099C192.865 98.1413 192.793 98.2144 192.752 98.305C192.257 99.5881 191.91 100.923 191.717 102.285C191.757 103.479 193.031 104.375 195.021 103.738ZM197.508 106.345C197.07 106.819 196.532 107.19 195.934 107.431C195.335 107.671 194.69 107.776 194.046 107.738C193.604 107.664 193.183 107.498 192.809 107.251C192.436 107.004 192.118 106.682 191.876 106.305C191.821 106.202 191.727 106.125 191.615 106.092C191.503 106.058 191.382 106.07 191.28 106.126C191.177 106.181 191.1 106.275 191.066 106.387C191.033 106.499 191.045 106.62 191.1 106.723C191.419 107.413 191.917 108.004 192.544 108.434C193.17 108.864 193.901 109.117 194.66 109.166C195.418 109.214 196.175 109.058 196.852 108.712C197.528 108.366 198.099 107.844 198.503 107.2C198.762 106.544 198.046 105.867 197.508 106.345ZM197.289 224.59C197.339 224.625 197.398 224.643 197.458 224.643C197.519 224.643 197.578 224.625 197.628 224.59C199.757 223.257 215.776 210.521 217.09 209.387C217.134 209.346 217.164 209.294 217.178 209.235C217.191 209.177 217.187 209.116 217.165 209.061C217.144 209.005 217.106 208.957 217.057 208.923C217.009 208.889 216.95 208.87 216.891 208.869C216.891 208.869 184.056 208.233 178.265 208.034C177.927 208.034 177.867 208.392 178.046 208.551C179.101 209.586 191.817 220.392 197.289 224.59ZM266.462 377.88C267.954 374.835 265.168 369.721 263.914 367.652C263.89 367.601 263.852 367.559 263.804 367.529C263.757 367.499 263.702 367.483 263.646 367.483C263.59 367.483 263.535 367.499 263.487 367.529C263.44 367.559 263.402 367.601 263.377 367.652C262.362 369.642 260.233 374.855 262.263 377.86C263.636 380.089 265.387 380.248 266.462 377.88ZM145.271 356.488C145.072 356.607 130.505 364.985 129.948 365.841C129.391 366.696 129.41 367.333 130.167 367.393C136.137 367.771 138.425 368.268 138.664 368.547C139.042 369.88 139.46 375.293 140.256 376.368C140.341 376.5 140.462 376.605 140.605 376.671C140.748 376.736 140.907 376.758 141.063 376.735C141.219 376.712 141.364 376.644 141.482 376.54C141.6 376.436 141.686 376.3 141.729 376.149C142.564 373.005 145.191 363.214 145.709 361.602C146.226 359.99 147.101 355.831 145.271 356.488ZM144.992 358.358C144.793 359.672 143.838 363.473 141.012 373.184C140.778 371.158 140.352 369.159 139.739 367.214C137.357 366.502 134.898 366.081 132.415 365.96C136.515 363.413 140.813 360.965 144.932 358.358H144.992ZM155.559 364.706C155.723 364.691 155.876 364.62 155.993 364.505C156.111 364.39 156.185 364.238 156.204 364.074C156.222 363.911 156.184 363.746 156.096 363.608C156.008 363.469 155.874 363.365 155.718 363.313C154.982 363.098 154.216 363.004 153.45 363.035V360.149C153.45 360.012 153.395 359.88 153.298 359.783C153.201 359.686 153.069 359.632 152.932 359.632C152.795 359.632 152.663 359.686 152.566 359.783C152.469 359.88 152.415 360.012 152.415 360.149C152.415 361.184 152.236 362.139 152.156 363.114C151.221 363.114 150.285 363.293 149.31 363.433C148.335 363.572 148.753 364.686 149.47 364.627C150.311 364.577 151.155 364.577 151.997 364.627C151.997 365.502 151.818 366.438 151.778 367.333C151.809 367.54 151.914 367.729 152.073 367.866C152.232 368.002 152.434 368.077 152.644 368.077C152.853 368.077 153.056 368.002 153.214 367.866C153.373 367.729 153.478 367.54 153.509 367.333V364.686C154.191 364.737 154.876 364.744 155.559 364.706ZM203.498 353.821C203.328 353.32 203.011 352.881 202.589 352.562C202.167 352.243 201.659 352.058 201.13 352.03C199.299 352.03 197.588 354.279 196.135 356.368H195.996C194.583 355.373 194.145 355.373 192.832 356.766C191.081 358.657 191.817 358.995 194.085 360.746C192.553 362.876 188.692 368.368 188.115 369.363C187.538 370.358 185.847 373.164 187.717 374.716C188.101 374.991 188.566 375.13 189.038 375.112C189.51 375.094 189.962 374.92 190.324 374.617C193.215 371.112 195.874 367.423 198.284 363.572C200.274 364.766 200.433 365.005 201.986 363.731C202.211 363.584 202.4 363.388 202.538 363.156C202.676 362.925 202.759 362.666 202.782 362.398C202.782 361.423 201.608 360.746 200.792 360.09C201.488 359.075 202.105 358.1 202.662 357.085C203.032 356.635 203.298 356.109 203.443 355.546C203.587 354.982 203.606 354.393 203.498 353.821ZM197.21 357.105C197.869 356.213 198.573 355.357 199.319 354.537C200.294 353.483 201.011 353.224 201.667 353.682C202.782 354.418 202.165 355.075 199.876 359.234L197.21 357.105ZM188.752 373.701C187.618 373.442 188.354 371.711 188.891 370.676C189.429 369.642 193.468 363.791 195.021 361.423C195.638 361.861 196.672 362.537 197.17 362.836C195.817 365.144 191.976 370.796 191.2 371.671C190.424 372.547 189.707 373.92 188.752 373.701ZM194.424 356.826L194.742 356.945C195.061 357.065 201.548 362.358 201.548 362.478C201.258 362.907 200.878 363.267 200.434 363.532C199.677 362.935 194.981 359.751 193.23 358.378C193.594 357.836 193.993 357.318 194.424 356.826ZM238.323 366.756C238.323 366.756 247.358 376.447 248.154 376.706C249.487 377.064 256.691 368.746 257.646 367.632C258.581 368.428 259.059 368.567 260.114 367.512C260.766 366.83 261.31 366.051 261.725 365.204C261.795 365.073 261.821 364.923 261.799 364.776C261.778 364.63 261.71 364.493 261.606 364.388C251.477 354.12 249.666 352.209 249.248 352.05C247.935 351.493 247.258 353.105 246.482 353.682C245.407 354.717 244.83 355.035 246.601 357.025C238.522 365.781 237.885 365.721 238.323 366.756ZM246.84 355.075C247.37 354.463 247.964 353.909 248.611 353.423C248.611 353.423 254.581 359.393 260.233 364.965C259.872 365.639 259.431 366.267 258.92 366.836C258.701 366.617 247.159 355.413 246.761 355.075H246.84ZM256.79 366.716C248.114 375.91 248.99 375.552 248.074 374.676C247.537 374.219 240.87 367.353 239.855 366.179C240.572 365.383 247.179 358.219 247.616 357.821C247.517 357.901 255.357 365.482 256.711 366.716H256.79Z" fill="#48BA86"/>
<path d="M246.283 362.518C244.293 364.628 242.741 365.245 242.96 366.379C243.932 367.819 245.053 369.153 246.303 370.359C246.38 370.421 246.475 370.456 246.573 370.457C246.672 370.459 246.768 370.427 246.846 370.368C246.924 370.308 246.98 370.223 247.004 370.128C247.029 370.032 247.02 369.932 246.98 369.842C246.98 369.842 245.408 367.155 244.731 366.26C244.89 366.061 246.582 363.792 247.04 363.275C247.14 363.174 247.196 363.038 247.196 362.897C247.196 362.755 247.14 362.619 247.04 362.518C246.939 362.418 246.803 362.362 246.661 362.362C246.52 362.362 246.384 362.418 246.283 362.518Z" fill="#48BA86"/>
<path d="M275.656 386.935L226.861 386.616C226.861 383.214 225.767 354.956 225.687 352.548C225.687 351.811 224.513 351.811 224.553 352.548C224.553 354.538 225.269 384.746 225.369 386.597H172.256C172.256 383.373 171.738 358.08 171.699 356.349C171.699 356.206 171.642 356.069 171.541 355.969C171.44 355.868 171.304 355.811 171.161 355.811C171.019 355.811 170.882 355.868 170.781 355.969C170.681 356.069 170.624 356.206 170.624 356.349V386.597C166.485 386.597 122.864 386.597 116.894 387.034C116.767 387.059 116.652 387.127 116.569 387.227C116.487 387.327 116.442 387.452 116.442 387.582C116.442 387.711 116.487 387.837 116.569 387.937C116.652 388.036 116.767 388.104 116.894 388.129C122.207 388.368 270.88 388.646 275.756 387.512C275.82 387.487 275.874 387.441 275.908 387.381C275.942 387.321 275.955 387.251 275.943 387.183C275.931 387.114 275.896 387.053 275.844 387.007C275.792 386.962 275.725 386.937 275.656 386.935ZM132.535 27.8592C132.993 28.6552 137.65 28.9139 138.068 28.7547C138.342 28.6584 138.579 28.4772 138.744 28.2373C140.323 29.5539 141.977 30.7766 143.699 31.8989C143.945 32.0975 144.229 32.2425 144.534 32.3247C144.839 32.407 145.158 32.4246 145.47 32.3765C146.306 32.1377 162.007 22.7847 162.246 22.6255C163.281 21.9887 163.301 21.3519 163.162 20.934C162.863 20.1181 146.824 12.5959 144.257 9.79004C144.182 9.73619 144.098 9.69759 144.008 9.67644C143.919 9.65529 143.826 9.65202 143.736 9.66682C143.645 9.68161 143.558 9.71418 143.48 9.76265C143.402 9.81112 143.335 9.87453 143.281 9.94924C141.291 12.2377 139.52 14.5859 137.709 16.9142C135.886 16.8581 134.064 17.059 132.297 17.5112C132.102 20.9614 132.181 24.4217 132.535 27.8592ZM146.207 21.8892C146.004 22.445 145.618 22.9152 145.112 23.2225C144.117 23.5608 143.122 22.6255 142.784 22.2076C141.689 20.934 144.177 18.2276 145.829 20.3569C146.035 20.5724 146.179 20.8398 146.246 21.1306C146.312 21.4214 146.299 21.7248 146.207 22.0086V21.8892ZM144.774 18.2077C144.178 18.1031 143.565 18.166 143.004 18.3894C142.442 18.6128 141.953 18.9879 141.592 19.4729C141.23 19.9579 141.011 20.5337 140.958 21.136C140.905 21.7384 141.021 22.3436 141.291 22.8842C141.698 23.5526 142.292 24.0865 143 24.4192C143.707 24.7518 144.498 24.8686 145.271 24.7548C145.806 24.5599 146.281 24.2303 146.65 23.798C147.02 23.3657 147.271 22.8453 147.381 22.2872C149.57 22.2872 157.092 22.2872 160.097 22.1479L145.271 30.7845C144.436 30.4263 139.54 26.8045 138.943 26.3269C138.943 25.2324 138.943 18.6853 138.804 17.6306C140.476 15.6406 142.187 13.5113 143.819 11.382C146.247 13.372 157.45 19.342 160.734 21.0733H147.441C147.354 20.3884 147.047 19.7501 146.566 19.2548C146.085 18.7595 145.456 18.4339 144.774 18.3271V18.2077ZM133.63 18.5659L137.311 18.4266C137.311 19.0435 137.55 26.3866 137.451 27.4214C136.194 27.5043 134.932 27.4442 133.69 27.2423C133.809 25.8692 133.71 20.2375 133.63 18.6853V18.5659ZM71.323 123.18C71.5318 123.301 71.7685 123.364 72.0096 123.364C72.2506 123.364 72.4874 123.301 72.6961 123.18C74.2682 122.404 77.3925 119.678 86.5067 113.648C86.7742 113.503 87.0048 113.298 87.1807 113.05C87.3567 112.801 87.4733 112.516 87.5216 112.215C87.5216 112.215 87.8599 103.718 87.3823 103.439C85.85 102.484 81.4123 99.4594 80.1387 99.6584C79.9795 99.6584 63.1839 110.126 63.1441 110.623C62.9778 112.795 62.9446 114.975 63.0446 117.151C65.6697 119.339 68.4351 121.353 71.323 123.18ZM64.2585 111.996C65.7908 113.031 70.0693 115.976 71.2434 116.573V121.111C63.8008 116.136 64.2784 116.971 64.3381 115.499C64.358 114.683 64.2983 112.773 64.2585 111.996ZM72.0593 114.922C71.9326 115.015 71.7791 115.066 71.6215 115.066C71.4639 115.066 71.3104 115.015 71.1837 114.922C70.8653 114.723 66.4077 111.539 65.2137 110.683C80.8551 100.733 80.2979 100.614 81.1337 100.912C81.5317 101.071 83.4023 102.265 85.9296 103.937C82.9446 106.484 72.3578 114.723 72.0593 114.922ZM85.9893 112.275C85.5714 112.673 74.8055 119.817 72.4175 121.369V116.394C73.8304 115.32 83.1635 107.997 86.0689 105.509C86.1485 112.076 86.2679 112.076 86.0888 112.275H85.9893ZM291.895 124.394C295.611 124.307 299.227 123.169 302.322 121.111C303.866 120.138 305.029 118.664 305.616 116.936C306.203 115.208 306.178 113.33 305.546 111.618C306.859 110.623 311.058 107.061 311.874 106.285C313.566 106.385 315.536 103.38 316.591 101.748C317.028 101.071 317.605 100.375 317.307 99.5987C314.62 96.7554 311.777 94.0647 308.79 91.5392C308.59 91.328 308.331 91.1825 308.046 91.1221C307.762 91.0617 307.466 91.0892 307.198 91.201C305.216 93.1224 303.43 95.2355 301.865 97.5092C301.796 97.8039 301.831 98.1131 301.964 98.3848C301.964 98.5241 299.198 106.544 298.86 107.519C297.37 107.669 295.987 108.359 294.972 109.459C293.957 110.559 293.379 111.992 293.347 113.489C293.109 119.3 297.705 121.17 291.716 123.32C291.632 123.391 291.569 123.482 291.532 123.585C291.494 123.688 291.484 123.799 291.502 123.907C291.52 124.015 291.566 124.117 291.635 124.202C291.703 124.287 291.793 124.354 291.895 124.394ZM303.397 97.8674C304.69 95.9681 306.214 94.2368 307.934 92.7133C309.009 93.569 315.217 99.3002 315.894 100.236C315.397 101.091 312.611 104.713 311.914 104.793C311.854 104.733 303.656 98.1062 303.397 97.8674ZM304.83 110.325C303.815 108.838 302.257 107.809 300.491 107.459C300.889 106.126 302.342 101.25 302.84 99.2803C304.352 100.574 308.093 103.718 310.382 105.529C309.486 106.424 306.103 109.31 304.83 110.325ZM295.079 122.822C296.631 121.409 296.253 119.558 295.536 117.787C294.263 113.807 294.641 111.24 296.77 109.827C297.32 109.479 297.933 109.243 298.575 109.135C299.217 109.026 299.874 109.046 300.507 109.195C301.141 109.343 301.739 109.616 302.266 109.998C302.793 110.38 303.238 110.863 303.576 111.419C306.72 116.374 300.83 121.688 295.079 122.822ZM167.48 21.8892C168.296 21.8892 173.072 21.2723 177.43 20.8146C177.583 20.8146 177.73 20.7538 177.838 20.6456C177.946 20.5374 178.007 20.3906 178.007 20.2375C178.007 20.0845 177.946 19.9377 177.838 19.8295C177.73 19.7212 177.583 19.6604 177.43 19.6604C175.798 19.8196 168.137 20.2773 167.301 20.4564C167.139 20.5103 167.001 20.6184 166.911 20.7624C166.82 20.9064 166.782 21.0774 166.803 21.2462C166.824 21.4151 166.903 21.5715 167.027 21.6887C167.15 21.8059 167.31 21.8768 167.48 21.8892ZM183.081 20.6156C183.619 20.6156 194.186 19.74 196.514 19.8594C197.29 19.8594 197.35 18.7251 196.514 18.6654C191.966 18.4437 187.407 18.5901 182.882 19.1032C182.71 19.1596 182.564 19.2743 182.467 19.4274C182.371 19.5806 182.331 19.7626 182.355 19.942C182.378 20.1214 182.464 20.2869 182.597 20.4099C182.729 20.5329 182.901 20.6057 183.081 20.6156ZM202.504 19.4813L211.081 19.2425C211.223 19.2167 211.351 19.1418 211.444 19.0309C211.537 18.92 211.587 18.7801 211.587 18.6356C211.587 18.4911 211.537 18.3512 211.444 18.2403C211.351 18.1294 211.223 18.0545 211.081 18.0286L202.544 17.7898C202.341 17.8158 202.154 17.9137 202.017 18.0657C201.88 18.2178 201.802 18.4139 201.797 18.6185C201.792 18.8231 201.861 19.0227 201.99 19.181C202.12 19.3393 202.302 19.4458 202.504 19.4813ZM217.906 19.7599C221.568 19.7599 234.782 20.3768 238.005 20.934C238.801 21.0932 239.08 19.8594 238.284 19.7201C231.533 18.6936 224.715 18.1747 217.887 18.1679C217.675 18.1706 217.474 18.257 217.327 18.4081C217.179 18.5593 217.098 18.7628 217.1 18.9739C217.103 19.185 217.189 19.3864 217.341 19.5338C217.492 19.6812 217.695 19.7626 217.906 19.7599ZM244.433 23.2026C249.701 24.7608 254.569 27.4426 258.701 31.0631C259.338 31.6402 260.234 30.7049 259.617 30.1278C255.443 26.1292 250.363 23.2002 244.811 21.5907C244.61 21.5722 244.41 21.6269 244.246 21.7448C244.082 21.8626 243.967 22.0357 243.921 22.2321C243.875 22.4285 243.901 22.6349 243.995 22.8133C244.089 22.9917 244.245 23.13 244.433 23.2026ZM262.084 49.7492C261.919 49.7895 261.775 49.8887 261.678 50.028C261.581 50.1674 261.538 50.3374 261.558 50.5061C261.577 50.6748 261.658 50.8305 261.784 50.944C261.91 51.0574 262.074 51.1209 262.244 51.1223C264.87 51.1223 267.955 48.0577 268.214 43.819C268.472 39.5803 265.567 36.1774 262.781 33.3317C262.662 33.2104 262.5 33.1411 262.33 33.1392C262.16 33.1374 261.997 33.203 261.875 33.3218C261.754 33.4405 261.685 33.6027 261.683 33.7725C261.681 33.9423 261.747 34.1059 261.866 34.2272C265.01 37.4908 266.542 40.4758 266.562 43.3812C266.615 44.7863 266.206 46.17 265.397 47.3202C264.588 48.4703 263.425 49.3236 262.084 49.7492ZM240.374 56.2167C242.364 56.2167 255.478 53.2118 257.647 52.6944C257.799 52.6443 257.926 52.5389 258.004 52.3991C258.081 52.2593 258.104 52.0954 258.066 51.94C258.029 51.7845 257.934 51.6489 257.801 51.5601C257.668 51.4713 257.506 51.4358 257.348 51.4606C254.383 52.1372 243.916 53.968 240.234 54.6048C240.041 54.6474 239.87 54.7589 239.752 54.9184C239.635 55.0779 239.58 55.2746 239.597 55.4719C239.614 55.6691 239.702 55.8535 239.845 55.9905C239.988 56.1276 240.176 56.208 240.374 56.2167ZM234.981 54.9033C230.742 55.361 226.304 55.759 222.026 56.3958C221.846 56.4497 221.69 56.5639 221.585 56.7193C221.479 56.8746 221.431 57.0616 221.447 57.2486C221.463 57.4356 221.544 57.6113 221.674 57.7459C221.805 57.8806 221.979 57.966 222.165 57.9878C223.379 57.9878 233.09 56.7142 235.04 56.4754C236.055 56.3361 235.996 54.764 234.981 54.9033ZM204.971 59.9977C206.126 59.9977 214.086 58.7042 215.936 58.4455C216.092 58.4064 216.227 58.312 216.318 58.18C216.408 58.0479 216.447 57.8874 216.428 57.7285C216.408 57.5697 216.331 57.4234 216.211 57.3173C216.092 57.2111 215.937 57.1523 215.777 57.152C213.349 57.4306 207.2 57.9679 204.812 58.3858C204.618 58.4293 204.446 58.5425 204.329 58.7039C204.212 58.8654 204.159 59.064 204.178 59.2623C204.198 59.4605 204.289 59.6448 204.436 59.7803C204.582 59.9158 204.772 59.9931 204.971 59.9977ZM171.758 62.8633C176.017 62.8633 180.375 62.1071 184.594 61.7091C185.469 61.7091 185.469 60.2564 184.594 60.336C180.355 60.6743 175.917 60.8534 171.639 61.4504C170.783 61.5499 170.883 62.8633 171.758 62.8633ZM150.784 64.6941C150.609 64.7355 150.455 64.8394 150.352 64.9861C150.248 65.1328 150.202 65.3123 150.222 65.4908C150.241 65.6693 150.325 65.8345 150.458 65.9554C150.591 66.0762 150.763 66.1443 150.943 66.1468C152.296 66.1468 163.221 64.5349 164.873 64.316C165.047 64.2751 165.199 64.1706 165.3 64.0231C165.401 63.8756 165.443 63.6957 165.418 63.5188C165.393 63.3418 165.303 63.1806 165.165 63.0667C165.028 62.9528 164.852 62.8944 164.674 62.9031C162.067 63.2215 152.993 64.2364 150.784 64.6941ZM120.476 70.3855C128.199 68.765 136.005 67.5692 143.859 66.8035C144.893 66.8035 144.854 65.112 143.859 65.2115C135.907 65.6853 128.018 66.9113 120.297 68.8731C120.126 68.9284 119.979 69.0413 119.882 69.1927C119.785 69.344 119.743 69.5244 119.765 69.703C119.786 69.8816 119.868 70.0472 119.998 70.1717C120.128 70.2962 120.297 70.3718 120.476 70.3855ZM93.8498 80.6539C99.1565 77.4745 104.953 75.195 111.004 73.9078C112.058 73.6889 111.64 72.0969 110.606 72.3158C104.374 73.553 98.4032 75.8553 92.9543 79.1216C92.7836 79.2551 92.6671 79.4459 92.6263 79.6587C92.5856 79.8715 92.6234 80.0919 92.7327 80.279C92.842 80.466 93.0155 80.6071 93.2209 80.6761C93.4263 80.745 93.6498 80.7372 93.8498 80.6539ZM77.0343 96.6535C79.2308 90.7378 83.4641 85.7989 88.9743 82.7235C89.7106 82.3255 89.0937 81.231 88.3375 81.6091C82.3381 84.5914 77.7297 89.7848 75.4821 96.0964C75.104 97.2107 76.6562 97.6485 77.0343 96.6535ZM81.3725 120.454C80.7755 119.777 79.8203 120.713 80.3775 121.369C81.7705 122.981 89.1136 128.633 90.6061 128.633C90.7627 128.632 90.9146 128.579 91.0384 128.483C91.1623 128.387 91.2514 128.254 91.292 128.102C91.3326 127.951 91.3226 127.791 91.2634 127.646C91.2042 127.501 91.0992 127.379 90.9643 127.3C87.5888 125.278 84.3812 122.989 81.3725 120.454ZM109.113 133.21C104.621 132.766 100.225 131.632 96.0786 129.847C95.1632 129.449 94.407 130.802 95.3423 131.24C99.6508 133.281 104.299 134.509 109.053 134.862C110.148 134.921 110.148 133.329 109.113 133.21ZM113.431 135.936C115.74 136.274 125.153 137.807 127.541 137.926C127.738 137.932 127.931 137.864 128.082 137.735C128.232 137.607 128.329 137.427 128.354 137.23C128.379 137.034 128.33 136.836 128.216 136.674C128.102 136.512 127.933 136.398 127.74 136.354C125.451 135.876 116.118 134.762 113.81 134.364C112.874 134.344 112.496 135.777 113.431 135.936ZM144.097 138.364C140.237 138.707 136.346 138.384 132.595 137.409C132.439 137.391 132.282 137.43 132.152 137.518C132.022 137.607 131.928 137.738 131.887 137.89C131.846 138.042 131.861 138.203 131.929 138.345C131.997 138.487 132.113 138.599 132.257 138.662C136.13 139.791 140.176 140.202 144.197 139.876C145.092 139.777 145.072 138.304 144.097 138.364ZM276.353 128.593C280.5 128.139 284.589 127.252 288.551 125.946C289.387 125.668 289.029 124.354 288.173 124.613C284.308 125.737 280.342 126.483 276.333 126.842C275.179 126.961 275.199 128.693 276.353 128.593ZM257.886 130.105C257.725 130.157 257.587 130.261 257.495 130.402C257.402 130.542 257.36 130.711 257.377 130.878C257.393 131.046 257.466 131.203 257.584 131.323C257.702 131.443 257.858 131.519 258.025 131.538C259.478 131.538 269.408 129.787 271.099 129.548C272.074 129.369 271.696 127.956 270.761 128.096C265.627 128.832 261.806 129.349 257.886 130.105ZM252.731 130.722C247.776 131.598 242.781 132.115 238.045 132.573C237.01 132.692 237.05 134.284 238.045 134.205C243.058 133.801 248.046 133.137 252.99 132.215C253.088 132.198 253.182 132.162 253.266 132.109C253.35 132.055 253.423 131.986 253.48 131.905C253.537 131.824 253.578 131.732 253.6 131.635C253.622 131.538 253.624 131.437 253.607 131.339C253.59 131.241 253.554 131.148 253.501 131.064C253.448 130.979 253.378 130.907 253.297 130.849C253.216 130.792 253.124 130.751 253.027 130.73C252.93 130.708 252.829 130.705 252.731 130.722ZM107.342 201.646C108.218 201.646 108.257 200.412 107.342 200.293C103.305 199.691 99.2005 199.691 95.1632 200.293C94.972 200.335 94.8038 200.448 94.6922 200.609C94.5807 200.769 94.5341 200.967 94.5618 201.16C94.5895 201.354 94.6894 201.53 94.8415 201.654C94.9937 201.777 95.1868 201.838 95.3821 201.825C99.3555 201.41 103.358 201.35 107.342 201.646ZM284.034 200.591C283.869 200.643 283.727 200.75 283.631 200.894C283.535 201.039 283.492 201.212 283.508 201.384C283.524 201.556 283.599 201.718 283.72 201.842C283.841 201.965 284.001 202.044 284.173 202.064C284.372 202.064 294.86 201.765 297.387 202.064C298.064 202.163 298.283 201.129 297.606 201.029C293.102 200.503 288.562 200.357 284.034 200.591ZM278.601 202.163C278.76 202.163 278.912 202.1 279.024 201.988C279.136 201.877 279.198 201.725 279.198 201.566C279.198 201.408 279.136 201.256 279.024 201.144C278.912 201.032 278.76 200.969 278.601 200.969C275.668 200.779 272.723 200.987 269.845 201.586C268.99 201.765 269.229 203.019 270.044 203.019C272.851 202.386 275.725 202.099 278.601 202.163ZM323.894 226.859C323.735 227.655 324.889 228.153 325.227 227.377C326.939 223.516 327.794 217.606 325.645 213.447C325.227 212.651 324.033 213.327 324.431 214.123C326.839 218.899 324.531 223.775 323.894 226.859ZM83.5814 286.559C80.7816 288.885 78.4398 291.713 76.6761 294.897C76.6369 294.963 76.611 295.035 76.5998 295.11C76.5885 295.186 76.5923 295.263 76.6108 295.337C76.6481 295.486 76.7432 295.614 76.8751 295.693C77.0071 295.773 77.1651 295.796 77.3143 295.759C77.4636 295.721 77.5919 295.626 77.6711 295.494C79.4919 292.494 81.8219 289.834 84.5565 287.634C85.3525 287.057 84.3774 286.022 83.5814 286.559ZM96.8746 274.878C94.1479 276.918 91.5555 279.131 89.1136 281.505C88.9949 281.626 88.9292 281.79 88.9311 281.959C88.9329 282.129 89.0022 282.291 89.1236 282.41C89.245 282.529 89.4085 282.595 89.5784 282.593C89.7482 282.591 89.9103 282.522 90.029 282.4C91.1434 281.226 97.1333 276.55 97.7303 276.052C98.3273 275.555 97.6109 274.619 96.8746 274.878ZM102.845 271.256C103.263 271.256 102.029 271.654 109.451 266.759C109.606 266.652 109.716 266.491 109.758 266.307C109.8 266.124 109.773 265.931 109.681 265.767C109.589 265.603 109.439 265.479 109.26 265.419C109.082 265.36 108.887 265.369 108.715 265.445C106.522 266.94 104.428 268.575 102.447 270.341C102.38 270.42 102.336 270.517 102.321 270.619C102.306 270.722 102.32 270.827 102.362 270.922C102.403 271.017 102.47 271.099 102.556 271.158C102.641 271.217 102.741 271.251 102.845 271.256Z" fill="#48BA86"/>
<path d="M113.013 263.377C113.531 263.595 113.192 263.377 119.461 259.397C119.057 264.394 119.131 269.418 119.68 274.401C116.575 272.714 113.595 270.805 110.765 268.69C110.227 268.272 109.511 269.028 110.068 269.486C113.161 272.136 116.491 274.494 120.018 276.53C122.626 296.341 132.733 314.396 148.256 326.977C141.132 328.649 136.635 329.584 134.883 329.763C134.127 329.763 134.127 330.997 134.883 330.997C136.615 330.997 147.639 328.848 149.968 328.37C178.544 351.116 216.115 348.887 243.498 327.932C248.979 329.381 254.55 330.472 260.174 331.196C260.348 331.183 260.513 331.109 260.639 330.989C260.766 330.868 260.847 330.707 260.868 330.533C260.889 330.359 260.849 330.184 260.755 330.036C260.661 329.888 260.519 329.778 260.353 329.723C257.885 329.305 250.96 327.992 244.99 326.758C259.962 314.901 269.939 297.858 272.95 278.998C273.706 278.52 274.442 278.003 275.159 277.466C275.875 276.928 275.159 275.675 274.382 276.172L273.248 276.869C275.676 255.735 268.233 234.681 255.079 218.86C258.821 214.741 261.428 209.865 259.895 204.453C261.781 203.878 263.702 203.426 265.646 203.099C266.522 202.98 266.204 201.687 265.368 201.806C263.352 202.064 261.357 202.463 259.398 203C257.944 199.396 255.448 196.308 252.229 194.132C249.01 191.955 245.214 190.788 241.328 190.781C244.507 187.439 246.84 183.385 248.131 178.957C249.423 174.529 249.635 169.856 248.751 165.329C245.07 148.414 231.916 132.335 215.359 123.082C215.765 120.842 215.642 118.539 215.001 116.355C214.563 114.365 213.25 113.689 211.717 112.694C210.921 112.176 210.165 111.699 209.329 111.221C211.525 107.804 212.673 103.82 212.633 99.7587C217.11 99.3209 217.269 92.7937 212.354 91.7987C217.349 68.3565 173.987 64.3765 176.534 92.5549C175.651 92.807 174.859 93.3095 174.256 94.0017C173.652 94.6938 173.261 95.546 173.131 96.4553C173.013 97.0787 173.051 97.7215 173.241 98.3269C173.43 98.9323 173.766 99.4816 174.219 99.9262C174.671 100.371 175.226 100.697 175.835 100.876C176.444 101.055 177.087 101.082 177.708 100.953C177.526 103.53 178.063 106.106 179.26 108.395C178.265 108.624 177.338 109.086 176.556 109.744C175.774 110.401 175.16 111.235 174.763 112.176C173.881 114.688 173.709 117.394 174.266 119.997C158.445 127.215 145.796 139.949 138.684 155.817C133.053 168.653 135.799 178.045 145.749 187.836C141.293 186.399 136.477 186.547 132.117 188.254C129.383 189.43 126.938 191.187 124.952 193.404C122.965 195.621 121.485 198.243 120.615 201.09C118.701 200.783 116.757 200.703 114.824 200.851C114.692 200.876 114.573 200.946 114.487 201.049C114.401 201.153 114.354 201.283 114.354 201.418C114.354 201.552 114.401 201.683 114.487 201.786C114.573 201.89 114.692 201.96 114.824 201.985C116.657 201.907 118.491 202.122 120.257 202.622C118.884 211 125.988 218.084 132.893 223.059C125.482 233.128 120.918 245.006 119.68 257.446C117.345 258.869 115.092 260.424 112.934 262.103C112.82 262.17 112.727 262.268 112.666 262.384C112.604 262.501 112.575 262.632 112.584 262.764C112.592 262.896 112.636 263.023 112.712 263.131C112.788 263.239 112.892 263.324 113.013 263.377ZM200.991 116.614L201.827 116.355C202.285 116.833 203.519 117.908 204.275 118.544C198.364 121.649 191.041 121.39 183.4 117.669C184.255 116.893 185.648 115.48 186.166 114.883C187.534 115.407 188.929 115.858 190.345 116.236C190.926 117.097 191.702 117.809 192.61 118.313C193.519 118.817 194.534 119.098 195.572 119.135C196.61 119.172 197.642 118.963 198.584 118.525C199.526 118.087 200.351 117.432 200.991 116.614ZM185.071 114.326C184.395 115.082 182.882 116.694 182.385 117.112C181.828 116.806 181.27 116.488 180.713 116.156C180.605 116.09 180.475 116.07 180.352 116.1C180.229 116.13 180.122 116.207 180.056 116.316C179.99 116.424 179.97 116.554 180 116.677C180.03 116.8 180.107 116.906 180.216 116.972C185.051 120.077 189.768 122.425 195.479 122.425C197.793 122.535 200.102 122.125 202.237 121.226C204.372 120.328 206.278 118.962 207.817 117.231C207.899 117.147 207.944 117.033 207.942 116.915C207.94 116.798 207.891 116.686 207.807 116.604C207.723 116.522 207.609 116.477 207.491 116.479C207.374 116.481 207.262 116.53 207.18 116.614C206.641 117.059 206.077 117.471 205.489 117.848C204.951 117.39 203.718 116.395 203.121 115.858C205.145 115.094 206.984 113.906 208.513 112.375C210.503 113.219 212.288 114.482 213.747 116.077C214.478 118.245 214.595 120.573 214.085 122.803C212.255 128.455 197.449 134.046 182.245 126.106C176.892 123.42 174.644 121.211 175.599 114.525C175.67 113.342 176.124 112.216 176.892 111.315C177.661 110.413 178.701 109.787 179.857 109.53C181.168 111.538 182.961 113.186 185.071 114.326ZM201.27 131.34C204.514 130.942 212.215 129.469 214.941 124.435C230.762 133.191 247.259 152.772 247.637 170.623C247.773 174.546 246.989 178.447 245.348 182.013C243.706 185.579 241.253 188.711 238.184 191.159C235.37 191.677 232.673 192.702 230.224 194.184C231.976 167.14 232.035 168.772 231.836 168.573C231.637 168.374 228.612 168.354 223.677 168.235C224.294 167.459 225.946 165.27 226.324 164.832C226.416 164.734 226.466 164.604 226.462 164.469C226.459 164.335 226.402 164.208 226.304 164.115C226.206 164.023 226.076 163.973 225.942 163.977C225.807 163.981 225.68 164.038 225.588 164.135C224.331 165.53 223.003 166.859 221.608 168.115H221.19C221.697 162.08 221.83 156.018 221.588 149.966C221.588 149.489 220.752 149.489 220.792 149.966C220.991 152.812 219.657 165.568 219.498 168.016C204.673 167.717 179.957 167.459 165.032 167.319C163.203 161.132 162.429 154.68 162.743 148.235C162.743 147.559 161.788 147.559 161.729 148.235C161.085 154.646 161.618 161.12 163.301 167.339H162.883C160.889 165.346 158.996 163.254 157.211 161.071C157.139 160.971 157.032 160.902 156.911 160.876C156.791 160.851 156.665 160.871 156.559 160.933C156.452 160.995 156.373 161.094 156.335 161.212C156.298 161.329 156.305 161.456 156.356 161.568C156.574 161.986 158.962 165.548 160.535 167.419H152.813C152.236 167.419 152.415 167.419 152.376 167.876C152.177 170.125 152.893 182.543 153.45 191.378C152.25 190.63 151 189.965 149.709 189.388C139.46 179.319 134.008 171.478 139.58 158.026C146.232 141.824 158.765 128.737 174.664 121.39C176.892 126.146 188.215 132.892 201.27 131.34ZM153.649 168.832C155.918 168.832 225.727 169.449 230.602 169.886C229.667 177.727 227.936 200.891 227.339 208.671H222.981C220.513 210.801 202.205 226.004 200.892 227.119C200.434 227.477 201.27 227.775 203.24 229.547C204.479 230.456 205.518 231.611 206.292 232.939C207.065 234.268 207.557 235.741 207.737 237.268C207.742 237.338 207.774 237.404 207.826 237.452C207.877 237.5 207.945 237.527 208.016 237.526C215.1 237.825 221.09 244.133 216.175 248.034C211.658 251.616 204.673 248.034 201.21 244.73C204.334 240.651 206.165 237.089 202.663 233.407C202.245 232.969 197.748 229.308 192.036 224.651C170.405 207 172.136 207.995 171.858 207.995C170.743 207.995 158.923 207.179 156.793 207.06C155.221 194.324 154.067 175.717 153.649 168.832ZM174.465 247.317C171.539 247.536 166.624 247.914 164.515 244.949C163.141 242.959 165.191 240.631 167.4 239.994C172.236 241.745 179.838 244.193 182.305 244.969C179.85 246.207 177.196 247.002 174.465 247.317ZM164.117 246.919C166.107 248.909 169.49 249.148 172.196 249.108C176.612 249.086 180.943 247.899 184.753 245.666C189.111 246.939 193.429 248.034 197.927 248.989C197.98 249.007 198.039 249.008 198.093 248.99C198.147 248.972 198.193 248.936 198.225 248.889C198.981 247.954 199.718 246.899 200.394 246.004C204.971 250.262 212.613 253.068 217.309 249.447C220.772 246.76 220.235 242.163 216.772 239.317C233.249 234.482 246.363 227.537 253.726 220.233C260.598 228.113 265.684 237.386 268.635 247.416C271.585 257.446 272.331 267.996 270.82 278.341C266.617 281.092 262.265 283.609 257.786 285.883C257.678 285.939 257.592 286.03 257.542 286.141C257.492 286.252 257.481 286.376 257.511 286.494C257.541 286.612 257.61 286.716 257.707 286.789C257.804 286.863 257.923 286.901 258.044 286.898C258.303 286.898 266.263 283.058 270.462 280.57C267.025 298.553 257.375 314.754 243.199 326.34C239.995 325.664 237.229 325.027 235.916 324.629C235.199 324.39 234.881 325.465 235.577 325.723C236.791 326.161 239.06 326.778 241.766 327.474C228.93 337.255 213.252 342.579 197.114 342.637C180.977 342.694 165.261 337.482 152.356 327.793C154.741 327.294 157.088 326.629 159.38 325.803C160.256 325.425 159.719 324.131 158.823 324.33L150.545 326.32C135.378 314.147 125.215 296.823 121.988 277.645L122.386 277.824C123.302 278.222 124.018 276.968 123.162 276.471L121.69 275.615C119.058 257.452 123.488 238.971 134.068 223.975C143.978 230.315 154.597 235.471 165.708 239.337C162.564 240.929 161.51 244.352 164.117 246.919ZM211.598 99.2413C211.18 103.221 210.583 107.201 208.115 110.266C206.762 111.957 203.877 114.465 201.509 114.525C199.937 114.525 199.379 113.609 198.364 112.535C197.031 110.982 196.374 110.166 195.658 110.286C194.066 110.485 194.345 113.49 191.797 114.982C191.021 115.42 188.315 114.644 186.245 113.649C183.819 112.446 181.819 110.529 180.514 108.157C179.209 105.784 178.66 103.069 178.942 100.376C178.942 99.898 178.246 99.5995 177.967 99.7388C177.534 99.8884 177.071 99.9251 176.62 99.8452C176.17 99.7654 175.747 99.5718 175.392 99.2828C175.037 98.9938 174.762 98.6189 174.593 98.1937C174.424 97.7685 174.366 97.3072 174.425 96.8533C175.181 92.8733 179.639 93.8683 180.813 96.1767C180.852 96.235 180.91 96.2776 180.978 96.297C181.045 96.3164 181.117 96.3114 181.181 96.2829C181.246 96.2544 181.298 96.2042 181.328 96.1411C181.359 96.078 181.367 96.0061 181.35 95.9379C180.548 93.8458 180.448 91.5497 181.066 89.3959C181.683 87.2421 182.984 85.3476 184.773 83.9979C187.615 85.9717 190.993 87.0295 194.454 87.0295C197.915 87.0295 201.293 85.9717 204.135 83.9979C207.976 86.9829 208.115 93.1917 207.837 95.3608C207.834 95.4134 207.843 95.4659 207.864 95.5143C207.884 95.5626 207.916 95.6055 207.956 95.6394C208.295 95.8981 208.852 95.2215 209.13 94.9031C209.488 94.3475 210.002 93.9097 210.607 93.6443C211.212 93.3788 211.882 93.2976 212.533 93.4106C213.184 93.5057 213.777 93.8358 214.2 94.3386C214.623 94.8414 214.848 95.482 214.83 96.1391C214.813 96.7961 214.556 97.4241 214.107 97.9041C213.658 98.3841 213.048 98.6829 212.394 98.7438C212.255 98.6244 211.638 98.8234 211.598 99.2413Z" fill="#48BA86"/>
<path d="M183.082 317.505C183.082 317.763 183.281 317.982 183.082 317.505C177.461 319.779 171.646 321.544 165.709 322.778C164.993 322.917 165.232 323.972 165.948 323.893C172.095 323.201 178.086 321.5 183.679 318.858C184.495 318.4 183.958 317.186 183.082 317.505ZM210.942 309.047C211.42 309.047 227.539 302.719 229.111 301.704C229.887 301.187 229.349 299.853 228.434 300.192C226.822 300.789 214.007 306.838 210.803 307.973C210.686 308.017 210.587 308.1 210.523 308.207C210.459 308.315 210.433 308.441 210.449 308.565C210.465 308.689 210.522 308.804 210.612 308.891C210.701 308.979 210.817 309.034 210.942 309.047ZM235.578 298.5C236.096 298.5 249.508 292.391 250.762 291.436C251.379 290.958 250.961 289.824 250.145 290.142C248.931 290.6 237.926 296.112 235.399 297.167C235.258 297.226 235.14 297.33 235.063 297.463C234.987 297.596 234.957 297.75 234.977 297.902C234.998 298.054 235.068 298.195 235.176 298.303C235.285 298.411 235.426 298.48 235.578 298.5ZM274.622 258.501C275.736 259.218 279.876 262.481 280.99 263.198C281.16 263.296 281.361 263.33 281.554 263.292C281.747 263.255 281.92 263.149 282.042 262.994C282.163 262.839 282.224 262.645 282.213 262.448C282.203 262.252 282.122 262.065 281.985 261.924C280.93 261.028 276.373 258.183 275.239 257.506C275.107 257.424 274.948 257.398 274.797 257.434C274.646 257.469 274.515 257.563 274.433 257.695C274.351 257.827 274.325 257.986 274.36 258.137C274.396 258.289 274.49 258.419 274.622 258.501ZM299.596 275.018C298.98 274.521 298.144 275.416 298.781 275.934C300.193 277.108 305.805 282.083 307.357 283.137C307.522 283.219 307.71 283.241 307.889 283.199C308.068 283.158 308.227 283.056 308.34 282.911C308.452 282.766 308.511 282.586 308.506 282.403C308.501 282.219 308.433 282.043 308.313 281.904C307.039 280.59 301.248 276.332 299.596 275.018ZM312.432 286.441C312.313 286.325 312.153 286.26 311.987 286.262C311.821 286.264 311.662 286.332 311.546 286.451C311.43 286.569 311.366 286.729 311.368 286.896C311.37 287.062 311.438 287.22 311.556 287.336C314.055 289.864 316.301 292.63 318.263 295.595C318.899 296.49 320.352 295.595 319.735 294.679C317.657 291.637 315.203 288.869 312.432 286.441ZM284.572 332.33C281.905 332.33 270.423 331.574 267.597 330.997C267.468 330.965 267.331 330.986 267.218 331.055C267.104 331.124 267.022 331.236 266.99 331.365C266.959 331.494 266.98 331.631 267.049 331.745C267.118 331.859 267.229 331.94 267.358 331.972C273.042 333.041 278.794 333.706 284.572 333.962C284.788 333.962 284.996 333.876 285.149 333.723C285.302 333.57 285.388 333.362 285.388 333.146C285.388 332.93 285.302 332.722 285.149 332.569C284.996 332.416 284.788 332.33 284.572 332.33ZM213.449 318.022C212.753 317.684 212.176 318.719 212.892 319.077C217.905 321.609 223.273 323.367 228.812 324.291C229.887 324.49 230.305 322.838 229.21 322.659C223.766 321.855 218.461 320.295 213.449 318.022ZM190.127 316.649C192.614 316.112 197.689 314.659 198.485 314.54C199.241 314.838 204.096 316.669 206.683 317.286C206.877 317.329 207.08 317.296 207.25 317.194C207.421 317.092 207.545 316.929 207.599 316.737C207.653 316.546 207.631 316.342 207.538 316.166C207.446 315.991 207.289 315.857 207.101 315.793C205.111 315.077 203.121 314.48 200.912 313.803C202.517 313.27 204.074 312.604 205.569 311.813C205.678 311.697 205.75 311.552 205.777 311.395C205.804 311.238 205.785 311.077 205.721 310.931C205.658 310.785 205.553 310.661 205.42 310.573C205.287 310.486 205.131 310.44 204.972 310.44C202.743 311.196 200.554 312.152 198.385 312.987C195.917 312.112 193.649 311.216 191.48 310.261C190.763 309.943 190.186 310.997 190.923 311.336C192.733 312.191 194.544 313.007 196.335 313.744C194.22 314.478 192.068 315.102 189.888 315.614C189.796 315.681 189.726 315.773 189.687 315.879C189.647 315.985 189.64 316.1 189.665 316.211C189.69 316.321 189.748 316.421 189.83 316.499C189.912 316.577 190.015 316.629 190.127 316.649ZM101.054 261.168C99.0641 259.616 91.6016 253.208 89.9499 251.457C89.4126 250.879 88.5171 251.735 89.0544 252.312C92.3023 256.133 96.0122 259.535 100.099 262.441C100.895 262.979 101.81 261.765 101.054 261.168ZM77.4129 355.335C76.1711 344.349 73.9331 333.498 70.7265 322.917C72.5419 325.663 75.341 327.607 78.5472 328.35C78.6845 328.408 78.8391 328.409 78.9772 328.353C79.1153 328.297 79.2255 328.189 79.2835 328.052C79.3416 327.914 79.3428 327.76 79.2868 327.622C79.2308 327.484 79.1223 327.373 78.985 327.315C76.4378 325.783 72.5175 324.231 71.3036 320.51C71.9677 319.297 72.1313 317.873 71.7595 316.542C71.3876 315.211 70.5098 314.078 69.3136 313.385C70.0296 309.159 71.5423 305.107 73.7712 301.445C74.0299 300.948 73.3533 300.43 72.9752 300.868C70.1354 304.409 68.3985 308.706 67.9803 313.226C67.4623 313.264 66.9526 313.378 66.4679 313.564C61.1956 299.937 53.7049 287.275 44.2993 276.093C44.6614 275.476 44.8021 274.753 44.6981 274.045C44.5942 273.337 44.2518 272.686 43.7276 272.199C43.2033 271.711 42.5286 271.418 41.8148 271.366C41.1011 271.314 40.391 271.507 39.8019 271.914C39.1298 272.371 38.6411 273.052 38.4226 273.835C38.2041 274.618 38.2697 275.453 38.6079 276.192C38.8333 276.587 39.1362 276.931 39.4984 277.205C39.8606 277.479 40.2745 277.677 40.7153 277.787C41.156 277.897 41.6144 277.916 42.0628 277.844C42.5112 277.771 42.9403 277.609 43.3242 277.366C52.5459 288.423 59.9363 300.886 65.2142 314.281C61.9705 317.146 64.7963 322.519 68.8758 322.082C72.2394 333.033 74.5843 344.271 75.8806 355.653C75.2836 355.969 74.8209 356.491 74.5775 357.121C74.3341 357.751 74.3263 358.448 74.5556 359.084C74.7848 359.72 75.2358 360.251 75.8255 360.581C76.4153 360.911 77.1043 361.017 77.7658 360.879C78.4274 360.742 79.0172 360.37 79.4267 359.833C79.8363 359.295 80.0381 358.628 79.9952 357.954C79.9523 357.279 79.6675 356.643 79.1931 356.162C78.7187 355.681 78.0866 355.387 77.4129 355.335ZM43.2247 274.62C43.2946 274.882 43.3033 275.157 43.25 275.424C43.1968 275.69 43.0831 275.94 42.9177 276.155C42.7523 276.371 42.5396 276.545 42.2961 276.665C42.0526 276.785 41.7848 276.847 41.5133 276.847C41.2419 276.847 40.9741 276.785 40.7306 276.665C40.4871 276.545 40.2744 276.371 40.109 276.155C39.9436 275.94 39.8299 275.69 39.7766 275.424C39.7234 275.157 39.7321 274.882 39.8019 274.62C39.7321 274.358 39.7234 274.083 39.7766 273.817C39.8299 273.551 39.9436 273.3 40.109 273.085C40.2744 272.87 40.4871 272.695 40.7306 272.575C40.9741 272.456 41.2419 272.393 41.5133 272.393C41.7848 272.393 42.0526 272.456 42.2961 272.575C42.5396 272.695 42.7523 272.87 42.9177 273.085C43.0831 273.3 43.1968 273.551 43.25 273.817C43.3033 274.083 43.2946 274.358 43.2247 274.62ZM79.0447 358.021C79.0447 360.011 75.7612 360.011 75.7612 358.021C75.7612 356.031 78.9651 356.21 78.9651 358.2L79.0447 358.021ZM70.3285 319.017C69.2539 322.34 65.254 320.012 65.3137 317.306C65.3137 314.918 68.637 313.326 69.8907 315.614C70.212 316.129 70.4112 316.71 70.4733 317.314C70.5354 317.918 70.4586 318.527 70.2489 319.097L70.3285 319.017ZM359.754 238.979C359.744 238.404 359.575 237.844 359.265 237.359C358.955 236.875 358.516 236.487 357.998 236.237C357.48 235.987 356.903 235.886 356.331 235.945C355.759 236.004 355.215 236.221 354.759 236.571C343.561 230.015 333.93 221.09 326.541 210.423C327.081 209.803 327.452 209.054 327.62 208.249C327.787 207.444 327.744 206.61 327.496 205.826C327.306 205.218 326.961 204.669 326.496 204.234C326.03 203.799 325.46 203.492 324.84 203.344C324.22 203.195 323.572 203.21 322.96 203.387C322.348 203.564 321.792 203.897 321.347 204.353C311.77 191.398 304.925 176.632 301.228 160.951C301.602 160.528 301.83 159.997 301.88 159.435C301.93 158.873 301.799 158.31 301.507 157.827C301.287 157.329 300.911 156.916 300.435 156.65C299.96 156.385 299.411 156.281 298.871 156.355C298.332 156.43 297.831 156.677 297.445 157.061C297.059 157.445 296.808 157.945 296.731 158.484C296.604 158.937 296.603 159.415 296.727 159.869C296.85 160.323 297.094 160.735 297.433 161.061C297.771 161.388 298.192 161.616 298.65 161.723C299.108 161.83 299.586 161.811 300.034 161.668C303.701 177.529 310.657 192.444 320.452 205.448C320.242 205.786 320.088 206.156 319.994 206.542C317.467 205.328 304.91 201.348 303.596 201.707C303.039 201.866 303.298 202.542 303.596 202.622C309.091 204.14 314.488 205.994 319.755 208.174C319.866 208.783 320.115 209.359 320.482 209.858C320.849 210.357 321.325 210.766 321.873 211.054C322.422 211.341 323.029 211.5 323.648 211.519C324.267 211.537 324.882 211.414 325.447 211.159C334.521 224.054 343.814 232.751 353.844 237.745C353.629 238.228 353.538 238.757 353.579 239.284C353.619 239.811 353.791 240.32 354.077 240.764C354.363 241.208 354.755 241.574 355.219 241.829C355.682 242.084 356.201 242.219 356.729 242.223C357.151 242.243 357.572 242.171 357.963 242.012C358.354 241.853 358.706 241.611 358.994 241.302C359.282 240.994 359.499 240.626 359.63 240.225C359.761 239.824 359.804 239.398 359.754 238.979ZM355.336 239.974C355.165 239.722 355.063 239.429 355.04 239.125C355.017 238.822 355.073 238.517 355.204 238.242C355.335 237.966 355.535 237.73 355.785 237.555C356.035 237.381 356.326 237.275 356.63 237.248C357.107 237.263 357.559 237.462 357.893 237.804C358.227 238.145 358.416 238.602 358.421 239.079C358.421 239.441 358.304 239.794 358.087 240.084C357.869 240.374 357.563 240.585 357.215 240.686C356.867 240.787 356.496 240.773 356.157 240.644C355.818 240.516 355.53 240.281 355.336 239.974ZM324.85 210.005C324.235 210.203 323.571 210.189 322.965 209.966C322.359 209.742 321.845 209.321 321.506 208.771C321.32 208.329 321.243 207.848 321.283 207.369C321.322 206.891 321.476 206.429 321.732 206.023C321.988 205.616 322.338 205.278 322.752 205.036C323.167 204.794 323.634 204.655 324.113 204.632C326.66 204.632 327.098 209.07 324.85 210.005ZM300.591 159.2C300.614 159.388 300.597 159.578 300.541 159.758C300.485 159.938 300.392 160.105 300.267 160.246C300.142 160.388 299.988 160.501 299.816 160.578C299.644 160.656 299.457 160.696 299.268 160.696C299.079 160.696 298.893 160.656 298.72 160.578C298.548 160.501 298.395 160.388 298.269 160.246C298.144 160.105 298.051 159.938 297.995 159.758C297.939 159.578 297.922 159.388 297.945 159.2C297.922 159.013 297.939 158.823 297.995 158.642C298.051 158.462 298.144 158.296 298.269 158.154C298.395 158.013 298.548 157.9 298.72 157.822C298.893 157.744 299.079 157.704 299.268 157.704C299.457 157.704 299.644 157.744 299.816 157.822C299.988 157.9 300.142 158.013 300.267 158.154C300.392 158.296 300.485 158.462 300.541 158.642C300.597 158.823 300.614 159.013 300.591 159.2ZM332.332 321.126C332.387 320.987 332.391 320.833 332.344 320.691C332.296 320.549 332.201 320.429 332.073 320.35C331.078 319.733 329.446 320.768 329.168 321.942C329.844 322.002 331.914 321.922 332.332 321.126Z" fill="#48BA86"/>
<path d="M327.594 307.972C326.301 305.234 324.846 302.576 323.236 300.012C323.147 299.881 323.012 299.79 322.858 299.756C322.703 299.722 322.542 299.749 322.407 299.831C322.272 299.912 322.173 300.042 322.131 300.195C322.089 300.347 322.107 300.509 322.181 300.649C323.523 303.007 324.687 305.461 325.664 307.992C323.444 308.233 321.333 309.082 319.563 310.444C317.793 311.807 316.432 313.63 315.631 315.715C314.829 317.799 314.617 320.064 315.018 322.262C315.418 324.459 316.417 326.503 317.903 328.17C311.017 330.85 303.734 332.37 296.351 332.668C296.219 332.693 296.1 332.763 296.014 332.867C295.928 332.97 295.881 333.1 295.881 333.235C295.881 333.37 295.928 333.5 296.014 333.603C296.1 333.707 296.219 333.777 296.351 333.802C304.223 333.969 312.046 332.52 319.336 329.544C320.827 330.727 322.576 331.542 324.441 331.923C326.306 332.304 328.234 332.241 330.07 331.738C331.906 331.235 333.597 330.306 335.008 329.028C336.418 327.749 337.507 326.157 338.187 324.379C338.867 322.601 339.119 320.688 338.922 318.795C338.725 316.901 338.085 315.081 337.053 313.481C336.021 311.882 334.627 310.547 332.984 309.587C331.341 308.626 329.494 308.066 327.594 307.952V307.972ZM325.067 326.36C324.868 325.026 324.788 323.673 324.55 322.38H321.624C321.445 323.554 321.445 324.728 321.266 325.902C321.256 325.985 321.229 326.066 321.187 326.139C321.145 326.213 321.09 326.277 321.023 326.329C320.957 326.381 320.881 326.419 320.799 326.441C320.718 326.463 320.633 326.47 320.55 326.459C320.466 326.449 320.385 326.422 320.312 326.38C320.239 326.338 320.174 326.283 320.123 326.216C320.071 326.15 320.033 326.074 320.01 325.992C319.988 325.911 319.982 325.826 319.992 325.743C319.992 324.429 321.087 316.071 321.306 314.897C321.584 313.245 322.46 313.106 322.958 313.166C323.992 313.285 324.271 314.36 324.49 315.156C325.067 317.285 326.48 323.773 326.838 325.922C326.997 326.996 325.246 327.434 325.067 326.36ZM334.002 324.827C330.798 327.056 326.758 324.389 328.032 321.305C328.848 319.315 332.012 317.962 333.345 320.031C333.506 320.366 333.585 320.734 333.575 321.104C333.566 321.475 333.469 321.839 333.293 322.165C333.116 322.491 332.865 322.771 332.559 322.981C332.253 323.191 331.902 323.326 331.534 323.375C330.874 323.462 330.205 323.462 329.544 323.375C329.796 323.653 330.092 323.888 330.42 324.071C332.41 324.907 333.743 323.414 334.141 324.25C334.172 324.334 334.176 324.426 334.151 324.512C334.125 324.598 334.073 324.674 334.002 324.728V324.827Z" fill="#48BA86"/>
<path d="M322.661 315.275C322.362 316.787 322.024 319.494 321.865 320.747H324.233C324.014 319.732 323.437 316.887 323.039 315.335C322.979 315.076 322.7 315.016 322.661 315.275ZM150.247 285.485C149.053 284.768 146.426 284.689 146.267 286.261C146.148 287.136 146.267 290.639 146.267 291.574C147.175 291.548 148.068 291.334 148.889 290.947C149.711 290.56 150.444 290.008 151.043 289.325C151.267 289.029 151.425 288.688 151.506 288.326C151.588 287.964 151.591 287.588 151.516 287.224C151.44 286.861 151.288 286.517 151.069 286.217C150.851 285.917 150.57 285.668 150.247 285.485Z" fill="#48BA86"/>
<path d="M184.255 307.116C178.754 305.101 173.372 302.776 168.136 300.151C169.181 298.015 169.795 295.693 169.943 293.32C170.092 290.946 169.771 288.566 168.999 286.316C168.228 284.067 167.021 281.991 165.447 280.207C163.873 278.424 161.964 276.968 159.827 275.923C157.691 274.878 155.37 274.263 152.996 274.115C150.622 273.967 148.242 274.288 145.992 275.059C143.743 275.831 141.667 277.038 139.884 278.611C138.1 280.185 136.644 282.095 135.599 284.231C133.191 282.949 130.853 281.541 128.594 280.012C127.977 279.614 127.4 280.55 127.977 280.968C130.664 282.958 132.913 284.351 135.002 285.624C127.858 306.479 155.618 319.832 167.439 301.365C172.627 304.311 178.18 306.559 183.956 308.051C184.073 308.069 184.192 308.044 184.292 307.981C184.392 307.919 184.466 307.823 184.502 307.71C184.538 307.598 184.533 307.477 184.487 307.368C184.442 307.259 184.36 307.17 184.255 307.116ZM152.415 291.196C150.803 292.741 148.676 293.634 146.445 293.704V299.276C146.445 299.502 146.354 299.72 146.194 299.881C146.033 300.041 145.816 300.131 145.589 300.131C145.362 300.131 145.144 300.041 144.984 299.881C144.823 299.72 144.733 299.502 144.733 299.276C144.733 298.32 144.395 290.42 144.375 289.783C144.375 287.793 143.619 284.39 146.365 283.296C151.42 281.167 156.196 286.758 152.315 291.176L152.415 291.196ZM161.569 297.166C161.29 300.35 157.011 301.723 154.464 299.833C154.283 299.689 154.161 299.484 154.122 299.256C154.083 299.028 154.13 298.794 154.253 298.598C154.377 298.403 154.569 298.26 154.791 298.198C155.014 298.136 155.252 298.158 155.459 298.261C156.035 298.647 156.728 298.82 157.418 298.751C158.108 298.682 158.752 298.375 159.24 297.883C159.837 297.266 159.598 296.032 158.623 296.171C157.867 296.387 157.079 296.468 156.295 296.41C155.898 296.318 155.529 296.128 155.223 295.858C154.917 295.589 154.682 295.248 154.54 294.865C154.398 294.482 154.353 294.071 154.41 293.667C154.466 293.263 154.621 292.879 154.862 292.549C155.198 292.075 155.641 291.686 156.155 291.414C156.67 291.143 157.241 290.996 157.822 290.986C158.403 290.977 158.979 291.104 159.502 291.358C160.025 291.613 160.481 291.987 160.832 292.45C161.429 293.226 160.195 294.161 159.598 293.405C159.32 293.082 158.952 292.849 158.541 292.735C158.13 292.622 157.695 292.633 157.29 292.768C155.559 293.405 156.653 295.116 157.807 294.758C158.066 294.679 161.728 294.102 161.469 297.087L161.569 297.166ZM322.699 230.979C322.054 232.45 321.316 233.879 320.49 235.257C318.931 233.09 316.912 231.295 314.578 230C312.244 228.705 309.652 227.941 306.988 227.765C304.325 227.588 301.655 228.003 299.171 228.979C296.686 229.954 294.448 231.468 292.616 233.41C290.785 235.352 289.405 237.675 288.577 240.212C287.748 242.75 287.49 245.439 287.822 248.088C288.155 250.736 289.068 253.279 290.498 255.533C291.928 257.787 293.838 259.698 296.092 261.127C294.102 262.898 289.983 266.043 289.147 266.699L287.675 266.023C287.018 265.724 286.481 266.699 287.157 267.018C287.464 267.161 287.763 267.32 288.053 267.495C285.548 269.312 282.951 271 280.272 272.55C280.132 272.629 280.029 272.76 279.987 272.915C279.944 273.07 279.964 273.236 280.043 273.376C280.122 273.516 280.254 273.618 280.409 273.661C280.564 273.704 280.729 273.684 280.869 273.605C284.153 271.774 286.978 270.042 289.466 268.351C291.282 269.614 292.975 271.047 294.52 272.629C294.676 272.752 294.872 272.813 295.069 272.802C295.267 272.791 295.455 272.708 295.596 272.569C295.737 272.431 295.823 272.245 295.838 272.047C295.852 271.849 295.794 271.653 295.675 271.495C294.123 270.032 292.452 268.701 290.68 267.515C291.894 266.64 295.774 263.754 297.724 262.043C301.204 263.755 305.142 264.307 308.958 263.616C312.774 262.925 316.269 261.029 318.928 258.205C321.586 255.381 323.27 251.779 323.73 247.928C324.19 244.077 323.403 240.18 321.485 236.809C322.509 235.1 323.362 233.293 324.032 231.417C324.37 230.561 323.037 230.143 322.699 230.979ZM305.963 253.147C305.564 251.802 305.251 250.433 305.028 249.048L300.829 249.466C300.59 250.72 300.351 251.973 300.152 253.227C299.953 254.481 298.321 253.963 298.481 252.889C298.839 250.242 300.968 238.959 301.386 237.884C302.56 235.576 304.331 237.168 305.366 239.775C306.37 244.09 307.153 248.454 307.714 252.849C307.754 253.081 307.699 253.32 307.563 253.512C307.427 253.704 307.22 253.834 306.988 253.874C306.756 253.913 306.517 253.859 306.325 253.723C306.133 253.587 306.002 253.38 305.963 253.147ZM309.366 240.232C309.467 239.997 309.616 239.786 309.804 239.613C309.992 239.44 310.215 239.309 310.457 239.228C310.7 239.148 310.957 239.119 311.211 239.144C311.465 239.17 311.711 239.249 311.933 239.377C312.131 239.509 312.297 239.683 312.422 239.885C312.546 240.088 312.625 240.316 312.653 240.552C312.682 240.788 312.659 241.028 312.586 241.254C312.513 241.481 312.392 241.689 312.231 241.864C311.982 242.171 311.631 242.379 311.242 242.452C310.853 242.525 310.451 242.458 310.108 242.262C309.764 242.066 309.5 241.755 309.365 241.383C309.229 241.011 309.229 240.604 309.366 240.232ZM312.828 252.948C312.825 253.177 312.74 253.396 312.589 253.567C312.438 253.738 312.23 253.849 312.004 253.881C311.778 253.912 311.548 253.861 311.356 253.738C311.164 253.614 311.023 253.426 310.958 253.207C310.799 252.769 310.5 246.64 310.5 245.924C310.5 245.718 310.582 245.52 310.727 245.375C310.873 245.229 311.07 245.148 311.276 245.148C311.482 245.148 311.679 245.229 311.825 245.375C311.971 245.52 312.052 245.718 312.052 245.924C312.112 247.058 312.848 252.61 312.828 252.948Z" fill="#48BA86"/>
<path d="M301.227 247.496L304.689 247.118C304.342 244.691 303.756 242.305 302.938 239.994C302.48 241.984 301.644 245.526 301.227 247.496ZM109.45 333.205C107.779 334.2 109.152 336.907 111.44 335.892C111.44 334.578 111.321 333.603 111.281 333.146C110.993 333.008 110.677 332.942 110.358 332.952C110.04 332.963 109.728 333.049 109.45 333.205Z" fill="#48BA86"/>
<path d="M128.675 330.678C125.382 331.193 122.058 331.499 118.725 331.593C117.83 315.932 95.4226 315.912 94.5072 331.593C91.0499 331.259 87.6475 330.497 84.3781 329.325C84.3167 329.293 84.2497 329.274 84.1809 329.269C84.1122 329.263 84.043 329.272 83.9774 329.293C83.9118 329.314 83.8511 329.348 83.7986 329.393C83.7461 329.438 83.703 329.492 83.6716 329.554C83.6403 329.615 83.6213 329.682 83.6158 329.751C83.6104 329.819 83.6185 329.889 83.6397 329.954C83.661 330.02 83.6949 330.081 83.7397 330.133C83.7844 330.186 83.8391 330.229 83.9005 330.26C87.2164 332.016 90.8495 333.091 94.5868 333.424C94.9635 336.346 96.3914 339.03 98.6035 340.975C100.816 342.921 103.661 343.993 106.606 343.993C109.552 343.993 112.397 342.921 114.609 340.975C116.821 339.03 118.249 336.346 118.626 333.424C122.091 333.071 125.532 332.519 128.934 331.772C129.051 331.715 129.145 331.619 129.201 331.501C129.256 331.383 129.27 331.249 129.24 331.122C129.21 330.995 129.138 330.882 129.035 330.802C128.933 330.721 128.806 330.677 128.675 330.678ZM104.795 337.026C104.768 337.161 104.713 337.288 104.634 337.4C104.554 337.511 104.452 337.605 104.333 337.675C104.215 337.744 104.083 337.788 103.947 337.803C103.81 337.818 103.672 337.804 103.542 337.762C102.945 337.583 103.044 337.245 102.089 335.892C101.791 336.389 101.492 336.907 101.213 337.424C101.104 337.602 100.931 337.732 100.729 337.786C100.528 337.84 100.313 337.815 100.129 337.715C99.9455 337.616 99.8069 337.45 99.7421 337.251C99.6773 337.053 99.6911 336.837 99.7807 336.648C100.159 335.932 100.537 335.195 100.955 334.479C100.464 333.967 99.9164 333.513 99.323 333.126C99.1283 332.989 98.9931 332.783 98.9449 332.55C98.8966 332.317 98.9389 332.075 99.0631 331.872C99.1874 331.669 99.3842 331.521 99.6136 331.458C99.8431 331.396 100.088 331.422 100.298 331.534C102.786 333.066 101.253 333.245 103.144 330.897C103.92 329.942 105.392 331.116 104.756 332.091C104.318 332.767 103.761 333.464 103.283 334.081C104.258 335.335 104.895 336.31 104.776 337.026H104.795ZM113.273 337.265C112.849 337.647 112.349 337.934 111.805 338.105C111.26 338.277 110.686 338.33 110.12 338.26C109.554 338.19 109.009 337.999 108.523 337.7C108.037 337.402 107.621 337.002 107.303 336.529C106.898 335.931 106.683 335.224 106.686 334.502C106.69 333.779 106.912 333.075 107.323 332.481C107.734 331.887 108.315 331.431 108.99 331.173C109.664 330.916 110.401 330.868 111.104 331.036C110.932 328.885 110.872 326.726 110.925 324.569C110.928 324.338 111.016 324.117 111.172 323.948C111.328 323.778 111.541 323.672 111.77 323.65C111.999 323.628 112.228 323.691 112.414 323.828C112.6 323.964 112.728 324.164 112.775 324.39C113.193 326.996 113.512 334.638 113.551 335.514C113.591 335.971 113.79 336.728 113.253 337.265H113.273ZM76.0798 219.616C76.438 219.616 76.5375 219.616 76.5574 219.497C76.5574 219.158 75.8808 214.681 75.8012 214.144C70.1496 214.92 70.866 220.133 76.0798 219.616Z" fill="#48BA86"/>
<path d="M90.1467 200.751C87.7874 201.074 85.4486 201.533 83.1419 202.124C81.2869 200.322 79.0252 198.994 76.5482 198.251C74.0712 197.509 71.4518 197.374 68.9116 197.858C66.3714 198.342 63.9852 199.431 61.9549 201.032C59.9245 202.634 58.3099 204.701 57.2475 207.058C56.1852 209.416 55.7063 211.995 55.8516 214.577C55.9968 217.158 56.7619 219.667 58.082 221.891C59.4021 224.114 61.2384 225.987 63.4355 227.351C65.6326 228.715 68.1259 229.529 70.7044 229.725C72.9497 236.047 76.862 241.643 82.0275 245.924C82.0745 245.969 82.1301 246.005 82.191 246.03C82.252 246.054 82.3171 246.066 82.3827 246.065C82.4483 246.064 82.5131 246.05 82.5734 246.024C82.6336 245.998 82.6882 245.961 82.7339 245.914C82.7796 245.867 82.8157 245.811 82.8399 245.75C82.8642 245.689 82.8762 245.624 82.8752 245.558C82.8743 245.493 82.8605 245.428 82.8345 245.368C82.8086 245.308 82.771 245.253 82.724 245.207C78.4159 240.699 74.9275 235.473 72.4158 229.765C75.4151 229.652 78.3236 228.706 80.8154 227.032C83.3071 225.359 85.2836 223.025 86.5233 220.292C87.763 217.558 88.2168 214.533 87.834 211.556C87.4511 208.58 86.2467 205.768 84.3558 203.437C86.4652 202.88 88.3358 202.382 90.3258 202.004C91.281 201.845 90.9427 200.591 90.1467 200.751ZM65.3115 220.889V206.084C65.3421 205.887 65.4422 205.707 65.5937 205.578C65.7451 205.448 65.9379 205.377 66.1373 205.377C66.3367 205.377 66.5295 205.448 66.6809 205.578C66.8324 205.707 66.9325 205.887 66.9632 206.084C66.9632 209.029 67.3015 218.899 67.3612 220.889C67.2924 221.107 67.156 221.298 66.9717 221.433C66.7874 221.568 66.5648 221.641 66.3363 221.641C66.1078 221.641 65.8852 221.568 65.7009 221.433C65.5166 221.298 65.3802 221.107 65.3115 220.889ZM77.4903 221.088C73.5103 223.218 68.197 219.417 70.7044 214.979C71.2542 214.189 71.9904 213.547 72.8478 213.11C73.7052 212.672 74.6573 212.453 75.6197 212.472C75.2872 210.304 75.0878 208.117 75.0227 205.925C75.0332 205.709 75.1195 205.504 75.2665 205.346C75.4135 205.188 75.6116 205.087 75.8259 205.061C76.0402 205.034 76.2569 205.085 76.4376 205.203C76.6183 205.321 76.7515 205.499 76.8137 205.706C77.152 207.139 78.1072 216.671 78.2067 217.924C78.2465 218.899 78.6843 220.352 77.4903 220.989V221.088Z" fill="#48BA86"/>
</svg>
