<svg width="346" height="382" viewBox="0 0 346 382" fill="none" xmlns="http://www.w3.org/2000/svg">
<path d="M294.774 89.2478C295.541 89.0749 296.243 88.6632 296.79 88.0651C296.726 88.3972 296.644 88.7251 296.545 89.0474C296.395 89.5886 296.96 89.749 297.149 89.4082C297.815 88.3557 298.078 87.072 297.884 85.82C297.874 85.7017 297.832 85.5889 297.764 85.4949C297.696 85.4009 297.604 85.3296 297.499 85.2896C297.394 85.2495 297.28 85.2423 297.171 85.2688C297.062 85.2953 296.963 85.3544 296.885 85.4392C296.093 86.4615 295.942 87.9048 294.604 88.3458C294.498 88.3765 294.407 88.4488 294.349 88.5482C294.292 88.6475 294.272 88.7665 294.293 88.881C294.315 88.9955 294.376 89.0971 294.466 89.1652C294.555 89.2332 294.665 89.2628 294.774 89.2478ZM291.061 82.4924C291.166 82.5643 291.288 82.6048 291.412 82.6096C291.537 82.6145 291.661 82.5835 291.771 82.52C291.881 82.4565 291.973 82.3627 292.037 82.2486C292.101 82.1344 292.135 82.004 292.135 81.871C292.135 81.7107 292.135 81.5303 291.231 80.087C291.042 79.7863 290.816 79.225 290.326 79.5056C289.836 79.7863 290.175 80.3075 290.439 81.0091C290.967 82.4924 290.967 82.4924 291.061 82.4924ZM290.759 78.8241C291.683 78.8241 292.324 78.8241 292.437 79.646C292.452 79.7683 292.512 79.8792 292.604 79.9544C292.696 80.0296 292.812 80.0628 292.927 80.0469C293.042 80.0309 293.146 79.9671 293.217 79.8693C293.287 79.7716 293.319 79.648 293.304 79.5257C293.155 78.8762 292.795 78.3034 292.289 77.9075C291.782 77.5117 291.161 77.3181 290.533 77.3608C290.384 77.4267 290.26 77.5442 290.182 77.6943C290.104 77.8444 290.075 78.0183 290.101 78.1877C290.128 78.3571 290.207 78.5122 290.326 78.6277C290.446 78.7432 290.598 78.8124 290.759 78.8241ZM60.2387 139.923C54.9521 142.643 49.1343 143.99 43.2631 143.854C37.3919 143.718 31.6348 142.103 26.4644 139.141C26.3695 139.08 26.2555 139.062 26.1477 139.09C26.0399 139.118 25.9471 139.191 25.8896 139.292C25.8321 139.393 25.8147 139.514 25.8412 139.628C25.8677 139.743 25.936 139.842 26.0309 139.903C36.3592 147.059 51.5313 147.46 60.5214 140.444C60.5864 140.404 60.6338 140.339 60.6533 140.262C60.6727 140.185 60.6626 140.102 60.6251 140.033C60.5876 139.964 60.5258 139.914 60.4533 139.893C60.3809 139.872 60.3037 139.883 60.2387 139.923ZM58.844 80.4879C59.9183 80.9489 61.6899 80.4879 61.2188 79.4255C60.9042 78.6148 60.6827 77.7668 60.5591 76.8997C60.5591 76.7774 60.5134 76.6602 60.4321 76.5737C60.3508 76.4873 60.2406 76.4387 60.1256 76.4387C60.0106 76.4387 59.9004 76.4873 59.8191 76.5737C59.7378 76.6602 59.6921 76.7774 59.6921 76.8997C59.6808 77.7479 59.7566 78.5948 59.9183 79.4255C59.6612 79.581 59.3638 79.6443 59.0702 79.6059C59.0157 79.5901 58.9589 79.5859 58.9029 79.5934C58.8469 79.601 58.7929 79.6202 58.7438 79.65C58.6948 79.6798 58.6518 79.7195 58.6173 79.767C58.5827 79.8145 58.5573 79.8687 58.5424 79.9266C58.5276 79.9845 58.5236 80.045 58.5307 80.1045C58.5378 80.1641 58.5559 80.2216 58.5839 80.2737C58.6119 80.3258 58.6493 80.3715 58.6939 80.4083C58.7386 80.445 58.7895 80.4721 58.844 80.4879ZM56.6766 76.0979C56.9684 75.3768 57.2079 74.6329 57.3928 73.8728C57.4096 73.8031 57.4132 73.7304 57.4032 73.6591C57.3933 73.5879 57.3701 73.5194 57.335 73.4578C57.2999 73.3962 57.2536 73.3427 57.1988 73.3003C57.144 73.258 57.0818 73.2278 57.0158 73.2113C56.4504 73.0309 56.3562 73.6724 56.0735 74.4542C55.9111 74.843 55.7788 75.2453 55.6777 75.6569C55.6771 75.7803 55.711 75.901 55.7752 76.0038C55.8393 76.1066 55.9308 76.1867 56.0379 76.234C56.1451 76.2813 56.263 76.2937 56.3767 76.2694C56.4905 76.2452 56.5948 76.1855 56.6766 76.0979ZM62.9527 77.9822C63.06 78.0323 63.1793 78.0458 63.2941 78.0206C63.4089 77.9955 63.5135 77.933 63.5935 77.8419C63.8826 77.1196 64.1219 76.376 64.3097 75.6168C64.3296 75.5484 64.3359 75.4763 64.3284 75.4051C64.3209 75.3339 64.2997 75.2652 64.2661 75.2031C64.2325 75.141 64.1872 75.087 64.1331 75.0444C64.079 75.0017 64.0172 74.9714 63.9516 74.9553C63.3673 74.7749 63.2543 75.4965 63.0092 76.1781C62.7642 76.8596 62.293 77.7015 62.9527 77.9822ZM53.906 82.0915C54.5826 82.4518 55.3576 82.5442 56.0923 82.3521C56.5635 82.1316 56.2431 81.3699 55.7907 81.5303C55.2928 81.494 54.8152 81.3061 54.4149 80.989C54.1599 80.8111 53.9404 80.5814 53.769 80.3131C53.5975 80.0448 53.4776 79.7432 53.416 79.4255C53.2841 78.5836 52.0401 78.9043 52.2286 79.7462C52.3201 80.2479 52.519 80.7204 52.8099 81.1271C53.1008 81.5338 53.4759 81.8638 53.906 82.0915ZM187.891 301.531C187.891 300.999 187.693 300.489 187.339 300.113C186.986 299.737 186.506 299.526 186.006 299.526C185.507 299.526 185.027 299.737 184.674 300.113C184.32 300.489 184.122 300.999 184.122 301.531C184.122 302.062 184.32 302.572 184.674 302.948C185.027 303.324 185.507 303.535 186.006 303.535C186.506 303.535 186.986 303.324 187.339 302.948C187.693 302.572 187.891 302.062 187.891 301.531ZM187.853 321.276C188.151 321.305 188.452 321.269 188.735 321.168C189.019 321.067 189.28 320.904 189.501 320.69C189.722 320.476 189.899 320.215 190.02 319.924C190.141 319.633 190.203 319.318 190.203 319C190.203 318.682 190.141 318.368 190.02 318.077C189.899 317.786 189.722 317.525 189.501 317.311C189.28 317.096 189.019 316.934 188.735 316.833C188.452 316.732 188.151 316.695 187.853 316.725C187.556 316.695 187.255 316.732 186.972 316.833C186.688 316.934 186.427 317.096 186.206 317.311C185.985 317.525 185.808 317.786 185.687 318.077C185.566 318.368 185.504 318.682 185.504 319C185.504 319.318 185.566 319.633 185.687 319.924C185.808 320.215 185.985 320.476 186.206 320.69C186.427 320.904 186.688 321.067 186.972 321.168C187.255 321.269 187.556 321.305 187.853 321.276ZM188.4 337.512C187.887 337.565 187.41 337.819 187.063 338.224C186.716 338.63 186.524 339.159 186.524 339.707C186.524 340.256 186.716 340.785 187.063 341.191C187.41 341.596 187.887 341.85 188.4 341.902C188.913 341.85 189.39 341.596 189.737 341.191C190.084 340.785 190.276 340.256 190.276 339.707C190.276 339.159 190.084 338.63 189.737 338.224C189.39 337.819 188.913 337.565 188.4 337.512ZM176.96 250.454C177.888 255.688 178.518 260.976 178.844 266.29C178.844 266.477 178.914 266.655 179.038 266.787C179.161 266.918 179.329 266.992 179.504 266.992C179.679 266.992 179.847 266.918 179.971 266.787C180.094 266.655 180.164 266.477 180.164 266.29C179.794 260.888 179.019 255.525 177.846 250.254C177.797 250.158 177.721 250.081 177.629 250.035C177.536 249.99 177.432 249.977 177.332 250C177.232 250.022 177.141 250.079 177.074 250.161C177.007 250.243 176.967 250.346 176.96 250.454ZM180.541 309.148C180.541 309.01 180.489 308.877 180.397 308.779C180.305 308.682 180.181 308.627 180.051 308.627C179.921 308.627 179.796 308.682 179.704 308.779C179.612 308.877 179.561 309.01 179.561 309.148C179.372 322.879 179.146 355.694 179.259 359.262C179.285 359.42 179.362 359.564 179.478 359.667C179.593 359.77 179.739 359.827 179.89 359.827C180.041 359.827 180.188 359.77 180.303 359.667C180.419 359.564 180.496 359.42 180.522 359.262C180.786 352.787 180.541 312.355 180.541 309.148ZM231.127 171.274C231.147 171.331 231.183 171.378 231.231 171.411C231.278 171.443 231.334 171.459 231.391 171.455C236.366 168.722 240.846 165.07 244.621 160.67C244.674 160.611 244.704 160.532 244.704 160.45C244.704 160.368 244.674 160.289 244.621 160.229C240.305 156.982 228.111 151.59 228.092 153.113C227.997 159.318 229.027 165.484 231.127 171.274ZM92.3733 200.361C93.9003 200.428 95.4086 199.984 96.6865 199.092C97.9643 198.201 98.9474 196.906 99.4975 195.389C100.006 193.685 99.8179 193.385 98.2724 183.462C99.3994 184.423 100.583 185.307 101.816 186.108C102.204 186.267 102.633 186.267 103.021 186.109C103.409 185.95 103.728 185.644 103.916 185.249C104.104 184.855 104.147 184.4 104.037 183.974C103.928 183.547 103.674 183.179 103.323 182.941C100.171 181.197 97.749 178.256 96.5385 174.702C96.3689 174.081 94.1637 173.88 93.3345 175.384C93.3345 175.564 96.2181 192.603 96.2558 192.783C96.3786 193.296 96.3786 193.834 96.2558 194.347C95.9757 194.991 95.5473 195.549 95.0102 195.969C94.4731 196.39 93.8448 196.659 93.1837 196.752C92.6566 196.863 92.1141 196.861 91.5876 196.747C91.0612 196.633 90.5614 196.408 90.1173 196.087C89.6732 195.765 89.2937 195.353 89.0008 194.874C88.7079 194.395 88.5076 193.858 88.4113 193.296C88.3151 192.734 88.325 192.157 88.4403 191.599C88.5557 191.041 88.7743 190.513 89.0833 190.045C89.3924 189.578 89.7857 189.18 90.2405 188.876C90.6953 188.572 91.2025 188.367 91.7324 188.273C92.1748 188.191 92.5683 187.925 92.8263 187.534C93.0843 187.143 93.1858 186.659 93.1083 186.188C93.0308 185.718 92.7808 185.299 92.4132 185.025C92.0456 184.75 91.5906 184.643 91.1482 184.725C89.8406 184.957 88.6137 185.552 87.5912 186.449C86.5687 187.347 85.7868 188.515 85.3244 189.837C84.8999 191.031 84.7586 192.319 84.9128 193.585C85.0671 194.852 85.5123 196.059 86.209 197.099C86.9057 198.139 87.8325 198.981 88.9076 199.549C89.9827 200.118 91.173 200.397 92.3733 200.361Z" fill="#48BA86"/>
<path d="M113.256 186.468C113.058 182.417 111.725 178.523 109.427 175.286C107.129 172.049 103.973 169.618 100.365 168.306C84.0993 162.453 69.1346 182.719 78.7656 198.094C81.0377 201.694 84.3458 204.413 88.1937 205.844C92.0417 207.274 96.2221 207.34 100.108 206.03C103.994 204.72 107.376 202.105 109.746 198.578C112.117 195.051 113.348 190.802 113.256 186.468ZM83.1004 173.638C94.6538 162.333 111.616 171.634 112.069 186.488C112.026 190.271 111 193.969 109.104 197.17C107.208 200.372 104.516 202.954 101.326 204.629C90.809 209.5 78.1059 201.101 77.2201 189.274C76.9875 186.366 77.3924 183.441 78.403 180.728C79.4135 178.015 81.0022 175.588 83.0439 173.638H83.1004ZM218.235 170.892C219.872 173.558 222.088 175.765 224.695 177.33C227.302 178.894 230.224 179.769 233.216 179.881C236.207 179.993 239.18 179.338 241.884 177.973C244.588 176.607 246.944 174.57 248.753 172.034C250.562 169.497 251.771 166.536 252.279 163.398C252.787 160.261 252.578 157.039 251.671 154.005C250.763 150.972 249.183 148.214 247.064 145.966C244.945 143.717 242.349 142.043 239.495 141.084C222.57 135.512 208.962 156.479 218.235 170.892ZM222.57 146.457C234.35 134.91 251.086 144.913 251.519 159.306C251.482 163.081 250.466 166.771 248.584 169.972C246.702 173.172 244.026 175.759 240.852 177.447C230.354 182.318 217.632 173.939 216.727 162.092C216.5 159.178 216.914 156.247 217.938 153.532C218.962 150.818 220.568 148.395 222.627 146.457H222.57ZM102.004 75.9964C88.0761 44.7253 52.3794 31.395 23.5808 52.2424C-13.7367 79.3641 -4.91619 136.614 37.0378 152.009C78.0117 167.484 122.736 122.582 102.004 75.9964ZM75.75 147.96C72.3298 149.741 68.7239 151.087 65.0071 151.969C65.2521 149.484 65.5537 143.069 65.6667 140.062C67.4384 143.069 70.6424 146.076 74.6192 145.474C78.0871 144.893 81.1592 141.465 84.0428 135.452C86.866 128.88 88.4538 121.784 88.7169 114.564C89.024 113.728 89.2207 112.851 89.3012 111.958C90.259 109.611 91.3738 107.34 92.6372 105.163C93.3156 104.534 93.9059 103.805 94.3899 102.998C94.9167 101.444 95.034 99.7665 94.7292 98.1468C94.6701 96.5224 94.1067 94.9646 93.1272 93.7167C93.8999 92.0529 96.0485 84.4556 96.4066 82.9723C96.4374 82.8133 96.4121 82.6479 96.3357 82.5074C96.2592 82.367 96.1369 82.2613 95.992 82.2105C92.2135 81.5978 88.3914 81.3429 84.5705 81.4488C84.4386 81.1882 77.6536 101.795 77.0316 103.499C77.0029 103.592 76.9924 103.691 77.0008 103.789C77.0091 103.887 77.0362 103.982 77.0803 104.068C77.1244 104.154 77.1847 104.23 77.2573 104.291C77.33 104.352 77.4135 104.396 77.5028 104.421C79.3759 104.73 81.2634 104.931 83.157 105.022C83.157 105.884 82.7989 108.27 82.667 109.032C82.1295 109.757 81.6917 110.56 81.3665 111.417C79.0265 113.582 77.3794 116.469 76.6547 119.676C73.3187 104.1 71.0005 97.4051 57.8074 89.6074C57.1478 89.2265 56.3562 88.9459 55.64 88.4447C64.7621 90.77 65.7798 91.8725 66.1191 91.3914C76.4474 75.9162 71.6413 58.216 61.0492 51.0998C51.1355 43.4825 41.3538 50.6788 37.7917 62.7262C35.1531 72.2078 39.6764 80.5067 42.0135 83.9545C39.8649 84.175 39.1298 84.4356 37.4147 84.6361C22.9023 86.2998 11.1417 104.802 5.75135 119.255C-10.3253 80.0256 24.6928 35.364 65.4029 45.7075C111.937 59.2784 120.399 124.988 75.75 147.96ZM18.0963 137.937C19.5287 135.572 23.1097 128.997 23.9389 127.453C34.418 136.033 54.0945 137.156 64.4228 129.839C64.4228 130.18 63.9516 149.504 63.9516 152.25C55.7884 153.839 47.3886 153.372 39.4256 150.887C31.4625 148.401 24.1576 143.966 18.0963 137.937ZM77.2201 124.146C77.1861 123.521 77.1168 122.898 77.0128 122.282C77.1824 121.72 77.2955 121.219 77.4651 120.558C78.6902 122.723 82.7423 126.571 84.4198 126.792C84.5042 126.799 84.5884 126.776 84.6588 126.726C84.7292 126.675 84.7817 126.602 84.8078 126.516C84.8339 126.43 84.8321 126.338 84.8028 126.253C84.7734 126.169 84.7182 126.097 84.6459 126.05C81.8556 124.206 79.614 121.557 78.1813 118.413C78.6154 117.155 79.2533 115.988 80.066 114.965C81.5434 117.431 83.621 119.426 86.0783 120.738C86.1216 120.75 86.1667 120.753 86.211 120.746C86.2553 120.739 86.2979 120.723 86.3364 120.699C86.3749 120.675 86.4085 120.643 86.4354 120.605C86.4622 120.567 86.4818 120.524 86.4929 120.478C86.5041 120.431 86.5066 120.384 86.5003 120.336C86.494 120.289 86.4791 120.244 86.4563 120.203C86.4336 120.162 86.4035 120.126 86.3677 120.098C86.3319 120.069 86.2913 120.048 86.2479 120.037C84.0436 118.425 82.2289 116.282 80.9519 113.782C81.1969 113.462 81.4607 113.141 81.7246 112.84C83.2384 114.425 85.2561 115.348 87.3788 115.426C87.0454 121.434 85.8833 127.358 83.9297 133.006C82.3853 136.977 79.9681 140.497 76.8809 143.269C79.4781 137.907 80.0707 131.698 78.5394 125.89C78.5017 125.752 78.4218 125.632 78.3125 125.549C78.2032 125.465 78.0708 125.423 77.9363 125.429C76.3343 125.429 78.5771 132.405 67.2876 140.122C66.7044 139.234 66.1816 138.303 65.7233 137.336C65.8364 130.52 65.5725 123.725 65.3086 117.15C65.3086 117.028 65.263 116.91 65.1817 116.824C65.1004 116.738 64.9901 116.689 64.8752 116.689C64.7602 116.689 64.6499 116.738 64.5686 116.824C64.4873 116.91 64.4417 117.028 64.4417 117.15C64.5548 120.638 64.4417 124.086 64.4417 128.215C58.109 132.445 50.8528 133.908 41.58 132.806C35.4116 132.46 29.4687 130.225 24.4667 126.371C25.1263 125.088 27.878 119.475 28.6508 117.972C28.688 117.903 28.7073 117.826 28.7065 117.747C28.7058 117.667 28.685 117.59 28.6465 117.522C28.608 117.455 28.553 117.399 28.4875 117.362C28.4219 117.325 28.3481 117.307 28.2738 117.31C27.8215 117.31 28.2738 117.19 24.5044 124.066C18.559 121.589 13.7577 116.741 11.1228 110.555C14.1734 104.361 18.1736 98.7517 22.9589 93.9573C25.4169 97.5869 28.5359 100.654 32.1304 102.976C35.725 105.299 39.7217 106.829 43.8833 107.476C48.0448 108.123 52.2861 107.873 56.3553 106.743C60.4244 105.612 64.2383 103.623 67.5703 100.893C67.6342 100.821 67.672 100.726 67.6769 100.627C67.6818 100.528 67.6535 100.43 67.5971 100.351C67.5407 100.272 67.4598 100.216 67.3686 100.194C67.2775 100.173 67.182 100.186 67.0991 100.232C64.364 102.231 61.3916 103.835 58.2598 105.002C52.0819 107.084 45.4445 107.042 39.2903 104.883C33.1361 102.724 27.7779 98.5572 23.9766 92.975C25.7817 91.4172 27.7408 90.0729 29.8193 88.9659C36.9624 106.065 54.5846 107.288 63.1035 94.9796C67.5138 98.6279 68.8708 99.0889 72.3952 108.15C64.3097 115.647 56.9405 119.375 49.8916 119.295C44.0342 119.338 38.2441 117.966 32.9582 115.282C27.6723 112.598 23.0287 108.671 19.3779 103.8C19.0764 103.359 18.3979 103.8 18.6994 104.281C24.3536 113.442 35.0777 119.455 48.1953 120.778C57.0724 121.7 66.496 116.308 72.8287 109.452C73.8088 112.9 74.9961 117.972 75.1281 118.573C74.5438 120.578 68.23 126.812 67.2311 127.053C66.6468 127.193 66.9484 128.155 67.4761 127.914C70.5137 126.045 73.2499 123.669 75.5804 120.878C75.7877 121.921 76.1647 123.785 76.2212 124.246C76.2777 124.707 77.2578 124.787 77.2201 124.146ZM88.5285 93.9172C88.2949 93.8472 88.0488 93.8391 87.8116 93.8934C87.5743 93.9478 87.3532 94.063 87.1674 94.229C86.9816 94.395 86.8368 94.6067 86.7455 94.8459C86.6542 95.085 86.6193 95.3442 86.6437 95.601C84.6271 96.062 84.759 97.6056 85.9275 98.6078C87.0843 99.3843 88.2797 100.094 89.5085 100.733C89.075 101.835 88.7358 102.737 88.2834 103.8C86.3987 103.8 80.5372 103.419 78.5017 103.238C79.2556 100.733 83.2324 89.0862 85.4187 82.7919C87.3034 82.8921 93.2026 83.0524 95.1061 83.3732C94.6538 85.3777 92.7314 91.211 92.1848 93.0352C91.8938 92.831 91.567 92.6916 91.2239 92.6254C90.8809 92.5592 90.5289 92.5675 90.1889 92.6499C89.8491 92.7323 89.5284 92.8871 89.2462 93.1049C88.9641 93.3227 88.7263 93.599 88.5473 93.9172H88.5285ZM89.3577 104.762C89.6781 103.679 90.0739 102.637 90.6016 101.274C90.6856 101.29 90.7721 101.276 90.8482 101.235C90.9243 101.194 90.986 101.129 91.0241 101.048C91.0623 100.966 91.0747 100.874 91.0598 100.785C91.0448 100.696 91.0031 100.614 90.9409 100.552C90.4697 100.091 86.0972 97.6256 86.2668 97.1445C86.4364 96.6634 87.5295 97.0042 88.1515 97.385C89.3782 97.9223 90.6375 98.371 91.921 98.7281C92.0034 98.7376 92.0865 98.718 92.1573 98.6722C92.2282 98.6264 92.2829 98.557 92.3129 98.4748C92.343 98.3927 92.3467 98.3022 92.3236 98.2175C92.3004 98.1329 92.2516 98.0587 92.1848 98.0065C90.713 97.4383 89.2775 96.7687 87.8876 96.0019C87.6049 95.7213 87.473 94.9595 87.8876 94.9796C89.2724 95.3305 90.5623 96.0165 91.6571 96.9841C91.7004 97.0276 91.7513 97.0615 91.807 97.084C91.8626 97.1065 91.9219 97.1171 91.9814 97.1153C92.0409 97.1134 92.0995 97.0991 92.1538 97.0732C92.2081 97.0472 92.2571 97.0102 92.2979 96.9641C92.3387 96.918 92.3706 96.8639 92.3918 96.8047C92.413 96.7455 92.4229 96.6824 92.4212 96.6192C92.4194 96.5559 92.406 96.4936 92.3816 96.4358C92.3572 96.3781 92.3224 96.326 92.2791 96.2825C91.571 95.688 90.8212 95.1519 90.0362 94.6789C89.0939 94.0976 89.7724 93.3759 90.7147 93.5162C91.9775 93.7167 93.5984 95.5208 93.4287 99.2292C93.5857 100.225 93.464 101.249 93.0786 102.172C92.6933 103.095 92.0613 103.877 91.2613 104.421C90.0468 106.471 89.0181 108.639 88.1892 110.896C87.3604 111.124 86.4877 111.096 85.6732 110.816C84.8587 110.535 84.1363 110.014 83.5905 109.312C83.7224 108.611 84.1182 106.205 84.2313 105.303C88.4342 105.443 89.1693 105.423 89.3766 104.762H89.3577ZM77.8044 129.037C78.4533 134.152 77.6596 139.357 75.5238 143.991C74.1469 144.411 72.6812 144.364 71.3302 143.858C69.9793 143.351 68.8101 142.41 67.985 141.165C72.5777 138.582 76.0846 134.251 77.8044 129.037ZM43.1254 85.7586C43.159 85.8008 43.2028 85.8324 43.2521 85.8499C43.3014 85.8673 43.3543 85.87 43.405 85.8575C43.4556 85.8451 43.502 85.8181 43.5392 85.7794C43.5763 85.7407 43.6027 85.6919 43.6155 85.6383C46.4614 73.7313 46.386 74.4729 46.1222 74.3126C42.9558 72.4684 43.9547 68.8802 45.2363 68.4593C45.8771 68.2388 46.7253 68.6798 47.5734 69.682C48.1272 70.2358 48.5475 70.9234 48.7985 71.6866C50.6832 77.2994 61.1246 69.9025 65.6479 66.3545C65.9618 66.0769 66.333 65.8825 66.7312 65.7871C67.1294 65.6917 67.5431 65.698 67.9386 65.8056C68.334 65.9132 68.6998 66.119 69.006 66.406C69.3122 66.6931 69.5501 67.0532 69.7001 67.457C70.1335 68.339 69.342 69.0807 68.8708 68.1185C67.8907 66.3545 66.1756 67.3367 66.2133 67.8178C66.5903 72.7891 65.7233 79.8452 62.0858 83.293C58.4483 86.7408 54.2265 84.9568 53.8495 85.2976C53.4726 85.6383 53.6799 85.9591 53.6799 86.3399C53.5113 86.7654 53.4365 87.2262 53.4612 87.6871C53.4858 88.148 53.6093 88.5969 53.8221 88.9992C54.0349 89.4016 54.3314 89.7469 54.689 90.0086C55.0465 90.2704 55.4557 90.4417 55.885 90.5094C57.4252 91.1284 58.8926 91.9357 60.2576 92.9149C53.548 103.94 38.8848 102.316 33.2683 87.4625C36.4081 86.3223 39.6806 85.6478 42.9935 85.4579L43.1254 85.7586ZM10.5009 111.818C11.7186 114.913 13.5364 117.7 15.8358 119.997C18.1351 122.294 20.8642 124.049 23.8447 125.148C23.6185 125.529 18.3602 134.67 17.1162 136.915C12.54 132.239 8.82052 126.699 6.14714 120.578C8.01302 117.01 9.03077 114.845 10.5009 111.838V111.818ZM339.913 76.2971C329.302 40.215 291.061 23.6373 261.358 42.841C227.885 64.4501 225.887 112.56 257.814 136.855C299.768 168.687 354.501 124.747 339.913 76.2971ZM282.617 130.981C288.856 139.781 295.113 140.463 299.297 139.441C307.1 137.556 313.941 128.235 315.939 116.749C315.967 116.614 315.943 116.472 315.872 116.355C315.801 116.239 315.69 116.157 315.562 116.128C315.435 116.098 315.302 116.124 315.192 116.199C315.083 116.275 315.006 116.393 314.978 116.529C314.091 121.433 312.156 126.056 309.324 130.039C298.242 145.394 286.707 137.897 277.868 120.899C274.995 116.025 273.382 110.431 273.194 104.682C277.679 102.437 277.585 102.316 278.113 102.797C283.352 107.588 292.87 119.014 294.19 120.558C294.213 120.691 294.28 120.811 294.378 120.898C294.476 120.984 294.599 121.032 294.727 121.032C294.854 121.032 294.978 120.984 295.076 120.898C295.174 120.811 295.24 120.691 295.264 120.558C297.375 111.497 299.033 102.096 305.309 95.621C307.64 95.0506 310 94.6288 312.377 94.3582C320.727 105.584 319.539 120.558 319.501 134.77C313.904 139.316 307.474 142.565 300.625 144.309C293.776 146.052 286.66 146.251 279.734 144.893C280.141 140.145 281.11 135.471 282.617 130.981ZM313.979 94.1778C314.997 94.1778 314.903 92.4137 313.979 92.5541C310.046 92.9031 306.183 93.8761 302.52 95.4406C302.011 95.6611 301.427 95.7814 301.615 96.3226C301.804 96.8639 302.219 96.4629 303.632 96.0821C298.091 102.316 295.999 111.096 294.548 118.994C293.511 117.651 290.948 114.544 290.288 113.742C296.093 100.131 295.773 99.7103 299.184 96.9641C300.503 95.8415 305.875 91.7121 310.323 88.7454C312.698 87.1418 314.394 86.0192 318.352 91.8525C322.027 97.2848 322.121 97.365 319.765 109.292C319.057 103.8 317.018 98.598 313.847 94.1978L313.979 94.1778ZM272.515 82.3709C272.855 82.3709 273.024 82.6515 273.288 83.0725C279.508 93.0953 279.036 91.9527 279.036 92.1531C279.036 93.1153 280.261 94.5586 281.487 95.7814C280.488 96.1823 278.622 96.9841 277.51 97.4652C277.51 93.7768 275.06 93.7768 274.4 95.3204C273.231 93.4962 270.631 89.888 270.103 89.1864C269.96 88.9705 269.766 88.7978 269.542 88.6854C269.317 88.5729 269.069 88.5245 268.821 88.5449C267.935 87.3422 265.938 84.5358 265.165 83.313C265.353 83.273 271.912 82.4912 272.496 82.3709H272.515ZM285.331 101.374C285.049 103.82 281.449 101.093 282.844 99.7304C283.101 100.195 283.46 100.586 283.89 100.872C284.319 101.158 284.807 101.33 285.313 101.374H285.331ZM285.124 100.111C284.351 99.9709 282.787 98.1067 283.239 97.6857C283.692 97.2648 285.633 99.7905 285.595 100.091C285.437 100.148 285.267 100.155 285.105 100.111H285.124ZM289.44 112.84C287.8 110.996 280.356 102.817 280.167 102.657C279.894 102.223 279.541 101.852 279.13 101.566C278.718 101.28 278.257 101.085 277.774 100.993C277.526 100.311 277.429 99.5769 277.491 98.8484L282.354 96.6434C282.806 97.0643 282.354 96.6434 282.127 97.5655C282.019 97.9956 282.066 98.4532 282.259 98.8484C280.375 100.332 282.259 103.78 284.747 103.519C285.486 104.058 286.125 104.737 286.632 105.524C287.189 107.57 287.98 109.536 288.988 111.377C289.61 112.56 289.572 112.419 289.421 112.84H289.44ZM287.838 105.684C287.838 105.042 290.005 102.637 290.345 102.336C291.355 102.649 292.338 103.051 293.285 103.539C292.738 104.862 290.986 109.092 290.119 111.237C289.173 109.476 288.402 107.615 287.819 105.684H287.838ZM287.065 104.401C286.701 103.89 286.269 103.438 285.784 103.058C286.016 102.791 286.19 102.473 286.295 102.127C286.399 101.781 286.43 101.414 286.387 101.053C286.495 100.977 286.586 100.876 286.655 100.759C286.723 100.641 286.767 100.509 286.783 100.372C286.933 99.4297 285.935 98.6479 285.275 97.9864C283.323 96.3571 281.586 94.4558 280.111 92.3336C281.609 93.1315 283.04 94.0637 284.389 95.1199C286.651 96.904 289.553 98.5878 289.327 101.555C288.495 102.435 287.732 103.388 287.046 104.401H287.065ZM269.123 89.7477C271.039 92.0491 272.796 94.4943 274.381 97.0643C274.436 97.1537 274.514 97.2239 274.607 97.266C274.699 97.3082 274.801 97.3204 274.899 97.3011C274.998 97.2818 275.089 97.2319 275.161 97.1577C275.233 97.0834 275.283 96.9882 275.305 96.8839C275.305 96.3226 275.55 95.3203 276.04 95.5409C277.076 97.0443 276.04 99.3896 276.737 101.254C271.686 103.619 275.814 103.018 272.704 99.2493C269.82 96.022 268.689 90.77 269.123 89.7477ZM288.554 87.7431C289.242 85.1205 289.242 82.3475 288.554 79.7249C288.275 78.5562 288.104 77.3611 288.045 76.1568C289.177 76.2852 290.321 76.2312 291.438 75.9964C294.736 75.4151 296.432 73.5308 297.243 74.1121C297.771 74.493 297.865 75.6757 297.526 77.56C297.518 77.6211 297.528 77.6832 297.555 77.7378C297.582 77.7925 297.624 77.837 297.675 77.8655C297.727 77.8939 297.785 77.9049 297.843 77.8968C297.9 77.8888 297.954 77.8622 297.997 77.8205C298.714 77.1955 299.614 76.8553 300.541 76.8584C303.048 77.0789 302.954 80.8675 300.541 82.4912C300.489 82.5351 300.453 82.597 300.44 82.6661C300.427 82.7352 300.437 82.8071 300.468 82.8692C300.499 82.9313 300.55 82.9797 300.612 83.0058C300.674 83.032 300.742 83.0343 300.805 83.0124C301.71 82.6818 302.68 82.6096 303.62 82.8031C304.559 82.9966 305.434 83.4489 306.158 84.1149C306.552 85.7931 307.089 87.4301 307.76 89.006C305.14 90.9103 301.634 93.5162 299.128 95.5809C296.866 90.5295 294.058 94.1176 292.116 90.0684C290.156 86.6005 288.912 87.8033 288.46 87.683L288.554 87.7431ZM320.142 111.798C321.5 107.396 322.281 102.816 322.46 98.1869C322.193 95.9586 321.344 93.8546 320.01 92.1131C314.658 83.8944 312.471 85.2575 308.344 88.2242C307.967 87.0014 307.138 84.4556 306.987 83.7741C307.232 83.5135 307.873 82.852 308.061 82.7117C308.758 81.6711 309.299 80.5214 309.663 79.3039C310.145 77.6031 310.343 75.8255 310.247 74.052C310.342 72.371 310.091 70.6882 309.512 69.1208C308.314 66.892 306.418 65.1803 304.156 64.2831C301.894 63.3859 299.408 63.3599 297.13 64.2096C293.605 62.9668 289.063 61.6838 287.348 62.4656C285.984 62.8154 284.762 63.621 283.86 64.7642C282.959 65.9074 282.426 67.328 282.339 68.8172C282.253 70.3064 282.618 71.7859 283.38 73.0384C284.142 74.2909 285.262 75.2503 286.575 75.7759C286.518 77.3237 286.684 78.8716 287.065 80.3663C287.704 82.4703 287.757 84.7261 287.216 86.8611C286.877 88.4648 287.367 89.1864 289.101 88.8657C291.136 89.026 290.024 92.8748 294.642 93.5964C295.754 93.7969 296.64 93.9773 297.789 96.2425C295.867 97.8768 294.422 100.06 293.624 102.537C292.599 101.894 291.512 101.37 290.382 100.973C290.258 99.9737 289.93 99.015 289.422 98.1636C288.915 97.3121 288.239 96.5882 287.442 96.042C285.686 94.4822 283.793 93.106 281.788 91.9326C281.392 91.7121 280.563 91.0306 279.903 91.1709C273.345 80.5468 274.023 81.0078 271.969 81.0078C269.315 81.1161 266.677 81.492 264.091 82.1304C263.998 82.1675 263.914 82.2264 263.845 82.3027C263.777 82.3791 263.725 82.4709 263.695 82.5714C263.582 83.0525 263.695 82.7718 266.333 86.7809C268.784 90.4292 267.898 88.6452 268.048 90.6096C268.383 94.3971 269.834 97.9753 272.195 100.833C272.644 101.568 272.825 102.452 272.704 103.319L272.459 103.439C271.818 103.78 272.628 110.615 273.081 112.219C275.151 118.519 278.134 124.437 281.92 129.759C280.065 134.496 278.926 139.516 278.546 144.633C261.716 140.623 247.335 128.456 240.852 112.66C234.368 96.8639 236.027 78.3417 245.865 61.0424C273.1 18.5257 332.826 35.6045 339.913 85.2775C342.514 104.14 334.749 122.041 320.802 133.788C320.992 126.461 320.728 119.128 320.01 111.838L320.142 111.798ZM312.716 152.49C312.881 155.706 313.406 158.889 314.281 161.972C314.341 162.163 314.47 162.321 314.64 162.411C314.809 162.502 315.005 162.517 315.185 162.453C316.618 162.012 314.507 159.907 313.885 152.43C313.828 151.648 312.66 151.689 312.716 152.49ZM318.484 176.445C318.446 176.277 318.348 176.133 318.21 176.042C318.072 175.952 317.906 175.924 317.749 175.964C317.591 176.004 317.455 176.108 317.37 176.255C317.285 176.402 317.259 176.578 317.296 176.746C319.709 189.775 319.388 191.038 320.613 190.777C321.839 190.517 320.972 189.274 318.484 176.445ZM322.913 207.435C321.876 207.736 323.252 207.896 324.176 220.064C324.176 221.167 325.872 221.106 325.759 220.064C325.284 215.95 324.534 211.877 323.516 207.876C323.51 207.802 323.489 207.73 323.454 207.665C323.419 207.601 323.371 207.545 323.313 207.503C323.255 207.461 323.189 207.433 323.12 207.421C323.051 207.409 322.98 207.414 322.913 207.435ZM275.078 174.28C277.091 167.929 278.771 161.464 280.111 154.916C280.139 154.765 280.112 154.609 280.035 154.478C279.959 154.348 279.838 154.254 279.698 154.216C279.558 154.177 279.409 154.197 279.283 154.271C279.156 154.346 279.061 154.469 279.018 154.615C277.51 161.05 275.512 167.284 273.646 173.819C273.615 174.012 273.651 174.21 273.747 174.377C273.844 174.543 273.994 174.667 274.171 174.723C274.347 174.78 274.536 174.766 274.703 174.685C274.871 174.603 275.004 174.459 275.078 174.28ZM267.427 200.76C268.482 200.76 268.293 199.397 271.29 187.47C271.33 187.326 271.315 187.172 271.248 187.04C271.181 186.909 271.067 186.811 270.932 186.768C270.797 186.726 270.652 186.742 270.528 186.813C270.404 186.885 270.312 187.006 270.272 187.149C269.688 189.154 267.125 197.593 266.654 199.718C266.625 199.842 266.624 199.972 266.649 200.097C266.674 200.222 266.727 200.339 266.801 200.44C266.875 200.54 266.971 200.621 267.079 200.677C267.187 200.732 267.306 200.761 267.427 200.76ZM258.87 226.819C259.53 226.819 259.492 226.298 260.038 223.973C260.773 220.806 261.923 215.955 262.375 214.592C262.658 213.79 261.508 213.429 261.226 214.191C259.955 218.118 258.953 222.137 258.229 226.218C258.243 226.386 258.318 226.542 258.437 226.654C258.556 226.766 258.711 226.825 258.87 226.819ZM252.65 243.878C250.914 247.457 249.573 251.237 248.655 255.144C248.605 255.346 248.632 255.561 248.731 255.741C248.83 255.922 248.992 256.053 249.182 256.106C249.372 256.159 249.574 256.13 249.744 256.025C249.914 255.919 250.037 255.747 250.087 255.545C253.235 244.179 254.252 244.079 253.329 243.517C253.262 243.489 253.191 243.477 253.119 243.48C253.048 243.483 252.978 243.502 252.914 243.536C252.85 243.571 252.793 243.619 252.748 243.677C252.702 243.736 252.669 243.805 252.65 243.878ZM232.955 185.606C233.143 187.169 233.822 193.624 234.048 195.408C234.062 195.519 234.096 195.625 234.148 195.722C234.2 195.818 234.27 195.903 234.353 195.971C234.436 196.039 234.531 196.089 234.632 196.118C234.734 196.147 234.839 196.154 234.943 196.14C235.047 196.125 235.147 196.089 235.238 196.033C235.329 195.978 235.409 195.904 235.473 195.815C235.537 195.727 235.583 195.626 235.611 195.518C235.638 195.41 235.645 195.298 235.631 195.187C235.386 193.464 234.331 186.989 234.105 185.445C233.991 184.724 232.861 184.864 232.955 185.606ZM235.914 214.291C236.121 215.554 236.894 221.006 237.139 222.449C237.327 223.532 238.835 223.131 238.647 222.069C238.194 219.403 237.591 216.716 237.12 214.05C236.969 213.148 235.782 213.469 235.914 214.291ZM238.967 242.174C239.051 245.539 239.392 248.891 239.985 252.197C240.211 253.3 241.757 252.859 241.568 251.776C240.924 248.591 240.433 245.373 240.098 242.134C239.928 241.393 238.835 241.373 238.967 242.174ZM189.964 75.3549C189.606 74.6333 188.607 75.2347 188.928 75.9563C195.053 89.3267 194.582 89.447 195.468 89.447C195.614 89.4456 195.757 89.4049 195.885 89.3288C196.012 89.2526 196.119 89.1435 196.196 89.0115C196.273 88.8795 196.318 88.729 196.325 88.5738C196.333 88.4186 196.304 88.2639 196.24 88.124C194.167 83.8142 191.981 79.6247 189.964 75.3549ZM201.65 101.494C201.367 100.813 200.406 101.354 200.688 102.036C202.573 106.506 204.137 111.096 206.06 115.586C206.475 116.589 207.85 115.787 207.436 114.805C205.57 110.194 203.365 105.564 201.65 101.494ZM218.235 142.327C218.349 142.334 218.463 142.311 218.567 142.259C218.671 142.208 218.761 142.131 218.83 142.034C218.899 141.937 218.944 141.823 218.962 141.703C218.98 141.583 218.97 141.46 218.933 141.345C218.273 139.34 215.012 131.984 214.183 129.999C213.844 129.177 212.713 129.819 213.033 130.641C217.519 141.586 217.444 142.327 218.235 142.327ZM252.575 135.051C251.878 136.314 248.674 140.944 247.807 142.127C247.742 142.215 247.695 142.316 247.667 142.423C247.639 142.531 247.632 142.644 247.645 142.754C247.658 142.865 247.692 142.972 247.744 143.069C247.796 143.166 247.865 143.251 247.948 143.32C248.031 143.388 248.126 143.438 248.227 143.468C248.328 143.497 248.434 143.505 248.538 143.491C248.642 143.477 248.743 143.442 248.834 143.386C248.925 143.331 249.005 143.257 249.069 143.169C250.692 140.762 252.165 138.244 253.48 135.632C253.552 135.504 253.574 135.351 253.54 135.207C253.507 135.062 253.42 134.937 253.3 134.86C253.181 134.783 253.037 134.76 252.901 134.796C252.765 134.831 252.647 134.923 252.575 135.051ZM219.649 59.4387C220.421 59.4387 220.836 58.1959 220.026 57.8151C218.311 56.9932 211.092 54.4474 209.302 53.8059C208.567 53.5053 208.19 54.708 208.925 55.0087C210.828 55.7303 219.027 59.4387 219.649 59.4387ZM226.189 62.4456C229.572 64.4033 233.126 66.0077 236.8 67.2365C237.011 67.2751 237.228 67.2295 237.409 67.1082C237.59 66.987 237.722 66.7987 237.781 66.5798C237.839 66.3608 237.82 66.1265 237.726 65.9221C237.631 65.7177 237.469 65.5575 237.271 65.4725C233.664 64.431 230.156 63.0352 226.792 61.303C226.076 60.9622 225.473 62.1249 226.189 62.4456ZM136.231 61.2429C143.77 55.8506 146.031 57.0734 145.654 55.6501C145.633 55.5681 145.596 55.4915 145.546 55.4248C145.496 55.3581 145.435 55.3025 145.364 55.2615C145.294 55.2204 145.217 55.1947 145.137 55.1857C145.058 55.1767 144.977 55.1847 144.901 55.2091C141.498 56.1609 138.259 57.6835 135.307 59.7194C134.44 60.441 135.307 61.8843 136.231 61.2429ZM119.099 67.9982C118.514 68.4994 118.986 69.3212 119.645 69.3212C119.871 69.3212 119.909 69.3212 121.982 68.2187C124.056 67.1162 126.43 65.9335 127.316 65.6529C127.465 65.5906 127.586 65.4713 127.657 65.3186C127.727 65.1659 127.741 64.9907 127.696 64.8275C127.651 64.6643 127.551 64.5248 127.414 64.4364C127.278 64.348 127.115 64.3172 126.958 64.3499C124.231 65.2846 121.598 66.5068 119.099 67.9982Z" fill="#48BA86"/>
<path d="M111.822 71.7879C110.842 72.3692 105.433 75.3961 104.849 75.797C104.729 75.886 104.637 76.0121 104.586 76.1583C104.536 76.3044 104.528 76.4636 104.565 76.6143C104.602 76.7651 104.682 76.9001 104.793 77.0013C104.905 77.1025 105.042 77.1649 105.188 77.1801C107.692 75.9221 110.122 74.503 112.463 72.9305C112.569 72.824 112.638 72.6823 112.658 72.5288C112.678 72.3753 112.648 72.2191 112.573 72.086C112.499 71.9529 112.384 71.8508 112.247 71.7966C112.111 71.7424 111.961 71.7393 111.822 71.7879ZM95.7269 39.755C98.2564 39.7731 100.763 39.2462 103.096 38.206C105.429 37.1659 107.539 35.634 109.301 33.7028C111.062 31.7716 112.437 29.4811 113.343 26.9693C114.25 24.4575 114.668 21.7765 114.574 19.088C114.009 1.18729 92.2024 -7.35214 81.1768 7.88252C71.2255 21.1327 80.7999 39.755 95.7269 39.755ZM84.4185 6.31896C95.9719 -5.0068 112.934 4.3144 113.368 19.1682C113.333 22.9382 112.311 26.6233 110.417 29.8101C108.523 32.9968 105.831 35.559 102.644 37.2092C92.1082 42.1003 79.424 33.7012 78.5193 21.8743C78.3021 18.9726 78.7219 16.0569 79.7457 13.3574C80.7695 10.6578 82.3692 8.24829 84.4185 6.31896ZM137.643 22.7764C140.979 23.1573 144.334 23.1973 147.67 23.3577C147.82 23.3577 147.964 23.2944 148.07 23.1816C148.176 23.0688 148.235 22.9158 148.235 22.7563C148.235 22.5969 148.176 22.4439 148.07 22.3311C147.964 22.2183 147.82 22.155 147.67 22.155C144.164 21.8142 142.016 21.3532 137.643 21.0525C136.644 20.9923 136.625 22.6561 137.643 22.7764ZM117.891 20.6516C119.418 20.832 125.694 21.293 127.315 21.5135C128.163 21.6538 128.502 20.2907 127.616 20.1304C124.426 19.5977 121.211 19.2498 117.985 19.088C117.889 19.0814 117.792 19.0951 117.701 19.1283C117.609 19.1615 117.525 19.2136 117.452 19.2815C117.379 19.3495 117.32 19.432 117.277 19.5243C117.235 19.6166 117.21 19.717 117.203 19.8197C117.197 19.9223 117.21 20.0253 117.241 20.1227C117.272 20.22 117.321 20.3099 117.385 20.3871C117.449 20.4644 117.527 20.5275 117.614 20.5729C117.7 20.6182 117.795 20.645 117.891 20.6516ZM42.9546 168.969C43.5012 165.281 43.6331 161.612 44.0477 157.944C44.142 157.262 43.0865 157.102 42.9923 157.804C42.4646 161.412 41.6541 165.04 41.2583 168.708C41.2602 168.929 41.3361 169.141 41.4724 169.307C41.6087 169.473 41.7963 169.581 42.0013 169.613C42.2063 169.644 42.4152 169.597 42.59 169.479C42.7649 169.36 42.8942 169.18 42.9546 168.969ZM40.9191 178.891C39.0344 189.896 38.6009 191.24 39.9579 191.24C40.9756 191.24 40.7872 190.518 42.0688 179.052C42.163 178.31 41.0699 178.15 40.9191 178.891ZM75.5792 197.213C72.7144 198.817 69.1523 200.681 68.0403 201.383C67.8858 201.48 67.766 201.629 67.6997 201.806C67.6333 201.984 67.6243 202.179 67.6739 202.363C67.7234 202.546 67.8289 202.707 67.9737 202.82C68.1184 202.933 68.2943 202.991 68.4738 202.986C71.1019 201.6 73.6564 200.061 76.1257 198.376C76.241 198.282 76.322 198.149 76.3547 197.999C76.3875 197.849 76.37 197.692 76.3052 197.554C76.2404 197.416 76.1324 197.306 75.9999 197.244C75.8673 197.182 75.7185 197.171 75.5792 197.213ZM64.5535 203.387C62.4959 204.413 60.4891 205.55 58.5413 206.795C57.9381 207.376 58.6543 208.338 59.3705 207.978C60.0867 207.617 64.1012 204.971 65.0247 204.51C65.9482 204.049 65.2509 203.066 64.5535 203.387ZM140.451 220.085C141.13 220.546 141.771 219.444 141.111 218.963C139.679 217.96 134.232 213.671 132.724 212.829C132.529 212.729 132.306 212.708 132.098 212.771C131.889 212.834 131.71 212.975 131.593 213.169C130.82 214.452 133.421 215.174 140.451 220.085ZM114.348 201.563C115.29 202.265 116.233 202.926 117.194 203.568C123.621 208.098 123.319 208.238 123.715 208.238C123.845 208.236 123.972 208.193 124.079 208.115C124.187 208.036 124.27 207.926 124.318 207.797C124.367 207.669 124.378 207.528 124.351 207.392C124.324 207.257 124.26 207.132 124.167 207.035C121.306 204.531 118.317 202.195 115.215 200.04C114.31 199.458 113.481 200.942 114.348 201.563ZM299.937 267.994C296.846 268.455 293.661 268.796 290.513 269.558C290.32 269.621 290.154 269.756 290.046 269.939C289.938 270.121 289.895 270.338 289.924 270.552C289.954 270.765 290.054 270.96 290.207 271.101C290.36 271.242 290.556 271.32 290.758 271.322C291.493 271.322 296.186 269.979 300.182 269.317C301.162 269.237 300.785 267.834 299.937 267.994ZM283.276 271.242C280.109 271.743 276.623 272.043 273.193 272.665C272.231 272.845 272.495 274.329 273.438 274.329C274.38 274.329 281.127 272.885 283.521 272.484C284.294 272.344 284.03 271.121 283.276 271.242ZM169.231 199.378C169.136 199.208 168.982 199.085 168.801 199.036C168.621 198.987 168.43 199.016 168.27 199.117C168.11 199.219 167.994 199.383 167.948 199.575C167.902 199.766 167.93 199.97 168.025 200.14C168.955 201.752 170.421 202.933 172.131 203.449C173.842 203.966 175.673 203.779 177.26 202.926C177.366 202.857 177.444 202.748 177.477 202.621C177.51 202.493 177.497 202.357 177.439 202.24C177.382 202.123 177.285 202.033 177.167 201.989C177.05 201.946 176.922 201.951 176.808 202.004C175.456 202.583 173.956 202.637 172.57 202.157C171.185 201.677 170.003 200.693 169.231 199.378ZM182.424 191.961C182.292 193.124 181.312 192.482 181.237 193.184C181.237 193.565 181.538 193.705 181.915 193.705C182.25 193.693 182.575 193.586 182.858 193.395C183.141 193.205 183.371 192.938 183.525 192.621C183.678 192.305 183.75 191.951 183.732 191.595C183.714 191.239 183.607 190.895 183.423 190.598C182.366 189.393 181.402 188.099 180.539 186.729C180.507 186.604 180.429 186.498 180.323 186.434C180.217 186.37 180.092 186.354 179.974 186.389C179.857 186.423 179.757 186.506 179.697 186.619C179.637 186.731 179.621 186.865 179.654 186.99C180.097 188.05 180.653 189.052 181.312 189.977C181.743 190.598 182.116 191.263 182.424 191.961ZM172.416 177.288C172.366 177.049 172.229 176.84 172.035 176.709C171.84 176.577 171.605 176.533 171.38 176.586C171.155 176.639 170.959 176.785 170.835 176.992C170.712 177.199 170.67 177.45 170.72 177.689C171.248 181.497 170.927 183.121 172.341 183.121C172.611 183.121 172.87 183.007 173.061 182.804C173.251 182.601 173.359 182.326 173.359 182.039C173.359 181.538 172.567 178.13 172.416 177.288ZM187.23 177.468C187.19 177.25 187.077 177.054 186.912 176.917C186.747 176.78 186.541 176.711 186.332 176.723C186.123 176.736 185.925 176.828 185.775 176.983C185.625 177.139 185.532 177.346 185.515 177.568C185.515 177.869 185.779 181.457 185.873 181.738C185.901 182.004 186.026 182.247 186.223 182.414C186.419 182.582 186.669 182.659 186.919 182.63C187.169 182.601 187.398 182.467 187.555 182.258C187.713 182.05 187.785 181.783 187.758 181.517C187.72 181.277 187.419 179.312 187.23 177.468ZM169.457 176.266C169.699 175.413 170.201 174.671 170.884 174.156C171.566 173.64 172.39 173.381 173.227 173.419C173.373 173.437 173.521 173.395 173.64 173.302C173.759 173.209 173.84 173.072 173.868 172.918C174.056 171.475 168.986 172.056 167.874 175.804C167.817 176.028 167.845 176.266 167.953 176.467C168.061 176.668 168.239 176.816 168.449 176.877C168.659 176.938 168.883 176.908 169.072 176.793C169.261 176.679 169.4 176.489 169.457 176.266ZM183.555 172.697C184.241 172.655 184.92 172.854 185.489 173.263C186.058 173.673 186.484 174.27 186.703 174.963C187.042 175.744 188.229 175.223 188.003 174.381C187.634 173.436 186.968 172.656 186.12 172.174C185.271 171.691 184.292 171.536 183.348 171.735C183.246 171.781 183.162 171.864 183.112 171.969C183.061 172.073 183.047 172.194 183.072 172.309C183.096 172.424 183.158 172.526 183.247 172.597C183.335 172.668 183.444 172.703 183.555 172.697ZM328.999 240.151C328.999 240.151 328 235.3 327.737 233.897C327.704 233.74 327.614 233.603 327.487 233.517C327.36 233.43 327.205 233.401 327.058 233.436C326.911 233.47 326.782 233.566 326.701 233.701C326.619 233.836 326.592 234 326.625 234.157L327.51 239.87C324.516 239.467 321.476 239.745 318.59 240.686C315.705 241.627 313.041 243.209 310.774 245.328C308.507 247.447 306.69 250.055 305.442 252.977C304.194 255.9 303.545 259.071 303.537 262.281C304.667 292.49 345.434 291.889 345.999 262.281C346.038 257.063 344.359 251.994 341.255 247.953C338.15 243.911 333.815 241.151 328.999 240.151ZM333.862 271.763C330.884 280.763 319.651 279.16 319.651 268.415V261.92C319.322 261.965 318.987 261.935 318.67 261.831C318.353 261.728 318.06 261.554 317.811 261.32C317.561 261.087 317.362 260.8 317.225 260.478C317.088 260.157 317.018 259.808 317.018 259.455C317.018 259.102 317.088 258.753 317.225 258.431C317.362 258.109 317.561 257.822 317.811 257.589C318.06 257.356 318.353 257.182 318.67 257.078C318.987 256.975 319.322 256.944 319.651 256.989C319.651 254.985 319.651 252.98 319.783 250.795C319.79 250.471 319.858 250.152 319.981 249.856C320.104 249.56 320.281 249.292 320.502 249.069C320.722 248.846 320.982 248.671 321.266 248.554C321.55 248.437 321.853 248.382 322.158 248.39C322.774 248.411 323.358 248.69 323.782 249.167C324.205 249.644 324.435 250.279 324.419 250.935C324.419 253.04 324.419 255.045 324.306 256.949H328.283C328.587 256.941 328.89 256.998 329.173 257.116C329.456 257.234 329.715 257.412 329.932 257.638C330.15 257.864 330.323 258.134 330.441 258.432C330.559 258.73 330.62 259.051 330.62 259.375C330.625 259.7 330.569 260.023 330.456 260.326C330.343 260.628 330.175 260.904 329.961 261.137C329.747 261.37 329.492 261.555 329.211 261.683C328.929 261.811 328.627 261.878 328.321 261.88H324.25C324.25 269.197 324.061 270.42 325.004 271.663C326.342 273.467 328.377 272.865 329.433 270.099C329.64 269.474 330.072 268.963 330.634 268.677C331.196 268.391 331.842 268.355 332.429 268.576C333.017 268.796 333.498 269.256 333.766 269.854C334.035 270.451 334.069 271.138 333.862 271.763ZM177.543 11.2101C173.685 11.1889 169.862 11.981 166.294 13.5407C162.726 15.1004 159.483 17.3968 156.755 20.2971C154.026 23.1975 151.865 26.6442 150.396 30.4382C148.927 34.2321 148.18 38.2981 148.198 42.401C148.97 83.695 206.115 83.715 206.869 42.401C206.889 38.299 206.144 34.2335 204.677 30.4397C203.211 26.6458 201.051 23.1989 198.324 20.2983C195.597 17.3977 192.356 15.101 188.789 13.5411C185.222 11.9811 181.4 11.1888 177.543 11.2101ZM186.005 26.9659C185.717 27.5416 185.227 27.9735 184.642 28.1685C184.056 28.3635 183.422 28.306 182.877 28.0083C181.904 27.4398 180.775 27.2528 179.687 27.48C178.598 27.7072 177.619 28.3341 176.921 29.2511C174.753 31.6566 174.848 39.8352 174.848 40.2762L180.502 39.3541C181.112 39.2557 181.733 39.4191 182.23 39.8082C182.726 40.1973 183.057 40.7802 183.15 41.4288C183.242 42.0774 183.089 42.7385 182.723 43.2667C182.357 43.7949 181.809 44.1469 181.199 44.2452L174.866 45.2676C174.866 50.0384 175.074 54.6489 175.225 59.2995C175.198 59.9228 174.952 60.5125 174.535 60.9516C174.118 61.3908 173.561 61.6472 172.975 61.6699C172.389 61.6926 171.816 61.48 171.37 61.0743C170.925 60.6686 170.639 60.0994 170.569 59.4799C170.362 52.9049 170.211 46.2297 170.136 39.0935C170.136 35.0844 170.136 29.8525 173.491 25.9035C178.749 19.7896 188.078 22.8566 186.005 26.9659Z" fill="#48BA86"/>
<path d="M266.824 280.943C274.532 257.129 274.155 258.532 274.023 258.332C273.891 258.132 249.522 257.65 235.99 257.931C230.593 249.325 223.54 242.036 215.297 236.545C207.055 231.054 197.81 227.487 188.174 226.079C186.709 224.369 184.688 223.316 182.52 223.132L180.164 222.27C180.07 220.313 180.07 218.353 180.164 216.397C185.453 214.254 189.774 210.045 192.245 204.63C195.016 198.015 193.64 189.556 192.019 168.047C195.902 169.33 195.996 165.08 193.64 161.752C193.746 161.041 193.712 160.314 193.541 159.618C193.37 158.921 193.065 158.27 192.645 157.705C192.226 157.14 191.7 156.673 191.103 156.335C190.505 155.996 189.848 155.793 189.173 155.739C189.536 155.147 189.745 154.465 189.78 153.76C189.815 153.055 189.674 152.352 189.372 151.724C189.069 151.095 188.617 150.563 188.059 150.18C187.501 149.798 186.858 149.578 186.195 149.545C185.803 148.627 185.15 147.863 184.329 147.36C183.507 146.857 182.559 146.639 181.615 146.738C181.482 146.064 181.182 145.44 180.746 144.93C180.309 144.421 179.753 144.044 179.135 143.84C178.516 143.636 177.857 143.611 177.226 143.768C176.595 143.925 176.016 144.258 175.547 144.734C175.151 144.092 174.171 142.509 173.662 141.907C174.064 141.485 174.342 140.947 174.459 140.359C174.576 139.771 174.528 139.159 174.321 138.6C175.245 138.292 176.052 137.679 176.625 136.85C177.198 136.021 177.507 135.018 177.507 133.989C177.507 132.96 177.198 131.958 176.625 131.128C176.052 130.299 175.245 129.686 174.321 129.379C175.81 123.606 170.722 120.058 166.104 122.363C165.854 121.7 165.426 121.132 164.872 120.729C164.319 120.325 163.665 120.106 162.994 120.098C166.764 115.046 161.392 111.518 156.285 113.242C155.949 112.326 155.385 111.524 154.653 110.923C153.921 110.322 153.048 109.945 152.13 109.831C151.211 109.718 150.281 109.873 149.439 110.28C148.597 110.686 147.875 111.329 147.351 112.139C146.114 111.794 144.8 111.979 143.689 112.653C142.579 113.328 141.762 114.439 141.414 115.748C140.623 115.549 139.8 115.54 139.005 115.72C138.21 115.9 137.462 116.266 136.815 116.79C136.384 115.997 135.696 115.398 134.88 115.106C134.063 114.813 133.175 114.847 132.38 115.201C131.586 115.555 130.939 116.204 130.562 117.028C130.185 117.852 130.104 118.793 130.332 119.677C129.811 119.831 129.348 120.157 129.01 120.606C128.672 121.056 128.475 121.607 128.447 122.182C128.24 122.145 128.028 122.155 127.824 122.212C127.621 122.268 127.431 122.37 127.267 122.51C127.103 122.65 126.969 122.826 126.874 123.025C126.778 123.224 126.724 123.442 126.713 123.666C126.223 123.533 125.706 123.556 125.227 123.731C124.748 123.907 124.328 124.227 124.018 124.652C123.708 125.078 123.521 125.591 123.481 126.128C123.441 126.665 123.549 127.202 123.792 127.675C123.178 127.822 122.618 128.157 122.183 128.64C121.747 129.123 121.455 129.732 121.342 130.39C121.229 131.049 121.302 131.728 121.55 132.343C121.798 132.958 122.21 133.482 122.737 133.849C119.759 134.771 117.836 137.858 118.967 140.664C115.575 142.849 114.18 147.279 116.574 150.366C116.143 151.641 116.161 153.038 116.626 154.299C117.09 155.559 117.969 156.598 119.099 157.222C118.606 157.866 118.293 158.645 118.194 159.469C118.096 160.293 118.216 161.13 118.542 161.885C118.867 162.64 119.385 163.283 120.036 163.742C120.688 164.2 121.447 164.455 122.228 164.479C122.285 165.205 122.518 165.903 122.904 166.505C123.29 167.107 123.815 167.593 124.43 167.916C125.044 168.238 125.726 168.387 126.41 168.347C127.094 168.306 127.757 168.079 128.334 167.686C128.641 168.207 129.085 168.621 129.611 168.876C130.137 169.132 130.721 169.218 131.293 169.125C131.864 169.031 132.397 168.761 132.826 168.348C133.255 167.936 133.561 167.399 133.706 166.804C134.628 167.173 135.618 167.31 136.599 167.206C137.58 167.102 138.524 166.758 139.36 166.202C138.587 171.194 135.025 171.555 136.137 176.787C135.48 177.705 135.117 178.823 135.1 179.977C135.083 181.131 135.413 182.261 136.043 183.201C135.829 183.684 135.708 184.208 135.687 184.742C135.667 185.276 135.746 185.809 135.922 186.309C136.098 186.81 136.366 187.268 136.71 187.657C137.054 188.045 137.468 188.357 137.927 188.573C137.751 188.942 137.668 189.352 137.685 189.765C137.703 190.178 137.821 190.579 138.028 190.928C138.235 191.278 138.524 191.564 138.867 191.759C139.209 191.954 139.593 192.052 139.982 192.041C140.352 193.515 141.064 194.867 142.052 195.973C143.039 197.08 144.271 197.906 145.636 198.376C145.824 223.573 146.691 220.546 144.43 223.473C142.347 224.636 140.64 226.438 139.529 228.645C106.471 240.852 93.1275 268.736 88.755 306.161C86.2295 305.74 86.1164 305.64 86.0221 305.98C85.0047 310.192 84.6481 314.554 84.9667 318.89C84.9667 319.15 84.9667 319.13 87.9823 319.912C88.8304 335.367 96.6897 352.125 112.484 355.072C112.276 358.319 112.031 376.922 112.484 381.131C112.504 381.23 112.555 381.318 112.629 381.381C112.702 381.444 112.794 381.479 112.889 381.479C112.984 381.479 113.075 381.444 113.149 381.381C113.223 381.318 113.274 381.23 113.294 381.131C113.294 378.886 113.558 358.72 113.728 355.373C123.321 356.375 128.937 352.105 136.495 343.345C148.369 329.313 155.097 314.179 162.108 298.303C163.34 295.74 164.331 293.054 165.067 290.285C166.174 290.76 167.393 290.852 168.55 290.545C169.708 290.239 170.745 289.552 171.513 288.581C174.213 289.508 177.081 289.741 179.881 289.262C180.355 289.169 180.806 288.973 181.205 288.686C181.604 288.399 181.943 288.027 182.202 287.595C182.46 287.162 182.631 286.677 182.706 286.171C182.78 285.665 182.755 285.148 182.633 284.652C185.046 284.532 186.553 282.206 184.141 280.262C183.373 279.634 182.56 279.071 181.71 278.578C183.707 278.438 188.985 277.816 190.7 276.574C192.415 275.331 192.358 272.224 189.984 271.883C188.985 271.742 174.303 272.384 170.967 272.885C167.666 273.257 164.54 274.651 161.977 276.894C158.207 280.202 131.557 303.755 122.039 312.255C116.517 311.192 95.8227 307.424 90.3193 306.502C94.8803 266.07 110.373 241.895 139.021 230.509C137.268 238.126 145.749 245.944 148.444 248.269C152.873 252.138 160.111 256.287 166.311 254.483C170.25 253.361 173.191 250.133 175.075 244.861C183.444 252.579 187.383 251.717 188.702 250.995C193.772 248.169 193.564 234.418 189.343 227.803C198.388 229.292 207.048 232.751 214.779 237.963C222.51 243.175 229.147 250.027 234.275 258.091C225.624 258.292 226.151 258.292 226.076 258.532C224.032 264.397 222.047 270.284 220.12 276.193C219.366 271.201 218.236 264.406 217.746 262.441C217.704 262.334 217.627 262.247 217.529 262.195C217.431 262.143 217.319 262.131 217.214 262.16C217.108 262.19 217.016 262.259 216.954 262.354C216.893 262.45 216.866 262.567 216.879 262.682C217.425 265.127 218.556 274.409 219.178 279.099C211.526 302.653 205.533 323.881 205.683 324.102C205.834 324.322 224.531 324.322 226.943 324.282C228.828 341.04 230.26 375.98 230.204 380.129C230.204 380.246 230.247 380.358 230.325 380.441C230.403 380.524 230.508 380.57 230.618 380.57C230.728 380.57 230.834 380.524 230.911 380.441C230.989 380.358 231.033 380.246 231.033 380.129C231.372 372.752 231.033 350.582 230.712 345.791C235.17 345.004 239.254 342.663 242.322 339.136C244.622 336.63 247.977 329.213 250.295 323.24C253.951 322.979 254.064 323.039 254.064 322.779C256.213 317.466 258.342 311.212 260.133 305.118C269.029 303.695 273.533 290.425 269.934 284.411C269.126 283.045 268.069 281.866 266.824 280.943ZM113.162 323.56C114.368 323.34 113.03 321.556 158.527 281.785C166.066 275.23 166.651 274.609 175.792 273.948C179.184 273.707 187.986 273.366 188.985 273.346C189.757 273.346 190.436 273.346 190.379 274.088C190.379 275.371 188.495 275.752 187.194 276.092C183.293 277.097 179.296 277.621 175.283 277.656C175.163 277.656 175.048 277.707 174.963 277.797C174.878 277.887 174.83 278.009 174.83 278.137C174.83 278.265 174.878 278.387 174.963 278.477C175.048 278.567 175.163 278.618 175.283 278.618H179.203C180.405 279.237 181.553 279.969 182.633 280.803C183.085 281.144 183.896 281.465 183.952 281.926C184.254 284.592 177.921 282.126 175.697 280.984C175.62 280.941 175.53 280.933 175.447 280.961C175.364 280.989 175.294 281.051 175.254 281.134C175.214 281.216 175.207 281.312 175.233 281.401C175.26 281.489 175.318 281.562 175.396 281.605C176.998 282.667 182.539 284.732 181.257 286.737C179.618 289.262 175.32 288.18 172.474 287.579C173.069 287.067 173.784 286.739 174.541 286.629C175.299 286.52 176.07 286.633 176.772 286.957C176.867 286.983 176.969 286.971 177.057 286.924C177.146 286.877 177.215 286.799 177.254 286.702C177.293 286.605 177.298 286.497 177.268 286.397C177.238 286.297 177.176 286.211 177.092 286.155C175.934 285.637 174.654 285.515 173.428 285.806C172.202 286.097 171.091 286.786 170.25 287.779C168.008 290.064 165.218 289.523 163.051 287.198C162.973 287.125 162.874 287.084 162.771 287.082C162.667 287.08 162.567 287.118 162.487 287.188C162.407 287.258 162.354 287.356 162.336 287.465C162.319 287.573 162.338 287.685 162.391 287.779C162.825 288.487 163.389 289.094 164.05 289.563C160.692 298.347 156.918 306.944 152.741 315.322C145.202 330.356 137.55 340.98 128.956 348.718C119.646 357.237 105.963 354.11 98.1032 344.368C93.3914 338.575 90.4324 330.456 89.3393 320.313C93.2595 321.035 108.922 323.42 113.162 323.56ZM145.843 156.34C144.217 157.555 142.96 159.248 142.225 161.211C141.489 160.52 140.92 159.652 140.566 158.679C140.212 157.705 140.082 156.656 140.189 155.618C141.867 147.6 149.613 140.584 156.04 138.52C159.998 136.816 170.062 138.72 173.304 143.872C172.246 143.77 171.191 144.091 170.345 144.774C169.838 144.072 169.188 143.502 168.445 143.105C167.701 142.708 166.883 142.495 166.051 142.481C165.219 142.468 164.395 142.654 163.641 143.027C162.886 143.4 162.221 143.949 161.694 144.633C160.663 144.953 159.732 145.562 158.999 146.397C158.305 146.002 157.518 145.832 156.734 145.907C155.951 145.981 155.205 146.298 154.588 146.818C153.932 147.008 153.355 147.428 152.951 148.01C152.547 148.592 152.341 149.303 152.364 150.026C151.537 149.939 150.702 150.037 149.913 150.316C149.124 150.594 148.398 151.045 147.783 151.64C147.169 152.235 146.678 152.961 146.344 153.771C146.01 154.581 145.839 155.456 145.843 156.34ZM181.483 239.629C172.682 249.332 146.239 238.026 144.524 229.005C144.388 228.036 144.469 227.046 144.761 226.116C145.052 225.186 145.546 224.342 146.201 223.653C146.39 223.453 146.522 223.232 146.71 223.032C146.732 222.974 146.732 222.909 146.71 222.851L147.068 222.37C147.54 221.428 146.955 201.483 146.861 198.616C147.57 198.626 148.264 198.397 148.843 197.961C149.423 197.525 149.857 196.905 150.084 196.191C150.485 196.423 150.942 196.524 151.398 196.481C151.853 196.438 152.286 196.252 152.642 195.948C152.999 195.644 153.263 195.234 153.401 194.771C153.54 194.308 153.546 193.811 153.42 193.344L158.056 188.052C158.05 188.71 158.221 189.357 158.549 189.915C158.876 190.473 159.348 190.92 159.907 191.202C160.465 191.484 161.089 191.591 161.703 191.509C162.317 191.427 162.896 191.159 163.371 190.738C163.858 190.362 164.261 189.875 164.551 189.314C164.841 188.753 165.011 188.13 165.049 187.491C165.056 187.422 165.041 187.352 165.005 187.294C164.97 187.236 164.916 187.192 164.854 187.171C164.792 187.15 164.725 187.152 164.664 187.177C164.603 187.203 164.553 187.25 164.521 187.31C164.208 187.81 163.744 188.181 163.206 188.363C162.669 188.545 162.089 188.527 161.562 188.313C161.746 187.482 161.71 186.612 161.457 185.802C161.204 184.991 160.745 184.271 160.13 183.722C157.302 174.1 157.566 170.292 162.636 166.684C166.406 163.657 179.599 156.921 188.476 165.521C189.086 166.274 189.813 166.912 190.624 167.405C192.924 200.701 194.394 201.142 185.799 210.804C183.167 213.643 179.661 215.379 175.923 215.695C175.264 215.695 175.188 216.717 175.923 216.798C176.88 216.937 177.85 216.937 178.807 216.798C178.807 223.593 178.524 223.072 180.353 223.753C186.591 226.82 186.044 234.558 181.483 239.629ZM236.913 341.501C234.933 342.669 232.817 343.552 230.618 344.127C230.335 340.759 229.186 330.095 228.432 324.082C235.292 323.921 242.19 323.621 248.768 323.18C246.016 330.476 241.851 338.935 236.913 341.501ZM249.371 275.351C245.225 275.23 245.225 269.778 249.371 269.658C253.518 269.537 253.518 275.331 249.371 275.451V275.351ZM232.578 265.027C231.698 265.586 230.986 266.4 230.524 267.373C229.959 268.515 213.769 315.362 212.996 318.028C212.956 318.171 212.864 318.292 212.74 318.364C212.617 318.435 212.471 318.451 212.336 318.409C212.201 318.366 212.088 318.268 212.021 318.137C211.954 318.005 211.938 317.851 211.978 317.707C212.939 313.918 226.905 271.382 227.056 271.121C230.392 262.261 231.692 262.401 238.063 262.181C240.984 262.081 262.244 261.98 265.316 262.522C265.994 262.642 265.844 263.664 265.316 263.724C263.639 263.945 233.898 264.426 232.578 265.127V265.027ZM260.698 303.114C261.415 300.548 262.074 298.042 262.583 295.657C263.422 296.018 264.294 296.286 265.184 296.459C265.282 296.483 265.384 296.464 265.469 296.408C265.554 296.352 265.614 296.262 265.636 296.158C265.659 296.054 265.642 295.945 265.589 295.855C265.536 295.765 265.451 295.701 265.354 295.677C263.299 294.822 261.389 293.617 259.699 292.109C258.55 290.726 258.022 289.703 259.36 288.701C261.923 290.846 265.259 292.71 266.485 293.652C266.562 293.693 266.651 293.704 266.736 293.684C266.821 293.663 266.896 293.612 266.95 293.538C267.003 293.465 267.031 293.375 267.028 293.282C267.026 293.19 266.994 293.101 266.937 293.031C265.561 291.708 260.906 288.38 258.474 285.794C258.436 285.386 258.517 284.974 258.705 284.615C258.894 284.257 259.182 283.969 259.53 283.79C261.717 285.818 264.106 287.586 266.654 289.062C266.737 289.115 266.836 289.133 266.931 289.11C267.026 289.088 267.109 289.028 267.163 288.942C267.446 288.561 267.163 288.42 265.278 286.757C263.865 285.514 261.886 283.77 260.435 282.246C258.38 280.242 262.319 280.603 265.919 282.246C267.173 283.008 268.194 284.136 268.862 285.497C269.531 286.858 269.817 288.395 269.689 289.924C269.406 295.717 266.051 301.731 260.698 303.314V303.114ZM106.245 14.4373C105.488 14.5547 104.716 14.392 104.059 13.9762C103.625 12.802 102.889 11.7811 101.936 11.0297C100.983 10.2784 99.8512 9.82683 98.6686 9.72656C95.785 9.92702 95.2196 14.2569 93.0145 14.5776C91.6952 14.7781 90.0743 13.3348 88.1896 10.3279C88.1664 10.2771 88.1303 10.2342 88.0853 10.2042C88.0403 10.1742 87.9882 10.1583 87.9351 10.1583C87.882 10.1583 87.83 10.1742 87.785 10.2042C87.74 10.2342 87.7038 10.2771 87.6807 10.3279C87.4728 11.0804 87.4107 11.8699 87.4981 12.6486C87.5856 13.4273 87.8208 14.1791 88.1896 14.8582C87.8842 14.8433 87.5951 14.7074 87.3791 14.4774C86.7383 13.8159 86.4179 16.2614 87.9634 17.9453C87.489 17.9184 87.0259 17.7815 86.6064 17.5443C85.664 16.7626 86.0598 20.892 89.1508 22.7762C88.2765 22.7174 87.4223 22.4724 86.6388 22.0558C85.8553 21.6391 85.1585 21.0593 84.5897 20.3507C84.5527 20.296 84.4994 20.2562 84.4385 20.2376C84.3775 20.219 84.3125 20.2227 84.2538 20.2482C84.1951 20.2736 84.1461 20.3193 84.1148 20.3779C84.0834 20.4365 84.0715 20.5046 84.0809 20.5712C84.4158 23.5452 85.7082 26.3041 87.7387 28.3796C89.7691 30.4551 92.4124 31.7191 95.2196 31.9571C101.458 31.9571 105.397 24.8209 103.946 19.3484C104.314 19.2253 104.709 19.2253 105.077 19.3484C105.131 19.3919 105.198 19.413 105.266 19.4078C105.334 19.4027 105.398 19.3717 105.446 19.3205C105.494 19.2693 105.523 19.2014 105.528 19.1292C105.533 19.057 105.513 18.9854 105.472 18.9275C105.28 18.6005 105.151 18.2356 105.094 17.8545C105.037 17.4734 105.053 17.0839 105.141 16.7096C105.229 16.3352 105.387 15.9836 105.606 15.6758C105.825 15.368 106.1 15.1104 106.415 14.9184C106.445 14.8778 106.464 14.8296 106.472 14.7786C106.479 14.7276 106.474 14.6754 106.457 14.6271C106.44 14.5788 106.412 14.5359 106.375 14.5027C106.337 14.4694 106.293 14.4469 106.245 14.4373ZM100.44 15.9808C100.067 15.9365 99.7222 15.7474 99.4718 15.4497C99.2215 15.152 99.083 14.7666 99.083 14.3671C99.083 13.9677 99.2215 13.5823 99.4718 13.2846C99.7222 12.9868 100.067 12.7978 100.44 12.7534C100.814 12.7978 101.158 12.9868 101.409 13.2846C101.659 13.5823 101.798 13.9677 101.798 14.3671C101.798 14.7666 101.659 15.152 101.409 15.4497C101.158 15.7474 100.814 15.9365 100.44 15.9808ZM49.6846 215.855C43.5439 215.491 37.3841 215.82 31.3086 216.838C31.2453 216.847 31.1875 216.881 31.1459 216.933C31.1043 216.984 31.0818 217.05 31.0824 217.118C31.067 220.608 31.5111 224.083 32.4017 227.442C32.4199 227.497 32.4527 227.545 32.4962 227.581C32.5397 227.616 32.592 227.638 32.6467 227.642C38.1004 228.103 43.5848 227.942 49.0061 227.161C50.0804 227.001 50.8532 215.936 49.6846 215.855ZM44.6147 222.41C44.4901 223.064 44.187 223.663 43.7435 224.134C43.2999 224.605 42.7356 224.926 42.1212 225.058C41.5068 225.189 40.8696 225.125 40.2894 224.873C39.7092 224.621 39.2117 224.193 38.8593 223.641C38.5069 223.09 38.3152 222.441 38.3082 221.774C38.3012 221.108 38.4793 220.454 38.8201 219.894C39.1608 219.335 39.6492 218.895 40.224 218.629C40.7988 218.364 41.4345 218.284 42.0515 218.401C42.4697 218.48 42.8687 218.648 43.2252 218.893C43.5816 219.139 43.8883 219.458 44.1271 219.832C44.3659 220.205 44.5321 220.626 44.6159 221.069C44.6996 221.511 44.6992 221.968 44.6147 222.41ZM45.7079 213.55C46.0371 213.615 46.375 213.61 46.7023 213.535C47.0296 213.461 47.34 213.319 47.6156 213.117C47.8913 212.915 48.1268 212.657 48.3088 212.358C48.4908 212.059 48.6157 211.725 48.6763 211.375C48.737 211.025 48.7322 210.666 48.6622 210.318C48.5923 209.969 48.4585 209.639 48.2686 209.346C48.0788 209.053 47.8364 208.802 47.5555 208.609C47.2746 208.415 46.9606 208.283 46.6314 208.218C45.9666 208.088 45.2803 208.244 44.7237 208.652C44.167 209.06 43.7854 209.686 43.663 210.393C43.5405 211.1 43.6871 211.83 44.0706 212.422C44.4541 213.014 45.0431 213.42 45.7079 213.55Z" fill="#48BA86"/>
<path d="M55.6593 206.935C46.2357 192.422 24.7875 197.553 22.1866 214.612C21.6601 217.469 21.7443 220.416 22.433 223.234C23.1217 226.052 24.3972 228.669 26.1651 230.892C27.9331 233.115 30.1484 234.887 32.647 236.077C35.1457 237.266 37.8638 237.843 40.6004 237.765C56.2813 237.765 63.6882 219.363 55.6593 206.935ZM51.7014 228.985C51.69 229.042 51.6621 229.094 51.6215 229.134C51.581 229.173 51.5298 229.198 51.4752 229.205C44.4729 230.204 37.391 230.412 30.3475 229.827C30.2912 229.818 30.2384 229.793 30.1951 229.754C30.1517 229.715 30.1196 229.664 30.1024 229.606C28.2304 222.229 27.8832 214.508 29.0847 206.975C29.0933 206.911 29.1223 206.852 29.167 206.808C29.2116 206.764 29.2691 206.738 29.3297 206.734C36.9119 205.808 44.5732 205.896 52.1349 206.995C52.191 207.006 52.2426 207.035 52.283 207.078C52.3234 207.121 52.3506 207.176 52.361 207.235C53.5416 214.464 53.3171 221.873 51.7014 229.005V228.985Z" fill="#48BA86"/>
</svg>
