<svg width="393" height="388" viewBox="0 0 393 388" fill="none" xmlns="http://www.w3.org/2000/svg">
<path fill-rule="evenodd" clip-rule="evenodd" d="M192.12 94.2649C193.612 95.2529 195.153 96.1659 196.738 97.0003C196.795 97.0157 196.844 97.053 196.873 97.104C196.903 97.1549 196.911 97.2153 196.895 97.2719C196.879 97.3285 196.842 97.3767 196.79 97.4058C196.738 97.4349 196.677 97.4425 196.62 97.4271C194.742 96.7496 192.922 95.9257 191.177 94.9633C191.069 94.8955 190.988 94.7924 190.948 94.672C190.909 94.5516 190.913 94.4213 190.961 94.3037C192.909 89.8824 195.277 85.6536 198.035 81.6743C198.072 81.6371 198.12 81.6134 198.173 81.6068C198.225 81.6002 198.279 81.6113 198.324 81.6381C198.369 81.665 198.404 81.7061 198.423 81.7549C198.442 81.8037 198.443 81.8573 198.428 81.9071C198.428 81.9071 192.572 93.1203 192.12 94.2649ZM198.113 112.52C199.348 114.152 201.183 115.239 203.222 115.547C204.289 115.676 205.368 115.448 206.287 114.899C207.206 114.35 207.912 113.513 208.292 112.52C208.323 112.471 208.334 112.412 208.321 112.356C208.308 112.3 208.273 112.25 208.223 112.22C208.174 112.189 208.114 112.179 208.057 112.191C207.999 112.204 207.95 112.239 207.919 112.288C207.383 112.978 206.715 113.558 205.954 113.995C205.17 114.364 204.304 114.53 203.437 114.476C202.57 114.421 201.732 114.149 201.002 113.684C200.164 113.283 199.367 112.803 198.624 112.249C198.588 112.182 198.526 112.132 198.452 112.11C198.378 112.088 198.299 112.096 198.231 112.132C198.163 112.168 198.113 112.229 198.091 112.302C198.069 112.375 198.077 112.453 198.113 112.52ZM190.175 72.7115C191.765 71.7095 193.466 70.8895 195.244 70.2671C195.302 70.2671 195.357 70.2446 195.397 70.2046C195.438 70.1646 195.46 70.1103 195.46 70.0537C195.46 69.9971 195.438 69.9428 195.397 69.9028C195.357 69.8628 195.302 69.8403 195.244 69.8403C194.721 69.7059 194.175 69.6796 193.641 69.763C193.106 69.8465 192.595 70.0379 192.14 70.3253C191.15 70.7119 190.339 71.4437 189.86 72.3817C189.644 72.5951 189.978 72.9055 190.175 72.7115ZM207.919 72.8861C209.965 73.6959 211.854 74.8513 213.499 76.3005C213.515 76.3247 213.535 76.3457 213.559 76.3622C213.582 76.3787 213.609 76.3904 213.637 76.3967C213.666 76.403 213.695 76.4038 213.723 76.3989C213.752 76.3941 213.779 76.3837 213.804 76.3684C213.828 76.3531 213.849 76.3332 213.866 76.3098C213.883 76.2865 213.895 76.26 213.901 76.2321C213.908 76.2042 213.908 76.1753 213.903 76.1471C213.899 76.1189 213.888 76.0919 213.873 76.0677C213.64 75.5017 213.315 74.9774 212.91 74.5157C212.044 73.6629 210.977 73.0362 209.805 72.6921C209.221 72.5077 208.609 72.4288 207.997 72.4593C207.94 72.449 207.881 72.4616 207.833 72.4944C207.785 72.5271 207.752 72.5773 207.742 72.6339C207.731 72.6905 207.744 72.7489 207.777 72.7962C207.81 72.8435 207.861 72.8758 207.919 72.8861ZM192.572 83.4203C192.709 82.6831 192.886 81.9653 193.083 81.2281C193.172 80.9347 193.144 80.6188 193.006 80.3448C192.867 80.0708 192.627 79.8594 192.336 79.7537C192.194 79.7098 192.045 79.6953 191.897 79.7111C191.749 79.7269 191.606 79.7727 191.477 79.8455C191.348 79.9184 191.235 80.0167 191.147 80.1345C191.058 80.2522 190.994 80.3867 190.961 80.5297C190.744 81.3251 190.568 82.1205 190.41 82.9159C190.343 83.2138 190.393 83.5258 190.55 83.7887C190.707 84.0517 190.959 84.2459 191.255 84.3321C191.403 84.3599 191.554 84.3583 191.701 84.3272C191.847 84.2962 191.986 84.2363 192.109 84.1513C192.232 84.0662 192.336 83.9577 192.416 83.8322C192.495 83.7066 192.548 83.5665 192.572 83.4203ZM211.849 88.4255C212.006 87.6914 212.203 86.9661 212.438 86.2527C212.536 85.9589 212.517 85.6394 212.386 85.3586C212.255 85.0778 212.021 84.8566 211.731 84.7395C211.589 84.6923 211.439 84.6746 211.29 84.6877C211.141 84.7007 210.996 84.7442 210.865 84.8153C210.734 84.8864 210.619 84.9837 210.528 85.1008C210.437 85.218 210.371 85.3526 210.336 85.4961C210.1 86.2721 209.884 87.0675 209.707 87.8629C209.632 88.1584 209.673 88.471 209.823 88.7374C209.973 89.0039 210.219 89.2044 210.512 89.2985C210.658 89.3324 210.81 89.3365 210.958 89.3104C211.106 89.2843 211.246 89.2287 211.371 89.1469C211.497 89.0651 211.604 88.959 211.686 88.8349C211.768 88.7108 211.823 88.5715 211.849 88.4255Z" fill="#48BA86"/>
<path fill-rule="evenodd" clip-rule="evenodd" d="M232.44 292.086C233.56 292.532 247.708 289.739 254.861 296.936C257.014 299.149 259.022 301.495 260.874 303.959C281.094 300.215 288.384 302.523 293.866 302.213C293.02 289.795 293.501 277.323 295.301 265.004C296.894 252.398 299.603 239.954 303.396 227.814C303.409 227.769 303.431 227.728 303.46 227.691C303.489 227.655 303.526 227.625 303.567 227.602C303.608 227.58 303.653 227.566 303.699 227.56C303.746 227.555 303.793 227.559 303.839 227.572C303.884 227.584 303.926 227.606 303.963 227.634C303.999 227.663 304.03 227.699 304.053 227.74C304.076 227.78 304.09 227.825 304.096 227.871C304.101 227.917 304.097 227.963 304.084 228.008C302.61 233.052 299.054 252.316 298.464 255.866C295.861 271.162 294.546 286.645 294.534 302.155C303.927 301.398 308.407 297.014 322.28 295.695C328.706 295.093 333.638 295.927 342.205 300.642C342.288 300.685 342.351 300.76 342.379 300.849C342.406 300.938 342.397 301.035 342.353 301.117C342.308 301.199 342.233 301.261 342.142 301.288C342.052 301.315 341.954 301.306 341.871 301.262C333.264 297.033 328.607 296.529 322.457 297.382C305.519 299.439 301.687 305.433 287.893 303.804C280.445 302.892 268.714 303.804 261.306 304.754L262.072 305.88C266.52 305.582 270.972 306.389 275.022 308.227C275.05 308.238 275.075 308.254 275.096 308.274C275.117 308.295 275.134 308.32 275.145 308.347C275.156 308.374 275.161 308.404 275.161 308.433C275.16 308.463 275.152 308.491 275.14 308.518C275.022 308.79 274.924 308.518 273.293 308.227C269.48 307.393 265.55 306.985 262.485 306.481C263.902 308.6 265.026 310.897 265.826 313.31C270.281 314.576 274.418 316.75 277.969 319.692C278.014 319.731 278.041 319.785 278.044 319.844C278.048 319.902 278.028 319.959 277.989 320.003C277.95 320.047 277.895 320.073 277.836 320.077C277.777 320.08 277.719 320.061 277.674 320.022C275.926 318.8 269.815 315.968 266.042 314.066C266.637 315.878 266.731 317.814 266.313 319.673C265.895 321.532 264.98 323.247 263.664 324.639C267.399 326.307 270.953 328.341 274.275 330.712C274.327 330.74 274.366 330.788 274.382 330.844C274.399 330.9 274.392 330.961 274.363 331.012C274.335 331.064 274.287 331.102 274.23 331.118C274.172 331.135 274.111 331.128 274.059 331.1C270.267 329.467 266.652 327.459 263.271 325.105C261.48 327.354 258.913 328.874 256.06 329.373C253.309 329.78 252.13 328.907 253.741 329.761C256.276 331.158 262.289 334.921 264.293 336.085C264.321 336.095 264.347 336.111 264.368 336.131C264.39 336.151 264.407 336.176 264.419 336.203C264.431 336.23 264.436 336.259 264.436 336.289C264.436 336.318 264.429 336.347 264.417 336.374C264.405 336.401 264.387 336.425 264.365 336.445C264.343 336.464 264.317 336.479 264.289 336.489C264.26 336.498 264.23 336.501 264.201 336.499C264.171 336.496 264.142 336.488 264.116 336.473C259.975 334.833 256.081 332.639 252.542 329.955C250.813 328.655 251.815 329.257 250.223 328.675C248.659 328.078 247.19 327.261 245.861 326.25L245.232 326.541C258.034 337.769 272.988 346.345 289.209 351.761C305.595 357.402 323.051 359.351 340.299 357.464C395.103 351.373 385.18 281.571 366.316 230.161C361.999 218.014 356.213 206.426 349.083 195.649C336.585 177.044 323.832 170.662 321.573 169.381C314.813 177.141 282.273 185.289 294.063 193.709C301.49 199.083 311.315 204.282 318.527 198.636C318.679 198.503 318.875 198.428 319.078 198.425C319.282 198.423 319.479 198.493 319.635 198.623C319.79 198.752 319.893 198.933 319.924 199.132C319.955 199.33 319.912 199.533 319.804 199.703C316.271 205.192 310.86 209.246 304.556 211.13C298.355 212.952 291.782 213.16 285.476 211.731C275.768 209.791 270.031 206.396 267.103 202.497C262.426 196.27 264.823 188.704 270.188 183.388C278.539 175.104 285.358 171.748 278.382 164.822C269.638 156.209 246.392 168.528 249.85 150.777C248.563 151.966 247.535 153.401 246.829 154.996C246.123 156.59 245.754 158.31 245.743 160.05C245.743 167.81 250.577 171.088 258.378 171.05C261.241 170.999 264.086 170.595 266.847 169.847C266.98 169.809 267.12 169.806 267.254 169.838C267.388 169.871 267.512 169.938 267.611 170.032C267.711 170.127 267.783 170.245 267.822 170.376C267.86 170.507 267.863 170.646 267.83 170.778C267.012 173.197 265.428 175.292 263.31 176.753C258.592 180.102 253 182.048 247.197 182.36C243.008 182.775 238.792 181.89 235.136 179.828C231.48 177.766 228.566 174.63 226.801 170.856C222.379 161.951 223.303 154.657 228.766 147.149C228.399 144.221 228.287 141.268 228.432 138.322C225.248 138.438 221.436 138.593 218.273 138.962C219.237 143.529 219.672 148.189 219.569 152.852C219.555 152.9 219.525 152.943 219.484 152.973C219.444 153.003 219.394 153.019 219.344 153.019C219.293 153.019 219.243 153.003 219.203 152.973C219.162 152.943 219.132 152.9 219.118 152.852C218.803 150.757 218.666 150.33 218.39 147.964C217.978 144.999 217.748 142.012 217.703 139.02C216.951 139.092 216.203 139.203 215.463 139.35C213.498 139.777 212.535 140.165 212.456 143.114C212.699 146.146 213.106 149.164 213.674 152.154C213.674 152.814 213.105 152.426 205.304 154.754C205.89 156.01 206.383 157.306 206.777 158.634C209.371 166.917 201.963 176.094 188.915 174.367C184.435 173.785 180.82 171.767 179.248 167.635C172.953 171.601 167.374 176.578 162.742 182.36C155.491 191.381 137.904 234.74 136.784 238.93C141.105 243.925 145.697 248.685 150.539 253.189C155.491 227.698 166.259 212.139 164.628 214.641C164.652 214.602 164.684 214.567 164.722 214.539C164.76 214.512 164.803 214.492 164.849 214.481C164.895 214.471 164.942 214.469 164.989 214.476C165.035 214.484 165.079 214.5 165.119 214.525C165.925 214.991 163.842 215.961 159.047 228.803C148.082 258.333 146.708 290.501 155.117 320.837C158.085 331.662 159.047 332.302 158.753 332.71C158.753 332.71 153.997 339.927 141.913 340.606C135.232 340.955 126.291 339.325 114.658 333.311C82.4714 316.666 88.8773 224.671 87.1481 217.202C85.7913 211.933 84.0038 206.782 81.8033 201.799C81.7292 201.642 81.7064 201.466 81.7381 201.295C81.7698 201.125 81.8544 200.969 81.9802 200.848L82.8841 199.994C79.9723 196.844 77.5247 193.304 75.6136 189.48C74.8865 188.083 75.083 188.316 74.8276 188.219C71.7425 187.035 69.247 182.728 70.8976 179.624C68.3234 180.109 29.3378 187.384 23.2856 188.044C20.6239 188.49 17.8939 188.324 15.3077 187.559C14.2669 187.21 13.3277 186.616 12.5712 185.828C11.8146 185.041 11.2634 184.083 10.9651 183.039C8.7839 175.822 10.5917 68.831 10.69 63.5542C10.6243 60.1388 11.7018 56.7975 13.7554 54.0482C14.5526 53.1596 15.5208 52.4361 16.6036 51.9199C17.6864 51.4037 18.8623 51.105 20.063 51.0412C28.9055 50.3234 115.837 61.6142 124.562 62.6812C127.838 63.0316 130.963 64.2295 133.62 66.1538C134.521 66.856 135.263 67.7366 135.797 68.7391C136.332 69.7415 136.648 70.8434 136.725 71.9738C136.725 71.9738 139.849 158.847 139.889 159.701C140.223 162.417 139.653 165.812 137.138 166.956C135.074 167.907 91.7659 175.783 93.0824 175.531C96.7787 180.646 99.939 186.12 102.514 191.866C105.521 192.739 101.571 191.497 114.108 209.539C121.025 219.472 130.457 231.578 136.214 238.29C139.044 226.98 153.899 190.508 161.464 181.39C166.414 175.571 172.41 170.704 179.149 167.034C178.473 164.455 178.433 161.754 179.032 159.157C179.062 158.965 179.114 158.776 179.189 158.595C179.264 158.386 179.421 158.216 179.623 158.122C179.826 158.027 180.058 158.016 180.269 158.09C180.481 158.165 180.653 158.319 180.749 158.519C180.845 158.72 180.856 158.949 180.78 159.157C180.541 161.163 180.924 163.193 181.881 164.977C184.35 163.025 187.089 161.431 190.016 160.244C186.341 152.736 169.658 143.191 167.418 135.14C164.549 124.722 172.292 118.282 180.211 107.262C191.018 92.2662 163.351 83.2646 167.183 64.3496C168.401 58.3744 172.685 52.3022 180.545 46.1524C188.857 39.6728 197.915 38.761 205.461 42.0396C225.857 25.8212 260.972 21.7278 278.028 41.3412C287.185 51.8754 289.563 66.0762 296.873 70.674C308.466 78.0266 337.725 88.6578 330.278 106.894C323.164 124.354 299.388 134.17 310.863 146.315C317.191 152.988 322.123 157.547 323.754 161.369C324.286 162.413 324.504 163.585 324.382 164.747C324.26 165.909 323.804 167.013 323.066 167.926C325.66 169.362 337.568 176.637 350.203 195.086C357.492 205.889 363.43 217.523 367.888 229.735C387.538 282.386 397.029 353.041 340.594 359.23C323.098 361.094 305.403 358.991 288.855 353.08C272.45 347.384 257.393 338.446 244.604 326.812C241.986 327.933 239.142 328.444 236.292 328.306C236.343 330.014 235.822 331.691 234.809 333.076C233.797 334.462 232.349 335.479 230.691 335.969C230.475 339.015 230.318 340.955 230.259 341.168C229.689 343.283 211.081 355.156 188.228 341.692C188.111 341.626 188.013 341.534 187.941 341.422C187.869 341.311 187.826 341.184 187.815 341.052C187.088 335.387 181.409 288.827 185.123 284.384C188.837 279.942 201.963 278.138 207.347 278.37C214.205 278.681 231.084 280.31 232.165 287.197C232.351 288.821 232.442 290.453 232.44 292.086ZM228.51 340.586C228.51 340.353 231.811 294.278 230.849 287.353C230.023 281.533 213.164 279.321 207.269 279.049C202.199 278.836 189.23 281.125 186.007 285.102C183.06 288.73 188.876 335.697 189.466 340.392C195.403 343.96 202.169 345.964 209.116 346.212C217.88 346.406 225.602 343.186 228.569 340.528L228.51 340.586ZM99.7634 193.146C97.3317 193.263 94.9592 193.926 92.827 195.086C95.3543 198.88 97.4312 202.949 99.0167 207.211C99.031 207.237 99.0398 207.265 99.0425 207.295C99.0451 207.324 99.0416 207.354 99.0322 207.382C99.0227 207.41 99.0075 207.435 98.9875 207.457C98.9674 207.479 98.9431 207.496 98.9159 207.508C98.8887 207.521 98.8593 207.527 98.8295 207.527C98.7996 207.528 98.7701 207.522 98.7426 207.51C98.7152 207.499 98.6905 207.482 98.67 207.46C98.6495 207.439 98.6338 207.414 98.6237 207.386C96.2393 203.5 94.1443 199.447 92.3554 195.261C90.2645 196.357 88.2897 197.657 86.4604 199.141C88.0006 201.973 89.3655 204.895 90.5476 207.89C90.9799 209.015 91.5104 210.626 91.6283 211.014C91.6426 211.039 91.6514 211.068 91.6541 211.097C91.6567 211.127 91.6532 211.156 91.6438 211.184C91.6343 211.212 91.6191 211.238 91.5991 211.259C91.579 211.281 91.5547 211.299 91.5275 211.311C91.5003 211.323 91.4709 211.329 91.441 211.33C91.4112 211.33 91.3817 211.324 91.3542 211.313C91.3268 211.301 91.3021 211.284 91.2816 211.263C91.2611 211.241 91.2454 211.216 91.2353 211.188C89.0818 207.506 87.3422 203.603 86.0477 199.548C85.2421 200.208 84.3971 200.945 83.5325 201.76C85.7106 206.655 87.4657 211.724 88.7791 216.911C90.5279 224.4 84.4954 315.851 115.189 332.225C126.507 338.258 135.232 339.985 141.755 339.733C152.288 339.286 156.729 333.447 157.475 332.399C147.585 307.52 145.09 280.371 150.284 254.14C131.262 237.281 106.7 203.37 102.672 193.709C101.993 193.422 101.267 193.257 100.53 193.224C102.839 196.692 104.713 200.425 106.11 204.34C106.121 204.367 106.126 204.395 106.125 204.424C106.124 204.452 106.117 204.481 106.106 204.507C106.094 204.533 106.077 204.556 106.056 204.576C106.035 204.596 106.01 204.611 105.983 204.621C105.956 204.632 105.927 204.636 105.898 204.636C105.869 204.635 105.84 204.628 105.814 204.617C105.787 204.605 105.763 204.588 105.743 204.567C105.724 204.546 105.708 204.522 105.698 204.495C103.47 200.861 101.506 197.075 99.8224 193.166L99.7634 193.146ZM231.202 326.618C230.672 335.639 230.515 335.309 230.711 335.193C232.02 334.468 233.144 333.456 233.996 332.235C234.847 331.014 235.404 329.617 235.624 328.151C234.076 327.962 232.588 327.446 231.261 326.638L231.202 326.618ZM231.202 325.629C236.92 328.151 244.741 325.202 250.322 322.37C250.36 322.336 250.405 322.311 250.454 322.296C250.504 322.281 250.555 322.277 250.606 322.284C250.657 322.291 250.706 322.309 250.749 322.336C250.792 322.364 250.829 322.4 250.856 322.443C250.884 322.486 250.902 322.534 250.908 322.584C250.915 322.635 250.91 322.686 250.895 322.734C250.88 322.783 250.854 322.827 250.819 322.865C250.785 322.902 250.742 322.932 250.695 322.952C249.409 323.99 248.035 324.918 246.588 325.726C252.857 329.819 259.302 328.985 263.743 321.458C267.791 314.726 258.987 303.765 253.505 298.081C250.636 295.074 242.54 292.009 233.737 292.979C235.346 294.602 236.409 296.674 236.783 298.915C238.462 298.15 240.265 297.684 242.108 297.538C242.162 297.536 242.214 297.552 242.257 297.584C242.3 297.616 242.33 297.661 242.344 297.712C242.344 298.314 240.85 297.596 232.224 302.329C232.224 304.366 231.91 311.758 231.831 313.29C233.348 312.231 235.045 311.449 236.842 310.982C236.889 310.959 236.943 310.955 236.993 310.971C237.043 310.988 237.084 311.023 237.107 311.069C237.131 311.115 237.134 311.169 237.118 311.218C237.101 311.267 237.066 311.308 237.019 311.331C235.472 312.492 233.747 313.403 231.91 314.028C231.713 314.028 231.91 313.349 231.497 320.236H233.462C235.113 320.236 238.669 320.371 239.141 320.236C239.193 320.236 239.243 320.256 239.28 320.292C239.317 320.329 239.337 320.378 239.337 320.43C239.337 320.481 239.317 320.53 239.28 320.567C239.243 320.603 239.193 320.624 239.141 320.624C236.631 321.335 233.976 321.389 231.438 320.779C231.497 322.486 231.399 324.096 231.32 325.648L231.202 325.629ZM232.322 292.765V301.088C233.554 300.297 234.873 299.646 236.252 299.148C235.357 296.828 234.068 294.676 232.44 292.785L232.322 292.765ZM189.092 289.409C194.476 285.529 216.425 283.958 226.427 289.409C229.768 287.469 229.512 285.839 230.023 286.072C230.041 286.089 230.054 286.108 230.064 286.13C230.073 286.151 230.078 286.175 230.078 286.198C230.078 286.222 230.073 286.245 230.064 286.267C230.054 286.289 230.041 286.308 230.023 286.324C226.368 294.744 205.559 293.929 196.363 292.571C186.715 291.136 185.948 286.751 185.83 286.305C185.823 286.28 185.82 286.253 185.823 286.226C185.826 286.2 185.834 286.174 185.846 286.151C185.859 286.127 185.876 286.107 185.897 286.09C185.918 286.073 185.942 286.06 185.968 286.053C185.994 286.045 186.021 286.043 186.048 286.045C186.074 286.048 186.1 286.056 186.124 286.068C186.148 286.081 186.169 286.098 186.186 286.119C186.203 286.139 186.216 286.163 186.223 286.189C186.873 287.524 187.895 288.648 189.171 289.428L189.092 289.409ZM263.31 83.7884C267.594 88.3862 266.513 99.3084 258.83 101.248C262.269 103.188 266.002 106.913 268.832 117.738C274 137.507 259.42 142.144 250.872 149.962C246.608 168.353 269.657 154.909 279.227 164.143C287.205 171.903 279.227 176.288 271.17 184.358C266.336 189.227 264.037 196.095 268.341 201.818C271.131 205.485 276.653 208.589 285.869 210.373C297.167 212.566 308.407 210.529 316.012 202.167C315.183 202.462 314.328 202.677 313.457 202.807C270.718 222.634 271.21 187.85 292.51 172.427C308.682 160.787 283.55 150.874 275.218 143.191C266.887 135.509 284.336 121.036 286.203 106.777C287.617 95.991 284.925 92.3244 276.908 88.1534C273.784 86.5432 266.788 83.3228 263.782 81.4604C263.546 82.7214 263.31 83.9824 263.31 83.7884ZM287.323 106.7C285.456 121.056 268.321 135.101 276.004 142.182C283.687 149.263 310.745 160.399 293.159 173.048C273.037 187.462 271.092 220.539 311.964 202.73C305.44 202.963 298.405 198.85 293.119 194.97C292.142 194.435 291.325 193.655 290.752 192.707C290.179 191.76 289.87 190.68 289.858 189.577C290.192 184.086 300.901 178.926 306.344 176.113C315.56 166.141 314.479 159.157 306.953 151.339C299.427 143.521 291.41 139.195 296.126 130.756C299.014 125.557 306.54 119.232 311.983 109.416C317.623 99.2114 307.759 93.5272 297.207 88.3474C288.6 84.1182 280.347 81.0918 278.166 72.1096C276.692 65.9404 278.637 59.325 276.515 51.1964C273.882 41.1084 260.343 33.329 250.538 29.449C245.293 28.9468 240.003 29.1622 234.818 30.0892C246.254 31.3502 270.561 42.447 264.057 80.1218C279.757 89.395 289.661 88.6384 287.323 106.7ZM101.65 191.691C98.9566 186.025 95.6982 180.637 91.923 175.609C87.3446 173.669 82.0981 173.669 79.5042 178.034C78.4039 179.838 76.5764 183.349 78.6986 183.543C80.4475 183.698 81.7444 182.379 82.943 181.118C85.9495 178.014 85.9691 177.238 86.3228 177.568C86.3442 177.588 86.3613 177.612 86.3729 177.639C86.3846 177.665 86.3906 177.694 86.3906 177.723C86.3906 177.752 86.3846 177.781 86.3729 177.808C86.3613 177.834 86.3442 177.858 86.3228 177.878C86.3228 177.878 85.1438 179.663 83.8076 181.293C84.0631 183.621 82.9037 184.804 80.9387 184.824C81.0357 185.404 80.9613 186 80.7243 186.541C80.4874 187.081 80.0979 187.542 79.6025 187.869C79.0483 188.235 78.4246 188.486 77.7692 188.606C77.1138 188.726 76.4406 188.713 75.7904 188.568C75.9083 188.704 83.1592 199.49 83.2967 199.665C88.1699 195.358 95.2832 190.314 101.65 191.691ZM72.7054 178.363C72.0625 178.99 71.618 179.787 71.4261 180.659C71.2342 181.53 71.3032 182.438 71.6246 183.272C72.9805 187.326 77.3624 188.432 78.9737 187.152C80.585 185.871 80.0348 185.212 79.7008 184.61C79.2894 184.728 78.8556 184.747 78.4352 184.666C78.0148 184.585 77.6201 184.406 77.2838 184.145C76.0512 183.697 74.9696 182.919 74.1608 181.898C73.3519 180.876 72.8478 179.652 72.7054 178.363ZM21.1241 52.7484C19.7518 52.6805 18.3864 52.9799 17.1723 53.6151C15.9582 54.2503 14.9406 55.1976 14.227 56.3568C12.9921 58.5645 12.3622 61.052 12.3995 63.5736C12.262 73.4676 10.2773 176.385 12.1441 182.748C13.6571 187.928 20.2792 187.249 23.1481 186.977C30.7526 186.24 62.6642 180.42 71.4085 178.868C71.7542 178.441 72.1574 178.062 72.6071 177.743C72.6071 174.774 75.9869 173.319 78.9541 172.757C78.286 172.078 77.6572 171.476 76.9891 170.817C53.2912 175.143 30.7133 179.12 30.7919 178.907C30.8705 178.693 21.3403 181.138 19.4539 174.871C17.5675 168.605 19.4539 70.5964 19.4539 70.5964C19.4539 70.5964 19.1002 61.0128 27.0977 60.3726C35.0953 59.7324 119.453 70.5964 119.453 70.5964C119.453 70.5964 129.042 71.3724 129.494 77.9684L132.54 154.637C132.54 154.637 133.208 159.216 130.417 160.457C128.452 161.33 85.2224 169.284 87.5411 168.838C89.3308 170.722 91.0041 172.711 92.5518 174.794C94.5169 174.425 134.78 166.704 136.607 165.831C137 165.634 137.349 165.36 137.633 165.027C137.916 164.694 138.129 164.307 138.258 163.891C139.142 161.582 138.788 166.529 134.957 71.9544C134.89 71.0499 134.634 70.1689 134.205 69.3673C133.775 68.5657 133.181 67.8612 132.461 67.2984C130.076 65.6153 127.283 64.5846 124.365 64.3108C112.379 62.8946 33.4054 52.7096 21.1241 52.7484ZM83.3557 181.875C82.7249 182.673 81.9764 183.372 81.1352 183.951C82.5304 183.989 83.2181 183.272 83.3557 181.875ZM91.2157 174.736C85.4975 167.519 77.6179 160.244 68.3824 159.351C67.0855 159.642 67.1641 160.574 67.8715 161.679C69.5417 164.279 71.6639 163.813 80.2903 172.737C80.3527 172.802 80.3957 172.883 80.4144 172.971C80.4331 173.059 80.4269 173.15 80.3964 173.234C80.3658 173.319 80.3122 173.393 80.2414 173.449C80.1707 173.505 80.0856 173.541 79.9955 173.552C76.262 173.882 72.5482 175.492 73.511 179.101C73.7047 179.987 74.0939 180.82 74.6509 181.541C75.2079 182.262 75.919 182.853 76.7336 183.272C76.1637 181.603 77.6179 178.984 78.5414 177.452C81.3907 172.912 86.2835 172.485 91.2353 174.736H91.2157ZM265.865 171.709C254.33 174.289 244.25 171.709 244.25 160.069C244.25 142.338 274.196 144.297 267.398 118.049C260.599 91.8006 248.376 108.756 247.748 88.9488C247.433 78.0654 247.472 63.3602 240.536 53.505C235.289 46.0554 226.034 41.4188 209.568 43.32C217.428 44.7944 221.652 50.4592 219.648 60.3144C217.546 70.577 215.011 82.314 215.207 91.0634C215.325 96.476 216.445 100.763 219.55 102.606C224.993 105.924 238.257 110.987 244.152 117.855C254.782 130.193 233.894 139.195 227.41 152.406C224.993 157.334 224.521 163.018 228.157 170.293C229.795 173.788 232.497 176.691 235.884 178.6C239.272 180.509 243.179 181.328 247.06 180.944C254.448 180.42 263.31 176.54 265.885 171.709H265.865ZM252.306 29.7594C261.974 33.6394 274.648 41.0696 277.36 51.0994C279.659 59.5772 277.675 65.9016 279.168 71.9932C281.251 80.5292 289.248 83.381 297.678 87.5132C308.879 92.984 318.979 99.1532 312.946 110.075C307.405 120.086 299.938 126.294 297.03 131.415C292.687 139.175 300.076 143.055 307.543 150.815C315.009 158.575 316.149 165.928 307.543 175.55C317.485 170.468 324.52 167.499 322.123 161.97C320.531 158.284 315.697 153.9 309.566 147.42C301.294 138.69 308.8 131.086 316.876 122.453C328.981 109.552 335.485 99.968 322.771 88.522C314.911 81.4022 302.473 76.106 295.91 71.935C283.471 64.0198 285.849 34.2408 252.326 29.7594H252.306ZM205.579 42.8932C198.269 39.634 189.328 40.4682 181.193 47.0254C170.11 55.9106 163.999 66.4254 171.643 78.337C178.187 88.619 189.8 96.7088 181.468 108.232C173.608 119.058 166.357 125.169 168.99 134.655C171.623 144.142 199.625 157.761 190.605 166.51C186.872 170.157 183.02 170.39 180.545 166.103C181.586 170.312 184.828 172.388 189.25 173.028C190.921 173.27 192.616 173.322 194.3 173.184C200.195 169.42 199.978 164.395 195.832 158.731C188.444 148.662 179.346 149.147 186.656 134.345C188.292 130.836 190.816 127.803 193.985 125.537C186.675 116.148 185.732 101.248 185.909 89.4532C175.219 77.4252 178.717 61.5754 189.23 50.3428C193.494 45.8032 199.389 42.2336 205.598 42.8932H205.579ZM194.241 125.925C188.778 129.805 184.907 139.272 185.005 143.211C185.182 149.186 191.273 150.583 196.658 158.129C200.588 163.716 201.216 169.187 195.439 173.028C203.515 171.709 207.485 164.939 205.756 159.099C203.594 151.785 202.572 154.346 201.826 146.256C201.04 138.671 205.245 138.496 203.791 132.967C200.06 131.457 196.78 129.033 194.26 125.925H194.241ZM25.1131 130.639C25.1131 130.639 24.5432 162.106 24.8773 169.323C24.8773 169.323 57.064 165.288 58.1054 164.027C58.4984 163.561 57.6928 129.611 57.2998 129.553C56.9068 129.495 24.7201 130.601 25.1131 130.639ZM190.173 160.787C187.611 162.57 184.903 164.141 182.077 165.482C184.042 168.702 186.616 167.946 189.328 165.288C189.941 164.728 190.357 163.989 190.516 163.18C190.675 162.371 190.568 161.533 190.212 160.787H190.173ZM76.7926 160.787C84.122 159.662 91.648 158.459 92.5126 158.168C93.3772 157.877 93.4951 128.564 93.4951 128.001C93.4951 127.438 61.7407 129.398 62.0551 129.417C62.0551 129.417 62.1533 155.394 62.4088 162.999L66.9479 162.32C66.0833 160.962 65.9065 159.487 67.3016 158.672C67.6053 158.495 67.9377 158.37 68.2841 158.304C71.2663 158.554 74.17 159.378 76.8318 160.729L76.7926 160.787ZM39.3004 149.38C39.1825 147.149 38.8484 138.225 40.2043 136.44C40.2904 136.308 40.4103 136.201 40.5517 136.13C40.6931 136.058 40.8512 136.025 41.0099 136.033C43.4662 136.149 42.6605 139.04 43.4269 149.225C48.9289 152.367 47.7892 159.759 40.9903 159.875C38.1017 159.875 34.7612 157.082 35.3507 153.881C35.592 152.871 36.0773 151.935 36.7651 151.151C37.4529 150.367 38.3228 149.759 39.3004 149.38ZM42.1103 140.999C41.9728 137.565 41.8942 136.867 40.951 136.809C40.8331 136.809 40.6169 137.274 40.5776 137.391C39.4379 140.417 39.6934 150.544 39.6541 149.496C39.6577 149.532 39.6503 149.568 39.6327 149.599C39.6151 149.63 39.5883 149.655 39.5558 149.671C38.6531 150.082 37.8443 150.669 37.1782 151.397C36.762 151.8 36.4342 152.283 36.2153 152.816C35.9964 153.349 35.8911 153.921 35.9058 154.496C35.9206 155.071 36.0551 155.637 36.301 156.159C36.547 156.681 36.8991 157.146 37.3354 157.528C38.3062 158.473 39.6073 159.015 40.9706 159.041C42.2349 159.048 43.4681 158.654 44.4879 157.916C45.3502 157.185 45.9018 156.16 46.0329 155.045C46.164 153.931 45.8649 152.808 45.1954 151.902C44.5781 151.086 43.7777 150.422 42.857 149.962C42.7878 149.927 42.7293 149.874 42.6878 149.81C42.6463 149.745 42.6233 149.67 42.6212 149.593C42.3068 145.325 42.464 145.713 42.2282 145.713C42.0848 145.733 41.9393 145.733 41.7959 145.713C41.6964 145.725 41.5954 145.712 41.5026 145.674C41.4098 145.637 41.3281 145.577 41.2654 145.5C41.0885 145.383 41.0689 145.345 41.0689 145.345C41.0202 145.33 40.9775 145.301 40.9472 145.261C40.9168 145.22 40.9004 145.172 40.9004 145.122C40.9004 145.071 40.9168 145.023 40.9472 144.982C40.9775 144.942 41.0202 144.913 41.0689 144.898L41.2654 144.743C41.3724 144.645 41.5124 144.59 41.6584 144.588C42.3461 144.472 42.2086 144.937 42.1496 143.754C41.6712 143.948 41.1346 143.948 40.6562 143.754C40.5526 143.716 40.4586 143.657 40.3811 143.579C40.3238 143.579 40.2688 143.557 40.2283 143.517C40.1877 143.477 40.165 143.422 40.165 143.366C40.165 143.309 40.1877 143.255 40.2283 143.215C40.2688 143.175 40.3238 143.152 40.3811 143.152C40.6301 142.982 40.9157 142.87 41.2157 142.826C41.5157 142.782 41.8219 142.808 42.1103 142.9V142.047C41.9677 142.076 41.8206 142.076 41.678 142.047C41.0296 141.93 40.833 141.115 41.678 140.98C41.8145 140.956 41.9542 140.956 42.0907 140.98L42.1103 140.999ZM97.0124 127.729C97.0124 127.729 97.2286 151.921 97.9753 157.043C97.9753 157.043 124.365 153.881 125.269 152.736C125.682 152.232 125.112 126.003 124.758 125.964C124.405 125.925 96.6587 127.691 96.9928 127.71L97.0124 127.729ZM72.5875 140.087C71.6049 131.939 77.6768 130.387 80.0152 133.976C80.9007 135.506 81.3616 137.239 81.3514 139.001C83.9452 138.884 85.7333 139.001 85.7333 139.001C86.2049 139.001 86.2246 139.68 86.2835 140.223C86.6372 143.56 86.6962 154.288 86.6765 153.939C86.6759 154.009 86.6598 154.079 86.6292 154.142C86.5987 154.206 86.5545 154.262 86.4997 154.307C84.7705 155.607 70.0133 156.829 70.2098 156.81C69.7775 156.81 69.5417 156.112 69.4435 155.704C68.7702 150.974 68.4484 146.202 68.4806 141.426L68.6181 141.271C69.9091 140.778 71.236 140.382 72.5875 140.087ZM85.3796 139.777C79.7801 139.492 74.1711 140.115 68.7754 141.62C68.8736 143.56 69.4042 154.288 70.2884 156.073C72.6071 155.84 83.6308 154.734 85.694 153.764C85.7726 151.475 85.6744 141.93 85.3796 139.777ZM217.467 138.031V135.606C213.041 135.604 208.65 134.829 204.498 133.317C205.834 138.632 201.845 138.807 202.729 146.159C202.845 149.08 203.71 151.924 205.245 154.424C207.603 153.57 210.472 152.658 212.869 151.921C212.574 149.807 209.803 141.503 213.026 139.195C214.423 138.546 215.928 138.151 217.467 138.031ZM77.2445 148.352C76.663 148.096 76.1849 147.656 75.8865 147.1C75.5881 146.545 75.4865 145.908 75.5981 145.289C75.7096 144.67 76.0278 144.106 76.5018 143.687C76.9759 143.267 77.5786 143.017 78.2137 142.975C78.8488 142.933 79.4799 143.103 80.0061 143.456C80.5324 143.81 80.9236 144.327 81.1173 144.926C81.3111 145.524 81.2962 146.17 81.075 146.759C80.8539 147.348 80.4393 147.847 79.8973 148.177C80.2007 149.45 80.3784 150.75 80.4278 152.057C80.4278 152.949 77.8537 153.027 77.1659 152.658C76.4782 152.29 77.0087 149.904 77.2445 148.352ZM114.206 133.375C115.059 133.589 115.856 133.979 116.545 134.519C116.233 134.868 116.059 135.316 116.053 135.78C116.053 137.352 117.724 138.108 118.686 137.003C119.139 137.84 119.45 138.744 119.61 139.68C119.227 139.787 118.89 140.014 118.649 140.327C118.409 140.641 118.279 141.023 118.279 141.416C118.279 141.809 118.409 142.191 118.649 142.505C118.89 142.818 119.227 143.046 119.61 143.152C119.431 144.079 119.099 144.971 118.627 145.791C118.411 145.56 118.126 145.403 117.813 145.341C117.501 145.279 117.176 145.317 116.887 145.448C116.597 145.579 116.356 145.798 116.2 146.072C116.043 146.346 115.978 146.662 116.014 146.974C116.008 147.432 116.176 147.875 116.486 148.216C115.78 148.728 114.978 149.097 114.128 149.302C114.085 148.933 113.906 148.592 113.625 148.344C113.344 148.097 112.981 147.96 112.605 147.96C112.228 147.96 111.865 148.097 111.584 148.344C111.303 148.592 111.124 148.933 111.082 149.302C110.172 149.063 109.322 148.641 108.586 148.061C109.765 146.567 107.997 144.394 106.621 145.577C106.199 144.772 105.901 143.909 105.737 143.017C106.065 142.874 106.343 142.64 106.539 142.344C106.734 142.048 106.838 141.702 106.838 141.348C106.838 140.995 106.734 140.649 106.539 140.352C106.343 140.056 106.065 139.823 105.737 139.68C105.904 138.813 106.202 137.976 106.621 137.197C108.056 138.477 109.903 136.265 108.724 134.675C109.47 134.104 110.326 133.688 111.239 133.452C111.187 133.677 111.187 133.911 111.24 134.136C111.294 134.361 111.398 134.571 111.546 134.75C111.694 134.928 111.882 135.071 112.095 135.167C112.307 135.264 112.539 135.31 112.773 135.304C113.007 135.298 113.236 135.239 113.444 135.132C113.651 135.025 113.83 134.873 113.969 134.686C114.107 134.5 114.2 134.285 114.242 134.058C114.283 133.83 114.271 133.597 114.206 133.375ZM237.038 138.147L229.178 138.38C229.665 140.937 229.869 143.539 229.787 146.14C231.87 143.385 234.464 140.805 237.038 138.147ZM112.654 139.563C113.088 139.598 113.492 139.801 113.775 140.128C114.059 140.455 114.199 140.88 114.167 141.309C114.202 141.528 114.19 141.752 114.129 141.966C114.068 142.18 113.961 142.378 113.816 142.547C113.67 142.715 113.489 142.851 113.285 142.944C113.081 143.037 112.859 143.085 112.634 143.085C112.409 143.085 112.187 143.037 111.983 142.944C111.779 142.851 111.598 142.715 111.453 142.547C111.307 142.378 111.2 142.18 111.139 141.966C111.079 141.752 111.066 141.528 111.101 141.309C111.085 141.094 111.113 140.877 111.183 140.672C111.252 140.467 111.363 140.278 111.507 140.115C111.652 139.953 111.827 139.82 112.024 139.726C112.221 139.631 112.435 139.576 112.654 139.563ZM80.9584 139.02C80.5457 136.343 79.3274 132.812 76.5568 133.2C73.7861 133.588 73.0001 137.255 72.9608 140.087C75.5961 139.536 78.2694 139.179 80.9584 139.02ZM204.852 43.3976C204.852 43.3976 198.23 46.909 193.18 58.1416C189.513 67.0013 187.586 76.4685 187.501 86.0388C187.127 98.125 187.717 114.343 194.752 124.218C200.175 131.803 208.507 134.461 217.821 134.888C217.916 134.893 218.006 134.934 218.072 135.003C218.138 135.071 218.174 135.162 218.174 135.257V137.953C224.625 137.423 231.104 137.319 237.569 137.643C240.174 135.076 242.493 132.24 244.486 129.184C251.619 117.389 227.94 109.144 218.941 103.596C215.581 101.501 214.185 96.9998 214.185 91.044C214.067 82.2364 216.701 70.4218 218.901 60.1204C220.041 54.7272 219.196 51.0994 217.506 48.655C216.288 47.1447 214.752 45.9133 213.005 45.0459C211.258 44.1784 209.341 43.6955 207.386 43.6304C207.334 43.6546 207.277 43.6672 207.219 43.6672C207.162 43.6672 207.105 43.6546 207.052 43.6304C206.333 43.4556 205.592 43.3773 204.852 43.3976ZM25.5454 84.5644C25.5454 84.5644 24.9755 115.604 25.5454 122.724C25.5454 122.724 56.7496 121.968 58.2823 121.444C59.0683 121.172 58.2823 86.0194 57.9679 85.9418C57.6535 85.8642 25.1131 84.5256 25.5454 84.5644ZM61.9568 85.9418C61.9568 85.9418 61.5638 113.102 62.173 121.696C62.173 121.696 91.9427 120.92 93.3772 120.377C94.0649 119.64 94.1435 88.0564 93.7505 87.9982C93.3575 87.94 61.5442 85.903 61.8979 85.9418H61.9568ZM97.6019 88.2892C97.6019 88.2892 96.8749 111.821 97.484 120.377C97.484 120.377 123.343 119.387 124.876 119.29C125.564 119.29 124.876 90.6754 124.444 90.6172C124.012 90.559 97.1893 88.2504 97.543 88.2892H97.6019ZM38.3179 114.052C41.0227 114.395 43.7576 114.441 46.4726 114.188C47.3176 114.188 47.5534 114.188 47.5534 113.917C47.5534 113.894 47.5488 113.871 47.5399 113.85C47.531 113.829 47.518 113.809 47.5016 113.793C47.4851 113.777 47.4656 113.764 47.4442 113.755C47.4227 113.747 47.3997 113.742 47.3765 113.742C44.3684 113.375 41.326 113.375 38.3179 113.742C38.2934 113.76 38.2736 113.784 38.26 113.81C38.2464 113.837 38.2393 113.867 38.2393 113.897C38.2393 113.927 38.2464 113.957 38.26 113.984C38.2736 114.011 38.2934 114.034 38.3179 114.052ZM110.335 97.7952C109.903 94.9434 113.735 95.215 113.008 97.7952C113.77 98.0637 114.448 98.5253 114.973 99.1338C116.603 101.074 115.739 102.509 117.252 106.37C118.608 109.862 119.472 110.017 119.217 110.541C118.961 111.065 119.217 110.774 114.776 110.657C115.523 110.929 114.776 112.19 113.97 112.597C113.432 112.951 112.797 113.133 112.15 113.119C111.504 113.105 110.877 112.896 110.355 112.52C109.759 111.995 109.312 111.327 109.058 110.58L103.851 110.425C103.753 110.409 103.664 110.362 103.596 110.292C103.528 110.222 103.485 110.131 103.474 110.035C103.463 109.938 103.484 109.84 103.534 109.757C103.585 109.673 103.661 109.608 103.752 109.571C105.148 109.241 105.717 106.874 106.11 105.4C106.955 101.85 106.818 98.707 110.335 97.7952ZM38.3179 112.054C41.0229 112.393 43.7575 112.439 46.4726 112.19C47.3176 112.19 47.5534 112.19 47.5534 111.918C47.5534 111.872 47.5347 111.828 47.5016 111.795C47.4684 111.762 47.4234 111.744 47.3765 111.744C44.3689 111.369 41.3255 111.369 38.3179 111.744C38.2934 111.762 38.2736 111.785 38.26 111.812C38.2464 111.839 38.2393 111.869 38.2393 111.899C38.2393 111.929 38.2464 111.959 38.26 111.986C38.2736 112.013 38.2934 112.036 38.3179 112.054ZM109.785 111.084C110 111.414 110.288 111.693 110.626 111.899C110.964 112.106 111.345 112.235 111.74 112.278C112.136 112.321 112.536 112.276 112.912 112.146C113.287 112.017 113.629 111.807 113.911 111.53C112.241 111.414 111.337 111.317 109.785 111.084ZM75.7904 100.453C75.7904 100.453 68.6575 99.1532 67.9304 102.956C67.2034 106.758 72.5678 107.282 75.7118 106.7C75.7118 106.7 79.6418 111.821 80.5457 111.395C81.4496 110.968 81.1942 97.4654 80.7618 96.67C80.3296 95.8746 75.9476 100.298 75.7904 100.453ZM38.141 105.206C36.9768 104.924 35.9482 104.251 35.2313 103.302C34.5143 102.354 34.1537 101.189 34.211 100.007C34.211 95.6224 37.4729 93.9346 41.8745 93.6824C47.4158 93.4108 50.2651 96.282 50.3437 100.434C50.329 101.349 50.0821 102.246 49.6256 103.042C49.169 103.839 48.5173 104.509 47.7302 104.993V110.366C47.7302 110.474 47.6867 110.578 47.6093 110.655C47.532 110.731 47.427 110.774 47.3176 110.774L38.2196 110.58C38.1414 110.58 38.0665 110.549 38.0112 110.495C37.9559 110.44 37.9249 110.366 37.9249 110.289L38.141 105.206ZM46.9639 109.959C46.9639 104.391 46.9639 104.546 47.1604 104.391C47.8424 103.98 48.4144 103.413 48.8281 102.737C49.2419 102.062 49.4853 101.299 49.538 100.511C49.538 96.864 47.0425 94.3808 41.9924 94.5942C38.0624 94.7688 35.0167 96.1462 34.9184 100.084C34.8244 101.17 35.1189 102.254 35.7509 103.147C36.3828 104.04 37.312 104.687 38.3768 104.973C38.413 104.986 38.444 105.01 38.4653 105.041C38.4866 105.073 38.4969 105.11 38.4947 105.148V110.134L46.9639 109.959ZM117.999 109.959C116.625 107.669 115.793 105.103 115.562 102.451C115.618 101.392 115.273 100.351 114.593 99.5297C113.914 98.7085 112.949 98.1662 111.887 98.0086C110.831 98.0138 109.807 98.369 108.979 99.0174C108.196 99.7038 107.693 100.649 107.564 101.675C107.093 104.411 106.68 108 105.265 109.571L117.999 109.959ZM86.7944 99.968C87.3445 100.457 87.7831 101.056 88.0812 101.725C88.3793 102.394 88.5301 103.117 88.5236 103.848C88.5413 104.604 88.3716 105.353 88.0291 106.029C87.6866 106.705 87.1817 107.288 86.5586 107.728C86.5195 107.772 86.4644 107.798 86.4055 107.802C86.3465 107.806 86.2885 107.786 86.2442 107.747C86.1999 107.709 86.173 107.654 86.1693 107.596C86.1656 107.538 86.1855 107.481 86.2246 107.437C86.5667 106.884 86.8374 106.291 87.0302 105.672C87.3044 104.768 87.3832 103.817 87.2613 102.881C87.1395 101.946 86.8197 101.046 86.3228 100.24C86.146 99.871 86.539 99.7158 86.6962 99.968C86.8534 100.22 86.814 99.9292 86.7944 99.968ZM84.8294 106.292C84.7825 106.328 84.723 106.345 84.6641 106.337C84.6051 106.33 84.5515 106.3 84.515 106.254C84.4785 106.207 84.4622 106.149 84.4695 106.09C84.4769 106.032 84.5074 105.979 84.5543 105.943C84.8193 105.601 85.0435 105.23 85.2224 104.837C85.7923 103.673 85.3796 102.897 84.5936 101.559C84.3971 101.229 84.7115 101.113 84.8098 101.171C85.3376 101.367 85.7923 101.716 86.1134 102.174C86.4344 102.632 86.6064 103.175 86.6064 103.732C86.6064 104.288 86.4344 104.832 86.1134 105.289C85.7923 105.747 85.3376 106.097 84.8098 106.292H84.8294ZM83.4539 102.412C83.6368 102.996 83.6838 103.613 83.5915 104.217C83.5596 104.441 83.507 104.662 83.4342 104.876C83.2181 105.09 83.4343 105.4 83.729 105.206C83.9968 105.094 84.2314 104.917 84.4105 104.691C84.5896 104.465 84.7073 104.197 84.7526 103.914C84.7978 103.63 84.7691 103.34 84.669 103.071C84.569 102.801 84.401 102.561 84.181 102.374C84.0571 102.279 83.9257 102.195 83.788 102.121C83.7437 102.075 83.6825 102.048 83.618 102.046C83.5536 102.044 83.491 102.068 83.4441 102.112C83.3972 102.155 83.3698 102.216 83.368 102.279C83.3661 102.343 83.39 102.405 83.4342 102.451L83.4539 102.412ZM84.967 101.268C84.958 101.279 84.9513 101.293 84.9473 101.307L84.967 101.268ZM258.201 100.88C260.012 100.384 261.613 99.326 262.767 97.8619C263.92 96.3978 264.566 94.6058 264.607 92.7512C264.875 90.529 264.529 88.2765 263.605 86.2328C263.357 85.58 262.966 84.9893 262.46 84.503C261.954 84.0168 261.345 83.6469 260.677 83.4198C255.627 82.1782 252.817 88.3474 249.339 92.111C250.361 99.386 253.8 98.707 258.201 100.88ZM86.7355 100.22C86.6973 100.234 86.6557 100.234 86.6176 100.22C86.6603 100.222 86.7022 100.208 86.7355 100.181V100.22ZM112.634 97.7952C112.563 97.4743 112.415 97.1749 112.202 96.9222C112.147 96.8536 112.076 96.7981 111.996 96.7599C111.917 96.7218 111.829 96.702 111.74 96.702C111.651 96.702 111.564 96.7218 111.484 96.7599C111.404 96.7981 111.334 96.8536 111.278 96.9222C111.061 97.18 110.882 97.4675 110.748 97.7758C111.365 97.61 112.014 97.6034 112.634 97.7564V97.7952ZM207.288 42.9902C225.563 40.1772 235.682 45.0272 241.381 52.9618C249.87 64.7958 248.376 83.7302 249.241 90.9664C251.206 88.3668 253.171 85.0106 256.04 83.2064C254.075 79.0936 258.3 36.7628 206.443 42.156C205.991 42.447 206.031 42.1948 207.288 42.9514V42.9902ZM203.594 43.4558C195.105 44.1736 187.717 52.3022 183.944 59.7906C178.914 69.5876 179.267 79.8696 185.909 88.328C185.937 81.7135 186.708 75.1225 188.208 68.6758C190.487 59.422 195.518 48.6356 203.594 43.417V43.4558ZM83.4342 61.75C83.7518 61.6943 84.079 61.7364 84.3715 61.8705C84.664 62.0046 84.9076 62.2243 85.0694 62.4997C85.2311 62.7752 85.3031 63.0931 85.2756 63.4103C85.2482 63.7276 85.1225 64.0288 84.9157 64.2731C84.709 64.5175 84.4311 64.6931 84.1198 64.7762C83.8085 64.8594 83.4788 64.846 83.1755 64.7378C82.8721 64.6297 82.6098 64.4321 82.4241 64.1717C82.2384 63.9114 82.1383 63.601 82.1374 63.2826C82.1046 62.9098 82.2226 62.5394 82.4656 62.2522C82.7086 61.965 83.0568 61.7845 83.4342 61.75Z" fill="#48BA86"/>
</svg>
