<svg width="181" height="52" viewBox="0 0 181 52" fill="none" xmlns="http://www.w3.org/2000/svg">
<g clip-path="url(#clip0_3952_1032)">
<path d="M143.012 17.6801C143.012 15.3589 144.918 13.4773 147.27 13.4773H160.329V17.6801H143.012Z" fill="#95A3B0"/>
<path d="M156.07 25.5255C158.421 25.5255 160.329 23.6439 160.329 21.3227V13.4773H156.07V25.5255Z" fill="#59CEE0"/>
<path d="M160.329 21.3235C160.329 23.6447 158.422 25.5263 156.07 25.5263H143.012V21.3235H160.329Z" fill="#95A3B0"/>
<path d="M147.27 33.3717C144.918 33.3717 143.012 31.4899 143.012 29.169V21.3235H147.27V33.3717Z" fill="#59CEE0"/>
<path d="M160.319 33.3725C160.319 31.0513 158.414 29.1697 156.062 29.1697H143.002V33.3725H160.319Z" fill="#95A3B0"/>
<path d="M139.479 16.9178V12.0251C138.412 11.8213 137.56 12.3309 137.453 12.9425V17.7332C138.296 17.6569 138.789 17.7085 139.479 16.9178Z" fill="#66E1D2"/>
<path d="M125.609 20.3374V28.5137C123.641 28.5137 122.295 27.4917 122.295 26.7763V23.4036C122.295 21.4617 123.227 20.3374 125.609 20.3374Z" fill="#74D5C1"/>
<path d="M130.518 25.1865V33.4235C132.521 33.4235 133.893 32.3938 133.893 31.6731V28.2754C133.893 26.3191 132.944 25.1865 130.518 25.1865Z" fill="#74D5C1"/>
<path d="M133.096 23.4263H122.295C122.295 21.3671 123.334 20.3374 124.892 20.3374H130.603C132.265 20.3374 132.954 21.7248 133.096 23.4263Z" fill="#89AAB9"/>
<path d="M130.516 33.4209V30.2715H122.416C122.416 31.8612 123.363 33.3309 125.044 33.4209H130.516Z" fill="#89AAB9"/>
<path d="M125.611 24.9167V28.5194H133.891C133.891 26.701 132.923 25.0197 131.204 24.9167H125.611Z" fill="#89AAB9"/>
<path d="M110.236 23.6389V20.2776H115.606C117.263 20.2776 118.705 21.4283 118.705 22.7304V28.0602L115.33 24.5171V23.6389H110.236Z" fill="#5FD0E3"/>
<path d="M121.002 30.1501H118.579C118.177 31.3065 116.983 32.764 115.111 33.5419H118.456C120.021 33.3552 120.911 32.1728 121.002 30.1501Z" fill="#5FD0E3"/>
<path fill-rule="evenodd" clip-rule="evenodd" d="M114.13 33.663C116.74 33.663 118.856 31.575 118.856 28.9994C118.856 26.4239 116.74 24.3359 114.13 24.3359C111.521 24.3359 109.406 26.4239 109.406 28.9994C109.406 31.575 111.521 33.663 114.13 33.663ZM114.13 31.1794C115.349 31.1794 116.339 30.2033 116.339 28.9991C116.339 27.7949 115.349 26.8187 114.13 26.8187C112.91 26.8187 111.921 27.7949 111.921 28.9991C111.921 30.2033 112.91 31.1794 114.13 31.1794Z" fill="#89AAB9"/>
<path d="M108.025 12.0716C102.339 12.0616 90.9652 12.0716 90.6582 12.0716C90.6582 14.2823 91.9475 16.4626 93.8185 16.5837H97.5926V33.4814C100.538 33.4814 102.226 31.816 102.226 29.8476V16.5837H108.025V12.0716Z" fill="#66E1D2"/>
<path d="M84.6436 16.339C84.5518 13.5832 86.6076 12.1599 89.3384 12.1599L89.3076 29.5421C89.3076 32.207 87.1902 33.4487 84.6436 33.4487V16.339Z" fill="#5FD0E3"/>
<path d="M76.7005 15.0997C77.4673 12.4347 80.1679 11.496 83.1133 12.4347L77.3755 30.3924C76.6326 32.608 76.0579 33.443 74.7063 34.0869L72.1289 29.3023L76.7005 15.0997Z" fill="#40E2F6"/>
<path d="M68.0983 15.3072C67.2552 12.6648 64.5291 11.8018 61.6113 12.8223L67.8612 30.6127C68.5049 32.4207 69.0991 33.6316 70.4689 34.2377C72.1155 34.734 73.5986 34.6312 74.7033 34.0559L68.0983 15.3072Z" fill="#66E1D2"/>
<path d="M50.832 23.6389V20.2776H56.2013C57.8582 20.2776 59.3002 21.4283 59.3002 22.7304V28.0602L55.9251 24.5171V23.6389H50.832Z" fill="#57CBD8"/>
<path d="M61.5984 30.1501H59.1745C58.772 31.3065 57.5786 32.764 55.707 33.5419H59.0513C60.6164 33.3552 61.5059 32.1728 61.5984 30.1501Z" fill="#57CBD8"/>
<path fill-rule="evenodd" clip-rule="evenodd" d="M54.7314 33.663C57.3412 33.663 59.4565 31.575 59.4565 28.9994C59.4565 26.4239 57.3412 24.3359 54.7314 24.3359C52.1217 24.3359 50.0059 26.4239 50.0059 28.9994C50.0059 31.575 52.1217 33.663 54.7314 33.663ZM54.7304 31.1794C55.9504 31.1794 56.9392 30.2033 56.9392 28.9991C56.9392 27.7949 55.9504 26.8187 54.7304 26.8187C53.5104 26.8187 52.5211 27.7949 52.5211 28.9991C52.5211 30.2033 53.5104 31.1794 54.7304 31.1794Z" fill="#89AAB9"/>
<path d="M39.5116 22.8812C39.4538 21.1644 40.743 20.2776 42.4554 20.2776L42.436 31.1075C42.436 32.7679 41.1086 33.5413 39.5116 33.5413V22.8812Z" fill="#5BCCDE"/>
<path d="M45.8275 25.9097C47.4204 25.9097 48.7118 24.6352 48.7118 23.0631C48.7118 21.4911 47.4204 20.2166 45.8275 20.2166C44.2346 20.2166 42.9434 21.4911 42.9434 23.0631C42.9434 24.6352 44.2346 25.9097 45.8275 25.9097Z" fill="#66E1D2"/>
<path d="M32.0215 22.8822L36.8081 22.8825C37.5138 22.8822 38.2502 21.6406 38.2502 20.3989H32.0217L32.0215 22.8822Z" fill="#5FD0E3"/>
<path fill-rule="evenodd" clip-rule="evenodd" d="M37.9171 26.0921C37.9171 29.2363 35.3345 31.7852 32.1487 31.7852C32.1437 31.7852 32.139 31.7852 32.1341 31.7852H26.0117C26.0117 30.6848 26.5704 29.5542 27.3512 29.2542C26.7379 28.3497 26.3803 27.2621 26.3803 26.0921C26.3803 22.9478 28.9628 20.3989 32.1487 20.3989C35.3345 20.3989 37.9171 22.9478 37.9171 26.0921ZM32.1489 28.8178C33.674 28.8178 34.9104 27.5975 34.9104 26.0923C34.9104 24.5871 33.674 23.3668 32.1489 23.3668C30.6237 23.3668 29.3873 24.5871 29.3873 26.0923C29.3873 27.5975 30.6237 28.8178 32.1489 28.8178Z" fill="#8AA3B2"/>
<path d="M35.8249 32.24H26.0371C26.0371 33.6633 26.8041 34.8443 28.2462 34.8443H38.1569C38.1569 33.4817 37.4512 32.24 35.8249 32.24Z" fill="#5FD0E3"/>
<path d="M38.1604 35.2388H29.5078C29.5078 36.7226 30.4524 37.843 31.9452 37.843H36.1801C37.4293 37.843 38.1604 36.8437 38.1604 35.2388Z" fill="#74F6F4"/>
<path d="M163.367 29.2056C163.367 31.5268 165.274 33.4084 167.625 33.4084H180.685V29.2056H163.367Z" fill="#95A3B0"/>
<path d="M176.426 21.3589C178.777 21.3589 180.684 23.2405 180.684 25.5617V33.4071H176.426V21.3589Z" fill="#66E1D2"/>
<path d="M180.685 25.5617C180.685 23.2405 178.778 21.3589 176.426 21.3589H163.367V25.5617H180.685Z" fill="#95A3B0"/>
<path d="M167.626 13.5132C165.274 13.5132 163.367 15.395 163.367 17.7159V25.5614H167.626V13.5132Z" fill="#66E1D2"/>
<path d="M180.675 13.5132C180.675 15.8344 178.768 17.716 176.417 17.716H163.357V13.5132H180.675Z" fill="#95A3B0"/>
<path fill-rule="evenodd" clip-rule="evenodd" d="M45.9162 12.3907C45.6697 12.3907 45.5829 12.1955 45.7175 11.9441L45.7189 11.9415C45.752 11.8797 45.7763 11.8341 45.8139 11.8061C45.9193 11.7272 46.1282 11.7866 46.9246 12.0132L46.9362 12.0164C47.4409 12.1599 48.0259 12.3031 48.2362 12.3345C48.4466 12.3661 48.7643 12.4906 48.9424 12.6115C49.1206 12.7324 49.3873 12.8579 49.5355 12.8904C49.6835 12.9229 49.8047 13.0075 49.8047 13.0784C49.8047 13.298 49.478 13.253 47.9898 12.8288C47.8152 12.7791 47.4477 12.6985 47.1732 12.6499C46.8987 12.6014 46.5487 12.5231 46.3954 12.4761C46.2422 12.4291 46.0265 12.3907 45.9162 12.3907Z" fill="#22F1D2"/>
<path d="M32.3316 12.1808C32.0571 12.2203 31.0363 12.3394 30.063 12.4457C29.0897 12.552 28.0688 12.6961 27.7944 12.7659C27.5199 12.8358 26.8665 12.9541 26.3424 13.0287C25.8184 13.1033 25.1038 13.2256 24.7544 13.3005C24.405 13.3753 23.8946 13.4834 23.6201 13.5406C22.9353 13.6836 22.3778 13.8313 21.2607 14.1659C20.7366 14.3229 20.1446 14.4869 19.9449 14.5303C19.5263 14.6213 18.5342 14.9466 18.1164 15.1298C17.9591 15.1986 17.787 15.2551 17.7337 15.2551C17.6806 15.2551 17.503 15.3114 17.3391 15.3803C17.1753 15.449 16.694 15.6357 16.2698 15.7949C15.1706 16.2076 14.8576 16.3352 14.1065 16.6765C13.7402 16.843 13.4135 16.9804 13.3806 16.9818C13.3475 16.9832 12.9734 17.1652 12.5492 17.3863C11.3199 18.0265 10.8591 18.2496 10.7659 18.2496C10.718 18.2496 10.5383 18.3545 10.3662 18.4828C10.1944 18.6109 9.83739 18.8189 9.57291 18.9451C9.30843 19.0712 8.91001 19.3135 8.6874 19.4834C8.46481 19.6533 8.2581 19.7923 8.22805 19.7923C8.19802 19.7923 7.91053 19.9761 7.58921 20.2007C7.26797 20.4253 6.98149 20.6091 6.95255 20.6091C6.86716 20.6091 5.4842 21.7102 5.02902 22.1405C4.79808 22.359 4.37421 22.7187 4.08728 22.9398C3.80034 23.161 3.56549 23.3705 3.56549 23.4055C3.56549 23.4629 2.93273 24.2232 2.30541 24.9195C2.17048 25.0692 1.93943 25.3912 1.79189 25.6349C1.64442 25.8786 1.41003 26.2665 1.2711 26.4969C1.13216 26.7274 0.974728 27.0179 0.921281 27.1426C0.867741 27.2675 0.768194 27.5013 0.699954 27.6624C0.393236 28.3862 0.189514 29.4685 0.19142 30.3641C0.194868 31.9998 0.589427 33.164 1.69251 34.7932C2.02392 35.2828 2.27858 35.7181 2.32396 35.7635C2.39818 35.8631 2.48892 36.3081 2.55082 36.3987C2.55082 36.7617 2.55078 37.3969 2.41466 37.6691C2.27854 38.1228 2.18784 38.259 1.87023 38.8489C1.97322 38.921 3.30518 38.0241 4.2296 37.9868C4.75709 37.9868 5.863 38.4404 6.49822 38.8489C6.0445 38.0321 5.81764 37.4423 5.63614 36.5802C5.68152 35.8543 5.863 35.3552 6.49822 34.493C5.50002 35.1283 5.36391 35.1572 4.68332 35.2191C3.54901 35.3221 2.92955 34.4273 2.34634 33.3071C1.94216 32.5308 1.81865 32.185 1.69806 31.4922C1.54751 30.6272 1.5632 29.733 1.73861 29.1845C1.78653 29.0347 1.89715 28.6672 1.98444 28.3677C2.07174 28.0683 2.25487 27.6395 2.39152 27.4149C2.5281 27.1903 2.74943 26.8024 2.88346 26.5529C3.14771 26.0608 3.25097 25.9099 4.05007 24.8505C4.54517 24.1939 6.39292 22.4074 6.91625 22.0793C7.04474 21.9987 7.37451 21.7432 7.64901 21.5115C7.92351 21.2798 8.33187 20.9719 8.55646 20.827C8.78105 20.6822 9.1375 20.434 9.34867 20.2755C9.55974 20.1169 9.82513 19.959 9.93853 19.9244C10.0517 19.8898 10.4768 19.6622 10.883 19.4186C11.2893 19.175 11.6425 18.9757 11.6679 18.9757C11.6934 18.9757 11.9266 18.8327 12.1862 18.6581C12.4459 18.4833 12.7135 18.3405 12.7812 18.3405C12.8489 18.3405 13.1074 18.2207 13.3558 18.0741C13.7862 17.8204 15.0135 17.2515 15.1306 17.2515C15.161 17.2515 15.4852 17.1094 15.8511 16.9359C16.217 16.7622 16.859 16.5004 17.2779 16.354C17.6966 16.2076 18.1618 16.0443 18.3115 15.9912C19.3744 15.6135 20.222 15.3329 20.807 15.1653C21.1814 15.058 21.753 14.8924 22.0774 14.7973C22.4019 14.7022 22.9735 14.561 23.3479 14.4836C23.7222 14.4061 24.2326 14.2839 24.4822 14.2121C25.191 14.0079 26.1667 13.822 28.0666 13.5292C28.6904 13.433 29.3843 13.316 29.6084 13.2693C29.8327 13.2226 30.0097 13.1809 30.0918 13.1809C30.1912 13.1809 30.3266 13.1425 30.6817 13.1355C31.1314 13.0553 34.0508 12.7789 34.5837 12.7659C36.0192 12.5882 39.9377 12.1808 40.4822 12.1808C40.8451 12.1373 40.6636 12.1808 41.3895 12.092C41.7009 11.7805 41.9579 11.3693 41.2988 11.3207C40.2672 11.2446 32.8254 12.1096 32.3316 12.1808Z" fill="#66E1D2"/>
<path fill-rule="evenodd" clip-rule="evenodd" d="M31.3459 49.7679C30.7951 49.5021 30.165 48.9204 30.2337 48.7414C30.3204 48.5158 30.6957 48.6505 31.4559 49.1803C31.8204 49.4343 32.259 49.7265 32.4304 49.8296C32.602 49.9327 32.8346 50.1007 32.9474 50.2029C33.0603 50.305 33.4218 50.5372 33.7509 50.7186C34.3486 51.0481 34.7243 51.3673 34.6278 51.4638C34.5997 51.4918 34.5013 51.4738 34.4091 51.4237C34.0129 51.2082 33.6127 51.0486 33.4685 51.0486C33.383 51.0486 33.2158 50.9728 33.0967 50.8799C32.9777 50.7871 32.7374 50.6386 32.5628 50.5497C32.3881 50.4607 32.1263 50.2887 31.9811 50.1674C31.8358 50.0462 31.55 49.8665 31.3459 49.7679Z" fill="#89AAB9"/>
<path d="M13.9182 2.52463C13.5326 2.79685 13.3511 2.86227 12.852 2.86227C12.3529 2.86227 12.5117 2.86227 12.5117 2.86227C11.9345 2.87335 11.2782 2.88614 11.0537 2.89077C10.8291 2.89531 10.5637 2.92616 10.4639 2.95927C10.364 2.99249 9.97913 3.06218 9.60859 3.11427C8.95467 3.20619 8.31549 3.38114 7.72794 3.62895C7.57068 3.69528 7.39874 3.74955 7.34592 3.74955C7.1863 3.74955 5.88036 4.47221 5.15551 4.96176C3.90828 5.80402 2.93507 7.00117 2.43672 8.30613C2.2851 8.70321 2.1606 9.09603 2.16005 9.17909C2.1595 9.26222 2.09336 9.53427 2.01296 9.78383C1.83202 10.3457 1.79255 13.4045 1.95978 13.9126C2.01723 14.0873 2.08728 14.4752 2.11541 14.7746C2.14354 15.0741 2.22302 15.462 2.29199 15.6367C2.40315 15.9181 2.4811 16.2018 2.7907 17.4515C2.83399 17.6262 2.95504 17.9835 3.05966 18.2455C3.16438 18.5076 3.3269 18.9159 3.42082 19.1529C3.51482 19.39 3.661 19.7435 3.74566 19.9386L4.36769 20.9833L4.77602 20.6203L5.2751 20.212C4.88264 19.4492 5.00288 19.8036 4.63312 18.9394C4.26336 18.0752 4.23113 17.8776 4.04802 17.1793C3.94992 16.805 3.81291 16.2945 3.74358 16.045C3.52734 15.267 3.4307 14.4638 3.3709 12.9503C3.32299 11.7359 3.34023 11.3678 3.47289 10.7725C3.80002 9.30401 3.8943 8.97135 4.02415 8.8278C4.09747 8.74686 4.15736 8.6279 4.15736 8.56347C4.15736 8.31557 4.68547 7.59226 5.36431 6.91053C5.75359 6.51952 6.10631 6.19957 6.14795 6.19957C6.1896 6.19957 6.47371 6.0326 6.77933 5.82852C7.57332 5.29832 8.87491 4.84878 10.4639 4.55606C10.7134 4.51014 11.4653 4.45325 12.1349 4.42965L13.3511 4.47557L13.7015 4.75387C14.0586 5.12936 14.6215 5.60984 14.9844 7.15244C15.089 7.15244 15.1205 5.56446 16.2095 4.75387C17.2076 4.15797 16.89 4.33946 18.4326 3.795C16.9807 3.38667 16.8525 3.35119 16.3002 2.93296C15.9549 2.67145 15.4381 1.79143 15.2113 0.0219727C14.6668 1.47383 14.3039 2.2524 13.9182 2.52463Z" fill="#8AA3B2"/>
<path d="M6.50119 24.0684L6.18359 24.481L6.36508 24.8396C6.50119 25.0212 6.49663 25.026 6.5455 25.1118C6.77308 25.511 7.14584 26.1331 7.37369 26.494C7.60164 26.8551 7.84936 27.2669 7.92423 27.4095C7.99909 27.552 8.15398 27.7875 8.2685 27.9328C8.38301 28.0781 8.64752 28.4624 8.85632 28.7868C9.06511 29.1112 9.39208 29.5808 9.58266 29.8303C9.77342 30.0799 10.2786 30.7435 10.7055 31.3049C11.1322 31.8664 11.5195 32.3257 11.566 32.3257C11.6123 32.3257 11.6761 32.3972 11.7076 32.4845C11.7391 32.5718 11.9318 32.8296 12.1358 33.0573C12.3398 33.2849 12.9148 33.9383 13.4136 34.5091C13.9125 35.08 14.5454 35.7736 14.8201 36.0506C15.0949 36.3275 15.5921 36.8379 15.9249 37.1848C16.2578 37.5318 16.8196 38.081 17.1734 38.4054C17.5272 38.7298 18.2552 39.4175 18.7913 39.9337C19.3274 40.4499 19.8298 40.9067 19.9079 40.9488C19.986 40.9909 20.4147 41.3393 20.8607 41.723C21.3066 42.1068 21.8961 42.5877 22.1706 42.7918C22.4451 42.9959 22.8535 43.3176 23.0781 43.5067C23.7767 44.095 23.9275 44.2136 24.3572 44.5125C24.5867 44.6721 24.4869 44.6235 24.7739 44.8481C25.0609 45.0727 25.2145 45.2019 25.3754 45.3017C25.5363 45.4016 25.6197 45.4977 25.8291 45.6648C26.1931 45.9553 26.9634 46.4482 26.9634 46.2092C26.9634 46.0921 26.5618 45.6648 26.2828 45.3926C25.9652 45.1204 25.5507 44.7891 24.7739 44.1486C23.7283 43.2864 23.3508 42.9811 22.8339 42.5795C22.5448 42.3549 21.9404 41.8427 21.4909 41.4411C21.0412 41.0397 20.5841 40.6497 20.4749 40.5746C20.3657 40.4994 19.9574 40.1437 19.5675 39.7842C19.1776 39.4246 18.7973 39.0749 18.7224 39.0072C18.2513 38.5807 15.8775 36.1026 15.1034 35.2295C14.5946 34.6555 14.1041 34.1042 14.0135 34.0044C13.5131 33.4536 12.4007 32.1028 12.3078 31.9332C12.2484 31.8248 12.0076 31.5113 11.7727 31.2369C11.5378 30.9623 11.2397 30.5744 11.1104 30.3748C10.981 30.1752 10.5911 29.6239 10.2438 29.1498C9.89669 28.6757 9.48792 28.0736 9.33557 27.8118C9.18317 27.55 8.70351 26.7537 8.26959 26.0424C7.83566 25.3309 7.37369 24.5148 7.24285 24.2288C7.1676 24.0643 7.18175 24.1137 7.13638 24.023C7.09101 23.9322 7.11597 23.947 7.04563 23.8415C6.95489 23.7054 6.9362 23.6645 6.86416 23.5693C6.72805 23.7508 6.68267 23.7961 6.50119 24.0684Z" fill="#8AA3B2"/>
<path d="M5.58118 25.5439C5.32981 25.8468 5.56003 28.834 5.96757 30.5576C6.03844 30.857 6.78353 33.3776 6.8162 33.5523C7.17914 33.5523 7.31526 33.5069 7.72361 33.4162C7.45137 34.1421 7.406 34.2329 7.26993 34.8227C7.62311 35.6664 8.4195 36.9652 8.87912 37.6811C9.15154 38.1054 9.41241 38.5341 9.45887 38.634C9.50542 38.7337 9.70835 39.0196 9.9099 39.2692C10.1115 39.5187 10.4399 39.9343 10.6398 40.1928C11.0284 40.6954 13.023 42.7094 13.6051 43.1869C14.2036 43.678 15.7235 44.85 15.7619 44.85C15.7819 44.85 16.0575 45.0117 16.3745 45.2093C17.3941 45.845 19.6803 46.9371 19.9917 46.9371C20.0885 46.9371 20.3015 47.0186 20.4649 47.1182C20.6284 47.2179 20.8524 47.2995 20.9629 47.2997C21.0733 47.2999 21.3591 47.3765 21.5981 47.47C21.9992 47.6268 22.8071 47.772 24.6641 48.0208C25.0634 48.0742 25.8743 48.1176 26.466 48.1174H26.9162L27.5968 48.131C28.595 48.5252 28.3681 48.3892 29.1848 49.8864C29.2755 48.3892 29.5274 48.4603 29.82 48.0208C30.2533 47.7344 30.2436 47.7909 30.8348 47.6807C32.0058 47.4621 34.5593 46.6851 35.2555 46.3353C35.4909 46.2171 35.7525 46.1203 35.8368 46.1203C35.9211 46.1203 36.1165 46.026 36.2709 45.9106C36.4254 45.7952 36.6946 45.6449 36.8693 45.5764C37.044 45.5079 37.4298 45.296 37.7267 45.1055C38.0237 44.915 38.3123 44.7592 38.3683 44.7592C38.4242 44.7592 38.6306 44.6247 38.8266 44.4603C39.0229 44.296 39.4079 44.001 39.6823 43.8048C41.0233 42.8466 42.8091 40.9657 42.752 40.5717C42.7244 40.3809 42.6891 40.3964 42.2232 40.8034C41.9488 41.0432 41.5845 41.3679 41.4137 41.5247C41.1041 41.8091 39.9881 42.6508 38.9701 43.3673C38.6751 43.575 38.1327 43.8981 37.765 44.0853C37.3971 44.2725 37.0349 44.4761 36.96 44.538C36.8852 44.5999 36.5584 44.7592 36.2341 44.8921C35.9097 45.0251 35.4401 45.2298 35.1905 45.3471C34.173 45.8254 32.8945 46.2866 31.4988 46.5289C31.4988 46.5289 31.0305 46.6649 30.6821 46.6649C30.2284 46.6649 30.0015 46.7105 29.457 46.0751C28.9126 45.4398 29.094 45.6667 28.595 44.0853C28.595 44.0853 28.4134 45.5033 28.1865 46.1203C27.9597 46.7375 26.7347 46.8447 26.7347 46.8447H26.0595C25.2422 46.7909 24.5171 46.7278 24.4483 46.7043C24.3795 46.6808 24.0325 46.6013 23.677 46.5278C22.6058 46.3057 19.7506 45.3366 19.4962 45.1087C19.4487 45.0662 19.3394 45.0314 19.253 45.0314C19.1669 45.0314 19.0422 44.9788 18.9763 44.9144C18.9104 44.8501 18.4249 44.5858 17.8976 44.3273C17.3702 44.0688 16.7373 43.7029 16.4911 43.5143C16.2448 43.3257 15.891 43.0894 15.7048 42.9894C14.8993 42.5564 12.4328 40.2406 11.7088 39.2375C11.2383 38.5859 10.6701 37.8281 10.4032 37.496C9.88796 36.8555 8.69508 34.4283 8.13056 32.8716C7.55642 31.2884 6.83718 28.3045 6.83382 27.492C6.83318 27.3531 6.7291 27.0468 6.60251 26.8114C5.82628 25.3681 5.77746 25.3075 5.58118 25.5439Z" fill="#5FD0E3"/>
<path d="M26.8417 4.02574C26.692 4.07212 26.4939 4.09181 26.4014 4.06931C26.1948 4.01931 24.2191 4.26278 23.8563 4.38302C23.7116 4.43102 23.4551 4.47022 23.2863 4.47022C23.1174 4.47022 22.8327 4.53147 22.6535 4.60633C22.4743 4.6812 22.2553 4.74246 22.1667 4.74246C22.002 4.74246 19.9828 5.38774 19.4914 5.59736C19.3417 5.66125 18.7421 5.90808 18.1588 6.14582C17.5757 6.38358 17.0244 6.64646 16.9338 6.72995C16.8432 6.81344 16.63 6.93875 16.4602 7.00854C16.2902 7.07833 15.8939 7.31163 15.5794 7.52697C15.2649 7.7423 15.1192 8.50847 15.0737 8.78071C14.9376 8.55385 14.9376 8.32698 14.6126 8.19087C14.3466 8.43279 13.6869 8.91019 13.4691 9.04685C12.9427 9.37689 11.1642 11.194 10.2957 12.2892C9.28418 13.5646 8.90651 14.1309 8.33036 15.2355C8.04751 15.7779 7.81415 16.1764 7.70432 16.3578C7.63265 16.5394 7.54191 16.6755 7.42237 16.9023C7.32881 17.1268 7.22431 17.314 7.14152 17.4467C7.04281 17.6737 7.04281 17.7191 6.93053 17.9599C6.87536 18.1673 6.39825 19.3835 6.27148 19.6701C7.04281 19.1256 6.99744 19.0802 7.81415 18.6265C7.90489 18.3543 7.81415 18.6265 7.85952 18.4904C7.90489 18.3543 7.95495 18.2476 7.99651 18.1727C8.03799 18.0979 8.232 17.7115 8.42773 17.314C8.75234 16.6549 9.23037 15.8646 9.92719 14.8352C10.0718 14.6216 10.1901 14.4224 10.1901 14.3924C10.1901 14.3412 10.5769 13.8728 11.0398 13.3633C11.1533 13.2384 11.3512 12.9916 11.4798 12.8147C11.8063 12.3654 13.5178 10.6406 13.956 10.3193C14.1556 10.1728 14.4511 9.93008 14.6126 9.77982C15.229 9.20633 16.4553 8.45565 18.1562 7.61063C18.7195 7.33078 19.231 7.10183 19.293 7.10183C19.355 7.10183 19.4956 7.03885 19.6053 6.96199C19.7151 6.88503 19.9794 6.76498 20.1927 6.6952C20.406 6.62541 20.8662 6.46552 21.2156 6.33984C21.5649 6.21416 21.9554 6.10962 22.0833 6.10744C22.2112 6.10536 22.6745 5.98239 23.1128 5.8342C23.6005 5.66942 24.1644 5.55063 24.5663 5.52812C24.9273 5.50789 25.3055 5.44718 25.4064 5.3931C25.6862 5.24336 29.9995 5.21614 31.1068 5.35706C32.3438 5.51451 32.7994 5.59882 33.6476 5.8274C34.0469 5.93494 34.4756 6.04482 34.6005 6.07159C34.8236 6.11933 35.3843 6.31888 36.2792 6.66897C36.9866 6.94565 38.7606 7.8453 39.0512 8.0747C39.1284 8.13568 39.3868 8.28931 39.6253 8.41617C39.8639 8.54294 40.238 8.77897 40.4567 8.9405C40.6755 9.10211 40.9995 9.33638 41.1767 9.46121C41.4824 9.67639 41.7101 9.87438 42.5581 10.663C42.8813 10.9634 42.9297 11.063 42.977 11.525C43.0232 11.9763 42.5711 12.5012 42.1158 13.318C42.9778 12.9535 43.299 12.7811 43.613 12.7281C44.0137 12.7281 44.2482 12.8642 44.4751 13.0004C44.7175 13.1458 44.9742 13.3633 45.2011 13.5902C45.3825 13.7717 47.1521 15.7227 47.379 15.9496C47.0614 15.3597 45.6547 13.4087 45.5187 13.0004C45.4039 12.656 45.2011 12.1836 45.2011 11.525C45.3371 11.0259 45.4279 10.641 45.8816 10.0058C45.1103 10.3688 44.5208 10.5083 44.3843 10.5048C43.8853 10.4922 43.6275 10.4528 42.798 9.68654C42.3668 9.28809 41.9283 8.90511 41.8236 8.83542C41.7189 8.76572 41.5924 8.66201 41.5425 8.60492C41.4925 8.54785 41.2475 8.36109 40.998 8.18985C40.7484 8.01862 40.4595 7.80546 40.3561 7.71617C39.9816 7.39321 38.9328 6.78394 37.3228 5.95399C36.4112 5.48402 36.2749 5.42803 35.0542 5.02105C33.6198 4.54282 32.6375 4.28464 31.916 4.19608C31.5209 4.14753 30.9117 4.06822 30.5624 4.01976C29.7639 3.90905 27.2049 3.91313 26.8417 4.02574Z" fill="#5FD0E3"/>
<path d="M117.898 41.9971C117.389 41.9971 116.991 41.8554 116.704 41.5719C116.417 41.2884 116.273 40.8837 116.273 40.3577V38.3496H117.104V40.327C117.104 40.6686 117.173 40.9145 117.314 41.0647C117.454 41.215 117.65 41.2901 117.903 41.2901C118.155 41.2901 118.352 41.215 118.492 41.0647C118.632 40.9145 118.702 40.6686 118.702 40.327V38.3496H119.522V40.3577C119.522 40.8837 119.378 41.2884 119.091 41.5719C118.805 41.8554 118.407 41.9971 117.898 41.9971ZM120.342 41.9356V38.3496H121.028L123.144 40.9315H122.811V38.3496H123.63V41.9356H122.949L120.828 39.3536H121.161V41.9356H120.342ZM124.479 41.9356V38.3496H125.309V41.2594H127.107V41.9356H124.479ZM128.334 39.7942H130.06V40.4398H128.334V39.7942ZM128.396 41.2696H130.347V41.9356H127.571V38.3496H130.28V39.0156H128.396V41.2696ZM130.537 41.9356L132.135 38.3496H132.954L134.557 41.9356H133.687L132.376 38.7697H132.704L131.387 41.9356H130.537ZM131.336 41.1671L131.556 40.5371H133.4L133.626 41.1671H131.336ZM136.108 41.9971C135.821 41.9971 135.546 41.9595 135.284 41.8844C135.02 41.8058 134.809 41.705 134.648 41.5821L134.93 40.9572C135.083 41.0665 135.264 41.1569 135.473 41.2287C135.685 41.297 135.898 41.3311 136.113 41.3311C136.278 41.3311 136.408 41.3157 136.508 41.285C136.61 41.2508 136.685 41.2047 136.733 41.1467C136.781 41.0886 136.805 41.022 136.805 40.9469C136.805 40.8513 136.768 40.7761 136.692 40.7215C136.617 40.6634 136.518 40.6174 136.395 40.5832C136.272 40.5456 136.136 40.5115 135.985 40.4807C135.839 40.4465 135.69 40.4056 135.54 40.3577C135.392 40.3099 135.258 40.2485 135.135 40.1734C135.012 40.0982 134.911 39.9992 134.833 39.8762C134.758 39.7533 134.72 39.5962 134.72 39.4049C134.72 39.2 134.774 39.0138 134.884 38.8465C134.996 38.6757 135.164 38.5408 135.386 38.4418C135.611 38.3394 135.893 38.2881 136.231 38.2881C136.457 38.2881 136.678 38.3154 136.897 38.3701C137.115 38.4213 137.308 38.4999 137.476 38.6058L137.22 39.2359C137.052 39.1402 136.885 39.0702 136.717 39.0258C136.55 38.978 136.386 38.9541 136.226 38.9541C136.065 38.9541 135.934 38.9728 135.831 39.0104C135.729 39.048 135.656 39.0975 135.611 39.159C135.567 39.2171 135.545 39.2854 135.545 39.3639C135.545 39.4561 135.583 39.5312 135.658 39.5893C135.733 39.644 135.831 39.6883 135.955 39.7225C136.077 39.7566 136.213 39.7908 136.359 39.825C136.51 39.8592 136.658 39.8984 136.805 39.9428C136.955 39.9872 137.092 40.047 137.215 40.1221C137.338 40.1972 137.437 40.2963 137.512 40.4193C137.591 40.5422 137.63 40.6976 137.63 40.8854C137.63 41.0869 137.573 41.2713 137.461 41.4386C137.348 41.606 137.179 41.741 136.953 41.8434C136.731 41.9458 136.45 41.9971 136.108 41.9971ZM140.656 38.3496H141.486V41.9356H140.656V38.3496ZM139.027 41.9356H138.197V38.3496H139.027V41.9356ZM140.717 40.4654H138.965V39.7635H140.717V40.4654Z" fill="#5FD0E3"/>
<path d="M144.677 41.9357V40.4706L144.867 40.9726L143.289 38.3496H144.17L145.38 40.3629H144.872L146.087 38.3496H146.9L145.323 40.9726L145.508 40.4706V41.9357H144.677ZM148.835 41.9973C148.551 41.9973 148.289 41.9511 148.045 41.8589C147.807 41.7667 147.598 41.6369 147.421 41.4696C147.247 41.3022 147.11 41.1058 147.011 40.8804C146.915 40.6549 146.868 40.409 146.868 40.1426C146.868 39.8762 146.915 39.6303 147.011 39.405C147.11 39.1796 147.248 38.9831 147.426 38.8158C147.604 38.6484 147.812 38.5186 148.051 38.4265C148.29 38.3343 148.549 38.2881 148.83 38.2881C149.113 38.2881 149.372 38.3343 149.608 38.4265C149.847 38.5186 150.054 38.6484 150.228 38.8158C150.406 38.9831 150.544 39.1796 150.644 39.405C150.742 39.6269 150.792 39.8728 150.792 40.1426C150.792 40.409 150.742 40.6567 150.644 40.8855C150.544 41.1109 150.406 41.3074 150.228 41.4747C150.054 41.6386 149.847 41.7667 149.608 41.8589C149.372 41.9511 149.115 41.9973 148.835 41.9973ZM148.83 41.2902C148.99 41.2902 149.137 41.2629 149.27 41.2083C149.407 41.1536 149.526 41.0751 149.628 40.9726C149.731 40.8701 149.81 40.7489 149.864 40.6088C149.923 40.4688 149.951 40.3135 149.951 40.1426C149.951 39.9719 149.923 39.8165 149.864 39.6765C149.81 39.5364 149.731 39.4152 149.628 39.3127C149.53 39.2103 149.412 39.1317 149.275 39.077C149.139 39.0224 148.99 38.9951 148.83 38.9951C148.669 38.9951 148.521 39.0224 148.384 39.077C148.251 39.1317 148.133 39.2103 148.031 39.3127C147.928 39.4152 147.848 39.5364 147.789 39.6765C147.735 39.8165 147.708 39.9719 147.708 40.1426C147.708 40.31 147.735 40.4655 147.789 40.6088C147.848 40.7489 147.927 40.8701 148.025 40.9726C148.128 41.0751 148.248 41.1536 148.384 41.2083C148.521 41.2629 148.669 41.2902 148.83 41.2902ZM153.008 41.9973C152.5 41.9973 152.102 41.8555 151.815 41.572C151.528 41.2885 151.385 40.8838 151.385 40.3578V38.3496H152.215V40.3271C152.215 40.6687 152.285 40.9146 152.425 41.0648C152.565 41.2151 152.762 41.2902 153.014 41.2902C153.266 41.2902 153.463 41.2151 153.603 41.0648C153.743 40.9146 153.813 40.6687 153.813 40.3271V38.3496H154.633V40.3578C154.633 40.8838 154.489 41.2885 154.203 41.572C153.916 41.8555 153.518 41.9973 153.008 41.9973ZM155.453 41.9357V38.3496H157.005C157.326 38.3496 157.603 38.4025 157.835 38.5084C158.068 38.6109 158.247 38.7594 158.373 38.9541C158.499 39.1488 158.562 39.381 158.562 39.6509C158.562 39.9173 158.499 40.1478 158.373 40.3424C158.247 40.5338 158.068 40.6806 157.835 40.7831C157.603 40.8855 157.326 40.9367 157.005 40.9367H155.914L156.282 40.573V41.9357H155.453ZM157.733 41.9357L156.836 40.6345H157.723L158.629 41.9357H157.733ZM156.282 40.6652L155.914 40.2759H156.959C157.215 40.2759 157.406 40.2212 157.533 40.1119C157.66 39.9992 157.723 39.8455 157.723 39.6509C157.723 39.4527 157.66 39.2991 157.533 39.1898C157.406 39.0805 157.215 39.0258 156.959 39.0258H155.914L156.282 38.6314V40.6652ZM162.402 41.9973C162.119 41.9973 161.858 41.9528 161.619 41.864C161.384 41.7718 161.177 41.6421 160.999 41.4747C160.825 41.3074 160.689 41.1109 160.589 40.8855C160.494 40.6601 160.445 40.4125 160.445 40.1426C160.445 39.8728 160.494 39.6252 160.589 39.3999C160.689 39.1744 160.827 38.978 161.004 38.8106C161.182 38.6433 161.39 38.5153 161.629 38.4265C161.868 38.3343 162.131 38.2881 162.418 38.2881C162.735 38.2881 163.021 38.341 163.274 38.4469C163.53 38.5528 163.745 38.7065 163.919 38.908L163.386 39.3999C163.257 39.2632 163.115 39.1625 162.961 39.0975C162.808 39.0293 162.64 38.9951 162.459 38.9951C162.284 38.9951 162.126 39.0224 161.983 39.077C161.839 39.1317 161.715 39.2103 161.609 39.3127C161.506 39.4152 161.426 39.5364 161.368 39.6765C161.313 39.8165 161.286 39.9719 161.286 40.1426C161.286 40.31 161.313 40.4637 161.368 40.6037C161.426 40.7437 161.506 40.8667 161.609 40.9726C161.715 41.0751 161.837 41.1536 161.977 41.2083C162.121 41.2629 162.278 41.2902 162.449 41.2902C162.613 41.2902 162.772 41.2646 162.925 41.2134C163.082 41.1587 163.235 41.0682 163.381 40.9419L163.853 41.5413C163.658 41.6882 163.43 41.8008 163.171 41.8794C162.915 41.9579 162.658 41.9973 162.402 41.9973ZM163.095 41.4336V40.0863H163.853V41.5413L163.095 41.4336ZM165.386 39.7943H167.113V40.4398H165.386V39.7943ZM165.449 41.2698H167.4V41.9357H164.624V38.3496H167.333V39.0156H165.449V41.2698ZM168.06 41.9357V38.3496H168.747L170.863 40.9316H170.53V38.3496H171.349V41.9357H170.668L168.547 39.3537H168.88V41.9357H168.06ZM172.198 41.9357V38.3496H173.028V41.9357H172.198ZM175.473 41.9973C174.963 41.9973 174.565 41.8555 174.278 41.572C173.992 41.2885 173.848 40.8838 173.848 40.3578V38.3496H174.678V40.3271C174.678 40.6687 174.748 40.9146 174.888 41.0648C175.028 41.2151 175.225 41.2902 175.477 41.2902C175.73 41.2902 175.926 41.2151 176.066 41.0648C176.207 40.9146 176.276 40.6687 176.276 40.3271V38.3496H177.096V40.3578C177.096 40.8838 176.953 41.2885 176.666 41.572C176.379 41.8555 175.981 41.9973 175.473 41.9973ZM179.095 41.9973C178.808 41.9973 178.533 41.9597 178.27 41.8845C178.007 41.8059 177.795 41.7052 177.635 41.5823L177.916 40.9573C178.07 41.0666 178.251 41.157 178.459 41.2288C178.672 41.2971 178.885 41.3312 179.1 41.3312C179.264 41.3312 179.395 41.3159 179.495 41.2851C179.597 41.2509 179.672 41.2048 179.72 41.1468C179.767 41.0887 179.792 41.0221 179.792 40.947C179.792 40.8514 179.753 40.7762 179.678 40.7216C179.603 40.6635 179.505 40.6174 179.381 40.5832C179.259 40.5457 179.122 40.5115 178.972 40.4808C178.825 40.4466 178.676 40.4056 178.526 40.3578C178.379 40.31 178.244 40.2485 178.121 40.1734C177.998 40.0983 177.898 39.9992 177.819 39.8762C177.744 39.7533 177.707 39.5962 177.707 39.405C177.707 39.2 177.761 39.0138 177.87 38.8465C177.983 38.6757 178.15 38.5409 178.373 38.4418C178.597 38.3394 178.879 38.2881 179.218 38.2881C179.443 38.2881 179.665 38.3154 179.883 38.3701C180.102 38.4213 180.295 38.4999 180.462 38.6058L180.206 39.2359C180.039 39.1402 179.871 39.0703 179.704 39.0258C179.537 38.978 179.373 38.9541 179.213 38.9541C179.052 38.9541 178.92 38.9729 178.818 39.0105C178.715 39.048 178.642 39.0975 178.597 39.1591C178.554 39.2171 178.531 39.2855 178.531 39.3639C178.531 39.4562 178.569 39.5313 178.644 39.5893C178.719 39.644 178.818 39.6884 178.941 39.7226C179.064 39.7567 179.199 39.7909 179.346 39.825C179.496 39.8592 179.645 39.8985 179.792 39.9429C179.942 39.9873 180.078 40.0471 180.202 40.1221C180.324 40.1973 180.423 40.2964 180.499 40.4194C180.577 40.5423 180.616 40.6976 180.616 40.8855C180.616 41.087 180.56 41.2714 180.448 41.4388C180.334 41.6061 180.165 41.7411 179.94 41.8435C179.718 41.946 179.436 41.9973 179.095 41.9973Z" fill="#66E1D2"/>
</g>
<defs>
<clipPath id="clip0_3952_1032">
<rect width="180.708" height="51.4871" fill="white" transform="translate(0.164062 0.0222168)"/>
</clipPath>
</defs>
</svg>
