<svg width="600" height="600" viewBox="0 0 600 600" fill="none" xmlns="http://www.w3.org/2000/svg">
<path d="M0 475.126V472.805H90.5918C90.8105 472.805 90.8711 472.706 90.7734 472.507C89.5859 470.069 89.5781 467.69 90.75 465.37C90.7794 465.311 90.7959 465.247 90.7983 465.182C90.8007 465.116 90.7891 465.051 90.764 464.99C90.739 464.93 90.7013 464.875 90.6534 464.83C90.6055 464.786 90.5485 464.752 90.4863 464.731C87.9785 463.887 86.3242 462.249 85.5234 459.815C84.9023 457.936 84.3555 456.26 83.8828 454.788C82.4805 450.397 70.0078 411.411 46.4648 337.829C45.1172 333.622 44.5156 330.805 44.6602 329.38C45.0078 325.915 46.8965 323.325 50.3262 321.61C52.6523 320.45 54.2285 319.905 56.3906 318.686C57.6211 317.987 58.5684 317.575 59.2324 317.45C63.9277 316.579 66.9648 318.21 68.3437 322.342C77.2773 349.143 88.0781 381.618 100.746 419.766C101.777 422.876 103.076 426.565 104.643 430.835C109.869 445.096 112.787 453.061 113.396 454.729C114.213 456.975 115.109 459.051 116.086 460.958C116.151 461.087 116.251 461.195 116.374 461.27C116.497 461.346 116.639 461.386 116.783 461.385C133.24 461.307 151.199 461.274 170.66 461.286C179.02 461.29 185.818 461.092 191.057 460.694C194.619 460.419 198.094 460.512 200.912 460.764C201.693 460.831 202.42 461.118 203.092 461.626C203.248 461.743 203.422 461.803 203.613 461.807C206.813 461.866 208.814 461.903 209.619 461.919C211.85 461.954 213.475 462.942 214.494 464.883C216.123 467.981 215.695 470.352 213.211 471.997C212.508 472.462 212.578 472.696 213.422 472.7L255.949 472.887C255.972 472.885 255.993 472.876 256.01 472.86C256.026 472.844 256.036 472.823 256.039 472.8C256.042 472.778 256.037 472.755 256.025 472.735C256.013 472.716 255.994 472.701 255.973 472.694C245.012 470.1 233.715 467.219 222.082 464.051C220.363 463.583 218.932 463.083 217.787 462.551C217.404 462.376 217.318 462.089 217.529 461.69L217.957 460.905C218.145 460.557 218.451 460.444 218.877 460.565C228.65 463.323 237.223 465.626 244.594 467.473C252.422 469.434 258.771 471.048 263.643 472.313C263.752 472.341 263.836 472.305 263.895 472.208C268.438 464.485 274.105 457.594 280.898 451.536C280.979 451.464 281.035 451.37 281.061 451.265C281.088 451.161 281.082 451.051 281.045 450.95C278.814 444.88 275.814 436.911 272.045 427.044C271.33 425.175 270.48 423.282 268.547 422.544C267.324 422.075 265.127 421.663 261.955 421.307C234.318 418.19 219.984 416.569 218.953 416.444C218.359 416.374 217.979 416.616 217.811 417.171L214.412 428.344C214.406 428.362 214.405 428.381 214.408 428.399C214.412 428.417 214.421 428.434 214.434 428.447C214.447 428.46 214.463 428.47 214.481 428.475C214.499 428.479 214.517 428.479 214.535 428.473C215.523 428.262 216.211 428.272 216.598 428.503C216.877 428.667 217.08 428.941 217.168 429.272C217.257 429.603 217.225 429.967 217.078 430.296C216.641 431.28 215.861 431.587 214.74 431.216C214.568 431.161 214.465 431.044 214.43 430.864C214.336 430.376 214.289 430.12 214.289 430.096C214.273 428.885 214.098 428.846 213.762 429.979L207.979 449.391C207.846 449.848 208.002 449.997 208.447 449.837C208.955 449.657 209.604 449.704 210.393 449.977C210.588 450.048 210.715 450.182 210.773 450.382C211.453 452.673 208.84 453.657 207.633 451.671C207.601 451.618 207.555 451.577 207.499 451.552C207.443 451.526 207.381 451.519 207.32 451.529C207.259 451.54 207.201 451.568 207.155 451.611C207.108 451.654 207.075 451.709 207.059 451.77L205.922 455.684C205.89 455.793 205.881 455.906 205.894 456.019C205.908 456.131 205.943 456.239 206 456.338C206.056 456.436 206.132 456.522 206.222 456.591C206.312 456.66 206.415 456.71 206.525 456.739C209.416 457.505 211.443 458.133 212.607 458.626C213.139 458.852 213.422 459.362 213.457 460.155C213.457 460.175 213.453 460.186 213.445 460.19C212.816 460.678 212.318 460.876 211.951 460.782C208.127 459.813 203.213 458.401 197.209 456.546C194.115 455.589 191.236 454.417 188.572 453.03C184.207 450.757 181.717 447.235 179.865 442.741C179.821 442.634 179.74 442.547 179.636 442.495C179.533 442.444 179.415 442.431 179.303 442.46C177.416 442.944 175.498 443.186 173.549 443.186C173.315 443.185 173.089 443.11 172.901 442.972C172.714 442.834 172.575 442.64 172.506 442.419L172.236 441.569C172.076 441.073 172.248 440.825 172.752 440.825C175.146 440.813 177.742 440.522 180.539 439.952C180.773 439.904 181.016 439.939 181.227 440.052C181.438 440.164 181.603 440.346 181.693 440.567C182.238 441.903 183.135 444.587 184.084 445.999C185.721 448.432 188.16 450.354 191.402 451.764C195 453.323 198.939 454.688 203.221 455.86C203.296 455.88 203.376 455.87 203.444 455.831C203.512 455.793 203.562 455.73 203.584 455.655L215.549 416.245C215.558 416.212 215.561 416.177 215.556 416.144C215.55 416.11 215.538 416.077 215.519 416.049C215.5 416.02 215.475 415.996 215.446 415.979C215.416 415.961 215.384 415.95 215.35 415.946C208.791 415.301 202.254 415.053 195.738 415.202C192.275 415.278 189.99 416.444 188.139 419.339C184.799 424.571 183.199 430.413 181.57 436.741C181.363 437.534 180.896 437.762 180.17 437.426C180.162 437.423 180.113 437.405 180.023 437.374C179.262 437.128 179.006 436.536 179.256 435.598C180.26 431.872 181.516 427.928 183.023 423.768C183.048 423.702 183.059 423.631 183.056 423.56C183.053 423.489 183.036 423.42 183.006 423.356C182.976 423.292 182.933 423.234 182.881 423.186C182.829 423.138 182.768 423.101 182.701 423.077C182.209 422.897 181.941 422.456 181.898 421.753C181.742 419.034 181.629 416.223 181.559 413.321C181.555 413.142 181.623 412.968 181.745 412.839C181.868 412.709 182.037 412.634 182.215 412.63L186.756 412.53C187.014 412.522 187.033 412.45 186.814 412.313C184.15 410.653 181.258 409.811 178.137 409.788C170.555 409.725 163.072 410.091 155.689 410.883C155.377 410.915 155.236 411.087 155.268 411.399C155.682 415.442 156.207 421.524 156.844 429.645C157.016 431.813 158.113 433.397 160.137 434.397C161.285 434.96 162.332 435.251 163.277 435.27C166.039 435.317 169.232 435.122 172.857 434.684C173.635 434.591 174.063 434.93 174.141 435.704C174.141 435.704 174.143 435.719 174.146 435.751C174.229 436.501 173.881 436.934 173.104 437.051C169.361 437.61 165.896 437.796 162.709 437.608C161.818 437.557 160.674 437.233 159.275 436.635C156.869 435.608 155.357 433.917 154.74 431.561C154.694 431.384 154.598 431.225 154.463 431.102C154.327 430.979 154.159 430.898 153.979 430.87L131.338 427.419C130.549 427.298 129.781 427.366 129.035 427.624C123.602 429.487 119.328 430.948 116.215 432.007C115.539 432.237 115.17 432.669 115.107 433.301C115.088 433.505 115.148 433.68 115.289 433.829C116.488 435.11 117.854 435.755 119.385 435.762C122.979 435.778 126.871 435.135 131.062 433.835C131.645 433.655 132.639 433.741 134.045 434.092C144.451 436.725 152.457 438.995 158.063 440.901C159.879 441.518 161.277 441.78 162.258 441.686C163.105 441.604 164.547 441.55 166.582 441.522C167.508 441.51 168.041 441.86 168.182 442.571C168.182 442.587 168.182 442.602 168.182 442.618C168.182 443.329 167.904 443.714 167.35 443.772C163.99 444.128 161.643 444.237 160.307 444.1C159.65 444.03 157.977 443.549 155.285 442.659C154.869 442.518 154.166 442.354 153.533 442.606C152.145 443.157 150.199 443.866 149.672 445.249C147.439 451.096 145.869 456.44 139.301 458.778C139.035 458.872 138.434 458.889 137.496 458.831C135.182 458.69 133.377 457.255 133.383 454.858C133.387 454.069 133.785 452.85 134.578 451.202C136.078 448.069 137.182 445.928 137.889 444.78C138.99 442.991 140.627 441.163 142.799 439.296C142.828 439.271 142.85 439.24 142.863 439.204C142.876 439.168 142.879 439.13 142.873 439.092C142.866 439.055 142.85 439.02 142.826 438.991C142.801 438.962 142.77 438.94 142.734 438.926C139.785 437.833 136.857 437.122 133.951 436.794C133.754 436.773 133.556 436.829 133.4 436.952C132.447 437.69 131.854 438.608 131.619 439.706C130.783 443.628 130.189 446.108 129.838 447.147C128.426 451.272 125.637 456.065 120.844 456.171C117.604 456.247 115.828 453.446 116.895 450.469C117.418 449.02 117.887 447.842 118.301 446.936C118.832 445.776 118.627 445.616 117.686 446.456C116.154 447.819 114.395 447.975 112.406 446.925C111.113 446.241 110.396 445.294 110.256 444.083C110.15 443.204 110.34 442.124 110.824 440.842C111.387 439.339 111.91 437.848 112.395 436.372C112.42 436.298 112.426 436.22 112.414 436.143C112.401 436.067 112.371 435.994 112.324 435.932C112.277 435.87 112.216 435.821 112.145 435.788C112.075 435.756 111.997 435.741 111.92 435.745C111.146 435.774 110.402 435.68 109.951 434.919C107.924 431.532 108.727 427.969 110.865 424.77C111.502 423.809 112.646 422.71 114.299 421.471C116.639 419.717 118.937 418.114 121.195 416.661C122.725 415.676 123.797 415.284 125.707 415.19C135.391 414.733 144.377 414.227 152.666 413.673C152.746 413.668 152.822 413.633 152.876 413.575C152.931 413.517 152.961 413.441 152.959 413.362L152.854 410.35C152.846 410.155 152.9 409.985 153.018 409.841C153.568 409.157 154.281 408.762 155.156 408.657C165.02 407.469 173.381 407.094 180.24 407.532C182.146 407.653 184.65 408.497 187.752 410.063C187.889 410.134 188.035 410.167 188.191 410.163L198.633 409.899C198.81 409.895 198.981 409.829 199.113 409.712C200.174 408.762 201.076 407.889 202.605 407.925C203.984 407.956 205.291 408.067 206.525 408.258C206.721 408.29 206.896 408.364 207.053 408.481C207.596 408.883 208.109 409.079 208.594 409.067C222.48 408.696 235.859 408.538 248.73 408.592C251.514 408.604 254.59 409.635 255.662 412.202C255.725 412.35 256.021 413.003 256.553 414.159C256.646 414.37 256.803 414.428 257.021 414.335L258.885 413.526C258.947 413.5 259.003 413.458 259.048 413.406C259.092 413.353 259.125 413.29 259.143 413.221L260.695 407.204C260.715 407.122 260.715 407.036 260.693 406.954C260.672 406.872 260.63 406.797 260.572 406.735C258.621 404.632 256.582 401.239 256.811 398.274C256.881 397.376 257.385 396.266 258.322 394.946C259.146 393.79 260.068 392.342 261.088 390.604C261.137 390.519 261.207 390.447 261.29 390.394C261.374 390.341 261.469 390.308 261.568 390.299C262.006 390.264 262.473 390.321 262.969 390.469C263.103 390.51 263.246 390.519 263.384 390.496C263.523 390.472 263.654 390.417 263.768 390.334C263.882 390.251 263.974 390.143 264.039 390.018C264.104 389.893 264.139 389.755 264.141 389.614C264.148 388.997 263.838 388.446 263.209 387.962C263.16 387.925 263.12 387.879 263.089 387.826C263.058 387.773 263.038 387.715 263.03 387.655C263.022 387.594 263.026 387.533 263.041 387.474C263.057 387.415 263.084 387.36 263.121 387.311C265.027 384.745 266.676 382.159 268.066 379.553C268.165 379.37 268.328 379.23 268.524 379.16C268.72 379.09 268.934 379.094 269.127 379.173C269.764 379.434 270.336 379.518 270.844 379.424C270.997 379.395 271.139 379.323 271.253 379.217C271.367 379.11 271.45 378.972 271.492 378.818C271.534 378.664 271.534 378.5 271.492 378.342C271.45 378.185 271.368 378.041 271.254 377.924L270.234 376.893C270.161 376.82 270.114 376.725 270.101 376.623C270.088 376.522 270.11 376.421 270.164 376.337L278.01 363.827C278.056 363.751 278.13 363.695 278.219 363.669C278.308 363.642 278.406 363.646 278.496 363.68L279.867 364.214C280.035 364.279 280.214 364.298 280.386 364.27C280.558 364.243 280.715 364.168 280.84 364.055C281.32 363.622 281.338 362.907 280.84 362.508C280.516 362.243 280.213 362.02 279.932 361.841C279.78 361.741 279.673 361.586 279.634 361.408C279.596 361.23 279.629 361.045 279.727 360.891C284.34 353.462 288.221 347.184 291.369 342.059C292.521 340.176 293.615 337.901 294.65 335.233C295.436 333.2 297.814 331.342 299.496 330.001C299.622 329.901 299.724 329.773 299.794 329.628C299.864 329.483 299.901 329.324 299.9 329.163C299.836 317.315 302.355 304.331 312.088 296.591C312.293 296.426 312.996 296.069 313.289 295.747C313.422 295.602 313.478 295.434 313.459 295.243C313.037 291.114 312.586 285.516 312.105 278.45C311.937 275.946 312.807 274.27 314.713 273.423C316.58 272.591 318.727 271.846 321.152 271.19C326.441 269.753 331.035 268.645 334.934 267.868C334.958 267.863 334.982 267.853 335.003 267.839C335.024 267.825 335.041 267.806 335.054 267.785C335.068 267.763 335.076 267.739 335.08 267.714C335.083 267.689 335.081 267.664 335.074 267.639L330.281 248.766C330.273 248.736 330.253 248.709 330.226 248.693C330.198 248.676 330.166 248.671 330.135 248.678C319.654 251.479 311.867 253.628 306.773 255.124C303.836 255.987 301.451 256.464 299.619 256.553C295.365 256.77 291.645 256.975 288.123 255.001C278.361 249.528 271.576 241.401 267.768 230.62C267.712 230.462 267.603 230.329 267.46 230.243C267.316 230.158 267.147 230.125 266.982 230.151C261.955 230.889 257.473 231.344 253.535 231.516C253.25 231.532 253.088 231.682 253.049 231.967C252.83 233.589 252.068 234.477 250.764 234.633C248.654 234.88 244.367 235.491 237.902 236.467C236.578 236.667 235.68 236.116 235.207 234.815C234.902 233.979 234.658 232.514 234.475 230.421C234.303 228.479 235.266 227.397 237.363 227.174C243.766 226.491 247.631 225.983 248.959 225.651C250.584 225.245 251.67 226.087 252.217 228.176C252.318 228.567 252.551 228.706 252.914 228.592L265.717 224.649C265.798 224.624 265.867 224.57 265.91 224.497C265.952 224.424 265.965 224.338 265.945 224.257C264.1 216.598 264.645 207.991 268.137 200.936C268.228 200.753 268.262 200.547 268.236 200.344C267.076 191.169 265.82 183.243 264.469 176.567C263.93 173.891 263.463 171.885 263.068 170.549C262.627 169.061 261.852 167.579 260.742 166.102C260.387 165.633 260.266 164.78 260.379 163.542C261.703 149.167 266.295 136.38 274.154 125.18C282.326 113.54 292.82 104.989 305.637 99.528C313.172 96.321 321.152 94.2468 329.578 93.3054C342.656 91.8405 355.957 92.3327 368.314 96.2936C368.553 96.3718 368.707 96.3151 368.777 96.1237L368.994 95.5436C369.066 95.3544 369.204 95.2014 369.381 95.1159C374.631 92.5261 381.141 94.2897 385.324 98.069C387.801 100.311 389.83 103.682 391.412 108.182C391.617 108.757 391.963 109.208 392.537 109.676C398.557 114.567 403.557 120.311 407.537 126.909C414.879 139.091 418.406 153.171 418.945 167.298C419.25 175.356 418.834 182.805 417.697 189.645C417.683 189.728 417.692 189.812 417.723 189.89C417.754 189.967 417.806 190.035 417.873 190.085C419.725 191.452 422.896 193.874 427.389 197.35C429.186 198.741 430.986 199.93 432.791 200.919C442.166 206.057 450.568 211.758 456.627 220.735C459.537 225.051 461.162 229.799 461.502 234.979C462.141 244.717 460.4 255.598 453.785 263.21C448.348 269.475 441.521 272.751 433.307 273.036C429.236 273.18 424.783 272.264 419.947 270.288C410.08 266.257 401.191 258.921 396.187 249.563C395.18 247.688 394.711 246.112 394.541 243.85C394.174 238.913 393.969 234.456 393.926 230.479C393.925 230.44 393.915 230.402 393.895 230.368C393.876 230.335 393.848 230.306 393.814 230.286C393.781 230.266 393.743 230.255 393.704 230.254C393.665 230.253 393.626 230.262 393.592 230.28C392.014 231.049 390.682 231.598 389.596 231.926C388.16 232.366 387.41 231.85 386.221 231.335C385.994 231.237 385.641 231.266 385.16 231.423C372.875 235.446 363.709 238.395 357.662 240.27C357.471 240.329 357.397 240.452 357.439 240.639L362.561 263.11C362.583 263.211 362.642 263.301 362.726 263.361C362.811 263.422 362.914 263.449 363.018 263.438C370.42 262.657 375.863 261.841 379.348 260.989C380.758 260.645 381.867 260.671 382.676 261.065C383.887 261.651 384.768 262.624 385.318 263.983C387.27 268.811 388.318 275.133 389.115 280.928C389.127 281.023 389.159 281.115 389.208 281.196C389.258 281.278 389.324 281.349 389.402 281.403C394.879 285.13 399.234 289.651 402.469 294.967C405.637 300.163 408.143 305.899 409.986 312.176C413.912 325.518 415.57 338.596 416.508 353.028C419.092 392.632 420.574 421.266 423.398 472.46C423.404 472.551 423.444 472.637 423.511 472.7C423.577 472.763 423.664 472.798 423.756 472.799L436.061 472.794C436.188 472.794 436.313 472.753 436.414 472.675C436.516 472.598 436.589 472.489 436.623 472.366C448.529 427.827 460.615 381.954 472.881 334.747C474.834 327.231 479.016 321.354 485.426 317.116C488.66 314.971 492.178 313.694 495.978 313.284C504.654 312.342 512.145 314.841 518.449 320.778C524.982 326.925 528.111 336.217 527.221 345.018C527.064 346.585 526.195 350.387 524.613 356.426C519.41 376.333 515.164 392.573 511.875 405.147C510.805 409.245 505.133 430.643 494.859 469.342C494.52 470.628 494.279 471.694 494.139 472.542C494.107 472.733 494.187 472.829 494.379 472.829L542.139 472.841C542.896 472.841 543.307 473.243 543.369 474.048C543.373 474.098 543.375 474.126 543.375 474.13C543.335 474.426 543.203 474.699 543.004 474.896C542.804 475.093 542.551 475.202 542.291 475.202L0 475.126ZM264.838 164.21C264.752 164.15 264.682 164.074 264.635 163.989C264.589 163.905 264.568 163.815 264.574 163.729C265.652 150.944 269.697 139.296 276.709 128.784C284.986 116.362 296.234 107.44 310.453 102.018C324.522 96.6511 340.6 95.4733 355.523 97.4421C360.801 98.1374 365.814 99.4147 370.564 101.274C370.893 101.407 372.678 102.157 375.92 103.524C375.974 103.548 376.034 103.556 376.093 103.548C376.152 103.539 376.207 103.514 376.252 103.475C376.298 103.437 376.331 103.386 376.349 103.33C376.367 103.273 376.368 103.212 376.354 103.155C376.193 102.483 375.781 101.944 375.117 101.538C373.094 100.303 371.217 99.403 369.486 98.8366C361.67 96.2702 353.646 94.9108 345.416 94.7585C339.256 94.6452 333.543 94.9518 328.277 95.6784C322.508 96.4753 316.744 97.8854 310.986 99.9089C307.01 101.303 303.443 102.882 300.287 104.643C290.881 109.889 283.096 116.784 276.932 125.327C268.643 136.819 263.904 149.735 262.717 164.075C262.701 164.282 262.746 164.473 262.852 164.649C263.129 165.106 263.557 165.811 264.135 166.764C264.818 167.897 265.391 169.512 265.852 171.61C267.898 180.989 269.533 190.731 270.756 200.837C270.803 201.204 270.625 201.741 270.223 202.448C266.186 209.573 266.725 219.294 269.045 226.805C269.086 226.938 269.174 227.052 269.291 227.127C269.409 227.202 269.55 227.233 269.689 227.216L299.707 223.413C300.484 223.315 300.982 223.682 301.201 224.514C301.209 224.542 301.211 224.571 301.207 224.602C301.16 225.247 300.844 225.606 300.258 225.68L270.088 229.489C269.834 229.524 269.756 229.661 269.854 229.899C271.092 232.926 272.492 235.747 274.055 238.36C277.875 244.743 283.086 249.684 289.687 253.184C292.764 254.813 296.684 254.467 300.041 254.198C301.213 254.1 303.215 253.661 306.047 252.88C325.695 247.434 338.465 243.876 344.355 242.204C347.305 241.368 351.027 240.202 355.523 238.706C364.656 235.663 374.945 232.333 386.391 228.716C386.748 228.603 387.065 228.435 387.294 228.236C387.524 228.037 387.655 227.817 387.668 227.608L387.686 227.298C387.692 227.18 387.673 227.062 387.628 226.954C387.584 226.845 387.516 226.75 387.431 226.676C387.346 226.601 387.245 226.55 387.139 226.527C387.032 226.503 386.922 226.509 386.818 226.542C384.381 227.335 376.328 229.969 362.66 234.446C359.221 235.577 355.617 236.872 352.377 237.182C339.768 238.382 330.592 233.641 324.85 222.962C324.764 222.801 324.631 222.671 324.469 222.587C324.307 222.504 324.123 222.471 323.941 222.493L305.584 224.749C304.783 224.846 304.424 224.499 304.506 223.706C304.506 223.698 304.504 223.676 304.5 223.641C304.363 222.895 304.771 222.466 305.725 222.352L323.285 220.255C323.477 220.231 323.543 220.126 323.484 219.938C319.098 205.934 314.99 191.229 311.162 175.823C310.354 172.577 309.584 170.112 308.854 168.428C305.73 161.221 300.457 155.538 292.102 155.655C290.371 155.678 287.045 156.583 282.123 158.368C275.521 160.762 269.875 162.702 265.184 164.186C265.012 164.241 264.896 164.249 264.838 164.21ZM378.293 153.212C367.863 151.659 358.342 155.602 352.377 164.18C344.016 176.192 347.062 192.985 359.502 200.989C365.346 204.747 372.021 205.825 379.529 204.223C379.646 204.197 379.767 204.213 379.873 204.268C379.979 204.322 380.063 204.412 380.109 204.522C381.758 208.382 384.129 214.02 387.223 221.438C387.891 223.032 389.191 225.464 389.854 227.508C389.951 227.821 389.971 228.1 389.912 228.346C389.803 228.807 389.705 229.077 389.619 229.155C389.029 229.714 389.113 229.837 389.871 229.524C391.43 228.88 392.707 228.221 393.703 227.549C395.16 226.561 395.535 225.171 394.828 223.378C391.355 214.553 386.158 202.106 379.236 186.036C379.159 185.858 379.027 185.71 378.859 185.614C378.691 185.518 378.497 185.479 378.305 185.503C375.902 185.78 373.689 185.225 371.666 183.839C367.758 181.155 367.295 175.788 370.248 172.214C373.078 168.792 377.871 168.739 381.75 170.69C381.93 170.78 382.047 170.731 382.102 170.544C384.43 162.559 385.895 157.495 386.496 155.35C388.973 146.51 390.529 137.612 391.166 128.655C391.326 126.413 391.334 123.423 391.189 119.684C390.986 114.395 389.92 109.655 387.99 105.464C385.184 99.364 379.682 95.2682 372.879 96.3815C371.801 96.5612 371.77 96.8561 372.785 97.2663C376.166 98.6374 377.959 100.823 379.342 104.257C381.182 108.835 382.234 113.639 382.5 118.671C382.918 126.682 382.359 134.729 380.824 142.811C380.176 146.206 379.453 149.591 378.656 152.966C378.637 153.044 378.589 153.113 378.522 153.158C378.455 153.204 378.373 153.223 378.293 153.212ZM414.861 165.551C415.643 177.907 414.256 189.466 410.701 200.227C408.006 208.378 403.67 216.048 397.154 221.567C396.95 221.74 396.798 221.963 396.718 222.208C396.638 222.452 396.633 222.708 396.703 222.944L396.773 223.178C396.953 223.78 397.279 223.883 397.752 223.489C403.416 218.762 407.711 212.792 410.637 205.577C412.52 200.928 413.889 196.589 414.744 192.557C417.021 181.842 417.447 170.69 416.021 159.1C414.873 149.757 412.309 141.008 408.328 132.856C405.492 127.055 401.531 121.477 396.445 116.122C394.637 114.219 393.398 113.098 392.73 112.758C392.535 112.657 392.434 112.716 392.426 112.934C392.383 113.981 392.797 114.987 393.668 115.952C395.848 118.383 398.473 121.014 400.529 123.833C409.5 136.102 413.9 150.393 414.861 165.551ZM384.961 174.323C386.449 178.401 385.313 182.309 381.609 184.589C381.395 184.721 381.336 184.903 381.434 185.133L387.621 199.764C387.641 199.812 387.671 199.855 387.71 199.889C387.749 199.923 387.795 199.948 387.845 199.961C387.896 199.975 387.949 199.977 388 199.967C388.052 199.957 388.1 199.936 388.143 199.905C393.912 195.534 397.348 189.938 398.449 183.118C399.68 175.501 397.477 167.38 392.344 161.503C391.129 160.116 389.814 158.96 388.4 158.034C388.193 157.901 388.059 157.948 387.996 158.175L384.111 171.891C384.066 172.051 384.076 172.221 384.141 172.372C384.645 173.555 384.918 174.206 384.961 174.323ZM377.664 183.406C378.381 183.436 379.097 183.316 379.772 183.053C380.447 182.789 381.067 182.388 381.597 181.872C382.127 181.355 382.556 180.734 382.86 180.043C383.164 179.352 383.336 178.605 383.368 177.845C383.433 176.309 382.919 174.812 381.94 173.684C380.961 172.555 379.598 171.887 378.149 171.826C377.432 171.796 376.715 171.916 376.04 172.179C375.365 172.442 374.745 172.844 374.216 173.36C373.686 173.876 373.257 174.498 372.953 175.189C372.649 175.88 372.476 176.627 372.444 177.387C372.38 178.923 372.894 180.419 373.872 181.548C374.851 182.677 376.215 183.345 377.664 183.406ZM396.105 232.501C396.273 236.934 396.457 240.712 396.656 243.833C396.785 245.848 397.488 247.624 398.391 249.212C403.189 257.591 411.281 264.229 420.252 268.102C423.025 269.298 425.844 270.139 428.707 270.628C431.711 271.139 434.596 271.096 437.361 270.499C447.422 268.319 454.928 260.807 457.904 250.958C460.371 242.796 460.57 232.09 456.305 224.479C451.646 216.159 443.631 209.479 435.316 204.839C432.551 203.296 430.625 202.208 429.539 201.575C428.273 200.833 425.127 198.458 420.1 194.45C419.088 193.641 418.191 193.032 417.41 192.622C417.23 192.528 417.117 192.581 417.07 192.78C416.191 196.714 414.904 200.903 413.209 205.348C409.826 214.223 404.643 221.253 397.658 226.436C397.088 226.862 396.75 227.194 396.645 227.432C396.43 227.901 396.299 228.374 396.252 228.85C396.115 230.206 396.066 231.423 396.105 232.501ZM358.806 215.331C358.798 215.26 358.776 215.191 358.741 215.129C358.706 215.066 358.659 215.011 358.603 214.967C358.547 214.922 358.482 214.89 358.413 214.87C358.345 214.851 358.273 214.845 358.202 214.853L325.811 218.658C325.667 218.675 325.536 218.748 325.447 218.862C325.357 218.975 325.317 219.12 325.333 219.263L325.381 219.67C325.39 219.742 325.412 219.81 325.447 219.873C325.482 219.935 325.529 219.99 325.585 220.034C325.641 220.079 325.705 220.112 325.774 220.131C325.843 220.151 325.915 220.156 325.986 220.148L358.377 216.343C358.52 216.326 358.651 216.253 358.741 216.14C358.83 216.026 358.871 215.882 358.854 215.738L358.806 215.331ZM266.646 227.362C266.64 227.331 266.627 227.302 266.609 227.276C266.591 227.25 266.568 227.228 266.541 227.211C266.515 227.194 266.485 227.183 266.454 227.177C266.423 227.172 266.391 227.172 266.36 227.179L262.938 227.932C262.907 227.938 262.878 227.951 262.852 227.969C262.826 227.987 262.804 228.01 262.787 228.037C262.77 228.063 262.759 228.093 262.753 228.124C262.747 228.155 262.748 228.187 262.755 228.218L262.76 228.241C262.767 228.271 262.779 228.301 262.798 228.327C262.816 228.352 262.839 228.374 262.865 228.391C262.892 228.408 262.921 228.42 262.952 228.426C262.983 228.431 263.015 228.43 263.046 228.424L266.468 227.671C266.499 227.665 266.528 227.652 266.554 227.634C266.58 227.616 266.602 227.593 266.619 227.566C266.636 227.54 266.648 227.51 266.653 227.479C266.659 227.448 266.658 227.416 266.651 227.385L266.646 227.362ZM250.087 228.658C250.071 228.541 250.031 228.428 249.971 228.326C249.91 228.224 249.83 228.135 249.736 228.063C249.641 227.992 249.533 227.94 249.418 227.911C249.304 227.881 249.184 227.875 249.067 227.892L237.488 229.54C237.251 229.573 237.037 229.7 236.894 229.891C236.75 230.082 236.688 230.323 236.722 230.56L237.131 233.437C237.148 233.555 237.188 233.667 237.248 233.769C237.308 233.871 237.388 233.961 237.483 234.032C237.578 234.103 237.686 234.155 237.8 234.184C237.915 234.214 238.035 234.22 238.152 234.203L249.731 232.556C249.968 232.522 250.181 232.395 250.325 232.204C250.469 232.013 250.53 231.772 250.497 231.535L250.087 228.658ZM354.984 250.77C351.133 251.466 346.848 252.298 342.129 253.266C340.236 253.653 338.221 253.852 336.357 254.169C336.215 254.192 336.069 254.158 335.95 254.074C335.83 253.99 335.748 253.862 335.719 253.717L334.564 248.081C334.463 247.577 334.158 247.372 333.65 247.466L333.123 247.565C332.643 247.655 332.459 247.93 332.572 248.391L334.5 256.19C334.551 256.393 334.676 256.464 334.875 256.401C335.781 256.132 336.994 255.862 338.514 255.592C344.232 254.577 350.439 253.426 357.135 252.141C357.201 252.129 357.264 252.103 357.32 252.066C357.376 252.029 357.424 251.981 357.461 251.925C357.498 251.869 357.524 251.807 357.536 251.741C357.549 251.676 357.548 251.609 357.533 251.544L355.336 241.378C355.238 240.924 354.965 240.788 354.516 240.967L354.059 241.149C353.664 241.305 353.51 241.592 353.596 242.01L355.307 250.296C355.318 250.348 355.318 250.402 355.308 250.455C355.297 250.507 355.276 250.557 355.246 250.601C355.216 250.646 355.178 250.683 355.133 250.712C355.088 250.741 355.037 250.761 354.984 250.77ZM374.039 267.048C376.176 266.344 378.619 265.346 381.369 264.053C382.17 263.674 382.189 263.313 381.428 262.969C381.318 262.919 380.889 262.96 380.139 263.092C377.572 263.544 375.475 264.188 372.686 264.557C368.127 265.159 364.553 265.606 361.963 265.899C361.1 265.997 360.574 265.614 360.387 264.751L358.289 254.989C358.273 254.916 358.23 254.852 358.17 254.81C358.11 254.769 358.037 254.753 357.967 254.766L335.455 258.833C335.415 258.84 335.376 258.856 335.342 258.879C335.308 258.902 335.279 258.932 335.257 258.968C335.235 259.003 335.221 259.042 335.214 259.084C335.208 259.125 335.21 259.167 335.221 259.208L337.752 268.735C337.792 268.887 337.801 269.045 337.778 269.2C337.755 269.354 337.7 269.502 337.617 269.633C337.534 269.765 337.425 269.877 337.297 269.962C337.169 270.048 337.025 270.105 336.873 270.13C330.025 271.255 323.311 272.864 316.729 274.958C316.326 275.087 315.902 275.3 315.457 275.596C315.372 275.655 315.305 275.735 315.262 275.828C315.219 275.922 315.203 276.026 315.214 276.128C315.226 276.23 315.265 276.327 315.327 276.409C315.389 276.491 315.473 276.554 315.568 276.592C316.506 276.956 317.713 277.204 319.189 277.337C321.889 277.575 324.672 277.645 327.539 277.548C337.297 277.212 347.064 275.911 356.842 273.645C360.748 272.739 364.449 271.591 367.945 270.2C368.676 269.911 369.158 270.145 369.393 270.903C369.393 270.915 369.398 270.94 369.41 270.979C369.563 271.702 369.311 272.188 368.654 272.438C366.533 273.255 364.299 273.987 361.951 274.635C350.338 277.852 338.414 279.54 326.379 279.903C322.133 280.032 318.203 279.714 314.59 278.948C314.363 278.901 314.262 278.993 314.285 279.223C315.352 290.008 315.953 295.958 316.09 297.071C316.16 297.637 316.311 298.175 316.541 298.682C316.627 298.866 316.77 298.966 316.969 298.981C321.453 299.325 325.809 299.368 330.035 299.11C343.906 298.266 357.35 296.063 370.365 292.501C374.525 291.358 378.316 289.87 382.482 288.141C384.139 287.454 385.498 286.737 386.561 285.991C386.721 285.878 386.83 285.727 386.889 285.54C387.111 284.801 387.201 284.202 387.158 283.741C386.639 277.901 385.535 271.944 383.848 265.87C383.833 265.813 383.806 265.76 383.768 265.715C383.73 265.67 383.683 265.634 383.629 265.609C383.576 265.583 383.517 265.57 383.458 265.57C383.398 265.569 383.34 265.582 383.285 265.606L375.727 268.981C375.47 269.095 375.188 269.132 374.917 269.086C374.646 269.04 374.399 268.914 374.209 268.723C374.088 268.602 374.014 268.524 373.986 268.489C373.404 267.731 373.422 267.251 374.039 267.048ZM391.406 288.464C392.758 289.385 394.16 290.737 395.613 292.518C399.039 296.721 401.859 301.71 404.074 307.483C411.117 325.876 412.061 346.073 413.297 366.071C415.633 403.958 417.66 439.583 419.379 472.946C419.398 473.36 419.627 473.557 420.064 473.538L420.428 473.52C420.508 473.517 420.587 473.498 420.661 473.464C420.734 473.431 420.8 473.383 420.854 473.323C420.909 473.264 420.951 473.194 420.978 473.118C421.006 473.043 421.018 472.962 421.014 472.882C419.799 446.878 417.727 409.809 414.797 361.676C414.133 350.735 413.346 341.669 412.436 334.477C411.928 330.489 411.047 325.68 409.793 320.051C408.125 312.575 405.643 305.622 402.346 299.192C400.584 295.758 398.016 292.171 394.641 288.428C394.293 288.046 392.687 286.729 389.824 284.479C389.668 284.354 389.582 284.393 389.566 284.596C389.437 286.514 388.578 287.846 386.988 288.592C379.922 291.901 372.463 294.491 364.611 296.362C348.984 300.083 332.871 302.133 316.957 301.284C315.111 301.19 314.414 300.563 314.18 298.87C314.167 298.782 314.132 298.7 314.077 298.631C314.021 298.562 313.949 298.509 313.866 298.478C313.783 298.446 313.693 298.438 313.606 298.453C313.519 298.469 313.438 298.507 313.371 298.565C308.508 302.799 305.309 308.161 303.773 314.649C302.914 318.278 302.396 321.997 302.221 325.805C302.018 330.251 301.988 334.85 302.133 339.604C302.383 347.675 302.75 357.032 303.234 367.676C303.273 368.505 303.494 368.555 303.896 367.829C304.553 366.663 304.781 365.456 304.723 363.985C304.18 351.024 303.867 341.62 303.785 335.772C303.695 329.385 303.887 324.354 304.359 320.678C305.209 314.087 307.213 307.665 311.836 302.743C312.01 302.557 312.234 302.423 312.48 302.358C312.727 302.293 312.987 302.298 313.23 302.374C314.406 302.737 315.432 302.997 316.307 303.153C316.951 303.27 318.01 303.346 319.482 303.382C327.244 303.565 336.09 302.983 346.02 301.635C355.016 300.417 363.818 298.569 372.428 296.092C377.729 294.565 382.744 292.639 387.475 290.315C388.146 289.987 389.141 289.37 390.457 288.464C390.597 288.368 390.762 288.316 390.932 288.316C391.101 288.316 391.267 288.368 391.406 288.464ZM372.182 306.651C373.314 307.561 374.42 308.846 375.498 310.507C375.596 310.657 375.745 310.772 375.926 310.835C376.107 310.898 376.309 310.906 376.506 310.858C376.541 310.85 376.607 310.803 376.705 310.717C376.805 310.625 376.873 310.504 376.902 310.37C376.93 310.237 376.917 310.099 376.863 309.973C376.016 307.989 374.809 306.413 373.242 305.245C371.695 304.057 369.852 303.323 367.711 303.042C367.575 303.025 367.438 303.05 367.317 303.114C367.197 303.178 367.099 303.277 367.037 303.399C366.982 303.516 366.955 303.592 366.955 303.628C366.963 303.83 367.027 304.023 367.137 304.179C367.247 304.336 367.399 304.448 367.57 304.501C369.461 305.091 370.998 305.807 372.182 306.651ZM365.877 308.942C369.34 309.704 371.139 311.169 371.854 314.561C371.99 315.214 372.357 315.407 372.955 315.141L373.242 315.012C373.875 314.735 374.072 314.286 373.834 313.665C372.467 310.118 370.029 307.969 366.522 307.219C366.092 307.13 365.771 307.276 365.561 307.659L365.408 307.923C365.356 308.018 365.327 308.124 365.323 308.232C365.319 308.341 365.341 308.449 365.386 308.548C365.432 308.647 365.5 308.734 365.585 308.802C365.67 308.871 365.77 308.919 365.877 308.942ZM366.076 311.966C365.933 311.936 365.786 311.941 365.645 311.978C365.504 312.015 365.373 312.084 365.263 312.18C365.153 312.276 365.067 312.395 365.011 312.53C364.955 312.665 364.93 312.81 364.939 312.956L364.986 313.671C364.999 313.88 365.081 314.079 365.219 314.237C365.356 314.395 365.543 314.503 365.748 314.544L366.732 314.737C366.875 314.765 367.022 314.76 367.162 314.722C367.302 314.685 367.432 314.615 367.541 314.52C367.65 314.424 367.736 314.305 367.792 314.171C367.848 314.037 367.872 313.892 367.863 313.747L367.822 313.038C367.809 312.829 367.728 312.629 367.59 312.472C367.452 312.314 367.266 312.206 367.061 312.165L366.076 311.966ZM321.152 350.614C321.781 350.333 322.09 349.848 322.078 349.161C322.051 347.426 322.123 346.1 322.295 345.182C324.049 335.799 329.039 328.905 337.266 324.499C346.271 319.671 358.447 318.622 367.828 323.368C373.848 326.415 378.484 330.936 381.738 336.932C387.393 347.356 387.633 359.626 382.395 370.249C378.031 379.096 370.695 385.139 360.387 388.378C359.621 388.616 358.984 389.096 358.477 389.819C358.023 390.471 357.223 391.516 356.074 392.954C356.04 392.999 356.02 393.053 356.016 393.109C356.012 393.166 356.024 393.222 356.051 393.272C356.078 393.321 356.119 393.362 356.169 393.389C356.219 393.415 356.276 393.427 356.332 393.423C370.348 392.128 382.02 383.538 387.879 370.958C392.93 360.124 392.877 347.438 387.814 336.727C381.902 324.206 369.809 315.241 355.658 314.936C344.59 314.696 333.914 319.096 326.426 327.229C320.008 334.194 316.529 342.671 315.99 352.659C315.984 352.775 316.011 352.89 316.068 352.991C316.124 353.091 316.209 353.174 316.311 353.229C316.413 353.284 316.528 353.308 316.644 353.299C316.759 353.291 316.87 353.25 316.963 353.18C318.541 352.012 319.937 351.157 321.152 350.614ZM493.318 395.801C493.201 399.235 492.805 403.383 492.129 408.247C490.809 417.809 489.471 425.801 488.115 432.223C488.082 432.379 488.078 432.539 488.102 432.693C488.126 432.848 488.178 432.994 488.254 433.122C488.331 433.251 488.431 433.359 488.548 433.44C488.666 433.521 488.797 433.574 488.936 433.594C488.963 433.598 489.002 433.606 489.053 433.618C489.623 433.735 489.963 433.493 490.072 432.891C490.971 427.997 492.189 420.653 493.729 410.86C494.646 405.024 495.191 399.6 495.363 394.589C495.387 393.932 495.422 393.477 495.469 393.223C495.686 392.069 495.979 390.61 496.184 389.93C500.418 375.969 503.773 362.124 506.25 348.393C507.047 343.981 507.545 339.27 507.633 334.577C507.711 330.253 507.066 326.374 505.699 322.94C503.971 318.604 499.828 315.212 494.988 315.727C494.551 315.774 494.273 315.889 494.156 316.073C493.98 316.346 493.939 316.684 494.033 317.087C494.084 317.286 494.211 317.397 494.414 317.421C498.357 317.825 501.41 318.803 503.262 322.6C506.355 328.934 505.928 337.184 504.955 343.952C504.303 348.483 503.461 353.12 502.43 357.862C499.988 369.128 497.152 380.128 493.922 390.862C493.359 392.731 493.395 393.692 493.318 395.801ZM59.6074 323.473C59.1035 321.967 60.5801 320.966 61.9102 320.989C63.3223 321.012 64.0195 322.759 64.4121 323.93C78.6426 366.508 90.7891 403.044 100.852 433.536C101.301 434.899 100.973 436.02 99.8672 436.899C99.8398 436.923 99.8008 436.94 99.75 436.952C98.2695 437.257 97.3477 436.868 96.9844 435.786C93.3789 424.989 89.8867 414.51 86.5078 404.35C86.2187 403.479 85.8652 402.514 85.4473 401.456C85.1602 400.735 84.7617 400.688 84.0469 400.688C83.8242 400.688 83.7109 400.799 83.707 401.022C83.6953 401.854 83.8066 402.614 84.041 403.301C87.9941 414.88 91.6504 425.966 95.0098 436.559C95.6953 438.716 98.543 440.051 100.529 438.792C101.377 438.253 102.053 437.491 102.557 436.507C103.127 435.389 103.152 434.051 102.633 432.493C82.4492 371.645 72.0195 340.227 71.3438 338.239C69.6016 333.118 68.0176 328.258 66.5918 323.661C66.0879 322.032 65.5254 320.932 64.9043 320.362C62.8418 318.464 60.8594 318.292 58.957 319.846C57.75 320.837 57.0586 322.53 57.6328 324.071C58.2188 325.653 58.7383 327.12 59.1914 328.471C64.8672 345.378 71.1758 364.38 78.1172 385.477C78.2186 385.787 78.4161 386.052 78.6698 386.217C78.9234 386.383 79.2139 386.437 79.4824 386.368C79.5215 386.356 79.5469 386.348 79.5586 386.344C79.6682 386.311 79.7696 386.255 79.8568 386.179C79.9441 386.103 80.0154 386.009 80.0667 385.903C80.118 385.796 80.1482 385.68 80.1555 385.559C80.1628 385.439 80.1472 385.317 80.1094 385.202C74.0742 366.835 67.2402 346.258 59.6074 323.473ZM325.5 342.774C328.734 334.225 335.918 328.284 345.105 327.839C352.453 327.475 359.988 328.653 365.584 333.592C368.545 336.206 370.555 339.135 371.613 342.382C374.176 350.245 373.842 358.003 370.611 365.655C370.385 366.186 370.473 366.243 370.875 365.825C371.402 365.278 371.92 364.551 372.428 363.645C374.92 359.184 376.332 355.014 376.664 351.135C377.555 340.788 372.99 332.081 364.213 326.919C360.291 324.606 355.838 323.387 350.854 323.262C345.387 323.122 340.98 324.833 336.357 327.856C330.881 331.438 327.172 336.311 325.23 342.475C325.211 342.542 325.24 342.612 325.318 342.686L325.471 342.833C325.471 342.833 325.48 342.813 325.5 342.774ZM347.607 346.6C350.502 346.266 352.951 348.469 353.918 351.071C356.391 357.723 358.979 365.169 361.682 373.407C361.822 373.825 362.045 373.876 362.35 373.559C368.455 367.204 371.332 359.876 370.98 351.575C370.553 341.538 365.877 333.651 355.84 331.038C348.727 329.18 339.826 329.467 334.066 334.383C329.539 338.251 326.766 343.173 325.746 349.149C325.742 349.17 325.743 349.192 325.749 349.213C325.756 349.233 325.767 349.252 325.781 349.267C325.796 349.283 325.815 349.295 325.835 349.302C325.855 349.309 325.877 349.311 325.898 349.307C329.422 348.768 336.658 347.866 347.607 346.6ZM299.689 341.585C299.716 341.612 299.75 341.63 299.787 341.637C299.824 341.643 299.863 341.638 299.897 341.622C299.931 341.606 299.959 341.58 299.978 341.547C299.996 341.514 300.004 341.476 300 341.438C299.793 338.88 299.734 336.393 299.824 333.979C299.855 333.089 299.582 332.983 299.004 333.663C297.937 334.928 297.279 335.706 297.029 335.995C296.529 336.581 296.48 337.221 296.883 337.917C297.684 339.3 298.619 340.522 299.689 341.585ZM355.242 369.915C357 371.555 358.119 373.477 359.133 375.182C359.211 375.319 359.346 375.44 359.537 375.546C359.563 375.559 359.593 375.565 359.623 375.563C359.652 375.561 359.681 375.55 359.705 375.532C359.728 375.515 359.747 375.49 359.758 375.463C359.768 375.435 359.771 375.405 359.766 375.376C359.461 374.008 358.963 372.339 358.271 370.366C354.549 359.714 352.547 353.991 352.266 353.198C351.637 351.417 351.037 350.276 350.467 349.776C349.736 349.139 349.078 348.842 348.492 348.885C343.211 349.296 335.17 350.272 324.369 351.815C323.975 351.874 323.963 351.977 324.334 352.126C332.732 355.532 340.541 359.524 347.76 364.102C350.369 365.755 352.863 367.692 355.242 369.915ZM358.172 386.591C358.918 385.997 359.834 385.278 360.92 384.434C361.072 384.316 361.181 384.151 361.229 383.964C361.276 383.777 361.26 383.58 361.184 383.403C359.244 378.95 356.924 374.725 353.543 371.444C352.148 370.089 350.883 369.007 349.746 368.198C343.055 363.446 335.279 359.397 327.047 355.659C324.684 354.585 323.064 354.016 322.189 353.954C318.193 353.669 315.061 354.993 312.791 357.926C309.469 362.216 306.123 368.772 303.627 372.762C302.924 373.883 294.975 386.856 279.779 411.68C278.896 413.13 278.74 414.69 279.311 416.362C280.26 419.151 282.029 421.993 283.957 424.149C287.031 427.579 290.455 430.698 294.229 433.507C300.686 438.315 307.744 442.563 315.404 446.251C315.432 446.264 315.462 446.27 315.493 446.27C315.524 446.269 315.554 446.261 315.581 446.247C315.608 446.233 315.632 446.213 315.65 446.188C315.668 446.163 315.68 446.134 315.686 446.104C316.33 442.307 317.789 439.923 320.326 436.565C339.682 410.964 349.445 398.048 349.617 397.817C351.852 394.841 354.076 391.835 356.291 388.799C357.115 387.671 357.742 386.934 358.172 386.591ZM262.236 418.706C262.247 418.788 262.284 418.865 262.342 418.924C262.401 418.983 262.476 419.022 262.559 419.034C264.824 419.346 266.162 419.534 266.572 419.596C270.033 420.124 272.367 421.932 273.574 425.022C273.594 425.074 273.627 425.12 273.668 425.157C273.709 425.194 273.758 425.221 273.812 425.236C273.865 425.251 273.921 425.253 273.976 425.242C274.03 425.231 274.081 425.208 274.125 425.175C276.156 423.616 277.295 422.743 277.541 422.555C277.932 422.258 278.166 421.995 278.244 421.764C278.296 421.617 278.295 421.455 278.241 421.308C278.186 421.16 278.082 421.036 277.945 420.956C272.445 417.764 267.445 413.88 262.945 409.301C262.907 409.262 262.858 409.234 262.804 409.22C262.751 409.206 262.695 409.207 262.642 409.223C262.589 409.239 262.541 409.268 262.504 409.309C262.466 409.35 262.441 409.4 262.43 409.454C261.867 412.196 261.803 415.28 262.236 418.706ZM184.482 420.405C184.955 419.674 185.477 418.823 186.047 417.85C186.814 416.555 187.506 415.993 188.777 414.991C189.023 414.796 188.992 414.706 188.684 414.721L184.283 414.915C184.057 414.923 183.943 415.042 183.943 415.272L183.955 420.253C183.955 420.901 184.131 420.952 184.482 420.405ZM153.445 416.116C153.438 415.999 153.371 415.944 153.246 415.952L124.822 417.557C124.634 417.569 124.45 417.621 124.283 417.71C121.611 419.112 118.99 420.831 116.42 422.866C115.334 423.725 114.523 424.501 113.988 425.192C113.965 425.216 113.961 425.243 113.977 425.274C113.98 425.29 113.992 425.305 114.012 425.321C114.047 425.348 114.084 425.342 114.123 425.303C115.174 424.28 116.359 423.399 117.68 422.661C119.613 421.579 121.971 420.317 124.752 418.876C126.619 417.907 128.453 417.489 130.254 417.622C135.891 418.036 143.633 418.717 153.48 419.667C153.578 419.674 153.625 419.626 153.621 419.52L153.445 416.116ZM257.965 418.641L259.33 418.8C259.444 418.813 259.559 418.78 259.649 418.709C259.739 418.637 259.797 418.533 259.811 418.419L259.816 418.366C259.851 418.065 259.858 417.764 259.836 417.479C259.814 417.195 259.764 416.933 259.688 416.709C259.612 416.485 259.513 416.302 259.395 416.172C259.277 416.042 259.144 415.968 259.002 415.952L258.932 415.946C258.79 415.93 258.643 415.972 258.499 416.072C258.355 416.172 258.217 416.327 258.093 416.527C257.968 416.728 257.86 416.971 257.773 417.242C257.687 417.513 257.625 417.808 257.59 418.108L257.584 418.161C257.571 418.275 257.603 418.39 257.675 418.48C257.746 418.57 257.851 418.628 257.965 418.641ZM113.701 431.128C114.902 429.428 118.225 428.591 120.814 427.887C123.164 427.249 126.48 425.837 128.965 425.133C130.113 424.805 131.162 424.858 132.305 425.04C134.16 425.337 141.33 426.464 153.814 428.421C154.182 428.479 154.354 428.325 154.33 427.958L153.996 422.895C153.986 422.757 153.932 422.626 153.841 422.521C153.75 422.416 153.628 422.344 153.492 422.315C152.41 422.081 151.725 421.95 151.436 421.923C138.541 420.688 131.221 420.034 129.475 419.96C128.381 419.909 127.527 420.026 126.914 420.311C124.832 421.276 121.797 422.885 117.809 425.139C116.234 426.026 114.998 426.989 114.1 428.028C113.252 429.008 112.676 430.526 112.371 432.581C112.328 432.866 112.406 432.889 112.605 432.651C112.715 432.518 113.08 432.01 113.701 431.128ZM282.129 436.817C285.629 443.309 290.678 447.833 297.275 450.387C300.855 451.776 304.025 451.882 307.547 451.055C309.094 450.692 310.16 447.956 310.623 446.743C310.682 446.583 310.635 446.464 310.482 446.385C307.76 444.991 304.107 442.862 299.525 439.999C292.158 435.393 285.805 429.893 280.465 423.499C280.432 423.458 280.39 423.427 280.341 423.408C280.293 423.39 280.24 423.384 280.189 423.392C280.138 423.401 280.089 423.423 280.049 423.456C280.009 423.489 279.979 423.532 279.961 423.581C279.578 424.577 279.4 425.643 279.428 426.78C279.514 430.288 280.414 433.633 282.129 436.817ZM275.139 427.495L276.234 430.671C276.363 431.038 276.467 431.034 276.545 430.659C276.705 429.885 276.838 428.559 276.943 426.68C276.959 426.45 276.852 426.331 276.621 426.323C276.207 426.303 275.834 426.393 275.502 426.592C275.344 426.685 275.221 426.825 275.154 426.99C275.088 427.154 275.083 427.333 275.139 427.495ZM120.604 447.171C120.424 447.737 119.885 449.524 118.986 452.532C118.931 452.722 118.949 452.925 119.037 453.102C119.125 453.279 119.276 453.417 119.461 453.487C121.184 454.151 122.676 453.821 123.938 452.497C127.447 448.811 128.514 444.282 129.48 439.477C129.674 438.522 130.207 437.479 130.652 436.764C131.012 436.186 130.879 436.034 130.254 436.307C128.867 436.921 127.461 437.403 126.035 437.755C125.943 437.777 125.856 437.818 125.78 437.874C125.703 437.931 125.639 438.001 125.59 438.083C123.941 440.825 122.629 442.966 121.652 444.505C121.387 444.919 121.037 445.807 120.604 447.171ZM114.715 436.77C114.678 436.751 114.637 436.741 114.596 436.741C114.555 436.741 114.514 436.751 114.477 436.769C114.44 436.788 114.409 436.816 114.385 436.85C114.361 436.884 114.345 436.923 114.34 436.964C114.16 438.315 113.695 439.827 112.945 441.499C112.648 442.163 112.518 442.983 112.553 443.96C112.557 444.163 112.633 444.335 112.781 444.475C113.609 445.272 114.602 445.462 115.758 445.044C118.928 443.889 121.26 440.813 122.9 437.942C123.139 437.52 123.029 437.389 122.572 437.55C120.037 438.425 117.418 438.165 114.715 436.77ZM476.795 463.008C477.205 461.825 477.592 460.905 478.477 460.02C482.816 455.657 485.996 450.93 488.016 445.841C489.008 443.348 489.553 441.62 489.65 440.655C489.701 440.159 489.457 439.837 488.918 439.688C488.914 439.688 488.799 439.71 488.572 439.753C488.154 439.839 487.885 440.087 487.764 440.497C486.467 445.044 484.533 449.182 481.963 452.913C480.627 454.852 478.131 457.477 477 458.708C475.471 460.366 474.809 461.989 474.316 464.204C474.105 465.149 473.396 468.034 472.189 472.858C472.014 473.55 472.281 473.958 472.992 474.083C473.012 474.087 473.029 474.091 473.045 474.094C473.168 474.124 473.296 474.125 473.423 474.098C473.55 474.071 473.672 474.016 473.783 473.935C473.894 473.855 473.992 473.752 474.07 473.632C474.149 473.511 474.206 473.376 474.24 473.233C475.682 467.175 476.533 463.766 476.795 463.008ZM147.609 444.036C148.043 442.635 149.303 441.967 150.516 441.54C150.891 441.407 150.887 441.278 150.504 441.153L146.473 439.852C146.295 439.794 146.104 439.785 145.922 439.826C145.739 439.868 145.571 439.958 145.436 440.087C144.51 440.969 143.582 441.823 142.652 442.647C141.574 443.608 140.564 444.897 139.623 446.514C138.236 448.889 137.027 451.342 135.996 453.874C135.781 454.401 135.701 454.915 135.756 455.415C135.779 455.626 135.879 455.79 136.055 455.907C139.371 458.122 143.402 453.616 144.785 450.915C145.969 448.606 146.91 446.313 147.609 444.036ZM103.315 442.569C103.276 442.451 103.215 442.341 103.134 442.246C103.053 442.151 102.954 442.073 102.843 442.017C102.732 441.96 102.611 441.926 102.487 441.916C102.362 441.906 102.237 441.921 102.119 441.96L102.085 441.971C101.846 442.048 101.647 442.218 101.533 442.442C101.419 442.667 101.398 442.927 101.476 443.167L105.373 455.159C105.411 455.277 105.473 455.387 105.553 455.482C105.634 455.577 105.733 455.655 105.844 455.711C105.955 455.768 106.077 455.802 106.201 455.812C106.325 455.822 106.45 455.807 106.569 455.768L106.602 455.757C106.841 455.68 107.04 455.51 107.155 455.286C107.269 455.061 107.289 454.801 107.212 454.561L103.315 442.569ZM283.559 453.932C282.875 453.51 282.15 453.661 281.385 454.383C277.607 457.958 274.031 461.907 270.656 466.231C270.355 466.614 270.023 466.975 269.66 467.315C269.579 467.393 269.519 467.489 269.485 467.595C269.45 467.702 269.442 467.815 269.462 467.925C269.482 468.035 269.528 468.139 269.598 468.227C269.667 468.314 269.757 468.384 269.859 468.428C273.367 469.932 277.266 470.686 281.555 470.69C288.293 470.702 293.385 467.966 298.576 463.823C298.799 463.646 298.954 463.397 299.015 463.119C299.076 462.842 299.039 462.552 298.91 462.299L295.131 454.841C295.049 454.68 294.92 454.614 294.744 454.641C294.537 454.68 293.896 454.844 292.822 455.133C289.787 455.96 286.33 455.649 283.559 453.932ZM286.887 472.454C286.711 472.493 286.701 472.563 286.857 472.665C286.928 472.708 287.064 472.727 287.268 472.723C292.314 472.661 297.537 472.692 302.936 472.817C303.26 472.825 303.412 472.665 303.393 472.337C302.975 465.493 302.715 459.462 302.613 454.243C302.611 454.12 302.563 454.003 302.479 453.915C302.395 453.826 302.282 453.774 302.162 453.768L297.527 453.505C297.262 453.489 297.191 453.598 297.316 453.833C298.391 455.833 299.256 457.546 299.912 458.971C300.826 460.967 301.313 462.061 301.371 462.253C301.715 463.448 301.191 464.657 299.801 465.88C296.043 469.184 291.738 471.376 286.887 472.454ZM306.828 453.977C306.825 453.91 306.81 453.843 306.782 453.781C306.754 453.72 306.714 453.664 306.664 453.618C306.615 453.572 306.556 453.536 306.493 453.512C306.43 453.489 306.362 453.478 306.295 453.48L305.545 453.506C305.477 453.508 305.411 453.524 305.349 453.552C305.287 453.58 305.232 453.62 305.186 453.67C305.14 453.719 305.104 453.777 305.08 453.841C305.056 453.904 305.045 453.972 305.048 454.039L305.7 472.708C305.702 472.775 305.718 472.842 305.746 472.904C305.774 472.965 305.814 473.021 305.863 473.067C305.913 473.113 305.971 473.149 306.034 473.173C306.098 473.196 306.165 473.207 306.233 473.205L306.982 473.179C307.05 473.176 307.117 473.161 307.178 473.133C307.24 473.105 307.295 473.065 307.342 473.015C307.388 472.966 307.424 472.908 307.447 472.844C307.471 472.781 307.482 472.713 307.48 472.646L306.828 453.977ZM178.582 463.841C178.582 463.66 178.51 463.487 178.383 463.36C178.255 463.232 178.083 463.161 177.902 463.161H115.875C115.695 463.161 115.522 463.232 115.394 463.36C115.267 463.487 115.195 463.66 115.195 463.841V464.673C115.195 464.853 115.267 465.026 115.394 465.153C115.522 465.281 115.695 465.352 115.875 465.352H177.902C178.083 465.352 178.255 465.281 178.383 465.153C178.51 465.026 178.582 464.853 178.582 464.673V463.841ZM207.756 465.358C210.117 465.633 210.791 466.864 211.629 469.055C211.879 469.708 212.23 469.77 212.684 469.243C212.738 469.176 212.781 469.126 212.813 469.091C213.273 468.559 213.398 467.958 213.187 467.286C212.332 464.544 210.512 463.165 207.727 463.149C204.699 463.133 202.887 463.128 202.289 463.132C201.965 463.134 201.655 463.243 201.416 463.44C201.178 463.636 201.028 463.906 200.994 464.198C200.986 464.268 200.977 464.323 200.965 464.362C200.77 465.046 201.039 465.376 201.773 465.352C204.773 465.243 206.768 465.245 207.756 465.358ZM276.053 472.682C276.067 472.683 276.082 472.68 276.097 472.675C276.112 472.671 276.126 472.663 276.139 472.654C276.153 472.644 276.164 472.633 276.174 472.62C276.183 472.607 276.19 472.594 276.194 472.58C276.198 472.566 276.2 472.552 276.198 472.539C276.197 472.526 276.192 472.515 276.185 472.504C276.178 472.494 276.168 472.486 276.157 472.481C276.145 472.475 276.132 472.472 276.117 472.471C273.437 472.331 270.85 471.626 268.354 470.356C268.272 470.315 268.184 470.292 268.092 470.287C268.001 470.282 267.909 470.296 267.822 470.327C267.735 470.359 267.654 470.408 267.584 470.471C267.515 470.534 267.457 470.611 267.416 470.696L266.654 472.231C266.521 472.505 266.602 472.649 266.895 472.665C270.457 472.864 273.51 472.87 276.053 472.682Z" fill="#EFEFEF"/>
<path d="M293.49 179.35C295.125 179.772 296.672 179.531 298.242 179.168C299.051 178.984 299.625 179.047 299.965 179.356C301.611 180.838 300.885 182.496 298.945 183.094C296.902 183.719 294.758 183.742 292.512 183.164C290.262 182.586 288.392 181.531 286.904 180C285.498 178.541 285.656 176.736 287.818 176.232C288.264 176.127 288.797 176.35 289.418 176.9C290.619 177.973 291.855 178.934 293.49 179.35Z" fill="#EFEFEF"/>
<path d="M283.803 200.129C284.023 201.026 283.878 201.973 283.4 202.762C282.922 203.552 282.15 204.119 281.253 204.339L280.923 204.421C280.479 204.53 280.018 204.55 279.567 204.481C279.115 204.412 278.681 204.254 278.29 204.018C277.899 203.781 277.559 203.469 277.288 203.101C277.018 202.733 276.822 202.315 276.713 201.871L274.877 194.394C274.656 193.497 274.801 192.55 275.28 191.761C275.758 190.971 276.53 190.404 277.426 190.184L277.756 190.102C278.2 189.993 278.661 189.973 279.113 190.042C279.565 190.111 279.999 190.269 280.39 190.505C280.781 190.742 281.121 191.054 281.392 191.422C281.662 191.79 281.858 192.208 281.967 192.652L283.803 200.129ZM279.545 193.381C279.468 193.088 279.278 192.837 279.016 192.684C278.754 192.531 278.443 192.489 278.15 192.566L278.07 192.586C277.777 192.663 277.527 192.853 277.374 193.115C277.221 193.377 277.178 193.688 277.255 193.981L279.158 201.236C279.235 201.529 279.425 201.78 279.687 201.932C279.949 202.085 280.26 202.128 280.553 202.051L280.633 202.03C280.926 201.953 281.176 201.763 281.329 201.502C281.482 201.24 281.525 200.928 281.448 200.635L279.545 193.381Z" fill="#EFEFEF"/>
<path d="M358.189 265.447L340.09 268.758C339.955 268.783 339.816 268.756 339.7 268.682C339.585 268.608 339.502 268.492 339.469 268.359L337.553 260.736C337.535 260.665 337.532 260.59 337.544 260.517C337.556 260.444 337.583 260.374 337.623 260.312C337.663 260.25 337.715 260.197 337.777 260.156C337.838 260.115 337.908 260.087 337.98 260.074L356.08 256.764C356.216 256.739 356.356 256.767 356.471 256.842C356.587 256.917 356.669 257.034 356.701 257.168L358.617 264.785C358.635 264.857 358.638 264.931 358.626 265.004C358.614 265.077 358.587 265.147 358.547 265.209C358.507 265.271 358.455 265.324 358.393 265.365C358.331 265.406 358.262 265.434 358.189 265.447Z" fill="#EFEFEF"/>
<path d="M0 489.422V487.014L378.129 486.973C378.66 486.973 379.023 487.219 379.219 487.711C379.371 488.094 379.371 488.465 379.219 488.824C379.035 489.258 378.707 489.475 378.234 489.475L0 489.422Z" fill="#EFEFEF"/>
</svg>
