<svg width="600" height="600" viewBox="0 0 600 600" fill="none" xmlns="http://www.w3.org/2000/svg">
<path d="M313.664 103.324C315.053 102.298 316.254 103.851 316.928 104.923C320.572 110.953 324.34 116.923 328.564 122.572C335.83 132.345 343.02 142.189 349.752 152.338C353.959 158.754 358.547 164.912 362.754 171.322C368.391 168.24 373.84 164.795 379.201 161.244C383.326 158.543 386.707 154.388 391.728 153.316C396.34 152.343 401.93 153.767 404.525 157.968C407.607 163.119 406.201 170.502 401.373 174.099C396.855 177.638 391.998 180.697 387.27 183.931C383.584 186.468 380.074 189.246 376.277 191.607C381.932 199.517 387.961 207.175 393.322 215.291C392.039 215.22 390.75 215.308 389.473 215.443C384.275 208.078 378.937 200.8 374.18 193.136C369.732 196.084 365.66 199.564 361.102 202.341C364.758 207.433 368.303 212.601 371.66 217.892C371.279 218.062 370.904 218.232 370.535 218.402C370.248 219.216 369.961 220.031 369.686 220.851C365.988 215.062 361.969 209.484 357.85 203.988C353.092 207.328 348.398 210.761 343.811 214.336C340.811 216.685 337.283 218.736 333.369 218.812C330.123 218.789 326.619 217.728 324.568 215.062C321.756 211.5 319.98 206.777 320.854 202.218C321.398 199.406 323.619 197.332 325.951 195.867C332.051 191.718 338.18 187.611 344.484 183.779C340.529 178.277 336.012 173.209 332.103 167.666C320.666 150.533 309.047 133.5 298.441 115.828C297.258 114.304 298.137 112.341 299.842 111.767C304.723 109.418 309.07 106.16 313.664 103.324ZM301.805 114.685C304.787 119.226 307.295 124.054 310.289 128.589C317.191 139.406 324.393 150.029 331.424 160.769C335.555 167.179 340.277 173.173 345.146 179.039C346.711 178.078 348.41 177.158 350.32 177.586C350.402 178.066 350.578 179.021 350.666 179.496C353.807 177.345 357.047 175.33 360.141 173.109C357.457 169.535 354.82 165.925 352.195 162.31C345.469 152.291 337.992 142.798 331.324 132.738C327.311 126.691 323.033 120.826 319.066 114.75C317.889 115.535 316.658 116.297 315.182 116.173C314.461 114.339 315.621 112.693 317.42 112.172C317.027 111.404 316.535 110.701 315.844 110.185C315.17 110.748 314.525 111.334 313.904 111.949C312.926 111.925 311.508 112.089 311.561 110.695C312.117 108.972 314.279 108.638 314.912 106.974C314.578 107.033 313.916 107.156 313.582 107.214C309.498 109.453 306.035 112.675 301.805 114.685ZM392.109 156.123C392.109 156.281 392.109 156.591 392.109 156.75C393.598 157.869 395.227 158.818 396.586 160.113C399.334 162.58 401.092 165.925 402.287 169.371C403.699 166.394 404.625 162.644 402.738 159.662C400.746 155.994 395.877 154.804 392.109 156.123ZM387.375 158.285C385.529 159.884 383.807 161.666 381.662 162.89C382.395 164.156 383.174 165.398 384.006 166.611C383.461 167.027 382.893 168.076 382.078 167.595C381.158 166.646 380.607 165.41 379.67 164.49C377.918 165.164 376.529 166.5 374.918 167.431C375.539 168.474 376.225 169.494 376.67 170.63C376.605 171.533 375.697 171.785 374.947 171.791C374.115 170.818 373.453 169.722 372.703 168.691C370.928 169.886 369.018 170.859 367.16 171.925C367.857 173.015 368.631 174.07 369.182 175.254C369.211 176.091 368.191 176.836 367.453 176.32C366.469 175.476 365.848 174.298 365.062 173.285C361.939 175.06 359.033 177.187 355.934 178.986C357 180.123 358.154 181.283 358.646 182.812C358.758 183.791 358.324 184.295 357.334 184.324C356.045 183.246 355.406 181.588 354.357 180.298C352.594 181.629 350.613 182.619 348.809 183.884C349.23 185.349 351.697 187.089 350.232 188.525C348.398 189.199 347.766 186.673 346.658 185.718C344.766 186.826 342.85 187.904 340.828 188.754C341.877 190.107 342.996 191.466 343.641 193.072C344.121 194.109 342.721 195.07 341.848 194.402C340.664 193.213 339.92 191.689 339.117 190.248C337.184 191.408 335.332 192.685 333.387 193.828C334.166 195.035 336.322 196.476 335.045 197.976C333.293 198.562 332.496 196.4 331.77 195.246C329.748 196.464 327.885 197.923 325.916 199.213C326.244 200.267 326.607 201.322 326.988 202.365C328.383 201.088 330.961 198.609 332.59 200.83C331.008 202.494 329.115 203.806 327.275 205.166C328.031 209.806 331.371 214.517 336.34 215.05C338.695 214.716 340.471 212.953 342.34 211.634C347.191 208.089 351.973 204.427 357.018 201.146C366.27 195.076 375.316 188.701 384.357 182.32C389.484 178.722 394.963 175.646 399.873 171.744C399.527 166.769 396.135 162.404 391.764 160.201C390.328 159.562 388.957 158.25 387.375 158.285ZM348.041 180.006C349.992 180.064 347.15 181.763 348.041 180.006ZM323.098 202.734C322.775 208.037 324.99 214.511 330.621 216.088C328.307 213.574 326.285 210.744 325.107 207.509C324.387 205.939 324.281 204.058 323.098 202.734Z" fill="#EFEFEF"/>
<path d="M322.957 133.084C325.84 132.287 329.496 134.051 330.334 136.998C329.947 139.395 327.158 140.127 325.113 140.332C322.84 140.742 320.449 138.873 320.514 136.529C320.326 134.965 321.545 133.576 322.957 133.084ZM323.373 135.791C323.414 136.272 323.496 137.233 323.543 137.713C324.668 137.742 325.857 137.789 326.836 137.121C326.69 136.817 326.391 136.201 326.244 135.897C325.295 135.674 324.322 135.61 323.373 135.791Z" fill="#EFEFEF"/>
<path d="M331.277 148.494C334.125 147.205 337.904 148.975 339.217 151.693C339.246 155.842 332.772 157.26 330.428 154.125C328.775 152.502 328.981 149.42 331.277 148.494ZM332.016 151.863C332.754 153.059 334.301 153.697 335.467 152.631C336.1 150.445 332.766 150.059 332.016 151.863Z" fill="#EFEFEF"/>
<path d="M340.641 162.071C343.635 161.151 347.854 163.172 348.422 166.406C348.07 169.5 344.18 170.684 341.607 169.676C339.85 168.879 338.297 167.239 338.162 165.246C338.268 163.822 339.316 162.569 340.641 162.071ZM341.783 164.842C340.225 166.992 344.648 168.024 345.035 165.926C344.59 164.614 342.914 164.321 341.783 164.842Z" fill="#EFEFEF"/>
<path d="M308.766 122.912C309.521 121.248 310.887 119.543 312.879 119.514C315.129 119.485 317.508 119.989 319.383 121.289C320.59 122.162 320.613 123.996 319.576 125.016C318.094 126.41 315.984 126.885 314.021 127.096C311.514 127.149 309.627 125.08 308.766 122.912ZM311.988 122.631C311.221 123.574 312.352 124.225 312.896 124.869C314.361 124.946 315.809 124.729 316.846 123.586C315.82 122.104 313.447 121.354 311.988 122.631Z" fill="#EFEFEF"/>
<path d="M464.748 131.397C475.26 128.613 486.697 129.035 496.816 133.125C508.336 137.549 517.846 146.736 522.914 157.963C531.123 175.6 527.93 198.024 514.635 212.338C505.078 223.225 490.582 229.272 476.156 229.008C474.662 240.188 473.291 251.391 471.703 262.559C470.689 271.529 469.043 280.43 468.141 289.412C471.633 285.029 474.774 280.383 478.207 275.959C479.385 274.272 480.897 272.742 481.576 270.762C482.115 267.428 482.168 264.012 483.059 260.736C486.07 247.119 499.506 237.135 513.275 237.193C519.176 237.393 523.857 241.752 526.986 246.393C530.408 251.561 530.022 258.193 528.785 264C526.992 272.326 521.004 278.959 514.482 284.074C511.371 286.441 507.973 288.445 504.34 289.899C502.541 290.666 500.584 291.381 499.395 293.033C496.441 296.883 493.354 300.627 490.541 304.576C493.84 304.723 497.15 304.459 500.449 304.658C502.512 305.121 503.625 307.377 503.496 309.369C503.748 353.127 503.227 396.885 503.455 440.643C503.385 450.047 503.854 459.475 503.203 468.867C509.69 468.733 516.176 468.674 522.668 468.697C534.99 468.809 547.295 467.906 559.611 467.912C561.135 467.66 560.912 470.531 559.652 470.531C546.346 470.01 533.063 471.404 519.762 471.234C504.316 471.51 488.865 471.346 473.42 471.703C454.682 472.365 435.932 472.811 417.182 473.039C395.484 473.156 373.787 472.805 352.096 472.74C334.553 471.856 316.934 471.1 299.397 472.582C284.408 474.117 269.344 471.539 254.35 472.934C244.4 473.514 234.428 473.719 224.461 473.631C219.533 473.637 214.693 472.535 209.777 472.295C198.645 471.674 187.518 472.629 176.385 472.758C163.084 473.397 149.772 472.676 136.465 472.5C121.043 472.283 105.615 471.076 90.1934 471.879C84.3457 471.984 78.4981 472.705 72.6504 472.166C63.8848 471.451 55.084 471.984 46.3067 471.486C46.3418 470.783 45.8321 469.371 46.9219 469.301C49.7989 468.856 52.7286 469.518 55.6348 469.371C61.6934 469.184 67.7579 469.242 73.8047 469.729C82.7579 469.998 91.7051 469.207 100.652 469.002C101.402 468.041 101.033 466.412 101.203 465.199C101.133 414.035 101.162 362.865 101.051 311.701C101.15 309.387 100.729 306.973 101.484 304.746C102.305 302.707 104.648 302.209 106.617 302.303C115.594 302.256 124.576 302.004 133.547 302.238C127.781 291.223 122.35 280.02 117.703 268.482C115.676 263.244 113.736 257.947 112.4 252.492C111.744 251.092 113.098 250.225 114.006 249.457C112.658 245.842 111.264 242.197 109.336 238.846C104.824 237.322 99.4219 237.035 96.0762 233.244C93.4864 230.508 90.5215 227.883 89.1622 224.268C87.1172 218.883 87.3165 212.889 88.6114 207.352C90.3868 200.162 95.8829 193.699 103.154 191.725C110.971 189.299 120.574 193.025 123.996 200.631C126.387 205.928 125.145 211.863 125.731 217.459C126.715 225.943 131.18 233.397 134.273 241.207C135.498 241.336 136.676 241.834 137.338 242.936C141.873 249.211 143.889 256.828 146.063 264.147C149.484 276.756 152.42 289.494 155.402 302.215C159.416 302.256 163.43 302.191 167.438 302.25C167.203 287.625 166.441 273.018 166.195 258.393C165.932 254.455 166.26 250.143 164.063 246.668C162.035 243.873 158.461 242.982 155.982 240.703C148.33 234.258 145.19 223.547 146.631 213.815C147.188 208.582 149.537 203.338 153.949 200.262C159.07 196.477 165.65 196.248 171.697 195.252C173.022 194.865 173.93 196.225 173.953 197.397C174.316 201.334 174.193 205.301 174.516 209.244C174.481 210.135 174.856 211.33 173.895 211.863C171.398 213.662 168.604 215.262 166.928 217.945C164.578 221.889 164.824 227.514 168.234 230.795C172.43 235.084 179.572 234.885 184.494 232.008C187.963 229.84 190.207 226.025 190.904 222.041C191.572 218.057 190.055 213.486 186.481 211.342C185.525 210.545 183.949 210.024 183.85 208.6C183.615 205.465 183.668 202.301 183.984 199.172C184.131 197.947 184.764 196.131 186.322 196.336C191.35 196.693 196.418 197.484 201.047 199.576C198.193 193.465 196.816 186.645 197.145 179.906C197.092 178.447 198.188 176.795 199.816 177.129C206.877 178.184 213.902 179.514 220.951 180.668C222.439 180.955 224.443 181.084 224.895 182.871C226.26 186.639 227.789 190.617 231.041 193.19C238.553 199.523 251.514 195.533 255.041 186.598C257.379 181.084 257.813 174.293 254.684 168.996C252.938 165.938 249.475 164.332 246.088 163.945C240.961 163.418 235.705 165.211 231.814 168.551C230.297 169.77 229.107 171.328 227.602 172.547C226.406 173.572 224.303 173.203 223.822 171.609C220.576 164.777 217.729 157.77 214.805 150.803C214.154 149.063 213.123 146.649 214.898 145.213C218.42 142.225 222.656 140.104 227.016 138.633C228.627 137.924 230.373 138.803 232.02 138.316C239.619 136.231 247.705 135.434 255.475 137.051C264.873 138.85 273.404 144.457 279.059 152.15C286.529 162.147 289.289 175.231 287.637 187.5C286.447 196.377 281.572 204.44 274.951 210.357C273.832 211.459 272.25 212.66 272.496 214.436C272.613 217.688 273.955 220.711 274.969 223.758C278.086 232.154 281.168 240.568 283.957 249.082C287.408 260.115 290.027 271.395 293.725 282.352C296.045 289.313 298.272 296.326 301.025 303.129C332.502 303.234 363.984 303.568 395.461 303.691C411.639 303.926 427.828 303.82 444.006 304.154C445.565 290.889 448.137 277.77 450.445 264.621C452.637 251.432 454.705 238.225 456.955 225.047C447.082 220.934 438.803 213.287 433.688 203.924C424.031 186.721 426.088 163.781 438.539 148.5C445.195 140.232 454.529 134.203 464.748 131.397ZM470.262 132.861C454.324 135.422 440.045 146.525 433.787 161.426C429.762 170.854 429.047 181.594 431.379 191.543C433.975 202.002 440.367 211.447 449.074 217.781C458.109 224.15 469.4 227.18 480.416 226.359C498.955 225.223 516.123 212.209 522.24 194.678C526.148 183.598 525.85 171.047 521.227 160.231C517.383 150.973 510.346 143.051 501.545 138.234C492.199 132.785 480.879 131.104 470.262 132.861ZM233.648 142.582C234.246 144.076 234.984 145.512 235.436 147.065C235.359 148.43 233.479 149.52 232.512 148.301C231.158 146.631 230.256 144.639 228.885 142.975C225.176 144.012 221.807 145.934 218.514 147.885C220.828 153.967 223.459 159.932 226.166 165.844C226.324 166.225 226.887 167.408 227.379 166.506C231.785 162.006 237.949 159.176 244.295 159.293C249.867 159.281 255.82 161.719 258.645 166.746C261.961 172.623 262.025 179.895 260.057 186.229C258.475 191.555 254.654 196.225 249.598 198.586C244.559 200.947 238.564 201.609 233.279 199.682C228.838 198.106 225.322 194.561 223.16 190.441C222.264 188.795 221.719 186.979 220.74 185.385C214.324 184.113 207.856 183.094 201.416 181.94C201.609 185.514 202.043 189.1 203.115 192.527C205.928 202.072 212.707 210.193 221.08 215.426C228.129 219.897 236.783 220.91 244.945 220.184C246.434 219.908 247.898 220.606 248.607 221.947C251.285 226.623 253.014 231.756 255.17 236.678C261.141 235.107 267.193 233.438 272.455 230.098C270.938 224.719 268.078 219.586 268.102 213.879C268.078 210.557 270.656 208.213 272.889 206.127C278.789 200.461 282.867 192.785 283.447 184.559C282.27 184.453 280.998 184.682 279.902 184.154C278.936 183.92 278.625 182.367 279.498 181.869C280.811 181.266 282.281 181.231 283.693 181.084C283.693 173.701 282.035 166.272 278.531 159.75C275.127 153.293 269.795 147.832 263.238 144.568C254.18 139.822 243.316 139.857 233.648 142.582ZM103.066 194.865C98.0567 196.307 94.0723 200.209 91.6407 204.727C89.1504 209.924 89.3262 216.065 90.7793 221.537C91.6231 224.936 94.1895 227.414 96.4102 229.963C97.793 231.498 99.3399 232.969 101.256 233.807C103.928 234.897 106.816 235.231 109.565 236.045C110.93 236.309 111.445 237.721 112.066 238.787C113.596 241.822 115.143 244.863 116.332 248.057C121.195 245.502 126.24 243.252 131.607 241.986C128.742 234.463 124.477 227.291 123.668 219.129C123.041 214.922 124.4 210.633 123.34 206.467C122.221 201.908 119.262 197.678 115.014 195.557C111.316 193.781 106.957 193.617 103.066 194.865ZM154.981 204.27C150.598 208.037 149.789 214.248 149.895 219.697C150.293 227.408 153.926 235.447 160.758 239.479C163.166 241.066 166.213 242.18 167.484 244.986C169.799 250.025 169.77 255.697 169.981 261.129C175.494 259.389 181.354 260.104 186.943 261.041C186.744 256.225 186.955 251.203 188.936 246.727C189.891 244.541 191.965 243.223 193.781 241.816C200.391 236.994 205.178 229.746 207.047 221.783C208.16 216.305 207.492 209.795 203.197 205.787C198.926 201.75 192.92 200.414 187.236 199.94C187.143 202.266 186.82 204.65 187.324 206.947C188.877 208.541 190.975 209.596 192.188 211.535C196.77 218.145 194.936 227.801 189.199 233.139C182.936 239.315 171.363 239.865 165.34 233.086C160.986 228.58 160.922 221.262 163.904 216.006C165.475 213.141 168.381 211.488 170.912 209.602C170.988 206.092 170.83 202.57 170.736 199.061C165.287 199.881 159.258 200.361 154.981 204.27ZM210.229 224.262C208.09 232.477 202.916 239.83 196.025 244.758C194.022 246.211 191.936 247.928 191.391 250.482C190.049 255.932 190.904 261.604 190.547 267.147C189.908 278.9 190.559 290.66 190.781 302.42C218.162 302.578 245.537 302.701 272.918 302.836C268.928 291.44 265.482 279.861 261.668 268.4C257.291 255.779 253.014 243.111 247.898 230.766C246.996 228.721 246.24 226.57 244.916 224.76C240.387 224.854 235.834 224.895 231.357 224.098C223.412 222.891 216.147 218.607 210.639 212.848C211.617 216.598 211.166 220.547 210.229 224.262ZM459.498 226.072C459.041 228.369 458.502 230.643 458.15 232.957C463.031 233.508 467.836 234.574 472.682 235.354C472.94 233.221 473.203 231.088 473.496 228.961C468.721 228.633 464.057 227.473 459.498 226.072ZM457.816 235.541C457.365 238.283 456.832 241.008 456.381 243.75C461.326 244.594 466.313 245.18 471.252 246.059C471.732 243.381 472.096 240.686 472.254 237.979C467.455 237.088 462.65 236.209 457.816 235.541ZM500.227 244.231C493.043 247.863 487.682 254.877 486.164 262.793C485.391 265.734 485.619 268.805 485.039 271.77C484.272 274.072 482.49 275.842 481.119 277.793C474.41 286.617 467.807 295.523 461.033 304.307C469.102 304.424 477.17 304.471 485.244 304.518C486.029 304.705 486.44 303.967 486.856 303.469C490.137 299.139 493.465 294.838 496.822 290.566C498.996 287.455 503.022 286.992 506.104 285.176C514.705 280.518 522.703 273.211 525.229 263.443C526.441 258.357 526.928 252.422 523.717 247.945C521.244 244.441 517.793 240.955 513.258 240.691C508.682 240.527 504.246 242.186 500.227 244.231ZM455.959 246.498C455.484 249.563 454.963 252.621 454.436 255.68C459.51 256.512 464.619 257.109 469.723 257.736C470.209 254.69 470.695 251.631 470.889 248.555C465.949 247.652 460.963 246.943 455.959 246.498ZM454.119 258.486C453.516 261.756 452.994 265.049 452.484 268.342C457.647 269.262 462.838 270.106 468.065 270.545C468.475 267.141 469.043 263.76 469.342 260.344C464.279 259.641 459.211 258.897 454.119 258.486ZM451.916 271.072C451.465 274.119 450.902 277.149 450.334 280.178C455.672 281.15 461.045 282.129 466.471 282.404C466.928 279.357 467.42 276.311 467.59 273.24C462.369 272.473 457.154 271.658 451.916 271.072ZM449.906 282.99C449.332 285.721 448.91 288.481 448.359 291.223C453.75 292.465 459.176 293.766 464.69 294.305C465.299 291.346 465.645 288.346 466.049 285.357C460.688 284.455 455.291 283.729 449.906 282.99ZM446.473 304.195C449.965 304.078 453.475 304.377 456.955 304.201C459.018 301.893 460.799 299.35 462.627 296.859C457.752 295.899 452.883 294.897 447.996 293.994C447.399 297.381 446.871 300.779 446.473 304.195ZM103.512 307.635C103.441 322.506 103.418 337.383 103.477 352.254C109.412 351.902 115.342 351.322 121.295 351.486C130.506 351.422 139.682 352.365 148.881 352.535C149.01 346.67 148.893 340.787 149.273 334.94C149.314 333.399 150.926 332.602 152.297 332.836C162.867 332.982 173.438 333.082 184.002 332.854C185.256 332.684 186.75 333.164 187.107 334.523C187.336 335.912 187.043 337.318 186.902 338.707C186.293 343.096 186.856 347.52 187.119 351.908C218.109 352.149 249.106 351.44 280.096 350.941C295.125 350.941 310.154 350.572 325.189 350.496C355.717 350.379 386.244 349.6 416.772 349.436C416.9 345.293 416.607 341.127 416.982 336.996C417.076 335.326 418.09 333.586 419.818 333.217C425.162 332.309 430.57 333.475 435.938 333.193C441.381 332.303 446.906 331.16 452.449 331.775C454.102 331.981 455.291 333.522 455.338 335.15C455.643 339.82 455.484 344.508 455.537 349.19C470.666 349.354 485.801 349.395 500.936 349.488C500.918 336.299 500.889 323.115 500.789 309.932C500.83 308.912 500.637 307.594 499.301 307.84C488.936 307.617 478.565 307.506 468.193 307.459C437.52 307.166 406.857 306.803 376.184 306.656C345.914 306.357 315.645 306.357 285.369 306.018C253.711 305.766 222.053 305.754 190.389 305.514C162.27 305.449 134.145 304.934 106.031 305.391C104.648 305.191 103.301 306.135 103.512 307.635ZM151.922 335.818C151.576 337.137 151.705 338.508 151.676 339.856C151.629 348.24 151.74 356.625 151.324 364.998C151.084 372.152 150.574 379.318 150.897 386.479C152.59 386.514 154.289 386.502 155.988 386.438C158.115 382.166 161.959 378.1 167.01 377.889C171.527 378.158 175.565 381.615 176.684 385.986C179.297 386.057 181.916 385.998 184.535 385.981C184.863 374.695 185.104 363.369 184.066 352.113C183.768 346.717 183.106 341.274 184.031 335.895C174.645 335.883 165.252 336.094 155.871 335.637C154.553 335.637 153.205 335.473 151.922 335.818ZM440.109 336.117C433.934 337.717 427.576 335.707 421.348 336.604C420.229 336.563 420.287 337.846 420.252 338.637C420.246 346.652 420.375 354.68 420.064 362.695C419.982 368.936 419.607 375.182 420.012 381.416C422.139 381.609 424.318 381.645 426.422 381.188C427.482 379.793 427.406 377.813 428.449 376.371C431.022 372.457 436.969 370.629 441 373.389C443.449 374.971 444.762 377.731 445.582 380.438C447.908 380.731 450.258 380.584 452.59 380.42C452.602 376.652 452.426 372.891 452.391 369.123C451.945 357.826 452.402 346.506 451.881 335.215C447.943 334.875 443.93 335.068 440.109 336.117ZM455.52 352.148C455.572 361.137 455.502 370.137 455.941 379.119C456.018 380.754 455.941 383.051 454.037 383.631C451.559 384.123 449.004 383.918 446.496 383.959C445.231 383.854 443.502 384.117 442.799 382.781C441.609 380.666 441.012 378.111 438.99 376.57C437.033 374.953 434.133 375.856 432.357 377.32C430.055 379.008 431.08 383.033 428.35 384.258C425.133 384.598 421.793 384.856 418.611 384.188C416.607 383.684 416.449 381.34 416.455 379.647C416.344 370.565 416.713 361.488 416.772 352.406C403.055 352.178 389.332 352.6 375.609 352.647C359.408 352.951 343.207 352.951 327.006 353.15C296.707 353.432 266.408 354 236.115 354.563C219.867 354.715 203.619 354.615 187.371 354.609C188.033 365.332 187.611 376.078 187.107 386.801C187.242 388.172 185.684 388.518 184.617 388.406C181.342 388.295 178.025 388.682 174.779 388.26C173.508 387.024 173.297 385.078 172.154 383.731C170.033 380.848 165.533 380.25 162.732 382.482C160.471 384.041 159.434 386.678 157.881 388.834C154.916 388.981 151.811 389.227 148.904 388.488C148.154 386.209 148.33 383.789 148.313 381.434C148.342 372.633 148.834 363.844 148.91 355.049C142.635 354.926 136.377 354.387 130.107 354.164C121.207 354.006 112.254 353.32 103.4 354.615C103.412 389.525 103.336 424.436 103.371 459.346C103.359 462.598 103.418 465.867 102.984 469.102C116.514 469.33 130.037 469.957 143.566 469.951C159.967 469.916 176.373 470.449 192.768 469.811C200.584 469.6 208.447 469.418 216.205 470.602C222.41 471.574 228.709 471.299 234.967 471.193C242.572 471.059 250.178 470.783 257.783 470.402C266.004 469.875 274.225 470.707 282.445 470.871C295.049 471.574 307.588 469.611 320.186 469.746C320.361 468.1 319.805 465.943 321.27 464.772C323.309 464.145 325.459 464.467 327.557 464.484C329.367 464.531 331.014 463.535 332.824 463.576C334.494 463.641 336.147 463.887 337.805 464.074C336.182 460.301 336.791 455.238 340.441 452.877C344.338 450.082 350.449 452.947 351.106 457.617C351.551 459.738 350.496 461.707 349.377 463.418C355.764 463.5 362.145 463.02 368.537 463.02C374.988 463.02 381.44 463.102 387.891 462.984C390.076 463.002 392.438 461.361 394.488 462.691C396.07 464.877 395.08 467.842 395.49 470.367C399.498 470.824 403.547 470.438 407.572 470.619C408.264 460.811 409.523 451.043 409.969 441.211C410.051 435.551 410.098 429.885 410.455 424.231C411.152 411.943 410.596 399.639 410.549 387.34C410.414 385.377 412.301 383.69 414.24 384.035C423.744 385.553 433.406 384.592 442.986 384.885C452.76 384.797 462.522 385.588 472.301 385.5C476.578 385.752 480.85 385.4 485.133 385.465C486.545 385.371 487.94 386.449 487.916 387.938C488.279 395.203 488.25 402.486 488.373 409.764C488.508 429.422 488.848 449.08 488.859 468.738C492.856 468.492 496.857 468.035 500.824 467.455C501.176 464.186 500.959 460.893 501.018 457.611C500.637 422.508 500.871 387.404 500.883 352.295C485.766 352.008 470.637 351.926 455.52 352.148ZM413.197 386.953C412.928 389.408 412.981 391.887 413.004 394.359C412.963 395.168 413.18 395.912 413.66 396.586C415.477 393.791 414.439 390.205 414.68 387.065C414.311 387.035 413.566 386.982 413.197 386.953ZM417.492 387.369C417.674 389.52 417.656 391.682 417.68 393.838C417.932 393.891 418.43 393.99 418.682 394.037C418.963 391.77 418.957 389.484 418.869 387.211C418.523 387.252 417.838 387.334 417.492 387.369ZM438.475 387.381C438.791 393.211 438.434 399.082 438.902 404.9C439.641 406.113 440.391 404.449 440.414 403.811C440.561 398.672 440.654 393.527 440.66 388.389C440.889 387.082 439.201 387.604 438.475 387.381ZM421.986 387.768C421.248 393.85 421.225 399.996 421.465 406.107C421.248 406.869 422.25 408.123 422.953 407.203C423.234 405.07 423.059 402.914 423.117 400.775C423.088 396.387 423.674 392.022 423.539 387.639C423.152 387.668 422.373 387.732 421.986 387.768ZM432.229 387.633C432.404 390.188 432.1 392.789 432.686 395.309C433.195 395.262 434.221 395.162 434.731 395.115C434.9 392.66 434.859 390.199 434.824 387.744C433.951 387.709 433.09 387.674 432.229 387.633ZM444.088 387.586C444.018 390.006 443.947 392.432 444.082 394.852C445.055 394.852 446.033 394.846 447.018 394.828C447.176 392.473 447.182 390.111 447.041 387.756C446.051 387.709 445.066 387.65 444.088 387.586ZM450.979 387.668C450.955 390.053 450.873 392.449 451.219 394.816C451.94 394.834 452.672 394.852 453.41 394.863C453.316 392.59 453.205 390.316 453.17 388.043C452.432 387.908 451.705 387.785 450.979 387.668ZM456.24 387.838C456.264 393.51 456 399.211 456.51 404.865C458.086 405.633 458.127 403.617 458.156 402.58C458.18 397.652 458.227 392.725 458.279 387.797C457.77 387.809 456.75 387.826 456.24 387.838ZM471.533 387.979C471.469 394.195 471.527 400.418 471.639 406.629C471.451 408.088 473.537 407.01 473.297 406.061C473.672 400.078 473.326 394.084 473.35 388.102C472.898 388.072 471.99 388.008 471.533 387.979ZM475.928 388.172C475.594 390.387 475.658 392.643 475.553 394.881C476.109 394.811 476.672 394.74 477.24 394.676C477.375 392.561 477.416 390.445 477.363 388.336C476.877 388.277 476.402 388.219 475.928 388.172ZM426.357 388.043C426.135 390.434 425.789 392.836 426.065 395.244C426.768 395.244 427.477 395.244 428.191 395.244C428.508 392.83 428.408 390.393 428.385 387.973C427.881 387.99 426.861 388.025 426.357 388.043ZM461.52 388.002C461.496 390.158 461.49 392.309 461.484 394.471C461.959 394.441 462.902 394.383 463.377 394.359C463.482 392.279 463.553 390.205 463.412 388.131C462.938 388.102 461.994 388.037 461.52 388.002ZM466.922 388.119C466.992 390.141 466.77 392.18 467.098 394.19C467.531 394.236 468.399 394.33 468.832 394.377C468.838 392.285 468.838 390.199 468.82 388.113C468.346 388.113 467.397 388.119 466.922 388.119ZM480.979 388.166C480.973 390.522 480.955 392.877 481.037 395.232C481.834 395.221 482.637 395.197 483.445 395.162C483.504 392.859 483.557 390.557 483.627 388.26C482.742 388.231 481.857 388.195 480.979 388.166ZM468.621 454.137C468.199 457.629 468.592 461.215 468.75 464.731C468.522 465.791 470.098 466.154 470.244 465.035C470.49 461.807 470.297 458.555 470.098 455.332C470.068 454.594 469.635 453.117 468.621 454.137ZM429.469 456.404C429.65 460.348 429.533 464.326 430.078 468.246C430.389 468.258 431.016 468.287 431.326 468.305C431.613 465.738 431.373 463.154 431.379 460.582C431.291 458.479 431.555 456.299 430.793 454.289C429.873 454.629 429.281 455.397 429.469 456.404ZM447.973 454.951C447.369 458.098 447.85 461.414 447.727 464.625C447.674 465.475 447.779 467.684 449.168 466.793C449.672 462.809 449.607 458.707 449.332 454.699C449.045 454.67 448.465 454.611 448.178 454.588L447.973 454.951ZM410.719 456.92C410.649 460.166 410.52 463.488 411.141 466.688C411.311 467.678 412.705 467.607 412.512 466.5C412.635 462.984 412.635 459.44 412.201 455.947C411.592 456.094 410.736 456.053 410.719 456.92ZM368.08 465.598C367.928 467.209 367.916 468.832 368.033 470.449C369.106 470.467 370.178 470.467 371.256 470.443C371.315 468.838 371.361 467.238 371.344 465.645C370.254 465.621 369.164 465.604 368.08 465.598ZM390.047 465.621C389.695 467.191 389.772 468.82 389.742 470.42C390.65 470.432 391.565 470.438 392.484 470.443C392.52 468.609 392.543 466.77 392.285 464.953C391.523 465.135 390.779 465.357 390.047 465.621ZM331.154 466.324C331.178 467.537 331.207 468.756 331.231 469.981C332.063 469.94 332.895 469.899 333.732 469.852C333.762 468.598 333.809 467.35 333.826 466.107C332.93 466.166 332.045 466.236 331.154 466.324ZM341.52 466.219C341.385 467.514 341.315 468.815 341.361 470.127C342.539 470.191 343.723 470.227 344.912 470.262C344.842 468.815 344.695 467.379 344.449 465.967C343.465 466.025 342.492 466.107 341.52 466.219ZM346.805 465.891C346.641 467.402 346.576 468.926 346.647 470.449C347.818 470.449 349.002 470.461 350.18 470.455C350.127 469.025 350.174 467.596 350.32 466.184C349.148 466.055 347.977 465.961 346.805 465.891ZM352.225 465.961C352.113 467.49 352.102 469.025 352.195 470.566C353.432 470.607 354.674 470.637 355.922 470.666C356.033 469.084 356.063 467.496 356.033 465.92C354.762 465.908 353.49 465.932 352.225 465.961ZM358.137 465.732C358.055 467.373 358.066 469.025 358.148 470.672C359.127 470.666 360.106 470.654 361.09 470.637C361.154 469.008 361.131 467.385 361.043 465.762C360.07 465.75 359.104 465.738 358.137 465.732ZM363.211 465.557C363.211 467.238 363.229 468.926 363.346 470.619C364.254 470.578 365.168 470.537 366.088 470.49C366.111 468.967 366.223 467.438 366.012 465.932C365.15 465.522 364.131 465.686 363.211 465.557ZM373.313 470.49C374.678 470.525 376.049 470.502 377.42 470.426C377.496 468.838 377.484 467.244 377.408 465.662C376.16 465.645 374.912 465.674 373.67 465.738C373.354 467.297 373.272 468.897 373.313 470.49ZM379.523 465.709C379.494 467.297 379.523 468.891 379.635 470.484C380.397 470.467 381.164 470.449 381.932 470.432C382.002 468.867 382.02 467.315 381.967 465.762C381.147 465.738 380.332 465.721 379.523 465.709ZM384.293 465.697C384.281 467.262 384.299 468.826 384.375 470.397C385.377 470.432 386.385 470.461 387.398 470.496C387.51 468.873 387.621 467.256 387.727 465.639C386.572 465.633 385.436 465.662 384.293 465.697ZM322.635 467.854C322.641 468.545 322.178 470.004 323.385 469.828C325.283 470.156 324.709 467.842 324.779 466.699C324.023 466.875 322.606 466.705 322.635 467.854ZM327.141 466.717C327.094 467.76 327.094 468.809 327.111 469.863C327.686 469.828 328.266 469.799 328.846 469.77C328.799 468.727 328.752 467.69 328.664 466.652C328.283 466.67 327.522 466.705 327.141 466.717ZM335.918 466.266C335.947 467.52 336.012 468.779 336.106 470.039C337.219 470.045 338.332 470.057 339.457 470.057C339.44 468.779 339.41 467.508 339.369 466.242C338.215 466.254 337.061 466.26 335.918 466.266Z" fill="#EFEFEF"/>
<path d="M475.559 141.703C483.527 140.479 491.947 141.522 499.131 145.289C507.041 149.186 513.557 156.094 516.34 164.525C519.416 173.496 518.654 183.533 515.01 192.223C511.307 200.754 504.568 207.703 496.728 212.561C488.033 217.975 477.451 220.477 467.273 218.953C457.512 217.289 448.916 210.791 444.012 202.277C436.271 189.164 436.816 171.592 445.717 159.176C449.537 153.691 455.244 149.918 461.062 146.83C465.627 144.486 470.473 142.535 475.559 141.703Z" fill="#EFEFEF"/>
<path d="M106.635 206.203C109.564 204.762 110.027 200.678 112.951 199.254C114.498 199.529 114.803 201.504 115.395 202.723C116.309 205.453 117.457 208.113 118.213 210.896C118.869 212.279 117.252 213.176 116.086 213.152C113.801 213.088 111.51 212.918 109.23 213.223C109.371 215.057 110.174 216.732 110.531 218.52C110.906 220.225 108.398 221.643 107.18 220.318C106.025 218.959 105.375 217.254 104.391 215.777C102.463 217.119 100.887 218.871 99.1875 220.482C98.5371 221.145 97.1426 221.227 96.7266 220.254C95.7598 218.355 95.3145 216.234 94.4707 214.277C93.8848 212.578 92.8945 210.949 92.8418 209.115C94.9629 206.607 98.6309 208.102 101.449 207.51C101.197 206.115 100.582 204.744 100.693 203.314C101.297 202.166 102.82 201.328 104.08 201.85C105.398 202.975 105.123 205.348 106.635 206.203Z" fill="#EFEFEF"/>
<path d="M394.09 215.332C396.346 214.067 398.684 210.879 401.508 212.52C405.539 215.15 407.795 219.75 409.371 224.156C410.83 227.748 408.223 231.416 409.441 235.055C410.648 239.104 412.529 243.457 416.25 245.795C419.385 247.811 423.357 246.486 426.615 248.121C432.943 250.834 437.174 257.127 438.545 263.736C439.559 269.15 438.832 274.934 436.254 279.832C432.932 286.441 426.334 291.205 419.121 292.611C414.363 294.873 408.879 295.213 403.74 294.352C396.252 292.969 389.824 287.772 386.092 281.244C383.742 277.166 381.908 272.572 382.131 267.785C382.219 264.053 383.678 260.285 382.588 256.582C381.785 253.817 379.728 251.045 376.723 250.57C375.34 250.207 373.43 250.541 372.686 249.012C370.225 245.051 367.717 241.119 365.086 237.264C364.611 236.414 363.855 235.541 363.99 234.51C367.172 232.113 370.336 229.641 373.857 227.736C372.644 225.352 371.145 223.131 369.668 220.904L369.686 220.852C369.961 220.031 370.248 219.217 370.535 218.402C370.904 218.233 371.279 218.063 371.66 217.893C373.418 220.541 375.076 223.248 376.898 225.85C381.498 223.014 386.156 220.266 390.721 217.377C390.311 216.727 389.894 216.082 389.473 215.443C390.75 215.309 392.039 215.221 393.322 215.291C393.516 215.303 393.896 215.326 394.09 215.332ZM409.869 262.342C408.363 262.992 406.928 264.053 406.301 265.617C404.162 269.983 407.01 276.229 411.978 276.885C415.863 276.932 419.279 273.375 419.338 269.537C419.537 264.85 414.223 261.012 409.869 262.342Z" fill="#EFEFEF"/>
<path d="M157.096 338.783C157.594 338.754 158.59 338.689 159.088 338.654C159.293 340.131 159.275 341.619 159.229 343.113C165.123 343.705 171.07 342.387 176.936 343.289C178.658 344.713 178.518 347.221 178.734 349.242C178.787 354.223 179.086 359.297 177.996 364.195C177.627 365.842 175.67 365.262 174.533 364.945C169.611 363.516 164.455 364.236 159.422 364.049C157.928 364.148 156.867 362.871 156.738 361.488C155.707 353.93 157.113 346.348 157.096 338.783Z" fill="#EFEFEF"/>
<path d="M175.998 338.829C176.508 338.279 178.019 338.232 178.014 339.257C178.271 340.552 178.031 341.876 177.68 343.13C177.187 343.071 176.203 342.954 175.711 342.89C175.717 341.536 175.506 340.118 175.998 338.829Z" fill="#EFEFEF"/>
<path d="M424.482 338.953C425.133 338.894 425.783 338.859 426.451 338.865C427.072 340.301 426.697 341.941 426.715 343.465C432.762 344.174 438.838 343.746 444.902 343.558C445.125 341.806 443.859 337.611 447.041 338.525C447.393 342.088 447.088 345.668 447.223 349.236C447.223 353.326 447.475 357.433 447.24 361.517C447.164 363.052 445.254 362.83 444.182 362.748C439.67 362.203 435.105 362.291 430.594 362.842C428.748 362.965 426.75 363.416 425.021 362.543C424.266 360.955 424.518 359.127 424.43 357.422C424.477 351.269 424.4 345.111 424.482 338.953Z" fill="#EFEFEF"/>
<path d="M274.535 400.524C277.91 397.395 283.365 397.026 287.209 399.504C289.975 401.127 291.826 403.934 292.635 406.998C296.273 407.151 299.918 406.805 303.551 406.975C305.572 407.479 305.18 410.719 303.152 410.901C299.725 411.199 296.273 411.305 292.869 411.832C291.908 414.522 290.777 417.317 288.428 419.104C284.08 422.742 276.932 421.764 273.516 417.305C269.514 412.535 269.988 404.76 274.535 400.524Z" fill="#EFEFEF"/>
<path d="M287.93 453.175C291.621 451.611 295.676 455.625 294.521 459.357C293.725 462.978 288.58 464.232 286.125 461.531C283.5 459.158 284.643 454.312 287.93 453.175Z" fill="#EFEFEF"/>
<path d="M87.9726 167.508C89.2323 167.033 89.6835 168.516 90.1874 169.324C92.9765 175.142 95.5897 181.078 97.5292 187.236C97.9979 188.092 97.037 188.988 96.1698 188.766C95.0976 186.873 94.5936 184.734 93.8143 182.719C92.2323 178.57 90.4042 174.51 88.4296 170.531C88.0077 169.582 87.3397 168.533 87.9726 167.508Z" fill="#EFEFEF"/>
<path d="M116.818 174.334C117.469 173.361 119.233 174.75 118.342 175.711C117.035 178.119 115.869 180.627 114.363 182.918C113.959 183.926 112.078 183.457 112.629 182.332C113.83 179.584 115.113 176.806 116.818 174.334Z" fill="#EFEFEF"/>
<path d="M137.836 191.684C138.914 191.461 139.676 193.096 138.545 193.612C137.203 194.332 135.75 195.188 134.168 195C133.037 192.92 136.418 192.258 137.836 191.684Z" fill="#EFEFEF"/>
<path d="M65.8066 201.106C66.5039 200.467 67.4414 201.123 68.1914 201.299C71.6719 202.67 75.2988 203.772 78.5977 205.547C79.5762 205.846 79.5938 207.633 78.4277 207.662C75.6621 206.877 73.1367 205.418 70.3945 204.551C68.7188 203.848 66.7266 203.561 65.4492 202.184C65.5371 201.914 65.7188 201.375 65.8066 201.106Z" fill="#EFEFEF"/>
<path d="M63.5801 228.779C67.4708 226.869 71.5196 225.281 75.6094 223.851C76.752 223.107 77.7657 223.904 78.0352 225.087C74.4434 227.191 70.3711 228.263 66.586 229.968C65.3965 230.29 64.1192 231.369 62.877 230.701C62.2911 229.915 62.6661 229.031 63.5801 228.779Z" fill="#EFEFEF"/>
<path d="M86.8537 236.947C87.3224 235.962 88.7169 236.994 88.6173 237.826C87.9435 240.035 86.8537 242.091 86.0861 244.265C85.465 245.666 85.1193 247.324 83.8419 248.302C81.7794 248.15 82.922 246.134 83.3263 244.98C84.5158 242.314 85.2306 239.39 86.8537 236.947Z" fill="#EFEFEF"/>
<path d="M506.543 246.457C510.551 245.15 515.455 246.123 518.092 249.574C520.02 252.046 520.131 255.392 519.627 258.369C518.361 264.755 515.021 270.849 509.842 274.886C506.883 277.107 503.016 278.49 499.324 277.593C495.768 276.826 492.949 273.919 491.766 270.556C490.875 267.873 491.18 264.955 491.895 262.271C493.934 255.128 499.447 248.859 506.543 246.457ZM507.146 250.025C500.889 252.656 495.779 258.58 494.789 265.377C494.074 269.021 496.271 273.046 499.869 274.136C503.461 274.974 506.912 272.882 509.373 270.445C513.152 266.589 515.789 261.474 516.246 256.054C516.434 254.062 515.801 251.806 514.078 250.64C512.068 249.24 509.391 249.275 507.146 250.025Z" fill="#EFEFEF"/>
<path d="M546.334 265.166C547.213 264.082 549.187 265.254 548.625 266.555C546.715 273.105 542.414 278.637 537.926 283.641C536.045 285.551 534.275 287.666 531.926 289.014C531.182 289.453 530.449 289.43 529.717 288.943C528.967 287.08 531.117 286.031 532.184 284.906C537.668 279.703 542.373 273.539 545.478 266.619C545.701 266.098 545.988 265.611 546.334 265.166Z" fill="#EFEFEF"/>
<path d="M513.779 304.143C522.193 304.717 530.613 305.654 539.063 305.59C540.504 305.754 542.561 304.629 543.539 306.105C543.768 307.904 541.471 307.828 540.252 307.975C531.809 308.297 523.348 307.453 514.963 306.568C513.416 306.674 513.229 305.221 513.779 304.143Z" fill="#EFEFEF"/>
<path d="M263.643 373.071C294.123 372.585 324.603 372.755 355.078 372.181C360.545 372.087 366.029 371.606 371.496 371.993C373.98 372.14 375.598 374.519 375.932 376.804C376.225 379.511 376.02 382.241 376.031 384.966C375.809 385.938 376.365 386.671 376.945 387.397C377.256 388.276 376.383 388.71 375.82 389.132C375.756 389.56 375.627 390.409 375.568 390.837C375.891 390.966 376.535 391.229 376.857 391.364C376.887 391.827 376.945 392.759 376.975 393.228C376.582 393.38 375.803 393.673 375.41 393.825C375.416 394.593 375.428 395.366 375.457 396.145C376.412 396.544 377.912 396.509 378.064 397.833C377.689 399.069 376.213 399.058 375.234 399.55C375.252 400.013 375.299 400.944 375.316 401.407C376.301 402.128 377.818 402.573 377.572 404.12C376.846 404.366 376.137 404.636 375.434 404.935C374.783 405.901 376.055 406.663 376.564 407.319C376.189 408.046 375.768 408.755 375.439 409.511C375.264 417.169 375.187 424.833 375.059 432.491C377.25 432.438 379.436 432.198 381.627 432.286C382.002 434.958 381.967 437.694 381.768 440.378C381.305 442.335 378.932 441.878 377.455 441.802C367.459 441.497 357.457 441.386 347.461 441.386C337.67 441.392 327.902 441.989 318.123 442.311C317.936 446.448 318.076 450.591 317.889 454.728C318.205 456.122 319.43 457.253 319.312 458.77C319.336 461.847 315.727 464.595 312.902 462.813C309.914 461.214 310.213 456.931 312.416 454.78C312.369 450.69 312.357 446.601 312.205 442.517C297.193 442.429 282.182 441.767 267.176 442.481C263.42 442.311 259.248 443.296 255.797 441.45C255.064 439.593 255.504 437.53 255.521 435.597C252.422 435.573 249.135 436.036 246.193 434.835C244.33 434.079 243.838 431.905 243.92 430.101C244.172 412.323 244.189 394.54 244.295 376.757C244.359 375.38 244.441 373.388 246.1 372.989C251.936 373.417 257.795 373.06 263.643 373.071ZM361.559 375.181C362.385 375.122 363.111 374.729 363.738 374.214C362.895 374.255 362.145 374.583 361.559 375.181ZM365.051 374.472C365.437 375.122 365.654 375.919 366.316 376.376C367.383 376.071 367.049 374.659 367.324 373.851C366.557 374.032 365.801 374.231 365.051 374.472ZM339.258 374.753C308.367 374.706 277.5 375.972 246.609 375.936C246.48 378.21 246.434 380.489 246.469 382.774C249.387 382.001 252.451 382.288 255.439 382.142C272.648 381.708 289.869 381.72 307.078 381.198C322.295 380.694 337.512 381.843 352.728 381.562C354.633 381.503 356.572 381.45 358.394 380.829C358.482 380.601 358.652 380.149 358.734 379.927C357.65 379.394 355.875 378.866 356.186 377.296C356.273 375.532 358.646 376.634 359.801 376.247C359.742 375.825 359.631 374.97 359.578 374.548C352.805 374.589 346.031 374.794 339.258 374.753ZM369.609 374.425C369.838 376.03 369.469 377.595 369.07 379.142C369.92 380.806 371.994 381.374 373.512 382.306C373.893 379.229 373.371 374.993 369.609 374.425ZM361.535 377.618C360.615 383.618 361.758 389.636 362.326 395.606C362.959 400.751 363.58 406.429 367.283 410.39C367.506 411.269 368.361 410.431 368.086 409.974C367.805 408.239 367.131 406.604 366.85 404.876C365.361 397.118 366.621 389.179 365.695 381.38C365.191 379.522 363.516 377.776 361.535 377.618ZM303.814 383.724C286.564 384.843 269.268 384.661 251.988 384.86C250.037 384.796 248.273 385.71 246.416 386.138C246.475 400.188 246.252 414.245 246.551 428.296C246.644 429.649 246.457 431.196 247.348 432.351C248.203 433.282 249.586 433.3 250.764 433.329C262.881 433.364 274.98 432.45 287.098 432.913C301.758 433.61 316.418 432.515 331.078 432.632C344.953 432.755 358.811 431.735 372.68 431.952C372.844 425.349 372.967 418.739 373.019 412.136C371.596 412.716 370.113 413.231 368.555 413.05C368.227 414.28 367.43 415.019 366.1 414.966C365.859 413.911 365.666 412.845 365.496 411.79C363.937 411.362 362.15 413.63 361.043 411.872C361.166 410.448 362.953 409.124 362.215 407.735C361.23 407.999 360.27 408.702 359.215 408.386C357.58 406.681 360.316 405.474 361.178 404.202C360.117 403.815 358.746 403.974 357.949 403.06C357.855 401.577 359.391 400.569 359.303 399.052C358.113 399.052 356.924 399.081 355.74 399.046C355.74 398.642 355.74 397.839 355.74 397.44C356.9 396.644 358.963 396.286 358.576 394.464C357.586 394.44 356.607 394.423 355.623 394.405C355.348 393.808 355.195 393.187 355.16 392.548C356.133 391.505 358.102 391.382 358.184 389.647C356.924 389.466 355.453 389.507 354.51 388.522C354.076 387.456 355.219 386.829 355.816 386.185C356.273 386.237 357.187 386.343 357.639 386.395C357.75 384.62 356.068 383.776 354.521 383.847C337.617 384.409 320.713 382.71 303.814 383.724ZM372.891 384.099C372.17 384.585 372.48 385.88 373.353 385.974C374.602 385.903 374.068 383.39 372.891 384.099ZM368.689 383.864C368.01 392.519 368.373 401.354 370.547 409.792C370.939 409.013 371.262 408.181 371.268 407.302C371.496 403.353 371.309 399.392 371.016 395.454C370.869 391.511 370.342 387.479 368.689 383.864ZM373.283 389.161C375.228 389.308 372.316 390.872 373.283 389.161ZM368.215 435.022C367.975 436.153 367.887 437.313 367.893 438.479C368.209 439.206 369.064 438.884 369.674 439.013C372.785 439.071 375.896 439.188 379.014 439.3C379.002 437.899 378.984 436.499 378.949 435.104C375.369 435.069 371.789 434.794 368.215 435.022ZM258.65 436.329C258.246 437.401 258.07 438.532 257.994 439.675C262.037 439.927 266.092 439.669 270.135 439.616C282.627 439.306 295.113 439.722 307.605 439.763C326.883 439.569 346.148 438.087 365.432 438.749C365.566 437.53 365.701 436.317 365.83 435.11C347.801 435.257 329.76 434.888 311.73 435.257C295.113 436.106 278.455 434.425 261.85 435.796C260.771 435.919 259.711 436.147 258.65 436.329ZM314.49 442.253C314.49 446.278 314.49 450.333 314.853 454.341C315.047 454.435 315.428 454.616 315.621 454.704C315.855 450.679 315.838 446.63 315.715 442.604C315.41 442.517 314.795 442.341 314.49 442.253Z" fill="#EFEFEF"/>
<path d="M124.846 421.887C125.426 416.596 125.438 411.199 126.457 405.996C126.844 405.99 127.617 405.99 128.004 405.984C128.291 408.158 127.893 410.332 127.764 412.506C127.383 416.285 127.43 420.135 126.545 423.85C125.443 423.732 124.471 423.146 124.846 421.887Z" fill="#EFEFEF"/>
<path d="M136.149 414.808C136.816 414.75 137.461 414.832 138.094 415.049C138.041 416.789 137.215 418.388 137.045 420.117C136.166 426.416 136.096 432.791 135.363 439.107C134.906 439.16 133.992 439.271 133.535 439.33C133.477 435.463 133.928 431.619 134.168 427.769C134.508 423.416 134.701 418.974 136.149 414.808Z" fill="#EFEFEF"/>
<path d="M148.4 419.824C148.875 419.115 150.264 419.854 150.029 420.674C150.023 425.988 150.094 431.314 149.859 436.629C149.871 437.584 149.08 437.883 148.26 437.602C147.727 436.98 147.855 436.125 147.826 435.387C147.891 431.074 147.891 426.768 147.967 422.461C148.037 421.57 147.949 420.621 148.4 419.824Z" fill="#EFEFEF"/>
<path d="M158.326 441.604C158.221 437.121 158.32 432.633 158.678 428.168C159.152 428.162 160.102 428.145 160.576 428.139C160.494 432.686 160.775 437.303 159.979 441.797C159.563 441.744 158.736 441.65 158.326 441.604Z" fill="#EFEFEF"/>
</svg>
