<svg width="600" height="600" viewBox="0 0 600 600" fill="none" xmlns="http://www.w3.org/2000/svg">
<path d="M600 419.221V422.719C596.141 423.355 592.447 423.058 588.92 421.828C588.826 421.795 588.724 421.798 588.632 421.836C588.54 421.873 588.465 421.944 588.422 422.033L586.055 426.932C586.027 426.989 586.015 427.053 586.02 427.117C586.024 427.18 586.045 427.242 586.081 427.295C586.116 427.348 586.165 427.391 586.222 427.42C586.279 427.449 586.342 427.462 586.406 427.459C587.652 427.396 588.869 427.451 590.057 427.623C591.721 427.863 591.738 430.213 590.479 430.84C590.041 431.055 589.457 431.158 588.727 431.15C571.184 430.939 553.412 430.816 535.412 430.781C525.229 430.758 514.863 430.453 504.691 430.389C503.574 430.381 502.885 429.836 502.623 428.754C502.576 428.555 502.594 428.355 502.676 428.156C503.02 427.348 503.633 426.945 504.516 426.949L575.402 427.471C576.039 427.478 576.086 427.314 575.543 426.978L569.279 423.105C569.138 423.017 568.973 422.971 568.805 422.971L554.473 422.994C554.105 422.994 553.743 423.066 553.406 423.205C549.797 424.676 545.701 426.158 541.857 426.545C533.063 427.424 525.586 426.68 517.852 421.681C517.695 421.58 517.527 421.558 517.348 421.617C516.551 421.881 515.877 422.133 515.016 422.156C503.563 422.476 492.193 422.68 480.908 422.766C441.35 423.062 401.408 423.392 361.084 423.756C344.678 423.902 328.236 424.383 312.141 424.723C311.359 424.738 310.768 424.324 310.365 423.48C310.256 423.25 310.246 423.008 310.336 422.754C310.715 421.68 311.475 421.131 312.615 421.107C326.248 420.822 339.816 420.537 353.32 420.252C355.184 420.213 356.709 420.238 357.896 420.328C359.037 420.414 359.344 419.949 358.816 418.933C358.246 417.844 357.912 417.201 357.814 417.006C357.283 415.994 356.447 415.447 355.307 415.365C352.146 415.139 349.873 415.041 348.486 415.072C321.076 415.697 301.201 415.957 288.861 415.851C267.104 415.672 244.959 415.398 222.428 415.031C222.2 415.028 221.976 415.088 221.781 415.204C221.585 415.321 221.426 415.491 221.32 415.693C220.441 417.369 219.166 418.717 217.494 419.736C216.592 420.283 216.668 420.549 217.723 420.533C222.176 420.457 226.512 420.58 231.129 420.586C241.289 420.601 251.451 420.541 261.615 420.404C264.951 420.357 268.311 420.326 271.693 420.31C272.424 420.307 272.969 420.621 273.328 421.254C273.516 421.582 273.574 421.92 273.504 422.267C273.297 423.31 272.662 423.851 271.6 423.89C268.838 423.996 266.145 424.047 263.52 424.043C247.078 424.027 230.637 424.021 214.195 424.025C213.223 424.025 212.039 423.709 211.201 424.201C206.719 426.808 202.037 430.453 198.229 432.932C179.064 445.408 160.057 456.441 141.205 466.031C136.893 468.226 132.059 470.18 126.703 471.89C120.609 473.842 114.217 474.808 107.842 476.437C106.178 476.865 104.607 475.389 105.615 473.724C107.889 469.963 110.445 465.988 113.285 461.801C115.961 457.859 118.369 454.828 120.51 452.707C123.197 450.043 126.262 447.642 129.703 445.506C142.154 437.777 154.055 431.25 166.535 424.254C166.922 424.039 166.893 423.93 166.447 423.926C134.271 423.84 101.982 423.629 69.5801 423.293C58.5332 423.18 35.3398 423.209 0 423.381V419.988L66.2813 419.918C66.7227 419.918 66.9395 419.697 66.9316 419.256C66.7402 408.74 66.6465 397.295 66.6504 384.92C66.6504 380.303 69.8613 379.787 73.7812 379.846C78.5352 379.92 83.3066 379.935 88.0957 379.892C88.1189 379.892 88.1415 379.885 88.1615 379.874C88.1816 379.862 88.1984 379.846 88.2106 379.826C88.2228 379.806 88.2299 379.784 88.2313 379.761C88.2327 379.737 88.2284 379.714 88.2187 379.693C81.1172 365.252 74.2402 351.484 67.5879 338.391C66.752 336.746 66.0781 335.096 65.5664 333.439C63.416 326.502 66.6914 318.715 74.3613 317.555C79.0781 316.846 83.4434 318.943 86.0098 323.039C86.1543 323.265 86.3574 323.346 86.6191 323.279C89.9121 322.453 91.6465 322.183 93.3164 325.529C97.9531 334.818 102.709 344.209 107.584 353.701C107.971 354.455 108.164 355.242 108.164 356.062C108.164 357.674 105.586 359.291 104.338 359.724C104.076 359.814 104.008 359.982 104.133 360.228L113.947 379.599C113.994 379.696 114.068 379.777 114.159 379.834C114.25 379.891 114.355 379.922 114.463 379.922C121.506 379.937 128.84 379.922 136.465 379.875C140.18 379.851 142.764 381.416 142.852 385.482C142.906 388.146 142.924 390.84 142.904 393.562C142.9 393.808 143.021 393.932 143.268 393.932C150.389 393.908 157.5 393.889 164.602 393.873C168.902 393.861 173.051 393.316 173.777 397.887C173.832 398.226 173.861 399.764 173.865 402.498C173.881 408.389 173.875 414.099 173.848 419.631C173.848 419.669 173.859 419.706 173.879 419.738C173.898 419.771 173.926 419.798 173.959 419.816C173.993 419.834 174.03 419.844 174.068 419.843C174.106 419.843 174.143 419.832 174.176 419.812C182.523 414.668 190.943 409.449 199.436 404.156C203.51 401.613 207.438 399.728 211.219 398.502C214.023 397.592 216.611 397.707 218.982 398.848C223.307 400.928 223.33 406.857 222.691 411.041C222.66 411.252 222.752 411.361 222.967 411.369L238.635 411.832C238.761 411.837 238.886 411.799 238.988 411.723C239.09 411.648 239.164 411.539 239.197 411.416L248.666 376.002C248.673 375.975 248.674 375.947 248.669 375.919C248.663 375.892 248.651 375.866 248.634 375.844C248.618 375.822 248.596 375.804 248.571 375.792C248.546 375.78 248.518 375.773 248.49 375.773C220.541 376.066 192.094 376.224 163.477 376.752C149.668 377.01 136.15 376.83 122.924 376.213C121.428 376.146 120.322 375.428 119.607 374.057C119.178 373.232 119.045 372.025 119.209 370.435C119.342 369.127 119.398 367.719 119.379 366.211C119.195 350.902 119.119 339.182 119.15 331.049C119.262 302.15 119.648 273.111 118.939 243.732C118.607 229.834 118.6 215.84 118.916 201.75C118.92 201.636 118.888 201.523 118.825 201.429C118.762 201.334 118.671 201.262 118.564 201.223L88.043 189.65C86.8867 189.213 86.5019 188.408 86.8887 187.236C86.9316 187.103 86.998 186.98 87.0879 186.867C87.6934 186.09 88.457 185.877 89.3789 186.228L118.699 197.414C118.961 197.512 119.096 197.422 119.104 197.144C119.197 194.086 119.408 191.537 122.719 190.389C124.094 189.912 125.518 189.678 126.99 189.685C130.189 189.705 133.457 189.769 136.793 189.879C136.848 189.88 136.902 189.871 136.952 189.85C137.003 189.83 137.049 189.799 137.087 189.76C137.125 189.721 137.154 189.674 137.173 189.623C137.192 189.572 137.201 189.517 137.197 189.463C136.564 179.221 136.07 168.812 135.715 158.238C135.707 157.97 135.774 157.704 135.908 157.471C136.408 156.592 136.947 156.209 137.525 156.322C138.65 156.537 139.24 157.219 139.295 158.367L140.766 189.691C140.773 189.883 140.873 189.978 141.064 189.978L149.742 190.072C150.004 190.076 150.174 189.953 150.252 189.703L156.398 169.74C156.48 169.475 156.633 169.238 156.841 169.055C157.049 168.872 157.303 168.75 157.576 168.703C158.1 168.609 158.545 168.67 158.912 168.885C159.787 169.396 160.074 170.137 159.773 171.105L153.979 189.996C153.97 190.022 153.969 190.05 153.973 190.078C153.978 190.105 153.99 190.131 154.007 190.153C154.024 190.175 154.046 190.193 154.072 190.206C154.098 190.218 154.126 190.225 154.154 190.224C166.682 190.254 179.402 190.371 192.035 190.828C206.098 191.338 220.207 190.646 234.281 190.652C263.566 190.676 293.203 190.984 323.191 191.578C337.834 191.865 352.453 191.426 367.33 191.185C379.84 190.98 396.111 191.379 411.627 191.379C426.795 191.383 439.146 191.203 448.682 190.84C452.451 190.695 454.373 192.338 454.447 195.767C455.022 221.459 455.396 244.545 455.572 265.025C455.572 265.074 455.584 265.122 455.607 265.165C455.63 265.208 455.664 265.244 455.704 265.271C455.745 265.298 455.792 265.314 455.84 265.318C455.889 265.322 455.938 265.314 455.982 265.295C457.225 264.752 458.129 265.094 458.695 266.32C462.617 274.824 466.33 282.771 469.834 290.162C470.553 291.674 471.326 293.17 472.154 294.65C472.252 294.83 472.406 294.92 472.617 294.92L479.127 294.838C479.568 294.83 479.758 294.607 479.695 294.17L479.127 290.162C479.113 290.065 479.081 289.972 479.031 289.888C478.981 289.804 478.916 289.731 478.838 289.672C478.76 289.614 478.671 289.572 478.577 289.548C478.483 289.525 478.385 289.52 478.289 289.535C476.537 289.805 474.463 289.711 474.258 287.396C473.578 279.76 472.84 272.178 472.043 264.65C471.879 263.096 472.576 262.265 474.135 262.16L483.721 261.498C484.257 261.461 484.786 261.632 485.198 261.975C485.611 262.317 485.875 262.806 485.936 263.338C487.084 273.338 488.332 283.349 489.68 293.373C489.762 293.963 489.814 294.277 489.838 294.316C490.545 295.418 491.051 295.328 491.355 294.047C492.27 290.162 492.955 286.547 497.742 286.318C499.051 286.26 500.201 286.373 501.193 286.658C501.611 286.779 501.859 286.625 501.938 286.195C502.516 283.121 503.002 279.996 503.396 276.82C503.506 275.918 503.957 275.254 504.75 274.828C504.941 274.723 505.045 274.56 505.061 274.342C505.193 272.564 505.396 270.824 505.67 269.121C507.088 260.273 519.896 262.172 519.146 270.545C518.99 272.291 518.619 274.144 518.033 276.105C517.974 276.3 517.986 276.509 518.068 276.696C518.149 276.883 518.295 277.035 518.479 277.125C519.123 277.447 519.234 278.039 519.123 278.689C518.271 283.471 517.441 288.594 516.633 294.058C516.598 294.308 516.707 294.435 516.961 294.439C519 294.48 521.936 294.439 521.982 297.287C522.174 309.111 522.26 322.201 522.24 336.557C522.234 338.209 524.818 339.281 526.16 339.656C526.243 339.68 526.329 339.687 526.415 339.677C526.5 339.667 526.583 339.64 526.658 339.597C526.734 339.555 526.8 339.498 526.853 339.429C526.906 339.361 526.946 339.283 526.969 339.199C527.391 337.676 527.811 336.086 528.229 334.43C528.879 331.869 530.49 330.193 533.209 330.422C537.047 330.738 538.254 335.719 539.268 338.771C539.334 338.972 539.444 339.155 539.591 339.307C539.738 339.459 539.917 339.576 540.116 339.648C540.314 339.721 540.527 339.748 540.737 339.727C540.947 339.706 541.15 339.638 541.33 339.527C542.701 338.687 544.066 337.857 545.426 337.037C549.973 334.295 554.033 338.455 552.158 343.107C551.635 344.404 551.006 345.703 550.271 347.004C550.228 347.079 550.203 347.164 550.197 347.25C550.191 347.337 550.204 347.425 550.236 347.506C550.268 347.587 550.318 347.661 550.382 347.721C550.445 347.781 550.522 347.826 550.605 347.853C552.109 348.33 553.662 348.84 555.264 349.383C558.252 350.402 559.541 353.279 558.064 356.062C556.805 358.43 552.709 359.168 550.324 360.047C550.173 360.103 550.036 360.193 549.926 360.311C549.816 360.429 549.735 360.572 549.69 360.727C549.645 360.882 549.637 361.045 549.667 361.204C549.697 361.363 549.763 361.512 549.861 361.64C551.555 363.861 555 367.846 553.131 370.816C551.221 373.851 548.678 373.301 545.959 372.135C544.623 371.56 542.238 370.523 540.85 370.728C540.701 370.75 540.562 370.809 540.445 370.899C540.327 370.99 540.237 371.109 540.182 371.244L539.279 373.424C539.146 373.74 539.252 373.885 539.596 373.857C557.168 372.539 573.686 386.414 568.682 405.064C567.822 408.279 566.229 411.449 563.9 414.574C563.67 414.883 563.727 415.125 564.07 415.301L565.688 416.144C566.07 416.344 566.342 416.242 566.502 415.84C567.252 413.941 569.555 407.783 572.402 408.633C573.664 409.008 575.004 409.631 576.422 410.502C580.031 412.728 583.789 414.955 587.695 417.181C590.309 418.67 592.406 419.406 593.988 419.39C596 419.367 598.004 419.31 600 419.221ZM132.756 323.215C132.783 316.133 132.742 309.252 132.633 302.572C132.621 301.933 132.773 301.33 132.732 300.68C132.58 298.558 132.547 296.437 132.633 294.316C132.891 287.695 132.773 281.01 132.855 274.465C132.887 272.254 132.854 270.275 132.756 268.529C132.686 267.275 132.855 266.033 132.814 264.785C132.615 258.953 132.508 252.822 132.492 246.392C132.492 244.752 132.322 243.428 133.324 242.092C133.532 241.811 133.624 241.46 133.58 241.113C133.537 240.766 133.361 240.449 133.09 240.228C132.598 239.83 132.439 239.42 132.439 238.793C132.396 234.14 132.336 229.369 132.258 224.478C132.246 223.594 132.07 222.803 132.07 221.906C132.066 217.758 132.133 213.955 132.27 210.498C132.363 208.119 133.066 205.623 135.697 205.142C137.062 204.896 138.516 204.592 139.898 204.515C146.551 204.144 153.023 204.238 159.316 204.797C159.945 204.851 160.557 204.998 161.15 205.236C161.318 205.306 161.49 205.312 161.666 205.254C162.154 205.098 162.654 205.111 163.166 205.295C163.373 205.369 163.477 205.515 163.477 205.734C163.477 205.789 163.506 205.834 163.564 205.869C163.803 206.014 163.965 205.955 164.051 205.693C164.27 205.029 164.766 204.703 165.539 204.715C172.84 204.82 180.188 205.183 187.5 205.049C189.824 205.006 192.18 205.041 194.566 205.154C196.904 205.26 199.219 205.025 201.562 205.107C203.316 205.17 205.049 205.176 206.76 205.125C213.67 204.926 220.469 204.931 227.156 205.142C227.988 205.166 228.674 205.342 229.523 205.271C230.949 205.158 232.494 205.152 234.158 205.254C236.381 205.387 238.49 205.387 240.486 205.254C244.072 205.014 247.564 205.265 251.145 205.213C252.297 205.197 253.406 205.34 254.473 205.64C255.381 205.892 256.172 205.734 257.098 205.84C257.719 205.906 258.383 205.851 259.09 205.676C260.059 205.43 261.135 205.316 262.318 205.336C267.162 205.41 272.158 205.558 277.307 205.781C279.057 205.855 280.834 205.855 282.639 205.781C287.215 205.594 291.586 206.074 296.139 205.933C299.49 205.828 303.086 205.869 306.926 206.057C308.396 206.133 309.715 205.746 311.139 205.898C313.406 206.144 315.674 205.916 317.965 205.928C324.227 205.967 330.336 206.029 336.293 206.115C338.527 206.15 340.98 206.16 343.652 206.144C346.102 206.129 348.57 206.142 351.059 206.185C355.23 206.264 358.914 206.299 362.109 206.291C369.004 206.279 375.984 206.303 383.051 206.361C384.246 206.373 385.377 206.174 386.572 206.139C397.377 205.814 407.867 205.654 418.043 205.658C419.828 205.658 421.598 205.601 423.352 205.488C426.551 205.277 429.68 205.658 432.814 205.494C434.236 205.42 435.814 205.525 437.549 205.81C440.396 206.279 441.756 208.324 441.937 211.072C441.953 211.303 441.859 211.471 441.656 211.576L440.813 212.01C440.266 212.291 440.285 212.523 440.871 212.707C442.857 213.322 441.703 215.531 441.961 216.996C442.078 217.66 442.096 218.324 442.014 218.988C441.854 220.234 441.771 221.508 441.768 222.808C441.764 223.601 441.65 224.348 441.428 225.047C441.365 225.246 441.375 225.441 441.457 225.633C441.832 226.5 441.842 227.332 441.486 228.129C441.393 228.336 441.402 228.537 441.516 228.732C441.813 229.228 441.945 229.756 441.914 230.314C441.898 230.623 441.75 230.844 441.469 230.976C441.242 231.086 441.115 231.262 441.088 231.504C441.064 231.723 441.127 231.912 441.275 232.072C441.768 232.611 441.861 233.226 441.557 233.918C441.451 234.164 441.422 234.418 441.469 234.68C441.859 236.801 441.91 238.973 441.621 241.195C441.48 242.273 441.838 243.14 441.908 244.213C442.123 247.736 442.205 251.211 442.154 254.637C442.148 255.181 441.855 255.574 441.469 255.926C441.297 256.086 441.256 256.275 441.346 256.494C442.518 259.301 442.289 262.863 441.674 265.687C441.646 265.828 441.654 265.965 441.697 266.098C441.74 266.223 441.811 266.33 441.908 266.42C442.119 266.615 442.156 266.838 442.02 267.088C441.463 268.096 441.979 269.15 442.025 270.264C442.396 279.775 442.615 289.443 442.682 299.267C442.686 299.978 442.566 300.504 442.324 300.844C442.245 300.954 442.129 301.034 441.996 301.072C441.852 301.119 441.73 301.203 441.633 301.324C441.496 301.488 441.502 301.646 441.65 301.799C442.289 302.461 443.004 303.305 442.846 304.295C442.463 306.748 442.449 309.365 442.805 312.146C442.914 312.982 442.853 313.793 442.623 314.578C442.574 314.741 442.58 314.918 442.641 315.082C443.207 316.59 443.107 317.896 442.342 319.002C442.27 319.105 442.22 319.222 442.196 319.345C442.172 319.468 442.174 319.595 442.201 319.717C442.279 320.064 442.443 320.383 442.693 320.672C442.889 320.898 442.98 321.164 442.969 321.469C442.863 324.812 442.795 328.209 442.764 331.658C442.758 332.221 442.506 332.742 442.031 333.058C441.867 333.164 441.84 333.299 441.949 333.463C442.863 334.857 442.465 336.275 442.482 337.834C442.521 340.592 442.471 343.482 442.33 346.506C442.318 346.724 442.229 346.906 442.061 347.051C441.92 347.172 441.809 347.312 441.727 347.473C441.629 347.66 441.66 347.822 441.82 347.959C443.332 349.277 442.805 351.187 442.031 352.775C441.953 352.939 441.928 353.111 441.955 353.291C442.205 354.904 442.258 356.508 442.113 358.101C441.965 359.68 441.117 360.76 439.57 361.342C439.383 361.412 439.197 361.404 439.014 361.318C438.74 361.193 438.463 361.168 438.182 361.242C435.633 361.904 432.914 361.67 430.277 361.822C429.074 361.896 427.859 361.904 426.633 361.846C421.883 361.623 418.385 361.527 416.139 361.558C409.654 361.644 403.092 361.594 396.451 361.406C396.201 361.402 396.094 361.523 396.129 361.769C396.592 365.098 397.137 368.39 397.283 371.707C397.291 371.906 397.396 372.017 397.6 372.041C398.115 372.103 398.631 372.139 399.146 372.146C416.627 372.42 434.34 372.691 452.285 372.961C452.68 372.969 452.881 372.775 452.889 372.381C452.908 371.635 452.906 370.863 452.883 370.066C452.531 357.168 452.227 344.07 451.969 330.773C451.785 321.18 451.813 304.906 452.051 281.953C452.051 281.664 452.072 281.381 452.115 281.103C452.221 280.43 451.963 279.75 451.957 279.041C451.922 275.65 451.939 272.215 452.01 268.734C452.029 267.797 452.012 266.865 451.957 265.939C451.816 263.619 451.916 261.269 451.893 258.937C451.652 237.791 451.43 216.58 450.721 195.422C450.714 195.221 450.644 195.029 450.521 194.872C450.398 194.714 450.227 194.601 450.035 194.549C449.77 194.474 449.367 194.443 448.828 194.455C424.811 194.877 407.191 194.818 377.637 194.56C359.959 194.408 342.287 195.293 324.604 194.994C284.566 194.32 247.002 193.805 207.574 194.42C204.5 194.471 201.398 194.463 198.27 194.396C176.012 193.935 153.492 193.549 130.711 193.236C128.52 193.209 126.605 193.256 124.969 193.377C122.707 193.553 122.736 195.89 122.684 197.525C121.652 227.789 123.229 257.449 122.918 287.414C122.621 316.012 122.627 344.265 122.936 372.176C122.937 372.292 122.982 372.403 123.063 372.487C123.144 372.571 123.253 372.621 123.369 372.627C134.818 373.244 145.209 373.498 154.541 373.389C187.064 373.002 219.34 372.674 251.367 372.404C263.713 372.299 276.451 372.158 289.025 372.258C316.564 372.473 344.717 372.539 373.482 372.457C374.17 372.457 374.467 372.115 374.373 371.431C373.955 368.404 373.707 365.246 373.629 361.957C373.626 361.841 373.579 361.73 373.497 361.647C373.416 361.565 373.306 361.516 373.189 361.512C372.518 361.48 371.885 361.308 371.291 360.996C371.139 360.918 370.979 360.898 370.811 360.937C369.844 361.16 368.9 360.803 367.887 360.89C365.08 361.142 361.594 361.705 358.998 360.644C358.822 360.57 358.645 360.566 358.465 360.633C357.404 361.008 356.332 361.371 355.195 361.154C354.242 360.971 353.275 360.959 352.295 361.119C351.504 361.254 350.725 361.031 349.945 361.06C344.988 361.26 340.199 361.316 335.578 361.23C334.687 361.213 333.879 360.814 332.994 360.973C332.459 361.07 331.934 361.117 331.418 361.113C327.766 361.105 323.893 361.137 319.799 361.207C318.443 361.226 317.141 361.172 315.891 361.043C314.676 360.914 313.438 360.894 312.176 360.984C307.113 361.328 301.984 361.375 296.789 361.125C296.086 361.09 295.471 360.691 294.779 360.885C294.357 360.998 293.9 361.049 293.408 361.037C292.041 360.994 290.672 360.969 289.301 360.961C288.707 360.957 288.686 361.062 289.236 361.277C291.986 362.344 293.244 364.185 293.01 366.803C292.588 371.502 286.693 372.715 283.746 369.439C281.35 366.773 282.521 363 285.562 361.476C285.838 361.342 286.178 361.295 286.465 361.195C286.957 361.023 286.943 360.949 286.424 360.973C285.42 361.027 284.402 361.058 283.371 361.066C282.475 361.072 281.736 360.674 280.834 360.914C280.611 360.976 280.398 360.949 280.195 360.832C279.758 360.582 279.303 360.566 278.83 360.785C278.604 360.887 278.367 360.924 278.121 360.896C276.035 360.668 274.025 361.037 271.922 361.066C268.949 361.098 266.004 361.111 263.086 361.107C261.523 361.103 260.258 360.881 259.289 360.439C259.059 360.338 258.85 360.369 258.662 360.533C258.17 360.973 257.631 361.148 256.975 361.096C253.24 360.779 249.426 360.81 245.531 361.189C244.688 361.271 243.895 361.107 243.152 360.697C242.949 360.584 242.734 360.551 242.508 360.598C240.756 360.931 239.801 361.617 237.891 360.937C237.7 360.869 237.491 360.86 237.293 360.914C235.611 361.371 233.965 361.055 232.23 361.131C227.559 361.326 223.006 361.394 218.572 361.336C218.062 361.33 217.635 361.166 217.166 361.014C216.931 360.942 216.68 360.954 216.457 361.049C214.898 361.723 213.621 361.119 212.074 361.277C211.699 361.316 211.324 361.336 210.949 361.336C207.574 361.318 204.123 361.652 200.813 361.424C197.385 361.183 194.215 361.43 190.869 361.623C189.721 361.685 188.643 361.629 187.635 361.453C186.791 361.301 185.963 361.306 185.15 361.471C183.598 361.787 182.086 361.465 180.48 361.635C179.27 361.764 178.047 361.838 176.813 361.857C170.197 361.957 163.324 361.98 156.604 362.308C154.154 362.43 151.752 362.443 149.396 362.349C147.943 362.297 146.596 362.771 145.172 362.373C144.973 362.314 144.779 362.326 144.592 362.408C144.049 362.639 143.504 362.758 142.957 362.765C140.35 362.801 136.225 363.562 134.139 362.572C132.006 361.558 131.52 359.144 131.643 356.871C131.943 351.176 132.209 345.514 132.439 339.885C132.492 338.637 132.375 337.406 132.439 336.17C132.619 332.342 132.668 328.484 132.586 324.598C132.584 324.521 132.598 324.445 132.627 324.375C132.657 324.304 132.7 324.24 132.755 324.187C132.81 324.134 132.876 324.094 132.947 324.067C133.019 324.041 133.096 324.03 133.172 324.035C133.629 324.062 134.035 324 134.391 323.848C134.746 323.695 134.732 323.605 134.35 323.578C133.963 323.551 133.592 323.566 133.236 323.625C132.912 323.68 132.752 323.543 132.756 323.215ZM137.584 216.973C137.518 216.89 137.437 216.871 137.344 216.914C137.254 216.957 137.244 217.014 137.314 217.084C137.381 217.15 137.457 217.168 137.543 217.137C137.558 217.13 137.572 217.12 137.582 217.108C137.593 217.096 137.601 217.081 137.605 217.065C137.609 217.049 137.609 217.032 137.605 217.016C137.602 217 137.594 216.985 137.584 216.973ZM270.082 349.752C271.66 349.517 273.207 349.492 274.723 349.676C275.152 349.726 275.504 349.947 275.777 350.338C275.829 350.411 275.898 350.471 275.978 350.512C276.059 350.552 276.148 350.572 276.238 350.57C276.328 350.568 276.416 350.543 276.494 350.498C276.572 350.454 276.638 350.391 276.686 350.314C277.16 349.541 278.109 349.406 278.941 349.447C281.961 349.599 284.934 349.709 287.859 349.775C288.41 349.787 288.949 350.015 289.441 350.244C289.643 350.335 289.867 350.36 290.08 350.314C291.064 350.099 292.012 350.107 292.922 350.338C293.238 350.42 293.547 350.4 293.848 350.279C294.82 349.892 295.645 349.967 296.32 350.502C296.539 350.674 296.736 350.652 296.912 350.437C297.094 350.203 297.387 350.045 297.668 349.998C301.137 349.435 304.365 350.115 307.6 349.951C309.322 349.865 310.945 349.844 312.469 349.887C312.828 349.898 313.131 350.033 313.377 350.291L313.787 350.719C313.881 350.815 314.002 350.879 314.134 350.901C314.266 350.923 314.401 350.902 314.52 350.842C315.258 350.463 315.834 350.582 316.248 351.199C316.58 351.695 316.834 351.656 317.01 351.082C317.367 349.922 318.457 350.01 319.482 349.957C320.967 349.883 322.43 349.949 323.871 350.156C324.098 350.191 324.291 350.291 324.451 350.455C324.65 350.662 324.873 350.695 325.119 350.555C325.256 350.476 325.402 350.431 325.559 350.42C329.457 350.142 333.234 350.101 336.891 350.297C339.707 350.445 342.758 350.515 346.043 350.508C349.023 350.504 352.049 350.588 355.119 350.76C356.256 350.822 357.451 350.756 358.705 350.56C361.166 350.17 363.359 350.32 365.285 351.012C365.492 351.09 365.703 351.099 365.918 351.041C367.008 350.754 367.945 351.041 369.006 350.719C369.834 350.469 370.699 350.482 371.602 350.76C371.673 350.782 371.749 350.786 371.822 350.772C371.896 350.758 371.965 350.726 372.023 350.678C372.082 350.631 372.128 350.57 372.157 350.5C372.187 350.43 372.199 350.355 372.193 350.279C371.451 341.717 370.734 332.945 370.043 323.965C369.908 322.195 370.98 320.818 372.322 319.869C372.545 319.713 372.641 319.5 372.609 319.23L371.555 310.529C371.531 310.31 371.408 310.183 371.186 310.148C353.854 307.465 341.309 292.793 343.02 274.992C343.801 266.879 347.141 260.086 353.039 254.613C366.363 242.25 388.846 243.387 401.068 256.705C406.264 262.365 409.012 269.189 409.312 277.178C409.863 291.691 400.061 304.547 386.314 308.853C386.19 308.893 386.085 308.975 386.017 309.086C385.949 309.197 385.924 309.329 385.945 309.457C386.371 312.039 386.67 314.508 386.842 316.863C386.861 317.133 387.004 317.297 387.27 317.355C389.5 317.844 390.752 319.103 391.025 321.135C392.381 331.182 393.604 340.998 394.693 350.584C394.736 350.986 394.947 351.113 395.326 350.965C396.389 350.555 397.311 350.625 398.092 351.176C398.154 351.219 398.225 351.249 398.3 351.261C398.375 351.273 398.452 351.268 398.525 351.246C400.662 350.558 402.516 350.662 404.086 351.556C404.293 351.674 404.494 351.66 404.689 351.515C406.055 350.49 410.279 351.082 411.82 351.287C415.611 351.785 419.291 351.041 422.9 351.504C424.467 351.707 426.281 351.762 428.344 351.668C429.535 351.613 430.436 351.254 431.045 350.59C431.471 350.125 431.664 349.193 431.625 347.795C431.555 345.498 431.643 343.18 431.889 340.84C432.072 339.094 432.154 337.344 432.135 335.59C432.111 333.828 432.115 332.07 432.147 330.316C432.154 330.019 432.156 329.717 432.152 329.408C432.105 326.115 432.023 322.805 431.906 319.476C431.844 317.644 432.129 316.035 432.762 314.648C432.848 314.461 432.822 314.289 432.686 314.133C432.115 313.48 431.836 312.738 431.848 311.906C431.871 310.14 431.867 308.299 431.836 306.381C431.832 306.185 431.912 306.035 432.076 305.93C432.178 305.863 432.285 305.824 432.398 305.812C433.066 305.742 433.148 305.482 432.645 305.033C432.133 304.58 431.879 304.019 431.883 303.351C432 292.172 432.135 281.683 431.848 270.844C431.652 263.617 431.564 256.459 431.584 249.369C431.59 248.848 431.754 248.291 431.965 247.822C432.003 247.739 432.024 247.65 432.025 247.559C432.026 247.468 432.008 247.378 431.971 247.295C431.252 245.623 431.129 243.871 431.602 242.039C431.781 241.328 431.82 240.609 431.719 239.883C431.504 238.394 431.434 236.883 431.508 235.348C431.758 230.07 431.846 224.896 431.771 219.826C431.768 219.639 431.698 219.459 431.575 219.319C431.452 219.178 431.283 219.086 431.098 219.058L427.588 218.519C427.346 218.484 427.105 218.502 426.867 218.572C425.422 219.029 424.049 218.926 422.748 218.262C422.541 218.156 422.33 218.144 422.115 218.226C421.111 218.594 420.031 218.685 418.875 218.502C417.627 218.303 416.461 218.654 415.219 218.666C408.156 218.717 401.254 218.742 394.512 218.742C389.502 218.742 384.346 219.164 379.271 218.959C376.998 218.871 374.789 219.416 372.533 219.34C370.873 219.281 369.209 219.299 367.541 219.392C364.436 219.572 361.045 219.642 357.369 219.603C356.994 219.599 356.613 219.572 356.227 219.521C355.414 219.412 354.557 219.394 353.654 219.469C350.881 219.687 347.947 219.738 344.854 219.621C343.277 219.562 341.777 219.949 340.23 219.562C339.346 219.34 338.332 219.89 337.336 219.767C336.465 219.662 335.557 219.64 334.611 219.703C333.725 219.765 332.811 219.807 331.869 219.826C326.994 219.935 321.547 220.101 315.527 220.324C314.328 220.371 312.963 220.357 311.432 220.283C310.674 220.244 309.967 220.303 309.311 220.459C307.541 220.881 305.666 220.488 303.855 220.611C299.652 220.9 295.793 220.853 292.277 220.471C291.391 220.373 290.455 220.432 289.471 220.646C288.537 220.846 287.59 220.93 286.629 220.898C281.777 220.726 276.289 220.64 270.164 220.64C269.168 220.64 268.137 220.265 267.193 220.471C266.549 220.611 265.893 220.67 265.225 220.646C263.025 220.572 260.848 220.574 258.691 220.652C258.496 220.66 258.398 220.76 258.398 220.951C258.391 221.724 258.385 222.502 258.381 223.283C258.354 244.369 258.281 263.349 258.164 280.224C258.006 302.566 257.437 326.332 257.73 348.838C257.734 349.068 257.852 349.183 258.082 349.183L265.125 349.207C265.434 349.211 265.703 349.314 265.934 349.517C266.434 349.955 267.002 350.019 267.639 349.711C267.893 349.586 268.158 349.557 268.436 349.623C268.678 349.682 268.932 349.728 269.197 349.764C269.486 349.803 269.781 349.799 270.082 349.752ZM254.379 234.65C254 235.599 253.408 236.078 252.604 236.086C245.326 236.172 237.244 236.314 228.357 236.514C214.584 236.822 201.258 236.976 188.379 236.976C183.098 236.98 177.941 236.892 172.91 236.713C163.469 236.373 154.281 236.082 145.348 235.84C145.329 235.839 145.311 235.842 145.294 235.848C145.277 235.855 145.262 235.864 145.249 235.877C145.235 235.89 145.225 235.905 145.218 235.922C145.211 235.938 145.207 235.956 145.207 235.974L145.037 243.732C145.036 243.764 145.042 243.796 145.054 243.826C145.065 243.856 145.083 243.883 145.105 243.906C145.128 243.929 145.155 243.947 145.184 243.96C145.214 243.972 145.245 243.978 145.277 243.978L254.396 243.404C254.487 243.404 254.573 243.368 254.637 243.305C254.701 243.241 254.736 243.154 254.736 243.064L254.994 220.857C254.994 220.607 254.869 220.482 254.619 220.482C250.646 220.471 246.744 220.408 242.912 220.295C241.705 220.26 240.615 220.611 239.408 220.523C238.506 220.457 237.602 220.453 236.695 220.512C231.785 220.812 227.395 220.896 223.523 220.764C222.029 220.711 220.67 220.863 219.187 220.887C213.217 220.974 207.199 221.156 201.176 220.652C199.166 220.482 197.145 220.693 195.117 220.623C183.395 220.197 171.674 219.724 159.955 219.205C157.564 219.099 153.199 218.619 149.678 218.812C148.303 218.887 146.947 219.385 145.611 220.306C145.519 220.371 145.442 220.455 145.386 220.552C145.329 220.649 145.294 220.757 145.283 220.869C144.928 224.166 144.768 227.553 144.803 231.029C144.803 231.232 144.902 231.353 145.102 231.392C146.082 231.584 147.057 231.695 148.025 231.726C157.1 232.023 165.732 232.256 173.924 232.424C175.201 232.447 176.437 232.676 177.686 232.681C197.732 232.806 215.605 232.689 231.305 232.33C238.855 232.154 245.809 232.119 252.164 232.224C253.348 232.244 254.098 232.879 254.414 234.129C254.457 234.305 254.445 234.478 254.379 234.65ZM140.771 241.318C140.842 241.361 140.9 241.348 140.947 241.277C141.002 241.195 140.982 241.14 140.889 241.113C140.822 241.094 140.771 241.111 140.736 241.166C140.697 241.228 140.709 241.279 140.771 241.318ZM250.816 258.017C252.012 258.119 253.232 258.051 254.479 257.812C254.635 257.781 254.713 257.687 254.713 257.531L254.748 247.107C254.748 247.077 254.742 247.048 254.731 247.02C254.719 246.992 254.702 246.967 254.681 246.946C254.66 246.924 254.635 246.908 254.607 246.896C254.579 246.885 254.55 246.879 254.52 246.879C222.863 247.066 191.131 247.201 159.322 247.283C153.939 247.299 149.326 247.367 145.482 247.488C145.388 247.491 145.298 247.531 145.231 247.598C145.164 247.666 145.126 247.757 145.125 247.851L145.014 259.002C145.006 259.685 145.344 260.029 146.027 260.033C156.066 260.119 165.562 260.265 174.516 260.473C178.297 260.562 182.191 260.519 186.199 260.344C195.738 259.928 205.482 259.4 215.039 259.219C228.043 258.965 238.924 258.592 247.682 258.099C248.189 258.072 248.717 258.041 249.264 258.006C249.787 257.971 250.305 257.974 250.816 258.017ZM405.691 277.488C405.612 273.732 404.767 270.029 403.203 266.591C401.639 263.152 399.388 260.045 396.577 257.447C393.766 254.849 390.451 252.811 386.821 251.449C383.191 250.087 379.317 249.428 375.42 249.51C367.551 249.675 360.067 252.846 354.615 258.326C349.163 263.806 346.189 271.146 346.348 278.731C346.427 282.486 347.272 286.189 348.836 289.628C350.4 293.066 352.652 296.173 355.462 298.771C358.273 301.369 361.588 303.407 365.218 304.769C368.848 306.131 372.722 306.79 376.619 306.708C384.488 306.544 391.972 303.372 397.424 297.892C402.876 292.413 405.85 285.073 405.691 277.488ZM435.68 251.76C435.719 251.705 435.707 251.668 435.645 251.648C435.535 251.613 435.506 251.646 435.557 251.748C435.562 251.76 435.57 251.77 435.58 251.777C435.59 251.785 435.602 251.789 435.615 251.79C435.627 251.792 435.64 251.789 435.651 251.784C435.663 251.779 435.673 251.77 435.68 251.76ZM144.012 340.846L143.508 341.244C143.258 341.439 143.258 341.633 143.508 341.824C144.861 342.867 144.182 345 144.135 346.424C144.135 346.478 144.055 347.06 143.895 348.17C143.82 348.678 143.898 349.267 144.129 349.939C144.879 352.107 149.59 350.9 151.195 350.795C155.273 350.533 159.379 350.392 163.512 350.373C164.566 350.365 165.617 350.328 166.664 350.262C167.664 350.195 168.717 350.217 169.822 350.326C170.623 350.404 171.426 350.457 172.23 350.484C173.023 350.512 173.822 350.517 174.627 350.502C176.531 350.467 178.207 349.898 180.129 349.892C183.43 349.881 186.67 349.873 189.85 349.869C190.908 349.869 191.986 349.978 193.084 350.197C193.287 350.24 193.461 350.332 193.605 350.473C194.156 351.008 194.666 350.957 195.135 350.32C195.268 350.14 195.439 350.019 195.65 349.957C196.002 349.855 196.361 349.803 196.729 349.799C212.018 349.615 227.205 349.488 242.291 349.418C244.289 349.406 246.234 349.137 248.232 349.295C248.451 349.31 248.641 349.392 248.801 349.541L249.246 349.957C249.438 350.133 249.658 350.182 249.908 350.103C251.166 349.713 252.35 349.514 253.459 349.506C253.541 349.506 253.622 349.489 253.698 349.458C253.774 349.426 253.842 349.38 253.9 349.322C253.958 349.263 254.004 349.194 254.035 349.118C254.065 349.042 254.081 348.961 254.08 348.879C253.998 327.285 254.154 305.191 254.549 282.598C254.666 275.941 254.596 269.15 254.648 262.605C254.649 262.545 254.638 262.484 254.614 262.428C254.591 262.372 254.556 262.322 254.512 262.28C254.468 262.238 254.415 262.206 254.358 262.185C254.301 262.165 254.24 262.156 254.18 262.16C250.633 262.39 247.115 262.621 243.627 262.851C241.781 262.974 239.971 262.781 238.154 263.103C237.141 263.279 236.209 262.974 235.201 263.115C234.455 263.217 233.709 263.273 232.963 263.285C217.193 263.488 204.627 263.822 195.264 264.287C188.092 264.642 182.018 264.777 177.041 264.691C166.943 264.512 156.359 264.361 145.289 264.24C145.027 264.24 144.945 264.359 145.043 264.598C145.16 264.885 145.23 265.307 145.23 265.611C145.201 273.211 144.92 280.506 145.055 287.947C145.117 291.525 145.055 294.064 144.867 295.564C144.754 296.502 144.68 297.471 144.645 298.471C144.453 304.252 144.236 310.088 143.994 315.978C143.857 319.342 143.895 323.146 144.105 327.392C144.145 328.166 144.059 328.9 143.848 329.596C143.785 329.791 143.799 329.978 143.889 330.158C144.256 330.889 144.428 331.631 144.404 332.385C144.338 334.889 144.318 337.473 144.346 340.137C144.347 340.274 144.318 340.409 144.26 340.532C144.202 340.654 144.117 340.762 144.012 340.846ZM483.563 294.715C483.568 294.764 483.591 294.809 483.628 294.843C483.665 294.876 483.712 294.895 483.762 294.896L485.988 294.967C486.018 294.968 486.048 294.962 486.076 294.951C486.104 294.939 486.129 294.921 486.149 294.899C486.169 294.877 486.184 294.85 486.193 294.821C486.201 294.792 486.204 294.762 486.199 294.732L482.508 265.576C482.502 265.525 482.477 265.478 482.438 265.444C482.399 265.41 482.348 265.393 482.297 265.394L479.971 265.476C479.943 265.478 479.915 265.485 479.89 265.497C479.865 265.51 479.843 265.527 479.824 265.549C479.806 265.57 479.793 265.595 479.785 265.622C479.777 265.649 479.774 265.677 479.777 265.705L483.563 294.715ZM509.572 276.305L513.129 276.849C513.305 276.877 513.484 276.87 513.657 276.828C513.83 276.786 513.993 276.71 514.137 276.605C514.281 276.5 514.402 276.367 514.495 276.215C514.587 276.063 514.649 275.895 514.676 275.719L515.455 270.615C515.518 270.201 515.502 269.779 515.406 269.373C515.31 268.967 515.137 268.585 514.896 268.248C514.656 267.912 514.353 267.628 514.004 267.413C513.656 267.198 513.269 267.055 512.865 266.994L512.771 266.976C512.368 266.915 511.957 266.936 511.56 267.037C511.163 267.139 510.789 267.319 510.46 267.568C510.13 267.818 509.851 268.131 509.638 268.49C509.426 268.848 509.284 269.246 509.221 269.66L508.441 274.764C508.388 275.118 508.476 275.479 508.688 275.768C508.9 276.057 509.218 276.25 509.572 276.305ZM455.502 269.889L455.619 273.515C455.619 273.528 455.622 273.541 455.627 273.553C455.632 273.565 455.639 273.575 455.649 273.584C455.658 273.593 455.669 273.6 455.681 273.604C455.693 273.608 455.706 273.61 455.719 273.609L455.766 273.603C456.042 273.595 456.301 273.418 456.487 273.111C456.672 272.805 456.769 272.394 456.756 271.969L456.732 271.359C456.725 271.148 456.692 270.941 456.633 270.748C456.574 270.555 456.491 270.38 456.39 270.235C456.288 270.089 456.169 269.974 456.04 269.898C455.911 269.821 455.774 269.784 455.637 269.789H455.59C455.578 269.79 455.565 269.793 455.554 269.798C455.543 269.804 455.533 269.811 455.525 269.82C455.517 269.83 455.511 269.841 455.507 269.852C455.503 269.864 455.501 269.876 455.502 269.889ZM476.572 270.744C476.885 275.42 477.291 280.283 477.791 285.334C477.83 285.705 478.031 285.879 478.395 285.855C478.594 285.84 478.682 285.732 478.658 285.533C478.018 280.123 477.354 275.189 476.666 270.732C476.557 270.045 476.525 270.049 476.572 270.744ZM505.324 288.943C506.473 290.572 506.139 292.682 505.412 294.451C505.397 294.487 505.39 294.526 505.394 294.564C505.398 294.603 505.411 294.64 505.433 294.673C505.456 294.705 505.486 294.732 505.521 294.751C505.556 294.769 505.595 294.779 505.635 294.779L512.531 294.738C512.73 294.734 512.846 294.635 512.877 294.439L514.975 280.939C514.98 280.899 514.978 280.857 514.967 280.818C514.957 280.778 514.938 280.741 514.913 280.709C514.888 280.677 514.856 280.651 514.82 280.632C514.785 280.613 514.745 280.602 514.705 280.599C512.064 280.416 509.475 280.086 506.936 279.609C506.709 279.566 506.584 279.662 506.561 279.896C506.295 282.685 505.832 285.439 505.172 288.158C505.14 288.293 505.138 288.432 505.164 288.567C505.19 288.703 505.245 288.831 505.324 288.943ZM501.123 294.773C501.19 294.774 501.256 294.753 501.312 294.714C501.367 294.676 501.41 294.62 501.434 294.557C501.871 293.447 502.074 292.312 502.043 291.152C502.039 291.044 502.003 290.939 501.938 290.851C501.873 290.763 501.783 290.696 501.68 290.66C500.555 290.273 499.322 290.057 497.982 290.01C496.979 289.971 496.285 290.418 495.902 291.351C495.555 292.207 495.271 293.121 495.053 294.094C494.939 294.605 495.145 294.857 495.668 294.849L501.123 294.773ZM456.299 295.219C456.361 295.204 456.416 295.164 456.461 295.1C456.506 295.037 456.541 294.951 456.562 294.849C456.584 294.747 456.592 294.63 456.587 294.505C456.582 294.379 456.563 294.248 456.531 294.119C456.467 293.858 456.357 293.619 456.223 293.456C456.089 293.293 455.944 293.219 455.819 293.249C455.756 293.265 455.701 293.305 455.656 293.368C455.611 293.432 455.576 293.517 455.555 293.619C455.533 293.721 455.525 293.838 455.53 293.964C455.536 294.089 455.555 294.22 455.586 294.349C455.65 294.611 455.761 294.849 455.894 295.012C456.028 295.175 456.173 295.25 456.299 295.219ZM518.53 298.697C518.53 298.644 518.519 298.59 518.498 298.541C518.478 298.491 518.447 298.446 518.409 298.408C518.371 298.37 518.326 298.339 518.276 298.319C518.226 298.298 518.173 298.288 518.119 298.288L470.037 298.372C469.983 298.372 469.93 298.383 469.88 298.403C469.83 298.424 469.785 298.454 469.747 298.493C469.709 298.531 469.679 298.576 469.658 298.626C469.638 298.676 469.627 298.729 469.627 298.783L469.677 327.353C469.677 327.407 469.688 327.46 469.709 327.51C469.729 327.56 469.76 327.605 469.798 327.643C469.836 327.681 469.881 327.711 469.931 327.732C469.981 327.752 470.034 327.763 470.088 327.763L518.17 327.679C518.224 327.679 518.277 327.668 518.327 327.647C518.377 327.626 518.422 327.596 518.46 327.558C518.498 327.52 518.528 327.475 518.549 327.425C518.569 327.375 518.58 327.322 518.58 327.268L518.53 298.697ZM466.125 298.951C466.125 298.839 466.081 298.732 466.001 298.653C465.922 298.574 465.815 298.529 465.703 298.529H455.906C455.794 298.529 455.687 298.574 455.608 298.653C455.529 298.732 455.484 298.839 455.484 298.951V328.119C455.484 328.231 455.529 328.338 455.608 328.417C455.687 328.496 455.794 328.541 455.906 328.541H465.703C465.815 328.541 465.922 328.496 466.001 328.417C466.081 328.338 466.125 328.231 466.125 328.119V298.951ZM85.1836 331.142C85.2168 331.131 85.244 331.106 85.2593 331.074C85.2746 331.042 85.2769 331.006 85.2656 330.973C84.2754 328.236 82.8926 324.164 80.4082 322.476C78.2871 321.041 75.1172 320.736 72.8027 321.92C72.5762 322.037 72.5234 322.209 72.6445 322.435L78.709 333.715C78.7328 333.759 78.7652 333.797 78.8042 333.828C78.8432 333.86 78.888 333.883 78.936 333.896C78.984 333.91 79.0343 333.914 79.0839 333.908C79.1334 333.902 79.1813 333.886 79.2246 333.861C81.0801 332.795 83.0664 331.889 85.1836 331.142ZM87.75 327.463L102.264 356.01C102.307 356.097 102.369 356.175 102.445 356.238C102.52 356.301 102.608 356.347 102.703 356.374C102.797 356.401 102.897 356.408 102.995 356.395C103.093 356.381 103.187 356.348 103.271 356.297L103.752 355.998C103.93 355.889 104.061 355.717 104.119 355.517C104.176 355.316 104.156 355.101 104.063 354.914C100.203 347.265 96.1699 339.283 91.9629 330.967C91.2949 329.646 90.5938 328.355 89.8594 327.094C89.6016 326.648 89.2207 326.461 88.7168 326.531L88.2012 326.601C87.6465 326.676 87.4961 326.963 87.75 327.463ZM517.881 348.861C518.039 348.807 518.171 348.695 518.248 348.548C518.325 348.4 518.343 348.229 518.297 348.07C517.348 344.736 513.902 339.275 518.426 336.744C518.617 336.639 518.707 336.476 518.695 336.258C518.613 334.726 518.609 333.213 518.684 331.717C518.699 331.408 518.553 331.254 518.244 331.254L470.021 331.213C469.756 331.209 469.623 331.34 469.623 331.605C469.639 359.637 469.639 386.467 469.623 412.096C469.623 414.471 469.707 416.795 469.875 419.068C469.891 419.264 469.996 419.361 470.191 419.361C484.211 419.467 498.289 419.182 512.426 418.506C513.141 418.476 513.955 418.582 514.664 418.681C515 418.724 515.047 418.627 514.805 418.389C511.91 415.549 510.105 411.974 509.391 407.666C507.814 398.15 511.324 389.314 518.461 382.67C518.621 382.521 518.701 382.336 518.701 382.113V373.26C518.699 373.145 518.671 373.032 518.619 372.931C518.568 372.829 518.493 372.741 518.402 372.674C514.078 369.439 518.197 366.498 518.484 363.076C518.539 362.443 518.547 361.834 518.508 361.248C518.484 360.921 518.36 360.609 518.152 360.356C517.944 360.103 517.663 359.921 517.348 359.836C514.518 359.062 510.891 358.236 510.703 354.668C510.486 350.426 514.816 349.875 517.881 348.861ZM456.51 371.777C456.58 375.68 453.598 377.045 450.158 376.424C450.129 376.418 450.098 376.418 450.069 376.426C450.039 376.433 450.012 376.447 449.989 376.467C449.965 376.487 449.946 376.511 449.933 376.539C449.92 376.567 449.913 376.598 449.912 376.629L449.842 419.133C449.838 419.367 449.953 419.482 450.188 419.478L465.861 419.332C466.049 419.332 466.143 419.238 466.143 419.051L466.107 332.531C466.107 332.195 465.941 332.029 465.609 332.033L455.883 332.092C455.684 332.096 455.588 332.195 455.596 332.391C455.951 345.027 456.256 358.156 456.51 371.777ZM533.607 374.824C534.135 374.793 534.637 374.648 535.113 374.391C535.336 374.273 535.477 374.092 535.535 373.846C536.355 370.4 537.75 366.158 542.279 367.213C544.322 367.689 546.521 368.4 548.877 369.346C549.004 369.397 549.143 369.413 549.278 369.391C549.414 369.37 549.541 369.312 549.646 369.223C549.752 369.135 549.832 369.02 549.878 368.89C549.924 368.76 549.935 368.62 549.908 368.484C549.457 366.228 546.996 364.676 546.34 362.338C544.852 357.064 551.268 356.098 554.479 354.691C554.597 354.64 554.703 354.562 554.788 354.464C554.872 354.366 554.934 354.251 554.968 354.126C555.002 354.001 555.007 353.87 554.983 353.742C554.959 353.615 554.907 353.495 554.83 353.39C554.623 353.105 554.334 352.902 553.963 352.781C550.658 351.709 544.752 350.836 546.967 345.539C547.592 344.039 548.281 342.592 549.035 341.197C549.1 341.077 549.135 340.942 549.136 340.805C549.137 340.669 549.104 340.534 549.04 340.413C548.977 340.291 548.884 340.188 548.771 340.111C548.657 340.034 548.527 339.987 548.391 339.973C547.271 339.849 545.232 341.396 544.283 341.994C540.223 344.578 536.748 343.183 535.354 338.724C534.893 337.248 534.355 335.82 533.742 334.441C533.671 334.279 533.543 334.148 533.383 334.072C533.222 333.997 533.04 333.982 532.869 334.031C532.545 334.121 532.314 334.336 532.178 334.676C531.619 336.031 531.187 337.431 530.883 338.877C529.863 343.67 526.266 344.689 522.352 341.66C522.117 341.476 522.004 341.533 522.012 341.83C522.223 350.65 522.303 359.478 522.252 368.314C522.248 368.635 522.389 368.721 522.674 368.572C524.772 367.482 526.904 366.234 529.066 367.529C531.264 368.848 532.271 372.094 532.992 374.396C533.032 374.525 533.114 374.637 533.226 374.715C533.337 374.792 533.471 374.831 533.607 374.824ZM87.2633 334.839C87.2176 334.747 87.1542 334.664 87.0766 334.596C86.999 334.528 86.9088 334.476 86.8112 334.443C86.7135 334.41 86.6103 334.397 86.5074 334.404C86.4045 334.41 86.304 334.437 86.2116 334.483L81.1898 336.965C81.0974 337.011 81.0149 337.074 80.947 337.152C80.879 337.229 80.8271 337.32 80.794 337.417C80.761 337.515 80.7475 337.618 80.7543 337.721C80.7611 337.824 80.7881 337.924 80.8338 338.017L81.0882 338.532C81.1339 338.624 81.1974 338.707 81.2749 338.775C81.3525 338.842 81.4427 338.894 81.5404 338.927C81.6381 338.961 81.7413 338.974 81.8442 338.967C81.947 338.96 82.0476 338.933 82.14 338.888L87.1617 336.406C87.2542 336.36 87.3367 336.297 87.4046 336.219C87.4725 336.141 87.5245 336.051 87.5576 335.954C87.5906 335.856 87.6041 335.753 87.5973 335.65C87.5904 335.547 87.5634 335.446 87.5177 335.354L87.2633 334.839ZM89.7656 339.392C89.7521 339.364 89.7328 339.338 89.709 339.317C89.6851 339.295 89.6571 339.279 89.6265 339.269C89.596 339.258 89.5636 339.254 89.5311 339.256C89.4986 339.258 89.4668 339.267 89.4375 339.281L83.3906 342.246C83.2389 342.321 83.1222 342.452 83.0653 342.61C83.0084 342.769 83.0158 342.943 83.0859 343.096C84.6445 346.506 86.3027 349.898 88.0605 353.273C88.5019 354.121 88.8691 355.078 89.1621 356.144C89.4023 357.017 90.1699 357.58 90.5684 358.394C94.7988 367.004 99.0098 375.379 103.201 383.519C103.234 383.582 103.28 383.637 103.336 383.679C103.392 383.722 103.458 383.751 103.527 383.765C103.597 383.779 103.669 383.778 103.738 383.76C103.808 383.743 103.872 383.711 103.928 383.666C105.795 382.142 107.9 381.267 110.244 381.041C110.281 381.037 110.316 381.025 110.347 381.004C110.377 380.984 110.403 380.956 110.421 380.924C110.438 380.892 110.448 380.856 110.449 380.819C110.45 380.782 110.442 380.746 110.426 380.713L89.7656 339.392ZM518.016 356.338C518.091 356.369 518.173 356.381 518.254 356.372C518.335 356.364 518.413 356.335 518.48 356.29C518.548 356.244 518.603 356.182 518.64 356.109C518.678 356.037 518.697 355.956 518.695 355.875L518.637 353.109C518.635 353.032 518.614 352.956 518.577 352.887C518.54 352.819 518.488 352.76 518.424 352.716C518.36 352.672 518.286 352.644 518.209 352.634C518.132 352.624 518.054 352.632 517.98 352.658L514.506 353.93C514.414 353.964 514.334 354.026 514.277 354.106C514.221 354.187 514.189 354.282 514.187 354.381C514.186 354.479 514.213 354.576 514.267 354.658C514.32 354.741 514.398 354.805 514.488 354.844L518.016 356.338ZM289.576 366.105C289.576 365.882 289.532 365.661 289.447 365.455C289.361 365.249 289.236 365.062 289.078 364.904C288.921 364.746 288.733 364.621 288.527 364.535C288.321 364.45 288.1 364.406 287.877 364.406C287.654 364.406 287.433 364.45 287.227 364.535C287.021 364.621 286.833 364.746 286.675 364.904C286.518 365.062 286.392 365.249 286.307 365.455C286.222 365.661 286.178 365.882 286.178 366.105C286.178 366.556 286.357 366.988 286.675 367.307C286.994 367.626 287.426 367.805 287.877 367.805C288.328 367.805 288.76 367.626 289.078 367.307C289.397 366.988 289.576 366.556 289.576 366.105ZM389.033 370.734C389.033 369.688 388.618 368.685 387.878 367.946C387.139 367.206 386.136 366.791 385.09 366.791C384.044 366.791 383.041 367.206 382.301 367.946C381.562 368.685 381.146 369.688 381.146 370.734C381.146 371.78 381.562 372.783 382.301 373.523C383.041 374.262 384.044 374.678 385.09 374.678C386.136 374.678 387.139 374.262 387.878 373.523C388.618 372.783 389.033 371.78 389.033 370.734ZM526.67 370.717L522.51 372.814C522.326 372.904 522.236 373.053 522.24 373.26L522.322 379.389C522.323 379.439 522.337 379.487 522.364 379.53C522.391 379.572 522.429 379.606 522.474 379.628C522.519 379.65 522.569 379.659 522.619 379.654C522.669 379.649 522.716 379.63 522.756 379.599C524.742 378.082 527.086 376.992 529.459 376.125C529.752 376.015 529.836 375.816 529.711 375.527L527.812 371.133C527.767 371.028 527.701 370.933 527.618 370.855C527.534 370.777 527.436 370.716 527.329 370.677C527.222 370.638 527.109 370.622 526.995 370.628C526.882 370.635 526.771 370.665 526.67 370.717ZM252.709 375.721C252.656 375.721 252.605 375.738 252.564 375.768C252.523 375.799 252.493 375.842 252.48 375.891L242.895 411.486C242.832 411.709 242.916 411.822 243.146 411.826C271.43 412.183 298.617 412.717 326.32 412.06C326.562 412.057 326.656 411.935 326.602 411.697L317.959 376.096C317.937 376.012 317.888 375.937 317.82 375.884C317.753 375.831 317.669 375.803 317.584 375.803L252.709 375.721ZM438.363 419.326C438.377 419.366 438.403 419.401 438.436 419.426C438.47 419.451 438.51 419.465 438.551 419.467L446.086 419.525C446.11 419.526 446.133 419.522 446.155 419.514C446.177 419.505 446.197 419.492 446.214 419.476C446.231 419.459 446.244 419.44 446.254 419.418C446.263 419.396 446.268 419.373 446.268 419.349L446.338 376.781C446.338 376.692 446.303 376.606 446.24 376.543C446.178 376.479 446.093 376.443 446.004 376.441C429.609 376.008 413.299 375.775 397.072 375.744C396.931 375.744 396.793 375.79 396.68 375.875C396.567 375.959 396.485 376.078 396.445 376.213C395.221 380.478 389.49 382.758 385.529 382.787C380.76 382.822 377.092 380.66 375.094 376.301C375.049 376.201 374.976 376.116 374.884 376.057C374.793 375.998 374.687 375.966 374.578 375.967L321.797 375.879C321.691 375.879 321.652 375.932 321.68 376.037L330.182 411.603C330.206 411.712 330.268 411.809 330.357 411.877C330.445 411.946 330.555 411.981 330.668 411.978C337.363 411.779 344.119 411.631 350.936 411.533C357.328 411.439 361.529 412.887 362.912 419.824C362.931 419.909 362.978 419.985 363.045 420.04C363.112 420.094 363.195 420.123 363.281 420.123L388.031 420.012C388.246 420.008 388.396 419.91 388.482 419.719C388.713 419.223 388.934 418.705 389.145 418.166C392.982 408.433 407.449 406.365 416.619 406.84C424.055 407.221 432.568 409.646 436.869 415.933C437.578 416.965 437.965 418.142 438.363 419.326ZM558.457 415.295C569.971 404.877 568.324 386.637 553.641 379.986C541.975 374.701 528.023 378.099 519.457 386.93C508.687 398.027 510.357 416.531 526.236 421.922C536.836 425.514 550.236 422.73 558.457 415.295ZM95.502 397.523C93.9844 397.529 93.1113 396.111 93.0996 394.693C93.0645 391.017 93.0586 387.383 93.082 383.789C93.082 383.555 92.9648 383.437 92.7305 383.437C85.3828 383.387 78.2871 383.412 71.4434 383.514C70.9199 383.525 70.5703 383.779 70.3945 384.275C70.3672 384.353 70.3535 384.582 70.3535 384.961C70.3301 396.433 70.4121 408.027 70.5996 419.742C70.5996 419.787 70.6169 419.83 70.6477 419.862C70.6784 419.894 70.7202 419.912 70.7637 419.912L119.947 420.252C120 420.253 120.053 420.243 120.102 420.223C120.151 420.203 120.195 420.173 120.233 420.136C120.27 420.098 120.3 420.053 120.321 420.004C120.341 419.954 120.352 419.901 120.352 419.848L120.381 397.875C120.381 397.652 120.27 397.539 120.047 397.535C112.5 397.492 104.318 397.488 95.502 397.523ZM118.523 393.498C118.531 393.611 118.58 393.717 118.662 393.794C118.744 393.871 118.851 393.914 118.963 393.914L138.855 393.943C139.078 393.943 139.189 393.834 139.189 393.615L139.271 385.828C139.287 384.269 138.514 383.486 136.951 383.478L116.461 383.373C116.258 383.369 116.207 383.457 116.309 383.637C118.037 386.666 118.26 390.029 118.523 393.498ZM105.926 388.183C106.922 389.918 107.777 391.623 108.422 393.504C108.496 393.719 108.646 393.826 108.873 393.826L114.533 393.855C114.768 393.855 114.881 393.738 114.873 393.504C114.787 391.433 114.482 389.31 113.959 387.135C112.893 382.746 107.93 384.791 106.014 387.129C105.74 387.461 105.711 387.812 105.926 388.183ZM170.292 398.255C170.292 398.158 170.273 398.062 170.236 397.973C170.199 397.883 170.145 397.801 170.077 397.733C170.008 397.664 169.927 397.61 169.838 397.572C169.748 397.535 169.652 397.516 169.555 397.516L124.743 397.437C124.646 397.437 124.55 397.456 124.46 397.493C124.37 397.53 124.289 397.584 124.22 397.653C124.152 397.721 124.097 397.802 124.06 397.892C124.023 397.981 124.003 398.077 124.003 398.174L123.966 419.608C123.966 419.705 123.984 419.801 124.021 419.89C124.058 419.98 124.113 420.062 124.181 420.13C124.249 420.199 124.331 420.253 124.42 420.291C124.51 420.328 124.606 420.347 124.703 420.347L169.515 420.426C169.612 420.426 169.708 420.407 169.798 420.37C169.887 420.333 169.969 420.279 170.038 420.21C170.106 420.142 170.161 420.061 170.198 419.971C170.235 419.882 170.255 419.786 170.255 419.689L170.292 398.255ZM196.594 411.346C200.725 414.439 203.051 417.568 204.779 422.426C205.053 423.191 205.541 423.369 206.244 422.959L207.398 422.291C208.094 421.885 208.324 421.299 208.09 420.533C206.531 415.392 203.602 411.461 199.301 408.738C198.645 408.32 198.031 408.377 197.461 408.908L196.512 409.793C195.918 410.344 195.945 410.861 196.594 411.346ZM434.449 419.185C432.205 413.918 425.379 411.609 420.059 410.836C415.352 410.156 410.705 410.224 406.119 411.041C401.027 411.949 394.236 414.463 392.391 419.66C392.377 419.696 392.373 419.734 392.378 419.772C392.383 419.81 392.397 419.846 392.418 419.877C392.44 419.908 392.47 419.933 392.504 419.951C392.538 419.968 392.575 419.977 392.613 419.976L434.162 419.625C434.214 419.624 434.265 419.611 434.31 419.586C434.356 419.561 434.394 419.525 434.423 419.482C434.451 419.438 434.468 419.388 434.473 419.337C434.478 419.285 434.469 419.233 434.449 419.185ZM582.176 426.908C582.186 426.914 582.197 426.918 582.208 426.919C582.219 426.92 582.231 426.918 582.241 426.914C582.252 426.91 582.262 426.904 582.27 426.896C582.277 426.888 582.283 426.878 582.287 426.867C582.982 424.5 583.986 422.32 585.299 420.328C585.439 420.117 585.4 419.947 585.182 419.818L572.66 412.447C572.597 412.41 572.526 412.386 572.453 412.378C572.38 412.369 572.306 412.376 572.235 412.397C572.165 412.419 572.099 412.454 572.043 412.502C571.988 412.55 571.942 412.609 571.91 412.676L569.338 418.037C569.092 418.553 569.211 418.959 569.695 419.256L582.176 426.908ZM558.973 419.103C558.937 419.128 558.909 419.163 558.894 419.204C558.88 419.245 558.878 419.29 558.891 419.332C558.903 419.374 558.929 419.41 558.963 419.437C558.998 419.463 559.04 419.478 559.084 419.478L564.123 419.49C564.169 419.49 564.213 419.474 564.249 419.446C564.285 419.417 564.31 419.378 564.321 419.333C564.332 419.289 564.327 419.242 564.308 419.2C564.29 419.159 564.257 419.125 564.217 419.103L561.363 417.598C561.33 417.58 561.293 417.572 561.256 417.574C561.219 417.576 561.183 417.588 561.152 417.609L558.973 419.103ZM118.652 461.373C121.518 462.849 123.287 464.965 123.123 468.369C123.096 468.92 123.348 469.115 123.879 468.955C129.52 467.256 134.891 465.088 139.992 462.451C140.156 462.361 140.205 462.228 140.139 462.053C138.287 457.26 135.596 452.867 132.064 448.875C131.99 448.789 131.906 448.775 131.813 448.834C126.578 451.939 122.152 455.953 118.535 460.875C118.379 461.086 118.418 461.252 118.652 461.373ZM111.58 471.65L118.957 470.174C119.13 470.139 119.287 470.047 119.402 469.913C119.516 469.779 119.583 469.611 119.59 469.435C119.672 467.291 118.576 464.748 116.35 464.408C116.307 464.4 116.273 464.414 116.25 464.449L111.486 471.51C111.477 471.525 111.473 471.542 111.473 471.56C111.474 471.578 111.479 471.595 111.489 471.609C111.499 471.624 111.513 471.636 111.529 471.643C111.545 471.65 111.563 471.653 111.58 471.65Z" fill="#EFEFEF"/>
<path d="M147.564 166.722L147.213 166.736C146.288 166.775 145.57 167.556 145.609 168.481L146.028 178.48C146.066 179.405 146.847 180.123 147.772 180.084L148.123 180.069C149.048 180.031 149.766 179.25 149.727 178.325L149.308 168.326C149.27 167.401 148.489 166.683 147.564 166.722Z" fill="#EFEFEF"/>
<path d="M129.753 167.233L129.591 167.26C128.634 167.424 127.991 168.332 128.155 169.289L129.827 179.073C129.991 180.03 130.899 180.673 131.856 180.51L132.018 180.482C132.975 180.318 133.618 179.41 133.454 178.453L131.782 168.669C131.618 167.712 130.71 167.069 129.753 167.233Z" fill="#EFEFEF"/>
<path d="M120.141 173.112L120.048 173.184C119.23 173.814 119.078 174.987 119.708 175.805L124.949 182.611C125.578 183.429 126.752 183.581 127.57 182.951L127.663 182.88C128.481 182.25 128.633 181.076 128.003 180.258L122.762 173.453C122.132 172.635 120.959 172.482 120.141 173.112Z" fill="#EFEFEF"/>
<path d="M110.463 202.996L100.107 202.707C99.1791 202.681 98.4055 203.413 98.3796 204.341L98.372 204.611C98.3461 205.539 99.0777 206.313 100.006 206.339L110.361 206.628C111.29 206.654 112.063 205.922 112.089 204.994L112.097 204.724C112.123 203.796 111.391 203.022 110.463 202.996Z" fill="#EFEFEF"/>
<path d="M159.451 229.676C161.189 229.676 162.598 228.267 162.598 226.529C162.598 224.792 161.189 223.383 159.451 223.383C157.713 223.383 156.305 224.792 156.305 226.529C156.305 228.267 157.713 229.676 159.451 229.676Z" fill="#EFEFEF"/>
<path d="M150.41 229.166C151.963 229.166 153.223 227.907 153.223 226.354C153.223 224.8 151.963 223.541 150.41 223.541C148.857 223.541 147.598 224.8 147.598 226.354C147.598 227.907 148.857 229.166 150.41 229.166Z" fill="#EFEFEF"/>
<path d="M250.658 226.904C251.045 227.52 251.754 227.514 252.076 228.17C252.236 228.506 252.252 228.846 252.123 229.189C252.053 229.377 251.918 229.473 251.719 229.477C249.908 229.523 247.518 228.65 245.789 228.064C245.635 228.014 245.473 227.998 245.314 228.018L244.066 228.164C243.766 228.203 243.654 228.076 243.732 227.783C244.006 226.775 243.672 225.855 242.73 225.023C242.665 224.965 242.617 224.891 242.589 224.809C242.561 224.726 242.555 224.638 242.571 224.552C242.588 224.466 242.626 224.387 242.683 224.32C242.74 224.254 242.813 224.204 242.895 224.174C243.92 223.799 245.883 224.379 246.855 224.701C247.113 224.787 247.375 224.795 247.641 224.725L251.537 223.711C251.994 223.594 252.213 223.77 252.193 224.238L252.158 225.117C252.143 225.488 251.969 225.758 251.637 225.926L250.816 226.336C250.555 226.469 250.502 226.658 250.658 226.904Z" fill="#EFEFEF"/>
<path d="M161.285 258.773L150.176 258.814C149.743 258.816 149.315 258.729 148.917 258.559C148.519 258.389 148.16 258.139 147.862 257.825C147.564 257.511 147.333 257.14 147.184 256.734C147.035 256.327 146.97 255.895 146.994 255.463L147.223 251.338C147.267 250.53 147.619 249.769 148.206 249.211C148.793 248.654 149.571 248.341 150.381 248.338L161.496 248.291C161.929 248.29 162.358 248.377 162.757 248.547C163.155 248.718 163.514 248.968 163.812 249.282C164.11 249.597 164.341 249.969 164.49 250.376C164.639 250.783 164.703 251.216 164.678 251.648L164.443 255.773C164.399 256.582 164.047 257.343 163.46 257.9C162.873 258.458 162.095 258.77 161.285 258.773ZM160.125 255.299C160.271 255.298 160.412 255.245 160.523 255.149C160.633 255.054 160.706 254.922 160.729 254.777L161.051 252.656C161.063 252.569 161.057 252.481 161.033 252.397C161.008 252.312 160.966 252.234 160.909 252.168C160.852 252.101 160.781 252.047 160.701 252.01C160.622 251.973 160.535 251.954 160.447 251.953L151.441 251.865C151.282 251.864 151.128 251.924 151.013 252.033C150.897 252.142 150.828 252.292 150.82 252.451L150.709 254.654C150.705 254.738 150.718 254.821 150.747 254.899C150.776 254.977 150.821 255.048 150.878 255.108C150.936 255.169 151.005 255.217 151.082 255.249C151.158 255.282 151.241 255.299 151.324 255.299H160.125Z" fill="#EFEFEF"/>
<path d="M229.058 252.278L174.364 251.324C173.516 251.309 172.817 251.984 172.802 252.832L172.793 253.336C172.778 254.183 173.453 254.883 174.301 254.897L228.996 255.852C229.844 255.867 230.543 255.192 230.558 254.344L230.566 253.84C230.581 252.992 229.906 252.293 229.058 252.278Z" fill="#EFEFEF"/>
<path d="M393.656 256.863C398.725 260.643 402.686 266.063 403.324 272.063C403.483 273.522 402.803 274.928 401.174 274.799C400.86 274.776 400.563 274.649 400.329 274.44C400.095 274.23 399.936 273.948 399.879 273.639C399.041 269.086 397.043 264.727 393.504 261.879C392.547 261.11 391.662 260.283 390.85 259.401C390.221 258.717 390.211 258.028 390.82 257.332L390.985 257.145C391.789 256.227 392.68 256.133 393.656 256.863Z" fill="#EFEFEF"/>
<path d="M401.121 284.133C402.328 284.133 403.307 283.154 403.307 281.947C403.307 280.74 402.328 279.762 401.121 279.762C399.914 279.762 398.936 280.74 398.936 281.947C398.936 283.154 399.914 284.133 401.121 284.133Z" fill="#EFEFEF"/>
<path d="M156.217 281.654C156.197 281.443 156.307 281.345 156.545 281.361C156.584 281.364 156.622 281.377 156.656 281.397C156.689 281.418 156.717 281.447 156.737 281.481C156.757 281.515 156.769 281.553 156.771 281.592C156.773 281.631 156.766 281.671 156.75 281.707C156.691 281.84 156.578 281.892 156.41 281.865C156.293 281.845 156.229 281.775 156.217 281.654Z" fill="#EFEFEF"/>
<path d="M421.652 298.031C421.753 298.031 421.834 297.95 421.834 297.85C421.834 297.749 421.753 297.668 421.652 297.668C421.552 297.668 421.471 297.749 421.471 297.85C421.471 297.95 421.552 298.031 421.652 298.031Z" fill="#EFEFEF"/>
<path d="M343.359 300.586C351.838 301.125 356.584 305.543 356.912 314.133C357.1 319.043 357.205 324.18 357.228 329.543C357.252 334.998 355.939 340.096 349.541 340.817C347.338 341.067 344.617 341.18 341.379 341.157C321.156 341.036 300.465 340.825 279.305 340.524C271.699 340.418 266.086 337.875 265.939 329.479C265.857 324.854 265.875 320.02 265.992 314.977C266.127 309.094 266.924 302.262 273.269 300.118C274.582 299.676 277.545 299.461 282.158 299.473C300.623 299.524 317.73 299.745 333.48 300.135C336.547 300.213 339.84 300.364 343.359 300.586ZM315.492 303.51C301.949 303.35 289.392 303.262 277.822 303.247C271.834 303.241 270.135 307.079 269.894 312.405C269.699 316.737 269.609 321.686 269.625 327.252C269.637 330.692 269.713 334.243 273.422 335.772C275.086 336.456 276.935 336.811 278.971 336.838C300.162 337.104 321.662 337.301 343.471 337.43C348.17 337.459 353.32 337.788 353.432 331.342C353.521 326.03 353.437 320.563 353.18 314.942C352.963 310.131 351.656 306.475 346.517 304.916C345.545 304.624 344.637 304.454 343.793 304.407C335.226 303.934 325.793 303.635 315.492 303.51Z" fill="#EFEFEF"/>
<path d="M171.147 323.479C177.158 324.914 177.193 331.096 176.959 336.246C176.748 340.951 173.678 343.049 169.213 343.16C166.666 343.223 164.162 343.156 161.701 342.961C156.311 342.539 155.25 338.268 155.279 333.692C155.33 324.359 155.356 315.619 155.356 307.471C155.35 301.213 160.406 300.733 165.135 301.254C168.752 301.656 170.656 303.617 170.848 307.137C171.152 312.762 171.108 318.01 170.713 322.881C170.686 323.205 170.83 323.404 171.147 323.479ZM164.15 326.285C163.348 324.352 164.783 323.848 166.184 323.297C166.359 323.227 166.5 323.111 166.606 322.951C166.875 322.541 167.022 322.068 167.045 321.533C167.256 316.467 167.256 311.604 167.045 306.943C166.922 304.219 161.736 304.729 160.219 305.192C159.871 305.297 159.566 305.511 159.349 305.803C159.132 306.096 159.013 306.45 159.012 306.815C159.004 314.947 158.994 324.32 158.983 334.934C158.983 336.621 159.604 339.076 161.678 339.235C164.408 339.445 167.555 339.656 170.332 339.293C172.758 338.971 173.326 337.002 173.268 334.787C173.215 332.543 173.572 328.834 171.399 327.557C169.711 326.561 167.156 327.147 165.217 327.041C164.985 327.029 164.762 326.951 164.573 326.817C164.385 326.683 164.238 326.499 164.15 326.285Z" fill="#EFEFEF"/>
<path d="M200.297 323.308C206.32 323.344 211.658 324.258 211.811 331.476C211.916 336.334 212.854 342.773 205.576 342.668C202.666 342.625 199.658 342.601 196.553 342.597C192.943 342.597 189.721 342.322 187.465 339.275C186.281 337.681 185.582 335.662 185.367 333.217C184.887 327.678 184.398 321.767 183.902 315.486C183.398 309.111 188.766 309.064 193.412 309.299C201.252 309.691 202.213 316.793 199.98 322.857C199.871 323.158 199.977 323.308 200.297 323.308ZM196.506 327.011C196.205 327.01 195.91 326.929 195.649 326.778C195.389 326.627 195.172 326.41 195.022 326.15C194.871 325.889 194.79 325.594 194.789 325.293C194.787 324.992 194.864 324.696 195.012 324.433C196.465 321.867 198.967 316.324 195.979 313.898C194.268 312.51 190.09 312.943 188.209 313.306C188.007 313.345 187.826 313.456 187.701 313.618C187.576 313.78 187.514 313.982 187.529 314.185C187.932 319.947 188.354 325.721 188.795 331.506C189.088 335.355 190.061 338.754 194.572 338.853C198.826 338.951 202.707 338.978 206.215 338.935C206.684 338.929 207.133 338.749 207.476 338.43C207.819 338.112 208.032 337.678 208.072 337.213C208.182 335.873 208.209 334.342 208.154 332.619C208.084 330.381 208.148 328.383 205.746 327.662C202.939 326.818 199.635 327.023 196.506 327.011Z" fill="#EFEFEF"/>
<path d="M314.35 329.22L303.228 329.203C302.751 329.202 302.281 329.076 301.868 328.837C301.454 328.598 301.11 328.255 300.87 327.841C300.631 327.428 300.504 326.959 300.502 326.481C300.501 326.003 300.624 325.534 300.861 325.119L306.375 315.462C306.613 315.046 306.957 314.699 307.372 314.457C307.787 314.216 308.259 314.088 308.739 314.087C309.219 314.086 309.691 314.211 310.107 314.451C310.523 314.69 310.869 315.035 311.109 315.451L316.711 325.119C316.952 325.534 317.079 326.005 317.08 326.485C317.081 326.965 316.955 327.436 316.716 327.852C316.477 328.268 316.132 328.613 315.716 328.854C315.301 329.094 314.829 329.22 314.35 329.22ZM305.15 325.341C305.135 325.371 305.128 325.403 305.129 325.436C305.131 325.469 305.14 325.501 305.157 325.529C305.174 325.557 305.198 325.581 305.227 325.597C305.255 325.613 305.287 325.622 305.32 325.623L312.311 325.675C312.344 325.675 312.377 325.667 312.407 325.65C312.436 325.633 312.461 325.609 312.478 325.58C312.495 325.551 312.504 325.518 312.505 325.485C312.505 325.451 312.497 325.418 312.48 325.388L309.029 318.937C309.013 318.906 308.988 318.881 308.958 318.863C308.928 318.845 308.894 318.836 308.859 318.836C308.825 318.836 308.79 318.845 308.76 318.863C308.731 318.881 308.706 318.906 308.689 318.937L305.15 325.341Z" fill="#EFEFEF"/>
<path d="M234.291 338.442C234.296 339.709 233.797 340.925 232.904 341.824C232.012 342.723 230.799 343.23 229.532 343.234L225.044 343.25C223.778 343.254 222.561 342.756 221.663 341.863C220.764 340.971 220.257 339.758 220.252 338.491L220.221 329.491C220.216 328.225 220.715 327.008 221.608 326.11C222.5 325.211 223.713 324.704 224.979 324.699L229.468 324.684C230.734 324.679 231.951 325.178 232.849 326.071C233.748 326.963 234.255 328.176 234.26 329.442L234.291 338.442ZM229.008 328.359L225.574 328.371C225.148 328.373 224.74 328.543 224.439 328.845C224.138 329.147 223.969 329.556 223.969 329.982L223.981 338.279C223.981 338.434 224.007 338.588 224.059 338.731C224.11 338.875 224.186 339.005 224.281 339.114C224.377 339.224 224.49 339.31 224.614 339.369C224.738 339.428 224.872 339.458 225.006 339.457L229.623 339.445C229.893 339.444 230.15 339.319 230.34 339.098C230.53 338.878 230.637 338.579 230.637 338.268L230.625 329.971C230.625 329.759 230.583 329.549 230.502 329.353C230.42 329.157 230.301 328.979 230.151 328.829C230.001 328.68 229.822 328.561 229.626 328.48C229.43 328.4 229.22 328.359 229.008 328.359Z" fill="#EFEFEF"/>
<path d="M544.711 388.395C544.711 389.914 544.107 391.372 543.033 392.447C541.958 393.521 540.5 394.125 538.98 394.125C537.461 394.125 536.003 393.521 534.928 392.447C533.854 391.372 533.25 389.914 533.25 388.395C533.25 386.875 533.854 385.417 534.928 384.342C536.003 383.268 537.461 382.664 538.98 382.664C540.5 382.664 541.958 383.268 543.033 384.342C544.107 385.417 544.711 386.875 544.711 388.395ZM541.148 388.365C541.148 387.8 540.924 387.257 540.524 386.857C540.124 386.457 539.581 386.232 539.016 386.232C538.45 386.232 537.907 386.457 537.507 386.857C537.108 387.257 536.883 387.8 536.883 388.365C536.883 388.645 536.938 388.923 537.045 389.181C537.152 389.44 537.309 389.675 537.507 389.873C537.706 390.071 537.941 390.228 538.199 390.336C538.458 390.443 538.736 390.498 539.016 390.498C539.296 390.498 539.573 390.443 539.832 390.336C540.091 390.228 540.326 390.071 540.524 389.873C540.722 389.675 540.879 389.44 540.986 389.181C541.093 388.923 541.148 388.645 541.148 388.365Z" fill="#EFEFEF"/>
<path d="M319.102 386.414C321.141 392.203 322.254 398.754 322.482 404.871C322.582 407.478 318.873 407.555 318.791 405.111C318.596 399.205 317.496 393.228 315.492 387.182C315.41 386.932 315.4 386.664 315.463 386.409C315.526 386.154 315.66 385.922 315.85 385.74C316.123 385.475 316.43 385.295 316.77 385.201C317.926 384.873 318.703 385.277 319.102 386.414Z" fill="#EFEFEF"/>
<path d="M474.092 388.436L473.775 388.436C472.843 388.434 472.087 389.188 472.085 390.12L472.048 411.319C472.046 412.251 472.801 413.008 473.732 413.01L474.049 413.01C474.981 413.012 475.738 412.258 475.739 411.326L475.776 390.127C475.778 389.195 475.024 388.438 474.092 388.436Z" fill="#EFEFEF"/>
<path d="M558.838 403.375C557.592 405.01 555.722 406.064 553.64 406.306C551.558 406.547 549.434 405.956 547.736 404.662C546.895 404.022 546.184 403.228 545.643 402.326C545.102 401.424 544.742 400.432 544.583 399.406C544.425 398.381 544.471 397.342 544.719 396.348C544.967 395.355 545.412 394.427 546.029 393.617C547.275 391.982 549.145 390.927 551.227 390.686C553.309 390.444 555.433 391.035 557.131 392.329C557.972 392.97 558.683 393.764 559.224 394.666C559.765 395.568 560.125 396.56 560.284 397.585C560.442 398.611 560.396 399.65 560.148 400.643C559.9 401.637 559.455 402.565 558.838 403.375ZM555.509 401.402C556.259 400.625 556.657 399.569 556.615 398.467C556.573 397.365 556.095 396.307 555.286 395.525C554.885 395.138 554.415 394.831 553.903 394.621C553.39 394.41 552.846 394.301 552.299 394.3C551.753 394.298 551.217 394.404 550.72 394.611C550.224 394.819 549.777 395.123 549.405 395.508C548.655 396.285 548.257 397.34 548.299 398.442C548.341 399.544 548.819 400.603 549.628 401.384C550.029 401.771 550.499 402.079 551.011 402.289C551.524 402.499 552.068 402.608 552.614 402.61C553.161 402.612 553.697 402.506 554.194 402.298C554.69 402.091 555.137 401.786 555.509 401.402Z" fill="#EFEFEF"/>
<path d="M480.087 399.446L479.934 399.445C478.925 399.44 478.102 400.254 478.097 401.264L478.048 410.58C478.043 411.59 478.857 412.412 479.866 412.418L480.019 412.418C481.028 412.424 481.851 411.609 481.856 410.6L481.905 401.284C481.91 400.274 481.096 399.451 480.087 399.446Z" fill="#EFEFEF"/>
<path d="M529.336 417.908C539.514 420 551.238 417.111 558.094 409.072C559.543 407.373 560.609 405.348 561.293 402.996C561.574 402.027 562.195 401.688 563.156 401.977L563.584 402.106C563.948 402.216 564.257 402.459 564.45 402.787C564.644 403.115 564.707 403.503 564.627 403.875C563.912 407.18 562.184 410.168 559.442 412.84C550.904 421.16 538.131 424.248 526.91 420.996C525.91 420.707 525.033 420.096 524.279 419.162C524.186 419.048 524.125 418.911 524.1 418.765C524.075 418.62 524.089 418.47 524.139 418.33C524.389 417.65 524.875 417.135 525.598 416.783C525.879 416.647 526.16 416.648 526.442 416.789C527.391 417.258 528.27 417.691 529.336 417.908Z" fill="#EFEFEF"/>
<path d="M519.791 412.91C520.998 412.91 521.977 411.932 521.977 410.725C521.977 409.518 520.998 408.539 519.791 408.539C518.584 408.539 517.605 409.518 517.605 410.725C517.605 411.932 518.584 412.91 519.791 412.91Z" fill="#EFEFEF"/>
<path d="M272.469 442.369L263.575 442.385C262.614 442.386 261.836 443.167 261.838 444.128L261.838 444.245C261.84 445.206 262.62 445.984 263.581 445.982L272.476 445.967C273.437 445.965 274.215 445.185 274.213 444.224L274.213 444.106C274.211 443.145 273.431 442.367 272.469 442.369Z" fill="#EFEFEF"/>
<path d="M358.838 449.786L347.19 449.908C346.255 449.918 345.505 450.684 345.515 451.619L345.517 451.83C345.527 452.765 346.293 453.515 347.228 453.506L358.876 453.384C359.811 453.374 360.561 452.608 360.551 451.673L360.549 451.462C360.539 450.526 359.773 449.776 358.838 449.786Z" fill="#EFEFEF"/>
<path d="M419.475 450.94L366.741 449.835C365.757 449.815 364.943 450.595 364.923 451.579L364.922 451.626C364.901 452.609 365.682 453.423 366.665 453.444L419.4 454.548C420.383 454.569 421.197 453.788 421.218 452.805L421.219 452.758C421.24 451.774 420.459 450.96 419.475 450.94Z" fill="#EFEFEF"/>
<path d="M61.2315 476.73L26.2758 477.035C25.2921 477.044 24.5016 477.848 24.5102 478.832L24.5107 478.891C24.5193 479.874 25.3237 480.665 26.3074 480.656L61.2631 480.351C62.2468 480.343 63.0373 479.538 63.0287 478.554L63.0282 478.496C63.0197 477.512 62.2152 476.722 61.2315 476.73Z" fill="#EFEFEF"/>
<path d="M302.467 486.71L270.852 486.379C269.871 486.369 269.068 487.155 269.058 488.136L269.057 488.183C269.047 489.163 269.834 489.966 270.814 489.976L302.429 490.307C303.41 490.318 304.213 489.531 304.223 488.551L304.224 488.504C304.234 487.523 303.448 486.72 302.467 486.71Z" fill="#EFEFEF"/>
<path d="M515.329 486.558L442.31 486.685C441.355 486.687 440.582 487.462 440.584 488.417L440.584 488.511C440.586 489.465 441.361 490.238 442.316 490.236L515.335 490.109C516.29 490.107 517.062 489.332 517.061 488.377L517.061 488.284C517.059 487.329 516.284 486.556 515.329 486.558Z" fill="#EFEFEF"/>
</svg>
