<svg width="538" height="466" viewBox="0 0 538 466" fill="none" xmlns="http://www.w3.org/2000/svg">
<path d="M207.995 0.871089C204.635 1.76709 201.499 1.99108 200.827 1.31908C199.035 -0.472918 183.803 12.0711 183.803 15.6551C183.803 17.2231 185.595 19.2391 187.835 20.1351C189.851 20.8071 194.331 23.4951 197.691 25.7351L203.739 29.9911L199.259 34.4711C196.123 37.6071 195.003 40.7431 195.899 43.8791C196.571 46.5671 197.243 51.4951 197.243 54.8551C197.243 60.0071 199.035 62.0231 207.771 66.0551C217.851 70.7591 218.075 70.9831 213.371 74.1191C210.235 76.1351 208.443 79.7191 208.443 83.3031C208.443 87.5591 205.531 92.2631 199.483 98.3111C194.555 103.015 190.523 107.943 190.523 109.287C190.299 113.767 168.347 134.599 162.523 135.495C159.387 136.167 156.923 135.719 156.923 134.599C156.923 128.999 149.307 130.791 142.363 137.959C134.075 146.471 132.283 154.535 137.883 156.551C139.675 157.447 141.243 160.359 141.243 163.495C141.243 167.079 142.811 169.543 145.723 170.215C148.187 170.887 149.755 172.231 149.083 173.127C148.411 174.247 148.859 175.591 150.203 176.487C151.323 177.159 152.443 180.071 152.443 182.983C152.443 187.687 151.771 187.911 139.675 187.239C123.323 186.343 109.883 190.151 109.883 195.975C109.883 198.215 110.779 200.007 112.123 200.007C115.035 200.007 121.755 215.015 119.963 217.927C117.947 221.287 136.315 244.807 143.035 247.271C150.203 249.959 162.523 246.151 167.003 239.655C168.795 237.191 171.035 235.623 171.931 236.519C172.827 237.415 163.867 247.943 151.995 259.815L130.491 281.319L120.859 279.751C112.123 278.407 109.883 276.839 102.043 265.639C85.9146 243.239 84.5706 242.567 52.5386 242.567C19.3866 242.567 14.0106 244.583 6.84257 259.367C-0.101432 273.703 -2.56543 320.519 3.25857 325.447C6.17057 327.687 8.18657 327.911 10.8746 326.119C14.0106 324.327 14.9066 318.727 16.0266 299.463C16.9226 286.023 18.2666 272.807 19.1626 269.895C23.8666 255.783 24.9866 270.119 24.5386 343.815C24.3146 417.063 24.5386 422.887 28.3466 425.575C33.2746 429.159 40.8906 429.383 44.4746 425.799C46.2666 424.007 47.1626 410.567 47.1626 380.551C47.1626 335.303 48.0586 327.687 52.9866 327.687C55.6746 327.687 56.1226 336.199 56.1226 374.503C56.1226 414.151 56.5706 421.991 59.7066 424.903C63.7386 429.159 68.2186 429.383 74.2666 426.247C78.2986 424.007 78.5226 420.647 78.5226 344.487C78.5226 300.807 79.1946 264.967 80.3146 264.967C81.2106 264.967 85.9146 270.567 90.6186 277.287C97.5626 286.919 101.371 290.279 108.091 292.071C121.755 295.655 132.731 293.863 135.867 287.591C138.555 282.439 170.139 249.287 172.603 249.287C173.275 249.287 173.723 258.023 173.947 268.775C174.171 291.175 179.099 319.175 185.595 335.527C193.211 354.567 196.571 364.199 200.379 376.967C202.171 383.911 206.427 392.871 209.563 397.127C212.699 401.383 215.163 406.087 215.163 407.879C215.163 409.671 216.507 414.151 218.299 417.959C220.091 421.991 222.107 428.711 222.779 433.191C224.571 443.047 232.411 455.367 238.683 457.607C245.627 460.071 253.243 456.039 255.707 448.647C258.171 442.151 261.307 440.583 271.835 441.479C276.539 441.927 276.987 437.895 272.507 436.103C267.803 434.311 272.731 424.455 278.555 423.559C282.811 422.887 283.259 421.543 282.587 411.239C282.139 402.951 283.483 397.127 287.067 390.183C291.547 381.447 291.771 379.207 289.755 362.631C287.291 342.247 288.859 336.647 296.923 336.647C300.283 336.647 302.747 335.079 303.643 332.167C304.315 329.703 307.003 327.687 309.243 327.687C316.187 327.687 320.443 325.223 320.443 320.967C320.443 318.727 323.579 314.471 327.387 311.783C331.195 309.095 336.571 304.615 339.483 301.703C342.395 298.791 345.755 296.327 346.651 296.327C347.771 296.327 352.475 291.399 356.955 285.127C361.883 278.631 368.603 272.583 373.083 270.567C384.283 266.087 388.315 261.383 388.763 251.975C389.211 245.031 390.555 243.015 396.827 239.879C401.083 237.863 406.011 236.519 408.251 237.191C410.267 237.863 414.523 237.639 417.883 236.743C423.931 235.175 423.931 235.175 422.363 220.615C421.467 212.551 419.451 204.711 417.883 202.919C416.315 201.351 415.419 197.991 416.091 195.527C416.987 191.943 416.091 190.375 412.507 189.479C406.011 187.911 406.459 182.535 413.403 179.399C420.795 176.039 420.571 172.455 412.283 169.319C407.355 167.527 406.011 165.735 406.907 163.047C409.371 156.999 427.963 161.703 427.963 168.647C427.963 175.367 433.563 177.831 447.899 177.383C455.515 177.159 462.235 177.383 462.907 178.055C464.923 180.295 458.651 188.359 454.171 189.703C446.779 191.495 451.707 210.983 459.771 211.207C460.443 211.207 462.011 207.847 462.907 203.815L464.475 196.647L468.507 205.607C470.747 210.535 472.539 217.255 472.539 220.391C472.763 225.095 473.883 226.215 478.363 226.215C485.307 226.215 489.563 219.719 486.427 213.895C485.083 211.207 485.307 208.743 487.547 205.831C489.339 203.367 490.011 199.335 489.115 195.975C487.995 191.047 488.443 190.599 493.371 191.719C498.299 193.063 498.971 192.167 501.883 182.535C503.451 176.711 505.019 170.439 505.243 168.647C505.467 166.855 506.587 162.599 507.931 159.463C509.499 156.103 509.947 151.623 509.499 149.159C508.155 144.231 524.283 130.119 530.555 130.791C537.275 131.463 538.395 130.567 535.483 127.207C533.243 124.519 533.243 123.175 535.483 120.487C539.515 115.783 536.603 110.407 529.883 110.407C526.523 110.407 524.283 109.063 524.283 107.047C524.283 103.015 517.563 94.7271 513.979 94.7271C512.635 94.7271 510.171 96.2951 508.603 98.0871C506.811 100.103 503.899 100.999 501.435 100.103C496.955 98.7591 487.323 105.255 472.763 120.039C468.059 124.743 462.907 128.327 461.115 128.103C454.395 127.207 452.379 128.551 453.051 133.255C453.499 136.167 455.067 138.183 456.635 137.959C457.979 137.511 459.323 139.303 459.323 141.991C459.323 144.455 458.427 146.023 457.307 145.351C456.411 144.679 452.379 144.903 448.795 146.023C444.987 147.143 440.731 147.143 438.939 146.023C437.371 145.127 434.907 145.127 433.563 146.023C432.443 147.143 427.963 147.815 424.155 147.815C417.211 147.815 416.763 147.367 416.763 139.527C416.763 129.671 413.179 125.863 406.459 128.327C401.083 130.343 397.947 141.095 400.187 149.831C401.755 155.655 400.859 155.879 383.163 155.655C375.995 155.431 366.363 153.863 366.363 152.967C366.363 152.743 363.451 152.071 359.867 151.623C356.507 151.399 352.251 149.383 350.907 147.143C348.667 144.455 345.755 143.783 338.139 144.455C328.283 145.575 318.875 142.663 300.283 132.359C296.027 129.895 290.651 127.431 288.635 126.759C283.483 125.191 285.499 115.335 291.771 109.959C296.699 105.479 295.803 99.8791 289.755 97.6391C282.363 94.7271 264.443 78.5991 264.443 74.7911C264.443 73.4471 266.235 72.3271 268.699 72.3271C270.939 72.3271 274.075 70.7591 275.867 68.7431C278.331 65.8311 278.107 64.0391 274.523 57.5431C270.491 50.1511 270.491 49.9271 275.195 46.1191C279.899 42.0871 289.083 26.8551 289.083 23.2711C289.083 22.1511 285.499 19.463 281.019 17.447C273.403 13.863 272.283 13.863 265.115 17.223C254.363 22.375 248.539 21.7031 240.251 14.3111C236.443 10.7271 231.067 7.14306 228.603 6.24706C226.139 5.57506 224.123 4.00706 224.123 2.88706C224.123 0.199058 214.715 -0.920912 207.995 0.871089ZM219.643 4.67908C219.643 5.79908 222.331 8.03905 225.915 9.83105C229.275 11.6231 236.219 16.1031 241.595 20.1351C251.451 27.7511 253.019 27.751 265.787 20.583C271.835 17.447 273.179 17.2231 278.555 20.1351C281.915 21.7031 284.603 23.719 284.603 24.167C284.603 26.855 279.227 36.4871 277.435 36.4871C276.539 36.4871 275.643 38.0551 275.643 39.8471C275.643 41.8631 274.299 43.8791 272.507 44.5511C267.355 46.5671 266.683 51.4951 270.267 58.6631C273.851 65.8311 272.507 72.3271 268.475 68.2951C267.131 66.9511 264.667 66.5031 263.099 67.1751C261.307 67.8471 259.963 67.1751 259.963 65.6071C259.963 64.2631 259.067 63.5911 257.947 64.2631C256.827 64.9351 255.259 64.0391 254.587 62.0231C253.915 60.2311 252.123 59.3351 250.779 60.0071C249.659 60.9031 245.403 60.2311 241.819 58.8871C236.219 56.4231 234.651 56.6471 230.843 60.0071C228.379 62.2471 227.035 64.9351 227.707 65.8311C228.379 66.9511 225.915 67.8471 222.331 67.8471C218.299 67.8471 215.163 66.5031 214.267 64.4871C213.595 62.4711 211.803 61.1271 210.235 61.3511C203.515 62.2471 202.171 60.4551 200.827 49.4791C199.483 39.1751 199.707 37.3831 203.963 34.2471C208.667 30.6631 208.667 30.6631 201.499 23.4951C197.691 19.4631 192.987 16.3271 191.419 16.3271C189.627 16.3271 188.283 15.4311 188.283 14.3111C188.283 11.6231 199.259 4.67906 201.275 6.02306C202.171 6.69506 204.411 6.24708 206.203 4.90308C210.459 2.43908 219.643 2.21508 219.643 4.67908ZM249.659 64.2631C251.675 63.5911 253.243 64.0391 253.243 65.3831C253.243 66.7271 254.587 67.8471 256.155 67.8471C257.947 67.8471 260.411 71.6551 261.755 76.5831C265.339 88.0071 265.339 88.0071 258.843 88.0071C254.811 88.0071 252.571 89.5751 251.003 93.6071C249.883 96.7431 248.091 99.2071 246.971 99.2071C244.283 99.2071 237.563 90.4711 237.563 86.8871C237.563 85.0951 236.667 83.5271 235.323 83.5271C234.203 83.5271 231.739 80.3911 229.723 76.8071C227.707 72.9991 227.259 70.0871 228.603 70.0871C229.723 70.0871 230.843 68.5191 230.843 66.7271C230.843 61.5751 238.011 58.6631 242.267 62.4711C244.283 64.2631 247.643 65.1591 249.659 64.2631ZM233.083 86.8871C233.307 85.5431 234.651 87.5591 236.219 91.3671C239.131 98.0871 238.683 104.583 235.323 102.567C234.427 101.895 233.083 103.015 232.187 104.807C230.619 109.063 222.107 109.063 216.731 104.807C214.267 103.239 211.131 102.343 209.339 103.015C207.323 103.687 206.203 102.567 206.203 99.4311C206.203 96.7431 207.771 94.0551 209.563 93.3831C211.803 92.4871 212.475 90.2471 211.579 86.8871C210.683 83.0791 212.027 80.6151 216.507 77.0311L222.779 72.1031L227.931 80.6151C230.843 85.3191 233.083 88.0071 233.083 86.8871ZM276.539 93.1591C280.347 96.0711 285.275 98.9831 287.515 99.8791C292.219 101.671 292.443 105.031 287.963 106.823C286.171 107.495 284.603 109.959 284.603 112.423C284.603 119.367 282.139 123.847 278.107 123.847C273.627 123.623 266.683 118.695 266.683 115.335C266.683 113.095 258.171 109.063 255.035 109.959C253.915 110.183 253.243 105.927 253.243 100.551C253.243 90.9191 253.467 90.4711 260.635 89.5751C264.443 89.1271 268.251 88.4551 268.699 88.4551C269.147 88.2311 272.731 90.2471 276.539 93.1591ZM249.659 102.119C250.555 101.223 250.555 102.119 249.883 103.911C249.211 105.703 250.331 109.063 252.571 110.855C256.603 114.439 257.499 114.887 262.203 114.887C263.547 114.887 264.443 116.231 264.443 118.023C264.443 120.711 276.763 128.327 281.243 128.327C281.915 128.327 290.875 132.135 300.955 137.063C324.923 148.487 327.387 149.159 333.435 148.711C336.123 148.487 338.587 149.383 338.587 151.175C338.811 152.743 339.259 156.327 339.483 159.239C339.707 162.151 341.051 165.511 342.395 166.855C343.963 168.423 342.843 170.887 337.915 174.919C332.539 179.399 331.419 181.863 332.539 186.791C333.211 190.375 332.763 193.735 331.643 194.407C330.299 195.303 329.851 196.647 330.523 197.767C331.195 198.887 330.747 200.455 329.403 201.127C328.059 202.023 326.043 199.783 324.699 196.199C323.131 191.271 319.995 188.807 311.707 185.671C305.883 183.655 299.611 182.535 297.819 183.207C296.027 183.879 292.443 182.535 289.979 180.071C286.395 176.935 284.379 176.487 281.243 178.055C278.555 179.623 276.763 179.623 275.643 177.607C274.299 175.591 273.179 176.039 271.387 179.623C269.819 182.087 269.147 184.327 269.371 184.327C269.819 184.327 273.403 183.431 277.435 182.311C281.243 181.191 284.603 180.967 284.603 181.863C284.603 184.551 297.371 188.359 300.507 186.567C304.763 184.327 322.683 192.615 322.683 196.647C322.683 200.903 318.427 203.143 311.035 202.695C303.643 202.023 302.299 207.847 309.467 209.639L314.171 210.983L309.243 217.479C306.331 221.287 302.299 224.871 300.059 225.319C297.371 225.991 295.131 229.351 294.459 233.383C293.339 238.983 291.995 240.103 288.187 239.431C274.971 236.743 269.371 236.295 267.803 237.639C264.891 240.551 246.747 239.879 245.627 236.743C243.835 232.039 238.459 232.935 231.963 239.431C227.707 243.687 225.915 244.359 225.243 241.895C224.347 240.103 221.659 239.207 217.851 239.655C213.819 240.327 210.011 238.983 206.875 236.071C204.187 233.383 200.379 232.039 198.363 232.711C193.883 234.503 195.451 230.247 205.307 214.119C211.355 203.815 212.251 200.903 210.459 195.975C208.891 191.943 209.115 189.927 211.131 188.583C214.715 186.343 221.883 190.375 221.883 194.407C221.883 196.199 223.003 197.767 224.123 197.767C228.155 197.767 226.363 191.943 220.763 187.015C210.235 177.831 205.083 182.087 207.547 197.991C208.443 203.815 208.219 206.727 206.427 206.727C205.083 206.727 203.963 208.295 203.963 210.087C203.963 211.879 203.291 213.447 202.395 213.447C199.483 213.447 188.283 199.111 186.939 193.735C186.043 191.047 183.803 188.807 181.787 188.807C179.547 188.807 177.083 188.135 176.187 187.239C174.395 185.447 173.499 185.223 163.419 184.775C158.715 184.327 156.699 182.535 153.787 175.367C151.771 170.439 149.307 166.407 147.963 166.407C146.843 166.407 145.723 164.615 145.723 162.151C145.723 159.911 144.155 156.775 142.363 155.207C137.659 151.399 138.331 148.487 144.827 141.095C149.307 135.943 151.099 135.271 153.563 137.287C159.611 142.215 169.915 138.183 181.563 126.087C187.835 119.591 192.763 113.543 192.763 112.423C192.763 111.303 194.779 108.391 197.243 105.927C201.275 101.895 202.395 101.671 204.859 104.359C206.651 106.151 208.443 109.959 208.891 112.871C209.115 115.783 211.579 119.143 214.267 120.263C216.955 121.383 220.987 126.759 223.227 132.135C227.259 141.095 230.843 144.679 230.843 139.527C230.843 135.047 237.787 137.287 239.579 142.215C240.699 145.127 242.267 147.143 243.387 146.919C244.507 146.695 245.179 148.935 244.955 152.071C244.731 156.327 245.403 157.447 247.643 156.551C254.363 154.087 250.779 159.015 242.043 164.167C231.739 170.663 229.499 179.847 238.235 179.847C242.939 180.071 242.939 180.071 238.907 183.207C235.547 185.671 235.323 187.015 237.115 189.479C240.251 193.287 238.459 195.751 233.979 193.959C232.187 193.287 229.275 194.407 227.931 196.423C226.363 198.663 223.675 200.007 222.107 199.559C220.539 199.111 218.523 200.231 218.075 201.575C216.731 205.383 222.107 205.159 227.259 201.127C229.723 199.335 233.531 198.215 235.771 199.111C239.803 200.231 240.027 199.783 240.699 189.031C240.923 187.239 242.939 184.999 245.403 184.103C247.867 183.207 248.539 182.311 247.195 182.311C245.627 182.087 244.283 180.743 244.283 178.951C244.283 176.935 242.715 176.263 239.803 176.935C232.187 178.951 234.875 173.799 245.627 165.959C258.395 156.327 268.027 156.551 265.563 166.183C264.667 169.319 262.651 173.575 260.859 175.591C259.067 177.607 257.051 182.759 256.155 187.239C255.259 193.735 255.707 195.527 259.963 197.767C266.907 201.351 270.715 197.543 267.131 190.599C264.667 185.447 264.443 180.967 266.907 176.487C267.579 175.143 268.475 170.439 268.699 165.959C269.147 158.567 268.475 157.223 263.323 155.207C259.963 153.863 256.379 153.415 255.483 154.087C252.571 155.879 248.763 147.591 248.763 139.079C248.763 131.239 244.507 119.367 241.595 119.367C238.907 119.367 240.699 129.447 243.835 131.911C245.627 133.255 246.747 135.719 246.075 137.287C245.403 139.527 244.507 139.527 241.819 136.839C240.027 135.047 236.891 133.703 234.651 134.151C229.947 134.823 221.883 126.759 221.883 121.383C221.883 118.919 219.867 117.127 216.955 116.679C213.595 116.231 211.579 114.215 211.131 110.855C210.235 105.479 213.819 104.135 216.731 109.063C218.747 112.423 233.083 111.527 233.083 107.943C233.083 106.823 234.427 105.927 236.219 105.927C238.011 105.927 240.027 104.359 240.699 102.343C241.819 99.6551 242.939 99.2071 245.179 101.223C246.747 102.567 248.763 103.015 249.659 102.119ZM518.683 105.927C520.475 105.927 521.147 107.495 520.475 110.407C519.803 113.319 514.203 117.351 506.587 121.159C499.643 124.295 491.131 130.343 487.323 134.375C482.619 139.303 477.691 141.991 470.747 142.887C461.787 144.455 461.115 144.231 462.459 139.975C463.579 136.615 462.907 135.047 459.995 134.375C457.083 133.703 458.203 132.807 463.131 131.687C468.059 130.567 472.091 127.431 475.227 122.503C477.691 118.247 481.275 114.887 483.067 114.887C484.859 114.887 488.443 112.423 491.131 109.287C494.491 105.479 498.299 103.687 503.227 103.687C507.259 103.687 511.291 102.343 512.411 100.775C513.531 98.7591 514.203 99.2071 514.875 101.895C515.323 104.135 516.891 105.927 518.683 105.927ZM533.243 116.007C533.243 117.799 532.347 119.367 531.003 119.367C529.883 119.367 528.763 121.159 528.763 123.175C528.763 126.759 515.099 135.047 509.499 135.047C507.259 135.047 500.539 141.543 485.979 156.999C481.947 161.479 479.707 165.959 480.379 167.751C481.051 169.767 480.603 173.127 479.483 175.367C477.915 178.279 477.915 180.071 479.483 180.967C480.603 181.639 481.723 180.519 481.723 178.055C481.723 172.679 487.547 167.527 495.835 165.511C503.227 163.719 503.675 167.303 498.075 180.295C494.939 187.463 493.371 188.807 487.771 188.359C484.187 188.135 480.827 187.015 480.379 186.119C478.363 182.759 470.523 184.327 470.523 187.911C470.523 190.823 471.195 191.047 473.435 189.031C475.675 187.239 477.691 187.687 481.275 191.271C486.651 195.975 487.771 203.367 483.739 205.831C482.395 206.503 481.723 210.087 482.619 213.447C483.291 217.927 482.843 220.167 480.379 221.063C478.587 221.735 476.795 221.063 476.347 219.495C469.851 196.871 463.803 189.927 459.995 201.127C458.203 206.727 458.203 206.727 455.291 202.247C452.827 198.215 453.275 196.871 458.427 192.167C461.787 189.031 465.147 187.239 466.267 187.911C467.387 188.583 468.283 187.239 468.283 184.775C468.283 182.535 468.955 179.847 470.075 178.951C470.971 178.055 471.643 176.487 471.867 175.815C471.867 174.919 472.763 172.455 473.659 170.439C476.795 163.495 462.011 153.415 458.203 159.687C457.307 161.031 452.379 161.927 447.227 161.703C442.075 161.255 436.699 161.927 435.355 162.599C433.787 163.495 432.219 162.151 431.099 159.239C429.755 154.759 429.307 154.759 426.843 158.119C424.827 160.807 423.707 161.255 421.691 159.239C416.539 154.087 418.555 150.279 425.723 151.847C430.203 152.743 432.443 152.519 432.443 150.727C432.443 148.935 434.459 148.487 438.043 149.383C441.179 150.279 450.811 149.383 459.771 147.367C468.731 145.575 478.363 144.007 481.275 144.007C483.963 144.007 486.203 143.111 486.203 142.215C486.203 139.527 494.043 130.567 496.507 130.567C497.627 130.567 500.987 128.551 504.123 126.087C510.171 121.383 515.995 123.847 513.755 129.895C512.635 132.359 513.083 133.031 515.099 131.911C516.667 130.791 517.339 128.103 516.667 125.639C515.995 122.503 517.339 119.591 520.475 116.903C526.523 111.975 533.243 111.527 533.243 116.007ZM412.283 137.287C412.283 142.439 411.387 144.007 407.803 144.007C402.651 144.007 401.755 137.511 406.011 133.255C410.267 128.999 412.283 130.119 412.283 137.287ZM507.259 142.887C505.243 146.023 504.123 150.055 505.019 151.847C506.587 156.103 504.347 162.375 501.659 160.807C500.763 160.135 496.283 161.031 491.803 162.823C483.739 166.183 483.291 165.063 489.787 157.447C491.579 155.655 496.059 150.279 500.091 145.575C508.379 136.167 512.859 134.375 507.259 142.887ZM415.419 150.055C416.315 152.071 416.091 154.535 415.195 155.431C412.507 157.895 403.323 153.415 403.323 149.607C403.323 144.903 413.627 145.127 415.419 150.055ZM349.563 151.847C354.267 156.103 366.811 158.343 388.315 158.343C397.723 158.567 405.563 159.015 405.563 159.687C405.563 160.583 404.219 162.375 402.875 163.943C400.635 166.407 400.635 167.079 402.651 167.975C404.891 168.871 404.667 169.767 402.427 172.231C400.635 174.023 398.171 175.367 396.827 175.367C395.707 175.367 392.571 178.279 389.883 182.087C387.195 185.671 383.611 188.807 381.819 188.807C380.027 188.807 378.683 189.703 378.683 190.823C378.683 192.167 375.995 191.495 372.635 189.927C367.931 187.463 366.139 187.239 364.795 189.479C362.331 193.511 341.051 192.615 336.571 188.135C333.211 184.775 333.435 184.103 338.363 178.727C341.275 175.591 345.531 173.127 347.771 173.127C353.147 173.127 352.923 170.439 347.323 166.855C341.723 163.495 341.499 159.239 346.875 161.255C349.787 162.375 349.563 161.479 345.755 156.999C342.843 154.087 340.603 150.951 340.603 150.055C340.603 147.367 345.755 148.263 349.563 151.847ZM470.523 171.783C468.731 173.575 462.683 173.799 439.163 173.351C434.683 173.127 432.443 172.007 432.443 169.767C432.443 165.735 441.627 163.271 449.915 164.839C453.275 165.511 457.755 164.839 460.219 163.047C463.803 160.359 464.923 160.583 468.507 164.839C470.747 167.527 471.643 170.663 470.523 171.783ZM411.387 176.711C409.147 178.279 406.011 181.415 404.443 183.655C401.307 187.463 401.307 187.463 401.083 182.759C401.083 176.487 406.907 170.663 411.611 172.455C414.747 173.799 414.747 174.023 411.387 176.711ZM395.707 195.975C393.691 198.663 392.123 200.231 392.123 199.111C392.123 198.215 388.539 199.559 384.283 202.247C380.027 204.935 375.547 206.503 374.203 205.607C372.859 204.935 371.291 205.831 370.619 207.847C369.499 210.311 371.515 213.671 376.667 217.927C380.923 221.511 385.403 224.423 386.523 224.423C387.867 224.423 384.731 221.063 380.027 216.807C372.859 210.535 371.963 208.967 375.547 208.967C378.011 208.967 382.043 207.399 384.507 205.607C386.747 203.815 390.331 202.247 392.347 202.247C394.363 202.247 397.275 199.783 398.843 196.647C401.979 190.599 404.667 189.927 410.043 193.287C412.955 195.079 412.955 195.751 410.267 197.543C407.803 199.111 408.027 199.783 411.163 201.575C413.179 202.695 414.747 204.263 414.523 204.711C414.299 205.831 416.091 212.103 419.227 219.719C420.347 222.631 421.243 227.111 421.243 229.799C421.019 234.055 420.795 234.279 418.331 231.367C416.763 229.351 413.851 228.231 411.835 228.679C408.923 229.127 408.251 228.455 409.147 225.991C409.819 223.975 409.371 222.407 408.027 222.407C406.683 222.407 405.563 224.199 405.563 226.663C405.563 228.903 404.219 232.039 402.427 233.607C399.739 235.623 397.723 235.175 392.795 231.591C385.403 226.215 371.963 222.855 371.963 226.439C371.963 229.351 363.227 228.007 360.091 224.871C358.747 223.527 354.715 223.303 350.907 223.975C344.635 225.319 344.187 225.095 347.099 221.735C350.459 217.703 350.011 216.807 338.811 204.487C332.987 197.991 333.435 194.407 340.155 194.855C342.843 194.855 345.307 195.303 345.755 195.527C348.219 197.543 358.523 196.647 363.451 193.735C368.155 191.047 370.171 190.823 372.635 192.839C376.891 196.423 387.867 191.047 393.691 182.535L397.723 176.487L398.395 183.655C398.843 187.687 397.499 193.287 395.707 195.975ZM264.891 192.615C267.579 195.975 264.891 196.423 260.411 193.511C258.395 192.391 257.947 189.703 259.291 185.223C260.859 178.727 261.083 178.727 261.755 184.327C262.203 187.463 263.771 191.271 264.891 192.615ZM171.259 189.255C178.875 191.271 182.235 193.735 186.267 200.679C189.179 205.383 193.435 210.311 195.675 211.431C199.707 213.671 200.827 219.271 197.467 220.615C193.883 221.735 192.315 235.847 195.451 235.847C197.243 235.847 196.571 236.967 194.555 238.311C192.315 239.431 190.523 242.567 190.523 244.807C190.523 247.047 188.731 250.183 186.715 251.527C183.131 253.543 183.355 253.767 188.283 253.319C192.539 252.871 193.659 251.527 193.435 247.495C192.987 244.583 194.331 241.895 196.123 241.223C197.915 240.327 199.483 238.311 199.483 236.743C199.483 234.279 200.827 234.727 204.411 238.087C207.099 240.551 211.579 242.567 214.491 242.567C217.403 242.567 221.883 243.911 224.347 245.255C228.379 247.943 229.499 247.271 234.427 241.447C238.235 236.743 239.803 235.847 239.803 238.311C239.803 242.343 245.627 245.703 248.987 243.463C252.795 241.223 285.499 240.999 288.411 243.015C292.219 246.151 295.131 243.463 296.923 235.847C297.819 232.039 299.611 229.127 301.403 229.127C304.539 229.127 315.963 215.239 315.963 211.431C315.963 210.311 314.171 208.071 312.155 206.727C308.347 204.263 308.347 204.263 312.155 205.383C314.619 206.055 317.531 206.055 318.875 205.159C324.027 202.023 335.003 204.935 340.155 210.535C346.427 217.927 346.427 219.047 339.483 225.991C336.347 229.127 333.883 234.055 333.883 236.967C333.883 240.551 332.315 242.791 328.955 243.911C326.043 244.583 322.011 246.823 319.995 248.839C315.291 252.647 314.619 264.071 318.875 265.863C320.219 266.535 318.651 266.311 315.067 265.639C309.243 264.519 308.795 264.743 310.363 268.551C313.947 277.287 314.171 283.111 311.035 286.919C304.539 294.311 304.091 297.447 310.139 291.847C315.291 287.367 316.187 284.679 315.515 277.959C314.843 270.567 315.515 269.447 320.443 268.327C325.595 266.983 325.819 266.535 322.235 264.071C318.875 261.607 318.651 260.039 320.667 253.991C322.683 248.615 324.251 247.271 327.387 248.167C330.523 249.287 332.539 247.271 336.571 238.759C342.619 226.215 347.771 224.647 363.451 229.799C371.739 232.711 373.307 232.711 374.875 230.023C376.443 227.335 377.787 227.335 384.731 230.247C395.707 234.951 395.931 235.399 390.107 239.431C386.747 241.895 385.403 244.583 386.075 247.271C387.643 253.095 378.459 266.087 372.859 266.087C370.395 266.311 364.571 269.895 359.867 274.599C351.131 283.335 347.547 284.455 340.827 280.199C335.899 277.287 329.403 280.871 329.403 286.471C329.403 288.263 327.163 289.607 323.803 289.607C320.667 289.607 317.531 291.175 316.859 292.967C313.947 300.135 300.283 302.375 300.283 295.655C300.283 294.311 297.595 290.503 294.235 286.919L288.411 280.871L293.563 276.615C298.715 272.583 298.715 272.135 295.131 268.551C292.667 266.087 291.771 262.727 292.667 259.367C293.339 256.455 292.891 252.199 291.323 249.959C289.083 246.375 288.859 246.599 289.979 251.303C290.651 254.439 289.979 258.247 288.635 259.815C286.843 262.055 287.515 264.295 291.323 268.327C295.579 272.807 295.803 273.927 292.891 273.927C291.099 273.927 288.635 275.943 287.963 278.407C286.171 284.231 281.467 284.231 283.035 278.407C283.707 276.167 282.587 272.807 280.795 271.463C278.107 268.999 277.883 269.671 279.227 275.271C279.899 278.855 282.139 282.663 284.155 284.007C291.995 288.935 298.267 296.775 297.147 299.687C296.475 301.703 297.371 303.047 299.163 303.047C300.955 303.047 302.523 304.615 302.523 306.407C302.523 308.199 303.643 309.767 304.763 309.767C306.107 309.767 307.003 308.199 307.003 306.407C307.003 304.615 310.363 301.479 314.395 299.463C318.203 297.447 322.235 294.759 322.907 293.639C323.579 292.519 324.923 291.623 325.819 291.623C330.075 292.295 331.195 291.399 332.315 287.143C333.435 283.335 334.555 282.663 338.811 284.007C341.723 284.903 345.755 285.575 347.995 285.799C350.011 286.023 351.803 286.247 351.803 286.247C351.803 286.471 343.739 293.415 333.883 301.927C324.027 310.439 315.963 318.503 315.963 320.295C315.963 321.863 312.827 323.879 309.019 324.775C305.211 325.447 301.627 327.463 300.955 329.031C300.283 330.823 297.371 332.167 294.459 332.167C287.067 332.167 283.931 339.559 285.051 355.015C285.723 364.199 285.051 368.903 283.035 370.695C281.467 372.039 280.123 374.055 280.123 375.175C280.123 376.519 281.691 376.295 283.483 374.727C285.499 373.159 287.515 372.487 288.411 373.159C289.979 374.951 285.051 387.943 280.795 392.871C278.555 395.559 278.107 400.263 278.779 408.999C279.675 418.855 279.451 421.319 276.987 420.423C273.851 419.303 267.803 426.919 266.459 433.863C266.011 436.327 263.547 438.343 261.083 438.791C256.379 439.463 251.003 445.511 251.003 449.991C251.003 453.575 242.267 456.487 239.803 453.799C238.683 452.903 239.355 447.975 240.923 443.047C243.163 436.999 243.387 433.863 241.819 432.743C240.027 431.847 240.027 429.831 241.819 426.695C244.507 421.767 241.819 417.959 237.563 420.647C236.219 421.319 235.323 419.751 235.323 416.839C235.323 413.927 233.755 408.775 231.963 405.415C230.171 402.055 229.723 399.815 230.843 400.487C232.187 401.383 233.083 400.711 233.083 399.591C233.083 398.247 231.515 397.127 229.723 397.127C225.467 397.127 225.467 399.367 229.723 407.431C231.515 411.015 233.083 416.839 233.083 420.423C233.083 424.903 233.979 426.471 236.219 425.575C238.683 424.679 239.131 426.919 238.459 436.999C238.011 443.719 236.891 449.991 236.443 450.663C234.651 452.231 228.827 443.719 227.259 437.447C224.123 423.335 216.731 402.279 213.147 397.127C210.907 393.991 207.995 389.063 206.427 385.927C203.963 381.223 204.411 381.447 210.235 387.495C214.043 391.527 218.523 394.887 220.091 394.663C221.659 394.663 220.763 393.543 218.075 392.199C215.163 390.855 212.475 387.943 211.803 385.927C211.131 383.687 208.667 380.327 206.203 378.087C203.739 375.847 201.723 371.591 201.723 368.679C201.723 365.767 198.587 356.807 194.779 348.743C190.971 340.679 188.731 333.287 189.627 332.391C190.523 331.719 191.643 332.391 192.091 333.735C194.107 339.335 196.571 336.647 198.139 327.911C199.707 318.055 205.979 312.007 214.715 312.007C217.851 312.007 219.419 311.111 218.523 309.767C214.939 303.943 193.883 315.591 196.347 321.863C197.019 323.431 195.899 326.119 193.883 327.687C188.059 332.615 184.475 326.567 181.563 306.855C177.083 275.719 176.411 270.791 176.635 262.727C176.859 258.471 176.859 252.199 176.859 249.063C177.083 245.479 179.547 241.671 183.803 238.535C190.747 233.383 192.763 226.887 187.611 226.887C185.819 226.887 182.683 228.903 180.443 231.367C175.739 236.743 170.139 233.831 174.619 228.455C176.635 225.767 176.411 224.871 173.947 223.975C169.915 222.407 164.987 228.007 166.555 232.263C168.347 236.743 161.179 242.567 152.219 243.911C143.259 245.255 142.587 244.807 131.611 231.143L123.323 220.839L129.819 220.615C138.331 220.391 145.723 216.359 145.723 212.327C145.723 208.295 145.947 208.295 136.987 211.431C123.995 215.911 113.019 203.815 121.307 193.735C124.443 189.703 126.235 189.255 130.715 190.823C137.883 193.511 155.355 192.615 156.475 189.255C157.595 185.895 158.939 185.895 171.259 189.255ZM77.8506 254.215C79.8666 255.783 79.4186 258.023 75.6106 263.175C70.9066 269.671 70.6826 271.463 70.0106 341.799C69.7866 381.447 68.8906 414.151 68.4426 414.823C65.7546 417.287 65.3066 411.015 65.0826 372.935C64.8586 335.975 64.4106 331.719 60.3786 326.567C54.7786 319.847 50.9706 319.399 44.9226 325.447C40.8906 329.479 40.4426 332.839 40.4426 369.575C40.4426 404.519 38.6506 418.631 35.0666 415.047C34.1706 414.151 31.9306 326.791 31.4826 281.095C31.4826 268.999 30.5866 266.311 25.8826 261.607C21.4026 257.575 20.7306 256.007 22.9706 254.439C29.9146 249.959 72.4746 249.735 77.8506 254.215Z" fill="#EFEFEF"/>
<path d="M253.915 271.687C251.003 275.047 248.763 279.079 248.763 280.199C248.763 281.319 246.523 283.783 243.835 285.799C240.923 287.591 235.547 292.295 231.515 296.327C226.363 301.479 223.003 303.047 219.643 301.927C217.179 301.255 215.163 301.479 215.163 302.599C215.163 303.719 217.851 305.287 220.987 305.959C225.019 306.631 227.483 305.735 229.275 302.823C230.843 300.359 232.635 298.567 233.755 298.567C234.651 298.567 238.011 295.879 241.147 292.295L246.747 286.247L245.403 292.967C244.507 296.551 243.611 305.511 243.387 312.455C243.163 322.311 242.043 325.895 238.907 328.359C235.995 330.375 235.099 332.839 236.219 335.527C237.115 337.991 236.667 340.455 235.099 341.351C233.083 342.471 232.859 345.831 234.427 353.671C236.219 363.751 236.891 364.423 244.283 365.319C258.171 366.887 266.907 382.791 253.915 382.567C248.763 382.567 247.419 383.687 246.971 388.615C246.523 392.647 244.507 394.887 240.699 395.783C237.787 396.679 235.323 398.023 235.323 399.143C235.323 400.263 238.011 400.487 241.595 399.591C246.075 398.471 247.867 396.231 248.763 391.303C249.883 385.703 251.003 384.807 256.155 385.479C260.411 385.927 262.203 385.031 262.203 382.567C262.203 380.103 263.771 379.207 267.355 379.431C272.955 380.327 277.883 377.863 277.883 374.055C277.883 372.263 277.211 372.263 275.195 374.279C270.715 378.759 265.563 377.191 259.067 369.351C255.483 364.871 251.675 361.959 249.883 362.631C248.091 363.303 244.507 362.183 241.595 360.167C238.235 357.479 237.787 356.807 240.475 357.479C245.627 359.495 245.179 357.255 239.355 352.327C235.099 348.967 234.651 347.623 237.115 345.383C238.459 343.815 239.803 339.559 239.803 335.975C239.803 329.479 240.027 329.479 248.539 330.823C253.691 331.495 257.947 331.271 258.843 329.927C259.739 328.583 261.307 328.135 262.427 328.807C263.547 329.703 264.443 329.031 264.443 327.911C264.443 324.999 258.395 324.551 256.827 327.463C253.691 332.391 247.419 327.239 246.971 319.399C246.523 314.919 245.851 310.439 245.179 309.543C244.731 308.647 245.179 307.303 246.299 306.631C248.091 305.511 248.763 300.583 248.987 289.159C248.987 286.919 249.883 284.679 251.227 284.007C252.347 283.111 253.243 280.871 253.243 278.631C253.243 273.255 263.547 267.655 267.131 271.239C270.491 274.599 275.643 274.599 275.643 271.239C275.643 269.895 274.971 269.447 274.299 270.119C273.403 270.791 270.715 270.119 268.027 268.327C261.755 263.847 259.515 264.295 253.915 271.687Z" fill="#EFEFEF"/>
<path d="M292.442 311.335C288.858 312.007 284.826 313.799 283.93 315.591C283.034 317.383 280.57 318.727 279.002 318.727C277.21 318.727 273.626 320.743 271.162 323.207C266.906 327.463 266.906 327.688 270.938 327.688C273.178 327.688 275.642 326.343 276.314 324.551C276.986 322.759 280.794 320.743 284.826 319.847C288.858 318.951 294.01 316.263 296.698 314.023C299.162 311.559 300.73 309.991 300.058 309.991C299.61 310.215 296.25 310.887 292.442 311.335Z" fill="#EFEFEF"/>
<path d="M41.1147 190.151C18.2667 201.575 27.0027 235.847 52.9867 235.847C72.2507 235.847 83.8987 217.031 74.9387 200.455C70.9067 192.839 60.6027 186.567 52.3147 186.567C50.0747 186.567 45.1467 188.359 41.1147 190.151ZM63.2907 201.575C69.5627 208.743 70.0107 214.567 64.8587 220.839C61.7227 224.871 58.1387 226.887 53.6587 226.887C40.8907 226.887 33.4987 211.207 42.0107 201.799C46.7147 196.647 58.8107 196.423 63.2907 201.575Z" fill="#EFEFEF"/>
<path d="M487.994 351.431C487.098 352.775 485.754 362.855 485.306 373.607C484.634 384.583 483.066 394.439 481.722 395.783C478.362 399.143 479.034 403.847 482.618 403.847C484.858 403.847 486.202 399.591 487.322 390.407C488.666 378.983 489.338 377.191 492.026 379.431C494.49 381.447 495.162 380.775 495.162 375.623C495.162 370.695 494.49 370.023 492.922 372.487C491.578 374.727 490.682 371.591 490.234 362.407C489.786 355.015 488.89 350.087 487.994 351.431Z" fill="#EFEFEF"/>
<path d="M494.49 439.687C496.506 443.271 499.194 446.407 500.314 446.407C501.21 446.407 504.122 451.111 506.81 456.935C511.066 466.343 511.738 467.015 512.634 462.311C513.082 458.727 511.962 455.591 509.722 453.799C507.482 452.455 505.69 448.871 505.466 445.959C505.466 443.047 503.898 440.807 502.33 440.807C500.538 440.807 498.074 439.015 496.506 436.775C491.578 430.279 490.234 432.519 494.49 439.687Z" fill="#EFEFEF"/>
</svg>
