<svg width="600" height="600" viewBox="0 0 600 600" fill="none" xmlns="http://www.w3.org/2000/svg">
<path d="M545.742 174.756C546.48 174.533 548.068 174.563 548.039 175.623C547.102 178.939 546.873 182.402 546.135 185.766C542.525 203.338 537.293 220.518 532.939 237.908C531.287 244.822 529.359 251.689 528.428 258.75C526.998 271.301 528.311 283.922 528.451 296.502C528.463 298.09 528.639 299.672 528.756 301.266C527.83 301.248 526.904 301.23 525.99 301.213C525.721 299.982 525.557 298.74 525.387 297.504C524.484 297.803 523.564 297.984 522.621 297.814C522.609 298.963 522.609 300.111 522.603 301.266C520.969 300.891 519.293 300.99 517.646 301.131C517.494 300.012 517.348 298.893 517.195 297.779C512.66 299.525 507.041 298.623 503.332 302.297C505.424 303.264 507.328 305.062 509.766 304.963C517.377 304.939 525 305.074 532.611 304.635C538.295 304.441 544.014 304.559 549.662 303.926C548.9 305.49 547.119 305.977 545.514 305.93C533.244 306.428 520.951 306.937 508.67 306.697C508.781 308.004 510.434 310.271 508.734 310.898C509.004 310.875 509.537 310.84 509.801 310.822C511.336 320.508 513.041 330.158 514.523 339.85C514.758 340.799 514.359 341.707 513.316 341.807C510.756 329.93 509.057 317.889 506.777 305.959C505.775 305.619 504.773 305.291 503.771 304.98C506.637 317.508 508.195 330.328 511.705 342.703C512.174 344.367 514.154 344.707 515.643 344.619C524.309 344.461 532.992 344.391 541.641 343.688C541.518 340.23 542.385 336.855 542.895 333.463C543.609 329.473 544.254 325.471 545.039 321.492C545.25 321.463 545.684 321.393 545.9 321.363L545.607 321.158C544.734 320.42 545.619 319.072 545.607 318.123C546.586 314.074 546.855 309.727 548.496 305.906C548.777 305.842 549.334 305.713 549.615 305.648C549.469 309.07 548.443 312.41 547.793 315.773C546.457 322.822 545.191 329.889 544.148 336.99C544.014 339.592 543.023 342.023 542.625 344.578C542.584 345.539 541.529 345.791 540.768 345.891C538.646 346.195 536.461 345.609 534.404 346.318C531.287 346.078 528.176 346.57 525.059 346.529C522.299 346.811 519.527 346.43 516.773 346.752C514.119 346.887 510.656 346.26 510.076 343.148C506.303 329.555 503.971 315.592 501.398 301.729C503.408 299.227 506.701 297.826 509.871 297.475C512.145 297.281 514.377 296.637 516.68 296.73C516.404 287.877 516.668 278.994 515.748 270.176C514.518 263.156 508.963 258.27 504.035 253.641C500.461 250.166 496.828 246.656 494.074 242.467C493.383 241.617 493.77 240.51 493.822 239.549C494.303 239.555 495.258 239.561 495.732 239.566C499.904 241.195 503.795 243.486 507.469 246.035C510.768 248.355 513.275 251.578 515.555 254.859C517.242 257.607 518.924 260.455 519.662 263.631C520.986 268.822 520.377 274.219 520.166 279.498C520.078 283.4 519.738 287.297 519.844 291.205C520.113 293.725 520.471 296.232 520.652 298.764C520.852 295.061 520.576 291.357 520.723 287.648C520.699 278.525 522.779 269.045 519.68 260.191C517.453 255.047 514.225 250.295 510.082 246.498C505.98 243.246 501.562 240.234 496.553 238.588C496.254 237.838 497.168 236.789 497.994 237.076C503.994 237.955 509.35 241.107 514.283 244.471C517.219 246.439 519.346 249.357 520.734 252.586C520.641 250.371 519.504 248.414 518.766 246.381C516.398 240.234 515.853 233.602 513.85 227.35C511.547 219.451 507.064 212.484 503.086 205.371C501.199 202.635 499.781 199.6 498.469 196.559C498.064 194.549 496.992 192.141 498.486 190.324C499.084 189.387 500.332 189.65 500.994 190.371C508.178 197.672 513.756 206.561 517.213 216.205C519.094 221.543 520.547 227.021 521.701 232.564C522.158 234.516 522.375 236.596 523.471 238.336C522.727 243.439 521.977 248.555 521.619 253.705C521.484 259.172 521.854 264.639 521.883 270.105C522.551 278.807 522.182 287.549 522.521 296.268C523.406 296.484 524.303 296.736 525.193 296.982C525.797 284.08 523.523 271.266 523.471 258.369C523.605 245.684 526.072 233.162 529.242 220.922C530.666 215.643 531.709 210.252 533.514 205.084C535.816 196.518 538.945 188.186 542.021 179.854C542.76 177.879 543.738 175.723 545.742 174.756Z" fill="#EFEFEF"/>
<path d="M501.908 189.72C501.504 188.619 502.805 188.742 503.355 189.152C508.564 191.683 513.381 195.181 516.902 199.822C521.238 205.623 524.039 212.378 526.477 219.152C526.904 220.453 527.508 221.847 527.01 223.224C526.107 226.306 525.176 229.382 524.566 232.541C524.303 233.419 524.379 234.509 523.547 235.095C522.205 227.824 520.102 220.722 517.541 213.796C514.113 204.779 508.57 196.646 501.908 189.72Z" fill="#EFEFEF"/>
<path d="M145.916 236.724C153.258 231.714 161.666 227.94 170.496 226.681C170.936 227.396 171.123 228.216 171.369 229.013C172.031 229.165 172.699 229.37 173.385 229.358C180.287 229.247 186.943 231.884 192.762 235.429C195.152 236.917 197.713 238.241 199.74 240.233C200.596 240.872 200.73 242.167 200.244 243.075C199.934 243.655 199.594 244.218 199.266 244.792C198.92 244.716 198.24 244.569 197.9 244.493C198.158 243.632 198.434 242.788 198.697 241.938C192.563 237.005 185.443 232.851 177.574 231.556C175.242 231.046 172.852 231.614 170.514 231.233C169.354 231.063 169.201 229.745 168.768 228.89C163.465 229.927 158.326 231.767 153.522 234.239C148.922 236.343 144.328 239.202 141.809 243.749C140.701 245.847 139.084 247.868 139.119 250.358C137.473 250.388 138.381 248.642 138.516 247.798C139.775 243.485 142.23 239.372 145.916 236.724Z" fill="#EFEFEF"/>
<path d="M374.713 344.291C378.199 343.013 383.631 344.871 383.473 349.218C383.607 353.595 378.211 356.249 374.537 354.369C372.105 353.29 370.582 350.179 371.754 347.683C372.381 346.312 373.248 344.876 374.713 344.291Z" fill="#EFEFEF"/>
<path d="M548.127 179.701C548.455 181.898 548.232 184.131 548.332 186.346C548.314 193.371 548.625 200.391 548.519 207.41C547.506 217.523 545.238 227.461 542.402 237.205C540.949 244.066 537.92 250.441 536.127 257.203C534.299 262.5 532.793 267.99 532.687 273.621C532.646 276.75 531.803 279.85 532.336 282.979C532.318 277.928 533.502 273 534.135 268.02C535.893 260.127 538.518 252.451 541.324 244.881C542.971 239.848 543.984 234.645 545.607 229.611C546.135 227.977 546.158 226.189 546.914 224.643C547.57 224.555 548.238 224.496 548.918 224.473C549.211 233.438 549.094 242.426 549.035 251.396C547.066 258.803 542.455 265.049 539.144 271.863C536.894 276.381 534.574 280.975 533.689 285.99C533.256 289.219 533.279 292.488 533.32 295.74C536.127 295.371 538.787 296.49 541.471 297.152C544.23 297.85 546.762 299.35 548.906 301.207C549.662 301.857 549.574 302.918 549.82 303.814C549.451 303.803 548.707 303.779 548.338 303.773C547.33 302.168 545.941 300.844 544.154 300.164C540.902 298.834 537.486 297.51 533.918 297.609C533.883 299.063 533.824 300.516 533.742 301.975C532.148 301.67 529.137 302.613 529.236 300.105C530.93 299.83 528.867 298.57 529.16 297.656C529.435 285.363 528.105 273.059 529.09 260.783C530.549 249.217 534.047 238.049 536.719 226.729C540.299 214.523 543.381 202.172 546.287 189.785C547.225 186.486 547.488 183.059 548.127 179.701Z" fill="#EFEFEF"/>
<path d="M397.98 345.041C401.449 346.969 402.873 350.748 404.279 354.217C407.678 354 411.176 354.422 414.428 355.447C418.102 357.082 418.535 361.594 421.195 364.195C424.676 361.957 429.135 361.734 433.02 362.936C434.789 363.445 436.084 364.816 437.232 366.182C437.848 369.82 439.641 373.189 441.627 376.266C444.92 375.984 448.359 376.717 451.102 378.615C452.391 379.494 453.059 380.959 454.055 382.125C480.246 382.828 506.443 383.08 532.641 383.52C539.273 383.502 545.924 383.889 552.545 383.707C553.852 383.203 554.197 384.715 554.461 385.623C553.02 385.57 551.578 385.125 550.16 385.5C536.537 385.16 522.897 385.143 509.268 385.031C509.104 392.326 509.168 399.621 509.127 406.922L508.904 407.443C508.57 407.426 507.908 407.385 507.58 407.367C507.551 399.891 507.475 392.408 507.779 384.932C498.293 384.75 488.801 384.662 479.309 384.521C471.076 384.41 462.809 384.732 454.611 383.812C457.371 390.539 457.711 398.021 460.811 404.648C463.553 410.637 467.889 415.811 472.904 420.041C473.496 420.615 474.223 421.096 474.598 421.869C474.486 422.795 473.484 424.307 472.5 423.316C465.744 417.387 459.457 410.314 456.891 401.508C454.787 395.654 454.535 389.256 451.898 383.59C450.762 381.035 448.342 379.336 445.699 378.627C446.707 379.887 447.844 381.041 448.945 382.23C448.529 382.811 448.295 383.572 447.645 383.947C446.15 383.133 445.324 381.434 443.73 380.713C440.947 379.277 438.797 376.881 437.473 374.057C435.926 371.314 435.393 367.828 432.838 365.777C429.809 364.729 426.205 364.688 423.434 366.475C423.117 367.172 422.807 367.875 422.496 368.578C419.643 366.949 417.656 364.207 416.221 361.318C415.529 360.129 415.066 358.559 413.643 358.072C410.725 356.953 407.566 356.66 404.49 356.314C405.756 363.838 405.697 371.496 405.504 379.102C405.305 384.176 403.57 389.039 401.156 393.457C398.9 397.77 396.146 402.533 391.318 404.262C387.018 404.941 382.711 403.465 378.861 401.666C375.416 400.266 372.34 398.156 369.053 396.457C369.275 396.328 369.721 396.082 369.943 395.953C369.99 395.654 370.084 395.062 370.131 394.764C375.914 397.828 381.838 401.367 388.5 401.912C391.682 402.369 394.049 399.785 395.818 397.523C398.191 394.219 399.955 390.492 401.385 386.695C402.996 382.424 402.973 377.795 402.967 373.301C402.979 367.289 402.873 361.219 401.59 355.324C400.922 351.844 399.223 348.398 396.018 346.611C396.422 346.471 397.242 346.195 397.652 346.055C397.734 345.803 397.898 345.293 397.98 345.041Z" fill="#EFEFEF"/>
<path d="M334.553 377.321C337.201 377.79 339.885 378.153 342.586 377.948C342.644 380.585 344.016 382.917 344.373 385.483C344.35 386.808 342.68 387.153 341.625 387.183C338.701 387.2 335.754 387.171 332.871 386.673C331.588 386.462 330.287 385.091 331.131 383.796C332.344 381.675 333.539 379.542 334.553 377.321Z" fill="#EFEFEF"/>
<path d="M92.2207 200.039C95.4199 196.611 100.102 194.461 104.842 194.976C111.135 195.738 116.689 199.184 121.559 203.057C122.297 203.736 123.533 203.971 123.92 204.967C123.621 207.152 122.35 208.945 121.148 210.715C125.666 210.703 129.826 213.24 132.293 216.943C136.014 221.666 136.951 227.812 137.215 233.642C136.928 233.666 136.348 233.719 136.061 233.748C136.453 233.824 136.84 233.9 137.238 233.988C137.268 241.781 133.277 249.609 126.486 253.605C125.643 254.197 124.506 254.519 123.955 255.434C124.389 257.373 125.725 259.424 125.021 261.428C123.346 263.174 120.803 261.767 119.215 260.59C115.043 257.555 114.228 252.035 110.795 248.396C106.166 243.392 100.066 240.029 95.3671 235.107C93.4277 232.166 92.8769 228.475 90.7265 225.633C89.8828 224.678 88.9336 223.805 88.2656 222.715C88.705 221.361 89.2265 220.043 89.9824 218.836C88.5351 218.297 86.6132 217.893 86.0625 216.234C85.3359 210.228 88.1484 204.31 92.2207 200.039ZM101.051 196.869C101.268 199.453 103.482 201.545 102.996 204.217C104.631 204.434 104.789 206.221 105.334 207.451C108.75 216.269 112.488 224.959 116.18 233.66C118.617 238.951 120.967 244.301 122.701 249.873C123.076 251.139 123.117 252.475 123.264 253.787C126.855 251.478 130.389 248.783 132.434 244.934C136.195 238.623 135.756 230.789 133.852 223.957C131.783 224.449 129.709 224.994 127.564 224.971C127.529 224.543 127.453 223.682 127.412 223.254C129.375 222.937 131.35 222.691 133.342 222.621C131.607 218.584 128.742 214.312 124.26 213.117C122.268 212.643 119.092 213.498 118.318 210.943C119.238 209.162 120.844 207.844 121.822 206.092C118.465 203.185 114.943 200.285 110.719 198.756C107.625 197.654 104.391 196.547 101.051 196.869ZM89.2558 207.574C88.1718 210.158 87.1523 213.182 88.166 215.947C89.707 217.389 92.4199 216.814 93.7324 218.631C93.955 219.967 92.3613 219.978 91.5234 220.418C91.1601 221.162 89.6953 221.959 90.6152 222.803C94.0371 225.861 95.0039 230.613 97.1425 234.486C101.824 238.406 106.898 241.869 111.398 246.006C114.064 248.414 115.547 251.748 117.123 254.9C118.353 257.373 120.281 259.84 123.135 260.432C122.338 256.91 121.365 253.43 120.41 249.955C118.23 242.566 114.674 235.705 111.814 228.58C108.961 221.426 105.867 214.359 103.371 207.07C102.504 203.783 100.834 200.795 99.8261 197.56C94.9101 198.779 91.3593 203.162 89.2558 207.574Z" fill="#EFEFEF"/>
<path d="M235.828 216.147C236.127 214.512 237.012 212.362 239.062 212.661C247.055 212.807 255.053 212.866 263.039 213.012C265.43 212.503 267.732 213.669 270.1 212.971C271.863 213.335 273.621 213.276 275.396 213.048C280.236 213.505 285.1 213.059 289.939 213.575C294.451 212.93 299.01 213.581 303.545 213.446C322.67 213.182 341.795 213.235 360.92 213.206C366.158 213.376 371.455 212.801 376.652 213.557C390.732 213.176 404.818 213.78 418.898 213.405C422.033 213.329 425.42 212.385 428.396 213.721C430.471 214.87 429.486 217.301 429.428 219.153C430.031 232.231 429.357 245.321 429.387 258.405C429.182 260.362 429.879 262.419 429.053 264.282C429.176 264.557 429.422 265.114 429.545 265.389C429.088 266.954 429.105 268.559 429.346 270.165C429.152 270.364 428.766 270.762 428.572 270.962C428.994 271.577 429.551 272.21 429.381 273.036C429.211 282.071 429.51 291.147 429.322 300.159C430.705 301.225 432.533 300.991 434.174 301.167C442.658 301.571 451.166 301.266 459.656 301.454C459.656 300.546 459.65 299.637 459.668 298.741C462.838 297.411 465.85 295.559 469.307 295.067C474.404 294.997 479.508 295.014 484.605 294.821C484.588 295.208 484.547 295.981 484.529 296.362C479.174 296.268 473.736 297.112 468.445 296.221C468.826 303.118 468.797 310.044 468.738 316.946C466.119 312.481 465.17 307.307 463.406 302.491C453.305 302.35 443.186 302.76 433.102 302.309C432.908 303.716 435.275 302.819 436.225 303.235C436.705 303.1 437.186 302.966 437.678 302.831C439.775 303.329 441.943 303.124 444.082 303.135C450.352 302.837 456.627 303.106 462.902 303.1C462.814 303.991 461.953 304.307 461.162 304.26C455.73 304.372 450.311 303.985 444.885 303.921C445.512 306.968 446.689 309.874 448.008 312.68C446.654 313.302 446.707 311.479 446.25 310.7C445.641 308.491 444.258 306.44 444.258 304.108C443.684 304.073 442.529 304.003 441.955 303.962C443.133 307.225 444.709 310.36 445.424 313.776C444.809 313.489 444.434 313.026 444.299 312.393C443.689 310.612 442.939 308.884 442.465 307.061C441.264 307.6 440.432 306.985 439.711 306.048C440.174 307.776 440.619 309.534 441.346 311.186C442.248 310.7 442.289 309.716 442.072 308.843C442.271 309.335 442.441 309.85 442.582 310.378C441.182 311.843 441.943 313.635 442.277 315.364C445.641 315.37 449.004 315.083 452.367 315.264C456.762 315.423 461.174 315.089 465.557 315.598L465.275 316.413C463.535 316.864 461.707 316.671 459.932 316.671C452.121 316.594 444.305 316.647 436.5 316.782C438.064 317.977 440.08 317.303 441.879 317.309C448.869 317.608 455.871 317.339 462.867 317.45C464.543 317.637 466.764 316.512 467.982 318.124C467.889 328.079 467.332 338.028 467.49 347.983C457.371 348.37 447.246 348.13 437.133 348.329C434.707 348.364 432.275 348.382 429.867 348.1C430.096 335.385 429.779 322.659 430.043 309.938C430.061 307.079 430.805 303.868 429.27 301.278C429.088 304.753 429.469 308.221 429.246 311.696C429.193 313.887 428.666 316.05 428.73 318.247C429.164 324.862 429.105 331.495 428.965 338.122C422.326 338.684 415.652 338.268 409.008 338.561C400.037 338.919 391.055 338.391 382.102 338.942C384.984 339.399 387.85 340.466 390.809 340.032C403.494 340.05 416.197 339.803 428.877 339.95C428.853 340.348 428.818 341.157 428.801 341.561C416.689 341.749 404.572 341.637 392.461 341.778C394.166 343.085 396.223 343.811 397.98 345.042C397.898 345.294 397.734 345.803 397.652 346.055C397.242 346.196 396.422 346.471 396.018 346.612C391.676 343.975 386.918 342.065 381.978 340.911C377.051 339.751 371.918 338.819 366.861 339.645C362.748 340.395 359.051 342.446 355.254 344.087C350.654 346.044 346.289 348.552 341.549 350.18C339.135 351.024 336.539 350.913 334.025 350.919C323.865 350.96 313.781 348.944 303.615 349.647C294.012 349.284 284.391 349.219 274.781 349.372C273.434 349.542 272.572 348.341 271.594 347.649C266.584 343.12 259.699 341.35 253.096 341.069C244.383 340.934 235.67 342.639 227.619 345.968C224.877 347.034 222.164 348.733 219.1 348.206C216.686 351.352 214.869 354.891 213.006 358.372C211.061 362.286 208.734 366.048 207.439 370.249C207.117 371.315 206.695 372.352 206.086 373.296C206.514 379.407 208.025 385.946 212.684 390.282C218.016 395.585 225.885 397.565 233.227 396.932C237.803 396.329 242.514 395.479 246.457 392.942C251.168 389.901 255.691 386.38 261.076 384.575C266.332 382.694 272.297 381.13 277.699 383.356C281.361 384.809 283.195 388.975 282.744 392.749C294.914 392.919 307.09 393.13 319.266 393.311C326.449 393.223 333.615 393.751 340.799 393.557C340.928 391.448 341.959 389.309 344.016 388.495C348.234 386.473 352.705 389.016 356.947 389.678C361.781 389.86 365.977 392.555 370.131 394.764C370.084 395.063 369.99 395.655 369.943 395.954C369.721 396.083 369.275 396.329 369.053 396.458C366.135 394.911 363.293 393.217 360.234 391.975C359.684 393.686 358.74 395.427 358.969 397.278C359.027 398.514 359.443 400.079 358.307 400.987C355.723 402.786 353.191 405.704 349.676 404.714C358.072 412.7 363.955 423.007 372.861 430.507C378.469 435.2 384.117 440.069 390.891 443.016C394.406 444.669 398.449 445.073 401.701 447.305C405.627 449.731 406.986 454.425 409.635 457.964C409.359 458.204 408.809 458.69 408.533 458.93C408.82 459.434 409.119 459.95 409.424 460.471C409.16 460.501 408.627 460.559 408.363 460.589C405.129 456.323 403.441 450.223 398.016 448.155C395.062 446.655 392.479 449.491 389.625 449.907C380.531 451.94 370.57 451.676 362.051 447.616C357.949 445.747 354.27 443.046 350.982 439.993C346.26 435.505 343.271 429.364 337.898 425.55C333.773 423.428 329.027 424.741 324.609 424.255C316.729 424.225 308.842 423.932 300.955 423.891C301.037 428.339 301.119 432.786 301.072 437.233C300.639 436.507 300.176 435.803 299.748 435.1C299.666 431.362 299.607 427.624 299.631 423.885C292.512 423.581 285.369 424.009 278.256 423.405C275.092 423.329 271.887 423.563 268.787 422.784C260.35 425.544 254.057 432.188 247.588 437.966C245.285 439.747 243.211 441.938 240.475 443.057C236.502 446.755 231.217 448.659 226.119 450.276C221.238 451.852 215.859 451.946 211.295 454.413C210.996 453.61 210.703 452.813 210.416 452.028C213.932 450.218 217.992 450.059 221.543 448.319C230.367 444.276 237.937 437.895 244.424 430.747C248.332 426.516 251.531 421.688 254.402 416.708C256.693 412.876 258.662 408.628 262.33 405.88C266.033 403.214 270.697 402.135 274.254 399.264C272.906 399.516 271.523 400.219 270.158 399.657C267.832 399.094 266.092 396.768 266.385 394.366C266.637 391.647 268.547 389.45 270.451 387.657C271.852 386.268 273.879 385.923 275.414 384.751C273.48 384.358 271.494 384.106 269.537 384.352C264.258 385.231 259.113 387.065 254.613 389.995C250.441 392.538 246.762 396.065 241.98 397.471C235.002 399.516 227.42 399.997 220.441 397.676C212.783 395.286 206.432 388.694 204.85 380.755C204.217 377.655 203.396 374.251 204.732 371.227C206.25 366.774 208.365 362.567 210.492 358.389L210.328 357.985C205.072 357.464 199.646 356.831 194.467 358.243C190.137 359.608 186.92 363.54 185.883 367.893C185.104 370.565 184.289 373.548 181.928 375.282C178.986 377.403 175.277 377.913 172.107 379.577C169.969 380.591 168.223 382.208 166.482 383.766C166.447 383.397 166.377 382.653 166.342 382.284C165.65 382.477 164.971 382.676 164.291 382.882C165.598 380.837 167.689 379.483 169.664 378.153C173.016 375.973 177.223 375.645 180.498 373.337C182.045 372.305 182.637 370.483 183.229 368.825C168.287 368.901 153.322 368.995 138.369 368.971C138.562 368.362 138.756 367.753 138.955 367.149C153.82 367.108 168.686 366.962 183.545 367.009C184.963 362.854 187.26 358.641 191.373 356.649C193.693 355.196 196.459 355.073 199.113 355.143C203.32 354.581 207.521 355.448 211.67 356.063C213.691 352.817 215.227 349.208 217.916 346.425C218.32 346.442 219.141 346.483 219.545 346.507C223.119 344.514 227.145 343.559 230.83 341.831C226.482 341.427 222.105 341.608 217.746 341.485C217.746 340.958 217.758 340.436 217.764 339.915C220.559 339.95 223.359 340.032 226.154 339.903C226.846 338.321 227.953 336.985 229.066 335.69C231.633 332.743 234.17 329.719 236.121 326.327C236.561 321.323 235.57 316.272 236.355 311.286C235.875 309.106 235.951 306.862 236.045 304.647C236.021 290.233 235.91 275.807 235.822 261.393C235.658 260.385 235.834 259.389 236.086 258.411C235.518 256.483 236.104 254.503 235.887 252.54C235.998 248.344 235.582 244.143 235.922 239.954C235.822 236.755 235.312 233.438 236.162 230.309C235.617 229.155 235.916 227.901 235.893 226.688C235.875 223.173 235.84 219.663 235.828 216.147ZM278.871 219.235C273.809 219.651 268.705 219.405 263.643 219.821C260.73 220.354 257.771 219.88 254.848 220.231C251.309 220.067 247.805 220.735 244.271 220.348C244.02 225.803 244.336 231.264 244.277 236.725C244.078 245.344 244.389 253.964 244.178 262.577C243.943 262.829 243.486 263.333 243.258 263.585L244.236 263.368C244.166 272.344 244.172 281.327 244.143 290.303L243.27 290.268C243.486 290.456 243.932 290.831 244.154 291.018C243.943 294.007 244.354 297.018 243.979 299.995C244.125 300.282 244.412 300.856 244.553 301.143C244.359 301.7 244.166 302.257 243.973 302.825C246.48 302.843 249 302.925 251.502 302.725C251.402 303.012 251.203 303.581 251.104 303.868C250.91 303.85 250.523 303.809 250.33 303.786L250.113 304.307C248.648 304.407 247.184 304.454 245.725 304.559C245.777 304.343 245.895 303.903 245.947 303.686C245.637 304.448 244.822 304.635 244.172 304.981C244.219 306.276 243.545 307.823 244.664 308.848C244.336 309.628 244.014 310.413 243.691 311.198C244.348 312.434 244.371 313.852 244.559 315.212C245.531 313.442 246.334 311.579 247.412 309.868C247.787 310.343 248.162 310.823 248.537 311.309C248.109 311.854 247.676 312.405 247.254 312.956C247.729 313.009 248.689 313.108 249.164 313.161C248.848 314.497 246.691 313.237 246.82 314.503C247.043 314.596 247.5 314.79 247.729 314.889C247.412 315.815 247.477 317.62 246.041 317.409C245.842 316.665 248.098 315.305 246.738 315.1C245.994 315.686 245.643 316.77 244.605 316.911C244.846 317.251 245.092 317.596 245.344 317.954C244.881 318.516 244.43 319.096 243.979 319.677C244.213 319.823 244.687 320.116 244.922 320.257C244.916 319.014 245.438 318.305 246.486 318.13C245.842 319.559 245.033 320.913 244.453 322.378C243.768 325.436 244.863 328.53 244.717 331.624C260.396 331.6 276.094 332.04 291.785 331.7C296.707 331.852 301.635 331.301 306.551 331.7C312.363 331.559 318.182 332.016 323.988 331.782C330.428 331.471 336.879 332.069 343.301 331.565C353.121 331.518 362.947 331.466 372.768 331.325C376.26 331.454 379.775 330.938 383.244 331.542C391.043 331.483 398.93 331.923 406.711 331.167C408.598 331.735 410.537 331.05 412.459 331.19C414.639 331.296 416.801 330.973 418.98 330.938C419.203 328.665 419.057 326.362 419.537 324.124C418.746 320.139 420.398 315.757 419.332 312.012C405.779 311.708 392.209 311.608 378.65 311.28C378.457 312.938 378.527 314.737 377.625 316.214C376.863 317.21 375.457 316.829 374.391 316.923C372.381 316.77 370.236 317.561 368.344 316.635C366.516 315.393 366.879 312.997 366.803 311.098C363.445 310.782 360.041 310.389 356.859 309.241C354.598 308.198 354.018 305.52 352.57 303.716C346.348 304.307 340.055 303.534 333.861 304.319C333.814 303.716 333.937 303.165 334.236 302.661C334.424 302.55 334.799 302.327 334.986 302.216C340.67 302.303 346.359 302.227 352.043 302.005C350.426 297.2 349.312 292.19 349.289 287.104C349.312 285.505 349.043 283.811 349.77 282.317C348.064 277.079 348.674 271.436 350.109 266.221C350.508 265.442 350.584 264.241 351.574 263.966C355.295 263.907 359.021 263.936 362.73 263.602C381.557 262.208 400.447 261.188 419.332 261.628C420.1 259.864 419.736 257.895 419.736 256.038C419.725 249.399 419.801 242.76 419.883 236.122C420.434 230.895 420.047 225.628 420.311 220.354C418.061 219.153 415.494 219.979 413.162 219.188C409.471 219.751 405.744 219.112 402.041 219.323C396.152 219.176 390.24 219.663 384.375 218.995C383.426 219.141 382.5 219.493 381.533 219.376C377.402 219.194 373.266 219.393 369.135 219.311C366.627 219.288 363.902 220.032 361.576 218.807C361.26 218.954 360.627 219.241 360.311 219.382C354.879 219.218 349.441 219.165 344.01 219.264C341.285 218.702 338.461 219.024 335.695 219.194C316.758 218.714 297.785 219.469 278.871 219.235ZM390.252 263.843C377.52 264.3 364.84 265.805 352.102 266.122C350.186 271.712 349.635 278.093 352.09 283.612C353.771 286.559 356.332 288.827 358.787 291.1C359.238 293.702 358.781 296.374 359.197 298.975C358.664 298.77 358.131 298.571 357.603 298.378C357.311 296.186 357.41 293.971 357.328 291.774C356.73 290.854 355.717 290.333 354.902 289.63C353.396 288.528 352.359 286.958 351.047 285.657C351.029 292.319 352.576 298.987 355.371 305.034C355.887 305.966 356.367 307.161 357.434 307.571C358.113 307.759 358.799 307.94 359.49 308.116C359.432 308.227 359.314 308.462 359.256 308.573C364.189 309.839 369.346 309.815 374.408 309.856C388.67 309.85 402.932 310.319 417.193 310.348C418.008 310.272 418.904 310.46 419.684 310.114C419.801 308.567 419.73 307.009 419.76 305.456C417.088 305.38 414.428 305.204 411.762 305.163C411.621 304.788 411.34 304.038 411.205 303.663C414.053 303.598 416.906 303.61 419.76 303.786C419.76 297.833 419.684 291.88 419.754 285.927C419.9 279.874 419.402 273.786 419.895 267.751C419.555 266.286 419.648 264.78 419.584 263.292C412.037 263.391 404.502 263.385 396.967 263.503C395.895 263.76 394.805 263.766 393.791 263.315C392.66 263.784 391.459 263.93 390.252 263.843ZM241.553 295.366C243.281 294.411 241.711 297.294 241.553 295.366ZM431.502 303.528C432.668 308.239 433.025 313.173 434.848 317.702C435.346 317.139 435.68 316.471 436.061 315.833C437.982 314.954 440.162 315.51 442.201 315.341C441 313.313 440.643 310.987 439.998 308.76C439.471 309.505 439.236 310.389 439.072 311.274C438.891 310.635 439.025 309.505 438.152 309.393C438.369 308.591 439.195 308.561 439.81 308.227C439.418 306.979 438.932 305.766 438.428 304.565C439.148 305.309 440.156 306.399 440.543 304.735L440.092 305.995C440.52 306.03 441.369 306.106 441.797 306.141C441.738 305.614 441.627 304.559 441.568 304.032C438.691 304.096 435.814 303.944 432.937 303.962C434.83 307.173 435.516 310.905 436.488 314.456C436.348 314.544 436.066 314.719 435.932 314.807C434.519 313.606 434.936 311.192 433.939 309.61C433.307 307.553 433.289 304.952 431.502 303.528ZM368.385 311.022C367.787 312.434 367.646 314.45 369.187 315.311C371.479 315.78 373.863 315.364 376.189 315.27C377.25 314.35 377.197 312.639 377.291 311.321C374.32 311.268 371.35 311.175 368.385 311.022ZM234.117 332.596C234.035 335.057 232.078 337.003 230.461 338.667C230.549 338.11 230.725 336.991 230.813 336.434C229.998 336.844 229.91 337.624 229.998 338.427C229.512 338.872 229.061 339.358 228.645 339.88C232.687 339.88 236.871 340.583 240.803 339.329C242.83 338.725 244.975 338.848 247.066 338.796C247.061 338.702 247.055 338.514 247.049 338.421C243.486 338.122 239.473 340.038 236.238 338.016C235.26 335.602 236.039 332.948 236.35 330.475C235.365 330.88 234.803 331.841 234.117 332.596ZM371.566 332.239C371.268 333.212 371.59 333.54 372.527 333.223C372.82 332.251 372.504 331.923 371.566 332.239ZM232.811 334.214C233.133 334.577 233.133 334.577 232.811 334.214ZM231.539 335.456C233.484 335.497 230.566 337.243 231.539 335.456ZM256.049 338.96C258.557 339.206 261.041 339.704 263.561 339.885C266.355 339.399 269.15 340.202 271.951 339.88C279.551 340.132 287.156 339.921 294.768 339.938C298.172 339.592 301.582 339.956 304.998 340.032C305.063 339.874 305.186 339.563 305.25 339.405C301.729 339.569 298.219 339.159 294.721 338.831C291.603 338.737 288.48 338.93 285.363 338.667C275.602 339.024 265.799 338.421 256.049 338.96ZM346.131 339.417C346.682 339.833 347.314 340.009 348.018 339.938C351.996 339.862 356.01 340.536 359.941 339.616C359.279 338.966 358.289 339.2 357.469 339.147C353.689 339.294 349.887 338.925 346.131 339.417ZM228.064 339.352C228.434 339.669 228.434 339.669 228.064 339.352ZM266.754 341.655C268.963 342.798 271.189 343.969 273.047 345.663C273.92 346.325 274.729 347.444 275.977 347.192C280.699 346.923 285.428 347.04 290.156 346.964C291.809 346.489 290.555 343.917 291.979 343.12C292.898 342.616 293.889 342.247 294.838 341.807C285.48 341.643 276.111 341.831 266.754 341.655ZM344.643 391.372C344.836 391.583 345.217 392.005 345.41 392.216C348.715 393.956 352.283 395.321 355.207 397.706C356.18 398.421 356.227 399.698 356.572 400.759C357.838 399.516 357.152 397.466 355.834 396.557C353.496 394.911 350.883 393.721 348.434 392.274C347.297 391.571 345.996 391.126 344.643 391.372Z" fill="#EFEFEF"/>
<path d="M435.639 304.412C437.068 305.742 436.781 308.027 438.152 309.393C438.275 311.004 438.668 312.592 438.762 314.209C438.211 312.937 437.918 311.584 437.707 310.225C436.834 308.361 435.92 306.475 435.639 304.412Z" fill="#EFEFEF"/>
<path d="M472.858 337.541C474.358 336.562 476.42 337.646 476.777 339.334C477.393 340.957 475.811 342.949 474.094 342.65C471.75 342.392 470.9 338.835 472.858 337.541Z" fill="#EFEFEF"/>
<path d="M239.227 348.797C239.924 346.981 242.104 346.694 243.791 346.542C246.287 346.442 248.883 346.659 251.215 347.637C252.1 347.913 252.41 348.95 252.258 349.799C251.52 353.368 250.184 356.76 248.813 360.124C244.611 360.2 240.299 360.194 236.186 359.268C236.514 355.618 237.82 352.149 239.227 348.797Z" fill="#EFEFEF"/>
<path d="M335.508 357.991C339.785 356.93 344.566 357.633 348.182 360.223C350.654 361.969 352.189 364.975 352.014 368.022C351.604 371.045 349.682 373.852 346.898 375.164C342.287 377.479 336.416 377.69 331.863 375.112C331.705 377.35 329.426 378.393 328.418 380.221C327.732 380.045 327.088 379.782 326.631 379.231C327.943 377.608 328.857 375.282 331.049 374.69C328.055 372.791 326.895 368.995 327.527 365.62C328.424 361.764 331.898 359.174 335.508 357.991Z" fill="#EFEFEF"/>
<path d="M220.857 359.174C224.379 358.67 227.977 358.987 231.498 359.397C232.494 359.631 233.684 359.584 234.486 360.293C234.92 362.327 233.889 364.295 233.373 366.229C232.723 367.911 232.553 369.903 231.334 371.291C227.549 372.047 223.611 371.333 219.779 371.204C217.535 371.145 217.898 368.245 218.133 366.721C218.801 364.155 219.018 361.225 220.857 359.174Z" fill="#EFEFEF"/>
<path d="M249.275 361.125C249.762 360.112 251.074 360.686 251.947 360.545C256.828 360.504 261.703 360.709 266.578 360.979C267.715 361.166 269.256 361.096 269.977 362.168C270.24 365.531 269.438 368.842 268.389 372.018C264.75 373.014 260.9 372.352 257.174 372.405C253.875 372.129 250.465 372.528 247.254 371.619C246.094 371.303 246.563 369.891 246.756 369.088C247.535 366.428 247.664 363.469 249.275 361.125Z" fill="#EFEFEF"/>
<path d="M379.846 361.184C382.764 360.429 386.783 361.272 387.867 364.477C389.162 367.858 386.185 371.837 382.605 371.743C379.846 371.977 376.928 370.302 376.312 367.495C375.486 364.87 377.549 362.239 379.846 361.184Z" fill="#EFEFEF"/>
<path d="M507.551 407.566C507.914 407.59 508.646 407.625 509.01 407.648L509.209 408.088C508.898 414.943 509.168 421.84 509.361 428.707C513.023 431.285 515.42 435.275 516.908 439.43C517.799 442.072 518.988 445.002 521.725 446.215C524.936 447.627 528.223 449.32 530.396 452.18C533.209 455.426 532.74 460.025 533.303 464.01C539.127 463.863 544.951 464.051 550.781 463.98C551.766 463.916 552.75 464.098 553.734 464.279C553.582 464.561 553.283 465.117 553.137 465.398C546.539 465.568 539.936 465.422 533.344 465.609C533.268 467.613 533.244 469.629 532.84 471.604C532.143 474.24 533.865 476.924 536.15 478.16C539.684 480.961 544.277 481.635 548.197 483.697C550.002 484.652 551.795 485.637 553.623 486.574C552.715 493.682 552.281 500.836 552.205 508.008C552.059 522.404 550.969 536.818 551.801 551.209C542.713 550.406 533.578 549.961 524.467 550.535C520.143 550.559 515.877 551.355 511.547 551.268C495.334 551.344 479.121 550.934 462.914 551.145C457.635 550.998 452.303 551.484 447.07 550.934C443.812 551.602 440.461 551.156 437.162 551.256C414.885 551.637 392.613 552.176 370.348 552.803C367.951 552.615 366.527 554.918 364.301 555.088C364.043 553.383 365.186 551.877 366.785 551.42C369.797 550.471 373.014 550.336 376.154 550.383C396.826 550.096 417.492 549.357 438.164 549.223C433.887 544.248 431.449 537.978 429.75 531.721C428.789 526.939 427.658 522.076 428.104 517.172C427.799 517.014 427.184 516.686 426.879 516.527C426.398 515.121 426.041 513.598 425.016 512.479C422.965 510.088 419.941 508.928 417.363 507.24C409.447 502.336 403.348 493.178 404.777 483.568C394.26 483.855 383.736 483.809 373.225 483.961C372.006 484.242 371.725 483.064 371.824 482.121C377.367 482.396 382.922 481.811 388.477 482.01C390.428 482.109 392.461 481.512 394.359 482.197C397.98 481.395 401.76 482.121 405.439 481.506C406.969 476.432 411.469 473.168 415.922 470.766C414.814 469.465 413.666 468.158 413.016 466.559C413.783 466.904 414.527 467.273 415.295 467.643C415.318 466.728 414.633 466.084 414.199 465.369C414.076 465.07 413.842 464.467 413.719 464.162C416.01 465.709 417.457 468.141 419.52 469.957C423.592 467.742 428.244 467.016 432.463 465.152C437.01 463.535 440.9 460.576 444.334 457.254C448.213 453.1 452.139 448.705 457.353 446.209C460.143 444.697 463.465 444.088 465.797 441.809C467.068 440.326 468.322 438.826 469.459 437.232C471.281 434.613 471.223 431.291 472.225 428.355C473.531 423.592 477.902 419.994 482.707 419.156C487.916 417.861 493.271 419.625 497.807 422.174C501.053 424.072 504.609 425.396 507.744 427.494C507.58 420.855 507.486 414.211 507.551 407.566Z" fill="#EFEFEF"/>
<path d="M74.9707 413.045C74.6836 411.75 76.0312 411.721 76.9277 411.568C77.3848 429.258 76.1309 446.924 75.8379 464.602C80.1328 464.672 84.4336 464.549 88.7285 464.555C89.5605 466.096 91.4766 466.125 92.9473 466.641C95.8301 467.502 98.7715 468.246 101.467 469.617C100.658 469.811 99.8496 470.022 99.041 470.232C101.145 471.211 103.734 473.396 105.932 471.445C106.828 472.477 108.076 473.08 109.201 473.836C111.838 475.518 114.375 477.527 117.463 478.342C122.678 479.525 127.523 481.881 132.387 484.061C144.896 489.557 156.826 496.318 168.205 503.859C172.57 504.932 177.076 505.816 181.072 508.002C183.932 509.789 184.91 513.316 185.385 516.451C186.047 522.984 184.793 529.781 181.629 535.541C179.449 540.164 175.652 543.779 172.277 547.541C179.051 545.191 186.322 545.391 193.395 545.25C205.137 545.326 216.826 546.475 228.521 547.412C232.453 547.781 236.414 547.863 240.316 548.484C241.236 549.873 239.391 550.102 238.441 549.943C231.627 549.627 224.83 549.012 218.027 548.479C212.807 548.197 207.586 547.928 202.377 547.488C195.65 547.523 188.9 547.242 182.191 547.881C180.639 548.156 179.104 548.543 177.516 548.291C173.865 549.258 169.84 549.844 166.904 552.434C166.025 553.078 165.264 554.027 164.15 554.256C162.281 552.996 161.672 550.441 159.563 549.404C157.043 547.682 153.943 548.936 151.154 548.848C141.393 548.836 131.883 546.24 122.174 545.578C118.389 545.092 114.545 545.209 110.783 544.647C108.281 545.016 105.762 544.576 103.248 544.6C86.4199 544.875 69.6152 543.715 52.7988 543.65C52.5234 529.904 52.2422 516.146 52.1133 502.4C56.2969 502.113 60.4219 500.877 64.0605 498.803C68.3906 495.299 71.2734 490.014 71.8828 484.512C66.6211 484.248 61.3535 484.137 56.0859 483.955C56.0449 483.703 55.9629 483.199 55.9219 482.947L55.8691 483.809C54.1172 483.615 50.9121 484.647 50.8066 481.945C53.959 481.605 57.0703 482.443 60.2168 482.385C64.3066 482.326 68.3906 482.789 72.4805 482.572C73.9336 481.037 73.8926 478.752 74.7363 476.912C75.8086 474.791 76.4473 472.447 77.8535 470.508C78.8555 468.914 80.6719 468.164 81.9609 466.857C71.4316 466.184 60.8555 466.852 50.3145 466.459C49.998 465.908 50.291 465.258 50.291 464.684C55.0019 464.883 59.707 464.818 64.418 464.742C67.8047 464.578 71.2793 465.123 74.6016 464.25C74.0859 462.891 74.707 461.479 74.3789 460.107C75.0117 444.428 75.1641 428.73 74.9707 413.045Z" fill="#EFEFEF"/>
<path d="M289.77 220.014L290.596 219.809C290.719 220.084 290.965 220.641 291.094 220.916C291.955 229.336 291.076 237.832 291.598 246.27C291.152 246.088 290.268 245.725 289.822 245.537C289.98 237.029 290.01 228.527 289.77 220.014Z" fill="#EFEFEF"/>
<path d="M272.496 233.953C273.785 234.035 274.957 233.502 276.053 232.887C278.156 234.146 277.916 236.889 278.191 239.01C277.939 239.109 277.43 239.309 277.172 239.402C276.082 238.266 276.398 236.35 275.947 234.891C273.955 235.154 272.08 236.01 270.064 236.063C270.451 235.02 271.242 233.9 272.496 233.953Z" fill="#EFEFEF"/>
<path d="M123.902 282.48C124.236 282.475 124.893 282.451 125.227 282.439C125.35 284.736 124.793 287.133 125.678 289.324C125.467 291.176 125.467 293.045 125.42 294.908C124.148 294.75 124.102 293.396 124.031 292.406C123.545 289.102 124.447 285.797 123.902 282.48Z" fill="#EFEFEF"/>
<path d="M236.742 414.205C238.629 414.715 238.857 417.199 238.928 418.857C237.932 417.457 236.795 416.004 236.742 414.205Z" fill="#EFEFEF"/>
<path d="M234.006 415.494C235.125 416.93 235.828 418.635 236.32 420.381C234.516 419.742 233.637 417.24 234.006 415.494Z" fill="#EFEFEF"/>
<path d="M265.254 220.541C265.547 220.682 266.133 220.957 266.426 221.098C267.035 222.885 266.795 224.877 266.93 226.746C266.848 233.309 267.152 239.871 267.041 246.434C274.641 246.375 282.234 245.953 289.822 245.537C290.268 245.725 291.152 246.088 291.598 246.27C291.012 246.744 290.338 247.213 289.535 247.143C281.531 247.389 273.545 248.15 265.535 248.32C265.43 239.062 265.758 229.787 265.254 220.541Z" fill="#EFEFEF"/>
<path d="M272.52 222.369C272.766 222.486 273.246 222.721 273.486 222.838C273.732 225.662 273.791 228.592 272.566 231.217C274.576 232.535 276.803 227.977 278.191 230.801C276.668 232.629 273.855 232.008 272.256 233.736C270.809 233.156 269.25 231.24 270.668 229.852C271.008 229.834 271.693 229.799 272.033 229.781C272.566 227.35 272.262 224.83 272.52 222.369Z" fill="#EFEFEF"/>
<path d="M86.2559 249.815C87.7617 248.824 88.8398 250.893 89.8828 251.719C90.8555 253.043 92.6719 253.834 93.1582 255.434C92.209 256.881 90.9023 255.047 90.0234 254.455C88.6523 253.078 86.4551 251.9 86.2559 249.815Z" fill="#EFEFEF"/>
<path d="M276.809 223.459C277.207 223.389 278.016 223.248 278.414 223.178C278.701 224.783 278.479 226.412 278.133 227.988C279.574 229.412 281.279 230.713 282.018 232.67C279.961 233.279 279 231.346 278.004 229.975C276.48 228.158 277.078 225.627 276.809 223.459Z" fill="#EFEFEF"/>
<path d="M127.887 229.97C129.141 229.648 130.465 229.666 131.748 229.8C132.369 232.373 128.842 231.599 127.354 231.839C127.512 231.207 127.518 230.521 127.887 229.97Z" fill="#EFEFEF"/>
<path d="M141.621 247.64C146.736 243.849 153.1 242.273 159.334 241.617C166.863 240.943 174.609 241.459 181.699 244.259C186.439 246.287 191.297 248.402 195.053 252.041C200.502 256.078 205.137 261.222 208.518 267.105C209.607 261.24 208.348 254.994 205.348 249.867C204.211 248.156 202.805 245.601 200.332 246.609C200.314 246.164 200.273 245.279 200.256 244.834C201.305 244.828 202.354 244.828 203.402 244.834H203.812C209.057 250.154 211.148 258.023 210.656 265.336C210.51 268.131 209.9 272.074 206.572 272.619C201.17 273.287 195.686 272.531 190.447 271.166C186.486 269.929 182.01 268.634 179.689 264.879C177.48 266.683 174.539 267.861 171.691 267.006C168.457 266.343 166.131 263.9 163.723 261.855C162.762 262.974 161.789 265.154 159.955 264.257C155.291 262.576 151.061 259.675 147.75 255.99C145.764 253.816 144.346 251.209 142.441 248.965C142.025 249.738 141.691 250.588 141.023 251.191C137.584 254.566 135.006 258.738 133.055 263.121C130.031 270.334 129.182 278.209 128.432 285.925C128.514 286.845 127.998 288.627 129.469 288.656C130.992 277.951 138.346 269.127 146.818 262.904C148.313 261.925 149.637 260.332 151.553 260.302C151.582 260.519 151.635 260.953 151.658 261.17C149.713 262.986 147.381 264.345 145.406 266.138C138.803 271.81 132.932 279.216 131.848 288.117C134.109 287.947 136.371 288.064 138.639 288.152C138.557 288.55 138.398 289.347 138.322 289.746C136.143 290.05 133.898 289.201 131.771 289.916C131.52 290.812 131.76 291.515 132.498 292.031C134.789 291.826 137.162 291.726 139.395 292.365C140.145 293.132 139.213 294.252 138.322 293.982C136.922 294.035 135.516 293.941 134.121 293.847C133.57 293.045 132.855 292.382 132.07 291.82C131.244 292.195 130.688 293.625 129.697 293.437C129.123 291.931 129.75 290.244 129.006 288.785C127.893 290.537 128.543 292.746 128.473 294.697C128.027 294.674 127.137 294.615 126.686 294.586C126.586 292.834 126.574 291.052 126.094 289.353C126.867 285.14 126.732 280.804 127.629 276.603C128.906 268.224 131.291 259.582 137.063 253.119C138.744 251.425 139.916 249.304 141.621 247.64ZM143.754 248.056C145.986 249.855 147.146 252.574 149.139 254.595C152.227 257.812 155.982 260.396 160.055 262.189C160.922 261.047 161.578 259.752 162.533 258.685C163.658 257.859 164.572 259.4 165.328 260.05C167.648 262.793 170.725 265.927 174.656 265.324C176.994 264.996 178.23 262.617 180.375 261.961C181.57 263.121 181.934 264.996 183.451 265.892C187.564 268.664 192.545 269.812 197.402 270.445C200.719 270.855 204.229 271.336 207.404 269.982C207.451 268.283 206.678 266.742 205.781 265.359C203.561 261.984 200.742 259.048 197.754 256.347C190.482 249.035 180.697 244.353 170.473 243.088C161.373 242.379 151.77 243.386 143.754 248.056ZM140.736 249.767C141.047 250.06 141.047 250.06 140.736 249.767Z" fill="#EFEFEF"/>
<path d="M83.8066 243.416C86.2558 242.625 88.8749 241.717 91.4296 242.601C99.5741 245.437 106.945 250.845 111.492 258.228C112.06 259.365 112.945 261.644 111.07 262.043C110.15 258.908 108.176 256.218 105.937 253.892C102.873 250.763 99.3046 248.08 95.2792 246.322C92.5722 245.191 89.6894 243.416 86.6718 244.547C84.0175 245.455 80.9179 246.14 79.1191 248.467C77.8241 250.435 81.1874 250.552 81.58 252.017C81.5859 253.523 79.664 253.576 78.5859 253.283C77.2851 253.16 75.7323 252.164 74.6366 253.336C71.1152 256.295 69.9374 260.988 69.4804 265.377C69.9492 268.488 73.3652 269.185 75.457 270.884C76.4238 271.418 75.3398 273.357 74.4726 272.508C73.1308 271.898 71.8593 270.709 70.3124 270.861C67.7402 272.232 66.4745 275.103 65.6191 277.752C64.0312 282.439 64.0839 287.455 64.3007 292.336C64.4062 294.58 65.6835 296.513 66.6327 298.482C67.1191 299.595 68.1796 300.246 69.1757 300.849C70.3534 298.049 71.5077 295.242 72.8202 292.5C75.7734 286.06 78.2812 279.31 82.5761 273.603C86.9765 267.914 92.7656 263.121 99.5741 260.648C103.078 259.353 107.215 259.254 110.408 261.416C110.631 261.662 111.076 262.154 111.299 262.4C109.605 264.217 107.432 261.972 105.51 261.802C101.66 261.75 98.0449 263.361 94.8163 265.312C90.8554 267.633 87.3515 270.685 84.3984 274.195C80.0741 279.422 77.537 285.791 74.6366 291.849C73.2421 295.072 71.5429 298.166 70.2949 301.453C73.6816 302.215 77.2089 303.234 80.6659 302.22C87.9784 300.92 93.2226 293.22 92.373 285.972C93.1171 283.459 95.6074 285.474 97.1952 285.621C99.4394 284.32 100.875 282.041 102.685 280.236C106.676 275.297 109.769 269.566 111.363 263.396C113.033 263.877 114.059 265.347 115.072 266.642C119.033 272.133 120.879 278.789 122.01 285.381C122.707 288.381 123.146 291.492 122.777 294.574C122.467 295.254 121.476 294.902 120.885 295.125C120.885 293.455 120.949 291.791 120.937 290.127C120.252 290.431 119.566 290.742 118.887 291.052C119.027 292.306 119.326 293.572 119.092 294.838C118.687 294.838 117.891 294.832 117.492 294.832C117.252 293.695 117.158 292.541 117 291.398C116.672 291.398 116.01 291.404 115.682 291.404C115.365 292.453 115.547 293.771 114.685 294.586C113.256 294.31 113.654 292.424 113.385 291.357C113.098 291.363 112.518 291.375 112.23 291.381C112.107 292.359 111.99 293.338 111.861 294.322C110.373 294.099 110.443 292.336 109.957 291.252C108.246 291.972 105.908 291.041 104.666 292.629C104.215 292.599 103.781 292.465 103.359 292.236C100.775 292.904 98.0741 293.601 96.0351 295.424C96.0761 295.81 96.164 296.595 96.205 296.982C99.7265 298.347 103.559 297.814 107.238 298.008C111.152 298.183 115.06 297.744 118.975 297.838C119.062 298.072 119.244 298.547 119.332 298.781C119.32 298.494 119.291 297.914 119.279 297.627C124.617 297.299 129.955 297.011 135.293 296.695C139.728 296.273 144.428 295.523 148.166 292.933C145.096 291.48 141.961 289.804 138.463 289.922C138.557 289.511 138.75 288.703 138.85 288.293C143.016 288.211 148.06 289.412 150.176 293.461C149.478 295.33 149.021 297.281 148.775 299.261C148.535 299.279 148.06 299.314 147.82 299.332C148.037 299.402 148.471 299.537 148.687 299.607C146.414 312.961 143.76 326.261 141.82 339.674C167.133 339.539 192.451 339.808 217.764 339.914C217.758 340.435 217.746 340.957 217.746 341.484C192.363 341.302 166.969 341.174 141.598 341.384C140.672 344.631 141.035 348.181 139.781 351.328C130.518 352.095 121.225 353.021 111.92 352.91C110.168 352.734 107.795 353.168 106.734 351.381C105.387 348.99 105.346 346.142 104.449 343.588C104.35 343.529 104.15 343.406 104.051 343.347C97.5995 347.666 91.4648 352.429 84.996 356.73C79.664 360.316 74.2558 363.779 69.0351 367.523C75.3046 367.687 81.5859 367.365 87.8613 367.465C104.889 367.172 121.922 367.254 138.955 367.148C138.756 367.752 138.562 368.361 138.369 368.97C112.488 369.158 86.6074 368.631 60.7441 369.451C60.7441 368.836 60.7499 368.22 60.7558 367.611C62.7538 367.705 64.7519 367.734 66.7499 367.851C67.1542 366.175 69.0527 365.883 70.248 364.945C81.4394 357.041 92.7187 349.248 103.699 341.062C100.605 326.426 97.1366 311.847 94.371 297.134C93.7734 295.183 95.1503 293.361 96.8144 292.506C100.201 290.578 104.162 290.097 107.947 289.523C107.092 286.763 105.416 284.232 103.641 281.97C101.455 284.601 98.9648 288.199 95.0156 287.467C93.7558 292.3 92.2851 297.638 88.0722 300.767C84.1698 303.996 78.7734 305.092 73.8456 304.148C70.7402 303.451 67.1132 302.935 65.3144 299.965C64.0429 304.652 62.8183 310.383 58.0429 312.75C54.996 314.027 52.4296 311.092 51.1816 308.672C50.7714 306.937 50.9062 305.133 50.9589 303.375C51.7382 303.363 52.8808 303.181 53.2675 304.078C54.3456 305.836 52.9687 308.308 54.58 309.832C55.2773 310.517 56.2968 311.554 57.3691 310.968C59.0683 309.767 60.2636 307.986 61.3417 306.24C62.9472 303.638 63.1113 300.533 64.0605 297.697C62.8124 294.732 62.6718 291.48 62.6191 288.31C62.6015 282.304 63.4745 276.017 66.996 270.984C67.8749 270.568 68.7949 270.187 69.4921 269.484C68.748 268.57 67.6347 267.89 67.1952 266.771C67.3945 265.552 67.705 264.351 67.9159 263.138C66.0702 262.271 63.7499 261.457 62.0214 263.056C64.6523 264.814 66.8613 267.621 66.8495 270.914C65.2499 268.365 63.7324 265.74 61.5937 263.59C57.2695 266.9 54.4218 271.693 52.1132 276.533C51.8202 276.58 51.2402 276.679 50.9472 276.726C50.8886 274.33 52.4589 272.402 53.5195 270.386C55.3945 266.918 58.1777 264.093 60.7441 261.14C59.5605 260.771 58.3769 260.39 57.164 260.121C57.1581 259.658 57.1406 258.726 57.1288 258.263C58.8925 258.644 60.5097 259.453 62.0624 260.349C63.0702 260.273 64.0546 259.875 65.0741 259.98C66.0937 260.414 67.0253 261.011 67.9804 261.556C69.1406 258.105 70.5702 254.543 73.3769 252.088C74.4199 251.103 75.8847 250.916 77.2558 250.822C76.5761 249.293 77.08 247.547 78.2636 246.422C79.8398 244.992 81.8202 244.113 83.8066 243.416ZM112.266 266.138C111.328 269.912 109.793 273.592 107.531 276.767C108.346 277.558 109.318 278.279 109.728 279.386C111.105 282.633 112.066 286.043 113.35 289.33C113.637 289.406 114.211 289.552 114.498 289.629C114.451 290.009 114.351 290.759 114.299 291.14C114.82 290.297 115.447 289.47 116.455 289.195C114.691 284.179 112.523 279.31 109.687 274.804C109.904 274.834 110.326 274.904 110.537 274.939C114.1 279.199 116.637 284.22 118.617 289.383C119.25 289.136 119.877 288.896 120.504 288.656C119.262 280.763 117.773 272.302 112.266 266.138ZM104.355 281.086C106.717 283.447 108.662 286.318 109.775 289.476C110.139 289.441 110.859 289.371 111.223 289.336C110.344 285.334 109.014 281.426 107.437 277.646C106.324 278.713 105.416 279.967 104.355 281.086ZM133.57 298.945C124.805 299.074 116.074 299.988 107.303 299.888C103.81 299.883 100.242 300.146 96.8378 299.168C98.3437 307.892 100.418 316.517 102.275 325.177C104.092 333.234 105.891 341.297 108 349.283C108.287 350.666 110.033 350.49 111.012 351.17C111.217 351.076 111.627 350.894 111.826 350.801C113.619 351.088 115.43 351.234 117.246 351.111C122.719 350.806 128.197 350.502 133.67 350.156C135.228 349.781 136.781 349.541 138.357 349.67C139.307 344.959 139.963 340.183 140.66 335.426C140.918 335.449 141.439 335.49 141.697 335.508C141.445 335.472 140.935 335.402 140.684 335.367C142.769 322.201 145.213 309.093 147.516 295.968C143.074 297.715 138.375 298.951 133.57 298.945Z" fill="#EFEFEF"/>
<path d="M53.3262 367.529C55.5879 367.699 57.8496 367.67 60.1055 367.354C60.0059 368.051 59.9004 368.754 59.7891 369.457C56.6777 369.375 53.5664 369.439 50.4551 369.352L50.1797 367.793C51.2754 368.924 52.0781 367.09 53.3262 367.529Z" fill="#EFEFEF"/>
<path d="M51.0235 257.971C52.8399 258.164 54.6622 258.023 56.4786 257.889C56.4434 258.562 56.42 259.242 56.3907 259.922C54.9961 259.617 53.3907 260.068 52.0958 259.447L51.8731 259.184C51.8555 259.424 51.8262 259.91 51.8086 260.15C50.2032 260.619 50.959 258.721 51.0235 257.971Z" fill="#EFEFEF"/>
<path d="M123.34 263.098C125.408 263.643 124.787 266.092 125.068 267.709C125.637 272.443 125.039 277.236 125.59 281.959C125.01 281.982 124.441 282.012 123.867 282.047C124.43 275.742 124.008 269.385 123.34 263.098Z" fill="#EFEFEF"/>
<path d="M74.7421 266.297C74.66 265.6 74.6132 264.785 75.5097 264.645C76.7284 265.066 77.5956 266.027 78.0468 267.211C76.8222 267.768 75.6679 267.064 74.7421 266.297Z" fill="#EFEFEF"/>
<path d="M101.467 294.088C103.629 293.256 105.99 293.566 108.252 293.314C109.195 294.357 107.689 295.371 106.699 295.172C104.953 295.154 102.662 295.764 101.467 294.088Z" fill="#EFEFEF"/>
<path d="M484.893 294.849C486.322 294.738 487.764 294.896 489.111 295.417C489.51 299.068 489.316 302.753 489.363 306.421C489.164 310.91 489.686 315.509 488.455 319.892C488.397 326.554 488.52 333.21 488.402 339.873C488.578 342.574 488.414 345.281 487.928 347.941C484.635 348 481.359 348.187 478.078 347.976C474.902 348.345 471.686 347.384 468.563 348.275C468.217 342.925 468.692 337.558 468.656 332.203C468.92 327.925 468.68 323.625 469.055 319.359C469.201 318.158 470.865 318.808 471.674 318.714C476.766 319.248 481.858 318.205 486.943 318.562C487.143 315.193 487.4 311.83 487.266 308.455C487.008 308.566 486.498 308.783 486.24 308.894C486.123 311.566 483.551 313.248 481.342 314.238C479.215 314.765 476.877 314.578 474.838 313.781C471.322 311.888 470.08 307.089 471.75 303.562C473.408 299.683 478.406 298.072 482.221 299.507C484.166 300.457 486.082 302.021 486.615 304.224C487.108 305.66 486.305 307.388 487.465 308.607C487.359 304.523 487.365 300.439 487.588 296.361C486.527 296.314 483.58 296.988 484.893 294.849ZM477.24 301.47C474.803 302.103 472.875 304.529 472.904 307.06C473.174 309.052 474.322 310.945 476.033 312.029C479.508 313.576 484.125 311.402 484.764 307.564C485.127 303.632 481.096 300.134 477.24 301.47ZM472.477 336.521C470.057 338.296 470.561 342.984 473.695 343.599C475.981 344.15 477.715 341.859 478.008 339.837C477.709 337.382 474.838 334.974 472.477 336.521ZM481.758 336.439C479.385 337.699 478.986 341.039 481.014 342.814C483.363 345.111 487.289 342.082 486.797 339.24C486.229 337.218 483.85 335.279 481.758 336.439Z" fill="#EFEFEF"/>
<path d="M357.604 298.377C358.131 298.57 358.664 298.77 359.197 298.975C359.52 300.691 359.918 302.391 360.328 304.09C365.01 303.527 369.738 303.768 374.443 303.621C386.695 303.51 398.953 303.059 411.205 303.662C411.34 304.037 411.621 304.787 411.762 305.162C404.396 305.086 397.031 305.109 389.666 305.104C381.463 305.197 373.271 305.578 365.068 305.473C363.686 305.49 362.25 305.367 360.926 305.836C360.293 306.486 359.918 307.324 359.49 308.115C358.799 307.939 358.113 307.758 357.434 307.57C357.926 306.855 358.406 306.135 358.91 305.426C358.389 303.094 357.832 300.762 357.604 298.377Z" fill="#EFEFEF"/>
<path d="M306.645 302.982C310.676 301.992 314.977 302.695 319.125 302.455C319.066 302.613 318.955 302.93 318.896 303.088C319.629 302.437 320.543 302.226 321.521 302.279C321.387 302.965 321.252 303.662 321.117 304.359C315.258 304.025 309.381 304.359 303.516 304.307C287.496 304.494 271.471 304.67 255.451 304.459C254.402 304.476 253.395 304.799 252.381 305.045C252.305 305.402 252.158 306.117 252.082 306.475C251.408 306.744 250.746 307.025 250.084 307.324C250.723 307.394 251.367 307.459 252.012 307.523C251.443 307.752 250.875 307.98 250.318 308.221C250.928 309.715 250.254 311.133 249.316 312.316C249.123 312.064 248.73 311.56 248.537 311.309C248.162 310.822 247.787 310.342 247.412 309.867C248.414 308.068 249.334 306.217 250.113 304.307L250.33 303.785C250.523 303.809 250.91 303.85 251.104 303.867C251.203 303.58 251.402 303.012 251.502 302.725C254.584 302.443 257.678 302.836 260.766 302.807C268.57 303.146 276.375 303 284.18 302.865C291.445 302.859 298.705 302.771 305.965 302.496C306.135 302.619 306.475 302.859 306.645 302.982ZM249.141 310.922C249.902 311.121 250.4 309.879 250.049 309.305C249.281 309.018 248.736 310.353 249.141 310.922Z" fill="#EFEFEF"/>
<path d="M321.803 302.35C325.588 302.303 329.385 302.437 333.17 302.127L333.48 302.432C333.557 303.064 333.533 303.697 333.404 304.336C329.748 303.68 326.01 304.307 322.324 304.359C322.137 303.686 321.961 303.018 321.803 302.35Z" fill="#EFEFEF"/>
<path d="M476.566 302.596C478.734 301.875 481.717 301.945 483.035 304.131C484.734 306.498 483.621 310.108 481.014 311.291C479.039 311.707 476.625 311.549 475.213 309.943C473.004 307.916 473.707 303.621 476.566 302.596Z" fill="#EFEFEF"/>
<path d="M297.281 383.941C298.705 383.097 300.68 383.771 302.32 383.648C303.662 383.402 304.998 384.72 303.996 385.968C302.127 386.847 299.988 386.097 298.101 385.658C297.205 385.599 296.976 384.65 297.281 383.941Z" fill="#EFEFEF"/>
<path d="M149.941 384.234C151.477 384.029 153.023 384.094 154.57 384.082C154.793 384.703 155.016 385.33 155.244 385.963C153.48 386.068 151.711 386.016 149.953 386.185C149.947 385.693 149.941 384.721 149.941 384.234Z" fill="#EFEFEF"/>
<path d="M481.793 337.659C483.978 336.129 486.92 339.223 485.396 341.321C484.605 342.891 482.068 342.979 481.178 341.461C480.217 340.301 480.545 338.461 481.793 337.659Z" fill="#EFEFEF"/>
<path d="M489.328 339.164C493.77 339.077 498.199 339.504 502.641 339.323C504.65 339.416 506.766 339.024 508.693 339.762C508.67 340.032 508.617 340.571 508.588 340.84C502.201 341.022 495.814 340.864 489.428 340.928C489.404 340.483 489.352 339.604 489.328 339.164Z" fill="#EFEFEF"/>
<path d="M544.312 340.898C544.436 340.271 544.564 339.65 544.705 339.035C546.352 339.316 548.027 339.375 549.703 339.311C549.697 339.727 549.68 340.547 549.674 340.963C547.887 340.963 546.094 340.975 544.312 340.898Z" fill="#EFEFEF"/>
<path d="M358.289 354.932C361.98 353.684 367.307 355.91 367.125 360.363C367.002 365.561 359.49 367.664 356.326 363.803C353.736 361.149 354.996 356.356 358.289 354.932Z" fill="#EFEFEF"/>
<path d="M298.383 362.947C300.609 362.59 303.064 362.291 305.197 363.223C305.812 363.949 304.951 365.045 304.137 365.057C302.391 365.256 300.58 365.344 298.857 364.957C297.879 364.893 297.738 363.445 298.383 362.947Z" fill="#EFEFEF"/>
<path d="M437.52 366.152C440.068 365.543 442.723 365.888 445.318 365.847C476.197 365.642 507.082 366.24 537.955 366.146C538.02 366.621 538.149 367.564 538.213 368.039C526.359 368.068 514.512 368.132 502.676 367.88C481.992 367.71 461.315 367.822 440.631 367.775C439.535 367.646 436.799 368.039 437.52 366.152Z" fill="#EFEFEF"/>
<path d="M538.26 366.317C542.748 366.34 547.242 366.176 551.73 366.375C551.771 366.803 551.854 367.664 551.895 368.092C547.441 368.192 542.977 367.893 538.529 368.204C538.43 367.571 538.342 366.944 538.26 366.317Z" fill="#EFEFEF"/>
<path d="M232.91 371.906C235.277 371.232 237.844 371.602 240.281 371.736C241.717 371.982 243.563 371.93 244.488 373.242C244.031 376.406 243.398 379.541 242.438 382.6C241.869 385.535 241.676 388.623 240.088 391.26C239.707 392.139 238.576 391.975 237.809 392.144C235.131 392.344 232.482 391.605 229.799 391.816C229.02 391.559 227.789 391.365 227.83 390.305C228.281 385.488 229.588 380.795 230.807 376.125C231.275 374.643 231.516 372.832 232.91 371.906Z" fill="#EFEFEF"/>
<path d="M345.633 375.99C346.541 375.135 347.232 376.506 347.689 377.104C348.381 378.404 349.746 379.775 349.219 381.352C348.469 381.592 347.918 381.387 347.572 380.736C346.74 379.254 345.727 377.73 345.633 375.99Z" fill="#EFEFEF"/>
<path d="M164.291 382.881C164.971 382.676 165.65 382.477 166.342 382.283C166.377 382.652 166.447 383.397 166.482 383.766C162.803 387.996 160.412 393.135 157.922 398.109C155.848 402.105 153.885 406.166 151.658 410.086C149.877 413.396 147.691 416.496 146.285 419.994C142.412 429.604 135.885 437.83 129.17 445.605C123.674 451.834 117.809 457.723 112.4 464.033C110.068 466.354 108.334 469.201 105.932 471.445C103.734 473.396 101.145 471.211 99.041 470.232C99.8496 470.022 100.658 469.811 101.467 469.617C102.305 469.828 103.189 470.748 104.063 470.332C105.193 469.189 106.102 467.848 107.109 466.6C102.393 466.828 97.6699 466.6 92.9473 466.641C91.4766 466.125 89.5605 466.096 88.7285 464.555C95.4727 464.215 102.234 464.748 108.961 464.133C111.832 461.461 114.229 458.162 116.994 455.314C127.869 443.795 139.359 432.047 145.131 416.988C151.482 406.998 156.023 396.018 161.994 385.828C159.744 385.939 157.494 385.951 155.244 385.963C155.016 385.33 154.793 384.703 154.57 384.082C157.529 384.006 160.494 384.094 163.441 383.812C163.652 383.584 164.063 383.121 164.268 382.887L164.291 382.881Z" fill="#EFEFEF"/>
<path d="M268.389 548.842C284.941 548.613 301.518 548.355 318.053 549.217C327.27 549.838 336.504 550.154 345.691 551.127C351.779 551.742 358.072 552.017 363.779 554.443C363.762 554.842 363.721 555.638 363.703 556.037C360.756 555.931 358.008 554.73 355.107 554.361C346.154 552.961 337.096 552.416 328.072 551.865C305.461 550.412 282.791 550.652 260.15 551.185C258.516 551.068 256.441 551.789 255.117 550.605C254.508 548.97 256.793 549.275 257.742 549.152C261.305 549.234 264.838 549.029 268.389 548.842Z" fill="#EFEFEF"/>
<path d="M282.615 383.631C284.719 383.502 286.852 383.385 288.943 383.713L289.271 384.269C289.213 384.609 289.09 385.289 289.025 385.629C286.863 386.021 284.59 386.185 282.439 385.646C282.492 384.967 282.551 384.299 282.615 383.631Z" fill="#EFEFEF"/>
<path d="M372.357 414.275C373.301 412.594 373.904 410.426 375.58 409.354C375.855 409.43 376.406 409.57 376.682 409.641C376.746 412.512 374.73 414.967 373.049 417.129C372.017 416.531 371.748 415.277 372.357 414.275Z" fill="#EFEFEF"/>
<path d="M50.3965 384.768C56.4199 384.27 62.5078 384.809 68.5488 384.369C72.5332 384.545 76.5234 384.1 80.5019 384.469C85.6875 384.129 90.8848 384.469 96.0703 384.311C114.029 384.557 131.982 384.363 149.941 384.234C149.941 384.721 149.947 385.693 149.953 386.186C116.73 387.029 83.4961 386.068 50.2734 386.379C50.3027 385.975 50.3613 385.172 50.3965 384.768Z" fill="#EFEFEF"/>
<path d="M74.4141 389.268C74.3965 387.914 74.1738 385.881 76.2774 386.449C76.3301 390.826 77.1211 395.25 76.5762 399.61C77.1563 403.553 76.8867 407.561 76.916 411.539C76.4239 411.598 75.4278 411.715 74.9356 411.774C74.9004 404.297 74.8653 396.821 74.4785 389.35H75.5274C75.252 389.332 74.6953 389.291 74.4141 389.268Z" fill="#EFEFEF"/>
<path d="M299.748 435.1C300.176 435.803 300.639 436.506 301.072 437.232C301.219 446.32 300.908 455.426 301.242 464.514C311.977 464.332 322.705 464.496 333.439 464.455C359.244 464.361 385.049 464.273 410.853 464.168C410.027 462.967 409.195 461.777 408.363 460.588C408.627 460.559 409.16 460.5 409.424 460.471C409.119 459.949 408.82 459.434 408.533 458.93C408.809 458.689 409.359 458.203 409.635 457.963C410.953 460.055 412.353 462.094 413.719 464.162C413.842 464.467 414.076 465.07 414.199 465.369C414.633 466.084 415.318 466.729 415.295 467.643C414.527 467.273 413.783 466.904 413.016 466.559C411.539 465.955 409.904 466.131 408.352 466.096C363.855 466.283 319.353 466.225 274.857 466.471C249.504 466.682 224.15 466.342 198.797 466.711C195.744 472.143 192.727 477.633 189.293 482.836C206.098 482.648 222.908 482.643 239.713 482.625C243.252 482.508 246.797 482.895 250.33 482.52C250.318 483.135 250.307 483.756 250.301 484.383C229.471 484.354 208.641 484.553 187.805 484.793C184.025 490.646 180.105 496.412 176.578 502.424C175.816 503.572 174.996 505.594 173.303 504.527C172.605 503.484 173.654 502.441 174.076 501.533C177.187 496.652 180.316 491.789 183.475 486.949C187.031 481.682 190.676 476.455 193.746 470.889C196.09 466.863 198.029 462.451 201.58 459.305C204.381 456.721 207.152 454.02 210.416 452.027C210.703 452.813 210.996 453.609 211.295 454.412C207.088 457.102 203.496 460.611 200.144 464.279C233.279 464.244 266.414 464.326 299.549 464.496C299.977 454.705 299.648 444.896 299.748 435.1Z" fill="#EFEFEF"/>
<path d="M250.699 482.461C254.232 482.941 257.801 482.602 261.352 482.666C271.295 482.736 281.238 482.602 291.182 482.648C292.752 482.648 294.346 482.361 295.887 482.854C297.809 482.303 299.807 482.619 301.77 482.566C325.049 482.273 348.305 482.719 371.578 482.086C371.613 482.549 371.695 483.475 371.73 483.932C354.645 484.225 337.541 484.072 320.479 484.518C312.48 484.213 304.459 484.582 296.449 484.418C281.18 484.559 265.893 484.078 250.629 484.436C250.646 483.768 250.67 483.111 250.699 482.461Z" fill="#EFEFEF"/>
<path d="M155.42 559.817C156.346 558.539 157.729 556.506 159.498 557.772C159.381 558.141 159.146 558.885 159.029 559.26C152.561 567.34 148.359 577.078 145.723 587.033C145.354 587.004 144.609 586.94 144.234 586.91C144.451 582.358 146.35 578.063 147.973 573.861C150.023 568.969 152.467 564.229 155.42 559.817Z" fill="#EFEFEF"/>
<path d="M363.844 563.098C363.223 561.973 364.307 560.49 365.514 561.393C366.393 563.022 366.75 564.862 367.049 566.678C367.453 569.28 368.068 571.893 367.746 574.547C367.4 574.565 366.715 574.6 366.369 574.617C365.186 570.85 365.238 566.813 363.844 563.098Z" fill="#EFEFEF"/>
</svg>
